<?xml version="1.0" encoding="UTF-8" standalone="no"?>
<!-- Creator: CorelDRAW X6 -->

<svg
   xmlns:dc="http://purl.org/dc/elements/1.1/"
   xmlns:cc="http://creativecommons.org/ns#"
   xmlns:rdf="http://www.w3.org/1999/02/22-rdf-syntax-ns#"
   xmlns:svg="http://www.w3.org/2000/svg"
   xmlns="http://www.w3.org/2000/svg"
   xmlns:sodipodi="http://sodipodi.sourceforge.net/DTD/sodipodi-0.dtd"
   xmlns:inkscape="http://www.inkscape.org/namespaces/inkscape"
   xml:space="preserve"
   width="82.8168mm"
   height="23.4029mm"
   version="1.1"
   style="shape-rendering:geometricPrecision; text-rendering:geometricPrecision; image-rendering:optimizeQuality; fill-rule:evenodd; clip-rule:evenodd"
   viewBox="0 0 3902 1103"
   id="svg2"
   inkscape:version="0.48.4 r9939"
   sodipodi:docname="CDRoundelWithLongText-DrkBg.svg"><metadata
   id="metadata19"><rdf:RDF><cc:Work
       rdf:about=""><dc:format>image/svg+xml</dc:format><dc:type
         rdf:resource="http://purl.org/dc/dcmitype/StillImage" /><dc:title></dc:title></cc:Work></rdf:RDF></metadata><sodipodi:namedview
   pagecolor="#ffffff"
   bordercolor="#666666"
   borderopacity="1"
   objecttolerance="10"
   gridtolerance="10"
   guidetolerance="10"
   inkscape:pageopacity="0"
   inkscape:pageshadow="2"
   inkscape:window-width="890"
   inkscape:window-height="872"
   id="namedview17"
   showgrid="false"
   inkscape:zoom="0.97462774"
   inkscape:cx="146.72269"
   inkscape:cy="41.46183"
   inkscape:window-x="298"
   inkscape:window-y="163"
   inkscape:window-maximized="0"
   inkscape:current-layer="svg2" />
 <defs
   id="defs4">
  <style
   type="text/css"
   id="style6">
   
    .fil0 {fill:#FEFEFE}
    .fil1 {fill:black}
   
  </style>
 </defs>
 <g
   id="Layer_x0020_1">
  <metadata
   id="CorelCorpID_0Corel-Layer" />
  <path
   class="fil0"
   d="M1520 667l0 100c-1,30 -7,56 -18,79 -9,20 -23,39 -43,53 -20,16 -46,25 -82,25 -36,0 -63,-9 -83,-25 -20,-15 -33,-34 -42,-53 -11,-23 -17,-49 -18,-79l0 -429c1,-29 7,-55 18,-78 9,-20 22,-40 42,-54 20,-15 48,-25 83,-25 36,0 62,10 82,25 20,15 34,35 43,54 11,23 17,49 18,78l0 100 -100 0 0 -100c0,-20 -5,-34 -16,-46 -5,-5 -14,-8 -25,-8 -19,0 -28,14 -33,27 -3,8 -4,17 -5,27l0 429c1,21 7,35 17,45 5,5 12,8 21,8 23,0 32,-12 37,-27 3,-7 4,-16 4,-27l0 -100 100 0zm311 118c-3,52 -19,89 -53,118 -18,15 -43,22 -75,22 -64,0 -96,-36 -112,-71 -9,-21 -15,-45 -16,-71l0 -272c3,-52 19,-91 53,-121 17,-15 42,-22 74,-22 64,0 97,36 113,70 9,21 15,44 16,69l0 278zm-94 -275c1,-21 -3,-36 -13,-48 -5,-5 -13,-8 -22,-8 -19,0 -27,13 -31,28 -3,8 -4,17 -3,28l0 272c-1,21 4,36 13,46 5,5 12,8 21,8 19,0 28,-12 32,-27 3,-8 4,-17 3,-28l0 -272zm416 407l-100 0 0 -36c-17,16 -32,28 -50,37 -10,5 -20,7 -29,7 -28,0 -47,-16 -58,-37 -13,-20 -19,-46 -19,-69l0 -345c0,-23 6,-49 19,-70 12,-20 31,-36 58,-36 19,0 39,11 53,22 9,7 17,14 26,22l0 -222 100 0 0 728zm-100 -423c0,-16 -15,-33 -30,-33 -15,0 -27,14 -27,33l0 304c0,19 12,33 27,33 15,0 30,-14 30,-33l0 -304zm430 229l0 62c-3,52 -19,89 -54,118 -18,15 -43,22 -75,22 -64,0 -97,-36 -113,-71 -9,-21 -15,-45 -16,-71l0 -272c3,-52 20,-91 55,-121 17,-15 42,-22 74,-22 64,0 97,36 113,70 9,21 15,44 16,69l0 157 -165 0 0 118c1,21 7,36 16,46 5,5 12,8 21,8 19,0 28,-12 32,-27 3,-8 4,-17 4,-28l0 -59 93 0zm-165 -137l72 0 0 -76c0,-21 -4,-36 -14,-48 -5,-5 -13,-8 -22,-8 -19,0 -27,13 -32,28 -3,8 -4,17 -5,28l0 76zm432 -108c-9,-3 -19,-4 -28,-4 -16,0 -35,2 -50,17 -19,16 -22,33 -22,49l0 376 -100 0 0 -541 100 0 0 60c1,-7 8,-24 24,-40 16,-15 40,-29 76,-29l0 111zm44 438l0 -728 84 0c99,0 152,20 181,75 28,55 32,147 32,289 0,143 -4,233 -32,288 -29,55 -82,75 -181,75l-84 0zm107 -107c37,0 57,-4 68,-40 5,-17 9,-43 10,-77 1,-35 1,-81 1,-141 0,-59 0,-106 -1,-141 -1,-34 -5,-59 -10,-77 -11,-35 -32,-39 -68,-39l0 514zm508 -25c-3,52 -19,89 -53,118 -18,15 -43,22 -75,22 -64,0 -96,-36 -112,-71 -9,-21 -15,-45 -16,-71l0 -272c3,-52 19,-91 53,-121 17,-15 42,-22 74,-22 64,0 97,36 113,70 9,21 15,44 16,69l0 278zm-94 -275c1,-21 -3,-36 -13,-48 -5,-5 -13,-8 -22,-8 -19,0 -27,13 -31,28 -3,8 -4,17 -3,28l0 272c-1,21 4,36 13,46 5,5 12,8 21,8 19,0 28,-12 32,-27 3,-8 4,-17 3,-28l0 -272zm161 -321l100 0 0 100 -100 0 0 -100zm100 186l0 555c0,28 0,71 -14,107 -14,37 -45,65 -101,65 -16,0 -27,-1 -34,-3 -4,-1 -7,-2 -10,-3l0 -92c3,1 6,1 9,2 7,1 13,2 19,2 17,0 25,-14 29,-31 1,-8 2,-17 2,-26 0,-9 0,-17 0,-23l0 -554 100 0zm326 410c-3,52 -19,89 -53,118 -18,15 -43,22 -75,22 -64,0 -96,-36 -112,-71 -9,-21 -15,-45 -16,-71l0 -272c3,-52 19,-91 53,-121 17,-15 42,-22 74,-22 64,0 97,36 113,70 9,21 15,44 16,69l0 278zm-94 -275c1,-21 -3,-36 -13,-48 -5,-5 -13,-8 -22,-8 -19,0 -27,13 -31,28 -3,8 -4,17 -3,28l0 272c-1,21 4,36 13,46 5,5 12,8 21,8 19,0 28,-12 32,-27 3,-8 4,-17 3,-28l0 -272z"
   id="path10" />
  <g
   id="_833781456">
   <circle
   class="fil0"
   cx="544"
   cy="546"
   r="536"
   id="circle13" />
   <path
   class="fil1"
   d="M546 0c302,0 546,245 546,546 0,302 -245,546 -546,546 -302,0 -546,-245 -546,-546 0,-302 245,-546 546,-546zm-81 333l0 -197c0,-9 3,-16 9,-22 6,-6 14,-9 22,-9l103 0c9,0 16,3 22,9 6,6 9,14 9,22l0 197c0,9 -3,16 -9,22 -6,6 -14,9 -23,9l-103 0c-9,0 -16,-3 -23,-9 -6,-6 -9,-14 -9,-22zm134 -1l0 -195 -101 0 0 195 101 0zm-96 598l51 0 0 -195 -50 0c-5,0 -8,-2 -12,-5 -3,-3 -5,-7 -5,-12 0,-5 2,-8 5,-12 3,-3 7,-5 12,-5l83 0 0 228 33 0 0 -69c0,-4 2,-8 5,-12 3,-3 7,-5 12,-5 5,0 8,2 12,5 3,3 5,7 5,12l0 85c0,5 -2,9 -5,12 -3,3 -7,5 -12,5l-133 0c-5,0 -8,-2 -12,-5 -3,-3 -5,-7 -5,-12 0,-4 2,-8 5,-11 3,-3 7,-5 12,-5zm38 -902c-3,0 -5,0 -8,0 -282,4 -510,235 -510,518 0,284 228,514 511,518 -140,-4 -252,-118 -252,-259 0,-143 116,-259 259,-259 143,0 259,-116 259,-259 0,-143 -116,-259 -259,-259z"
   id="path15" />
  </g>
 </g>
</svg>