<svg xmlns="http://www.w3.org/2000/svg" xmlns:xlink="http://www.w3.org/1999/xlink" width="354" height="100" viewBox="0 0 354 100"><path d="M138.168 60.095v9.018c0 3.003-.75 5.259-1.501 7.512-.75 1.503-2.252 3.756-3.753 4.507-1.505 1.502-4.511 2.252-7.513 2.252-3.004 0-6.011-.75-7.512-2.252-1.504-1.503-3.006-3.003-3.757-4.507-.751-2.253-1.501-4.509-1.501-7.512V30.048c0-2.252.75-5.258 1.501-6.758.751-1.506 2.253-3.759 3.757-5.258 1.501-1.505 4.508-2.255 7.512-2.255 3.002 0 6.008.75 7.513 2.255 1.501 1.499 3.003 3.002 3.753 5.258.752 2.251 1.501 4.506 1.501 6.758v9.015h-9.012v-9.015c0-1.499-.753-3.006-1.502-3.758-.752-.749-1.504-.749-2.253-.749-1.503 0-2.255 1.5-3.004 2.255 0 .753 0 1.502-.754 2.252v39.064c0 1.503.754 3.003 1.503 3.756.752.751.752.751 1.502.751 2.254 0 3.006-.751 3.006-2.253V60.095h10.514zm27.795 10.521c0 4.507-1.5 8.263-4.507 10.516-1.502 1.502-3.755 2.252-6.76 2.252-6.012 0-9.016-3.003-9.765-6.759-.754-1.502-1.504-3.756-1.504-6.76V45.072c0-4.507 1.504-8.264 4.506-11.267 1.504-1.5 3.757-2.255 6.763-2.255 6.008 0 9.014 3.005 10.518 6.012.75 2.252 1.5 3.755 1.5 6.009v24.79l-.751 2.255zm-8.261-24.791c0-1.504 0-3.004-1.504-4.507-.751-.753-1.501-.753-2.254-.753-1.499 0-2.252 1.504-3.004 2.256v27.044c0 1.502 0 3.004 1.505 4.507.749.751.749.751 2.252.751 1.501 0 2.254-.751 3.005-2.254V45.825zm37.558 36.808h-9.014v-3.005c-1.5 1.503-3.005 2.254-4.507 3.005-.75.75-1.503.75-2.251.75-2.255 0-4.507-1.501-5.259-3.003-1.504-1.502-1.504-4.51-1.504-6.009V42.82c0-2.256.75-4.507 1.504-6.013.752-1.5 3.004-3.002 5.259-3.002 1.502 0 3.753.75 4.505 2.251l2.253 2.256v-20.28h9.014v66.103-1.502zm-9.014-38.313c0-1.5-1.5-3.003-3.005-3.003-1.502 0-2.251 1.503-2.251 3.003v27.795c0 1.503.75 3.007 2.251 3.007 1.505 0 3.005-1.503 3.005-3.007V44.32zm39.063 21.037v6.009c0 4.504-1.501 8.262-5.262 10.516-1.5 1.501-3.752 2.252-6.759 2.252-6.007 0-9.014-3.003-10.518-6.76-.748-1.504-1.5-3.756-1.5-6.759v-24.79c0-4.507 1.5-8.263 5.259-11.27 1.5-1.5 3.755-2.25 6.759-2.25 6.015 0 9.019 3.002 10.52 6.008.752 2.251 1.501 3.756 1.501 6.007v14.274h-15.024v10.518c0 1.503.752 3.003 1.503 4.507.749.752.749.752 2.256.752 1.5 0 2.251-.752 3.003-2.256v-7.512h8.262v.754zm-15.024-12.019h6.763v-6.765c0-1.501 0-3.002-1.503-4.504-.752-.751-1.5-.751-2.256-.751-1.5 0-2.251 1.503-3.003 2.253 0 .75 0 1.501-.751 2.254v6.761l.75.752zm39.063-9.767h-2.253c-1.502 0-3.005 0-4.509 1.501-1.502 1.501-2.252 3.006-2.252 4.508v33.804h-9.013V34.555h9.013v5.259c0-.751.75-2.252 2.252-3.757 1.503-1.501 3.759-2.251 6.762-2.251v9.765zm3.756 39.813V17.279h7.512c9.016 0 13.523 1.502 16.525 6.761 2.257 5.259 3.005 13.522 3.005 26.293 0 12.769 0 21.034-3.005 26.292-2.252 5.258-7.509 6.759-16.525 6.759h-7.512zm9.766-9.765c3.008 0 5.259 0 6.01-3.755.752-1.503.752-3.759.752-6.763v-25.54c0-3.007-.752-5.257-.752-6.762-.751-3.003-3.002-3.758-6.01-3.758v46.578zm45.826-2.253c0 4.504-1.503 8.262-4.507 10.516-1.507 1.501-3.759 2.252-6.765 2.252-6.009 0-9.011-3.003-9.765-6.76-.75-1.504-1.501-3.756-1.501-6.759v-24.79c0-4.507 1.501-8.263 4.507-11.27 1.502-1.5 3.754-2.25 6.76-2.25 6.013 0 9.017 3.002 10.517 6.008.755 2.251 1.503 3.756 1.503 6.007v24.792l-.749 2.254zm-8.267-24.793c0-1.501 0-3.002-1.499-4.504-.752-.751-1.506-.751-2.255-.751-1.502 0-2.256 1.503-3.004 2.253v27.045c0 1.5 0 3.003 1.502 4.507.75.748.75.748 2.251.748 1.506 0 2.254-.748 3.005-2.251V46.573zm14.274-29.294h9.014v9.011h-9.014v-9.011zm9.014 16.526v50.33c0 2.254 0 6.763-1.503 9.767-1.5 3.005-3.755 6.009-9.014 6.009h-3.755v-8.263h2.255c1.5 0 2.254-1.502 2.254-3.005V33.805h9.763zm29.298 36.811c0 4.507-1.502 8.263-4.505 10.516-1.503 1.502-3.759 2.252-6.763 2.252-6.009 0-9.013-3.003-9.768-6.759-.75-1.502-1.499-3.756-1.499-6.76V45.072c0-4.507 1.499-8.264 4.507-11.267 1.503-1.5 3.756-2.255 6.76-2.255 6.009 0 9.014 3.005 10.518 6.012.75 2.252 1.502 3.755 1.502 6.009v24.79l-.752 2.255zm-8.265-24.791c0-1.504 0-3.004-1.501-4.507-.752-.753-1.502-.753-2.254-.753-1.501 0-2.251 1.504-3.002 2.256v27.044c0 1.502 0 3.004 1.501 4.507.751.751.751.751 2.253.751s2.254-.751 3.003-2.254V45.825z"/><defs><path id="a" d="M0 0h354.133v100H0z"/></defs><clipPath id="b"><use xlink:href="#a" overflow="visible"/></clipPath><path clip-path="url(#b)" fill="#FEFEFE" d="M96.853 49.58c0 26.553-21.525 48.078-48.08 48.078C22.223 97.658.699 76.133.699 49.58c0-26.552 21.524-48.078 48.074-48.078 26.555 0 48.08 21.525 48.08 48.078z"/><path clip-path="url(#b)" d="M49.527 0c27.042 0 49.578 21.784 49.578 49.58 0 27.045-21.782 49.579-49.578 49.579-27.043 0-49.58-21.783-49.58-49.579C-.053 22.538 21.731 0 49.527 0zm-.754 2.253h-.748C22.483 2.253 2.2 23.29 2.2 48.829c0 25.542 20.283 46.574 46.573 46.574-12.769 0-22.536-10.519-22.536-23.288 0-12.772 10.52-23.287 23.29-23.287 12.771 0 23.287-10.516 23.287-23.288 0-12.769-10.517-23.288-23.287-23.288h-.754z"/><path d="M41.263 30.8V13.523c0-.75 0-1.503.75-2.256.753-.749 1.503-.749 2.255-.749h9.015c.751 0 1.503 0 2.254.749.751.753.751 1.506.751 2.256V30.8c0 .75 0 1.505-.751 2.255s-1.503.75-2.254.75h-9.015c-.752 0-1.502 0-2.255-.75-.75-.75-.75-1.505-.75-2.255zm12.019 0V13.523h-9.015V30.8h9.015z"/><path fill="#FFF" d="M45.02 83.384h4.507V66.105H45.02c-.752 0-.752 0-.752-.748l-.752-.753c0-.75 0-.75.752-.75l.752-.752h7.513v20.282h3.004v-6.009c0-.75 0-.75.751-.75l.751-.754c.752 0 .752 0 .752.754l.75.75v7.51c0 .752 0 .752-.75.752l-.752.752H45.02c-.752 0-.752 0-.752-.752l-.752-.752c0-.75 0-.75.752-.75l.752-.751z"/></svg>