<svg xmlns="http://www.w3.org/2000/svg" width="400" height="80" viewBox="0 0 400 80"><path d="M1 62l8.468 8.468h21.171l7.409 7.409h21.17l7.41-7.409h323.904L399 62M1 78.936l8.468-8.468" fill="none" stroke="#FFF701" stroke-miterlimit="10"/><path d="M163.068 1.185h-6.595v16.542h-.67V1.185h-6.594v-.67h13.859v.67zm15.41 16.542h-.67V9.455h-10.283v8.271h-.67V.514h.67v8.271h10.283V.514h.67v17.213zm13.914-8.272h-7.712v7.601h8.83v.671h-9.5V.514h9.277v.67h-8.606v7.601h7.712v.67zm27.513 8.272V1.833l-6.818 8.092-6.839-8.092v15.894h-.672V0l7.511 8.896L220.576 0v17.727h-.671zm5.541-8.629c0-4.828 3.934-8.808 8.83-8.808 4.917 0 8.807 4.023 8.807 8.808 0 4.896-3.957 8.851-8.807 8.851-4.873 0-8.83-3.955-8.83-8.851zm.669 0c0 4.515 3.667 8.181 8.16 8.181s8.136-3.666 8.136-8.181a8.138 8.138 0 0 0-8.136-8.137c-4.493 0-8.16 3.644-8.16 8.137zm22.471 8.629h-.669V.514h4.805c2.995 0 5.7 1.632 5.7 4.739 0 2.593-2.236 4.158-4.828 4.404l6.103 8.07h-.827l-6.103-8.047h-4.181v8.047zm0-8.719h4.359c2.392 0 4.806-1.296 4.806-3.755 0-2.817-2.525-4.068-5.029-4.068h-4.136v7.823zm23.63.447h-7.713v7.601h8.83v.671h-9.5V.514h9.277v.67h-8.606v7.601h7.713v.67zm13.184 8.272V.514h5.701c5.075 0 8.717 3.799 8.717 8.584 0 4.806-3.62 8.628-8.717 8.628H285.4zm5.701-3.465c2.838 0 4.896-2.325 4.896-5.164 0-2.816-2.058-5.119-4.896-5.119h-1.924v10.283h1.924zm12.921-5.164c0-4.806 4.001-8.808 8.852-8.808 4.873 0 8.807 4.046 8.807 8.808 0 4.896-4 8.851-8.807 8.851-4.827 0-8.852-3.955-8.852-8.851zm3.8 0c0 2.816 2.19 5.365 5.052 5.365 2.817 0 4.986-2.548 4.986-5.365 0-2.794-2.169-5.32-4.986-5.32-2.861 0-5.052 2.526-5.052 5.32zm16.243 11.066c1.99-.492 2.012-1.296 2.012-1.833V.514h3.778v17.435c0 2.885-.983 4.36-4.94 5.455l-.85-3.24zm10.616-11.066c0-4.806 4.001-8.808 8.852-8.808 4.873 0 8.808 4.046 8.808 8.808 0 4.896-4.001 8.851-8.808 8.851-4.829 0-8.852-3.955-8.852-8.851zm3.8 0c0 2.816 2.191 5.365 5.052 5.365 2.816 0 4.985-2.548 4.985-5.365 0-2.794-2.168-5.32-4.985-5.32-2.861 0-5.052 2.526-5.052 5.32zm17.792 6.706l1.968-2.727c1.72 1.207 2.66 1.385 3.709 1.385 1.454 0 2.08-.447 2.08-1.609 0-2.75-7.465-2.079-7.465-7.601 0-3.867 2.883-4.985 5.342-4.985 1.989 0 3.062.336 5.476 2.146l-1.967 2.727c-1.744-1.251-2.525-1.386-3.509-1.386-.961 0-1.609.358-1.609 1.498 0 .805 1.34 1.476 2.325 1.833 2.458.894 5.142 2.346 5.142 5.768 0 3.845-2.638 5.095-5.813 5.095-1.879.001-3.13-.31-5.679-2.144zm15.105 4.873c.737-.581 1.475-1.699 1.63-3.04 0 0-.178.089-.402.089a.897.897 0 0 1-.894-.895c0-.491.403-.893.894-.893.492 0 .895.402.895.893 0 2.169-1.006 3.6-1.9 4.204l-.223-.358zM38.985 34.74H32.39v16.542h-.671V34.74h-6.594v-.671h13.86v.671zm15.41 16.541h-.671V43.01H43.441v8.271h-.671V34.069h.671v8.271h10.282v-8.271h.671v17.212zm13.913-8.27h-7.711v7.601h8.83v.67h-9.5V34.069h9.276v.671h-8.605v7.6h7.711v.671zm27.514 8.27V35.388l-6.818 8.091-6.84-8.091v15.893h-.67V33.555l7.51 8.896 7.489-8.896v17.726h-.671zm5.539-8.627c0-4.83 3.935-8.809 8.83-8.809 4.918 0 8.808 4.024 8.808 8.809 0 4.894-3.957 8.851-8.808 8.851-4.872-.001-8.83-3.958-8.83-8.851zm.671 0c0 4.514 3.666 8.181 8.159 8.181s8.137-3.667 8.137-8.181c0-4.494-3.644-8.138-8.137-8.138s-8.159 3.644-8.159 8.138zm22.47 8.627h-.67V34.069h4.807c2.995 0 5.7 1.632 5.7 4.739 0 2.593-2.236 4.158-4.828 4.404l6.103 8.069h-.827l-6.104-8.048h-4.18v8.048zm0-8.718h4.359c2.393 0 4.807-1.296 4.807-3.755 0-2.816-2.526-4.068-5.029-4.068h-4.136v7.823zm23.631.448h-7.713v7.601h8.83v.67h-9.5V34.069h9.276v.671h-8.606v7.6h7.713v.671zm12.848-.337c0-4.805 4.046-8.829 8.875-8.829 1.944 0 3.979.625 6.259 2.168l-1.922 2.816c-1.654-1.072-2.951-1.498-4.336-1.498-2.861 0-5.052 2.548-5.052 5.342s2.191 5.343 5.052 5.343c1.475 0 2.928-.514 4.671-1.765l1.878 2.794c-2.168 1.676-4.471 2.458-6.549 2.458-4.851.001-8.876-4.045-8.876-8.829zm18.799-.02c0-4.807 4.001-8.809 8.852-8.809 4.874 0 8.808 4.045 8.808 8.809 0 4.894-4.001 8.851-8.808 8.851-4.828-.001-8.852-3.958-8.852-8.851zm3.8 0c0 2.814 2.19 5.364 5.052 5.364 2.817 0 4.985-2.549 4.985-5.364 0-2.795-2.168-5.322-4.985-5.322-2.861 0-5.052 2.527-5.052 5.322zm18.018 0c0-4.807 4-8.809 8.852-8.809 4.873 0 8.807 4.045 8.807 8.809 0 4.894-4.001 8.851-8.807 8.851-4.829-.001-8.852-3.958-8.852-8.851zm3.8 0c0 2.814 2.19 5.364 5.052 5.364 2.817 0 4.986-2.549 4.986-5.364 0-2.795-2.169-5.322-4.986-5.322-2.862 0-5.052 2.527-5.052 5.322zm18.692 8.627V34.069h3.778v13.747h7.31v3.465H224.09zm21.814-8.607c0-4.805 4.046-8.829 8.875-8.829 1.945 0 3.979.625 6.259 2.168l-1.922 2.816c-1.655-1.072-2.951-1.498-4.337-1.498-2.862 0-5.052 2.548-5.052 5.342s2.19 5.343 5.052 5.343c1.475 0 2.928-.514 4.672-1.765l1.877 2.794c-2.169 1.676-4.47 2.458-6.549 2.458-4.851.001-8.875-4.045-8.875-8.829zm18.798-.02c0-4.807 4.002-8.809 8.853-8.809 4.873 0 8.807 4.045 8.807 8.809 0 4.894-4.001 8.851-8.807 8.851-4.829-.001-8.853-3.958-8.853-8.851zm3.8 0c0 2.814 2.19 5.364 5.052 5.364 2.817 0 4.985-2.549 4.985-5.364 0-2.795-2.168-5.322-4.985-5.322-2.861 0-5.052 2.527-5.052 5.322zm22.47 8.627h-3.777V34.069h5.7c3.265 0 6.125 1.654 6.125 5.23 0 2.169-1.476 3.958-3.175 4.784l4.449 7.198h-4.158l-3.934-6.572h-1.23v6.572zm0-10.059h1.945c1.185 0 2.325-.648 2.325-1.923 0-1.229-1.14-1.765-2.348-1.765h-1.922v3.688zm13.524 10.059V34.069h5.7c5.075 0 8.718 3.801 8.718 8.585 0 4.805-3.621 8.627-8.718 8.627h-5.7zm5.7-3.465c2.84 0 4.896-2.325 4.896-5.162 0-2.817-2.056-5.12-4.896-5.12h-1.921v10.282h1.921zm23.524-3.397h-6.103v3.396h7.22v3.465h-10.998V34.069h10.775v3.465h-6.998v3.419h6.103v3.466zm9.934 6.862h-3.778V34.069h5.701c3.262 0 6.124 1.654 6.124 5.23 0 2.169-1.474 3.958-3.174 4.784l4.449 7.198h-4.158l-3.936-6.572h-1.228v6.572zm0-10.059h1.944c1.185 0 2.325-.648 2.325-1.923 0-1.229-1.14-1.765-2.346-1.765h-1.923v3.688zm12.805 8.136l1.967-2.727c1.721 1.208 2.66 1.386 3.71 1.386 1.453 0 2.08-.447 2.08-1.609 0-2.75-7.466-2.08-7.466-7.601 0-3.866 2.883-4.984 5.343-4.984 1.989 0 3.062.335 5.477 2.146l-1.968 2.727c-1.743-1.251-2.525-1.385-3.508-1.385-.961 0-1.61.357-1.61 1.497 0 .805 1.342 1.476 2.326 1.833 2.458.894 5.14 2.348 5.14 5.767 0 3.845-2.636 5.096-5.812 5.096-1.879 0-3.131-.312-5.679-2.146zm16.147 1.923a.896.896 0 0 1-.894-.895c0-.49.402-.893.894-.893s.895.403.895.893a.897.897 0 0 1-.895.895z" fill="#FF0"/></svg>