<svg xmlns="http://www.w3.org/2000/svg" width="382" height="80" viewBox="-279.5 320.5 382 80"><path d="M-278.5 382.5l8.468 8.468h21.171l7.409 7.409h21.17l7.41-7.409H93.032l8.468-8.468m-380 16.936l8.468-8.468" fill="none" stroke="#FFF701" stroke-miterlimit="10"/><path d="M-134.432 321.686h-6.595v16.541h-.67v-16.541h-6.594v-.67h13.859v.67zm15.41 16.541h-.67v-8.271h-10.283v8.271h-.67v-17.213h.67v8.271h10.283v-8.271h.67v17.213zm13.914-8.272h-7.712v7.602h8.83v.67h-9.5v-17.213h9.277v.67h-8.606v7.602h7.712l-.001.669zm27.512 8.272v-15.894l-6.817 8.092-6.839-8.092v15.894h-.672V320.5l7.511 8.896 7.489-8.896v17.727h-.672zm5.541-8.629c0-4.828 3.935-8.808 8.83-8.808 4.918 0 8.808 4.022 8.808 8.808 0 4.896-3.957 8.852-8.808 8.852-4.873-.001-8.83-3.956-8.83-8.852zm.67 0c0 4.516 3.667 8.182 8.16 8.182 4.492 0 8.136-3.666 8.136-8.182a8.139 8.139 0 0 0-8.136-8.137c-4.493 0-8.16 3.644-8.16 8.137zm22.471 8.629h-.669v-17.213h4.806c2.994 0 5.699 1.633 5.699 4.739 0 2.593-2.236 4.158-4.828 4.404l6.104 8.069h-.827l-6.103-8.047h-4.182v8.048zm0-8.719h4.359c2.392 0 4.806-1.296 4.806-3.755 0-2.817-2.524-4.067-5.028-4.067h-4.137v7.822zm23.63.447h-7.713v7.602h8.83v.67h-9.5v-17.213h9.276v.67h-8.605v7.602h7.713l-.001.669zm13.184 8.272v-17.213h5.701c5.074 0 8.717 3.799 8.717 8.584 0 4.807-3.62 8.629-8.717 8.629H-12.1zm5.702-3.465c2.838 0 4.896-2.324 4.896-5.164 0-2.815-2.058-5.119-4.896-5.119h-1.925v10.283h1.925zm12.919-5.164c0-4.806 4.002-8.808 8.853-8.808 4.873 0 8.808 4.046 8.808 8.808 0 4.896-4 8.852-8.808 8.852-4.827-.001-8.853-3.956-8.853-8.852zm3.801 0c0 2.816 2.189 5.365 5.052 5.365 2.817 0 4.985-2.548 4.985-5.365 0-2.793-2.168-5.32-4.985-5.32-2.86-.001-5.052 2.527-5.052 5.32zm16.242 11.066c1.99-.492 2.013-1.296 2.013-1.833v-17.817h3.778v17.436c0 2.885-.983 4.359-4.94 5.455l-.851-3.241zm10.618-11.066c0-4.806 4-8.808 8.852-8.808 4.873 0 8.808 4.046 8.808 8.808 0 4.896-4.001 8.852-8.808 8.852-4.83-.001-8.852-3.956-8.852-8.852zm3.798 0c0 2.816 2.191 5.365 5.053 5.365 2.816 0 4.984-2.548 4.984-5.365 0-2.793-2.168-5.32-4.984-5.32-2.861-.001-5.053 2.527-5.053 5.32zm17.793 6.707l1.968-2.728c1.72 1.207 2.659 1.385 3.709 1.385 1.454 0 2.079-.446 2.079-1.608 0-2.75-7.465-2.08-7.465-7.602 0-3.867 2.884-4.984 5.343-4.984 1.989 0 3.062.336 5.476 2.146l-1.967 2.728c-1.744-1.252-2.525-1.387-3.509-1.387-.962 0-1.609.357-1.609 1.498 0 .805 1.341 1.477 2.325 1.833 2.458.894 5.143 2.347 5.143 5.769 0 3.845-2.639 5.095-5.813 5.095-1.88-.001-3.131-.311-5.68-2.145zm15.105 4.872c.737-.581 1.476-1.698 1.63-3.04 0 0-.178.09-.402.09a.898.898 0 0 1-.894-.896c0-.491.403-.894.894-.894.492 0 .896.402.896.894 0 2.169-1.006 3.601-1.899 4.204l-.225-.358zM-241.12 355.24h-6.595v16.542h-.671V355.24h-6.594v-.672h13.86v.672zm15.411 16.541h-.671v-8.271h-10.283v8.271h-.671v-17.213h.671v8.271h10.282v-8.271h.671l.001 17.213zm13.913-8.27h-7.711v7.601h8.83v.671h-9.5v-17.214h9.276v.672h-8.605v7.6h7.711l-.001.67zm27.513 8.27v-15.893l-6.818 8.09-6.84-8.09v15.893h-.67v-17.727l7.51 8.896 7.489-8.896v17.727h-.671zm5.539-8.627c0-4.83 3.935-8.81 8.83-8.81 4.918 0 8.808 4.024 8.808 8.81 0 4.894-3.957 8.851-8.808 8.851-4.872-.001-8.83-3.958-8.83-8.851zm.672 0c0 4.514 3.666 8.181 8.159 8.181s8.137-3.667 8.137-8.181a8.14 8.14 0 0 0-8.137-8.139c-4.493.001-8.159 3.645-8.159 8.139zm22.469 8.627h-.67v-17.213h4.807c2.995 0 5.7 1.633 5.7 4.74 0 2.592-2.236 4.157-4.828 4.403l6.103 8.069h-.827l-6.104-8.049h-4.18l-.001 8.05zm0-8.719h4.359c2.393 0 4.807-1.295 4.807-3.754 0-2.816-2.526-4.068-5.029-4.068h-4.136l-.001 7.822zm23.631.449h-7.713v7.601h8.83v.671h-9.5v-17.214h9.276v.672h-8.606v7.6h7.713v.67zm12.848-.337c0-4.805 4.046-8.829 8.875-8.829 1.944 0 3.979.625 6.259 2.169l-1.922 2.815c-1.654-1.072-2.951-1.498-4.336-1.498-2.861 0-5.052 2.548-5.052 5.342s2.191 5.343 5.052 5.343c1.475 0 2.928-.514 4.671-1.765l1.878 2.794c-2.168 1.676-4.471 2.458-6.549 2.458-4.851.001-8.876-4.045-8.876-8.829zm18.799-.02c0-4.807 4.001-8.81 8.85-8.81 4.872 0 8.806 4.046 8.806 8.81 0 4.894-4 8.851-8.806 8.851-4.826-.001-8.85-3.958-8.85-8.851zm3.801 0c0 2.813 2.189 5.363 5.05 5.363 2.816 0 4.983-2.549 4.983-5.363 0-2.795-2.167-5.322-4.983-5.322-2.86 0-5.05 2.527-5.05 5.322zm18.011 0c0-4.807 4-8.81 8.853-8.81 4.873 0 8.807 4.046 8.807 8.81 0 4.894-4.001 8.851-8.807 8.851-4.829-.001-8.853-3.958-8.853-8.851zm3.801 0c0 2.813 2.189 5.363 5.052 5.363 2.817 0 4.985-2.549 4.985-5.363 0-2.795-2.168-5.322-4.985-5.322-2.862 0-5.052 2.527-5.052 5.322zm18.691 8.627v-17.213h3.778v13.748h7.31v3.465h-11.088zm21.815-8.607c0-4.805 4.046-8.829 8.875-8.829 1.945 0 3.979.625 6.259 2.169l-1.922 2.815c-1.655-1.072-2.951-1.498-4.337-1.498-2.862 0-5.053 2.548-5.053 5.342s2.19 5.343 5.053 5.343c1.475 0 2.928-.514 4.672-1.765l1.877 2.794c-2.169 1.676-4.471 2.458-6.549 2.458-4.852.001-8.875-4.045-8.875-8.829zm18.798-.02c0-4.807 4.002-8.81 8.853-8.81 4.873 0 8.807 4.046 8.807 8.81 0 4.894-4 8.851-8.807 8.851-4.829-.001-8.853-3.958-8.853-8.851zm3.8 0c0 2.813 2.189 5.363 5.053 5.363 2.816 0 4.984-2.549 4.984-5.363 0-2.795-2.168-5.322-4.984-5.322-2.862 0-5.053 2.527-5.053 5.322zm18.604 8.627v-17.213h5.699c5.076 0 8.719 3.802 8.719 8.586 0 4.805-3.621 8.627-8.719 8.627H6.996zm5.699-3.465c2.841 0 4.896-2.325 4.896-5.162 0-2.817-2.056-5.12-4.896-5.12h-1.92v10.282h1.92zm23.526-3.397h-6.104v3.396h7.22v3.466H26.339v-17.212h10.775v3.466h-6.998v3.419h6.103v3.466h.002zm9.933 6.862h-3.778v-17.213h5.701c3.262 0 6.124 1.654 6.124 5.23 0 2.169-1.475 3.958-3.174 4.784l4.449 7.198h-4.158l-3.937-6.572h-1.228v6.573h.001zm0-10.058h1.943c1.186 0 2.325-.648 2.325-1.924 0-1.229-1.14-1.765-2.346-1.765h-1.923v3.689zm12.805 8.134l1.967-2.727c1.721 1.208 2.66 1.387 3.711 1.387 1.452 0 2.079-.447 2.079-1.609 0-2.75-7.466-2.08-7.466-7.602 0-3.865 2.883-4.983 5.343-4.983 1.989 0 3.062.335 5.478 2.146l-1.969 2.727c-1.742-1.25-2.524-1.385-3.508-1.385-.961 0-1.609.357-1.609 1.498 0 .805 1.342 1.476 2.326 1.832 2.457.895 5.14 2.349 5.14 5.768 0 3.845-2.636 5.096-5.812 5.096-1.88-.001-3.132-.314-5.68-2.148zm16.146 1.924a.897.897 0 0 1-.894-.896c0-.489.401-.893.894-.893s.896.403.896.893a.896.896 0 0 1-.896.896z" fill="#FF0"/></svg>