<svg xmlns="http://www.w3.org/2000/svg" width="400" height="320" viewBox="0 0 400 320"><g fill="#FF0"><path d="M3.364 72.768V3.814h20.062c20.326 0 35.013 15.223 35.013 34.388 0 19.253-14.596 34.566-35.013 34.566H3.364zm2.688-2.686h17.374c18.447 0 32.327-13.702 32.327-31.88 0-18.09-13.88-31.702-32.327-31.702H6.052v63.582zM74.294 50.29c0-12.894 10.657-23.73 23.732-23.73 13.253 0 23.73 10.746 23.73 23.73 0 12.717-9.94 23.822-23.73 23.822-13.612 0-23.732-11.105-23.732-23.822zm2.687 0c0 11.643 9.493 21.135 21.045 21.135 11.641 0 21.044-9.492 21.044-21.135 0-11.551-9.403-21.043-21.044-21.043-11.552 0-21.045 9.492-21.045 21.043zm52.868 43.612c9.851-2.508 10.656-8.687 10.656-14.866V27.993h2.687v51.044c0 7.88-2.508 14.866-12.716 17.462l-.627-2.597zm12-84.357c-1.433 0-2.419-.985-2.419-2.418 0-1.433.986-2.418 2.419-2.418s2.417.985 2.417 2.418c.001 1.433-.984 2.418-2.417 2.418zm18.633 40.745c0-12.894 10.657-23.73 23.731-23.73 13.254 0 23.731 10.746 23.731 23.73 0 12.717-9.94 23.822-23.731 23.822-13.612 0-23.731-11.105-23.731-23.822zm2.686 0c0 11.643 9.494 21.135 21.045 21.135 11.641 0 21.045-9.492 21.045-21.135 0-11.551-9.404-21.043-21.045-21.043-11.551 0-21.045 9.492-21.045 21.043zm60.633-11.999c0-19.343 16.299-35.373 35.91-35.373 6.986 0 14.868 2.328 20.418 6l-1.432 2.239c-5.194-3.404-12.447-5.552-18.986-5.552-18.359 0-33.223 14.686-33.223 32.686s14.864 32.687 33.223 32.687c6.896 0 14.597-2.598 20.33-6.718l1.521 2.241c-6.089 4.387-14.417 7.163-21.851 7.163-19.7 0-35.91-16.119-35.91-35.373zm71.064 11.999c0-12.894 10.656-23.73 23.731-23.73 13.253 0 23.73 10.746 23.73 23.73 0 12.717-9.94 23.822-23.73 23.822-13.613 0-23.731-11.105-23.731-23.822zm2.687 0c0 11.643 9.492 21.135 21.044 21.135 11.64 0 21.042-9.492 21.042-21.135 0-11.551-9.402-21.043-21.042-21.043-11.553 0-21.044 9.492-21.044 21.043zm96.9 22.478h-2.687V42.32c0-7.164-5.82-13.073-12.985-13.073-11.911 0-16.388 10.029-16.567 19.522v24h-2.687V27.993h2.687v8.955c3.044-6.447 9.134-10.388 16.567-10.388 8.597 0 15.671 7.164 15.671 15.76v30.448z"/><circle cx="6.223" cy="70.175" r="6.222"/><circle cx="98.998" cy="27.232" r="6.222"/><path d="M333.311 49.353a6.224 6.224 0 0 0 12.247 2.217 6.223 6.223 0 1 0-12.247-2.217z"/><circle cx="141.683" cy="7.521" r="6.222"/><circle cx="280.724" cy="63.951" r="6.222"/><circle cx="186.071" cy="72.548" r="6.222"/><circle cx="392.584" cy="70.175" r="6.223"/><path d="M242.418 312.157h-45.4s24.396-29.952 34.945-42.292c3.58-4.143 5.275-8.007 5.275-12.245 0-11.773-8.948-16.483-16.67-16.483-6.878 0-12.718 1.978-18.839 6.405l-1.695-2.262c6.405-4.614 12.716-6.97 20.534-6.97 8.854 0 19.497 5.557 19.497 19.31 0 4.897-1.979 9.514-5.935 14.13-8.76 10.171-25.431 30.706-31.083 37.582h39.371v2.825zm15.643-36.452c0-17.613 7.911-37.395 26.844-37.395s26.845 19.782 26.845 37.395c0 19.685-9.327 37.394-26.845 37.394-17.612 0-26.844-17.709-26.844-37.394zm2.825 0c0 17.143 7.63 34.57 24.019 34.57 16.296 0 24.02-17.428 24.02-34.57 0-17.049-7.252-34.568-24.02-34.568-16.766 0-24.019 17.519-24.019 34.568zm75.056-36.074v72.526h-2.826v-72.526h2.826zm19.786 51.334c0-15.071 7.536-27.691 16.391-37.677 8.006-8.949 16.295-14.412 16.295-14.412l1.506 2.45c0 .563-20.722 12.527-28.822 35.132 5.084-5.559 10.831-7.629 16.766-7.629 12.34 0 22.136 9.983 22.136 22.135 0 12.15-9.795 22.134-22.136 22.134-12.339.001-22.136-9.983-22.136-22.133zm2.826 0c0 10.644 8.666 19.311 19.31 19.311 10.645 0 19.31-8.667 19.31-19.311s-8.666-19.31-19.31-19.31c-10.362 0-19.31 8.289-19.31 19.31z"/><circle cx="241.043" cy="312.157" r="6.545"/><circle cx="303.499" cy="250.246" r="6.545"/><circle cx="334.636" cy="309.43" r="6.545"/><circle cx="388.579" cy="243.109" r="6.545"/><path d="M11.914 231.57c12.805-3.171 13.979-11.275 13.979-19.383v-97.382h3.522v97.382c0 13.041-4.58 19.736-16.679 22.908l-.822-3.525zm42.488-26.312h-3.877l41.116-93.154 40.878 93.154h-3.875l-13.98-31.835H68.381l-13.979 31.835zm15.505-35.359h43.229L91.64 120.796l-21.733 49.103zm87.558 35.359h-3.525v-90.453h25.257c16.094 0 29.956 8.928 29.956 24.904 0 14.919-13.981 23.259-28.781 23.259h-22.907v42.29zm0-45.815h22.907c12.569 0 25.256-6.814 25.256-19.735 0-14.802-13.274-21.379-26.431-21.379h-21.732v41.114zm61.702 45.815h-3.875l41.113-93.154 40.88 93.154h-3.875l-13.979-31.835h-46.285l-13.979 31.835zm15.507-35.359h43.229l-21.499-49.103-21.73 49.103zm158.041 39l-70.483-86.929v83.287h-3.524v-93.154l70.483 86.928v-84.227h3.524v94.095z"/><circle cx="8.164" cy="232.44" r="8.162"/><circle cx="391.836" cy="115.894" r="8.162"/><circle cx="155.444" cy="161.831" r="8.162"/><circle cx="130.657" cy="205.257" r="8.162"/><circle cx="281.691" cy="171.06" r="8.162"/></g></svg>