<svg xmlns="http://www.w3.org/2000/svg" width="500" height="500" viewBox="0 0 500 500"><g fill="#FFF"><path d="M77.31 212.811a.05.05 0 0 1-.031-.012l-39.118-33.464c-.013-.013-.019-.028-.016-.045.003-.016.016-.031.031-.033l49.501-16.407c.013-.008.031-.005.043.011.013.008.019.025.016.043l-10.38 49.869a.045.045 0 0 1-.031.036c-.006.002-.009.002-.015.002zm-39.025-33.494l38.997 33.359 10.346-49.715-49.343 16.356zm297.861 19.797a.06.06 0 0 1-.025-.008l-30.693-19.86a.044.044 0 0 1-.021-.036c-.003-.016.003-.031.016-.038l48.89-43.293a.052.052 0 0 1 .056-.006c.019.014.025.034.019.055l-18.194 63.153a.047.047 0 0 1-.028.029c-.007.004-.014.004-.02.004zm-30.618-19.915l30.593 19.793 18.132-62.938-48.725 43.145zM146.562 364.403h-.006c-.025-.006-.043-.024-.041-.049l5.233-92.979a.056.056 0 0 1 .037-.046c.019 0 .043.008.053.029l12.911 29.646c.006.011.006.02.003.031l-18.147 63.334a.043.043 0 0 1-.043.034zm5.271-92.828l-5.203 92.366 18.03-62.918-12.827-29.448z"/><path d="M146.562 364.403a.045.045 0 0 1-.047-.04l-9.775-60.934c0-.01 0-.018.006-.026l15.008-32.048a.043.043 0 0 1 .053-.023c.021.005.034.026.034.045l-5.233 92.984c-.003.021-.021.042-.046.042zm-9.729-60.972l9.707 60.492 5.196-92.309-14.903 31.817zm-59.523-90.62a.05.05 0 0 1-.031-.012c-.012-.011-.015-.028-.015-.045l10.379-49.872a.061.061 0 0 1 .041-.037c.016 0 .037.009.046.025l22.773 39.312c.009.012.009.025.006.041-.006.012-.019.023-.031.024l-33.152 10.562c-.007.002-.01.002-.016.002zm10.401-49.791l-10.339 49.676 33.022-10.518-22.683-39.158zM33.666 277.605a.055.055 0 0 1-.041-.021L5.393 232.126c-.009-.012-.009-.032 0-.048l32.759-52.805c.012-.017.037-.028.053-.017a.04.04 0 0 1 .031.045l-4.523 98.259c0 .021-.016.037-.034.043l-.013.002zm-28.177-45.5l28.136 45.301 4.511-97.93-32.647 52.629zM304.07 86.225a.05.05 0 0 1-.047-.038l-13.392-70.732c-.003-.02.006-.043.028-.051a.055.055 0 0 1 .056.013l53.841 65.962a.045.045 0 0 1 .006.045c-.006.019-.021.028-.04.031l-40.446 4.77h-.006zm-13.311-70.608l13.349 70.512 40.322-4.757-53.671-65.755zm2.361 220.755a.061.061 0 0 1-.025-.006c-.019-.009-.025-.029-.021-.05l12.334-57.118a.047.047 0 0 1 .028-.033c.016-.007.031-.006.043.002l30.693 19.86c.015.011.021.023.021.036a.043.043 0 0 1-.016.042l-43.027 37.257a.044.044 0 0 1-.03.01zm12.365-57.09l-12.291 56.917 42.877-37.125-30.586-19.792z"/><path d="M14.891 312.344c-.003 0-.006 0-.009-.003a.046.046 0 0 1-.037-.039L5.387 232.11c-.003-.023.009-.043.031-.048.021-.011.043 0 .056.017l28.232 45.454a.046.046 0 0 1 0 .048l-18.774 34.736a.047.047 0 0 1-.041.027zm-9.387-80.039l9.415 79.836 18.694-34.583-28.109-45.253zm32.687-52.96a.044.044 0 0 1-.043-.031l-11.205-32.609c-.006-.014 0-.033.009-.045.013-.014.031-.02.047-.012l60.703 16.2c.019.007.034.023.034.046.003.02-.012.039-.031.043l-49.501 16.406c-.003.002-.01.002-.013.002zm-11.13-32.586l11.158 32.482 49.309-16.345-60.467-16.137z"/><path d="M5.433 232.15l-.019-.001c-.019-.011-.031-.034-.025-.056l21.554-85.413a.045.045 0 0 1 .043-.037c.013-.003.038.012.043.031l11.205 32.611a.04.04 0 0 1-.003.037L5.473 232.128a.049.049 0 0 1-.04.022zm21.563-85.298L5.551 231.826l32.588-52.532-11.143-32.442zM235.1 59.39c-.009 0-.019-.006-.028-.011-.016-.011-.025-.032-.016-.053l15.529-48.153c.006-.017.022-.033.043-.033h.006l40.049 4.259a.05.05 0 0 1 .04.033.06.06 0 0 1-.015.051l-55.582 43.896a.042.042 0 0 1-.026.011zm15.564-48.15L235.19 59.208l55.371-43.728-39.897-4.24zm42.456 225.132a.042.042 0 0 1-.037-.019l-39.323-49.147c-.013-.014-.013-.031-.006-.046.006-.016.019-.03.034-.031l51.657-7.969a.054.054 0 0 1 .041.016c.012.011.019.026.012.04l-12.331 57.122a.063.063 0 0 1-.034.036l-.013-.002zm-39.239-49.161l39.214 49.009 12.3-56.955-51.514 7.946zm-102.086 84.21a.068.068 0 0 1-.019-.003l-39.832-19.314c-.012-.009-.025-.023-.025-.041 0-.015.01-.034.022-.04l35.054-21.18a.04.04 0 0 1 .043-.001c.016.005.025.02.028.034l4.774 40.494c.003.018-.003.033-.019.045a.055.055 0 0 1-.026.006zm-39.729-19.361l39.673 19.236-4.755-40.334-34.918 21.098z"/><path d="M111.967 252.109a.043.043 0 0 1-.034-.016l-34.657-39.298a.06.06 0 0 1-.009-.044.045.045 0 0 1 .031-.032l33.153-10.562a.05.05 0 0 1 .041.008.045.045 0 0 1 .019.037l1.504 49.858c0 .02-.009.039-.028.043a.045.045 0 0 1-.02.006zm-34.574-39.323l34.524 39.147-1.498-49.667-33.026 10.52z"/><path d="M136.787 303.469a.043.043 0 0 1-.041-.027l-24.823-51.36a.051.051 0 0 1 .012-.053c.013-.012.031-.015.05-.009l39.832 19.316c.025.009.031.037.021.063l-15.011 32.043a.043.043 0 0 1-.04.027zm-24.718-51.305l24.714 51.15 14.949-31.915-39.663-19.235z"/><path d="M111.967 252.109a.033.033 0 0 1-.022-.008c-.015-.008-.025-.021-.025-.038l-1.504-49.861c0-.014.013-.032.028-.04.013-.009.034-.008.05.004l36.556 28.68a.043.043 0 0 1 .019.037.048.048 0 0 1-.021.039l-35.054 21.179a.047.047 0 0 1-.027.008zm-1.452-49.806l1.496 49.678 34.93-21.104-36.426-28.574zM33.873 364.205a.044.044 0 0 1-.043-.031l-18.982-51.861c-.006-.019-.003-.039.009-.051l20.67-18.698a.043.043 0 0 1 .049-.008.049.049 0 0 1 .028.043l-1.688 70.56a.049.049 0 0 1-.037.047l-.006-.001zm-18.929-51.897L33.83 363.91l1.675-70.204-20.561 18.602z"/><path d="M14.891 312.344c-.009 0-.021-.007-.028-.011-.019-.016-.025-.041-.012-.06l18.774-34.736c.009-.021.034-.028.05-.025.019.004.034.02.037.04l1.893 16.038a.054.054 0 0 1-.016.04l-20.667 18.698c-.009.009-.022.016-.031.016zm18.747-34.633l-18.576 34.367 20.446-18.5-1.87-15.867zm84.124 177.319l-.006.003c-.022-.007-.037-.021-.041-.044l-4.644-56.428c0-.019.006-.034.021-.044a.05.05 0 0 1 .05 0l24.302 16.299a.043.043 0 0 1 .015.06l-19.655 40.132c-.008.015-.024.022-.042.022zm-4.592-56.382l4.625 56.164 19.565-39.943-24.19-16.221zM87.689 162.941c-.003 0-.006-.003-.013-.003l-60.703-16.203c-.016-.004-.028-.017-.031-.037-.006-.016 0-.031.013-.043l82.97-70.765c.013-.016.038-.019.056-.008.019.013.025.033.019.051l-22.264 86.972a.054.054 0 0 1-.022.028c-.009.004-.015.008-.025.008zm-60.603-16.272l60.572 16.168 22.218-86.782-82.79 70.614z"/><path d="M26.986 146.738c-.009 0-.021-.006-.031-.014a.048.048 0 0 1-.006-.061l38.057-59.121c.006-.009.019-.014.028-.017l44.91-11.647c.024-.008.04.004.053.023.009.021.006.043-.013.056l-82.967 70.766c-.009.009-.018.015-.031.015zM65.075 87.61l-37.877 58.838 82.573-70.429L65.075 87.61z"/><path d="M65.047 87.618a.046.046 0 0 1-.041-.029.039.039 0 0 1 .012-.054L95.991 63.77c.019-.012.043-.012.056.003l13.938 12.117a.037.037 0 0 1 .016.045c-.003.014-.019.028-.031.033L65.06 87.615l-.013.003zm30.969-23.752L65.254 87.467l44.603-11.568-13.841-12.033zm55.779 207.555c-.003 0-.009.001-.009-.001a.048.048 0 0 1-.037-.04l-4.774-40.493a.045.045 0 0 1 .028-.048l52.175-21.631c.019-.011.041-.003.053.016a.04.04 0 0 1 .003.054l-47.398 62.128a.063.063 0 0 1-.041.015zm-4.725-40.509l4.759 40.344 47.224-61.896-51.983 21.552z"/><path d="M151.795 271.421a.048.048 0 0 1-.04-.021.055.055 0 0 1 .003-.053l47.398-62.124c.015-.016.025-.023.053-.019.019.004.031.019.034.039l8.202 55.297a.077.077 0 0 1-.009.036c-.009.008-.021.016-.031.016l-55.603 6.831-.007-.002zm47.37-62.053L151.9 271.316l55.445-6.811-8.18-55.137z"/><path d="M199.196 209.299a.03.03 0 0 1-.009-.003c-.021-.006-.037-.02-.037-.041l-8.67-91.857a.043.043 0 0 1 .028-.045c.012-.008.037-.005.05.009l39.304 39.301c.015.015.019.039.009.056l-30.634 52.553c-.01.017-.026.027-.041.027zm-8.612-91.781l8.646 91.586 30.541-52.4-39.187-39.186z"/><path d="M199.196 209.299c-.015 0-.028-.007-.034-.019-.015-.015-.015-.036-.006-.053l30.633-52.553c.006-.016.022-.023.038-.023.009 0 .028.005.04.019l23.964 30.477a.05.05 0 0 1 .009.041c-.003.016-.013.025-.028.031l-54.601 22.077c-.003 0-.009.003-.015.003zm30.64-52.52l-30.531 52.378 54.415-22.002-23.884-30.376zm-83.274 207.624a.049.049 0 0 1-.038-.019l-25.574-35.803c-.013-.018-.013-.039-.003-.053l15.799-25.133a.058.058 0 0 1 .05-.02c.019.006.031.02.037.039l9.775 60.932a.052.052 0 0 1-.028.053c-.006.004-.012.004-.018.004zm-25.519-35.852l25.441 35.617-9.726-60.616-15.715 24.999zm-85.485-34.907h-.009a.048.048 0 0 1-.037-.04l-1.892-16.041c0-.014.006-.03.019-.042l24.017-19.094c.019-.014.043-.009.059.003a.046.046 0 0 1 .009.061l-22.128 35.132c-.011.013-.023.021-.038.021zm-1.843-16.066l1.871 15.883 21.911-34.789-23.782 18.906z"/><path d="M33.666 277.605c-.009 0-.016-.001-.022-.008-.016-.007-.024-.021-.024-.042l4.526-98.259a.048.048 0 0 1 .04-.043h.003c.025 0 .043.012.046.036l19.494 79.164a.048.048 0 0 1-.019.048l-24.017 19.095a.048.048 0 0 1-.027.009zm4.557-97.982l-4.504 97.835 23.911-19.012-19.407-78.823z"/><path d="M57.682 258.51h-.003c-.022-.001-.037-.014-.043-.036L38.148 179.31c-.006-.017 0-.041.019-.048.019-.012.041-.011.056.003l39.118 33.463a.047.047 0 0 1 .013.056l-19.627 45.699c-.011.018-.026.027-.045.027zm-19.41-79.083l19.423 78.891 19.559-45.54-38.982-33.351z"/><path d="M57.682 258.51a.05.05 0 0 1-.037-.017c-.009-.015-.012-.031-.003-.046l19.624-45.702a.054.054 0 0 1 .037-.028.08.08 0 0 1 .043.015l34.657 39.298c.009.014.013.034.006.049a.048.048 0 0 1-.038.03l-54.287 6.401h-.002zm19.64-45.658L57.76 258.41l54.114-6.384-34.552-39.174z"/><path d="M136.787 303.469c-.009 0-.016 0-.022-.005l-79.104-44.958c-.019-.009-.028-.031-.025-.051a.05.05 0 0 1 .043-.036l54.281-6.403h.006c.019 0 .034.009.043.028l24.817 51.359c.009.017.006.038-.009.056-.008.008-.018.01-.03.01zm-78.959-44.976l78.85 44.815-24.739-51.198-54.111 6.383zm29.861-95.552a.05.05 0 0 1-.022-.008c-.019-.012-.028-.032-.021-.053l22.264-86.968c.006-.021.021-.034.046-.034.021 0 .037.014.043.034l12.719 54.793a.044.044 0 0 1-.016.043l-34.983 32.18c-.005.009-.017.013-.03.013zm22.265-86.82l-22.177 86.632 34.843-32.056-12.666-54.576z"/><path d="M110.465 202.25a.046.046 0 0 1-.043-.025l-22.77-39.309a.041.041 0 0 1 .006-.056l34.983-32.18c.012-.014.037-.019.053-.006.019.008.028.028.025.048l-12.21 71.487a.048.048 0 0 1-.037.041h-.007zm-22.717-39.346l22.692 39.166 12.16-71.228-34.852 32.062zm30.014 292.126c-.01 0-.019 0-.028-.007l-30.869-23.107c-.013-.01-.019-.021-.019-.034-.003-.01 0-.021.009-.034l26.226-33.32c.012-.013.031-.021.049-.016s.031.021.034.04l4.644 56.432c.003.019-.006.037-.022.043-.009.006-.018.003-.024.003zm-30.805-23.161l30.749 23.015-4.625-56.204-26.124 33.189zm72.392-381.328c-.015 0-.028-.008-.037-.023-.012-.016-.009-.039.003-.053l28.53-35.048c.019-.02.046-.022.065-.008l30.051 21.475a.038.038 0 0 1 .021.045.043.043 0 0 1-.037.036l-58.584 13.577-.012-.001zm28.543-35.033l-28.418 34.909 58.351-13.518-29.933-21.391z"/><path d="M217.936 36.968a.042.042 0 0 1-.028-.011l-30.051-21.473a.04.04 0 0 1-.019-.048.045.045 0 0 1 .037-.036l27.144-3.2c.021-.008.05.015.05.04l2.913 24.675c0 .017-.006.037-.021.045a.079.079 0 0 1-.025.008zm-29.93-21.489l29.871 21.344-2.894-24.527-26.977 3.183z"/><path d="M217.936 36.968c-.006 0-.012-.003-.019-.005-.016-.006-.028-.021-.028-.036l-2.913-24.676c0-.012.003-.024.012-.036.009-.011.022-.015.034-.019l35.606-1.056c.019 0 .041.012.043.033.009.019.003.039-.016.049l-32.693 25.734a.04.04 0 0 1-.026.012zm-2.86-24.676l2.897 24.541L250.49 11.24l-35.414 1.052z"/><path d="M235.1 59.39c-.016 0-.028-.008-.037-.021l-17.164-22.417a.05.05 0 0 1 .006-.067l32.697-25.731c.016-.015.037-.015.056-.003a.05.05 0 0 1 .019.054l-15.53 48.151a.05.05 0 0 1-.037.031c-.006 0-.006.003-.01.003zm-17.099-22.461l17.083 22.312 15.455-47.922-32.538 25.61zM113.118 398.602c-.022 0-.037-.012-.046-.031l-16.954-52.45c-.006-.022 0-.042.019-.055l24.826-17.551a.045.045 0 0 1 .05-.001.043.043 0 0 1 .021.045l-7.87 70.003c-.003.021-.021.04-.043.04h-.003zm-16.901-52.481l16.878 52.214 7.833-69.682-24.711 17.468zm63.132-295.58h-.009l-38.926-8.903c-.019-.004-.031-.02-.034-.04 0-.021.009-.039.031-.048l67.453-26.146c.022-.006.043 0 .056.017.012.016.012.037 0 .056l-28.534 35.046a.045.045 0 0 1-.037.018zm-38.765-8.959l38.746 8.86 28.407-34.89-67.153 26.03z"/><path d="M65.047 87.618a.052.052 0 0 1-.037-.019.047.047 0 0 1 .006-.065l55.379-45.976c.022-.019.047-.014.065.006.019.017.016.045-.003.063L96.05 63.841 65.075 87.607c-.01.006-.019.011-.028.011zm53.834-44.68l-51.942 43.12L95.991 63.77l22.89-20.832z"/><path d="M109.957 75.971c-.012 0-.025-.004-.031-.012L95.987 63.845a.058.058 0 0 1-.015-.036.07.07 0 0 1 .012-.035l24.411-22.213c.016-.015.038-.015.056-.006.016.011.028.034.019.054L110 75.938a.055.055 0 0 1-.031.029c-.006.004-.01.004-.012.004zm-13.87-12.162l13.845 12.034 10.401-34.102-24.246 22.068z"/><path d="M109.957 75.971a.054.054 0 0 1-.031-.009.061.061 0 0 1-.015-.051l10.473-34.331c.003-.022.025-.034.053-.03l38.926 8.9c.019.002.031.021.037.038 0 .02-.009.039-.025.048l-49.396 25.432c-.01 0-.016.003-.022.003zm10.5-34.323l-10.426 34.183 49.185-25.321-38.759-8.862zm166.092 76.303c-.012 0-.025-.005-.031-.012-.019-.016-.021-.039-.012-.059l17.524-31.723c.009-.012.022-.023.034-.023l40.452-4.772h.003c.022 0 .037.012.043.031.006.021 0 .045-.019.056l-57.97 36.495c-.008.003-.017.007-.024.007zm17.552-31.729l-17.425 31.546 57.644-36.291-40.219 4.745zM33.873 364.205h-.012c-.019-.009-.037-.024-.034-.05l1.685-70.56c0-.014.006-.024.016-.032s.028-.013.034-.013l29.455 2.587c.016.002.031.01.037.021.006.016.01.031.003.042l-31.143 67.977a.04.04 0 0 1-.041.028zm1.728-70.555l-1.678 70.282 31.021-67.706-29.343-2.576z"/><path d="M65.013 296.23h-.003l-29.455-2.587a.045.045 0 0 1-.037-.024c-.009-.016-.009-.034 0-.047l22.127-35.132c.009-.015.025-.028.046-.021a.046.046 0 0 1 .037.036l7.331 37.719a.061.061 0 0 1-.009.042.052.052 0 0 1-.037.014zm-29.378-2.671l29.322 2.573-7.296-37.542-22.026 34.969z"/><path d="M136.787 303.469h-.006l-71.774-7.238c-.019-.001-.034-.019-.041-.037l-7.33-37.72a.048.048 0 0 1 .019-.046c.013-.014.034-.009.05-.001l79.104 44.958c.019.01.028.036.022.056a.048.048 0 0 1-.044.028zm-71.737-7.326l71.523 7.213-78.825-44.802 7.302 37.589z"/><path d="M96.165 346.152c-.006 0-.006-.003-.013-.005-.009 0-.021-.009-.031-.019l-31.149-49.921c-.009-.019-.009-.041.006-.056a.044.044 0 0 1 .056-.008l55.979 32.369a.048.048 0 0 1 .021.037.05.05 0 0 1-.021.042L96.19 346.14a.047.047 0 0 1-.025.012zm-31.016-49.835l31.028 49.72 24.724-17.48-55.752-32.24z"/><path d="M120.988 328.599a.038.038 0 0 1-.022-.005l-55.978-32.37c-.019-.012-.025-.034-.019-.053.006-.021.021-.033.043-.033h.006l71.774 7.239c.016 0 .028.011.034.026a.058.058 0 0 1 0 .045l-15.799 25.13c-.008.015-.024.021-.039.021zm-55.764-32.348l55.749 32.239 15.737-25.029-71.486-7.21zm125.301-178.809a.05.05 0 0 1-.037-.016.053.053 0 0 1 0-.061l44.575-58.053c.012-.014.034-.022.053-.014s.031.025.031.045l-1.644 34.974c0 .017-.009.029-.025.041l-42.93 23.08a.093.093 0 0 1-.023.004zm44.522-57.955l-44.354 57.764 42.72-22.965 1.634-34.799z"/><path d="M229.83 156.746a.047.047 0 0 1-.034-.016l-39.301-39.304c-.013-.009-.019-.021-.016-.037.003-.017.009-.029.025-.036l42.931-23.08a.04.04 0 0 1 .046.003c.016.01.021.025.021.041l-3.626 62.383c-.003.02-.012.036-.031.04-.006.003-.009.006-.015.006zm-39.227-39.34l39.186 39.185 3.614-62.195-42.8 23.01z"/><path d="M233.456 94.362l-.016-.001a.053.053 0 0 1-.031-.05l1.644-34.972c0-.013.006-.026.019-.033l55.578-43.897c.019-.014.043-.012.062.003.016.019.019.043.003.061l-57.219 78.869c-.012.012-.024.02-.04.02zm1.69-34.999l-1.638 34.798 56.934-78.47-55.296 43.672zm-85.417 25.054a.057.057 0 0 1-.028-.011c-.016-.011-.021-.031-.019-.051l9.623-33.873c.006-.017.019-.031.034-.033l58.584-13.576c.021 0 .046.008.056.026.006.021 0 .045-.019.057l-68.207 47.449c-.005.005-.015.012-.024.012zm9.657-33.884l-9.58 33.722 67.903-47.234-58.323 13.512z"/><path d="M149.729 84.417c-.015 0-.034-.014-.043-.028-.009-.022-.003-.047.016-.059l68.207-47.449a.053.053 0 0 1 .065.009l17.164 22.422c.009.011.009.028.006.043-.003.016-.016.026-.031.031l-85.371 25.026c-.004 0-.01.005-.013.005zm68.198-47.433l-67.934 47.258 85.03-24.927-17.096-22.331z"/><path d="M190.525 117.442c-.012 0-.021-.005-.031-.009l-40.793-33.03c-.016-.009-.021-.028-.019-.043a.047.047 0 0 1 .034-.037l85.371-25.026c.021-.003.037.003.053.02.009.016.009.039-.003.053l-44.575 58.057a.093.093 0 0 1-.037.015zm-40.697-33.053l40.691 32.941 44.457-57.903-85.148 24.962z"/><path d="M122.672 130.761h-.009c-.019-.003-.031-.017-.038-.036L109.91 75.934a.045.045 0 0 1 .012-.042c.009-.012.028-.017.043-.012l39.772 8.442a.043.043 0 0 1 .034.028.064.064 0 0 1-.003.041l-27.057 46.348a.044.044 0 0 1-.039.022zm-12.653-54.778l12.672 54.607 26.967-46.189-39.639-8.418z"/><path d="M149.729 84.417c-.003 0-.006-.005-.009-.003l-39.775-8.445c-.019-.001-.031-.02-.034-.037a.047.047 0 0 1 .021-.048l49.398-25.431c.016-.009.034-.005.05.008.013.011.021.031.016.048l-9.62 33.874c-.006.016-.025.034-.047.034zm-39.636-8.511l39.602 8.408 9.58-33.729-49.182 25.321zm3.025 322.696h-.019l-27.671-10.773c-.021-.01-.034-.034-.028-.056l10.718-41.679c.003-.021.025-.036.043-.038h.003c.019 0 .037.015.043.033l16.953 52.454c.006.019 0 .034-.013.047-.008.012-.017.012-.029.012zm-27.619-10.848l27.544 10.724-16.875-52.206-10.669 41.482z"/><path d="M86.892 431.922c-.006 0-.009 0-.016-.003-.019-.003-.031-.021-.031-.04l-1.449-44.095c0-.015.006-.03.019-.037.012-.012.028-.009.046-.009l27.671 10.776c.012.003.024.016.028.031.003.016.003.028-.009.04l-26.226 33.317c-.005.014-.021.02-.033.02zm-1.399-44.069l1.439 43.893 26.107-33.168-27.546-10.725zm121.905-123.258a.049.049 0 0 1-.025-.008.05.05 0 0 1-.021-.033l-8.202-55.295a.047.047 0 0 1 .025-.05c.016-.009.037-.008.049.006l49.886 41.196c.013.009.022.025.016.043a.044.044 0 0 1-.031.036l-41.68 14.101-.017.004zm-8.137-55.23l8.174 55.119 41.55-14.054-49.724-41.065z"/><path d="M249.082 250.493c-.012 0-.021-.005-.031-.01l-49.883-41.196a.043.043 0 0 1-.019-.043c.003-.016.012-.031.028-.036l54.601-22.076c.009-.008.031-.003.043.007.012.008.019.023.019.041l-4.715 63.27c0 .019-.009.034-.025.039-.006.004-.012.004-.018.004zm-49.796-41.229l49.755 41.088 4.7-63.105-54.455 22.017z"/><path d="M249.082 250.493c-.012 0-.021-.005-.031-.01-.013-.012-.019-.026-.016-.042l4.715-63.27c0-.017.012-.036.031-.04.016-.008.037-.003.05.015l39.326 49.15c.009.011.013.028.006.041a.042.042 0 0 1-.028.031l-44.042 14.123c-.002.002-.005.002-.011.002zm4.752-63.196l-4.703 63.084 43.911-14.079-39.208-49.005zm-24.004-30.551c-.006 0-.009-.003-.016-.005-.019-.006-.034-.026-.031-.046l3.626-62.384c0-.012.006-.021.015-.029.013-.011.022-.019.034-.012l32.954 3.031c.016 0 .028.011.034.026a.036.036 0 0 1 0 .042l-36.577 59.355c-.008.011-.024.022-.039.022zm3.67-62.381l-3.614 62.15 36.444-59.132-32.83-3.018z"/><path d="M229.83 156.746a.037.037 0 0 1-.031-.016c-.019-.016-.022-.039-.01-.056l36.578-59.355a.07.07 0 0 1 .043-.02c.009 0 .021.003.031.012l20.139 20.556c.01.011.016.026.013.038 0 .014-.006.029-.019.034l-56.72 38.795c-.006.006-.015.012-.024.012zm36.587-59.324l-36.432 59.113 56.493-38.641-20.061-20.472z"/><path d="M266.41 97.391h-.006l-32.951-3.029c-.019-.003-.031-.012-.038-.029a.038.038 0 0 1 .003-.043l57.222-78.869a.046.046 0 0 1 .059-.016c.019.011.031.033.024.056l-24.271 81.898a.043.043 0 0 1-.042.032zm-32.867-3.115l32.83 3.019 24.184-81.601-57.014 78.582z"/><path d="M286.549 117.951a.044.044 0 0 1-.034-.016l-20.139-20.556c-.012-.013-.019-.028-.012-.045a.046.046 0 0 1 .031-.034l37.663-11.167a.046.046 0 0 1 .05.016.051.051 0 0 1 .006.053l-17.524 31.723c-.01.014-.022.023-.034.023-.004.003-.007.003-.007.003zm-20.052-20.585l20.04 20.46 17.437-31.571-37.477 11.111z"/><path d="M266.41 97.391a.052.052 0 0 1-.034-.012c-.012-.013-.019-.031-.012-.045l24.271-81.901c.003-.021.022-.033.043-.033.028 0 .041.017.046.037l13.392 70.732c.003.025-.009.048-.031.056l-37.664 11.163c-.004.003-.008.003-.011.003zm24.259-81.747l-24.19 81.633 37.539-11.13-13.349-70.503zm-97.414 444.222a.047.047 0 0 1-.022-.007l-42.198-22.267c-.019-.006-.025-.021-.025-.037l-4.495-73.195c-.003-.024.016-.05.043-.05h.003c.025 0 .043.019.046.044l4.492 73.17 42.177 22.252c.022.012.031.04.019.064-.009.016-.024.026-.04.026z"/><path d="M202.481 492.29a.052.052 0 0 1-.034-.016l-51.428-54.691a.05.05 0 0 1-.003-.062c.012-.016.037-.021.059-.013l42.202 22.268a.078.078 0 0 1 .022.03l9.229 32.421a.05.05 0 0 1-.022.056.059.059 0 0 1-.025.007zm-51.201-54.567l51.104 54.35-9.17-32.222-41.934-22.128z"/><path d="M202.481 492.29a.04.04 0 0 1-.019-.007l-84.719-37.253a.045.045 0 0 1-.028-.041c0-.021.009-.037.025-.043l33.295-17.438a.055.055 0 0 1 .056.013l51.424 54.688c.016.019.019.043.003.062-.006.012-.021.019-.037.019zm-84.611-37.307l84.422 37.123-51.248-54.498-33.174 17.375z"/><path d="M117.762 455.03a.052.052 0 0 1-.031-.01.042.042 0 0 1-.009-.053l19.658-40.133c.006-.019.028-.024.041-.024.016 0 .031.006.04.021l13.634 22.695c.006.01.009.025.006.037-.003.013-.012.022-.025.028l-33.292 17.434c-.007.008-.016.005-.022.005zm19.661-40.077l-19.556 39.928 33.122-17.347-13.566-22.581z"/><path d="M151.054 437.599c-.012 0-.031-.009-.037-.021L137.38 414.88c-.006-.01-.006-.021-.006-.031l9.142-50.5c.003-.024.031-.04.047-.037.025 0 .043.021.046.044l4.492 73.191c.003.025-.009.044-.031.05a.039.039 0 0 1-.016.002zm-13.585-22.754l13.529 22.519-4.461-72.621-9.068 50.102zm116.328-227.622c-.016 0-.031-.008-.037-.017l-23.967-30.48c-.009-.014-.012-.028-.006-.043a.048.048 0 0 1 .034-.031l86.621-16.312c.022-.008.043.008.05.026.009.02.003.04-.012.056l-62.657 46.792a.043.043 0 0 1-.026.009zm-23.883-30.495l23.89 30.384 62.456-46.646-86.346 16.262z"/><path d="M229.83 156.746a.048.048 0 0 1-.043-.031.046.046 0 0 1 .016-.057l56.72-38.794c.016-.011.037-.009.056.003l29.902 22.48a.053.053 0 0 1 .015.048c-.003.019-.019.031-.037.034l-86.621 16.314c-.002 0-.005.003-.008.003zm56.716-38.786l-56.506 38.651 86.295-16.254-29.789-22.397z"/><path d="M253.797 187.223a.047.047 0 0 1-.043-.028.048.048 0 0 1 .012-.056l62.654-46.792a.05.05 0 0 1 .056-.003.056.056 0 0 1 .019.051l-10.997 38.823a.052.052 0 0 1-.037.036l-51.657 7.966c-.004.003-.007.003-.007.003zm62.57-46.722L253.971 187.1l51.446-7.937 10.95-38.662z"/><path d="M316.448 140.43a.047.047 0 0 1-.028-.011l-29.898-22.479c-.016-.009-.022-.022-.019-.038a.05.05 0 0 1 .021-.039l57.97-36.495c.016-.013.041-.009.056.004a.045.045 0 0 1 .009.055l-28.068 58.975a.05.05 0 0 1-.031.026c-.003.002-.006.002-.012.002zm-29.818-22.523l29.802 22.404 27.975-58.776-57.777 36.372z"/><path d="M305.454 179.254a.041.041 0 0 1-.025-.008.044.044 0 0 1-.021-.053l10.997-38.824c.003-.019.019-.031.041-.032l37.893-4.469.006-.001c.019 0 .034.012.043.028a.06.06 0 0 1-.013.056l-48.89 43.291a.057.057 0 0 1-.031.012zm11.031-38.828l-10.944 38.64 48.66-43.087-37.716 4.447z"/><path d="M316.448 140.43a.05.05 0 0 1-.037-.021c-.009-.011-.013-.03-.003-.043l28.068-58.977c.009-.02.028-.033.05-.028.021.003.034.017.04.039l9.822 54.508c.006.009 0 .023-.006.036a.04.04 0 0 1-.031.016l-37.896 4.472c-.001-.002-.004-.002-.007-.002zm28.05-58.87l-27.969 58.767 37.759-4.453-9.79-54.314zm-172.961 75.96a.041.041 0 0 1-.021-.004l-48.865-26.759c-.012-.008-.019-.019-.025-.028a.05.05 0 0 1 .006-.036l27.057-46.351c.009-.012.028-.026.046-.021a.054.054 0 0 1 .04.034l21.805 73.108a.042.042 0 0 1-.016.048c-.005.008-.018.009-.027.009zm-48.8-26.823l48.722 26.682-21.743-72.894-26.979 46.212z"/><path d="M171.537 157.52h-.003a.045.045 0 0 1-.043-.033l-21.808-73.106a.045.045 0 0 1 .019-.051.05.05 0 0 1 .056 0l40.796 33.028a.053.053 0 0 1 .016.058l-18.988 40.078a.052.052 0 0 1-.045.026zM149.816 84.5l21.73 72.845 18.92-39.936-40.65-32.909z"/><path d="M199.196 209.299a.042.042 0 0 1-.04-.026l-27.659-51.774c-.01-.016-.01-.031-.003-.043l18.988-40.078c.013-.022.022-.028.053-.028a.052.052 0 0 1 .037.042l8.671 91.854c.003.023-.013.043-.031.051-.007-.001-.013.002-.016.002zm-27.606-51.827l27.538 51.553-8.633-91.456-18.905 39.903z"/><path d="M110.465 202.25a.041.041 0 0 1-.025-.008c-.019-.008-.025-.029-.025-.046l12.21-71.488a.058.058 0 0 1 .025-.036c.016-.006.031-.008.043.001l48.865 26.761a.064.064 0 0 1 .025.038.048.048 0 0 1-.019.04l-61.075 44.73c-.005.005-.017.008-.024.008zm12.241-71.464l-12.179 71.312 60.923-44.618-48.744-26.694zM33.873 364.205a.047.047 0 0 1-.046-.034.046.046 0 0 1 .022-.053l36.32-20.858c.012-.008.037-.008.049.006a.045.045 0 0 1 .016.05l-7.004 19.016a.05.05 0 0 1-.041.034l-29.316 1.839zM70.1 343.403l-36.031 20.693 29.083-1.824 6.948-18.869z"/><path d="M33.873 364.205a.046.046 0 0 1-.031-.013.046.046 0 0 1-.012-.056l31.139-67.971c.009-.021.031-.028.049-.028a.051.051 0 0 1 .041.042l5.178 47.115a.056.056 0 0 1-.025.047l-36.317 20.854a.032.032 0 0 1-.022.01zm31.112-67.847l-31.009 67.686 36.165-20.769-5.156-46.917z"/><path d="M63.186 362.365a.067.067 0 0 1-.031-.012c-.016-.013-.019-.034-.012-.053l7.004-19.018c.006-.018.022-.028.041-.028h.006l25.974 2.803a.048.048 0 0 1 .041.039c.006.02-.006.038-.025.051l-32.976 16.212a.073.073 0 0 1-.022.006zm7.035-19.015l-6.952 18.876 32.728-16.092-25.776-2.784z"/><path d="M96.165 346.152c-.003 0-.006 0-.006-.003l-25.974-2.803a.049.049 0 0 1-.041-.041l-5.178-47.115c-.003-.023.01-.043.031-.051s.043 0 .056.019l31.149 49.92a.052.052 0 0 1 0 .051c-.01.013-.025.023-.037.023zm-25.935-2.894l25.841 2.789-30.99-49.665 5.149 46.876zm191.896 153.257l-59.648-4.225a.053.053 0 0 1-.041-.034l-9.229-32.424c-.003-.019.003-.04.015-.05a.061.061 0 0 1 .053-.006l68.871 36.648c.021.01.031.034.025.053a.048.048 0 0 1-.046.038zm-59.607-4.316l59.394 4.204-68.583-36.491 9.189 32.287z"/><path d="M262.126 496.515l-59.648-4.225a.053.053 0 0 1-.041-.034l-9.229-32.424c-.003-.019.003-.04.015-.05a.061.061 0 0 1 .053-.006l68.871 36.648c.021.01.031.034.025.053a.048.048 0 0 1-.046.038zm-59.607-4.316l59.394 4.204-68.583-36.491 9.189 32.287z"/><path d="M262.126 496.515l-59.648-4.225c-.025-.003-.043-.022-.041-.047 0-.028.019-.047.043-.047l83.057-4.554c.019.003.046.013.05.034a.043.043 0 0 1-.031.053l-23.415 8.779c-.002.004-.009.007-.015.007zm-58.9-4.266l58.895 4.167 23.12-8.665-82.015 4.498z"/><path d="M262.126 496.515c-.003 0-.006-.003-.012-.003l-144.365-41.479c-.025-.01-.04-.034-.031-.06a.046.046 0 0 1 .043-.034h.012l144.368 41.479a.049.049 0 0 1 .031.059.048.048 0 0 1-.046.038zM147.021 230.931c-.012 0-.025-.004-.031-.012a.048.048 0 0 1-.015-.046l8.475-33.989c.003-.014.013-.023.022-.031.012-.004.025-.008.037-.004l43.7 12.357a.051.051 0 0 1 .034.043c0 .02-.013.039-.028.046l-52.175 21.631c-.007.002-.013.005-.019.005zm8.506-33.98l-8.438 33.853 51.964-21.544-43.526-12.309z"/><path d="M199.196 209.299l-.012-.003-43.7-12.357a.058.058 0 0 1-.031-.026c-.006-.009-.006-.026 0-.037l16.041-39.419c.006-.017.028-.03.043-.031.016 0 .034.011.041.026l27.659 51.776c.009.017.009.038-.006.051a.038.038 0 0 1-.035.02zm-43.638-12.438l43.545 12.315-27.56-51.593-15.985 39.278z"/><path d="M147.021 230.931a.056.056 0 0 1-.031-.011l-36.556-28.681c-.012-.01-.021-.03-.015-.048.003-.017.021-.033.04-.036l45.031-5.308h.006c.012 0 .025.003.034.014.009.014.016.028.009.043l-8.475 33.99c-.003.016-.016.025-.031.033l-.012.004zm-36.438-28.694l36.41 28.563 8.441-33.852-44.851 5.289z"/><path d="M110.465 202.25c-.022 0-.037-.011-.043-.028a.044.044 0 0 1 .016-.056l61.072-44.729c.016-.014.041-.01.056 0a.054.054 0 0 1 .016.056l-16.041 39.419a.047.047 0 0 1-.041.028l-45.031 5.311-.004-.001zm60.967-44.64l-60.799 44.528 44.829-5.289 15.97-39.239zM65.273 380.048a.057.057 0 0 1-.025-.006l-31.397-15.843a.048.048 0 0 1-.025-.05c.003-.021.022-.037.043-.04l29.312-1.84h.003a.05.05 0 0 1 .046.04l2.084 17.686c.003.016-.006.034-.019.044a.035.035 0 0 1-.022.009zm-31.226-15.852l31.167 15.725-2.069-17.552-29.098 1.827z"/><path d="M86.892 431.922a.042.042 0 0 1-.037-.019l-53.019-67.717c-.012-.019-.012-.043 0-.059.016-.019.041-.019.056-.013l31.4 15.843a.069.069 0 0 1 .021.021l21.619 51.881c.012.019.003.043-.019.056a.04.04 0 0 1-.021.007zm-52.854-67.63l52.678 67.286-21.479-51.543-31.199-15.743z"/><path d="M65.273 380.048c-.006 0-.013 0-.019-.003a.053.053 0 0 1-.031-.037l-2.085-17.683c-.003-.021.006-.043.025-.05l32.979-16.212c.016-.011.043-.008.059.013a.047.047 0 0 1-.006.061l-30.891 33.896a.037.037 0 0 1-.031.015zm-2.038-17.704l2.069 17.552 30.659-33.643-32.728 16.091z"/><path d="M85.443 387.831c-.006 0-.013-.003-.016-.003l-20.173-7.783c-.015-.006-.025-.019-.028-.034s0-.031.009-.044l30.891-33.894c.016-.018.038-.021.059-.01.019.008.028.033.022.053l-10.721 41.678c0 .016-.012.024-.022.031a.047.047 0 0 1-.021.006zm-20.092-7.852l20.062 7.743 10.659-41.448-30.721 33.705z"/><path d="M86.892 431.922c-.019 0-.037-.009-.043-.027l-21.62-51.875a.048.048 0 0 1 .006-.053c.016-.016.034-.016.053-.012l20.173 7.783c.016.009.028.027.028.043l1.449 44.091a.051.051 0 0 1-.037.05h-.009zm-21.538-51.84l21.482 51.542-1.439-43.809-20.043-7.733z"/></g><g fill="#FFF701"><path d="M413.167 337.243c-.009 0-.022-.007-.031-.015a.042.042 0 0 1-.016-.041l10.38-49.874c.003-.015.015-.027.034-.032a.04.04 0 0 1 .043.008l39.118 33.466c.013.01.019.028.019.044a.059.059 0 0 1-.034.035l-49.498 16.406c-.006.003-.009.003-.015.003zm10.41-49.833l-10.349 49.715 49.343-16.354-38.994-33.361zm-277.065 76.811a.099.099 0 0 1-.025-.006c-.019-.013-.025-.034-.019-.053l18.194-63.154c.003-.014.015-.024.028-.029.015-.006.031-.006.043.005l30.695 19.86c.013.006.019.019.022.035a.052.052 0 0 1-.019.039l-48.89 43.29c-.004.01-.017.013-.029.013zm18.222-63.126l-18.132 62.937 48.726-43.145-30.594-19.792zm184.327-72.337a.044.044 0 0 1-.04-.028l-12.48-29.534a.038.038 0 0 1-.003-.031l17.713-63.445c.006-.021.025-.036.043-.036l.006.001c.025.003.043.023.04.048l-5.233 92.981c0 .02-.019.041-.038.043l-.008.001zm-12.431-29.584l12.396 29.333 5.199-92.351-17.595 63.018z"/><path d="M349.061 228.758h-.009c-.025-.008-.037-.025-.037-.048l5.233-92.982a.048.048 0 0 1 .046-.043c.019-.003.043.014.046.041l9.775 60.934c.003.008 0 .019-.003.026l-15.008 32.048a.054.054 0 0 1-.043.024zm5.254-92.595l-5.193 92.311 14.9-31.815-9.707-60.496zm58.852 201.08c-.019 0-.031-.013-.041-.026l-22.772-39.308a.068.068 0 0 1-.003-.042c.003-.013.016-.021.028-.027l33.156-10.559c.013-.008.031-.003.043.008.013.013.019.028.016.045l-10.38 49.87c-.003.021-.019.032-.04.039h-.007zm-22.705-39.332l22.683 39.156 10.34-49.675-33.023 10.519zm72.205 22.925l-.016-.002c-.019-.006-.031-.026-.031-.047l4.523-98.26c0-.021.015-.039.037-.042.028-.009.037.003.049.019l28.232 45.456c.01.016.01.036 0 .048l-32.755 52.805c-.011.015-.023.023-.039.023zm4.563-98.154l-4.51 97.93 32.65-52.628-28.14-45.302z"/><path d="M293.551 236.372a.05.05 0 0 1-.043-.026.047.047 0 0 1 .013-.056l43.033-37.148c.009-.009.022-.013.041-.009a.034.034 0 0 1 .031.028l12.48 29.534c.006.012.003.028-.003.04a.042.042 0 0 1-.034.023l-55.51 7.614h-.008zm43.014-37.119L293.7 236.257l55.296-7.583-12.431-29.421zM193.255 461.28a.058.058 0 0 1-.037-.015l-36.916-42.556c-.013-.013-.013-.031-.009-.05a.053.053 0 0 1 .04-.027l40.446-4.769c.003-.003.006-.003.006-.003.012 0 .025.006.034.016.009.006.015.021.012.034l-3.53 47.326a.05.05 0 0 1-.034.04.042.042 0 0 1-.012.004zm-36.822-42.564l36.786 42.403 3.518-47.155-40.304 4.752zm38.972-97.789c-.009 0-.019 0-.028-.008l-30.695-19.859c-.013-.008-.019-.021-.022-.036 0-.016.006-.027.019-.037l43.027-37.258a.05.05 0 0 1 .056-.004c.019.009.025.029.025.048l-12.334 57.12a.064.064 0 0 1-.028.034h-.02zm-30.621-19.911l30.587 19.791 12.291-56.918-42.878 37.127zm330.639-32.985c-.016 0-.031-.008-.037-.02l-28.236-45.457a.064.064 0 0 1 0-.047l18.774-34.738c.01-.016.031-.028.05-.021.022.004.037.02.037.04l9.459 80.192a.046.046 0 0 1-.028.048c-.006.003-.012.003-.019.003zm-28.18-45.502l28.111 45.252-9.418-79.837-18.693 34.585zm6.626 130.914c-.003 0-.006 0-.012-.003l-60.703-16.2c-.019-.005-.034-.023-.034-.044s.012-.037.034-.045l49.498-16.407c.019-.01.05.005.056.031l11.205 32.606c.006.019.003.034-.009.047a.042.042 0 0 1-.035.015zm-60.541-16.252l60.47 16.138-11.162-32.482-49.308 16.344z"/><path d="M473.869 353.443a.045.045 0 0 1-.043-.03l-11.205-32.606a.065.065 0 0 1 .006-.042l32.759-52.805a.045.045 0 0 1 .056-.017c.021.009.034.03.028.053l-21.554 85.415c-.006.018-.028.029-.047.032zm-11.152-32.648l11.146 32.438 21.441-84.967-32.587 52.529zM242.164 480.529c-.006 0-.009 0-.019-.003l-48.908-19.249c-.019-.009-.031-.027-.028-.046a.04.04 0 0 1 .034-.041l72.503-20.489c.019-.006.038 0 .047.016a.049.049 0 0 1 .003.053l-23.592 39.735a.046.046 0 0 1-.04.024zm-48.763-19.289l48.744 19.184 23.514-39.599-72.258 20.415zm2.004-140.313c-.013 0-.028-.004-.034-.012-.013-.013-.016-.028-.013-.044l12.334-57.118a.05.05 0 0 1 .034-.036.044.044 0 0 1 .046.016l39.326 49.152c.009.013.013.029.006.045s-.021.025-.034.028l-51.66 7.969h-.005zm12.356-57.059l-12.297 56.958 51.511-7.947-39.214-49.011zm146.077 5.385a.04.04 0 0 1-.021-.007c-.013-.005-.025-.017-.025-.033l-4.777-40.496c0-.019.006-.033.019-.043a.05.05 0 0 1 .05-.004l39.828 19.315a.044.044 0 0 1 .025.039c.003.017-.006.033-.021.043l-35.051 21.179c-.011.004-.018.007-.027.007zm-4.722-40.463l4.759 40.339 34.918-21.098-39.677-19.241z"/><path d="M390.394 297.931a.043.043 0 0 1-.028-.008.044.044 0 0 1-.019-.037l-1.501-49.857a.043.043 0 0 1 .028-.046.049.049 0 0 1 .053.014l34.657 39.298c.009.012.012.027.009.043s-.016.026-.031.029l-33.152 10.562c-.007.002-.014.002-.016.002zm-1.452-49.779l1.499 49.67 33.025-10.521-34.524-39.149z"/><path d="M388.889 248.073a.036.036 0 0 1-.019-.005l-39.832-19.313a.049.049 0 0 1-.019-.064l15.008-32.045c.009-.017.025-.028.041-.028.019 0 .034.011.043.028l24.82 51.359a.046.046 0 0 1-.009.054.045.045 0 0 1-.033.014zm-39.766-19.384l39.667 19.235-24.718-51.151-14.949 31.916z"/><path d="M390.394 297.931c-.009 0-.021-.001-.028-.009l-36.556-28.68c-.016-.009-.019-.025-.019-.04 0-.016.006-.028.021-.036l35.054-21.181c.01-.008.031-.009.047 0a.05.05 0 0 1 .021.041l1.505 49.857c0 .019-.01.036-.025.043-.005.004-.014.005-.02.005zm-36.476-28.721l36.425 28.577-1.498-49.68-34.927 21.103zm111.383-62.671a.057.057 0 0 1-.022-.004c-.016-.008-.028-.025-.024-.045l1.684-70.561c0-.023.019-.041.038-.043.028 0 .046.008.053.031l18.981 51.862a.05.05 0 0 1-.012.051l-20.667 18.698a.061.061 0 0 1-.031.011zm1.725-70.363l-1.675 70.209 20.562-18.605-18.887-51.604z"/><path d="M467.19 222.577l-.009-.001c-.019-.003-.034-.02-.037-.041l-1.889-16.038c-.003-.015.003-.028.015-.039l20.664-18.701c.021-.013.047-.016.062 0a.05.05 0 0 1 .012.057l-18.777 34.738a.044.044 0 0 1-.041.025zm-1.842-16.068l1.874 15.871 18.576-34.372-20.45 18.501zm-77.607-104.933a.061.061 0 0 1-.025-.006l-24.305-16.3c-.021-.011-.028-.037-.016-.059l19.658-40.129a.055.055 0 0 1 .05-.028c.022.006.037.023.037.043l4.644 56.43c.003.017-.006.033-.021.043a.043.043 0 0 1-.022.006zm-24.246-16.359l24.19 16.221-4.622-56.166-19.568 39.945zm27.407 338.993c-.009 0-.019 0-.025-.006a.048.048 0 0 1-.021-.05l22.267-86.971c0-.012.009-.022.021-.027.01-.005.022-.011.034-.005l60.703 16.202a.045.045 0 0 1 .034.031c.003.019-.003.037-.016.047l-82.97 70.766c-.005.01-.017.013-.027.013zm22.299-86.958l-22.218 86.778 82.787-70.611-60.569-16.167z"/><path d="M390.902 424.21a.048.048 0 0 1-.043-.024.05.05 0 0 1 .012-.057l82.967-70.766c.019-.019.043-.016.062 0s.021.04.009.059l-38.06 59.124c-.006.006-.016.016-.025.016l-44.913 11.648h-.009zm82.756-70.57l-82.573 70.428 44.696-11.59 37.877-58.838z"/><path d="M404.84 436.327a.05.05 0 0 1-.031-.013l-13.938-12.117c-.015-.012-.019-.027-.015-.043.003-.019.019-.031.034-.037l44.91-11.646c.025-.007.043.006.053.024s.003.047-.016.06l-30.972 23.759c-.006.01-.015.013-.025.013zm-13.841-12.141l13.842 12.033 30.761-23.599-44.603 11.566zm-89.336-133.301c-.016 0-.031-.008-.037-.018a.05.05 0 0 1 0-.059l47.397-62.124a.05.05 0 0 1 .05-.019c.019.005.031.023.034.041l4.777 40.494c0 .021-.009.041-.028.048l-52.175 21.631c-.006.002-.012.006-.018.006zm47.363-62.056l-47.221 61.897 51.979-21.549-4.758-40.348z"/><path d="M301.663 290.885c-.006 0-.006 0-.013-.004-.019-.001-.031-.017-.034-.037l-8.112-54.511c0-.012 0-.024.009-.036.006-.009.019-.015.031-.017l55.51-7.614a.041.041 0 0 1 .046.023.045.045 0 0 1-.003.051L301.7 290.867c-.012.01-.025.018-.037.018zm-8.059-54.519l8.087 54.356 47.264-61.948-55.351 7.592z"/><path d="M310.33 382.737c-.012 0-.024-.003-.031-.013l-39.304-39.303c-.016-.012-.019-.037-.009-.056l30.637-52.553c.009-.018.041-.025.05-.021a.04.04 0 0 1 .034.04l8.67 91.854c.003.019-.009.037-.028.047-.006.005-.013.005-.019.005zm-39.245-39.352l39.187 39.182-8.643-91.58-30.544 52.398z"/><path d="M271.026 343.438a.063.063 0 0 1-.038-.017l-23.964-30.48c-.009-.011-.009-.026-.009-.042a.055.055 0 0 1 .031-.029l54.598-22.074c.015-.007.04-.002.053.014.012.016.015.035.003.053l-30.634 52.552c-.006.016-.021.021-.037.024h-.003zm-23.889-30.505l23.883 30.377 30.531-52.38-54.414 22.003zm116.932-116.221l-.009-.003c-.019-.001-.031-.017-.037-.037l-9.775-60.933a.048.048 0 0 1 .028-.051c.019-.011.043-.003.056.016l25.574 35.804c.012.015.012.036.003.054l-15.799 25.127a.048.048 0 0 1-.041.023zm-9.697-60.792l9.725 60.614 15.715-24.999-25.44-35.615zm88.805 105.75a.05.05 0 0 1-.034-.011.048.048 0 0 1-.006-.061l22.125-35.13c.013-.021.041-.026.05-.023.019.005.034.023.034.041l1.892 16.038c.003.016-.006.033-.016.043l-24.017 19.092a.05.05 0 0 1-.028.011zm22.093-35.042l-21.91 34.791 23.781-18.911-1.871-15.88z"/><path d="M462.667 320.836a.048.048 0 0 1-.046-.036l-19.491-79.165c-.006-.019 0-.036.016-.046l24.017-19.095c.015-.01.034-.013.049-.005.019.008.025.023.025.042l-4.523 98.261c-.003.024-.019.043-.043.043l-.004.001zm-19.44-79.193l19.41 78.822 4.504-97.834-23.914 19.012z"/><path d="M462.667 320.836a.063.063 0 0 1-.031-.01l-39.121-33.466a.051.051 0 0 1-.012-.055l19.63-45.699c.006-.019.021-.028.043-.028h.003c.019 0 .034.015.041.036l19.491 79.162a.044.044 0 0 1-.022.052.032.032 0 0 1-.022.008zm-39.065-33.525l38.985 33.347-19.423-78.886-19.562 45.539z"/><path d="M423.546 287.37a.043.043 0 0 1-.034-.016l-34.657-39.298c-.009-.012-.016-.031-.009-.045.006-.019.021-.028.04-.033l54.285-6.399c.019-.008.031.004.041.017.009.013.016.031.006.047l-19.627 45.699c-.006.016-.019.024-.037.028h-.008zm-34.564-39.309l34.551 39.177 19.565-45.559-54.116 6.382z"/><path d="M388.889 248.073c-.019 0-.031-.012-.043-.028l-24.817-51.361a.046.046 0 0 1 .009-.054.05.05 0 0 1 .056-.008l79.104 44.961c.016.011.028.03.022.051-.006.02-.019.031-.041.036l-54.284 6.4c.001.003-.003.003-.006.003zm-24.712-51.292l24.743 51.195 54.108-6.381-78.851-44.814zm26.725 227.429a.05.05 0 0 1-.046-.037l-12.716-54.79c-.006-.016 0-.031.012-.044l34.983-32.178c.015-.016.037-.016.056-.005.019.008.025.031.021.051l-22.267 86.969c-.002.021-.021.034-.043.034zm-12.666-54.821l12.669 54.579 22.178-86.632-34.847 32.053z"/><path d="M378.184 369.42c-.006 0-.016 0-.021-.006a.044.044 0 0 1-.025-.047l12.21-71.489a.05.05 0 0 1 .037-.04c.022.002.041.008.05.024l22.773 39.31c.009.02.009.043-.01.057l-34.979 32.182a.083.083 0 0 1-.035.009zm12.234-71.399l-12.167 71.226 34.855-32.059-22.688-39.167zm-2.677-196.445c-.006 0-.009.001-.016-.002a.043.043 0 0 1-.031-.04l-4.647-56.43c-.003-.017.009-.036.025-.043a.042.042 0 0 1 .049.003l30.873 23.111a.05.05 0 0 1 .019.029.074.074 0 0 1-.009.036l-26.229 33.319a.044.044 0 0 1-.034.017zm-4.591-56.375l4.625 56.209 26.123-33.19-30.748-23.019zm-70.176 439.486a.068.068 0 0 1-.028-.007l-30.05-21.476a.042.042 0 0 1-.019-.044c.003-.021.019-.033.034-.04l58.584-13.571c.025-.004.04.006.053.021a.049.049 0 0 1-.003.053l-28.533 35.048c-.014.009-.026.016-.038.016zm-29.939-21.499l29.929 21.39 28.419-34.909-58.348 13.519z"/><path d="M285.83 487.888a.051.051 0 0 1-.028-.009.048.048 0 0 1-.016-.034l-2.91-24.672a.045.045 0 0 1 .021-.046.052.052 0 0 1 .05.003l30.05 21.473c.019.013.025.031.019.05-.003.019-.019.034-.037.034l-27.144 3.201h-.005zm-2.848-24.622l2.891 24.522 26.976-3.18-29.867-21.342z"/><path d="M285.83 487.888h-.003l-43.669-7.358c-.022-.003-.038-.021-.038-.04-.006-.021.006-.04.025-.05l40.759-17.316c.016-.003.028-.003.04.004a.051.051 0 0 1 .025.033l2.91 24.678a.046.046 0 0 1-.019.037c-.006.009-.018.012-.03.012zm-43.499-7.423l43.449 7.32-2.897-24.55-40.552 17.23z"/><path d="M242.164 480.529a.05.05 0 0 1-.034-.016.042.042 0 0 1-.006-.053l23.592-39.738a.05.05 0 0 1 .037-.021h.006c.012 0 .025.006.034.016l17.164 22.422c.012.013.012.025.009.041a.044.044 0 0 1-.028.03l-40.756 17.316c-.006.003-.012.003-.018.003zm23.598-39.701l-23.483 39.556 40.57-17.235-17.087-22.321zm114.106-269.246c-.006 0-.013-.003-.025-.006-.012-.009-.022-.029-.019-.045l7.87-70.007a.048.048 0 0 1 .041-.041.046.046 0 0 1 .049.033l16.953 52.456a.045.045 0 0 1-.019.05l-24.823 17.55a.036.036 0 0 1-.027.01zm7.895-69.832l-7.836 69.685 24.712-17.47-16.876-52.215zm-74.789 382.937a.047.047 0 0 1-.038-.019.048.048 0 0 1 0-.056l28.534-35.045c.012-.019.034-.022.05-.019l38.922 8.899c.019.003.034.019.034.044.003.019-.009.037-.028.046l-67.456 26.146c-.006.004-.013.004-.018.004zm28.551-35.04l-28.406 34.887 67.152-26.026-38.746-8.861z"/><path d="M380.43 458.538c-.013 0-.025-.003-.034-.016-.019-.015-.016-.046.003-.064l24.408-22.215 30.975-23.763c.021-.019.049-.012.065.01.016.019.013.047-.006.065l-55.379 45.974a.062.062 0 0 1-.032.009zm53.487-44.51l-29.052 22.286-22.891 20.834 51.943-43.12z"/><path d="M380.43 458.538c-.009 0-.016 0-.025-.006-.016-.01-.028-.031-.019-.053l10.47-34.328a.065.065 0 0 1 .031-.034c.016-.003.034 0 .043.012l13.938 12.114c.009.01.016.021.016.037 0 .013-.003.025-.013.034l-24.411 22.215c-.009.009-.018.009-.03.009zm10.494-34.294l-10.402 34.099 24.247-22.062-13.845-12.037z"/><path d="M380.43 458.538h-.009l-38.926-8.899c-.019-.004-.031-.019-.034-.041-.003-.016.009-.037.025-.043l49.396-25.432c.015-.009.037-.009.049.003.016.016.022.031.016.05l-10.47 34.332a.05.05 0 0 1-.047.03zm-38.786-8.962l38.755 8.863 10.426-34.186-49.181 25.323zm-185.304-30.85c-.022 0-.041-.01-.046-.031a.049.049 0 0 1 .021-.056l57.97-36.494c.022-.012.043-.009.056.007.015.016.019.037.009.056l-17.521 31.726a.05.05 0 0 1-.037.021l-40.449 4.771h-.003zm57.839-36.405l-57.641 36.286 40.22-4.74 17.421-31.546zm-17.393 31.587h.003-.003zm268.515-207.369h-.006l-29.455-2.589c-.015 0-.028-.011-.034-.023-.009-.013-.009-.028-.003-.043l31.14-67.974c.009-.021.031-.028.053-.025.021.004.037.025.037.048l-1.688 70.562c0 .012-.003.025-.013.033s-.021.011-.031.011zm-29.386-2.678l29.34 2.58 1.678-70.285-31.018 67.705z"/><path d="M443.177 241.67h-.013c-.019-.003-.031-.019-.037-.036l-7.327-37.721c-.003-.016 0-.031.009-.04.009-.013.019-.019.041-.016l29.455 2.587a.05.05 0 0 1 .037.025c.006.016.006.034-.003.047l-22.125 35.13a.043.043 0 0 1-.037.024zm-7.275-37.715l7.296 37.545 22.022-34.968-29.318-2.577z"/><path d="M443.177 241.67c-.013 0-.019-.003-.025-.008l-79.105-44.958a.046.046 0 0 1-.021-.055.046.046 0 0 1 .043-.032h.006l71.774 7.24c.021.003.037.017.04.036l7.331 37.721a.037.037 0 0 1-.019.045.037.037 0 0 1-.024.011zm-78.894-44.937l78.826 44.799-7.302-37.585-71.524-7.214z"/><path d="M435.843 203.95c-.006 0-.016-.003-.022-.004l-55.975-32.37c-.015-.009-.021-.021-.021-.04-.003-.016.006-.03.019-.038l24.823-17.553a.06.06 0 0 1 .038-.004c.012 0 .021.007.031.02l31.152 49.917a.063.063 0 0 1-.006.061.105.105 0 0 1-.039.011zm-55.888-32.419l55.751 32.239-31.027-49.718-24.724 17.479z"/><path d="M435.843 203.95h-.003l-71.774-7.237a.059.059 0 0 1-.038-.026.048.048 0 0 1 .003-.045l15.799-25.13c.012-.023.04-.028.062-.016l55.975 32.368a.048.048 0 0 1 .021.056.047.047 0 0 1-.045.03zm-71.694-7.325l71.483 7.209-55.746-32.239-15.737 25.03zm-98.39 244.169l-.019-.003c-.019-.006-.031-.024-.028-.05l1.641-34.974c0-.012.009-.027.025-.037l42.931-23.08a.053.053 0 0 1 .059.013.048.048 0 0 1 0 .056l-44.575 58.057c-.009.009-.022.018-.034.018zm1.684-34.995l-1.635 34.803 44.354-57.765-42.719 22.962z"/><path d="M267.4 405.82c-.009 0-.016-.003-.025-.006a.056.056 0 0 1-.022-.047l3.626-62.381a.05.05 0 0 1 .031-.04.047.047 0 0 1 .049.012l39.304 39.302c.01.009.016.024.013.04a.04.04 0 0 1-.025.031l-42.931 23.083a.047.047 0 0 1-.02.006zm3.666-62.325l-3.614 62.198 42.8-23.015-39.186-39.183z"/><path d="M193.255 461.28c-.019 0-.034-.009-.043-.027s-.003-.044.016-.056l74.145-55.461a.049.049 0 0 1 .049-.006c.016.01.025.028.025.043l-1.644 34.975c0 .021-.013.037-.034.043l-72.5 20.486c-.007 0-.011.003-.014.003zm74.092-55.41l-73.862 55.252 72.227-20.412 1.635-34.84zm-1.588 34.874zm17.164 22.469c-.019 0-.037-.012-.043-.024-.009-.021-.003-.047.016-.059l68.207-47.447a.04.04 0 0 1 .053 0c.019.012.024.03.019.049l-9.623 33.876a.04.04 0 0 1-.031.031l-58.587 13.571c-.005.003-.008.003-.011.003zm68.126-47.379l-67.9 47.233 58.32-13.513 9.58-33.72zm-9.542 33.761z"/><path d="M282.923 463.213a.042.042 0 0 1-.037-.019l-17.164-22.419c-.01-.013-.013-.031-.006-.043 0-.016.012-.028.028-.031l85.371-25.025c.021-.006.046.007.056.025.009.021.003.046-.015.056l-68.207 47.447c-.011.006-.017.009-.026.009zm-17.087-22.443l17.096 22.335 67.934-47.258-85.03 24.923z"/><path d="M265.759 440.794a.055.055 0 0 1-.041-.021.054.054 0 0 1 .003-.056l44.571-58.054a.053.053 0 0 1 .037-.016c.013 0 .022.003.031.009l40.796 33.026a.051.051 0 0 1 .016.046.043.043 0 0 1-.031.037L265.77 440.79c-.005.001-.008.004-.011.004zm44.577-58.035l-44.457 57.902 85.15-24.96-40.693-32.942z"/><path d="M390.902 424.21h-.009l-39.776-8.444c-.012-.003-.024-.016-.031-.027a.056.056 0 0 1 0-.044l27.057-46.343c.009-.019.025-.027.05-.024.019.003.031.019.037.034l12.716 54.79c.003.019 0 .034-.012.046a.06.06 0 0 1-.032.012zm-39.701-8.522l39.639 8.413-12.675-54.604-26.964 46.191z"/><path d="M341.507 449.639c-.012 0-.021 0-.031-.01a.054.054 0 0 1-.016-.047l9.623-33.875c.006-.024.028-.037.056-.031l39.772 8.441a.052.052 0 0 1 .037.04c0 .019-.009.04-.024.047l-49.396 25.431a.043.043 0 0 1-.021.004zm9.654-33.864l-9.579 33.727 49.184-25.323-39.605-8.404zm53.53-261.743c-.019 0-.037-.016-.043-.033l-16.953-52.456c-.003-.017 0-.036.016-.048.009-.012.031-.015.046-.009l27.674 10.774a.052.052 0 0 1 .028.058l-10.721 41.679a.043.043 0 0 1-.043.036h-.004zm-16.875-52.422l16.873 52.208 10.668-41.485-27.541-10.723z"/><path d="M415.413 112.351a.034.034 0 0 1-.016-.004l-27.674-10.774a.042.042 0 0 1-.028-.031.052.052 0 0 1 .009-.041l26.226-33.32c.012-.014.031-.021.05-.014a.043.043 0 0 1 .034.042l1.446 44.094a.034.034 0 0 1-.019.037.038.038 0 0 1-.028.011zm-27.597-10.843l27.55 10.727-1.442-43.896-26.108 33.169zm-86.153 189.377a.048.048 0 0 1-.031-.012l-52.578-40.39a.045.045 0 0 1-.019-.046c.003-.016.016-.033.031-.036l44.469-14.119c.016-.005.031-.005.041.006a.045.045 0 0 1 .021.03l8.109 54.514a.044.044 0 0 1-.022.045.042.042 0 0 1-.021.008zm-52.482-40.423l52.417 40.268-8.084-54.344-44.333 14.076z"/><path d="M247.062 312.961c-.009 0-.019-.006-.028-.011a.043.043 0 0 1-.019-.037l2.02-62.47c0-.016.009-.031.028-.039.012-.009.031-.004.046.005l52.578 40.39a.044.044 0 0 1 .019.045c0 .018-.013.029-.028.036l-54.601 22.075a.023.023 0 0 1-.015.006zm2.063-62.421l-2.017 62.302 54.461-22.018-52.444-40.284zM267.4 405.82c-.003 0-.003 0-.003-.003l-32.951-3.027a.054.054 0 0 1-.038-.025c-.009-.016-.009-.034 0-.046l36.578-59.353a.046.046 0 0 1 .056-.02.042.042 0 0 1 .031.046l-3.626 62.381a.05.05 0 0 1-.016.035.071.071 0 0 1-.031.012zm-32.874-3.117l32.83 3.018 3.614-62.147-36.444 59.129z"/><path d="M234.449 402.79a.067.067 0 0 1-.034-.013l-20.139-20.562c-.009-.009-.012-.024-.012-.037 0-.012.009-.024.019-.034l56.72-38.794c.019-.012.04-.009.056.007.019.014.019.04.009.058l-36.577 59.35c-.012.012-.024.025-.042.025zm-20.068-20.599l20.059 20.475 36.432-59.111-56.491 38.636z"/><path d="M193.255 461.28c-.012 0-.025-.003-.034-.015a.043.043 0 0 1-.003-.06l41.193-58.491c.009-.012.021-.021.037-.021h.003l32.951 3.034c.019.003.037.013.041.031.006.021 0 .04-.016.053l-74.147 55.46a.035.035 0 0 1-.025.009zm41.216-58.487l-41.007 58.228 73.812-55.212-32.805-3.016z"/><path d="M196.786 413.954c-.012 0-.028-.003-.037-.016-.009-.016-.013-.037-.003-.053l17.524-31.726c.006-.012.019-.019.034-.021.019-.003.028.003.038.013l20.142 20.558a.045.045 0 0 1 .012.043.06.06 0 0 1-.034.034l-37.663 11.165c-.004.003-.007.003-.013.003zm17.533-31.691l-17.437 31.567 37.48-11.108-20.043-20.459z"/><path d="M193.255 461.28c-.006 0-.012-.003-.016-.003a.043.043 0 0 1-.031-.046l3.53-47.327c.003-.019.015-.037.034-.04l37.663-11.168c.015-.003.04 0 .049.019.013.016.013.034 0 .053l-41.193 58.494a.044.044 0 0 1-.036.018zm3.574-47.335l-3.515 47.121 41.02-58.242-37.505 11.121zM345.44 83.109c-.019 0-.031-.008-.043-.02l-47.062-75.22a.05.05 0 0 1 .009-.057.05.05 0 0 1 .062-.003l44.481 36.63c.009.008.016.02.016.033l2.581 38.587c0 .022-.009.042-.031.048-.006.002-.01.002-.013.002zM298.567 8.063l46.812 74.817-2.565-38.383-44.247-36.434z"/><path d="M383.094 45.146l-40.238-.627c-.009 0-.022-.001-.028-.009L298.347 7.882c-.019-.014-.021-.041-.012-.061.012-.02.04-.028.059-.017l84.719 37.255c.019.008.031.029.028.053-.003.02-.025.034-.047.034zm-40.219-.718l39.99.624-84.199-37.028 44.209 36.404z"/><path d="M363.436 85.28a.048.048 0 0 1-.041-.026l-20.58-40.759a.064.064 0 0 1 0-.047.054.054 0 0 1 .043-.021l40.238.626a.06.06 0 0 1 .037.023c.009.012.009.031.003.046l-19.661 40.131c-.005.017-.02.027-.039.027zm-20.502-40.76l20.499 40.607 19.587-39.979-40.086-.628z"/><path d="M354.294 135.777h-.006c-.028-.005-.043-.03-.04-.056l9.142-50.483-20.574-40.743c-.012-.023 0-.051.022-.064.021-.011.049 0 .062.021l20.577 40.759c.006.011.006.02.006.031l-9.142 50.498c-.004.022-.026.037-.047.037zM184.408 359.754a.053.053 0 0 1-.043-.028.054.054 0 0 1 .012-.059l62.657-46.793c.019-.013.05-.01.065.009l23.964 30.479a.047.047 0 0 1 .006.045c-.006.015-.019.026-.034.027l-86.622 16.315-.005.005zm62.645-46.776l-62.458 46.646 86.348-16.265-23.89-30.381z"/><path d="M214.31 382.231a.047.047 0 0 1-.028-.009l-29.905-22.481a.054.054 0 0 1-.016-.047c.003-.019.019-.03.037-.037l86.622-16.311c.021-.008.04.008.049.024.006.021.003.047-.015.058l-56.72 38.794c-.006.007-.015.009-.024.009zm-29.79-22.5l29.79 22.397 56.506-38.65-86.296 16.253z"/><path d="M184.408 359.754c-.01 0-.019-.007-.028-.013a.056.056 0 0 1-.019-.05l10.997-38.823a.047.047 0 0 1 .038-.032l51.657-7.97c.025-.008.043.008.053.028.006.02.003.043-.016.056l-62.657 46.791c-.006.006-.016.013-.025.013zm11.031-38.831l-10.951 38.66 62.396-46.595-51.445 7.935z"/><path d="M156.34 418.726a.055.055 0 0 1-.034-.01.046.046 0 0 1-.009-.056l28.068-58.978c.006-.013.019-.019.031-.025.013-.003.025 0 .037.013l29.905 22.479c.013.009.019.021.019.037s-.009.03-.021.04l-57.973 36.493c-.008.007-.017.007-.023.007zm28.083-58.951l-27.972 58.779 57.774-36.376-29.802-22.403z"/><path d="M146.512 364.221c-.019 0-.034-.013-.043-.028a.054.054 0 0 1 .013-.056l48.893-43.29c.016-.013.037-.016.053-.003.019.011.028.03.022.051l-10.997 38.822c-.003.021-.019.033-.041.033l-37.893 4.471h-.007zm48.803-43.2l-48.661 43.088 37.716-4.445 10.945-38.643z"/><path d="M156.34 418.726h-.006a.055.055 0 0 1-.043-.037l-9.824-54.508c-.003-.013.003-.025.009-.034.006-.01.019-.019.031-.019l37.896-4.471h.003a.05.05 0 0 1 .041.021.05.05 0 0 1 .006.047L156.38 418.7c-.009.016-.025.026-.04.026zm-9.772-54.511l9.791 54.315 27.969-58.768-37.76 4.453zm204.562 51.551h-.006c-.019 0-.034-.016-.041-.03l-21.808-73.108a.06.06 0 0 1 .015-.05c.016-.011.038-.014.05-.003l48.865 26.759c.013.006.019.016.025.028.003.009 0 .024-.006.034l-27.057 46.349a.042.042 0 0 1-.037.021zm-21.734-73.057l21.746 72.896 26.977-46.213-48.723-26.683z"/><path d="M351.13 415.766a.052.052 0 0 1-.031-.009l-40.796-33.028a.057.057 0 0 1-.015-.057l18.991-40.078c.006-.017.025-.024.046-.027a.05.05 0 0 1 .041.032l21.808 73.105a.054.054 0 0 1-.019.056.043.043 0 0 1-.025.006zm-40.741-33.087l40.654 32.91-21.734-72.845-18.92 39.935z"/><path d="M310.33 382.737h-.009a.042.042 0 0 1-.034-.04l-8.671-91.856c-.003-.021.01-.043.031-.048s.043.003.056.023l27.659 51.776a.051.051 0 0 1 0 .042l-18.988 40.078a.048.048 0 0 1-.044.025zm-8.599-91.675l8.63 91.458 18.908-39.906-27.538-51.552z"/><path d="M378.184 369.42c-.006 0-.016 0-.021-.006l-48.862-26.76a.04.04 0 0 1-.024-.037c-.003-.017.006-.031.015-.04l61.075-44.729c.012-.013.034-.013.053-.002.016.009.022.027.022.048l-12.21 71.489c-.003.013-.012.027-.025.031-.008.006-.014.006-.023.006zm-48.775-26.811l48.741 26.692 12.179-71.312-60.92 44.62zm101.257-185.775c-.009 0-.021-.003-.028-.011a.043.043 0 0 1-.012-.053l7.001-19.016c.006-.019.021-.028.043-.031l29.312-1.839h.003c.021 0 .037.012.043.032a.049.049 0 0 1-.022.055L430.69 156.83c-.009.002-.015.004-.024.004zm7.039-19.019l-6.949 18.869 36.034-20.696-29.085 1.827z"/><path d="M435.843 203.95h-.006c-.019-.003-.037-.021-.037-.04l-5.181-47.116c0-.02.009-.039.025-.046l36.32-20.859a.045.045 0 0 1 .062.062l-31.139 67.974a.05.05 0 0 1-.044.025zm-5.128-47.136l5.159 46.917 31.009-67.688-36.168 20.771z"/><path d="M430.666 156.834l-.003-.001-25.974-2.801a.048.048 0 0 1-.041-.041.04.04 0 0 1 .025-.048l32.979-16.213c.012-.008.034-.008.053.006.012.014.019.034.009.051l-7.001 19.017c-.01.018-.025.03-.047.03zm-25.807-2.878l25.776 2.783 6.952-18.875-32.728 16.092z"/><path d="M435.843 203.95a.043.043 0 0 1-.037-.02l-31.152-49.921a.046.046 0 0 1 0-.048c.009-.016.021-.023.037-.023h.006l25.974 2.804c.021.005.041.021.041.041l5.177 47.117c.003.021-.009.044-.031.048-.003.002-.008.002-.015.002zm-31.062-49.909l30.994 49.666-5.149-46.876-25.845-2.79zM238.702 3.658a.04.04 0 0 1-.015-.053c.006-.02.021-.028.046-.031l59.648 4.224a.06.06 0 0 1 .034.023l47.062 75.218a.045.045 0 0 1-.006.058.039.039 0 0 1-.031.012.048.048 0 0 1-.031-.008m-.142-.223L298.35 7.89l-59.465-4.21"/><path d="M345.44 83.109c-.019 0-.031-.008-.043-.02L298.35 7.89l-59.623-4.221c-.028-.003-.046-.024-.043-.051 0-.025.022-.044.046-.044h.003l59.648 4.224a.06.06 0 0 1 .034.023l47.062 75.218c.013.02.006.05-.016.062-.005.006-.014.008-.021.008z"/><path d="M208.406 12.873a.044.044 0 0 1-.043-.039c-.006-.022.009-.045.031-.053l30.321-9.204c.006-.003.009-.003.019-.003l59.648 4.224a.048.048 0 0 1 .041.05c0 .021-.019.042-.043.045l-89.969 4.98h-.005zm30.327-9.204l-29.939 9.091 88.842-4.92-58.903-4.171z"/><path d="M383.094 45.146c-.003 0-.006.001-.012-.002L238.714 3.666a.047.047 0 0 1-.031-.058.048.048 0 0 1 .046-.034c.003 0 .01 0 .013.003l144.364 41.479a.048.048 0 0 1 .034.059c-.009.021-.024.031-.046.031zm-37.731 258.097c-.003 0-.009 0-.012-.003l-43.7-12.359c-.019-.006-.034-.021-.034-.04-.003-.021.01-.037.028-.046l52.175-21.633c.016-.004.037-.003.046.009.016.011.022.029.016.046l-8.475 33.991a.038.038 0 0 1-.021.027c-.008.003-.014.008-.023.008zm-43.557-12.415l43.523 12.31 8.441-33.854-51.964 21.544z"/><path d="M329.322 342.661a.05.05 0 0 1-.043-.026L301.62 290.86c-.006-.016-.006-.039.006-.051.009-.016.031-.021.049-.016l43.697 12.357a.045.045 0 0 1 .031.023.061.061 0 0 1 .003.04l-16.041 39.419c-.009.018-.022.026-.043.029zm-27.569-51.749l27.562 51.591 15.982-39.275-43.544-12.316z"/><path d="M345.363 303.243c-.016 0-.025-.006-.037-.016-.009-.014-.012-.027-.009-.043l8.475-33.99a.045.045 0 0 1 .031-.033c.016-.004.031-.003.043.008l36.556 28.678c.016.012.022.03.019.051a.05.05 0 0 1-.041.032l-45.034 5.312h-.003zm8.503-33.957l-8.441 33.855 44.851-5.289-36.41-28.566z"/><path d="M329.322 342.661a.042.042 0 0 1-.031-.011c-.015-.013-.021-.036-.012-.053l16.041-39.418a.055.055 0 0 1 .037-.031l45.031-5.311h.006c.019 0 .034.01.043.029a.043.043 0 0 1-.016.055L329.35 342.65a.044.044 0 0 1-.028.011zm16.072-39.421l-15.967 39.239 60.796-44.528-44.829 5.289zm92.279-165.422c-.025 0-.046-.019-.046-.041l-2.088-17.685c0-.017.006-.033.019-.043.019-.011.034-.009.05-.005l31.4 15.843c.019.009.028.029.025.053-.006.02-.022.036-.043.036l-29.317 1.842zm-2.028-17.65l2.066 17.554 29.098-1.827-31.164-15.727z"/><path d="M466.986 135.976c-.009 0-.016 0-.022-.003l-31.4-15.844c-.006-.005-.019-.013-.021-.023l-21.619-51.874c-.009-.023 0-.05.019-.059.019-.011.047-.011.062.009l53.019 67.722c.012.014.012.04 0 .057a.057.057 0 0 1-.038.015zm-31.363-15.922l31.198 15.742-52.681-67.284 21.483 51.542z"/><path d="M404.691 154.032c-.012 0-.025-.008-.037-.02-.013-.016-.013-.041.006-.061l30.892-33.897a.044.044 0 0 1 .049-.009c.019.005.028.021.031.038l2.084 17.682c.003.021-.006.042-.025.049l-32.979 16.213c-.005.001-.011.005-.021.005zm30.861-33.837l-30.659 33.638 32.731-16.089-2.072-17.549z"/><path d="M404.691 154.032c-.006 0-.012-.003-.021-.005a.048.048 0 0 1-.022-.054l10.721-41.679a.063.063 0 0 1 .021-.033c.016-.006.028-.003.041-.001l20.17 7.785c.019.005.025.017.031.033.003.012 0 .031-.013.041l-30.894 33.898c-.006.01-.018.015-.034.015zm10.752-41.665l-10.659 41.449 30.72-33.711-20.061-7.738z"/><path d="M435.586 120.133l-.016-.001-20.173-7.785c-.016-.005-.028-.023-.028-.041l-1.449-44.095c-.003-.022.016-.039.037-.043.025-.006.041.003.053.025l21.619 51.877a.052.052 0 0 1-.009.051.061.061 0 0 1-.034.012zm-20.127-7.86l20.043 7.731-21.479-51.541 1.436 43.81z"/></g><path fill="#FFF" d="M257.535 496.536a3.912 3.912 0 0 1 3.437-4.337 3.91 3.91 0 0 1 4.337 3.435 3.919 3.919 0 0 1-3.438 4.34 3.915 3.915 0 0 1-4.336-3.438z"/><circle fill="#FFF" cx="201.887" cy="492.265" r="5.442"/><path fill="#FFF" d="M146.624 437.342a3.94 3.94 0 1 1 7.83-.901 3.94 3.94 0 0 1-7.83.901zm27.742 35.016a3.148 3.148 0 0 1 2.771-3.49 3.153 3.153 0 1 1-2.771 3.49z"/><circle fill="#FFF" cx="192.577" cy="476.103" r="4.221"/><path fill="#FFF" d="M236.232 490.751a3.365 3.365 0 0 1 2.957-3.729 3.364 3.364 0 1 1 .775 6.682 3.365 3.365 0 0 1-3.732-2.953z"/><circle fill="#FFF" cx="250.009" cy="489.709" r="3.395"/><path fill="#FFF" d="M111.247 455.629a6.793 6.793 0 0 1 5.968-7.532 6.791 6.791 0 0 1 7.532 5.969 6.793 6.793 0 0 1-5.969 7.531 6.792 6.792 0 0 1-7.531-5.968zm-29.737-24.44a4.732 4.732 0 0 1 4.157-5.242 4.73 4.73 0 0 1 5.246 4.153 4.732 4.732 0 1 1-9.403 1.089z"/><circle fill="#FFF" cx="137.451" cy="414.165" r="2.124"/><circle fill="#FFF" cx="112.77" cy="398.49" r="3.104"/><path fill="#FFF" d="M79.946 387.633a5 5 0 0 1 4.387-5.537 4.997 4.997 0 0 1 5.537 4.389 4.988 4.988 0 0 1-4.383 5.535 4.997 4.997 0 0 1-5.541-4.387zm-18.445-8.286a3.242 3.242 0 0 1 2.848-3.599 3.243 3.243 0 0 1 3.599 2.852 3.24 3.24 0 0 1-2.851 3.595 3.247 3.247 0 0 1-3.596-2.848zm-30.789-15.706a3.52 3.52 0 0 1 3.093-3.905 3.524 3.524 0 1 1-3.093 3.905zm28.94-1.75a3.382 3.382 0 1 1 6.719-.778 3.385 3.385 0 0 1-2.972 3.754 3.384 3.384 0 0 1-3.747-2.976z"/><circle fill="#FFF" cx="95.359" cy="346.068" r="3.571"/><path fill="#FFF" d="M117.504 328.881a3.163 3.163 0 0 1 6.282-.726 3.161 3.161 0 0 1-6.282.726zm15.818-26.129a3.075 3.075 0 0 1 2.699-3.408 3.075 3.075 0 0 1 3.406 2.699 3.071 3.071 0 0 1-2.699 3.407 3.075 3.075 0 0 1-3.406-2.698zM66.517 342.92a3.597 3.597 0 1 1 7.147-.828 3.598 3.598 0 1 1-7.147.828zm-6.201-46.064a4.726 4.726 0 0 1 4.151-5.243 4.728 4.728 0 1 1 1.089 9.394 4.724 4.724 0 0 1-5.24-4.151z"/><circle fill="#FFF" cx="35.55" cy="293.048" r="5.791"/><circle fill="#FFF" cx="33.644" cy="276.835" r="3.451"/><path fill="#FFF" d="M.994 231.709a4.56 4.56 0 0 1 4.001-5.053 4.562 4.562 0 0 1 5.054 4.005 4.558 4.558 0 0 1-9.055 1.048z"/><circle fill="#FFF" cx="39.08" cy="179.232" r="3.737"/><circle fill="#FFF" cx="27.008" cy="146.468" r="4.001"/><path fill="#FFF" d="M63.195 86.822a2.84 2.84 0 0 1 5.64-.653 2.834 2.834 0 0 1-2.491 3.146 2.84 2.84 0 0 1-3.149-2.493zm55.466 44.272a4.578 4.578 0 1 1 9.095-1.055 4.578 4.578 0 0 1-9.095 1.055z"/><circle fill="#FFF" cx="171.297" cy="156.56" r="2.825"/><circle fill="#FFF" cx="191.391" cy="117.232" r="5.731"/><circle fill="#FFF" cx="150.802" cy="84.179" r="8.029"/><circle fill="#FFF" cx="159.416" cy="50.181" r="7.009"/><path fill="#FFF" d="M212.234 37.688a6.072 6.072 0 0 1 5.335-6.73 6.07 6.07 0 0 1 6.729 5.333 6.069 6.069 0 0 1-5.333 6.729 6.075 6.075 0 0 1-6.731-5.332z"/><circle fill="#FFF" cx="235.86" cy="59.433" r="2.323"/><circle fill="#FFF" cx="234.269" cy="94.289" r="4.076"/><path fill="#FFF" d="M227.069 156.692a3.274 3.274 0 0 1 2.878-3.631 3.279 3.279 0 0 1 .754 6.512 3.275 3.275 0 0 1-3.632-2.881z"/><circle fill="#FFF" cx="287.122" cy="117.639" r="6.366"/><path fill="#FFF" d="M311.373 141.33a5.145 5.145 0 0 1 10.219-1.185 5.143 5.143 0 1 1-10.219 1.185z"/><circle fill="#FFF" cx="254.279" cy="186.719" r="4.139"/><path fill="#FFF" d="M303.165 179.8a2.88 2.88 0 0 1 5.72-.663 2.879 2.879 0 0 1-5.72.663z"/><circle fill="#FFF" cx="304.235" cy="85.661" r="4.522"/><circle fill="#FFF" cx="266.658" cy="97.479" r="2.836"/><path fill="#FFF" d="M248.107 11.249a2.823 2.823 0 1 1 5.609-.646 2.822 2.822 0 0 1-5.609.646zm-38.187 1.774a5.43 5.43 0 1 1 10.79-1.246 5.43 5.43 0 0 1-10.79 1.246z"/><circle fill="#FFF" cx="188.497" cy="15.624" r="5.824"/><circle fill="#FFF" cx="120.862" cy="41.516" r="3.19"/><path fill="#FFF" d="M91.958 63.793a5.17 5.17 0 1 1 10.27-1.191 5.17 5.17 0 0 1-10.27 1.191zm15.188 11.795a3.24 3.24 0 0 1 2.848-3.597 3.249 3.249 0 0 1 3.599 2.848 3.245 3.245 0 0 1-6.447.749z"/><circle fill="#FFF" cx="77.744" cy="211.953" r="2.954"/><path fill="#FFF" d="M82.903 163.45a4.82 4.82 0 1 1 9.576-1.114 4.82 4.82 0 0 1-9.576 1.114z"/><circle fill="#FFF" cx="110.991" cy="202.075" r="5.457"/><circle fill="#FFF" cx="147.144" cy="230.803" r="7.225"/><path fill="#FFF" d="M196.9 209.624a2.205 2.205 0 1 1 4.38-.501 2.205 2.205 0 0 1-4.38.501zm-44.36-12.991a3.442 3.442 0 0 1 3.025-3.814 3.443 3.443 0 1 1-3.025 3.814z"/><circle fill="#FFF" cx="57.884" cy="257.653" r="3.21"/><circle fill="#FFF" cx="112.322" cy="251.32" r="4.776"/><path fill="#FFF" d="M.376 231.782a5.18 5.18 0 0 1 4.547-5.744 5.184 5.184 0 0 1 5.742 4.548 5.178 5.178 0 1 1-10.289 1.196z"/><circle fill="#FFF" cx="151.845" cy="271.371" r="5.681"/><path fill="#FFF" d="M12.028 312.344a3.193 3.193 0 0 1 2.801-3.538 3.196 3.196 0 0 1 3.54 2.803c.202 1.751-1.055 3.335-2.804 3.538s-3.333-1.054-3.537-2.803z"/><path fill="#FFF701" d="M332.455 199.655a4.156 4.156 0 0 1 3.648-4.605 4.152 4.152 0 0 1 4.604 3.649 4.15 4.15 0 0 1-3.648 4.603 4.153 4.153 0 0 1-4.604-3.647z"/><circle fill="#FFF701" cx="293.459" cy="235.541" r="4.33"/><path fill="#FFF701" d="M345.732 136.725c-.552-4.73 2.842-9.012 7.569-9.559a8.626 8.626 0 0 1 9.561 7.572c.546 4.732-2.845 9.012-7.576 9.558a8.619 8.619 0 0 1-9.554-7.571zm-4.684-54.617a4.249 4.249 0 0 1 3.735-4.712 4.249 4.249 0 0 1 4.712 3.733 4.253 4.253 0 0 1-8.447.979zM285.296 16.07a5.419 5.419 0 0 1 10.765-1.247 5.415 5.415 0 0 1-4.759 6.004 5.418 5.418 0 0 1-6.006-4.757z"/><circle fill="#FFF701" cx="208.49" cy="12.917" r="4.203"/><path fill="#FFF701" d="M243.411 3.542a4.001 4.001 0 0 1-3.515 4.435 4.002 4.002 0 1 1 3.515-4.435z"/><circle fill="#FFF701" cx="298.972" cy="7.822" r="6.247"/><circle fill="#FFF701" cx="343.374" cy="45.137" r="4.753"/><circle fill="#FFF701" cx="323.358" cy="28.089" r="2.79"/><path fill="#FFF701" d="M265.43 9.242a4.18 4.18 0 1 1-8.302.963 4.18 4.18 0 0 1 8.302-.963z"/><circle fill="#FFF701" cx="250.848" cy="10.377" r="3.112"/><circle fill="#FFF701" cx="382.86" cy="45.241" r="6.341"/><circle fill="#FFF701" cx="414.646" cy="69.439" r="3.772"/><path fill="#FFF701" d="M365.564 85.674a2.172 2.172 0 1 1-4.315.498 2.171 2.171 0 1 1 4.315-.498zm25.354 15.593a2.85 2.85 0 1 1-5.664.658 2.847 2.847 0 0 1 2.503-3.161 2.847 2.847 0 0 1 3.161 2.503z"/><circle fill="#FFF701" cx="415.948" cy="113.027" r="4.283"/><circle fill="#FFF701" cx="436.132" cy="121.117" r="3.276"/><path fill="#FFF701" d="M470.047 136.458a3.425 3.425 0 1 1-6.8.788 3.425 3.425 0 0 1 6.8-.788zm-28.465 1.694a3.764 3.764 0 1 1-4.169-3.307 3.758 3.758 0 0 1 4.169 3.307z"/><circle fill="#FFF701" cx="308.357" cy="24.36" r="3.435"/><path fill="#FFF701" d="M409.531 153.551a4.062 4.062 0 0 1-3.564 4.501 4.06 4.06 0 0 1-.934-8.064 4.064 4.064 0 0 1 4.498 3.563zm-26.886 17.738a2.448 2.448 0 0 1-4.864.562 2.449 2.449 0 0 1 4.864-.562z"/><circle fill="#FFF701" cx="364.481" cy="197.69" r="3.007"/><path fill="#FFF701" d="M434.305 157.173a3.561 3.561 0 0 1-3.127 3.944 3.557 3.557 0 0 1-3.946-3.127 3.557 3.557 0 0 1 3.127-3.943 3.562 3.562 0 0 1 3.946 3.126z"/><circle fill="#FFF701" cx="435.845" cy="203.777" r="4.964"/><path fill="#FFF701" d="M472.2 206.242a6.94 6.94 0 0 1-6.092 7.69 6.938 6.938 0 1 1-1.601-13.784 6.939 6.939 0 0 1 7.693 6.094zm-1.52 16.609a3.495 3.495 0 0 1-3.065 3.872 3.494 3.494 0 0 1-3.871-3.065 3.495 3.495 0 0 1 3.064-3.872 3.495 3.495 0 0 1 3.872 3.065z"/><circle fill="#FFF701" cx="495.336" cy="268.903" r="4.322"/><path fill="#FFF701" d="M465.503 320.425a3.752 3.752 0 1 1-4.157-3.296 3.751 3.751 0 0 1 4.157 3.296z"/><circle fill="#FFF701" cx="473.849" cy="353.621" r="3.877"/><circle fill="#FFF701" cx="434.841" cy="413.591" r="2.914"/><path fill="#FFF701" d="M381.968 369.02a4.345 4.345 0 0 1-3.819 4.817 4.348 4.348 0 0 1-4.821-3.815 4.352 4.352 0 0 1 3.822-4.82 4.346 4.346 0 0 1 4.818 3.818zm-48.893-25.9a3.54 3.54 0 0 1-3.108 3.921 3.54 3.54 0 0 1-3.921-3.105 3.543 3.543 0 0 1 3.108-3.923 3.542 3.542 0 0 1 3.921 3.107z"/><circle fill="#FFF701" cx="309.465" cy="382.855" r="5.824"/><path fill="#FFF701" d="M358.78 414.897c.558 4.817-2.895 9.179-7.712 9.737-4.821.562-9.183-2.897-9.741-7.715a8.784 8.784 0 0 1 7.718-9.737 8.783 8.783 0 0 1 9.735 7.715z"/><circle fill="#FFF701" cx="341.44" cy="449.908" r="6.516"/><path fill="#FFF701" d="M288.221 462.447a5.67 5.67 0 1 1-11.265 1.305 5.67 5.67 0 0 1 11.265-1.305zm-20.669-22.088a2.578 2.578 0 0 1-2.258 2.852 2.571 2.571 0 0 1-2.854-2.259 2.572 2.572 0 1 1 5.112-.593zm3.425-35.069a4.418 4.418 0 1 1-8.777 1.02 4.418 4.418 0 0 1 8.777-1.02zm2.891-61.905a3.356 3.356 0 0 1-6.667.773 3.355 3.355 0 0 1 6.667-.773z"/><circle fill="#FFF701" cx="213.736" cy="382.449" r="6.224"/><path fill="#FFF701" d="M189.496 358.755a5.154 5.154 0 1 1-10.241 1.188 5.154 5.154 0 0 1 10.241-1.188z"/><circle fill="#FFF701" cx="246.577" cy="313.371" r="4.077"/><circle fill="#FFF701" cx="194.831" cy="320.619" r="2.554"/><circle fill="#FFF701" cx="164.275" cy="300.911" r="4.225"/><circle fill="#FFF701" cx="207.398" cy="264.548" r="4.182"/><circle fill="#FFF701" cx="249.347" cy="250.916" r="5.198"/><circle fill="#FFF701" cx="146.562" cy="364.355" r="7.913"/><path fill="#FFF701" d="M201.662 413.84a5.077 5.077 0 0 1-4.455 5.627 5.077 5.077 0 0 1-5.627-4.458 5.074 5.074 0 1 1 10.082-1.169z"/><circle fill="#FFF701" cx="155.586" cy="418.469" r="5.187"/><path fill="#FFF701" d="M237.157 402.266a2.975 2.975 0 0 1-2.615 3.301 2.979 2.979 0 1 1-.686-5.919 2.978 2.978 0 0 1 3.301 2.618z"/><circle fill="#FFF701" cx="193.195" cy="460.614" r="5.713"/><path fill="#FFF701" d="M244.49 480.442a2.627 2.627 0 1 1-5.219.608 2.627 2.627 0 0 1 5.219-.608zm45.49 6.729a4.469 4.469 0 1 1-8.878 1.03 4.469 4.469 0 0 1 8.878-1.03zm29.067-3.483a6.73 6.73 0 1 1-13.371 1.551 6.732 6.732 0 0 1 5.91-7.464 6.735 6.735 0 0 1 7.461 5.913zm63.756-25.441a2.825 2.825 0 0 1-2.482 3.13 2.828 2.828 0 0 1-3.133-2.479 2.831 2.831 0 0 1 2.481-3.134 2.827 2.827 0 0 1 3.134 2.483z"/><circle fill="#FFF701" cx="403.765" cy="436.89" r="4.455"/><path fill="#FFF701" d="M393.952 424.474a3.48 3.48 0 0 1-3.062 3.862 3.483 3.483 0 0 1-3.862-3.059 3.478 3.478 0 0 1 3.059-3.862 3.484 3.484 0 0 1 3.865 3.059z"/><circle fill="#FFF701" cx="423.112" cy="288.133" r="2.923"/><circle fill="#FFF701" cx="413.168" cy="337.194" r="4.745"/><circle fill="#FFF701" cx="389.866" cy="298.013" r="5.846"/><circle fill="#FFF701" cx="353.714" cy="269.287" r="6.274"/><path fill="#FFF701" d="M304.123 290.442a2.373 2.373 0 1 1-4.714.548 2.373 2.373 0 0 1 4.714-.548z"/><circle fill="#FFF701" cx="344.897" cy="303.85" r="3.688"/><circle fill="#FFF701" cx="442.972" cy="242.434" r="3.292"/><circle fill="#FFF701" cx="388.535" cy="248.769" r="4.956"/><path fill="#FFF701" d="M355.433 227.973a6.463 6.463 0 0 1-5.677 7.163 6.46 6.46 0 0 1-7.163-5.674 6.462 6.462 0 1 1 12.84-1.489zm133.438-40.233a3.235 3.235 0 0 1-2.842 3.583 3.23 3.23 0 0 1-3.579-2.838 3.233 3.233 0 0 1 6.421-.745z"/><path opacity=".2" fill="#F3F3F3" d="M229.876 484.578l-46.597-19.718-36.283-32.221-17.161-65.642 20.704-68.976 46.085-40.367 76.868-22.686 57.15-38.12L342 148.026V84.919l-33.064-46.025-50.429-21.583-45.478 2.33-36.387 6.897-53.393 22.114-22.263 18.796-30.887 26.701-36.48 59.903-19.15 76.748 9.715 79.891 17.224 49.084 50.758 64.193 30.571 23.03z"/></svg>