<svg xmlns="http://www.w3.org/2000/svg" width="500" height="500" viewBox="0 0 500 500"><path fill="#FFF" d="M354.68 135.895l-.002-.003.286-.254-.342.041.109-.381-.171.151-9.71-53.874.061-.007-.079-.097-.003-.018.561-.353-.528.062.142-.297-.338.213-.059-.326-.088.186L291.04 15.42l.156-.124-.147-.016.657-.907-.649.513.154-.52-.42.578-.068-.361-.129.436-.264-.322.079.421-39.479-4.196.099-.307-.347.273-35.667 1.057-.051.01-26.522 3.126.085-.104-.35.135-.342.041h-.017l-.012.004-.079.009-.026.032-.238.092-.127.015.031.022-66.589 25.813.06-.196-.33.3-.151.059-.052.005-.003.002h-.003l-.007.006-.092.013-.027.088-.125.104-.314.122.131.03-54.973 45.639-.048.019-.043.066-.104.094.017.042-.042.064-.547.42.333-.086-37.451 58.181-.047-.137-.087.345-.069.106-.009.002-.123-.033.049.142-.01.039-.049.08.007.02-.016.033-.092.078.09.024-.009.038-.573.89.444-.378L5.286 231.48l-.162-.26.073.614-.014.054-.071.027.018.147-.029.067.03.049-.011.092.037.021.006.051-.248.984.306-.493 9.363 79.389-.023.033.009.024-.072.141.074.04-.422.781.581-.525.008.021.026.217.032-.06 18.589 50.787-.233-.117.327.417-.366.023.327.165-.423.242.532-.033-.124.271.235-.135-.015.626.206-.449.199.543.009-.361 52.552 67.121.017.14.069.01.01.296.131-.166.295.708-.016-.488.542.691-.221-.529 29.962 22.428v.001l.056.041.012.009-.158.322.278-.146.035.427.197-.401.183.08.001.001 84.202 37.023.005.081.09.007.07.005.008.007h.087l.016.001.425.452-.112-.394.521.229-.231-.245 59.024 4.18.018.001.169-.007.011-.021.063-.01.01-.04.691.05-.342-.183 22.896-8.583a.3.3 0 0 0 .193-.169l1.041-.39-1.083.06-.033-.092-36.317 1.992-56.032-29.815-.001-.001-40.752-21.5-1.299-.687-4.473-72.872.016-.012-.019-.115 18.128-63.27.02-.116-12.788-29.362 55.147-6.776h.025l.016-.006a.307.307 0 0 0 .136-.046l41.574-14.05.13.108.01-.133 43.559-13.989-.032.148.252-.218.062-.021.124.147.042-.2.022-.019.091-.052.007-.032.057-.049.016-.005-.004-.005 42.79-37.051.019.012.01-.038.037-.031.082-.04.06-.207.028-.025-.018-.012 18.157-63.022.054-.115zM193.731 460.409l54.552 29.025-8.015.439-41.548-11.938-1.141-4.007-3.848-13.519zm-76.32-6.058l-30.099-22.528 25.572-32.487 1.494 18.144 3.033 36.871zm218.244-255.248L293.6 235.516l10.54-48.827 1.512-6.999 12.138 7.853 17.865 11.56zm-43.035 37.071l-43.212 13.855 4.628-62.079 23.571 29.459 15.013 18.765zM85.775 429.972l-50.849-64.95 30.102 15.189.005.017.013.005.063.151.01.086.018-.02 6.296 15.106 14.342 34.416zM13.953 246.381l19.371 31.187-18.249 33.76-9.191-77.938 8.069 12.991zM77.1 77.948l33.481-27.794-14.766 13.435-.002.002-.407.312L77.1 77.948zM216.271 25.35l1.291 10.941-11.408-8.151-17.476-12.488 26.083-3.078 1.51 12.776zm23.638-6.1l-21.74 17.108-2.812-23.825 34.383-1.021-9.831 7.738zm50.016-3.586l-54.238 42.833 15.154-46.987 39.084 4.154zm1.263.874l52.761 64.64-39.637 4.676-8.579-45.31-4.545-24.006zm-103.25-.689l10.399 7.43 18.89 13.499-37.708 8.739-19.389 4.492 23.179-28.473 4.629-5.687zm165.499 120.472l-7.819 6.925-39.604 35.066 10.665-37.655 18.787-2.218 17.971-2.118zm-206.02 294.598l-9.673-16.102.03-.08-.029-.02 8.669-47.894 4.271 69.535-3.268-5.439zm54.444 60.229l-15.06-16.016 11.437 3.286 3.623 12.73zM27.61 146.55l81.825-69.791-21.958 85.77-3.333-.889-56.534-15.09zM241.963 37.096l-6.971 21.615-2.153-2.812-14.449-18.874.03-.007-.067-.048 31.694-24.946-8.084 25.072zM123.102 451.857l-4.674 2.448 19.018-38.83 12.899 21.471-.273-.145.518.551.049.081-27.537 14.424zm14.11-37.497l-23.78-15.949 7.763-69.057 25.052 35.072-9.035 49.934zm-50.648-1.462l-.809-24.674 26.878 10.465-25.472 32.361-.597-18.152zM289.902 17.021l-23.711 80.006-32.188-2.96 11.055-15.238 44.844-61.808zM112.643 398.054l-14.68-5.715-12.167-4.738 10.398-40.43 3.693 11.425 12.756 39.458zm-12.293-39.96l-3.795-11.743-.001-.002-.042-.13.228-.161.048-.034.093-.046-.024-.003 23.761-16.796-7.641 67.976-12.627-39.061zm-65.228 5.685l10.055-5.774 24.45-14.04-6.653 18.066-16.132 1.014-11.72.734zm17.405-125.013l4.809 19.534-.293.034.19.108-23.239 18.478 4.4-95.56 14.133 57.406zm69.778-108.323l.039.168-16.708 15.371-17.407 16.012 21.713-84.818 12.363 53.267zm193.621 10.701L305.22 178.94l-50.29 7.759 60.996-45.555zM151.344 271.637l-14.564 31.096-24.173-50.029 38.794 18.812-.051.109-.009.012h.003zM256.55 138.062l-25.732 17.601 4.262-6.916 31.383-50.921 19.629 20.031-29.542 20.205zM90.525 310.594l-24.167-13.976 55.974 5.644 13.946 1.406-15.389 24.482-30.364-17.556zm29.913 17.984l-23.903 16.898.029-.113-.239.262-.077.055-.02-.032-.088-.272-.024.094-2.26-3.621-27.959-44.809 31.021 17.938 23.52 13.6zm78.167-119.803l-42.707-12.078 15.675-38.524 6.576 12.309 20.456 38.293zm-44.867-6.057l-6.894 27.646-24.218-18.999-11.41-8.952 8.755-1.033 35.134-4.143-1.367 5.481zM70.447 342.916l-4.997-45.471 30.136 48.298-4.373-.472-20.711-2.235.071-.192-.126.072zm96.896-198.461l3.703 12.413-47.963-26.266 26.558-45.491 17.702 59.344zm-57.163 58.207l1.466 48.585-4.205-4.767-29.606-33.572 32.344-10.303.001.041-.003.019.003-.003zm40.109-117.457l34.119 27.622 5.747 4.654-.074.157-.296.385.152-.082-18.338 38.708-6.927-23.221-14.383-48.223zm-38.737 116.57l59.315-43.442-15.582 38.285-36.283 4.281-7.45.876zm11.343-70.599l48.09 26.334-60.107 44.021 12.017-70.355zm72.336 70.024l-23.355-43.722.039-.028-.028-.015 18.445-38.936 8.431 89.31-3.532-6.609zm-4.212-83.731l33.205-17.854 8.903-4.787-3.556 61.191-12.219-12.218-26.333-26.332zM77.398 213.316l33.973 38.517-18.522 2.186-34.688 4.092.031-.072.3-.477-.145.115 6.503-15.146 12.548-29.215zm152.796-57.777l1.753-30.169 1.787-30.731 32.169 2.957-20.719 33.621-14.99 24.322zm4.116-95.656l-43.643 56.839-.008-.082-.115.241-.069.09-40.112-32.474 67.839-19.893 16.108-4.721zM87.823 163.712l22.199 38.322-32.318 10.294 3.248-15.603 6.871-33.013zm-29.726 95.329l77.32 43.946-35.608-3.59-34.546-3.485-5.819-29.942-1.347-6.929zm12.292 84.578l24.725 2.671-14.896 7.324-16.497 8.11.919-2.495 5.749-15.61zm41.861-92.075l-.776-25.725-.692-22.99 35.716 28.022-15.996 9.666-18.252 11.027zm-1.94-50.197l-13.322-22.994-8.907-15.376.32-.106-.191-.051 34.021-31.298-11.921 69.825zm25.794 101.346l-77.49-44.041 5.87-.692 47.29-5.575.001.031.025-.015 12.104 25.043 12.2 25.249zm63.301-94.39l-8.507-90.118 33.777 33.776 4.76 4.76-.519.355.392-.074-6.19 10.62-23.713 40.681zm54.445-21.538l-23.484-29.867 56.557-10.652 28.322-5.333-20.356 15.204-41.039 30.648zm-22.685-30.62l55.375-37.877 29.192 21.949-83.381 15.705-1.186.223zm-13.814-53.508l-25.743 13.838 42.608-55.496.542-.707-1.591 33.86-15.816 8.505zM151.397 83.57l66.474-46.243 16.73 21.851-58.294 17.089-24.91 7.303zm-41.045-7.259l36.777 7.809 1.994.423-.534.371.574-.168-20.715 35.486-5.656 9.688-.322-1.388-12.118-52.221zm-71.65 103.815l35.68 30.523 2.569 2.197-4.795 11.168-14.396 33.519-2.896-11.76-16.162-65.647zM94.889 347.06l-29.401 32.264-1.984-16.831 31.385-15.433zm60.818-149.798l42.585 12.043-50.84 21.078 8.255-33.121zm-6.169-113.309l-.192-.155.059.198-14.786-3.138-23.784-5.049 48.041-24.735-9.338 32.879zm-62.245 79.382L84.5 176.768l-7.376 35.443-38.327-32.785 48.309-16.028.187-.063zm-24.79 121.478l2.12 10.91-.217-.126.155.248-28.493-2.502 21.467-34.083 4.968 25.553zm7.372 58.327l-35.346 20.299 30.306-66.152 5.04 45.853zm159.991-185.916l18.688 23.766 4.754 6.047-53.418 21.613 29.976-51.426zM303.46 86.67l-16.979 30.739-11.728-11.97-7.788-7.951 30.927-9.169 5.568-1.649zM56.502 259.782l-20.748 32.942-1.775-15.037 22.523-17.905zm9.282 120.096l11.914-13.074 17.881-19.618-10.338 40.2-7.51-2.896-11.947-4.612zm85.653-109.006l-38.848-18.836 34.192-20.66 1.375 11.664 3.281 27.832zm65.061-233.314l-11.701 8.14-54.552 37.947 9.343-32.899 26.446-6.129 30.464-7.059zM62.927 362.672l1.983 16.812-29.924-15.097 27.864-1.749-.032.087.109-.053zm58.42-34.125l.017-.012-.011-.006 3.263-5.193 12-19.089 8.7 54.223.752 4.687-24.721-34.61zm15.81-24.68l.096.055-.125-.258.598.06-.596-.338 14.282-30.49-4.992 88.702-2.099-13.078-7.164-44.653zm179.18-163.941l-29.266-22.001 56.739-35.718-2.159 4.538-25.314 53.181zm26.911-58.07l-11.746 7.395-44.137 27.786 2.147-3.887 14.746-26.695 6.517-.769 32.473-3.83zm-75.78 14.867l-.619.184 23.765-80.197 13.116 69.262-36.262 10.751zm-33.669-3.39l1.589-33.809.001-.036.043-.034.01-.003-.002-.003 53.733-42.437-55.374 76.322zm-75.306-42.732l-48.048 24.736 7.426-24.35 2.758-9.043 2.577.589 35.287 8.068zm-62.03 13.204l23.366-21.266-10.023 32.863-13.343-11.597zm12.871 11.971l-42.952 11.14L96.004 64.19l6.352 5.518 6.978 6.068zm-22.683 87.147l-48.238 15.991.018-.386-.124.199-.166-.484-.088-.357-.004.089-10.599-30.854 7.328 1.956 51.873 13.846zm-50.805 131l28.72 2.521-20.35 44.42-10.015 21.858.666-27.878.979-40.921zm116.199-23.363l.013-.223-.069.146-4.649-39.412 50.947-21.122-11.049 14.483-35.193 46.128zm98.652-81.812l2.765-1.117-4.634 62.221-49.059-40.513 50.928-20.591zM5.783 232.105l32.059-51.681-4.43 96.163L9.37 237.879l-3.587-5.774zm10.193 78.808l17.506-32.387.45 3.811 1.313 11.143-15.354 13.893-3.915 3.54zm49.837 69.615l8.66 3.34 10.655 4.111v.001l.024.01 1.389 42.276-10.46-25.099-10.268-24.639zm239.259-200.961l-12.11 56.084-38.615-48.259 50.725-7.825zM113.463 399.146l23.576 15.809-19.07 38.933-2.021-24.539-2.485-30.203zm35.741 39.708l1.787-.937.134.143.185.309-.007-.119 33.581 35.711-66.299-19.049 30.619-16.058zm49.709 39.759l39.539 11.36-35.747 1.96-3.792-13.32zm60.399 17.354l-52.097-3.687 32.972-1.809 19.125 5.496zm-61.266-18.225L186 474.282l-33.511-35.638 40.513 21.377 1.775 6.235 3.269 11.486zm118.903-337.716l27.44-57.657 9.605 53.288-37.045 4.369zM181.892 22.335l-22.657 27.829-37.799-8.644 65.51-25.394-5.054 6.209zM32.608 163.96l5.235 15.24-.057.019.068.059-31.666 51.045 20.844-82.591 5.576 16.228zm-9.695 141.476l12.329-11.153-1.629 68.304-18.375-50.205 7.675-6.946zm162.771 169.376l15.582 16.569-79.343-34.89 63.761 18.321zm56.32 15.56l7.291-.399 10.193 5.423-17.484-5.024zm-42.999-280.381l4.866 32.795 3.189 21.502-54.601 6.708 46.546-61.005zm.599-.017l48.875 40.364-40.84 13.814-8.035-54.178zm113.564-26.13l-7.225-4.674 47.83-42.354-17.8 61.783-22.805-14.755zM65.232 87.827l43.55-11.293-59.613 50.846-20.842 17.775 36.905-57.328zM262.146 496.14l-11.709-6.229 33.188-1.82-21.479 8.049zM147.007 361.719l1.334-23.697 3.683-65.383 12.372 28.402-17.389 60.678z"/><path fill="#FFF701" d="M495.711 267.889l-.018-.146.247-.977-.304.489-9.365-79.377.027-.038-.05-.135c0-.002.002-.005.001-.007l.46-.853-.582.527-.012-.033-.025-.209-.03.057-18.586-50.782.234.118-.324-.414.358-.022-.332-.167.433-.249-.53.034.122-.267-.238.137.015-.627-.205.448-.199-.544-.009.359-52.584-67.167-.007-.022-.028-.021-.018-.025-.011-.33-.129.164-.294-.704.017.495-.545-.695.22.527-29.543-22.115.222.003-.526-.231-.18-.135.024-.05h-.036l-.102-.045-.042-.512-.199.406-.17-.075-.013-.01v.004l-84.302-37.07-.041-.046-.054-.004-.006-.003h-.053l-.071-.005-.788-.649.312.499-.742-.327.519.427-58.895-4.169h-.003l-.015.002h-.01l-.019.005-.188.027-.015.04-30.174 9.146-.218.119.005.045-1.365.415 1.429-.08.021.078h.224l40.033-2.216 96.415 71.78.202.324.005-.003.163.261.044.034-.002.002.018.01.056.043h.044l.311.497-.038-.569.091-.04-.007-.102.052-.073-.063-.101-2.48-37.062 19.868 39.35-.032.093.028.019-8.852 48.882-.066-.413-.063 1.131-.026.146-.148-.208.088.543-.019.099-.056.034.021.136-17.67 63.293-42.945 37.071-44.346 14.067-.139-.107-.006.176-.095.056-.001.047-.14.044.135.104-1.993 61.629-38.808-48.504-.001-.006.083-.382-.298.258h-.002l-.004-.001-.132-.165-.043.202-.009.007-.095.039-.012.054-42.858 37.113-.023-.015-.014.047-.033.028-.086.049-.056.192-.03.026.019.012-18.148 62.994-.053.074.015.05-.312.276.342-.041-.109.38.172-.152 9.712 53.876-.073.009.084.098.004.017-.554.349.53-.062-.144.302.313-.196.083.311.095-.198 36.445 42.012-.171.049.225.088-.588.44.504-.143-.407.578.666-.498-.021.283.274-.39.152.176.008-.113 48.076 18.92-.062.026.225.038.15.059-.146.246.355-.15.008.001.019.017.07-.001 43.599 7.343.027.017h.096l26.565-3.135-.086.105.353-.137.291-.034h.002l.02-.003.089-.002.038-.031.271-.105.129-.015-.032-.022 66.586-25.81-.059.19.323-.294.163-.062.03-.003.023-.001.01-.009.096-.013.028-.094.113-.094.319-.124-.133-.03 54.944-45.615.051-.005.196-.306.549-.421-.333.087 37.455-58.186.048.139.087-.348.068-.105.131.035-.048-.141.01-.039.05-.071-.016-.045.111-.096-.086-.022.012-.048.566-.881-.438.374 21.226-84.115.16.259-.072-.609.019-.072.062-.031-.013-.108.039-.063-.058-.094zM165.2 300.986l42.06-36.419-12.057 55.833-.695-.45-29.308-18.964zm258.564 121.146l-33.453 27.771 14.653-13.336.043-.003.048-.08 7.637-5.858 11.072-8.494zm-82.143 27.794l37.799 8.644-65.511 25.391 27.712-34.035zm-55.615 36.851l-2.709-22.979 28.881 20.638-26.086 3.075-.086-.734zm-.514.706l-42.276-7.123 39.458-16.765.144 1.213 2.674 22.675zm-35.779-236.927l43.595-13.842 4.505 30.272 3.447 23.169-3.391-2.604-48.156-36.995zm98.926-22.085l-54.136 7.424 41.965-36.228 12.171 28.804zm-11.744-29.314l16.949-60.708-1.704 30.3-3.304 58.666-1.842-4.358-10.099-23.9zm130.351-61.656l18.373 50.203-20.005 18.105 1.37-57.395.262-10.913zm-.871 109.198l1.068-23.199 27.633 44.485-32.061 51.676 3.36-72.962zm6.87 106.839l-81.824 69.789 6.339-24.761 15.621-61.007 7.868 2.1 51.996 13.879zm-68.394 82.358l-13.329-11.588 42.949-11.137-29.62 22.725zm-161.968 43.959l22.905-38.582 16.666 21.771-37.287 15.842-2.284.969zm51.007-243.276l54.499-7.475-35.856 46.996-10.682 14.001-4.208-28.277-3.753-25.245zM422.78 90.126l12.266 29.434-9.609-3.707-9.733-3.757-1.385-42.268 8.461 20.298zM267.073 406.388l-1.603 34.131-70.757 19.996 72.36-54.127zm121.149-304.991l25.475-32.366 1.407 42.832-7.465-2.906-19.417-7.56zM193.63 460.183l3.435-46.047 36.649-10.867-9.304 13.212-30.78 43.702zm210.907-305.725l.07-.049.021.034.088.272.023-.093 30.223 48.43-54.545-31.542 23.904-16.9-.03.117.246-.269zm3.867-4.986l-3.127 3.431 10.341-40.2 19.455 7.503-26.669 29.266zm53.668 171.202l-48.509 16.076 10.173-48.871 10.688 9.141 27.648 23.654zm-179.087 142.09l-16.724-21.849 71.371-20.929 11.83-3.468-59.113 41.122-7.364 5.124zM464.79 206.746l-21.467 34.087-7.087-36.467.213.123-.154-.248 3.919.345 24.576 2.16zM214.768 382.229l55.27-37.801-20.706 33.599-14.937 24.234-18.667-19.052-.96-.98zm87.799-91.446l50.84-21.078-8.258 33.122-42.582-12.044zm26.689 52.657l21.316 71.446-39.873-32.278.076-.16.295-.383-.152.082 13.925-29.393 4.413-9.314zm-27.006-52.128l42.71 12.079-15.676 38.523-21.462-40.173-5.572-10.429zm30.596 43.43l12.725-31.271 43.738-5.161-59.316 43.444 2.853-7.012zm56.366-85.904l33.812 38.341-32.343 10.305-1.469-48.646zm-31.937 23.44l32.369 25.396-43.89 5.176 8.261-33.129 3.26 2.557zm31.333-23.733l1.469 48.713-26.19-20.545-9.529-7.477 22.373-13.518 11.877-7.173zm-58.734 94.034l60.104-44.023-12.017 70.357-48.087-26.334zm112.368-101.143l-53.158 6.269-.001-.033-.025.015-24.307-50.292 77.491 44.041zm-29.208 94.937l-22.198-38.319 32.315-10.292-7.503 36.051-2.614 12.56zm10.425-49.599l-33.973-38.521 53.211-6.275-.033.078-.299.474.145-.115-14.234 33.147-4.817 11.212zm-121.362 5.508l26.887 50.329-.039.028.028.016-18.448 38.936-.396-4.198-8.032-85.111zm-30.813 51.784l38.554 38.551-18.861 10.143-23.249 12.499.136-2.326 3.42-58.867zm79.935 70.913l-21.406-71.756 47.961 26.265-9.011 15.438-17.544 30.053zM405.743 153.8l31.393-15.435-1.363 3.705-5.305 14.399-9.523-1.027-15.202-1.642zm29.663 48.833l-30.136-48.287 8.153.879 16.93 1.828-.07.19.126-.072 2.194 19.949 2.803 25.513zm.178 1.542l.003.025h.015l7.159 36.846-16.351-9.292-60.964-34.65 44.066 4.442 26.072 2.629zM269.418 344.131l-55.101 37.689-29.194-21.948 84.569-15.929-.274.188zm118.85-96.076l-23.69 14.315-10.499 6.344-4.66-39.497 28.161 13.653 10.688 5.185zM234.954 402.49l26.868-43.597 8.837-14.338-2.881 49.602-.657 11.291-13.733-1.263-18.434-1.695zm52.715-7.279l21.58-11.6-26.252 34.193-16.9 22.012 1.592-33.863 19.98-10.742zm22.521-11.849l.008.086.12-.253.061-.08 40.122 32.48-24.088 7.061-59.866 17.549 43.643-56.843zm113.716-96.12l6.814-15.869 12.379-28.817 19.058 77.406-38.251-32.72zm8.489-134.282l5.489-14.905 27.853-1.75-34.506 19.819 1.164-3.164zM271.421 343.366l.52-.354-.392.073 29.904-51.301 8.504 90.115-38.536-38.533zm79.899 72.769l.193.156-.06-.198 38.573 8.185-48.046 24.737 9.34-32.88zm39.187 7.639l-38.77-8.229.532-.371-.578.17 7.931-13.586 18.442-31.591 8.092 34.859 4.351 18.748zm-11.881-55.211l8.142-47.689 3.78-22.129 22.225 38.367-.317.105.193.051-15.881 14.608-18.142 16.687zm88.25-146.164l-22.521 17.91 20.749-32.949.189 1.611 1.583 13.428zm-30.853-19.596l-5.042-45.854 35.349-20.301-8.778 19.162-21.529 46.993zm1.332-65.206l-3.927 1.931-27.463 13.5 29.401-32.258 1.548 13.101.441 3.726zm-2.859 65.871l-69.921-7.052 15.393-24.481 54.528 31.533zm-220.12 179.21l19.517 19.922-36.492 10.815 16.975-30.737zm229.248-141.032l23.238-18.476-4.397 95.55-18.944-76.932.294-.035-.191-.107zm-28.563-129.161l-3.901 15.171-6.498 25.262-16.445-50.885 26.844 10.452zm-50.985 84.87l1 2.069 23.176 47.961-35.256-17.096-3.541-1.717.051-.108.016-.02-.006.001 4.732-10.108 9.828-20.982zm-15.264 32.171l-.013.226.066-.142 4.647 39.408-50.947 21.121 28.196-36.959 18.051-23.654zm1.803 186.913l-9.347 32.904-56.91 13.187 66.257-46.091zm-80.123-73.249l-27.295 5.142-57.587 10.847 61.397-45.854 3.203 4.073 20.282 25.792zm-42.331-16.532l-43.228 32.28 10.705-37.794 50.288-7.755-17.765 13.269zm6.431 76.397l32.012 2.943-72.03 53.88 40.018-56.823zm156.324 19.857l-12.403-53.438 34.119-31.383-13.352 52.15-8.364 32.671zm64.793-217.561l-19.419-1.708 30.363-66.277-1.642 68.802-9.302-.817zm-17.704-67.899l.032-.088-.11.054-1.979-16.818 29.927 15.103-27.87 1.749zm-224.515 245.6l-7.84 14.196-9.05 16.386-38.99 4.596 55.88-35.178zm150.271 55.418l26.65-13.721-7.316 23.994-2.867 9.399-37.859-8.657 21.392-11.015zm103.398-218.751l-1.547-13.107 19.263-17.428-17.498 32.379-.218-1.844zm-62.857-65.981h-.005l.009.015.038.116-.295.208-.073.036.02.002-23.758 16.795 7.646-67.974 16.418 50.802zm-24.799 17.821l-15.264 24.28-9.451-58.907 24.721 34.608-.017.012.011.007zm-78.538 119.879l-26.666 45.748-3.31 5.678-23.449-29.824 28.281-11.437 25.144-10.165zm-106.124 30.336l-1.501 5.301-9.165 32.36-36.758 4.332 47.424-41.993zm-10.321 38.387l29.265 21.998-53.65 33.78-3.087 1.943 9.491-19.944 17.981-37.777zm229.682-22.995l43.588-14.449 4.653-1.541-.018.385.123-.198.182.531.076.309.004-.077 10.598 30.842-41.577-11.096-17.629-4.706zM347.623 44.843l34.999.548-19.191 39.174-20.088-39.789 4.28.067zm-4.657-.664l-19.217-15.824 57.135 16.414-37.918-.59zm38.718 4.475l1.203-2.454 2.753 33.438 1.754 21.304-23.578-15.811 17.868-36.477zm-27.249 89.833l9.264 57.735-.096-.055.124.258-.596-.06.594.337-14.28 30.493 4.965-88.254.025-.454zm-41.517 345.751l-29.274-20.924 57.083-13.235-25.422 31.228-2.387 2.931zM299.593 9.232L320.4 26.365l.772.636-12.755-3.665-8.824-14.104zm81.441 448.307l10.019-32.852 13.339 11.596-13.467 12.257-9.891 8.999zm73.962-327.99l-19.178-9.677-.074-.179-.009-.072-.015.016-5.172-12.407-15.465-37.108 50.846 64.941-10.933-5.514zM322.605 27.413L300.222 8.981l78.72 34.618-56.337-16.186zM241.529 4.118l30.223 2.14 21.914 1.552-32.94 1.824-19.197-5.516zm56.688 4.034l9.14 14.605.21.335-45.109-12.96 35.759-1.98zm65.428 77.576l23.78 15.946-7.761 69.065-25.055-35.077 9.036-49.934zm-168.729 235.19l-40.065 35.476-7.771 6.881 17.8-61.787 30.036 19.43zm-44.262 43.066l33.252-3.921-27.439 57.658-9.606-53.29 3.793-.447zm45.807 50.264l-3.449 46.252-36.081-41.591 39.53-4.661zm266.553-93.359l.057-.02-.068-.059 31.665-51.045-20.841 82.592-10.813-31.468zm4.519-98.368l18.247-33.761 9.193 77.937-27.44-44.176zm-79.56-121.765l-4.527-55.022 30.099 22.533-25.572 32.489zM238.73 3.931l.55.158 8.417 6.266-36.842 2.04 27.875-8.464zm.8.23l19.398 5.572-11.088.614-8.31-6.186zm69.357 19.924l13.43 3.858 20.256 16.68 2.491 37.281-36.177-57.819zm-9.543 265.345l1.726 1.326-53.699 21.71 1.989-61.431 49.984 38.395zm-103.555 31.092l12.105-56.088 38.615 48.263-50.72 7.825zm69.329 120.716l-20.864 35.144-2.215 3.731-47.856-18.834 70.935-20.041zm170.506-28.977l-42.726 11.079-.825.214 80.456-68.623-36.905 57.33zM248.582 10.899l12.078-.669 47.374 13.61 36.681 58.626-96.133-71.567z"/><path fill="#FFF" d="M257.535 496.536a3.912 3.912 0 0 1 3.438-4.337c2.146-.251 4.088 1.288 4.336 3.435s-1.291 4.089-3.438 4.34a3.915 3.915 0 0 1-4.336-3.438z"/><circle fill="#FFF" cx="201.887" cy="492.265" r="5.442"/><path fill="#FFF" d="M146.624 437.342a3.94 3.94 0 1 1 7.83-.901 3.94 3.94 0 0 1-7.83.901zm27.742 35.016a3.147 3.147 0 0 1 2.771-3.49 3.153 3.153 0 1 1-2.771 3.49z"/><circle fill="#FFF" cx="192.577" cy="476.103" r="4.221"/><path fill="#FFF" d="M236.232 490.751a3.365 3.365 0 0 1 2.957-3.729 3.363 3.363 0 1 1 .775 6.682 3.365 3.365 0 0 1-3.732-2.953z"/><circle fill="#FFF" cx="250.009" cy="489.709" r="3.395"/><path fill="#FFF" d="M111.247 455.629a6.793 6.793 0 0 1 5.968-7.532 6.791 6.791 0 0 1 7.532 5.97 6.791 6.791 0 0 1-5.969 7.53 6.792 6.792 0 0 1-7.531-5.968zm-29.737-24.44a4.73 4.73 0 0 1 4.157-5.242 4.73 4.73 0 0 1 5.246 4.152 4.734 4.734 0 1 1-9.403 1.09z"/><circle fill="#FFF" cx="137.451" cy="414.165" r="2.124"/><circle fill="#FFF" cx="112.77" cy="398.49" r="3.104"/><path fill="#FFF" d="M79.946 387.633a5 5 0 0 1 4.387-5.537 4.998 4.998 0 0 1 5.537 4.39 4.986 4.986 0 0 1-4.383 5.534 4.997 4.997 0 0 1-5.541-4.387zm-18.445-8.286a3.242 3.242 0 0 1 2.848-3.599 3.243 3.243 0 0 1 3.599 2.852 3.242 3.242 0 0 1-2.851 3.596 3.249 3.249 0 0 1-3.596-2.849zm-30.789-15.706a3.518 3.518 0 0 1 3.093-3.904 3.523 3.523 0 1 1-3.093 3.904zm28.94-1.75a3.383 3.383 0 1 1 6.719-.777 3.385 3.385 0 0 1-2.972 3.754 3.385 3.385 0 0 1-3.747-2.977z"/><circle fill="#FFF" cx="95.359" cy="346.068" r="3.571"/><path fill="#FFF" d="M117.504 328.881a3.163 3.163 0 0 1 6.282-.726 3.162 3.162 0 0 1-6.282.726zm15.818-26.129a3.075 3.075 0 0 1 2.699-3.408 3.077 3.077 0 0 1 3.406 2.699 3.071 3.071 0 0 1-2.699 3.407 3.075 3.075 0 0 1-3.406-2.698zM66.517 342.92a3.597 3.597 0 1 1 7.147-.828 3.598 3.598 0 1 1-7.147.828zm-6.201-46.065a4.725 4.725 0 0 1 4.151-5.242 4.727 4.727 0 1 1 1.089 9.393 4.722 4.722 0 0 1-5.24-4.151z"/><circle fill="#FFF" cx="35.55" cy="293.048" r="5.791"/><circle fill="#FFF" cx="33.644" cy="276.835" r="3.451"/><path fill="#FFF" d="M.994 231.709a4.56 4.56 0 0 1 4.001-5.053 4.562 4.562 0 0 1 5.054 4.005 4.558 4.558 0 0 1-9.055 1.048z"/><circle fill="#FFF" cx="39.08" cy="179.232" r="3.737"/><circle fill="#FFF" cx="27.008" cy="146.468" r="4.001"/><path fill="#FFF" d="M63.195 86.822a2.84 2.84 0 0 1 5.64-.653 2.834 2.834 0 0 1-2.491 3.146 2.84 2.84 0 0 1-3.149-2.493zm55.466 44.272a4.578 4.578 0 1 1 9.095-1.055 4.578 4.578 0 0 1-9.095 1.055z"/><circle fill="#FFF" cx="171.297" cy="156.56" r="2.825"/><circle fill="#FFF" cx="191.391" cy="117.232" r="5.731"/><circle fill="#FFF" cx="150.802" cy="84.179" r="8.029"/><circle fill="#FFF" cx="159.416" cy="50.181" r="7.009"/><path fill="#FFF" d="M212.234 37.688a6.072 6.072 0 0 1 5.335-6.73 6.07 6.07 0 0 1 6.729 5.333 6.069 6.069 0 0 1-5.333 6.729 6.075 6.075 0 0 1-6.731-5.332z"/><circle fill="#FFF" cx="235.86" cy="59.433" r="2.323"/><circle fill="#FFF" cx="234.269" cy="94.289" r="4.076"/><path fill="#FFF" d="M227.069 156.692a3.274 3.274 0 0 1 2.878-3.631 3.279 3.279 0 0 1 .754 6.512 3.275 3.275 0 0 1-3.632-2.881z"/><circle fill="#FFF" cx="287.122" cy="117.639" r="6.366"/><path fill="#FFF" d="M311.373 141.33a5.144 5.144 0 1 1 10.22-1.18 5.144 5.144 0 0 1-10.22 1.18z"/><circle fill="#FFF" cx="254.279" cy="186.719" r="4.139"/><path fill="#FFF" d="M303.165 179.8a2.88 2.88 0 0 1 5.719-.663 2.878 2.878 0 1 1-5.719.663z"/><circle fill="#FFF" cx="304.234" cy="85.661" r="4.522"/><circle fill="#FFF" cx="266.658" cy="97.479" r="2.836"/><path fill="#FFF" d="M248.107 11.249a2.823 2.823 0 1 1 5.609-.646 2.822 2.822 0 0 1-5.609.646zm-38.187 1.774a5.43 5.43 0 1 1 10.79-1.246 5.43 5.43 0 0 1-10.79 1.246z"/><circle fill="#FFF" cx="188.497" cy="15.624" r="5.824"/><circle fill="#FFF" cx="120.862" cy="41.516" r="3.19"/><path fill="#FFF" d="M91.958 63.793a5.17 5.17 0 1 1 10.27-1.191 5.17 5.17 0 0 1-10.27 1.191zm15.188 11.795a3.24 3.24 0 0 1 2.848-3.597 3.249 3.249 0 0 1 3.599 2.848 3.245 3.245 0 0 1-6.447.749z"/><circle fill="#FFF" cx="77.744" cy="211.953" r="2.954"/><path fill="#FFF" d="M82.903 163.45a4.82 4.82 0 1 1 9.576-1.114 4.82 4.82 0 0 1-9.576 1.114z"/><circle fill="#FFF" cx="110.991" cy="202.075" r="5.457"/><circle fill="#FFF" cx="147.144" cy="230.803" r="7.225"/><path fill="#FFF" d="M196.9 209.624a2.205 2.205 0 1 1 4.38-.501 2.205 2.205 0 0 1-4.38.501zm-44.36-12.991a3.442 3.442 0 0 1 3.025-3.814 3.443 3.443 0 1 1-3.025 3.814z"/><circle fill="#FFF" cx="57.884" cy="257.653" r="3.21"/><circle fill="#FFF" cx="112.322" cy="251.32" r="4.776"/><path fill="#FFF" d="M.376 231.782a5.18 5.18 0 0 1 4.547-5.744 5.184 5.184 0 0 1 5.742 4.548 5.178 5.178 0 1 1-10.289 1.196z"/><circle fill="#FFF" cx="151.845" cy="271.371" r="5.681"/><path fill="#FFF" d="M12.028 312.344a3.193 3.193 0 0 1 2.801-3.538 3.197 3.197 0 0 1 3.54 2.804 3.195 3.195 0 0 1-2.804 3.538 3.195 3.195 0 0 1-3.537-2.804z"/><path fill="#FFF701" d="M332.455 199.655a4.153 4.153 0 1 1 8.252-.956 4.15 4.15 0 0 1-3.648 4.603 4.154 4.154 0 0 1-4.604-3.647z"/><circle fill="#FFF701" cx="293.459" cy="235.541" r="4.33"/><path fill="#FFF701" d="M345.732 136.725c-.553-4.73 2.842-9.012 7.568-9.559a8.626 8.626 0 0 1 9.561 7.572c.547 4.732-2.844 9.012-7.575 9.558-4.727.549-9.009-2.842-9.554-7.571zm-4.684-54.617a4.25 4.25 0 0 1 3.735-4.712 4.252 4.252 0 1 1-3.735 4.712zM285.296 16.07a5.419 5.419 0 0 1 10.765-1.247 5.415 5.415 0 0 1-4.759 6.004 5.419 5.419 0 0 1-6.006-4.757z"/><circle fill="#FFF701" cx="208.49" cy="12.917" r="4.203"/><path fill="#FFF701" d="M243.411 3.542a4.001 4.001 0 0 1-3.515 4.435 4.002 4.002 0 1 1 3.515-4.435z"/><circle fill="#FFF701" cx="298.973" cy="7.822" r="6.247"/><circle fill="#FFF701" cx="343.374" cy="45.137" r="4.753"/><circle fill="#FFF701" cx="323.357" cy="28.089" r="2.79"/><path fill="#FFF701" d="M265.43 9.242a4.179 4.179 0 1 1-8.301.965 4.179 4.179 0 0 1 8.301-.965z"/><circle fill="#FFF701" cx="250.848" cy="10.377" r="3.112"/><circle fill="#FFF701" cx="382.859" cy="45.241" r="6.341"/><circle fill="#FFF701" cx="414.646" cy="69.439" r="3.772"/><path fill="#FFF701" d="M365.564 85.674a2.172 2.172 0 1 1-4.315.498 2.171 2.171 0 1 1 4.315-.498zm25.354 15.593a2.85 2.85 0 1 1-5.664.658 2.847 2.847 0 0 1 2.503-3.161 2.847 2.847 0 0 1 3.161 2.503z"/><circle fill="#FFF701" cx="415.948" cy="113.027" r="4.283"/><circle fill="#FFF701" cx="436.132" cy="121.117" r="3.276"/><path fill="#FFF701" d="M470.047 136.458a3.425 3.425 0 1 1-6.8.788 3.425 3.425 0 0 1 6.8-.788zm-28.465 1.694a3.763 3.763 0 0 1-7.476.865 3.764 3.764 0 0 1 3.307-4.172 3.758 3.758 0 0 1 4.169 3.307z"/><circle fill="#FFF701" cx="308.357" cy="24.36" r="3.435"/><path fill="#FFF701" d="M409.531 153.551a4.062 4.062 0 0 1-3.564 4.501 4.06 4.06 0 0 1-.934-8.064 4.064 4.064 0 0 1 4.498 3.563zm-26.886 17.738a2.448 2.448 0 0 1-4.863.562 2.448 2.448 0 0 1 4.863-.562z"/><circle fill="#FFF701" cx="364.48" cy="197.69" r="3.007"/><path fill="#FFF701" d="M434.305 157.173a3.56 3.56 0 0 1-7.072.817 3.557 3.557 0 0 1 3.127-3.943 3.561 3.561 0 0 1 3.945 3.126z"/><circle fill="#FFF701" cx="435.845" cy="203.777" r="4.964"/><path fill="#FFF701" d="M472.2 206.242a6.941 6.941 0 0 1-6.092 7.69 6.937 6.937 0 0 1-7.693-6.093 6.939 6.939 0 0 1 13.785-1.597zm-1.52 16.609a3.494 3.494 0 0 1-3.064 3.872 3.494 3.494 0 0 1-3.871-3.065 3.494 3.494 0 0 1 3.063-3.872 3.495 3.495 0 0 1 3.872 3.065z"/><circle fill="#FFF701" cx="495.336" cy="268.903" r="4.322"/><path fill="#FFF701" d="M465.503 320.425a3.75 3.75 0 0 1-3.294 4.156 3.752 3.752 0 1 1 3.294-4.156z"/><circle fill="#FFF701" cx="473.849" cy="353.621" r="3.877"/><circle fill="#FFF701" cx="434.841" cy="413.591" r="2.914"/><path fill="#FFF701" d="M381.968 369.02a4.344 4.344 0 0 1-3.819 4.817 4.348 4.348 0 0 1-4.82-3.815 4.352 4.352 0 0 1 3.822-4.819 4.345 4.345 0 0 1 4.817 3.817zm-48.893-25.9a3.54 3.54 0 0 1-3.108 3.921 3.54 3.54 0 0 1-3.921-3.105 3.544 3.544 0 0 1 3.108-3.923 3.542 3.542 0 0 1 3.921 3.107z"/><circle fill="#FFF701" cx="309.465" cy="382.855" r="5.824"/><path fill="#FFF701" d="M358.779 414.897c.559 4.816-2.895 9.179-7.711 9.736a8.784 8.784 0 0 1-9.741-7.715c-.56-4.82 2.897-9.18 7.718-9.737a8.782 8.782 0 0 1 9.734 7.716z"/><circle fill="#FFF701" cx="341.439" cy="449.908" r="6.516"/><path fill="#FFF701" d="M288.221 462.447a5.67 5.67 0 1 1-11.266 1.304 5.67 5.67 0 0 1 11.266-1.304zm-20.669-22.088a2.579 2.579 0 0 1-2.258 2.852 2.574 2.574 0 1 1 2.258-2.852zm3.425-35.069a4.418 4.418 0 1 1-8.775 1.016 4.414 4.414 0 0 1 3.88-4.896 4.415 4.415 0 0 1 4.895 3.88zm2.891-61.905a3.355 3.355 0 1 1-6.668.776 3.355 3.355 0 0 1 6.668-.776z"/><circle fill="#FFF701" cx="213.736" cy="382.449" r="6.224"/><path fill="#FFF701" d="M189.496 358.755a5.154 5.154 0 1 1-10.241 1.188 5.154 5.154 0 0 1 10.241-1.188z"/><circle fill="#FFF701" cx="246.577" cy="313.371" r="4.077"/><circle fill="#FFF701" cx="194.831" cy="320.619" r="2.554"/><circle fill="#FFF701" cx="164.275" cy="300.911" r="4.225"/><circle fill="#FFF701" cx="207.398" cy="264.548" r="4.182"/><circle fill="#FFF701" cx="249.347" cy="250.916" r="5.198"/><circle fill="#FFF701" cx="146.562" cy="364.355" r="7.913"/><path fill="#FFF701" d="M201.662 413.84a5.077 5.077 0 0 1-4.455 5.627 5.077 5.077 0 0 1-5.627-4.458 5.074 5.074 0 1 1 10.082-1.169z"/><circle fill="#FFF701" cx="155.586" cy="418.469" r="5.187"/><path fill="#FFF701" d="M237.157 402.266a2.98 2.98 0 1 1-5.92.685 2.98 2.98 0 0 1 5.92-.685z"/><circle fill="#FFF701" cx="193.195" cy="460.614" r="5.713"/><path fill="#FFF701" d="M244.49 480.442a2.628 2.628 0 0 1-2.305 2.913 2.628 2.628 0 1 1-.605-5.222 2.632 2.632 0 0 1 2.91 2.309zm45.49 6.729a4.47 4.47 0 1 1-4.951-3.924 4.47 4.47 0 0 1 4.951 3.924zm29.067-3.483a6.738 6.738 0 0 1-5.913 7.465 6.732 6.732 0 0 1-7.458-5.913 6.732 6.732 0 0 1 5.91-7.464 6.734 6.734 0 0 1 7.461 5.912zm63.756-25.441a2.825 2.825 0 0 1-2.482 3.13 2.828 2.828 0 0 1-3.133-2.479 2.834 2.834 0 0 1 2.481-3.135 2.828 2.828 0 0 1 3.134 2.484z"/><circle fill="#FFF701" cx="403.766" cy="436.89" r="4.455"/><path fill="#FFF701" d="M393.952 424.474a3.48 3.48 0 0 1-3.062 3.862 3.483 3.483 0 0 1-3.863-3.059 3.478 3.478 0 0 1 3.06-3.862 3.484 3.484 0 0 1 3.865 3.059z"/><circle fill="#FFF701" cx="423.112" cy="288.133" r="2.923"/><circle fill="#FFF701" cx="413.168" cy="337.194" r="4.745"/><circle fill="#FFF701" cx="389.866" cy="298.013" r="5.846"/><circle fill="#FFF701" cx="353.714" cy="269.287" r="6.273"/><path fill="#FFF701" d="M304.123 290.441a2.374 2.374 0 0 1-4.715.55 2.38 2.38 0 0 1 2.084-2.634 2.379 2.379 0 0 1 2.631 2.084z"/><circle fill="#FFF701" cx="344.896" cy="303.85" r="3.688"/><circle fill="#FFF701" cx="442.972" cy="242.434" r="3.292"/><circle fill="#FFF701" cx="388.535" cy="248.769" r="4.956"/><path fill="#FFF701" d="M355.434 227.973a6.465 6.465 0 0 1-12.841 1.489 6.463 6.463 0 1 1 12.841-1.489zm133.437-40.233a3.235 3.235 0 0 1-2.842 3.583 3.23 3.23 0 0 1-3.579-2.838 3.233 3.233 0 0 1 6.421-.745z"/><path opacity=".2" fill="#F3F3F3" d="M229.876 484.578l-46.597-19.718-36.283-32.221-17.161-65.642 20.704-68.976 46.085-40.367 76.868-22.686 57.151-38.12L342 148.026V84.919l-33.064-46.025-50.429-21.583-45.478 2.33-36.387 6.897-53.393 22.114-22.263 18.796-30.887 26.701-36.48 59.903-19.15 76.748 9.715 79.891 17.224 49.084 50.758 64.193 30.571 23.03z"/></svg>