<svg xmlns="http://www.w3.org/2000/svg" width="500" height="500" viewBox="0 0 500 500"><g fill="#FFF"><path d="M77.311 212.812a.05.05 0 0 1-.03-.012l-39.12-33.465a.053.053 0 0 1-.016-.044.05.05 0 0 1 .032-.036l49.5-16.407c.015-.006.032-.001.045.01a.047.047 0 0 1 .015.044l-10.379 49.871a.051.051 0 0 1-.032.035.034.034 0 0 1-.015.004zm-39.027-33.494l38.998 33.36 10.347-49.714-49.345 16.354zm297.864 19.796c-.009 0-.019-.002-.025-.008l-30.696-19.86c-.011-.007-.018-.021-.021-.035 0-.015.004-.029.016-.039l48.891-43.292c.015-.015.036-.016.057-.005.016.01.025.032.018.052l-18.195 63.153c-.002.014-.014.025-.028.03a.035.035 0 0 1-.017.004zm-30.619-19.913l30.592 19.793 18.133-62.938-48.725 43.145zM146.562 364.404h-.007c-.025-.005-.041-.025-.039-.049l5.234-92.981a.047.047 0 0 1 .038-.043c.017 0 .042.007.05.028l12.912 29.644a.045.045 0 0 1 .002.032l-18.146 63.336a.045.045 0 0 1-.044.033zm5.27-92.83l-5.2 92.369 18.026-62.919-12.826-29.45z"/><path d="M146.562 364.404a.047.047 0 0 1-.046-.039l-9.774-60.935c-.001-.01 0-.02.003-.027l15.009-32.047c.011-.019.033-.032.054-.024a.047.047 0 0 1 .035.047l-5.235 92.981c-.001.022-.02.044-.043.044h-.003zm-9.726-60.973l9.704 60.495 5.196-92.31-14.9 31.815zm-59.525-90.619a.046.046 0 0 1-.031-.013.049.049 0 0 1-.015-.044l10.38-49.872a.046.046 0 0 1 .039-.036.053.053 0 0 1 .047.022l22.773 39.311c.007.012.008.027.003.04s-.016.023-.029.028l-33.153 10.56a.027.027 0 0 1-.014.004zm10.4-49.791l-10.338 49.674 33.022-10.519-22.684-39.155zM33.666 277.606a.05.05 0 0 1-.041-.022L5.393 232.129a.053.053 0 0 1 0-.049l32.758-52.805c.013-.02.038-.029.054-.021a.044.044 0 0 1 .032.046l-4.525 98.26c0 .021-.015.037-.034.043a.035.035 0 0 1-.012.003zM5.488 232.105l28.138 45.302 4.511-97.931-32.649 52.629zM304.071 86.226a.046.046 0 0 1-.046-.039l-13.392-70.731a.046.046 0 0 1 .027-.051.05.05 0 0 1 .056.013l53.839 65.961c.011.013.014.031.007.047s-.021.026-.038.028l-40.448 4.771-.005.001zM290.76 15.619l13.349 70.509 40.32-4.756-53.669-65.753zm2.36 220.753a.038.038 0 0 1-.023-.006.045.045 0 0 1-.023-.05l12.333-57.119a.05.05 0 0 1 .027-.033c.017-.006.034-.005.044.004l30.696 19.86c.012.007.019.022.021.036a.046.046 0 0 1-.016.039l-43.029 37.258c-.007.008-.019.011-.03.011zm12.364-57.09l-12.289 56.917 42.875-37.126-30.586-19.791z"/><path d="M14.891 312.343l-.009-.001a.047.047 0 0 1-.038-.041L5.387 232.11c-.002-.022.01-.043.03-.049.02-.008.042 0 .056.018l28.233 45.455a.054.054 0 0 1 .001.048l-18.775 34.735a.047.047 0 0 1-.041.026zm-9.387-80.037l9.416 79.838 18.692-34.583-28.108-45.255zm32.687-52.96a.045.045 0 0 1-.044-.032l-11.204-32.608a.045.045 0 0 1 .01-.047c.011-.012.031-.019.047-.013l60.703 16.203a.047.047 0 0 1 .034.044.045.045 0 0 1-.032.045l-49.499 16.406c-.005.002-.01.002-.015.002zM27.06 146.758l11.16 32.483 49.308-16.343-60.468-16.14z"/><path d="M5.434 232.151a.043.043 0 0 1-.019-.004.045.045 0 0 1-.026-.055l21.554-85.413a.047.047 0 0 1 .042-.036c.016-.005.039.011.046.032l11.204 32.609a.047.047 0 0 1-.004.04L5.473 232.128a.045.045 0 0 1-.039.023zm21.561-85.297l-21.443 84.97 32.588-52.53-11.145-32.44zm208.106-87.466a.05.05 0 0 1-.027-.008.047.047 0 0 1-.018-.053l15.53-48.154a.047.047 0 0 1 .045-.032h.004l40.049 4.259c.02.001.035.015.041.033.004.019-.001.038-.016.049L235.13 59.378a.056.056 0 0 1-.029.01zm15.562-48.149L235.191 59.21l55.368-43.729-39.896-4.242zm42.457 225.133a.048.048 0 0 1-.037-.017l-39.324-49.15a.043.043 0 0 1-.007-.046.048.048 0 0 1 .037-.029l51.657-7.969c.016-.003.03.003.042.014a.046.046 0 0 1 .011.042l-12.333 57.12a.05.05 0 0 1-.035.036l-.011-.001zm-39.239-49.162l39.216 49.011 12.297-56.958-51.513 7.947zm-102.085 84.212c-.007 0-.014 0-.021-.004l-39.829-19.313a.045.045 0 0 1-.026-.039.044.044 0 0 1 .021-.042l35.053-21.179a.048.048 0 0 1 .045-.003.048.048 0 0 1 .026.037l4.776 40.494a.044.044 0 0 1-.02.042.039.039 0 0 1-.025.007zm-39.732-19.363l39.677 19.24-4.758-40.339-34.919 21.099z"/><path d="M111.967 252.109a.046.046 0 0 1-.035-.016l-34.656-39.297a.051.051 0 0 1-.01-.043c.003-.016.016-.027.03-.032l33.153-10.56a.045.045 0 0 1 .042.006.045.045 0 0 1 .019.036l1.503 49.859c.001.021-.011.038-.029.043-.005.004-.011.004-.017.004zm-34.574-39.322l34.523 39.147-1.497-49.667-33.026 10.52z"/><path d="M136.787 303.472a.047.047 0 0 1-.042-.028l-24.82-51.361a.043.043 0 0 1 .01-.052c.013-.016.034-.018.053-.01l39.83 19.314a.048.048 0 0 1 .021.062l-15.009 32.046c-.009.017-.025.029-.043.029zm-24.719-51.309l24.718 51.151 14.949-31.917-39.667-19.234z"/><path d="M111.967 252.109a.034.034 0 0 1-.022-.007.042.042 0 0 1-.024-.038l-1.503-49.859a.045.045 0 0 1 .026-.043c.013-.007.034-.006.05.006l36.556 28.679c.012.008.018.023.017.04a.046.046 0 0 1-.022.037l-35.053 21.179a.057.057 0 0 1-.025.006zm-1.454-49.807l1.497 49.678 34.929-21.103-36.426-28.575zm-76.64 161.904a.047.047 0 0 1-.044-.032l-18.981-51.861c-.006-.019-.002-.039.012-.051l20.666-18.699c.015-.012.036-.016.051-.008a.045.045 0 0 1 .026.045l-1.685 70.561a.046.046 0 0 1-.039.044c-.002-.001-.004.001-.006.001zM14.945 312.31l18.886 51.603 1.677-70.207-20.563 18.604z"/><path d="M14.891 312.343a.05.05 0 0 1-.029-.01c-.017-.016-.023-.039-.012-.06l18.774-34.737c.01-.016.035-.028.05-.023.02.004.035.021.037.04l1.891 16.04a.042.042 0 0 1-.014.039l-20.667 18.699a.047.047 0 0 1-.03.012zm18.746-34.632l-18.576 34.368 20.448-18.5-1.872-15.868zm84.125 177.323c-.002 0-.006 0-.009-.002-.021-.002-.036-.021-.037-.041l-4.646-56.43a.05.05 0 0 1 .023-.044.048.048 0 0 1 .049.002l24.303 16.299c.02.013.027.037.016.059l-19.658 40.131a.047.047 0 0 1-.041.026zm-4.59-56.383l4.623 56.163 19.566-39.942-24.189-16.221zM87.69 162.94c-.003 0-.009 0-.012-.002l-60.703-16.202a.047.047 0 0 1-.033-.035.043.043 0 0 1 .015-.046l82.968-70.766a.044.044 0 0 1 .055-.004.048.048 0 0 1 .021.051l-22.266 86.969a.041.041 0 0 1-.022.028.037.037 0 0 1-.023.007zm-60.605-16.272l60.571 16.168 22.218-86.781-82.789 70.613z"/><path d="M26.987 146.738a.045.045 0 0 1-.03-.013.045.045 0 0 1-.009-.061l38.059-59.12a.046.046 0 0 1 .026-.02l44.909-11.645c.027-.007.042.003.053.022a.046.046 0 0 1-.011.057l-82.968 70.766a.033.033 0 0 1-.029.014zm38.089-59.127l-37.878 58.838 82.574-70.428-44.696 11.59z"/><path d="M65.046 87.617a.049.049 0 0 1-.042-.025.047.047 0 0 1 .015-.059l30.97-23.762a.05.05 0 0 1 .059.002l13.938 12.116c.013.012.02.03.015.046a.051.051 0 0 1-.033.034L65.059 87.616l-.013.001zM96.015 63.87L65.256 87.468l44.603-11.566L96.015 63.87zm55.781 207.552h-.012a.047.047 0 0 1-.034-.039l-4.776-40.495a.048.048 0 0 1 .028-.049l52.175-21.631a.048.048 0 0 1 .055.015c.014.017.014.04.001.056l-47.399 62.126a.047.047 0 0 1-.038.017zm-4.725-40.509l4.758 40.344 47.225-61.896-51.983 21.552z"/><path d="M151.796 271.422a.044.044 0 0 1-.04-.023.044.044 0 0 1 .002-.05l47.4-62.126c.012-.015.022-.023.049-.017.018.004.032.02.034.039l8.203 55.296a.062.062 0 0 1-.009.037c-.009.008-.02.016-.032.016l-55.602 6.829-.005-.001zm47.369-62.054L151.9 271.317l55.444-6.811-8.179-55.138z"/><path d="M199.196 209.298a.03.03 0 0 1-.01-.002c-.021-.003-.035-.021-.037-.042l-8.67-91.855a.044.044 0 0 1 .027-.046.047.047 0 0 1 .052.009l39.304 39.302c.015.013.018.038.007.056l-30.633 52.553a.047.047 0 0 1-.04.025zm-8.613-91.778l8.646 91.583 30.542-52.397-39.188-39.186z"/><path d="M199.196 209.298a.044.044 0 0 1-.035-.017.045.045 0 0 1-.005-.054l30.634-52.553a.047.047 0 0 1 .037-.023c.012 0 .03.005.04.018l23.966 30.479c.01.012.012.025.008.04-.002.015-.013.026-.027.032l-54.599 22.074c-.007.002-.013.004-.019.004zm30.639-52.517l-30.53 52.376 54.415-22-23.885-30.376zm-83.273 207.623a.052.052 0 0 1-.038-.019l-25.573-35.805a.05.05 0 0 1-.003-.053l15.799-25.13c.011-.017.028-.023.05-.021a.047.047 0 0 1 .036.038l9.774 60.935a.046.046 0 0 1-.028.05c-.005.005-.012.005-.017.005zm-25.518-35.852l25.44 35.617-9.724-60.615-15.716 24.998zm-85.487-34.907l-.01-.001a.048.048 0 0 1-.036-.041l-1.891-16.038a.043.043 0 0 1 .017-.042l24.017-19.093c.018-.015.042-.014.061.001a.046.046 0 0 1 .007.059l-22.125 35.133a.049.049 0 0 1-.04.022zm-1.841-16.066l1.871 15.883 21.91-34.791-23.781 18.908z"/><path d="M33.666 277.606a.032.032 0 0 1-.021-.006c-.017-.007-.026-.025-.025-.044l4.524-98.259a.047.047 0 0 1 .042-.044h.005c.021 0 .04.014.045.035l19.491 79.167a.043.043 0 0 1-.015.046l-24.018 19.095a.039.039 0 0 1-.028.01zm4.556-97.982l-4.505 97.835 23.913-19.011-19.408-78.824z"/><path d="M57.683 258.512h-.004a.05.05 0 0 1-.041-.037L38.146 179.31a.045.045 0 0 1 .02-.05c.017-.011.041-.011.055.004l39.12 33.465a.043.043 0 0 1 .012.053l-19.627 45.701a.048.048 0 0 1-.043.029zM38.271 179.43l19.423 78.89 19.56-45.542-38.983-33.348z"/><path d="M57.683 258.512a.05.05 0 0 1-.038-.02.043.043 0 0 1-.005-.046l19.627-45.7a.044.044 0 0 1 .036-.028.058.058 0 0 1 .043.015l34.656 39.299a.047.047 0 0 1 .008.047.044.044 0 0 1-.037.03l-54.286 6.403h-.004zm19.641-45.66L57.758 258.41l54.115-6.382-34.549-39.176z"/><path d="M136.787 303.472a.045.045 0 0 1-.023-.007l-79.104-44.96a.046.046 0 0 1-.023-.049.048.048 0 0 1 .041-.037l54.283-6.402.006-.001c.019 0 .034.01.042.026l24.82 51.361a.046.046 0 0 1-.011.054.042.042 0 0 1-.031.015zM57.83 258.494l78.851 44.814-24.741-51.195-54.11 6.381zm29.86-95.554a.04.04 0 0 1-.024-.007c-.017-.01-.025-.031-.021-.052l22.265-86.968a.045.045 0 0 1 .044-.035c.022 0 .041.016.046.036l12.715 54.791a.043.043 0 0 1-.013.044L87.72 162.927a.038.038 0 0 1-.03.013zm22.263-86.819l-22.179 86.631 34.847-32.053-12.668-54.578z"/><path d="M110.464 202.25a.047.047 0 0 1-.04-.022l-22.773-39.312c-.012-.019-.008-.042.008-.058l34.982-32.178c.013-.013.039-.017.053-.007.019.01.028.029.025.049l-12.208 71.489a.045.045 0 0 1-.038.038.03.03 0 0 1-.009.001zM87.75 162.902l22.69 39.167 12.163-71.228-34.853 32.061zm30.012 292.132a.042.042 0 0 1-.028-.01l-30.872-23.11a.042.042 0 0 1-.018-.031.046.046 0 0 1 .01-.035l26.226-33.318a.047.047 0 0 1 .05-.016c.018.006.032.021.032.041l4.646 56.43a.042.042 0 0 1-.023.043.046.046 0 0 1-.023.006zm-30.804-23.166l30.75 23.02-4.627-56.209-26.123 33.189zM159.351 50.54a.048.048 0 0 1-.04-.021.05.05 0 0 1 .003-.054l28.533-35.047c.017-.02.046-.022.063-.008l30.052 21.473c.015.01.023.029.019.047a.048.048 0 0 1-.035.036l-58.585 13.573c-.003.002-.007.001-.01.001zm28.541-35.031l-28.419 34.908 58.351-13.519-29.932-21.389z"/><path d="M217.935 36.968a.037.037 0 0 1-.026-.009l-30.052-21.473a.049.049 0 0 1-.019-.05c.005-.018.021-.033.039-.034L215.02 12.2c.022-.007.049.016.051.04l2.91 24.676a.047.047 0 0 1-.021.045.052.052 0 0 1-.025.007zm-29.927-21.489l29.869 21.342-2.893-24.523-26.976 3.181z"/><path d="M217.935 36.968a.062.062 0 0 1-.018-.003.045.045 0 0 1-.028-.038l-2.91-24.675a.047.047 0 0 1 .011-.036.048.048 0 0 1 .034-.016l35.605-1.058h.001c.019 0 .037.012.043.031a.046.046 0 0 1-.015.052l-32.695 25.732a.041.041 0 0 1-.028.011zm-2.858-24.677l2.896 24.542 32.519-25.593-35.415 1.051z"/><path d="M235.101 59.388a.045.045 0 0 1-.037-.018l-17.165-22.42a.047.047 0 0 1 .007-.065l32.695-25.732a.048.048 0 0 1 .056-.002.05.05 0 0 1 .019.053l-15.53 48.154a.051.051 0 0 1-.036.031l-.009-.001zm-17.1-22.459l17.083 22.313 15.455-47.922-32.538 25.609zM113.117 398.605a.047.047 0 0 1-.045-.032l-16.954-52.455c-.006-.018.001-.039.019-.053l24.824-17.55c.014-.011.033-.012.051-.002.016.01.024.027.022.044l-7.872 70.007c-.001.022-.019.037-.041.041h-.004zm-16.899-52.482l16.877 52.216 7.835-69.687-24.712 17.471zM159.351 50.54l-.011-.001-38.924-8.899a.046.046 0 0 1-.035-.042.045.045 0 0 1 .029-.047l67.457-26.146a.044.044 0 0 1 .054.016.044.044 0 0 1-.001.056l-28.532 35.047a.052.052 0 0 1-.037.016zm-38.766-8.957l38.747 8.859 28.404-34.889-67.151 26.03zM65.046 87.617a.047.047 0 0 1-.036-.018.046.046 0 0 1 .006-.064l55.379-45.976c.021-.015.047-.015.065.005a.047.047 0 0 1-.003.065L96.049 63.842 65.075 87.607a.046.046 0 0 1-.029.01zm53.835-44.679L66.94 86.059l29.049-22.288 22.892-20.833z"/><path d="M109.955 75.971a.055.055 0 0 1-.03-.011L95.987 63.844a.045.045 0 0 1-.016-.035.04.04 0 0 1 .014-.035l24.409-22.214a.051.051 0 0 1 .058-.006.049.049 0 0 1 .019.053l-10.47 34.33a.053.053 0 0 1-.032.032c-.005.002-.009.002-.014.002zM96.088 63.808l13.844 12.033 10.401-34.098-24.245 22.065z"/><path d="M109.955 75.971a.043.043 0 0 1-.03-.011.05.05 0 0 1-.015-.049l10.471-34.33c.006-.024.027-.037.056-.032l38.924 8.9c.019.003.033.02.036.039.002.02-.007.04-.025.048l-49.395 25.43a.054.054 0 0 1-.022.005zm10.503-34.321l-10.426 34.182 49.184-25.321-38.758-8.861zm166.09 76.3a.047.047 0 0 1-.032-.012.047.047 0 0 1-.009-.057l17.523-31.724a.048.048 0 0 1 .036-.024l40.448-4.771h.005c.021 0 .038.013.043.031a.046.046 0 0 1-.019.056l-57.971 36.495c-.008.003-.014.006-.024.006zM304.1 86.224l-17.423 31.543 57.644-36.288-40.221 4.745zM33.873 364.206l-.011-.002a.045.045 0 0 1-.036-.046l1.686-70.561c0-.015.005-.025.014-.035.01-.008.029-.014.036-.012l29.456 2.588c.016.001.029.01.036.021.008.016.009.029.002.044l-31.141 67.975a.05.05 0 0 1-.042.028zm1.729-70.559l-1.678 70.285 31.018-67.706-29.34-2.579z"/><path d="M65.013 296.23h-.003l-29.456-2.586c-.017-.001-.03-.012-.038-.026a.045.045 0 0 1 .002-.045l22.125-35.133a.043.043 0 0 1 .047-.021.046.046 0 0 1 .038.037l7.33 37.72a.043.043 0 0 1-.011.039c-.008.012-.021.015-.034.015zm-29.376-2.671l29.318 2.575-7.295-37.545-22.023 34.97z"/><path d="M136.787 303.472c-.001 0-.003 0-.005-.003l-71.774-7.238c-.021-.001-.036-.017-.041-.036l-7.33-37.721a.043.043 0 0 1 .02-.046c.012-.013.032-.011.05-.003l79.104 44.959c.02.012.028.033.022.054-.009.018-.025.034-.046.034zm-71.736-7.331l71.521 7.216-78.824-44.801 7.303 37.585z"/><path d="M96.163 346.15h-.009a.054.054 0 0 1-.03-.021l-31.15-49.92a.05.05 0 0 1 .006-.058.046.046 0 0 1 .058-.008l55.975 32.369a.042.042 0 0 1 .023.038.042.042 0 0 1-.02.04l-24.825 17.551a.041.041 0 0 1-.028.009zm-31.012-49.832l31.025 49.72 24.726-17.48-55.751-32.24z"/><path d="M120.988 328.6c-.008 0-.015-.003-.023-.005l-55.975-32.37a.046.046 0 1 1 .023-.086h.005l71.774 7.238c.016.002.03.012.038.025a.053.053 0 0 1-.002.046l-15.799 25.13a.052.052 0 0 1-.041.022zm-55.764-32.346l55.749 32.237 15.735-25.029-71.484-7.208zm125.301-178.812a.046.046 0 0 1-.035-.017.045.045 0 0 1-.001-.059l44.575-58.054c.011-.015.034-.022.052-.015.02.007.032.025.031.046l-1.644 34.974c0 .016-.01.031-.024.039l-42.932 23.08a.035.035 0 0 1-.022.006zm44.522-57.954l-44.354 57.764 42.718-22.965 1.636-34.799z"/><path d="M229.829 156.745a.046.046 0 0 1-.033-.015l-39.304-39.302a.04.04 0 0 1-.013-.039.047.047 0 0 1 .024-.035l42.931-23.081a.047.047 0 0 1 .047.003.045.045 0 0 1 .021.042l-3.627 62.383a.047.047 0 0 1-.029.042l-.017.002zm-39.226-39.338l39.187 39.185 3.617-62.196-42.804 23.011z"/><path d="M233.457 94.362a.045.045 0 0 1-.016-.003.044.044 0 0 1-.03-.047l1.644-34.973c0-.013.006-.025.017-.034L290.65 15.41c.018-.015.043-.013.062.003a.048.048 0 0 1 .004.062l-57.221 78.867a.05.05 0 0 1-.038.02zm1.689-34.996l-1.637 34.796 56.934-78.469-55.297 43.673zm-85.417 25.049a.041.041 0 0 1-.026-.009.045.045 0 0 1-.018-.05l9.622-33.874a.046.046 0 0 1 .034-.033l58.585-13.574c.022-.003.045.006.053.026.01.02.002.044-.015.058l-68.207 47.447a.054.054 0 0 1-.028.009zm9.659-33.881l-9.579 33.722 67.901-47.234-58.322 13.512z"/><path d="M149.729 84.415a.05.05 0 0 1-.042-.026c-.01-.021-.002-.045.016-.059l68.207-47.447a.047.047 0 0 1 .063.009l17.165 22.421c.01.013.012.028.007.044-.003.014-.016.025-.03.03l-85.372 25.026c-.006.002-.009.002-.014.002zm68.196-47.43L149.99 84.243l85.031-24.927-17.096-22.331z"/><path d="M190.525 117.442a.048.048 0 0 1-.029-.01L149.7 84.403a.046.046 0 0 1-.018-.044.051.051 0 0 1 .033-.037l85.372-25.025a.047.047 0 0 1 .049.074l-44.575 58.054a.054.054 0 0 1-.036.017zm-40.698-33.054l40.691 32.941 44.458-57.903-85.149 24.962z"/><path d="M122.672 130.762l-.007-.001a.047.047 0 0 1-.038-.036l-12.716-54.79c-.003-.016 0-.032.012-.043.01-.012.029-.016.042-.013l39.773 8.443a.044.044 0 0 1 .033.028.048.048 0 0 1-.002.042l-27.057 46.347a.047.047 0 0 1-.04.023zm-12.654-54.777l12.674 54.604 26.965-46.19-39.639-8.414z"/><path d="M149.729 84.415l-.009-.001-39.774-8.444a.047.047 0 0 1-.036-.039.05.05 0 0 1 .024-.048l49.395-25.43a.047.047 0 0 1 .051.005.046.046 0 0 1 .015.049l-9.622 33.874a.045.045 0 0 1-.044.034zm-39.636-8.509l39.604 8.408 9.581-33.729-49.185 25.321zm3.024 322.699l-.017-.002-27.673-10.776a.043.043 0 0 1-.028-.053l10.719-41.681a.047.047 0 0 1 .043-.036h.001c.021 0 .038.013.045.032l16.954 52.453c.004.019 0 .037-.014.05a.037.037 0 0 1-.03.013zM85.5 387.756l27.543 10.725-16.875-52.209L85.5 387.756z"/><path d="M86.891 431.924a.077.077 0 0 1-.015-.002.045.045 0 0 1-.031-.043l-1.447-44.092a.043.043 0 0 1 .02-.04c.011-.01.027-.012.043-.007l27.673 10.774a.052.052 0 0 1 .028.032.052.052 0 0 1-.009.041l-26.226 33.318a.044.044 0 0 1-.036.019zm-1.399-44.07l1.441 43.895 26.109-33.169-27.55-10.726zm121.905-123.259a.065.065 0 0 1-.024-.006.054.054 0 0 1-.022-.034l-8.202-55.296a.047.047 0 0 1 .023-.047c.018-.011.037-.007.052.005l49.885 41.195c.013.011.02.028.017.044a.05.05 0 0 1-.031.037l-41.683 14.1-.015.002zm-8.137-55.23l8.175 55.121 41.551-14.056-49.726-41.065z"/><path d="M249.081 250.493a.04.04 0 0 1-.029-.011l-49.885-41.195a.045.045 0 0 1-.017-.043.048.048 0 0 1 .029-.036l54.6-22.075c.01-.007.03-.004.045.006a.051.051 0 0 1 .019.042l-4.715 63.27a.049.049 0 0 1-.028.04c-.007.002-.013.002-.019.002zm-49.796-41.227l49.756 41.087 4.702-63.105-54.458 22.018z"/><path d="M249.081 250.493a.045.045 0 0 1-.029-.01.043.043 0 0 1-.017-.04l4.715-63.27c0-.019.014-.035.032-.041.014-.006.037 0 .05.015l39.325 49.15a.05.05 0 0 1 .008.042.045.045 0 0 1-.03.031l-44.039 14.121c-.006.002-.01.002-.015.002zm4.752-63.195l-4.7 63.083 43.908-14.079-39.208-49.004zm-24.004-30.553a.032.032 0 0 1-.014-.003.047.047 0 0 1-.032-.047l3.627-62.383c0-.011.006-.023.015-.032.011-.007.02-.016.036-.01l32.952 3.03a.051.051 0 0 1 .037.025.045.045 0 0 1-.002.045l-36.579 59.352a.047.047 0 0 1-.04.023zm3.671-62.378l-3.614 62.15 36.443-59.132-32.829-3.018z"/><path d="M229.829 156.745a.042.042 0 0 1-.031-.013.045.045 0 0 1-.009-.058l36.579-59.353a.058.058 0 0 1 .042-.022c.011 0 .023.004.032.014l20.139 20.557c.01.01.015.024.014.038a.047.047 0 0 1-.02.033l-56.719 38.795a.046.046 0 0 1-.027.009zm36.588-59.324l-36.433 59.114 56.493-38.639-20.06-20.475z"/><path d="M266.409 97.393h-.006l-32.952-3.031a.047.047 0 0 1-.038-.026.045.045 0 0 1 .005-.046l57.222-78.868c.013-.021.041-.024.059-.016.021.01.03.034.024.056L266.452 97.36a.044.044 0 0 1-.043.033zm-32.867-3.117l32.832 3.02 24.183-81.603-57.015 78.583z"/><path d="M286.548 117.95a.04.04 0 0 1-.032-.014l-20.14-20.558c-.013-.012-.018-.029-.013-.044a.046.046 0 0 1 .032-.033l37.662-11.168c.018-.004.038 0 .049.016a.047.047 0 0 1 .006.052l-17.522 31.724a.048.048 0 0 1-.036.024l-.006.001zm-20.051-20.582l20.04 20.458 17.439-31.57-37.479 11.112z"/><path d="M266.409 97.393a.042.042 0 0 1-.033-.014.045.045 0 0 1-.013-.046l24.27-81.898a.048.048 0 0 1 .046-.034c.026 0 .042.018.046.039l13.392 70.732a.05.05 0 0 1-.034.054l-37.662 11.167h-.012zm24.261-81.748l-24.192 81.632 37.539-11.13-13.347-70.502zm-97.415 444.222a.047.047 0 0 1-.022-.007l-42.2-22.266a.043.043 0 0 1-.024-.038l-4.493-73.196a.046.046 0 0 1 .043-.05h.002c.024 0 .045.02.046.044l4.493 73.17 42.176 22.254c.023.013.032.04.02.063a.046.046 0 0 1-.041.026z"/><path d="M202.482 492.291a.053.053 0 0 1-.035-.017l-51.426-54.689a.047.047 0 0 1-.004-.061.047.047 0 0 1 .06-.013l42.199 22.267c.011.006.02.018.023.028l9.228 32.424a.047.047 0 0 1-.022.053.043.043 0 0 1-.023.008zm-51.201-54.566l51.104 54.348-9.169-32.219-41.935-22.129z"/><path d="M202.482 492.291c-.006 0-.013-.003-.019-.005l-84.72-37.256a.043.043 0 0 1-.027-.041.043.043 0 0 1 .024-.043l33.293-17.435a.046.046 0 0 1 .056.011l51.427 54.688a.047.047 0 0 1 .003.06.046.046 0 0 1-.037.021zm-84.612-37.307l84.421 37.125-51.246-54.499-33.175 17.374z"/><path d="M117.762 455.034a.045.045 0 0 1-.033-.014.044.044 0 0 1-.009-.054l19.659-40.131c.008-.017.027-.022.041-.026.016 0 .032.009.041.022l13.634 22.697a.045.045 0 0 1 .005.036.056.056 0 0 1-.023.029l-33.293 17.436a.059.059 0 0 1-.022.005zm19.662-40.08l-19.558 39.927 33.123-17.345-13.565-22.582z"/><path d="M151.055 437.601a.05.05 0 0 1-.04-.023l-13.635-22.696a.053.053 0 0 1-.006-.032l9.142-50.499c.004-.023.032-.042.048-.039a.046.046 0 0 1 .043.044l4.494 73.195a.047.047 0 0 1-.033.048c-.004.002-.008.002-.013.002zm-13.586-22.753l13.528 22.518-4.458-72.62-9.07 50.102zm116.327-227.625a.044.044 0 0 1-.037-.019l-23.966-30.478a.049.049 0 0 1-.007-.045.049.049 0 0 1 .035-.029l86.62-16.314c.024-.006.043.008.051.027a.05.05 0 0 1-.015.057l-62.653 46.792a.054.054 0 0 1-.028.009zm-23.883-30.494l23.891 30.383 62.457-46.646-86.348 16.263z"/><path d="M229.829 156.745a.047.047 0 0 1-.042-.029.048.048 0 0 1 .016-.057l56.718-38.794c.019-.011.039-.012.055.001l29.901 22.48c.015.01.023.03.017.048a.042.042 0 0 1-.036.035l-86.62 16.314-.009.002zm56.718-38.785l-56.508 38.65 86.297-16.254-29.789-22.396z"/><path d="M253.796 187.223a.048.048 0 0 1-.044-.029.047.047 0 0 1 .016-.055l62.653-46.792c.016-.013.037-.011.056-.001a.047.047 0 0 1 .017.051l-10.996 38.823c-.004.018-.021.03-.038.034l-51.658 7.97-.006-.001zm62.57-46.72l-62.393 46.599 51.444-7.937 10.949-38.662z"/><path d="M316.449 140.43a.051.051 0 0 1-.028-.009l-29.9-22.48c-.013-.01-.021-.023-.019-.039a.04.04 0 0 1 .022-.037l57.97-36.495c.018-.013.039-.01.057.005.014.013.02.034.011.055l-28.071 58.975a.055.055 0 0 1-.031.025h-.011zm-29.818-22.523l29.802 22.406 27.976-58.779-57.778 36.373z"/><path d="M305.452 179.253a.038.038 0 0 1-.023-.006.045.045 0 0 1-.021-.053l10.995-38.823a.05.05 0 0 1 .041-.034l37.894-4.468h.004c.019 0 .036.011.043.027a.048.048 0 0 1-.012.055l-48.891 43.292c-.007.007-.018.01-.03.01zm11.033-38.826l-10.943 38.64 48.66-43.089-37.717 4.449z"/><path d="M316.449 140.43a.043.043 0 0 1-.037-.019.045.045 0 0 1-.006-.048l28.071-58.975c.008-.019.025-.033.048-.026a.045.045 0 0 1 .039.038l9.825 54.507a.047.047 0 0 1-.008.036.05.05 0 0 1-.032.019l-37.896 4.469-.004-.001zm28.049-58.87l-27.971 58.768 37.762-4.454-9.791-54.314zm-172.961 75.961a.04.04 0 0 1-.022-.005l-48.865-26.759a.049.049 0 0 1-.023-.028.052.052 0 0 1 .005-.037l27.057-46.348c.01-.015.026-.027.046-.022.019.002.033.015.039.034l21.809 73.105a.05.05 0 0 1-.016.05.045.045 0 0 1-.03.01zm-48.801-26.823l48.723 26.682-21.744-72.896-26.979 46.214z"/><path d="M171.537 157.521h-.004c-.02-.001-.035-.014-.042-.033l-21.808-73.106a.045.045 0 0 1 .02-.052.044.044 0 0 1 .054.002l40.796 33.028a.047.047 0 0 1 .013.056l-18.988 40.079a.045.045 0 0 1-.041.026zm-21.721-73.022l21.73 72.846 18.92-39.935-40.65-32.911z"/><path d="M199.196 209.298a.047.047 0 0 1-.042-.025l-27.659-51.777a.048.048 0 0 1-.001-.042l18.988-40.079c.01-.019.022-.026.051-.026a.047.047 0 0 1 .038.041l8.67 91.857c.003.021-.011.041-.033.049l-.012.002zm-27.607-51.824l27.539 51.551-8.633-91.458-18.906 39.907z"/><path d="M110.464 202.25a.041.041 0 0 1-.024-.006c-.017-.01-.024-.029-.022-.048l12.208-71.488a.047.047 0 0 1 .026-.035c.015-.005.03-.007.042.001l48.865 26.761a.042.042 0 0 1 .024.037.05.05 0 0 1-.018.041l-61.073 44.729a.048.048 0 0 1-.028.008zm12.244-71.463l-12.178 71.312 60.921-44.618-48.743-26.694zM33.873 364.206a.047.047 0 0 1-.045-.033c-.006-.022.002-.044.022-.054l36.317-20.859c.016-.007.039-.007.053.006s.021.033.013.052l-7.003 19.017c-.006.019-.022.029-.042.031l-29.313 1.841-.002-.001zm36.228-20.802L34.069 364.1l29.084-1.826 6.948-18.87z"/><path d="M33.873 364.206a.05.05 0 0 1-.032-.013c-.015-.015-.02-.035-.011-.054l31.141-67.975c.008-.02.028-.028.05-.026.021.002.036.021.039.041l5.177 47.117c.002.018-.007.034-.023.046l-36.317 20.856a.052.052 0 0 1-.024.008zm31.112-67.849l-31.01 67.688 36.164-20.771-5.154-46.917z"/><path d="M63.186 362.365a.048.048 0 0 1-.031-.012.051.051 0 0 1-.012-.052l7.003-19.017a.046.046 0 0 1 .044-.03h.004l25.974 2.804a.046.046 0 0 1 .041.038.048.048 0 0 1-.025.05l-32.977 16.213a.042.042 0 0 1-.021.006zm7.035-19.014l-6.952 18.874 32.729-16.091-25.777-2.783z"/><path d="M96.163 346.15h-.004l-25.974-2.804a.047.047 0 0 1-.041-.041l-5.177-47.116a.05.05 0 0 1 .03-.05.049.049 0 0 1 .056.02l31.15 49.92a.052.052 0 0 1 0 .051.048.048 0 0 1-.04.02zm-25.931-2.89l25.841 2.789-30.991-49.666 5.15 46.877zm191.894 153.254h-.002l-59.646-4.223a.051.051 0 0 1-.042-.035l-9.227-32.424a.045.045 0 0 1 .016-.048.046.046 0 0 1 .05-.006l68.873 36.647c.019.01.029.032.023.053a.046.046 0 0 1-.045.036zm-59.607-4.316l59.393 4.207-68.581-36.492 9.188 32.285z"/><path d="M262.126 496.514h-.002l-59.646-4.223a.051.051 0 0 1-.042-.035l-9.227-32.424a.045.045 0 0 1 .016-.048.046.046 0 0 1 .05-.006l68.873 36.647c.019.01.029.032.023.053a.046.046 0 0 1-.045.036zm-59.607-4.316l59.393 4.207-68.581-36.492 9.188 32.285z"/><path d="M262.126 496.514h-.002l-59.646-4.223c-.024-.003-.044-.023-.042-.049 0-.024.02-.044.043-.046l83.062-4.554c.017.003.043.014.048.037a.052.052 0 0 1-.031.054l-23.416 8.777c-.004.003-.009.004-.016.004zm-58.9-4.265l58.894 4.17 23.122-8.666-82.016 4.496z"/><path d="M262.126 496.514a.045.045 0 0 1-.013-.003l-144.365-41.479a.046.046 0 0 1-.031-.058.046.046 0 0 1 .058-.032l144.365 41.479a.046.046 0 0 1 .032.057.048.048 0 0 1-.046.036zM147.02 230.93a.046.046 0 0 1-.03-.011c-.014-.013-.02-.029-.015-.047l8.475-33.99a.043.043 0 0 1 .021-.028c.011-.006.025-.009.036-.004l43.7 12.357a.046.046 0 0 1 .034.042.045.045 0 0 1-.028.045l-52.176 21.632a.033.033 0 0 1-.017.004zm8.509-33.979l-8.441 33.854 51.966-21.545-43.525-12.309z"/><path d="M199.196 209.298l-.012-.001-43.701-12.359a.05.05 0 0 1-.031-.024.061.061 0 0 1-.001-.038l16.042-39.419c.007-.017.029-.03.044-.028.017 0 .033.009.041.024l27.659 51.777a.044.044 0 0 1-.005.051.048.048 0 0 1-.036.017zm-43.638-12.435l43.545 12.313-27.56-51.591-15.985 39.278z"/><path d="M147.02 230.93a.045.045 0 0 1-.029-.01l-36.556-28.679a.046.046 0 1 1 .023-.082l45.032-5.311.005-.001a.05.05 0 0 1 .036.016c.01.011.013.027.01.042l-8.476 33.99a.046.046 0 0 1-.03.032.04.04 0 0 1-.015.003zm-36.438-28.693l36.411 28.565 8.441-33.854-44.852 5.289z"/><path d="M110.464 202.25a.047.047 0 0 1-.044-.029.048.048 0 0 1 .016-.055l61.073-44.729a.05.05 0 0 1 .057.001.048.048 0 0 1 .014.055l-16.042 39.418a.049.049 0 0 1-.039.029l-45.03 5.31h-.005zm60.967-44.64l-60.798 44.528 44.83-5.287 15.968-39.241zM65.271 380.048a.036.036 0 0 1-.021-.005l-31.398-15.842a.05.05 0 0 1-.026-.052.05.05 0 0 1 .044-.038l29.314-1.84h.002c.023 0 .044.018.046.042l2.085 17.683a.043.043 0 0 1-.02.043.045.045 0 0 1-.026.009zm-31.225-15.854l31.168 15.726-2.07-17.553-29.098 1.827z"/><path d="M86.891 431.924a.047.047 0 0 1-.037-.019l-53.019-67.718a.05.05 0 0 1 0-.059.051.051 0 0 1 .058-.013l31.398 15.843c.01.006.019.014.022.025l21.619 51.875a.046.046 0 0 1-.019.058c-.006.006-.013.008-.022.008zm-52.853-67.628l52.678 67.282-21.481-51.543-31.197-15.739z"/><path d="M65.271 380.048l-.015-.001c-.017-.008-.029-.021-.031-.039l-2.085-17.685a.046.046 0 0 1 .025-.047l32.978-16.213c.017-.011.042-.006.058.014.014.018.013.041-.003.059l-30.892 33.896a.043.043 0 0 1-.035.016zm-2.035-17.702l2.069 17.549 30.657-33.641-32.726 16.092z"/><path d="M85.444 387.832a.037.037 0 0 1-.017-.005l-20.173-7.783a.042.042 0 0 1-.027-.032c-.004-.015 0-.029.011-.042l30.892-33.897c.013-.015.036-.02.056-.009s.029.032.023.053L85.49 387.798a.057.057 0 0 1-.023.03c-.009.002-.016.004-.023.004zm-20.093-7.85l20.061 7.74 10.659-41.447-30.72 33.707z"/><path d="M86.891 431.924a.047.047 0 0 1-.042-.027l-21.62-51.878c-.008-.016-.004-.036.008-.051.014-.014.033-.016.051-.011l20.172 7.783a.05.05 0 0 1 .029.044l1.447 44.091a.05.05 0 0 1-.036.049h-.009zm-21.535-51.841l21.48 51.541-1.438-43.807-20.042-7.734z"/></g><g fill="#FFF701"><path d="M413.167 337.243a.055.055 0 0 1-.032-.012.054.054 0 0 1-.014-.045l10.379-49.872a.043.043 0 0 1 .031-.033c.016-.006.032-.002.046.007l39.119 33.466a.056.056 0 0 1 .016.045.05.05 0 0 1-.032.034l-49.499 16.407c-.004 0-.009.003-.014.003zm10.408-49.832l-10.347 49.714 49.344-16.354-38.997-33.36zm-277.062 76.812a.049.049 0 0 1-.025-.008.049.049 0 0 1-.02-.053l18.195-63.154a.042.042 0 0 1 .029-.029c.013-.005.03-.005.041.004l30.696 19.861a.048.048 0 0 1 .021.034.044.044 0 0 1-.016.039l-48.892 43.293a.041.041 0 0 1-.029.013zm18.222-63.127l-18.134 62.938 48.727-43.146-30.593-19.792zm184.326-72.336a.046.046 0 0 1-.042-.029l-12.479-29.536a.054.054 0 0 1-.002-.031l17.713-63.444a.045.045 0 0 1 .045-.034h.007c.024.005.04.025.039.049l-5.234 92.981a.046.046 0 0 1-.037.043l-.01.001zm-12.43-29.586l12.395 29.335 5.198-92.351-17.593 63.016z"/><path d="M349.061 228.76l-.012-.002a.046.046 0 0 1-.034-.048l5.233-92.979c.001-.023.02-.044.044-.044.021-.004.045.015.048.04l9.776 60.934c0 .008 0 .019-.005.027l-15.009 32.046c-.006.016-.023.026-.041.026zm5.255-92.595l-5.194 92.31 14.899-31.815-9.705-60.495zm58.851 201.078c-.018 0-.032-.01-.042-.025l-22.772-39.311a.047.047 0 0 1-.004-.04.049.049 0 0 1 .03-.026l33.153-10.56a.043.043 0 0 1 .046.009c.013.01.018.027.015.044l-10.379 49.871a.046.046 0 0 1-.04.035c-.002 0-.004.003-.007.003zm-22.704-39.331l22.684 39.156 10.338-49.676-33.022 10.52zm72.204 22.925a.029.029 0 0 1-.014-.004c-.021-.006-.035-.024-.032-.046l4.524-98.259c0-.02.015-.038.034-.042.029-.007.04.003.053.02l28.231 45.455a.048.048 0 0 1 0 .049l-32.758 52.804a.044.044 0 0 1-.038.023zm4.565-98.155l-4.512 97.932 32.648-52.629-28.136-45.303z"/><path d="M293.551 236.372c-.019 0-.036-.01-.042-.027a.044.044 0 0 1 .011-.054l43.033-37.149c.01-.01.024-.013.042-.01a.039.039 0 0 1 .031.027l12.479 29.536c.006.013.004.028-.002.042-.008.012-.02.021-.033.022l-55.511 7.613h-.008zm43.014-37.118l-42.866 37.004 55.295-7.583-12.429-29.421zm-143.31 262.027a.048.048 0 0 1-.035-.016l-36.917-42.555a.047.047 0 0 1-.009-.047.05.05 0 0 1 .038-.03l40.448-4.77h.006c.012 0 .023.004.033.011.01.011.014.023.013.038l-3.532 47.325a.044.044 0 0 1-.031.041c-.004.003-.009.003-.014.003zm-36.823-42.565l36.786 42.404 3.518-47.157-40.304 4.753zm38.973-97.787a.041.041 0 0 1-.025-.008l-30.697-19.86a.047.047 0 0 1-.021-.036.046.046 0 0 1 .016-.038l43.029-37.257a.048.048 0 0 1 .055-.007.049.049 0 0 1 .021.05l-12.333 57.119a.056.056 0 0 1-.028.034.05.05 0 0 1-.017.003zm-30.62-19.911l30.588 19.789 12.289-56.917-42.877 37.128zm330.639-32.986a.047.047 0 0 1-.039-.023l-28.233-45.455a.05.05 0 0 1-.002-.047l18.775-34.737a.046.046 0 0 1 .051-.023c.021.003.034.021.036.041l9.458 80.191c.003.021-.009.043-.03.049a.042.042 0 0 1-.016.004zm-28.179-45.504l28.108 45.254-9.416-79.838-18.692 34.584zm6.625 130.916h-.013l-60.703-16.204c-.02-.004-.033-.022-.033-.044a.046.046 0 0 1 .03-.046l49.5-16.406c.02-.009.052.006.059.03l11.204 32.61a.044.044 0 0 1-.011.046c-.007.009-.019.014-.033.014zm-60.541-16.253l60.468 16.14-11.16-32.483-49.308 16.343z"/><path d="M473.87 353.444c-.021 0-.038-.012-.043-.03l-11.204-32.609c-.005-.013-.005-.028.003-.039l32.758-52.805a.048.048 0 0 1 .058-.019.045.045 0 0 1 .026.054l-21.555 85.414c-.004.022-.024.034-.043.034zm-11.153-32.649l11.146 32.439 21.442-84.97-32.588 52.531zM242.165 480.531a.05.05 0 0 1-.017-.003l-48.91-19.25c-.018-.009-.03-.025-.029-.046 0-.02.015-.037.034-.043l72.501-20.486c.02-.008.038.002.048.016.013.014.014.036.005.054l-23.593 39.735a.048.048 0 0 1-.039.023zm-48.764-19.289l48.745 19.185 23.512-39.602-72.257 20.417zm2.004-140.313a.054.054 0 0 1-.034-.014.048.048 0 0 1-.012-.042l12.333-57.119a.05.05 0 0 1 .035-.037.047.047 0 0 1 .048.016l39.324 49.149a.047.047 0 0 1-.03.076l-51.658 7.97-.006.001zm12.357-57.06l-12.298 56.956 51.512-7.946-39.214-49.01zm146.076 5.383a.06.06 0 0 1-.021-.004.041.041 0 0 1-.026-.037l-4.776-40.493a.044.044 0 0 1 .02-.044.049.049 0 0 1 .047-.002l39.83 19.313c.014.008.025.023.025.039a.042.042 0 0 1-.023.042l-35.052 21.181c-.008.002-.017.005-.024.005zm-4.722-40.461l4.759 40.339 34.919-21.098-39.678-19.241z"/><path d="M390.393 297.932c-.009 0-.019-.002-.025-.008-.013-.01-.021-.023-.021-.038l-1.502-49.857a.042.042 0 0 1 .027-.044.045.045 0 0 1 .053.012l34.657 39.298c.009.013.014.026.009.043-.003.016-.016.027-.03.032l-33.153 10.559a.04.04 0 0 1-.015.003zm-1.452-49.778l1.497 49.668 33.026-10.521-34.523-39.147z"/><path d="M388.891 248.073a.054.054 0 0 1-.021-.005l-39.83-19.314a.046.046 0 0 1-.021-.062l15.009-32.046a.049.049 0 0 1 .042-.026c.019 0 .035.01.042.026l24.82 51.361a.044.044 0 0 1-.009.053.05.05 0 0 1-.032.013zm-39.768-19.382l39.667 19.235-24.719-51.152-14.948 31.917z"/><path d="M390.393 297.932a.04.04 0 0 1-.027-.011l-36.557-28.679a.046.046 0 0 1-.017-.039.04.04 0 0 1 .022-.037l35.052-21.18c.013-.008.034-.009.046 0a.04.04 0 0 1 .025.039l1.502 49.86a.04.04 0 0 1-.025.042c-.005.004-.013.005-.021.005zm-36.475-28.722l36.426 28.575-1.497-49.677-34.929 21.102zM465.3 206.539a.046.046 0 0 1-.02-.005c-.017-.007-.029-.024-.026-.043l1.685-70.562c0-.022.017-.042.039-.044.025 0 .044.009.051.03l18.981 51.863a.045.045 0 0 1-.012.049l-20.667 18.7a.048.048 0 0 1-.031.012zm1.726-70.362l-1.677 70.208 20.562-18.605-18.885-51.603z"/><path d="M467.191 222.577l-.008-.001a.047.047 0 0 1-.038-.04l-1.891-16.038a.045.045 0 0 1 .014-.04l20.666-18.699c.021-.015.044-.016.062-.002a.05.05 0 0 1 .012.059l-18.775 34.738a.05.05 0 0 1-.042.023zm-1.842-16.067l1.872 15.869 18.575-34.37-20.447 18.501zm-77.608-104.933c-.009 0-.019-.002-.025-.008l-24.304-16.297a.045.045 0 0 1-.017-.06l19.659-40.131c.009-.018.036-.03.051-.025a.044.044 0 0 1 .037.042l4.646 56.429c0 .018-.007.035-.023.043a.044.044 0 0 1-.024.007zm-24.245-16.36l24.189 16.221-4.623-56.164-19.566 39.943zm27.406 338.995a.04.04 0 0 1-.024-.008c-.019-.011-.025-.031-.021-.051l22.264-86.97c.002-.012.012-.022.023-.028.01-.005.023-.008.035-.005l60.703 16.203c.017.004.03.018.032.035.005.017 0 .035-.014.044L390.932 424.2a.047.047 0 0 1-.03.012zm22.299-86.959l-22.217 86.782 82.788-70.614-60.571-16.168z"/><path d="M390.902 424.212a.048.048 0 0 1-.042-.025.048.048 0 0 1 .01-.058l82.969-70.766c.016-.016.043-.015.06 0a.045.045 0 0 1 .009.061l-38.06 59.12c-.006.01-.015.019-.026.021l-44.909 11.645c-.004.002-.008.002-.011.002zm82.758-70.572l-82.574 70.43 44.696-11.59 37.878-58.84z"/><path d="M404.839 436.328a.045.045 0 0 1-.031-.014L390.871 424.2a.045.045 0 0 1-.014-.046.043.043 0 0 1 .032-.034l44.908-11.646c.027-.008.043.006.055.024.009.021.003.045-.014.057l-30.972 23.762a.043.043 0 0 1-.027.011zm-13.84-12.141l13.843 12.034 30.758-23.599-44.601 11.565zm-89.337-133.302c-.015 0-.027-.008-.037-.019a.045.045 0 0 1-.001-.057l47.4-62.126a.043.043 0 0 1 .048-.017.048.048 0 0 1 .035.04l4.777 40.494c.002.021-.009.042-.029.048L301.68 290.88a.05.05 0 0 1-.018.005zm47.367-62.053l-47.225 61.897 51.982-21.553-4.757-40.344z"/><path d="M301.662 290.885c-.003 0-.007 0-.011-.003-.019-.003-.032-.019-.035-.038l-8.112-54.511c0-.013.002-.026.009-.035a.054.054 0 0 1 .032-.018l55.51-7.614c.017-.003.036.007.046.023s.008.037-.002.052l-47.4 62.125a.052.052 0 0 1-.037.019zm-8.058-54.519l8.088 54.357 47.264-61.949-55.352 7.592z"/><path d="M310.331 382.74a.042.042 0 0 1-.032-.015l-39.304-39.303a.044.044 0 0 1-.008-.055l30.635-52.554c.01-.019.04-.025.049-.023.021.005.036.023.037.041l8.668 91.857a.047.047 0 0 1-.026.046.035.035 0 0 1-.019.006zm-39.246-39.356l39.188 39.186-8.644-91.583-30.544 52.397z"/><path d="M271.027 343.438a.054.054 0 0 1-.037-.017l-23.965-30.48a.04.04 0 0 1-.008-.039c.003-.015.013-.025.027-.032l54.6-22.074c.015-.009.04-.004.052.013a.044.044 0 0 1 .004.054l-30.634 52.555a.041.041 0 0 1-.037.021h-.002zm-23.89-30.504l23.883 30.375 30.532-52.377-54.415 22.002zM364.07 196.712l-.009-.001c-.019-.003-.033-.019-.036-.039l-9.776-60.934a.046.046 0 0 1 .028-.05c.019-.009.043-.001.056.016l25.574 35.804a.045.045 0 0 1 .002.052l-15.799 25.13a.045.045 0 0 1-.04.022zm-9.698-60.792l9.725 60.616 15.717-24.999-25.442-35.617zm88.802 105.751a.056.056 0 0 1-.031-.011.048.048 0 0 1-.008-.061l22.126-35.131c.011-.018.038-.023.048-.021.02.003.034.021.037.04l1.891 16.038a.048.048 0 0 1-.016.042l-24.017 19.095a.058.058 0 0 1-.03.009zm22.097-35.042l-21.91 34.789 23.781-18.907-1.871-15.882z"/><path d="M462.667 320.837a.046.046 0 0 1-.046-.037l-19.49-79.165a.043.043 0 0 1 .015-.047l24.017-19.095c.015-.01.033-.014.049-.005a.039.039 0 0 1 .025.043l-4.524 98.26a.047.047 0 0 1-.042.043c-.002.003-.004.003-.004.003zm-19.44-79.194l19.408 78.823 4.505-97.836-23.913 19.013z"/><path d="M462.667 320.837a.043.043 0 0 1-.03-.012l-39.121-33.466a.046.046 0 0 1-.012-.053l19.628-45.7a.044.044 0 0 1 .042-.029h.005a.045.045 0 0 1 .041.036l19.491 79.166c.004.019-.002.039-.021.049a.041.041 0 0 1-.023.009zm-39.064-33.525l38.983 33.348-19.424-78.889-19.559 45.541z"/><path d="M423.546 287.371a.05.05 0 0 1-.036-.017l-34.656-39.297c-.01-.014-.015-.032-.008-.047a.044.044 0 0 1 .039-.03l54.283-6.401c.02-.008.032.005.042.018.01.014.013.031.004.046l-19.627 45.701a.042.042 0 0 1-.034.026l-.007.001zm-34.562-39.309l34.55 39.175 19.565-45.557-54.115 6.382z"/><path d="M388.891 248.073a.045.045 0 0 1-.042-.027l-24.821-51.36a.047.047 0 0 1 .012-.055.044.044 0 0 1 .055-.006l79.103 44.959c.019.01.028.029.023.05a.048.048 0 0 1-.041.037l-54.282 6.402h-.007zm-24.714-51.293l24.742 51.197 54.109-6.382-78.851-44.815zm26.725 227.432a.047.047 0 0 1-.045-.037l-12.718-54.789a.049.049 0 0 1 .013-.046l34.983-32.18a.049.049 0 0 1 .055-.005.048.048 0 0 1 .021.052l-22.265 86.971a.043.043 0 0 1-.044.034zm-12.668-54.821l12.67 54.577 22.178-86.631-34.848 32.054z"/><path d="M378.184 369.423a.044.044 0 0 1-.022-.007.05.05 0 0 1-.024-.049l12.208-71.489a.048.048 0 0 1 .039-.039c.021.001.038.007.048.022l22.772 39.312c.012.019.007.041-.008.058l-34.982 32.178a.043.043 0 0 1-.031.014zm12.234-71.402l-12.165 71.228 34.855-32.062-22.69-39.166zm-2.677-196.444l-.014-.001a.044.044 0 0 1-.032-.042l-4.646-56.429a.044.044 0 0 1 .023-.044.042.042 0 0 1 .05.003l30.873 23.109a.04.04 0 0 1 .017.031.041.041 0 0 1-.009.035l-26.225 33.319a.048.048 0 0 1-.037.019zm-4.591-56.375l4.627 56.207 26.122-33.188-30.749-23.019zm-70.177 439.487a.045.045 0 0 1-.027-.01l-30.05-21.473a.051.051 0 0 1-.021-.048.052.052 0 0 1 .037-.036l58.584-13.573a.053.053 0 0 1 .051.02c.009.019.009.039-.003.056l-28.533 35.046a.055.055 0 0 1-.038.018zm-29.939-21.499l29.931 21.388 28.419-34.907-58.35 13.519z"/><path d="M285.831 487.89a.046.046 0 0 1-.029-.011.046.046 0 0 1-.017-.031l-2.91-24.673a.047.047 0 0 1 .023-.046c.019-.011.037-.01.051.002L313 484.604a.048.048 0 1 1-.021.086l-27.144 3.2h-.004zm-2.85-24.623l2.891 24.525 26.976-3.182-29.867-21.343z"/><path d="M285.831 487.89h-.007l-43.667-7.359c-.02-.003-.036-.02-.039-.04s.009-.04.028-.05l40.757-17.314a.042.042 0 0 1 .042.003c.013.007.021.02.023.034l2.908 24.675a.042.042 0 0 1-.014.039.048.048 0 0 1-.031.012zm-43.501-7.425l43.448 7.322-2.895-24.551-40.553 17.229z"/><path d="M242.165 480.531a.05.05 0 0 1-.035-.016.046.046 0 0 1-.005-.054l23.592-39.738c.007-.014.022-.021.038-.022h.002c.015 0 .028.005.036.018l17.166 22.421c.01.012.013.028.009.04a.045.045 0 0 1-.027.031l-40.757 17.317a.074.074 0 0 1-.019.003zm23.597-39.7l-23.485 39.556 40.571-17.237-17.086-22.319zm114.107-269.248a.047.047 0 0 1-.024-.007c-.016-.008-.024-.027-.021-.045l7.871-70.006a.043.043 0 0 1 .042-.04c.021-.003.041.012.048.032l16.954 52.454a.046.046 0 0 1-.018.052l-24.824 17.55a.05.05 0 0 1-.028.01zm7.892-69.833l-7.834 69.687 24.712-17.472-16.878-52.215zm-74.788 382.939a.045.045 0 0 1-.038-.021.044.044 0 0 1 .001-.056l28.534-35.048a.049.049 0 0 1 .046-.016l38.924 8.899c.02.004.034.021.036.042a.048.048 0 0 1-.029.048l-67.458 26.146a.025.025 0 0 1-.016.006zm28.552-35.043l-28.404 34.889 67.149-26.028-38.745-8.861z"/><path d="M380.429 458.541a.049.049 0 0 1-.034-.015.048.048 0 0 1 .004-.065l24.408-22.216 30.975-23.764a.046.046 0 0 1 .065.008c.015.02.013.05-.006.065L380.46 458.53a.051.051 0 0 1-.031.011zm53.487-44.509l-29.049 22.284-22.892 20.834 51.941-43.118z"/><path d="M380.429 458.541a.039.039 0 0 1-.025-.008.045.045 0 0 1-.018-.052l10.472-34.331a.043.043 0 0 1 .031-.03c.015-.005.031 0 .044.009l13.937 12.116c.009.01.016.021.016.035s-.005.025-.016.034l-24.408 22.214a.048.048 0 0 1-.033.013zm10.496-34.295l-10.402 34.101 24.245-22.065-13.843-12.036z"/><path d="M380.429 458.541l-.009-.001-38.924-8.899c-.019-.004-.033-.021-.036-.04s.008-.038.024-.047l49.396-25.43c.016-.011.037-.008.052.005.013.013.02.032.015.05l-10.472 34.329a.047.047 0 0 1-.046.033zm-38.788-8.962l38.758 8.86 10.426-34.183-49.184 25.323zm-185.303-30.851a.047.047 0 0 1-.024-.087l57.971-36.494c.02-.012.042-.01.056.005.016.016.02.037.01.057l-17.523 31.725a.047.047 0 0 1-.035.023l-40.449 4.771h-.006zm57.842-36.407l-57.644 36.29 40.22-4.745 17.424-31.545zm-17.394 31.589h.001-.001zM465.3 206.539h-.004l-29.455-2.587c-.016-.003-.03-.011-.037-.024s-.009-.029-.002-.042l31.14-67.974c.009-.021.03-.03.053-.026a.046.046 0 0 1 .036.047l-1.685 70.562a.042.042 0 0 1-.015.034.06.06 0 0 1-.031.01zm-29.385-2.676l29.34 2.578 1.678-70.286-31.018 67.708z"/><path d="M443.174 241.671l-.008-.001a.045.045 0 0 1-.038-.036l-7.33-37.721a.051.051 0 0 1 .011-.04c.009-.011.02-.017.039-.016l29.456 2.588a.047.047 0 0 1 .038.025c.007.016.007.032-.002.046l-22.126 35.131a.043.043 0 0 1-.04.024zm-7.273-37.715l7.295 37.544 22.023-34.968-29.318-2.576z"/><path d="M443.174 241.671a.04.04 0 0 1-.023-.006l-79.103-44.958a.047.047 0 0 1-.023-.055.048.048 0 0 1 .045-.033l.006.001 71.774 7.238c.021.002.036.017.041.038l7.329 37.719a.042.042 0 0 1-.018.047.047.047 0 0 1-.028.009zm-78.889-44.938l78.824 44.8-7.304-37.586-71.52-7.214z"/><path d="M435.844 203.952a.055.055 0 0 1-.023-.007l-55.974-32.369c-.016-.008-.022-.021-.022-.038a.042.042 0 0 1 .018-.041l24.824-17.551c.01-.007.023-.007.037-.007.011.003.023.01.03.021l31.152 49.919a.048.048 0 0 1-.007.057.051.051 0 0 1-.035.016zm-55.889-32.42l55.75 32.238-31.026-49.719-24.724 17.481z"/><path d="M435.844 203.952l-.005-.002-71.773-7.239a.045.045 0 0 1-.038-.025.051.051 0 0 1 .002-.045l15.799-25.13a.05.05 0 0 1 .064-.015l55.975 32.37c.02.01.028.033.022.055a.052.052 0 0 1-.046.031zm-71.695-7.326l71.484 7.21-55.749-32.238-15.735 25.028zm-98.392 244.168a.028.028 0 0 1-.015-.004c-.021-.005-.032-.024-.032-.046l1.644-34.972c0-.019.01-.032.024-.039l42.933-23.081a.044.044 0 0 1 .056.011.047.047 0 0 1 .001.06l-44.575 58.054a.046.046 0 0 1-.036.017zm1.687-34.991l-1.633 34.798 44.352-57.763-42.719 22.965z"/><path d="M267.399 405.82a.055.055 0 0 1-.025-.007.046.046 0 0 1-.021-.041l3.628-62.384c0-.019.012-.035.028-.042.018-.004.037-.002.05.012l39.304 39.303c.011.01.015.024.013.038a.047.047 0 0 1-.023.036l-42.933 23.079a.037.037 0 0 1-.021.006zm3.667-62.324l-3.615 62.198 42.801-23.012-39.186-39.186z"/><path d="M193.255 461.281a.047.047 0 0 1-.042-.025c-.01-.021-.005-.045.014-.058l74.145-55.462c.015-.01.033-.013.049-.003.016.007.025.024.025.044l-1.643 34.972c0 .021-.015.037-.034.044l-72.503 20.486c-.003.002-.007.002-.011.002zm74.094-55.41l-73.865 55.25 72.228-20.41 1.637-34.84zm-1.592 34.876h.001-.001zm17.165 22.469a.046.046 0 0 1-.042-.027.048.048 0 0 1 .016-.058l68.206-47.447c.019-.012.039-.012.054 0 .017.011.023.032.017.05l-9.621 33.874c-.004.018-.019.029-.035.033l-58.584 13.573-.011.002zm68.126-47.381l-67.901 47.233 58.321-13.513 9.58-33.72zm-9.542 33.76h.001-.001z"/><path d="M282.922 463.216a.044.044 0 0 1-.037-.019l-17.165-22.421a.044.044 0 0 1-.007-.044.039.039 0 0 1 .031-.029l85.371-25.026a.046.046 0 0 1 .055.024c.011.021.002.045-.015.058l-68.207 47.448c-.009.005-.016.009-.026.009zm-17.086-22.443l17.095 22.332 67.935-47.259-85.03 24.927z"/><path d="M265.757 440.794c-.015 0-.028-.008-.039-.021a.05.05 0 0 1 .002-.055l44.574-58.055a.055.055 0 0 1 .037-.017c.012 0 .021.003.03.01l40.797 33.027c.013.012.02.028.018.046-.005.018-.016.031-.033.035l-85.372 25.027a.04.04 0 0 1-.014.003zm44.58-58.034l-44.458 57.902 85.15-24.961-40.692-32.941z"/><path d="M390.902 424.212l-.011-.001-39.772-8.445a.044.044 0 0 1-.035-.025.063.063 0 0 1 .002-.043l27.058-46.346c.007-.018.023-.028.046-.023a.045.045 0 0 1 .038.037l12.718 54.789a.046.046 0 0 1-.013.044.044.044 0 0 1-.031.013zm-39.701-8.523l39.639 8.414-12.674-54.603-26.965 46.189z"/><path d="M341.506 449.643a.049.049 0 0 1-.045-.062l9.621-33.872c.007-.025.029-.039.055-.032l39.773 8.443c.02.004.034.021.037.039.002.02-.008.039-.024.046l-49.396 25.432a.035.035 0 0 1-.021.006zm9.655-33.868l-9.58 33.729 49.184-25.322-39.604-8.407zm53.532-261.744a.047.047 0 0 1-.045-.032l-16.954-52.454a.048.048 0 0 1 .014-.049c.011-.013.03-.015.048-.009l27.674 10.773c.022.01.035.032.028.056l-10.721 41.68c-.004.021-.022.034-.044.035zm-16.879-52.422l16.873 52.208 10.67-41.484-27.543-10.724z"/><path d="M415.414 112.352a.055.055 0 0 1-.017-.003l-27.673-10.774a.054.054 0 0 1-.029-.032.057.057 0 0 1 .009-.042l26.226-33.318c.013-.015.031-.022.05-.016a.044.044 0 0 1 .031.043l1.448 44.093a.042.042 0 0 1-.02.04.035.035 0 0 1-.025.009zm-27.599-10.842l27.55 10.726-1.441-43.894-26.109 33.168zm-86.153 189.375a.039.039 0 0 1-.027-.011l-52.581-40.39a.048.048 0 0 1-.019-.045.049.049 0 0 1 .032-.036l44.469-14.121a.05.05 0 0 1 .039.004.05.05 0 0 1 .022.034l8.111 54.511a.046.046 0 0 1-.023.046.038.038 0 0 1-.023.008zm-52.481-40.421l52.418 40.267-8.086-54.345-44.332 14.078z"/><path d="M247.062 312.959a.05.05 0 0 1-.027-.007c-.013-.01-.021-.025-.02-.039l2.019-62.467c0-.018.011-.033.027-.041a.045.045 0 0 1 .047.005l52.581 40.391c.014.01.021.027.019.043-.002.017-.014.03-.03.037l-54.599 22.076c-.005.002-.011.002-.017.002zm2.063-62.42l-2.014 62.305 54.457-22.02-52.443-40.285zm18.274 155.281l-.005-.001-32.951-3.03a.042.042 0 0 1-.036-.025.048.048 0 0 1 .001-.045l36.578-59.351a.042.042 0 0 1 .055-.021c.02.007.032.025.032.046l-3.627 62.385c0 .011-.007.023-.016.032a.055.055 0 0 1-.031.01zm-32.871-3.116l32.829 3.019 3.614-62.15-36.443 59.131z"/><path d="M234.449 402.789a.045.045 0 0 1-.033-.014l-20.14-20.558c-.01-.01-.014-.023-.013-.037s.009-.026.02-.033L271 343.354a.045.045 0 0 1 .058.003c.018.016.021.04.009.06l-36.577 59.352c-.01.011-.023.022-.041.02zm-20.069-20.597l20.06 20.476 36.431-59.115-56.491 38.639z"/><path d="M193.255 461.281a.045.045 0 0 1-.033-.014.047.047 0 0 1-.004-.06l41.194-58.492a.045.045 0 0 1 .037-.019h.005l32.951 3.03a.045.045 0 0 1 .04.033c.004.02 0 .038-.017.051l-74.145 55.461a.044.044 0 0 1-.028.01zm41.217-58.488l-41.009 58.229 73.812-55.212-32.803-3.017z"/><path d="M196.786 413.956a.043.043 0 0 1-.036-.018.045.045 0 0 1-.005-.051l17.522-31.724a.05.05 0 0 1 .036-.024c.018-.003.029.002.039.014l20.14 20.558c.012.012.017.027.012.044-.003.016-.016.027-.032.033L196.8 413.955l-.014.001zm17.534-31.693l-17.438 31.571 37.479-11.113-20.041-20.458z"/><path d="M193.255 461.281l-.016-.003a.044.044 0 0 1-.031-.048l3.532-47.324a.046.046 0 0 1 .032-.041l37.663-11.167a.046.046 0 0 1 .051.018.047.047 0 0 1 0 .055l-41.194 58.49a.043.043 0 0 1-.037.02zm3.575-47.336l-3.516 47.125 41.02-58.244-37.504 11.119zM345.438 83.11a.045.045 0 0 1-.039-.021L298.336 7.871a.046.046 0 0 1 .069-.06l44.483 36.628c.01.008.016.02.016.032l2.581 38.59a.048.048 0 0 1-.031.048l-.016.001zM298.567 8.064l46.812 74.817-2.564-38.383-44.248-36.434z"/><path d="M383.095 45.149l-40.237-.627a.038.038 0 0 1-.029-.012L298.346 7.882c-.018-.015-.023-.042-.01-.06a.047.047 0 0 1 .058-.019l84.72 37.256a.045.045 0 0 1 .027.052.047.047 0 0 1-.046.038zm-40.22-.721l39.991.624-84.201-37.028 44.21 36.404z"/><path d="M363.436 85.28a.05.05 0 0 1-.042-.026l-20.578-40.758c-.007-.016-.007-.032.002-.046a.046.046 0 0 1 .039-.021h.002l40.237.627c.015 0 .03.007.039.021a.05.05 0 0 1 0 .045l-19.658 40.131a.043.043 0 0 1-.041.027zm-20.501-40.758l20.5 40.606 19.587-39.981-40.087-.625z"/><path d="M354.295 135.777h-.008a.048.048 0 0 1-.038-.055l9.139-50.482-20.571-40.745a.047.047 0 0 1 .021-.063.047.047 0 0 1 .062.021l20.578 40.758a.05.05 0 0 1 .005.03l-9.142 50.499a.048.048 0 0 1-.046.037zM184.407 359.752a.046.046 0 0 1-.042-.026.05.05 0 0 1 .014-.058l62.655-46.792c.021-.015.05-.014.064.01l23.965 30.478a.05.05 0 0 1 .008.045.049.049 0 0 1-.036.028l-86.62 16.314-.008.001zm62.647-46.774l-62.457 46.646 86.346-16.264-23.889-30.382z"/><path d="M214.309 382.232a.042.042 0 0 1-.028-.01l-29.902-22.479c-.014-.012-.022-.031-.017-.048a.042.042 0 0 1 .037-.034l86.62-16.315c.023-.006.042.008.05.029.009.018.002.042-.016.055l-56.717 38.795a.06.06 0 0 1-.027.007zm-29.789-22.501l29.791 22.397 56.505-38.65-86.296 16.253z"/><path d="M184.407 359.752a.05.05 0 0 1-.026-.008.05.05 0 0 1-.018-.052l10.998-38.823a.044.044 0 0 1 .037-.032l51.658-7.97c.022-.007.042.007.05.027a.05.05 0 0 1-.015.057l-62.655 46.793a.06.06 0 0 1-.029.008zm11.034-38.829l-10.951 38.663 62.396-46.599-51.445 7.936z"/><path d="M156.338 418.728a.052.052 0 0 1-.032-.013.048.048 0 0 1-.011-.055l28.069-58.974a.04.04 0 0 1 .031-.025c.01-.005.025 0 .038.007l29.902 22.48c.013.01.02.023.018.039 0 .014-.008.03-.021.037l-57.971 36.494a.033.033 0 0 1-.023.01zm28.086-58.951l-27.974 58.778 57.777-36.375-29.803-22.403z"/><path d="M146.513 364.223a.047.047 0 0 1-.042-.029.043.043 0 0 1 .012-.053l48.891-43.293a.043.043 0 0 1 .055-.004c.018.01.026.031.02.052l-10.996 38.823a.042.042 0 0 1-.041.032l-37.894 4.472h-.005zm48.803-43.202l-48.661 43.089 37.716-4.447 10.945-38.642z"/><path d="M156.338 418.728l-.006-.001a.048.048 0 0 1-.04-.037l-9.826-54.507a.052.052 0 0 1 .008-.036.048.048 0 0 1 .032-.018l37.896-4.469.004-.001c.015 0 .03.007.038.02.01.015.012.03.005.047l-28.069 58.976a.047.047 0 0 1-.042.026zm-9.771-54.513l9.792 54.314 27.969-58.767-37.761 4.453zm204.562 51.554l-.007-.001a.052.052 0 0 1-.039-.034l-21.807-73.106c-.004-.019 0-.037.016-.049a.042.042 0 0 1 .051-.004l48.863 26.76a.04.04 0 0 1 .023.028.051.051 0 0 1-.005.036l-27.056 46.347a.048.048 0 0 1-.039.023zm-21.731-73.06l21.744 72.896 26.978-46.213-48.722-26.683z"/><path d="M351.129 415.769a.052.052 0 0 1-.03-.011l-40.797-33.027a.053.053 0 0 1-.014-.058l18.99-40.079c.008-.018.023-.025.046-.026a.05.05 0 0 1 .042.034l21.807 73.107c.007.018-.002.039-.019.05a.05.05 0 0 1-.025.01zm-40.74-33.089l40.652 32.91-21.73-72.846-18.922 39.936z"/><path d="M310.331 382.74h-.008c-.021-.005-.037-.021-.038-.042l-8.669-91.856a.05.05 0 0 1 .032-.05c.023-.006.043.003.055.024l27.658 51.776a.043.043 0 0 1 .002.041l-18.99 40.081a.047.047 0 0 1-.042.026zm-8.602-91.676l8.631 91.457 18.909-39.906-27.54-51.551z"/><path d="M378.184 369.423a.044.044 0 0 1-.022-.007l-48.863-26.762a.045.045 0 0 1-.025-.036c0-.017.007-.032.018-.042l61.073-44.729a.045.045 0 0 1 .053-.002c.016.01.024.028.021.048l-12.208 71.489a.042.042 0 0 1-.025.033.042.042 0 0 1-.022.008zm-48.777-26.815l48.742 26.694 12.179-71.312-60.921 44.618zm101.26-185.773a.048.048 0 0 1-.03-.011.048.048 0 0 1-.014-.052l7.006-19.017a.047.047 0 0 1 .042-.031l29.313-1.84h.002c.021 0 .04.013.045.032a.046.046 0 0 1-.022.055l-36.318 20.856a.038.038 0 0 1-.024.008zm7.038-19.019l-6.949 18.868 36.033-20.695-29.084 1.827z"/><path d="M435.844 203.952l-.007-.002a.047.047 0 0 1-.039-.041l-5.178-47.117a.044.044 0 0 1 .023-.044l36.318-20.859c.018-.008.041-.007.054.006.015.015.021.037.011.055l-31.14 67.974a.045.045 0 0 1-.042.028zm-5.127-47.139l5.156 46.918 31.01-67.689-36.166 20.771z"/><path d="M430.667 156.835l-.005-.001-25.974-2.804c-.021-.001-.037-.017-.041-.037s.007-.041.024-.05l32.98-16.213c.013-.008.035-.006.052.007a.053.053 0 0 1 .013.051l-7.006 19.017a.045.045 0 0 1-.043.03zm-25.81-2.879l25.778 2.782 6.952-18.874-32.73 16.092z"/><path d="M435.844 203.952a.046.046 0 0 1-.039-.023l-31.152-49.919a.05.05 0 0 1 0-.05.047.047 0 0 1 .041-.021h.004l25.973 2.804c.023.003.039.02.042.042l5.178 47.115a.047.047 0 0 1-.031.05l-.016.002zm-31.061-49.911l30.992 49.666-5.149-46.875-25.843-2.791zM238.701 3.66a.047.047 0 0 1-.016-.054c.007-.02.021-.028.047-.03L298.379 7.8c.014 0 .028.009.036.021l47.063 75.218a.049.049 0 0 1-.008.059.044.044 0 0 1-.032.012.049.049 0 0 1-.028-.009m-.142-.223L298.349 7.891l-59.465-4.21"/><path d="M345.438 83.11a.045.045 0 0 1-.039-.021l-47.05-75.198-59.624-4.222a.044.044 0 0 1-.042-.05.046.046 0 0 1 .046-.043h.004L298.379 7.8c.014 0 .028.009.036.021l47.063 75.218a.047.047 0 0 1-.016.064.036.036 0 0 1-.024.007z"/><path d="M208.408 12.874a.046.046 0 0 1-.046-.039.047.047 0 0 1 .033-.052l30.32-9.206c.004-.002.008-.003.018-.002L298.379 7.8a.045.045 0 0 1 .042.047.047.047 0 0 1-.043.046l-89.967 4.981h-.003zm30.326-9.204l-29.941 9.09 88.842-4.919-58.901-4.171z"/><path d="M383.095 45.149a.083.083 0 0 1-.013-.002L238.715 3.667c-.024-.008-.039-.033-.031-.057a.045.045 0 0 1 .044-.034c.004 0 .009 0 .014.002l144.366 41.478a.048.048 0 0 1 .032.058.049.049 0 0 1-.045.035zm-37.733 258.093l-.013-.001-43.699-12.359c-.021-.005-.034-.021-.035-.041s.009-.038.028-.046l52.176-21.631c.016-.007.036-.005.048.007.014.011.018.03.014.047l-8.475 33.989a.046.046 0 0 1-.021.029.036.036 0 0 1-.023.006zm-43.558-12.412l43.524 12.309 8.441-33.855-51.965 21.546z"/><path d="M329.32 342.66a.05.05 0 0 1-.041-.023L301.62 290.86a.047.047 0 0 1 .005-.052c.012-.016.033-.022.048-.017l43.701 12.359a.048.048 0 0 1 .03.023.049.049 0 0 1 .002.039l-16.043 39.418c-.007.02-.02.029-.043.03zm-27.566-51.747l27.561 51.591 15.983-39.276-43.544-12.315z"/><path d="M345.362 303.242a.055.055 0 0 1-.036-.015c-.01-.013-.012-.027-.01-.043l8.476-33.991c.005-.015.015-.028.03-.032a.05.05 0 0 1 .043.007l36.557 28.68a.05.05 0 0 1 .016.05c-.004.019-.021.029-.039.032l-45.032 5.312h-.005zm8.504-33.954l-8.441 33.854 44.851-5.29-36.41-28.564z"/><path d="M329.32 342.66a.049.049 0 0 1-.028-.009.05.05 0 0 1-.016-.054l16.043-39.419a.045.045 0 0 1 .039-.028l45.03-5.312h.004c.021 0 .037.011.044.028a.048.048 0 0 1-.015.056l-61.073 44.729a.047.047 0 0 1-.028.009zm16.075-39.421l-15.969 39.24 60.798-44.528-44.829 5.288zm92.276-165.421a.047.047 0 0 1-.045-.042l-2.086-17.683a.045.045 0 0 1 .02-.044.05.05 0 0 1 .047-.003l31.399 15.843c.02.009.029.03.025.051a.047.047 0 0 1-.044.037l-29.313 1.841h-.003zm-2.027-17.65l2.069 17.553 29.098-1.827-31.167-15.726z"/><path d="M466.985 135.977a.05.05 0 0 1-.021-.004l-31.399-15.843c-.009-.005-.019-.013-.022-.023L413.924 68.23a.045.045 0 0 1 .019-.059c.018-.01.046-.008.06.012l53.02 67.719a.048.048 0 0 1 0 .058.051.051 0 0 1-.038.017zm-31.362-15.923l31.198 15.74-52.68-67.282 21.482 51.542z"/><path d="M404.693 154.031a.045.045 0 0 1-.038-.019c-.014-.018-.012-.042.004-.06l30.892-33.897c.013-.013.03-.02.048-.012.019.005.03.021.032.039l2.086 17.683a.049.049 0 0 1-.025.048l-32.979 16.212c-.005.005-.013.006-.02.006zm30.859-33.837l-30.659 33.641 32.729-16.091-2.07-17.55z"/><path d="M404.693 154.031a.042.042 0 0 1-.022-.005c-.02-.011-.03-.032-.023-.053l10.72-41.68a.052.052 0 0 1 .023-.03.053.053 0 0 1 .039-.002l20.173 7.784c.015.004.024.018.027.032s0 .031-.01.042l-30.894 33.898a.044.044 0 0 1-.033.014zm10.752-41.664l-10.66 41.447 30.72-33.708-20.06-7.739z"/><path d="M435.586 120.135c-.007 0-.011-.002-.016-.003l-20.173-7.783a.047.047 0 0 1-.029-.043l-1.448-44.091c0-.024.015-.043.037-.048.028-.003.042.007.053.027l21.619 51.876a.047.047 0 0 1-.008.05.057.057 0 0 1-.035.015zm-20.127-7.863l20.042 7.733-21.48-51.54 1.438 43.807z"/></g><circle fill="#FFF" cx="261.422" cy="496.085" r="3.914"/><circle fill="#FFF" cx="201.886" cy="492.267" r="5.442"/><circle fill="#FFF" cx="150.54" cy="436.891" r="3.94"/><circle fill="#FFF" cx="177.499" cy="472" r="3.153"/><circle fill="#FFF" cx="192.577" cy="476.104" r="4.221"/><circle fill="#FFF" cx="239.577" cy="490.364" r="3.365"/><circle fill="#FFF" cx="250.009" cy="489.71" r="3.396"/><circle fill="#FFF" cx="117.997" cy="454.848" r="6.797"/><circle fill="#FFF" cx="86.211" cy="430.649" r="4.733"/><circle fill="#FFF" cx="137.451" cy="414.166" r="2.122"/><circle fill="#FFF" cx="112.771" cy="398.492" r="3.104"/><circle fill="#FFF" cx="84.91" cy="387.062" r="4.995"/><circle fill="#FFF" cx="64.724" cy="378.972" r="3.246"/><circle fill="#FFF" cx="34.212" cy="363.237" r="3.524"/><circle fill="#FFF" cx="63.012" cy="361.505" r="3.384"/><circle fill="#FFF" cx="95.359" cy="346.068" r="3.57"/><circle fill="#FFF" cx="120.645" cy="328.518" r="3.16"/><circle fill="#FFF" cx="136.375" cy="302.397" r="3.072"/><circle fill="#FFF" cx="70.09" cy="342.507" r="3.598"/><circle fill="#FFF" cx="65.012" cy="296.312" r="4.729"/><circle fill="#FFF" cx="35.55" cy="293.048" r="5.791"/><circle fill="#FFF" cx="33.645" cy="276.834" r="3.451"/><circle fill="#FFF" cx="5.52" cy="231.185" r="4.557"/><circle fill="#FFF" cx="39.08" cy="179.234" r="3.736"/><circle fill="#FFF" cx="27.009" cy="146.467" r="4.001"/><circle fill="#FFF" cx="66.016" cy="86.496" r="2.839"/><circle fill="#FFF" cx="123.207" cy="130.568" r="4.579"/><circle fill="#FFF" cx="171.297" cy="156.56" r="2.824"/><circle fill="#FFF" cx="191.392" cy="117.232" r="5.73"/><circle fill="#FFF" cx="150.802" cy="84.179" r="8.031"/><circle fill="#FFF" cx="159.417" cy="50.181" r="7.009"/><circle fill="#FFF" cx="218.268" cy="36.988" r="6.072"/><circle fill="#FFF" cx="235.862" cy="59.434" r="2.324"/><circle fill="#FFF" cx="234.268" cy="94.288" r="4.075"/><circle fill="#FFF" cx="230.324" cy="156.317" r="3.278"/><circle fill="#FFF" cx="287.122" cy="117.638" r="6.367"/><circle fill="#FFF" cx="316.483" cy="140.74" r="5.143"/><circle fill="#FFF" cx="254.28" cy="186.719" r="4.139"/><circle fill="#FFF" cx="306.025" cy="179.469" r="2.878"/><circle fill="#FFF" cx="304.235" cy="85.662" r="4.521"/><circle fill="#FFF" cx="266.658" cy="97.48" r="2.836"/><circle fill="#FFF" cx="250.911" cy="10.926" r="2.821"/><circle fill="#FFF" cx="215.315" cy="12.4" r="5.429"/><circle fill="#FFF" cx="188.496" cy="15.625" r="5.825"/><circle fill="#FFF" cx="120.861" cy="41.517" r="3.191"/><circle fill="#FFF" cx="97.092" cy="63.198" r="5.169"/><circle fill="#FFF" cx="110.368" cy="75.213" r="3.244"/><circle fill="#FFF" cx="77.744" cy="211.954" r="2.954"/><circle fill="#FFF" cx="87.69" cy="162.894" r="4.82"/><circle fill="#FFF" cx="110.991" cy="202.076" r="5.457"/><circle fill="#FFF" cx="147.143" cy="230.802" r="7.225"/><circle fill="#FFF" cx="199.091" cy="209.373" r="2.205"/><circle fill="#FFF" cx="155.96" cy="196.239" r="3.443"/><circle fill="#FFF" cx="57.884" cy="257.654" r="3.209"/><circle fill="#FFF" cx="112.322" cy="251.321" r="4.776"/><circle fill="#FFF" cx="5.52" cy="231.185" r="5.18"/><circle fill="#FFF" cx="151.845" cy="271.372" r="5.68"/><circle fill="#FFF" cx="15.198" cy="311.977" r="3.191"/><circle fill="#FFF701" cx="336.582" cy="199.177" r="4.153"/><circle fill="#FFF701" cx="293.46" cy="235.542" r="4.33"/><circle fill="#FFF701" cx="354.296" cy="135.732" r="8.623"/><circle fill="#FFF701" cx="345.272" cy="81.62" r="4.252"/><circle fill="#FFF701" cx="290.679" cy="15.447" r="5.418"/><circle fill="#FFF701" cx="208.489" cy="12.917" r="4.203"/><circle fill="#FFF701" cx="239.436" cy="4.003" r="4.002"/><circle fill="#FFF701" cx="298.971" cy="7.823" r="6.247"/><circle fill="#FFF701" cx="343.374" cy="45.137" r="4.752"/><circle fill="#FFF701" cx="323.358" cy="28.089" r="2.79"/><circle fill="#FFF701" cx="261.28" cy="9.725" r="4.177"/><circle fill="#FFF701" cx="250.848" cy="10.379" r="3.112"/><circle fill="#FFF701" cx="382.86" cy="45.241" r="6.341"/><circle fill="#FFF701" cx="414.646" cy="69.441" r="3.773"/><circle fill="#FFF701" cx="363.406" cy="85.924" r="2.173"/><circle fill="#FFF701" cx="388.086" cy="101.597" r="2.853"/><circle fill="#FFF701" cx="415.947" cy="113.028" r="4.282"/><circle fill="#FFF701" cx="436.133" cy="121.118" r="3.276"/><circle fill="#FFF701" cx="466.645" cy="136.853" r="3.424"/><circle fill="#FFF701" cx="437.845" cy="138.585" r="3.765"/><circle fill="#FFF701" cx="308.357" cy="24.362" r="3.434"/><circle fill="#FFF701" cx="405.498" cy="154.02" r="4.058"/><circle fill="#FFF701" cx="380.212" cy="171.57" r="2.448"/><circle fill="#FFF701" cx="364.481" cy="197.691" r="3.008"/><circle fill="#FFF701" cx="430.766" cy="157.582" r="3.56"/><circle fill="#FFF701" cx="435.845" cy="203.777" r="4.964"/><circle fill="#FFF701" cx="465.307" cy="207.041" r="6.938"/><circle fill="#FFF701" cx="467.212" cy="223.254" r="3.49"/><circle fill="#FFF701" cx="495.337" cy="268.905" r="4.323"/><circle fill="#FFF701" cx="461.776" cy="320.855" r="3.752"/><circle fill="#FFF701" cx="473.849" cy="353.622" r="3.878"/><circle fill="#FFF701" cx="434.841" cy="413.594" r="2.913"/><circle fill="#FFF701" cx="377.649" cy="369.521" r="4.347"/><circle fill="#FFF701" cx="329.56" cy="343.528" r="3.537"/><circle fill="#FFF701" cx="309.465" cy="382.857" r="5.824"/><path fill="#FFF701" d="M358.781 414.898a8.783 8.783 0 0 1-7.715 9.737c-4.82.56-9.178-2.895-9.737-7.715-.559-4.819 2.896-9.18 7.714-9.736 4.819-.561 9.179 2.895 9.738 7.714z"/><circle fill="#FFF701" cx="341.44" cy="449.909" r="6.517"/><circle fill="#FFF701" cx="282.589" cy="463.101" r="5.67"/><circle fill="#FFF701" cx="264.996" cy="440.655" r="2.574"/><circle fill="#FFF701" cx="266.589" cy="405.8" r="4.418"/><circle fill="#FFF701" cx="270.533" cy="343.772" r="3.355"/><circle fill="#FFF701" cx="213.735" cy="382.451" r="6.224"/><circle fill="#FFF701" cx="184.375" cy="359.349" r="5.154"/><circle fill="#FFF701" cx="246.578" cy="313.371" r="4.077"/><circle fill="#FFF701" cx="194.832" cy="320.621" r="2.553"/><circle fill="#FFF701" cx="164.275" cy="300.912" r="4.225"/><circle fill="#FFF701" cx="207.398" cy="264.548" r="4.182"/><circle fill="#FFF701" cx="249.347" cy="250.916" r="5.199"/><circle fill="#FFF701" cx="146.562" cy="364.357" r="7.913"/><circle fill="#FFF701" cx="196.623" cy="414.427" r="5.074"/><circle fill="#FFF701" cx="155.585" cy="418.469" r="5.187"/><circle fill="#FFF701" cx="234.199" cy="402.609" r="2.979"/><circle fill="#FFF701" cx="193.196" cy="460.615" r="5.714"/><circle fill="#FFF701" cx="241.882" cy="480.747" r="2.626"/><circle fill="#FFF701" cx="285.542" cy="487.689" r="4.47"/><circle fill="#FFF701" cx="312.362" cy="484.465" r="6.731"/><circle fill="#FFF701" cx="379.995" cy="458.572" r="2.825"/><circle fill="#FFF701" cx="403.764" cy="436.891" r="4.454"/><circle fill="#FFF701" cx="390.489" cy="424.875" r="3.485"/><circle fill="#FFF701" cx="423.113" cy="288.136" r="2.925"/><circle fill="#FFF701" cx="413.167" cy="337.196" r="4.745"/><circle fill="#FFF701" cx="389.866" cy="298.014" r="5.846"/><circle fill="#FFF701" cx="353.714" cy="269.287" r="6.275"/><circle fill="#FFF701" cx="301.766" cy="290.717" r="2.373"/><circle fill="#FFF701" cx="344.897" cy="303.851" r="3.687"/><circle fill="#FFF701" cx="442.973" cy="242.435" r="3.292"/><circle fill="#FFF701" cx="388.536" cy="248.768" r="4.956"/><circle fill="#FFF701" cx="349.012" cy="228.718" r="6.463"/><circle fill="#FFF701" cx="485.659" cy="188.113" r="3.231"/><path opacity=".2" fill="#F3F3F3" d="M229.875 484.578l-46.596-19.718-36.284-32.219-17.158-65.643 20.703-68.977 46.083-40.367 76.869-22.684 56.65-38.123L341 148.027V84.918l-32.563-46.025-50.183-21.581-45.35 2.33-36.325 6.896-53.363 22.114-22.245 18.797L70.092 94.15l-36.478 59.901-19.148 76.751 9.718 79.889 17.223 49.086 50.759 64.191 30.57 23.033z"/></svg>