<svg xmlns="http://www.w3.org/2000/svg" width="315" height="430" viewBox="0 0 315 430"><path fill="#FFF" d="M314.695 234.41a3.296 3.296 0 0 0-3.225-2.911l-7.674-65.063a2.12 2.12 0 0 0 1.303-2.199 2.12 2.12 0 0 0-2.22-1.867l-14.905-40.723a2.344 2.344 0 0 0-1.803-4.104c-.083.01-.158.035-.236.052L243.29 63.126a2.83 2.83 0 0 0 .737-2.249 2.859 2.859 0 0 0-4.252-2.154l-.017-.02.011.024c-.108.062-.207.139-.306.214L218.51 43.256a5.849 5.849 0 0 0 .856-3.788 5.88 5.88 0 0 0-6.517-5.163 5.87 5.87 0 0 0-4.496 3.052L144.461 9.26a4.26 4.26 0 0 0 .332-2.173 4.301 4.301 0 0 0-4.767-3.777 4.295 4.295 0 0 0-3.763 3.75l-43.788-3.1c-.003-.047.003-.092-.002-.139a3.784 3.784 0 1 0-7.529.784l-20.343 6.166a3.087 3.087 0 0 0-3.18-1.833 3.1 3.1 0 0 0 .714 6.158 3.089 3.089 0 0 0 2.727-3.066l31.323-1.729a2.51 2.51 0 0 0 2.746 2.008 2.509 2.509 0 0 0 1.72-.993l60.074 33.824a2.733 2.733 0 0 0-.11 1.141 2.77 2.77 0 0 0 3.071 2.433c.056-.006.106-.026.162-.036l22.971 46.961a3.35 3.35 0 0 0-1.588 3.243 3.351 3.351 0 0 0 2.51 2.857l-8.737 58.159c-.089.003-.177-.007-.267.004a3.208 3.208 0 0 0-2.817 3.556 3.17 3.17 0 0 0 .591 1.491l-33.176 41.334a1.394 1.394 0 0 0-.747-.125 1.392 1.392 0 0 0-1.19 1.055l-39.236 9.949c-.867-2.118-3.042-3.501-5.427-3.226a5.236 5.236 0 0 0-4.598 5.804c.012.101.046.191.063.291l-28.249 9.087a3.643 3.643 0 0 0-3.54-1.744 3.65 3.65 0 0 0-3.207 4.047c.063.544.25 1.04.518 1.478L25.477 260.82a2.838 2.838 0 0 0-2.502-.998 2.844 2.844 0 0 0-2.497 3.152 2.84 2.84 0 0 0 2.148 2.426L9.638 310.47a7.569 7.569 0 0 0-2.628-.162 7.603 7.603 0 0 0 1.75 15.103c.066-.008.129-.023.194-.032l6.536 36.036c-.055.003-.107-.004-.162.002a3.559 3.559 0 0 0 .82 7.069 3.548 3.548 0 0 0 1.989-.918L45.78 399.43a3.466 3.466 0 0 0-.765 2.598 3.48 3.48 0 0 0 3.854 3.055 3.45 3.45 0 0 0 2.464-1.51l37.509 14.756c-.136.329-.201.69-.157 1.069a2.167 2.167 0 0 0 2.403 1.903 2.158 2.158 0 0 0 1.877-1.785l31.544 5.313a4.338 4.338 0 0 0 4.825 4.671c2.238-.26 3.857-2.181 3.818-4.388l14.713-1.77c.488 2.189 2.542 3.71 4.819 3.445a4.436 4.436 0 0 0 3.897-4.918c-.02-.173-.07-.333-.109-.498l52.006-20.158a2.899 2.899 0 1 0 5.054-2.834l17.829-14.801c.215.029.435.042.66.016a2.624 2.624 0 0 0 2.319-2.489l22.281-18.498a2.856 2.856 0 0 0 2.471.946 2.87 2.87 0 0 0 2.519-3.18 2.837 2.837 0 0 0-.92-1.776l30.56-47.472a2.97 2.97 0 0 0 1.806.367 2.999 2.999 0 0 0 2.635-3.324 2.989 2.989 0 0 0-2.012-2.484l17.077-67.67c.333.068.679.101 1.035.06a3.305 3.305 0 0 0 2.903-3.664zm-80.413 146.028a2.727 2.727 0 0 0-.246-.696l14.297-10.969-14.051 11.665zm-101.163 44.13a4.32 4.32 0 0 0-4.279-3.698l-1.521-12.892a4.305 4.305 0 0 0 2.377-1.541l18.83 13.452a4.397 4.397 0 0 0-.761 2.95l-14.646 1.729zM23.178 265.477c.149.006.298.012.45-.006a2.832 2.832 0 0 0 1.966-1.16l22.836 14.774a1.621 1.621 0 0 0-.156.897c.049.425.261.789.562 1.047l-27.15 24.042-8.405 7.441a7.62 7.62 0 0 0-3.108-1.898l13.005-45.137zm41.641-253.99c-.011-.065-.027-.129-.042-.192l20.267-6.152c.442 1.835 2.178 3.102 4.102 2.878a3.763 3.763 0 0 0 2.699-1.666l4.472 2.518a2.499 2.499 0 0 0-.18.88l-31.318 1.734zm220.562 106.3c-.091.046-.176.1-.259.157l-22.854-11.532a2.395 2.395 0 0 0-3.131-2.51l-16.724-40.129c.165-.078.317-.17.462-.277l42.506 54.291zM101.133 9.477a2.515 2.515 0 0 0-1.317-1.895l4.356 1.252c-.018.156-.014.315-.011.475l-3.028.168zm-4.556-1.093l-4.454-2.507c.07-.146.131-.297.182-.453l6.525 1.875a2.48 2.48 0 0 0-.479.007 2.503 2.503 0 0 0-1.774 1.078zm39.025-.816l-24.327 1.347c-.003-.03.002-.06-.001-.09a3.576 3.576 0 1 0-6.998-.537L92.429 4.885c.021-.123.046-.244.055-.37l3.86.273 39.258 2.78zm75.097 389.401a2.883 2.883 0 0 0-2.355 1.828l-26.125-5.973c.038-.348.047-.701.004-1.062a4.751 4.751 0 0 0-.484-1.574l17.416-8.967 19.381-9.979a1.78 1.78 0 0 0 1.002.95l-1.092 3.582-6.506 21.326a2.922 2.922 0 0 0-1.241-.131zM92.246 417.507l18.55-31.243a1.998 1.998 0 0 0 1.53-.543l9.429 12.317 1.814 2.369a4.322 4.322 0 0 0-1.614 3.884c.045.386.154.744.291 1.089l-29.604 12.578a2.245 2.245 0 0 0-.396-.451zm-43.153-19.284l2.469-33.094c.106-.003.209.008.317-.005a3.716 3.716 0 0 0 3.102-4.856l26.468-7.848c.219.466.547.86.956 1.155l-31.876 45.261a3.458 3.458 0 0 0-1.436-.613zm95.039-190.842a1.37 1.37 0 0 0-.051-.234l35.959-6.335a4.133 4.133 0 0 0 1.317 2.156l-18.055 23.663-19.53 25.596a1.716 1.716 0 0 0-.625-.19l.112-24.626.085-18.615c.524-.251.858-.807.788-1.415zm44.11-112.222l-8.527-51.349c.271-.04.528-.108.775-.201l15.215 30.139a2.01 2.01 0 0 0-1.113 2.034c.073.634.438 1.158.941 1.472l-6.203 17.984a3.335 3.335 0 0 0-1.088-.079zm-3.674 100.528l4.07-93.771 8.17 69.266c-.228.1-.426.244-.59.421l-.072-.007.052.029c-.33.37-.511.868-.45 1.398.031.271.126.518.261.735l-2.829 6.042-7.57 16.161a4.114 4.114 0 0 0-1.042-.274zm97.946 81.211L266.83 213.2c.52-.358.835-.977.757-1.647a1.752 1.752 0 0 0-.485-1.013l14.853-11.808 2.239-1.781a3.33 3.33 0 0 0 2.265 1.409l-3.62 78.6c-.109-.022-.214-.05-.325-.062zM50.946 399.206l31.937-45.349c.488.229 1.04.338 1.616.271a2.99 2.99 0 0 0 2.573-2.337l14.379 1.322 8.04.738c-.003.134-.01.267.006.401.065.567.297 1.072.634 1.483l-58.78 43.967a3.638 3.638 0 0 0-.405-.496zm138.659-297.524l20.431 47.027a1.818 1.818 0 0 0-.199 2.551l-12.43 19.771h-.06l-8.168-69.256c.144-.026.292-.048.426-.093zM45.237 313.261l55.752-10.5 12.819-2.413c.033.163.084.317.154.463l-41.366 28.295-3.33 2.276a3.671 3.671 0 0 0-3.348-1.438 3.657 3.657 0 0 0-1.999.888l-19.537-14.688c.597-.81.912-1.816.855-2.883zM219.943 90.275l19.147 7.454a3.505 3.505 0 0 0-.284 1.816 3.523 3.523 0 0 0 1.807 2.683l-2.242 8.717-5.393 20.967c-.029.003-.059-.002-.088.001-.328.038-.629.14-.91.274l-2.476-7.656-10.754-33.279a2.154 2.154 0 0 0 1.193-.977zm37.566 16.178c.017.141.05.275.089.406l-23.089 25.336a2.896 2.896 0 0 0-.958-.279l5.131-19.948 2.446-9.515a3.5 3.5 0 0 0 1.601.198 3.53 3.53 0 0 0 2.933-2.379l12.17 4.696a2.355 2.355 0 0 0-.323 1.485zm-127.736 294.82c-.89-1.236-2.388-1.979-4.008-1.791a4.308 4.308 0 0 0-1.743.605l-11.341-14.812c.182-.309.279-.664.274-1.04l66.865-19.604c.177.48.416.928.711 1.331l-20.428 14.21-30.33 21.101zm-17.794-18.737l1.216-25.882a2.86 2.86 0 0 0 1.99-3.06 2.866 2.866 0 0 0-.104-.473l19.313-10.383 11.349-6.103c.33.479.737.892 1.212 1.22l-34.559 45.01a2.078 2.078 0 0 0-.417-.329zM95.296 276.688a3.186 3.186 0 0 0 1.841-.873l17.612 22.397c-.557.33-.933.916-.983 1.578l-55.843 10.519-12.75 2.401a4.47 4.47 0 0 0-.5-1.429l47.804-35.702a3.213 3.213 0 0 0 2.819 1.109zm114.074 48.93c.194-.022.381-.069.563-.123l10.037 43.253h-.011a1.763 1.763 0 0 0-1.063.529l-28.439-6.036a5.477 5.477 0 0 0-1.889-4.681l19.334-33.117a3.26 3.26 0 0 0 1.468.175zM70.005 333.18a3.671 3.671 0 0 0-.429-1.338l27.179-18.591 17.508-11.975c.113.128.245.234.386.329l-17.672 28.676-11.282 18.307a2.978 2.978 0 0 0-1.887-.421 2.977 2.977 0 0 0-1.483.614l-12.906-13.174a3.655 3.655 0 0 0 .586-2.427zm117.688-131.322l26.88 13.034a4.535 4.535 0 0 0-.656 2.902c.051.438.181.843.342 1.229l-21.229 12.828a5.862 5.862 0 0 0-5.166-2.584l-2.993-25.377a4.144 4.144 0 0 0 2.822-2.032zm72.27-78.56l-2.869 7.792-1.308 3.552a3.284 3.284 0 0 0-.952-.042 3.318 3.318 0 0 0-2.673 2.02l-.597-.064-15.432-1.666c.004-.138.01-.275-.006-.416a2.895 2.895 0 0 0-.314-1.001l23.273-11.442c.147.521.461.96.878 1.267zM144.693 253.57c-.005-.047-.021-.092-.031-.139l38.182-15.83a5.882 5.882 0 0 0 3.715 3.166l-.248.992-5.373 21.547a1.94 1.94 0 0 0-.674-.045 1.94 1.94 0 0 0-1.162.575l-34.437-9.739c.033-.167.049-.344.028-.527zm111.801-75.385c.002.098-.008.193.004.292a3.156 3.156 0 0 0 3.443 2.776l5.594 28.778c-.17.03-.33.083-.477.156l-65.738-37.362c0-.071.005-.142-.004-.215-.008-.067-.027-.13-.043-.195l57.221 5.77zm-113.202 77.297l.101-.022 9.908 18.546 12.364 23.145a2.977 2.977 0 0 0-1.478 2.926c.088.765.467 1.42 1.004 1.89l-13.198 27.86a4.716 4.716 0 0 0-1.737-.577l-6.81-72.131-.154-1.637zm38.166 8.032l5.64-22.617a5.852 5.852 0 0 0 5.582-2.03l5.823 4.567 18.25 14.318a3.705 3.705 0 0 0-.839 2.473l-33.751 3.979a1.95 1.95 0 0 0-.705-.69zm65.417-12.328l-23.794 7.58a3.715 3.715 0 0 0-2.829-2.303l-.066-2.202-.979-32.493a4.534 4.534 0 0 0 2.549-1.349l26.064 29.558a1.71 1.71 0 0 0-.945 1.209zm-30.907 9.589a3.71 3.71 0 0 0 .604 1.461l-28.875 21.149-18.936 13.867a2.905 2.905 0 0 0-.705-.346l12.121-29.786c.174.027.352.042.534.02a1.95 1.95 0 0 0 1.715-2.164c-.01-.084-.032-.162-.053-.24l19.372-2.285 14.223-1.676zm-1.48-41.24a4.57 4.57 0 0 0 4.164 2.285l.492 16.266.551 18.325c-.166-.003-.332-.013-.502.008-.795.093-1.5.435-2.055.933l-24.127-18.929a5.842 5.842 0 0 0 .306-6.098l4.813-2.908 16.358-9.882zM154.383 333.41a4.739 4.739 0 0 0-1.921-3.28l13.188-27.836c.537.313 1.17.472 1.834.396.091-.012.174-.039.262-.059l16.309 54.673a5.47 5.47 0 0 0-2.66 1.241l-27.565-22.314a4.75 4.75 0 0 0 .553-2.821zm33.742 24.807a5.494 5.494 0 0 0-3.512-.979l-16.338-54.77a2.968 2.968 0 0 0 1.603-1.604l36.269 19.86a3.267 3.267 0 0 0-.42 2.005 3.272 3.272 0 0 0 1.666 2.482l-14.324 24.535-4.944 8.471zm21.576-39.06a3.281 3.281 0 0 0-1.087-.069 3.275 3.275 0 0 0-2.155 1.179l-9.464-5.183-26.95-14.759c.062-.302.09-.612.053-.936a2.94 2.94 0 0 0-.887-1.776l47.708-34.942a3.72 3.72 0 0 0 2.233 1.14l-6.649 38.946-2.802 16.4zm-30.952-54.843a1.947 1.947 0 0 0 .898 2.645l-12.139 29.828a2.993 2.993 0 0 0-.709-.011 2.822 2.822 0 0 0-.627.146l-22.27-41.688c.24-.155.438-.364.577-.612l34.27 9.692zm79.407-88.985l-8.641-13.847-15.013-24.059a2.912 2.912 0 0 0 1.562-1.982l15.918 1.719a3.306 3.306 0 0 0-.075 1.136c.198 1.724 1.685 2.97 3.386 2.931l3.714 33.807c-.302.06-.589.155-.851.295zm-115.855 80.062c.139.055.284.096.437.115l6.958 73.714c-.197-.002-.391-.015-.591.009a4.723 4.723 0 0 0-2.097.797l-29.362-29.36c.114-.294.168-.616.129-.951a2.003 2.003 0 0 0-.604-1.208l20.71-35.529 4.42-7.587zm97.183 35.24c-.41.049-.789.178-1.143.346l-16.257-28.059a3.723 3.723 0 0 0 1.242-3.225c-.017-.137-.058-.264-.087-.396l23.615-7.523a1.716 1.716 0 0 0 1.301 1.424l-7.795 37.451a3.411 3.411 0 0 0-.876-.018zm8.931-40.817l-15.853-17.976L222.124 220a4.561 4.561 0 0 0 .89-3.262c-.014-.115-.052-.22-.074-.331l41.156-4.854a1.644 1.644 0 0 0-.004.403c.059.506.33.933.71 1.212l-15.764 36.703c-.196-.057-.407-.074-.623-.057zM233.562 137.71c.143-.017.275-.054.41-.09l22.685 36.353 1.036 1.662a3.13 3.13 0 0 0-.684.75l-44.148-25.529a1.79 1.79 0 0 0 .166-.979 1.805 1.805 0 0 0-.282-.769l18.022-12.743a2.914 2.914 0 0 0 2.795 1.345zm-120.087 213.6l2.66-45.756.214-3.683a2.003 2.003 0 0 0 1.019-.7l9.554 9.554 19.626 19.625a4.753 4.753 0 0 0-1.625 4.157 4.72 4.72 0 0 0 .525 1.661l-30.576 16.438a2.853 2.853 0 0 0-1.397-1.296zm106.235-87.478c.115-.003.228.008.343-.005a3.696 3.696 0 0 0 1.583-.581l16.228 28.01a3.605 3.605 0 0 0-1.553 3.383c.08.688.358 1.303.758 1.812l-25.704 23.646a3.274 3.274 0 0 0-1.13-.77l9.475-55.495zm-9.442-112.212c.336.209.738.318 1.164.269a1.8 1.8 0 0 0 1.116-.575l12.933 7.479 31.266 18.08a3.121 3.121 0 0 0-.219.759l-8.223-.829-49.279-4.97a1.788 1.788 0 0 0-1-.742l7.527-11.974 4.715-7.497zm-11.663 22.628c.283-.213.498-.504.617-.841l65.35 37.14a1.739 1.739 0 0 0-.307.43l-41.443 4.888a4.578 4.578 0 0 0-4.883-3.146 4.484 4.484 0 0 0-.672.147l-5.168-10.698-13.494-27.92zM87.141 351.242c.005-.146.011-.291-.006-.439a2.975 2.975 0 0 0-.992-1.886l23.776-38.579 5.229-8.481c.203.065.419.096.642.094l-2.86 49.188a2.868 2.868 0 0 0-.919-.056 2.856 2.856 0 0 0-2.453 2.222l-9.512-.874-12.905-1.189zm63.061-12.554c1.398-.161 2.57-.925 3.324-1.989l27.464 22.232a5.491 5.491 0 0 0-1.48 4.428c.03.256.083.504.145.747l-66.777 19.575a1.998 1.998 0 0 0-.141-.345l34.687-45.176a4.734 4.734 0 0 0 2.778.528zm130.316-157.183a4.758 4.758 0 0 0 1.769 3.188l-15.976 25.368c-.069-.019-.141-.029-.213-.04l-5.611-28.877a3.145 3.145 0 0 0 2.228-2.373l17.826 1.566c-.051.381-.07.77-.023 1.168zm-138.693 73.6l-25.101 43.064a2.005 2.005 0 0 0-1.183-.228c-.088.01-.171.034-.255.056l-17.775-22.605a3.205 3.205 0 0 0 .614-2.276 3.211 3.211 0 0 0-.199-.771l43.569-17.617c.092.143.202.27.33.377zm99.081 35.645l7.808-37.512c.015-.002.027.001.041 0a1.708 1.708 0 0 0 1.375-1.028l29.896 25.574a3.106 3.106 0 0 0-.922 2.577c.021.187.065.363.117.537l-36 11.932a3.609 3.609 0 0 0-2.315-2.08zm40.94-13.85a3.118 3.118 0 0 0-1.383.526L250.271 251.6c.004-.09.006-.18-.004-.271-.06-.51-.34-.938-.73-1.209l15.759-36.694c.233.077.486.109.746.079a1.63 1.63 0 0 0 .276-.061l15.625 63.458c-.033 0-.065-.006-.097-.002zm1.768-81.452c.042.364.155.7.302 1.016l-16.798 13.355 2.198-3.491 13.432-21.33a4.73 4.73 0 0 0 2.859.718l.718 6.075a3.333 3.333 0 0 0-2.711 3.657zm-24.057-20.478l-3.713-33.801c1.696-.326 2.887-1.897 2.684-3.641a3.292 3.292 0 0 0-.631-1.576l26.398-15.162c.186.431.489.788.873 1.038l-24.434 53.335a3.127 3.127 0 0 0-1.177-.193zm-41.36-83.623l13.295 41.132a2.904 2.904 0 0 0-1.164 2.667c.029.253.1.489.188.715l-11.75 8.308-6.39 4.517a1.803 1.803 0 0 0-.976-.408l6.402-56.943c.13.018.26.019.395.012zm-21.79 82.868a1.792 1.792 0 0 0 1.71.298l10.207 21.121 8.415 17.414a4.555 4.555 0 0 0-1.862 1.376l-1.309-.635-25.643-12.434a4.12 4.12 0 0 0 .286-2.018 4.155 4.155 0 0 0-2.101-3.143l6.369-13.597 3.928-8.382zm-12.084 29.749l2.989 25.356a5.867 5.867 0 0 0-4.982 6.479c.052.45.158.88.304 1.289l-32.241 13.367-5.917 2.453a1.731 1.731 0 0 0-.264-.343l37.591-49.271a4.118 4.118 0 0 0 2.52.67zm-54.245 197.773l50.804-35.344a5.51 5.51 0 0 0 3.155 1.749l-5.544 19.522a4.748 4.748 0 0 0-1.562-.098 4.776 4.776 0 0 0-4.193 5.292l.002.006-42.302 9.801a4.39 4.39 0 0 0-.36-.928zm80.375-76.453a3.28 3.28 0 0 0 1.804-3.311 3.25 3.25 0 0 0-.547-1.444l8.44-7.766 17.298-15.91a3.6 3.6 0 0 0 1.293.779l-18.204 71.104-10.084-43.452zm73.658-205.142c.004.036.017.067.021.103l-26.609 15.283a3.343 3.343 0 0 0-1.199-.746l4.128-11.209c.368.155.774.23 1.2.181a2.39 2.39 0 0 0 2.1-2.65c-.012-.107-.042-.208-.068-.31l20.449-1.284a2.374 2.374 0 0 0-.022.632zm-23.352-1.063a2.378 2.378 0 0 0-1.76 2.378l-23.491 11.549a2.843 2.843 0 0 0-.52-.514l22.854-25.078a2.39 2.39 0 0 0 1.674 1.119l1.243 10.546zM66.768 337.267a3.649 3.649 0 0 0 2.312-1.213l12.84 13.106a2.985 2.985 0 0 0-.749 2.334c.016.14.054.271.088.403l-26.505 7.858a3.707 3.707 0 0 0-1.355-1.47l11.721-21.219c.514.184 1.07.268 1.648.201zm114.691 52.441a4.765 4.765 0 0 0-2.434-1.897l5.567-19.601a5.503 5.503 0 0 0 5.782-4.42l28.174 5.979a1.789 1.789 0 0 0-.162.925l-36.53 18.809-.397.205zM91.74 273.926c.06.438.204.842.417 1.2l-20.432 15.261-27.371 20.441a4.45 4.45 0 0 0-1.977-1.487l7.923-27.975a1.622 1.622 0 0 0 1.18-1.229l38.341-5.914 1.919-.297zm91.205-234.105l24.703.385a5.872 5.872 0 0 0 3.162 5.152l-12.016 24.531-1.809 3.691a1.967 1.967 0 0 0-.62-.034c-.043.005-.083.02-.125.027l-15.242-30.188a3.793 3.793 0 0 0 1.947-3.564zm13.884 37.733a2.015 2.015 0 0 0 1.563-1.086l17.697 11.868a2.146 2.146 0 0 0-.171 1.104 2.162 2.162 0 0 0 1.345 1.752l-6.422 57.126a1.695 1.695 0 0 0-.326.103l-20.404-46.961a3.35 3.35 0 0 0 1.785-3.354 3.343 3.343 0 0 0-2.041-2.694l6.184-17.924c.249.072.516.097.79.066zm43.614-13.594l1.043 31.756a3.511 3.511 0 0 0-2.131 1.521l-8.623-3.357-10.569-4.115a2.162 2.162 0 0 0-.746-2.277l19.422-24.675c.386.557.948.969 1.604 1.147zm-24.077 23.895L198.57 75.921a1.96 1.96 0 0 0 .029-.604 2.01 2.01 0 0 0-1.084-1.562l8.162-16.663 5.635-11.502a5.827 5.827 0 0 0 2.631.411l3.389 41.157a2.16 2.16 0 0 0-.966.697zM41.307 317.941a4.441 4.441 0 0 0 2.714-1.378l19.512 14.67a3.664 3.664 0 0 0-.852 2.796c.057.494.212.951.439 1.359l-44.259 27.863a3.53 3.53 0 0 0-.798-.98l21.219-44.581a4.417 4.417 0 0 0 2.025.251zm10.314 82.253l34.814-26.04 24.091-18.021c.57.468 1.318.717 2.108.636l-1.158 24.65-.042.89a2.01 2.01 0 0 0-.712-.051 2.012 2.012 0 0 0-1.768 2.23c.012.102.039.198.064.294L51.86 400.936a3.46 3.46 0 0 0-.239-.742zm238.358-92.893l-46.541-12.422a3.59 3.59 0 0 0 .054-1.074c-.019-.152-.062-.295-.097-.438l36.035-11.953a3.109 3.109 0 0 0 3.133 1.688 3.07 3.07 0 0 0 1.088-.344l7.904 23.004a2.994 2.994 0 0 0-1.576 1.539zm-2.006-115.407a3.302 3.302 0 0 0-1.096-.156l-.719-6.097c2.449-.461 4.169-2.726 3.878-5.24a4.762 4.762 0 0 0-1.272-2.713l12.834-11.612c.073.064.152.121.234.175l-13.288 24.585-.571 1.058zm-2.877-15.706c-.125.005-.246-.009-.371.005a4.781 4.781 0 0 0-4.082 3.597l-17.859-1.569c.005-.156.011-.312-.008-.473a3.137 3.137 0 0 0-1.541-2.349l24.43-53.325c.229.081.47.125.721.131l-.721 30.182-.569 23.801zm-.799-57.244l-20.814 1.307a2.38 2.38 0 0 0-2.174-1.251l-1.231-10.443c.028-.002.057.002.086-.001a2.391 2.391 0 0 0 1.976-1.588l22.537 11.372c-.157.18-.284.383-.38.604zm-26.113-14.433l-2.381-.918-10.011-3.863c.056-.324.082-.656.042-1a3.532 3.532 0 0 0-3.796-3.109l-1.036-31.569c.169.011.341.012.516-.008.129-.015.25-.051.373-.082l16.746 40.181a2.273 2.273 0 0 0-.453.368zm-98.62-80.337l-8.15-2.342a2.787 2.787 0 0 0-.007-.508 2.804 2.804 0 0 0-4.175-2.111l-4.671-7.852c.307-.166.587-.368.842-.6l16.195 13.335c-.013.026-.02.053-.034.078zM141.356 253.07c-.122.275-.18.582-.143.904.01.086.033.166.055.248l-43.579 17.62a3.22 3.22 0 0 0-1.977-1.47l1.487-46.025c.245.006.488.019.738-.011a5.216 5.216 0 0 0 3.49-1.938l19.722 15.148 20.207 15.524zM19.268 364.517a3.565 3.565 0 0 0-.18-.751l44.347-27.918c.319.413.714.759 1.172 1.004l-11.699 21.181a3.675 3.675 0 0 0-1.884-.29 3.713 3.713 0 0 0-3.274 3.415l-28.482 3.359zm132.395 53.46a4.411 4.411 0 0 0-2.798 1.477l-18.867-13.481a4.3 4.3 0 0 0 .576-2.678c-.003-.029-.015-.057-.019-.086l42.302-9.801c.216.911.68 1.703 1.318 2.319L155.14 419.11c-.914-.829-2.155-1.288-3.477-1.133zm79.752-39.611a2.495 2.495 0 0 0-.577.139l-8.904-7.74a1.77 1.77 0 0 0 .01-.443 1.872 1.872 0 0 0-.125-.463l34.097-8.843v.021c.041.354.153.683.308.981l-22.496 17.261a2.638 2.638 0 0 0-2.313-.913zM150.094 24.024a2.803 2.803 0 0 0 1.23-1.645l8.064 2.317a2.433 2.433 0 0 0-.051.802 2.421 2.421 0 0 0 2.686 2.127 2.392 2.392 0 0 0 1.229-.519l12.901 10.624a3.786 3.786 0 0 0-.771 2.763c.002.02.01.037.012.056l-9.658 3.987a2.765 2.765 0 0 0-2.689-1.329 2.74 2.74 0 0 0-1.252.485l-6.122-10.291-5.579-9.377zm-56.93 246.783a3.201 3.201 0 0 0-1.446 2.562l-40.214 6.204a1.624 1.624 0 0 0-.52-.978l9.493-43.965c.252.023.51.025.772-.005a3.616 3.616 0 0 0 2.136-1.041l1.224 1.529 28.555 35.694zm-43.821 10.515c.118.043.24.074.367.089l-7.862 27.761a4.392 4.392 0 0 0-1.57-.111 4.47 4.47 0 0 0-3.926 4.955c.001.016.007.027.009.042l-16.377 1.933-4.623.545a7.568 7.568 0 0 0-1.699-3.616l16.084-14.243 19.597-17.355zm171.785 87.705a1.36 1.36 0 0 0-.079-.053l3.244-12.671 14.987-58.539c.336.061.681.089 1.038.048a3.605 3.605 0 0 0 2.981-2.396l7.306 1.949 39.195 10.463c-.078.33-.111.677-.07 1.033.054.467.222.891.459 1.262l-49.14 41.912-19.921 16.992zm63.008-91.476a3.124 3.124 0 0 0-.75-.423l1.183-25.674 2.443-53.065c.104-.002.204.008.309-.004a3.324 3.324 0 0 0 1.406-.512l21.123 34.009a3.302 3.302 0 0 0-1.724 3.291 3.28 3.28 0 0 0 1.042 2.03l-5.1 8.22-19.932 32.128zM207.668 39.652l-3.581-.056-21.222-.331c-.404-1.897-2.176-3.219-4.143-2.992a3.77 3.77 0 0 0-2.19 1.05l-8.78-7.229-4.105-3.38c.162-.205.281-.439.371-.688l43.834 12.593c-.088.335-.154.68-.184 1.033zm-66.652-27.798a4.215 4.215 0 0 0 1.034-.268l4.729 7.951a2.838 2.838 0 0 0-.624.784l-35.01-10.059c.077-.255.12-.523.138-.797l24.967-1.378a4.301 4.301 0 0 0 4.766 3.767zm72.106 385.999a2.855 2.855 0 0 0-.671-.523l7.631-25.021c.096.005.191.008.29-.005a1.781 1.781 0 0 0 1.384-.958l2.748 2.39 5.798 5.04a2.618 2.618 0 0 0-.554 3.95l-7.421 6.754-9.205 8.373zm87.756-233.128c.041.349.171.662.354.934l-12.871 11.645a4.764 4.764 0 0 0-2.711-1.124l1.289-54.029a2.34 2.34 0 0 0 .559-.194l14.825 40.506a2.124 2.124 0 0 0-1.445 2.262zM92.993 418.898a2.136 2.136 0 0 0-.101-.445l29.578-12.566a4.339 4.339 0 0 0 4.294 2.215l.012-.003 1.509 12.79a4.325 4.325 0 0 0-3.678 3.399l-31.614-5.328c-.001-.021.002-.041 0-.062zm217.368-187.244l-11.936-19.215-9.255-14.901a3.335 3.335 0 0 0 1.084-2.859 3.335 3.335 0 0 0-1.766-2.572l13.841-25.611c.283.093.587.132.902.096l.024-.005 7.659 64.945a3.325 3.325 0 0 0-.553.122zM238.35 61.534c.031.266.108.512.205.748l-5.834 7.414-13.785 17.513a2.15 2.15 0 0 0-1.057-.174l-3.383-41.099a5.856 5.856 0 0 0 3.699-2.224l20.855 15.613a2.84 2.84 0 0 0-.7 2.209zm-30.329-23.438L164.146 25.49c.021-.18.024-.363.004-.55a2.42 2.42 0 0 0-2.686-2.127 2.41 2.41 0 0 0-1.549.828l-16.128-13.28c.16-.188.299-.391.425-.604l63.902 28.101a8.401 8.401 0 0 0-.093.238zM101.15 10.025l3.062-.169a3.568 3.568 0 0 0 3.92 2.934 3.567 3.567 0 0 0 2.807-2.013l35.002 10.056a2.804 2.804 0 0 0 3.004 3.599c.229-.026.443-.087.649-.164l11.773 19.79c-.164.172-.311.36-.424.568l-60.014-33.792c.114-.253.196-.523.221-.809zm64.968 35.616a2.67 2.67 0 0 0-.146-.603l9.543-3.939a3.783 3.783 0 0 0 3.642 2.743l8.54 51.423a3.373 3.373 0 0 0-.383.128l-22.926-46.871a2.762 2.762 0 0 0 1.73-2.881zm17.896 150.026c-.065.001-.132-.001-.199.003l-4.1-29.451a3.198 3.198 0 0 0 2.575-3.503 3.2 3.2 0 0 0-2.733-2.794l8.448-56.237-3.991 91.982zm-4.849-29.39l4.103 29.467c-2.104.416-3.576 2.36-3.341 4.524l-36.122 6.364-.025-.024 33.096-41.236a3.177 3.177 0 0 0 2.289.905zm-37.791 41.485c.111.694.72 1.189 1.417 1.167l-.197 43.139a1.734 1.734 0 0 0-.934.535l-31.129-23.91-8.798-6.76c.624-.979.948-2.158.804-3.4a5.254 5.254 0 0 0-.187-.854l39.024-9.917zm-44.728 16.547l-1.485 45.971a3.154 3.154 0 0 0-.606.009 3.191 3.191 0 0 0-.892.252l-29.905-37.376c.531-.719.81-1.627.699-2.585a3.626 3.626 0 0 0-.263-.959l28.122-9.06a5.213 5.213 0 0 0 4.33 3.748zm-36.715 10.218l-.56 2.593-8.889 41.166a1.573 1.573 0 0 0-.777-.106 1.603 1.603 0 0 0-.948.459l-22.883-14.807c.212-.458.313-.975.25-1.514a2.827 2.827 0 0 0-.334-1.039l32.25-27.926a3.639 3.639 0 0 0 1.891 1.174zm-44.488 82.556l21.038-2.48a4.46 4.46 0 0 0 2.286 2.882L26.78 342.67l-9.172 19.271a3.49 3.49 0 0 0-1.604-.534l-6.51-36.119a7.599 7.599 0 0 0 5.949-8.205zm3.838 47.99l28.476-3.358c.004.049-.003.096.002.146a3.712 3.712 0 0 0 3.248 3.253l-2.017 27.04-.449 6.014c-.157-.004-.312-.012-.472.007a3.448 3.448 0 0 0-1.904.856l-27.642-31.864a3.548 3.548 0 0 0 .758-2.094zm32.647 36.42l57.308-16.195c.231.381.583.669.996.829l-18.448 31.074a2.15 2.15 0 0 0-1.193-.207 2.157 2.157 0 0 0-1.478.852l-37.498-14.758a3.467 3.467 0 0 0 .313-1.595zm103.614 18.002l19.047-23.396a4.735 4.735 0 0 0 3.44.953c2.064-.237 3.648-1.767 4.087-3.684l26.075 5.961a2.96 2.96 0 0 0-.041.854c.021.182.062.354.115.521L156.32 420.84a4.405 4.405 0 0 0-.778-1.345zm74.617-36.399c.169.125.354.226.551.308l-10.108 8.393 9.557-8.701zm28.275-25.237a2.863 2.863 0 0 0-2.524 2.586l-34.287 8.892 64.06-54.641 4.848-4.136c.084.09.17.177.265.255l-30.546 47.451a2.854 2.854 0 0 0-1.816-.407zm33.93-52.322c-.097.011-.187.041-.279.061l-5.655-16.457-2.3-6.695a3.11 3.11 0 0 0 1.175-2.803 3.101 3.101 0 0 0-.759-1.699l25.062-40.397c.193.127.398.231.615.317l-17.084 67.697a2.86 2.86 0 0 0-.775-.024z"/></svg>