<svg xmlns="http://www.w3.org/2000/svg" width="315" height="430" viewBox="0 0 315 430"><path fill="#4D4D4D" d="M314.666 111.266a7.603 7.603 0 0 0-8.428-6.676c-.062.007-.123.022-.187.031l-6.497-36.035c.039-.003.077.002.116-.002a3.559 3.559 0 0 0-.819-7.069 3.53 3.53 0 0 0-1.988.918L269.22 30.569a3.473 3.473 0 0 0-3.089-5.651 3.457 3.457 0 0 0-2.464 1.51L226.16 11.667c.134-.328.199-.688.154-1.064a2.16 2.16 0 1 0-4.278-.12L190.49 5.167a4.34 4.34 0 0 0-4.826-4.669c-2.233.259-3.853 2.175-3.819 4.378l-14.721 1.736c-.506-2.167-2.547-3.667-4.812-3.404a4.436 4.436 0 0 0-3.896 4.918c.021.172.069.333.108.498l-52.006 20.159a2.897 2.897 0 0 0-5.436 1.7c.048.415.185.796.383 1.134L83.644 46.418a2.64 2.64 0 0 0-.666-.017 2.628 2.628 0 0 0-2.319 2.496L58.382 67.395a2.86 2.86 0 0 0-2.476-.952 2.87 2.87 0 0 0-2.519 3.18 2.84 2.84 0 0 0 .921 1.776L23.75 118.87a2.983 2.983 0 0 0-1.805-.367 3 3 0 0 0-2.635 3.326 2.99 2.99 0 0 0 2.011 2.483l-17.077 67.67a3.271 3.271 0 0 0-1.035-.058 3.306 3.306 0 0 0-2.904 3.665 3.297 3.297 0 0 0 3.225 2.912l7.675 65.063a2.117 2.117 0 0 0-1.303 2.199 2.118 2.118 0 0 0 2.22 1.866l14.905 40.722a2.348 2.348 0 0 0 1.803 4.107c.082-.01.158-.034.237-.052l42.649 54.464a2.84 2.84 0 0 0-.743 2.254 2.859 2.859 0 0 0 4.253 2.155l.014.018-.009-.021c.109-.062.207-.141.306-.216l20.953 15.685a5.847 5.847 0 0 0-.856 3.788 5.88 5.88 0 0 0 6.517 5.163 5.865 5.865 0 0 0 4.494-3.053l63.895 28.099a4.256 4.256 0 0 0-.333 2.173 4.3 4.3 0 0 0 4.768 3.776 4.29 4.29 0 0 0 3.762-3.749l43.789 3.101c.004.046-.002.091.002.138a3.786 3.786 0 0 0 4.199 3.326 3.783 3.783 0 0 0 3.33-4.1l20.344-6.176a3.09 3.09 0 0 0 3.179 1.834 3.1 3.1 0 0 0-.713-6.16 3.09 3.09 0 0 0-2.729 3.055l-31.322 1.734a2.512 2.512 0 0 0-2.746-2.002 2.511 2.511 0 0 0-1.719.992l-60.072-33.824a2.76 2.76 0 0 0 .109-1.14 2.772 2.772 0 0 0-3.071-2.434c-.056.007-.107.025-.162.035l-22.97-46.96a3.348 3.348 0 0 0 1.587-3.243 3.348 3.348 0 0 0-2.509-2.856L136 270.104c.089-.002.176.008.267-.004a3.207 3.207 0 0 0 2.817-3.556 3.166 3.166 0 0 0-.591-1.491l33.176-41.335c.226.105.479.155.746.125a1.391 1.391 0 0 0 1.185-1.026l39.241-9.979c.866 2.118 3.042 3.503 5.429 3.227a5.235 5.235 0 0 0 4.599-5.803c-.011-.097-.045-.184-.062-.278l28.248-9.098a3.643 3.643 0 0 0 3.539 1.744 3.651 3.651 0 0 0 3.207-4.048 3.606 3.606 0 0 0-.518-1.477l32.244-27.921a2.84 2.84 0 0 0 4.998-2.154 2.832 2.832 0 0 0-2.147-2.425l12.985-45.072a7.577 7.577 0 0 0 2.629.162 7.608 7.608 0 0 0 6.674-8.429zm-22.844 53.257a2.823 2.823 0 0 0-.45.007 2.826 2.826 0 0 0-1.966 1.159l-22.836-14.775c.131-.27.193-.578.156-.898a1.628 1.628 0 0 0-.562-1.046l35.555-31.484a7.62 7.62 0 0 0 3.108 1.9l-13.005 45.137zM127.686 334.607l22.925 46.869a2.764 2.764 0 0 0-1.729 2.883c.024.211.077.409.144.603l-9.542 3.939a3.785 3.785 0 0 0-3.642-2.743l-8.54-51.423c.133-.035.259-.078.384-.128zm122.494 83.906c.012.065.027.129.043.192l-20.268 6.152c-.441-1.836-2.178-3.104-4.102-2.881a3.768 3.768 0 0 0-2.699 1.667l-4.471-2.518c.11-.275.172-.57.18-.88l31.317-1.732zm-220.561-106.3c.091-.047.176-.1.259-.157l22.854 11.531c-.016.167-.018.338.002.512a2.397 2.397 0 0 0 3.13 2l16.723 40.13a2.785 2.785 0 0 0-.462.277l-42.506-54.293zm51.1-262.65c.052.247.131.482.246.696L66.668 61.228l14.051-11.665zM181.88 5.431a4.32 4.32 0 0 0 4.28 3.698l1.521 12.892a4.301 4.301 0 0 0-2.377 1.543l-18.83-13.455a4.399 4.399 0 0 0 .762-2.951l14.644-1.727zm42.53 7.574a2.158 2.158 0 0 0 1.479-.852l37.498 14.759a3.422 3.422 0 0 0-.314 1.594L205.764 44.7a2.006 2.006 0 0 0-.996-.829l18.449-31.074c.359.176.767.258 1.193.208zm42.522 18.822a3.453 3.453 0 0 0 1.904-.857l27.643 31.864a3.547 3.547 0 0 0-.76 2.093l-28.477 3.359c-.003-.049.004-.097-.002-.146a3.71 3.71 0 0 0-3.248-3.253l2.467-33.053c.157.003.312.011.473-.007zm-13.181 163.547a3.619 3.619 0 0 0-2.135 1.041l-29.78-37.221a3.205 3.205 0 0 0 1.447-2.562l40.213-6.204c.055.392.247.729.52.978l-9.492 43.964a3.635 3.635 0 0 0-.773.004zm-36.689 10.289a5.213 5.213 0 0 0-3.49 1.938l-39.928-30.671c.121-.276.18-.583.143-.904-.01-.086-.033-.167-.055-.249l43.578-17.62a3.222 3.222 0 0 0 1.978 1.47l-1.487 46.025c-.244-.006-.489-.018-.739.011zm-46.194 16.955c.009.082.028.159.052.235l-35.959 6.334a4.134 4.134 0 0 0-1.317-2.155l37.583-49.259c.191.102.403.167.625.192l-.197 43.241a1.388 1.388 0 0 0-.787 1.412zM135.285 386.19a3.613 3.613 0 0 0-.775.199l-15.216-30.139a2.011 2.011 0 0 0 1.113-2.034 2.006 2.006 0 0 0-.941-1.473l6.203-17.983c.349.082.713.116 1.089.08l8.527 51.35zm16.668.603a2.74 2.74 0 0 0 1.252-.485l11.701 19.668a2.794 2.794 0 0 0-1.229 1.645l-8.065-2.317c.057-.257.083-.523.051-.801a2.423 2.423 0 0 0-2.685-2.127 2.4 2.4 0 0 0-1.23.52l-12.902-10.623c.586-.76.891-1.735.772-2.764-.002-.02-.01-.036-.012-.056l9.658-3.987a2.766 2.766 0 0 0 2.689 1.327zm61.913 33.73c.11.837.62 1.524 1.317 1.895l-4.357-1.252c.018-.155.015-.314.011-.475l3.029-.168zm8.829 4.053l-6.525-1.875c.157.012.316.012.479-.007a2.5 2.5 0 0 0 1.774-1.079l4.454 2.508c-.07.147-.132.298-.182.453zm-43.946-2.664a4.302 4.302 0 0 0-4.765-3.768 4.265 4.265 0 0 0-1.033.269l-4.729-7.95c.254-.222.463-.488.623-.784l35.01 10.061c-.076.254-.121.52-.138.791l-24.968 1.381zm-77.693-37.914l-3.388-41.156a2.16 2.16 0 0 0 .966-.697l17.797 11.935a1.991 1.991 0 0 0-.031.604 2.014 2.014 0 0 0 1.083 1.562l-13.795 28.165a5.82 5.82 0 0 0-2.632-.413zm-26.5-17.958l-1.043-31.758a3.504 3.504 0 0 0 2.131-1.521l19.193 7.473a2.158 2.158 0 0 0 .744 2.275l-19.422 24.676a2.863 2.863 0 0 0-1.603-1.145zM28.06 307.849a2.333 2.333 0 0 0-.558.194l-14.825-40.506a2.127 2.127 0 0 0 1.445-2.264 2.095 2.095 0 0 0-.354-.934l12.87-11.645a4.766 4.766 0 0 0 2.712 1.123l-1.29 54.032zM6.875 194.829a3.28 3.28 0 0 0-1.042-2.03l25.031-40.35c.226.178.482.313.75.423l-3.626 78.739c-.103.003-.203-.008-.307.005a3.324 3.324 0 0 0-1.406.512l-21.123-34.01a3.3 3.3 0 0 0 1.723-3.289zm95.003-162.681c.198.206.422.384.671.524l-7.631 25.02a1.863 1.863 0 0 0-.289.004 1.788 1.788 0 0 0-1.385.958l-8.545-7.429a2.627 2.627 0 0 0 1.199-2.512 2.612 2.612 0 0 0-.644-1.438l16.624-15.127zm2.423.883a2.886 2.886 0 0 0 2.355-1.829l26.125 5.974a4.77 4.77 0 0 0-.003 1.062 4.74 4.74 0 0 0 .485 1.573L96.465 58.757a1.782 1.782 0 0 0-1.002-.951l7.598-24.909c.388.129.807.185 1.24.134zm59.036-21.007a4.402 4.402 0 0 0 2.798-1.477l18.867 13.481a4.305 4.305 0 0 0-.576 2.679c.004.029.016.056.02.084l-42.302 9.801a4.732 4.732 0 0 0-1.319-2.32L159.86 10.89a4.403 4.403 0 0 0 3.477 1.134zm100.718 18.769l-31.938 45.348a2.975 2.975 0 0 0-1.615-.271 2.992 2.992 0 0 0-2.574 2.338l-22.418-2.062c.003-.133.011-.266-.006-.401a2.838 2.838 0 0 0-.634-1.483l58.779-43.968c.121.18.255.347.406.499zm31.677 34.691c.031.262.096.511.18.75l-44.348 27.918a3.658 3.658 0 0 0-1.172-1.003l11.699-21.179a3.679 3.679 0 0 0 1.885.29 3.711 3.711 0 0 0 3.273-3.416l28.483-3.36zm1.206 2.245l-21.22 44.582a4.409 4.409 0 0 0-2.024-.251 4.42 4.42 0 0 0-2.713 1.378l-19.512-14.67a3.67 3.67 0 0 0 .852-2.796 3.68 3.68 0 0 0-.439-1.361l44.26-27.863c.202.376.476.704.796.981zM264.7 148.633a1.619 1.619 0 0 0-1.179 1.23l-40.26 6.211a3.23 3.23 0 0 0-.418-1.2l47.805-35.702a4.457 4.457 0 0 0 1.977 1.486l-7.925 27.975zm-44.996 4.679a3.19 3.19 0 0 0-1.841.874l-17.612-22.399c.558-.33.935-.915.983-1.577l68.594-12.919c.092.512.253.997.5 1.428l-47.805 35.702a3.211 3.211 0 0 0-2.819-1.109zm-47.442 21.182l-6.957-73.714c.195.002.391.015.59-.009a4.726 4.726 0 0 0 2.099-.795l29.362 29.361a1.983 1.983 0 0 0-.129.951c.056.48.281.896.604 1.208l-25.132 43.115a1.66 1.66 0 0 0-.437-.117zm-41.585 51.543l-2.99-25.357a5.868 5.868 0 0 0 4.983-6.478 5.869 5.869 0 0 0-.304-1.289l38.157-15.821c.072.127.164.239.265.343l-37.591 49.27a4.119 4.119 0 0 0-2.52-.668zm-7.573 105.857a3.341 3.341 0 0 0 2.04 2.694l-6.183 17.924a2.01 2.01 0 0 0-2.351 1.021l-17.698-11.869c.146-.337.216-.712.17-1.104a2.16 2.16 0 0 0-1.344-1.751l6.423-57.127c.113-.024.221-.059.325-.103l20.403 46.961a3.347 3.347 0 0 0-1.785 3.354zm-26.301 6.759L83.508 297.52a2.905 2.905 0 0 0 1.164-2.666c-.029-.254-.1-.49-.188-.718l18.141-12.823c.273.227.609.371.975.408l-6.402 56.943a2.164 2.164 0 0 0-.395-.011zm-41.319-17.185l-1.244-10.547a2.378 2.378 0 0 0 1.76-2.378l23.49-11.549c.153.191.326.365.521.515l-22.854 25.077a2.381 2.381 0 0 0-1.673-1.118zm82.585-279.037a4.774 4.774 0 0 0 4.192-5.292l-.001-.005 42.303-9.801c.088.327.203.64.358.929l-50.804 35.342a5.507 5.507 0 0 0-3.154-1.749l5.545-19.522c.502.11 1.023.161 1.561.098zm51.165-11.913a4.284 4.284 0 0 0 1.742-.606l11.342 14.814a1.982 1.982 0 0 0-.273 1.04l-66.866 19.602a5.486 5.486 0 0 0-.711-1.331l50.759-35.31c.889 1.236 2.388 1.978 4.007 1.791zm-16.059 144.375l25.103-43.063c.35.188.758.276 1.182.227.088-.01.17-.035.254-.056l17.775 22.605a3.203 3.203 0 0 0-.614 2.276c.032.272.106.527.199.771l-43.568 17.615a1.768 1.768 0 0 0-.331-.375zm-1.568-.353l-22.271-41.691a2.976 2.976 0 0 0 1.478-2.924 2.953 2.953 0 0 0-1.005-1.891l13.2-27.86c.529.3 1.114.498 1.736.577l6.964 73.768a.923.923 0 0 0-.102.021zm-44.819 56.123a4.155 4.155 0 0 0 2.1 3.142l-10.294 21.98a1.797 1.797 0 0 0-1.332-.387 1.85 1.85 0 0 0-.377.088l-18.623-38.534a4.57 4.57 0 0 0 1.862-1.376l26.951 13.068a4.116 4.116 0 0 0-.287 2.019zm-68.286 20.86a3.157 3.157 0 0 0-3.444-2.776l-5.593-28.776c.17-.031.33-.084.478-.158l65.737 37.362c0 .072-.005.144.003.216.008.066.028.129.043.194l-57.22-5.771c-.002-.097.007-.192-.004-.291zm-29.111-7.24l-.717-6.076a3.33 3.33 0 0 0 2.711-3.656 3.313 3.313 0 0 0-.302-1.016l16.798-13.355L32.25 245a4.735 4.735 0 0 0-2.859-.717zm46.124-104.914c.411-.047.79-.176 1.143-.346l16.256 28.06a3.72 3.72 0 0 0-1.242 3.224c.016.138.057.265.087.397l-23.615 7.522a1.718 1.718 0 0 0-1.301-1.423l7.794-37.451c.287.038.579.052.878.017zm29.033-34.654a3.278 3.278 0 0 0-1.805 3.31c.062.539.264 1.023.547 1.445l-25.738 23.676a3.6 3.6 0 0 0-1.293-.779l18.204-71.104 10.085 43.452zm-9.507-43.464a1.768 1.768 0 0 0 1.064-.529l28.439 6.038a5.482 5.482 0 0 0 1.889 4.68l-19.335 33.118a3.263 3.263 0 0 0-1.468-.177c-.195.022-.38.069-.562.123L95.029 61.251h.012zm107.563-14.118c.125.128.265.239.418.331l-1.217 25.881a2.858 2.858 0 0 0-1.988 3.059c.019.164.059.319.104.472l-30.664 16.485a4.761 4.761 0 0 0-1.212-1.219l34.559-45.009zm28.589 34.7a2.974 2.974 0 0 0 1.481-.614l12.906 13.173a3.65 3.65 0 0 0-.587 2.427c.056.485.209.936.43 1.339l-44.688 30.565a1.999 1.999 0 0 0-.385-.331l28.955-46.98a2.968 2.968 0 0 0 1.888.421zM101.974 280.124c.033.286.136.543.282.771l-18.023 12.741a2.911 2.911 0 0 0-2.796-1.346c-.142.017-.275.055-.41.09l-23.72-38.014c.269-.212.497-.466.684-.75l44.148 25.53a1.802 1.802 0 0 0-.165.978zm14-21.956c.236.355.587.623 1 .742l-12.241 19.47a1.803 1.803 0 0 0-1.164-.269 1.803 1.803 0 0 0-1.117.574l-44.197-25.559c.104-.241.177-.495.218-.76l57.501 5.802zm48.825-166.856a4.731 4.731 0 0 0-3.324 1.99L134.01 71.069a5.488 5.488 0 0 0 1.48-4.425 5.557 5.557 0 0 0-.146-.748l66.779-19.576c.036.121.084.235.141.345L167.578 91.84a4.725 4.725 0 0 0-2.779-.528zm-38.637 97.733a5.845 5.845 0 0 0-3.841 2.089l-24.074-18.886a3.706 3.706 0 0 0 .839-2.472l33.751-3.98c.172.289.417.524.705.69l-5.639 22.618a5.842 5.842 0 0 0-1.741-.059zM96.347 208.18l-1.043-34.591c.167.003.332.012.502-.007a3.704 3.704 0 0 0 2.055-.932l24.127 18.928a5.842 5.842 0 0 0-.307 6.097l-21.169 12.791a4.567 4.567 0 0 0-4.165-2.286zm34.039-135.418l16.338 54.769a2.965 2.965 0 0 0-1.603 1.604l-36.268-19.861c.337-.588.504-1.28.42-2.004a3.274 3.274 0 0 0-1.665-2.484l19.267-33.001a5.482 5.482 0 0 0 3.511.977zm30.231 23.828a4.729 4.729 0 0 0 1.922 3.279l-13.188 27.836a2.952 2.952 0 0 0-1.835-.394c-.09.011-.173.039-.261.057l-16.309-54.673a5.477 5.477 0 0 0 2.661-1.241l27.564 22.315a4.742 4.742 0 0 0-.554 2.821zm-26.33 66.267a1.952 1.952 0 0 0-1.715 2.165c.01.083.033.161.053.24l-33.592 3.962a3.694 3.694 0 0 0-.604-1.462l47.81-35.016c.219.144.453.263.705.345l-12.122 29.786a1.988 1.988 0 0 0-.535-.02zm-36.205 4.472a3.714 3.714 0 0 0-2.233-1.14l9.451-55.346c.349.078.712.113 1.087.069a3.266 3.266 0 0 0 2.154-1.179l36.415 19.942c-.062.301-.09.612-.053.934.082.707.415 1.317.887 1.778l-47.708 34.942zm-47.174 50.713a1.752 1.752 0 0 0-.71-1.212l15.763-36.702c.197.057.408.076.624.058l26.292 29.813a4.555 4.555 0 0 0-.889 3.261c.013.115.051.22.073.332l-41.155 4.854c.014-.134.018-.266.002-.404zm41.01-46.807a3.714 3.714 0 0 0 2.829 2.301l1.046 34.696a4.531 4.531 0 0 0-2.548 1.347L67.18 180.023c.488-.232.837-.679.945-1.208l23.793-7.58zm23.86 85.357l-65.35-37.14c.122-.128.228-.271.306-.429l41.444-4.889a4.578 4.578 0 0 0 4.883 3.146c.232-.027.451-.087.67-.147l18.663 38.619a1.81 1.81 0 0 0-.616.84zM202.99 78.919a2.852 2.852 0 0 0 2.451-2.222l22.418 2.062c-.004.145-.012.291.006.439.088.761.462 1.414.992 1.886l-29.006 47.061a1.98 1.98 0 0 0-.642-.094l2.86-49.186c.297.061.604.091.921.054zm-5.359 49.91l-29.18-29.178a4.755 4.755 0 0 0 1.625-4.158 4.767 4.767 0 0 0-.524-1.661l30.576-16.438c.306.584.8 1.036 1.397 1.296l-2.875 49.438a2.009 2.009 0 0 0-1.019.701zm72.133-12.09l-68.572 12.915a1.96 1.96 0 0 0-.154-.464l44.695-30.571a3.674 3.674 0 0 0 3.349 1.438 3.664 3.664 0 0 0 1.999-.888l19.536 14.689a4.427 4.427 0 0 0-.853 2.881zm-8.162-45.026L249.88 92.932a3.646 3.646 0 0 0-1.647-.198 3.655 3.655 0 0 0-2.312 1.213l-12.84-13.107a2.98 2.98 0 0 0 .748-2.334c-.017-.14-.054-.271-.088-.404l26.506-7.859c.31.612.78 1.114 1.355 1.47zm-157.967 38.191c.318.333.702.594 1.13.77l-9.476 55.494c-.114.002-.227-.009-.343.005a3.696 3.696 0 0 0-1.583.581l-16.227-28.01a3.601 3.601 0 0 0 1.552-3.382 3.586 3.586 0 0 0-.758-1.812l25.705-23.646zM74.094 139.25l-7.808 37.511h-.041a1.714 1.714 0 0 0-1.375 1.029l-29.896-25.575a3.104 3.104 0 0 0 .922-2.577 3.073 3.073 0 0 0-.118-.537L71.78 137.17a3.61 3.61 0 0 0 2.314 2.08zm-9.365 39.15c-.004.09-.007.18.004.272.059.511.34.937.73 1.209l-15.76 36.694a1.748 1.748 0 0 0-.745-.078 1.559 1.559 0 0 0-.276.062l-15.624-63.458c.033-.003.065.002.098-.001.516-.06.979-.254 1.381-.526L64.729 178.4zm-30.246 70.095a4.767 4.767 0 0 0-1.769-3.188L48.69 219.94c.069.019.14.028.211.039l5.612 28.877a3.142 3.142 0 0 0-2.227 2.373l-17.826-1.566c.05-.382.069-.77.023-1.168zm22.361 6.176l23.653 37.906a2.904 2.904 0 0 0-1.561 1.981l-15.919-1.719a3.31 3.31 0 0 0 .076-1.137 3.323 3.323 0 0 0-3.386-2.932l-3.714-33.806c.302-.06.589-.153.851-.293zm3.323 40.727a3.321 3.321 0 0 0 2.673-2.021l16.028 1.729c-.003.139-.01.274.006.416.042.361.156.695.314 1l-23.273 11.441a2.382 2.382 0 0 0-.877-1.266l4.178-11.346c.307.059.624.087.951.047zm68.276-106.168l5.62-22.539c.216.051.441.073.674.046.46-.053.858-.269 1.16-.576l34.438 9.738a1.726 1.726 0 0 0-.028.529c.006.048.021.092.031.139l-38.181 15.83a5.89 5.89 0 0 0-3.714-3.167zm8.009-24.658a1.948 1.948 0 0 0-1.099-1.533l12.139-29.828c.231.028.467.039.708.011.219-.025.427-.077.627-.146l22.269 41.688c-.24.156-.438.365-.576.613l-34.271-9.691c.171-.332.249-.716.203-1.114zm-.479-122.383l-5.568 19.601a5.495 5.495 0 0 0-1.016.02 5.503 5.503 0 0 0-4.765 4.4L96.45 60.229c.131-.279.193-.595.162-.923l36.929-19.013a4.772 4.772 0 0 0 2.432 1.896zM32.486 153.102L48.17 216.8c-.52.357-.835.978-.757 1.647.046.398.227.744.485 1.013l-17.092 13.589a3.327 3.327 0 0 0-2.263-1.408l3.62-78.6c.107.022.212.05.323.061zm25.006 170.445a2.386 2.386 0 0 0-.089-.406l23.089-25.336c.297.146.62.24.958.278l-7.577 29.463a3.489 3.489 0 0 0-1.601-.198 3.53 3.53 0 0 0-2.932 2.381l-12.17-4.695c.255-.436.384-.948.322-1.487zm18.701 6.908a3.532 3.532 0 0 0-1.807-2.684l7.635-29.685c.029-.002.058.002.087-.001.328-.038.629-.14.911-.274l13.231 40.937a2.161 2.161 0 0 0-1.195.977l-19.147-7.453c.243-.555.36-1.172.285-1.817zm49.201-2.137l-20.431-47.027a1.815 1.815 0 0 0 .199-2.551l12.429-19.771c.021-.001.041.002.061 0l8.168 69.256c-.144.027-.29.048-.426.093zm-24.311-116.112a4.544 4.544 0 0 0-.342-1.231l21.229-12.826a5.862 5.862 0 0 0 5.166 2.583l2.994 25.377c-1.23.242-2.241 1-2.823 2.033l-26.879-13.036c.513-.84.777-1.844.655-2.9zM263.379 29.805l-58.904 44.061a2.848 2.848 0 0 0-2.108-.636l1.2-25.541c.228.056.466.08.711.051a2.014 2.014 0 0 0 1.769-2.231c-.012-.102-.039-.198-.063-.294l57.158-16.152c.051.261.131.508.237.742zM28.123 238.262l.719 6.098c-2.45.461-4.169 2.726-3.878 5.24a4.742 4.742 0 0 0 1.273 2.711l-12.834 11.613a2.107 2.107 0 0 0-.235-.175l13.859-25.644c.347.114.715.165 1.096.157zm30.552 56.956l-4.128 11.21a2.403 2.403 0 0 0-1.199-.182 2.391 2.391 0 0 0-2.1 2.649c.013.107.042.207.068.31l-20.448 1.284c.032-.205.047-.415.022-.631-.004-.036-.017-.068-.022-.104l26.61-15.282c.34.33.745.587 1.197.746zm-4.984 15.781l1.232 10.444c-.029.002-.057-.002-.086.001a2.384 2.384 0 0 0-1.976 1.588L30.325 311.66c.157-.18.282-.384.378-.604l20.815-1.307a2.388 2.388 0 0 0 2.173 1.25zm211.6-162.411l7.861-27.76a4.417 4.417 0 0 0 1.57.111 4.47 4.47 0 0 0 3.926-4.955l-.008-.042 21-2.477a7.547 7.547 0 0 0 1.698 3.617l-35.68 31.595a1.574 1.574 0 0 0-.367-.089zm.616-116.811l-2.47 33.093c-.105.003-.209-.007-.315.005a3.718 3.718 0 0 0-3.103 4.857L233.55 77.58a2.98 2.98 0 0 0-.955-1.155l31.877-45.261c.421.309.909.517 1.435.613zm-43.153-19.284l-18.549 31.243a1.998 1.998 0 0 0-1.532.543l-11.242-14.686a4.32 4.32 0 0 0 1.613-3.884 4.264 4.264 0 0 0-.29-1.089l29.604-12.578c.113.168.244.321.396.451zm-.746-1.392c.018.155.053.303.102.445l-29.578 12.566a4.335 4.335 0 0 0-4.295-2.214l-.012.003-1.51-12.791a4.325 4.325 0 0 0 3.678-3.399l31.614 5.328c.002.022-.002.041.001.062zM81.274 50.721a2.633 2.633 0 0 0 2.311.913c.202-.023.393-.074.577-.139l8.905 7.741a1.825 1.825 0 0 0-.01.444c.019.164.066.316.125.462l-34.097 8.842v-.021a2.835 2.835 0 0 0-.308-.982l22.497-17.26zm12.598 10.251c.026.017.052.036.079.051l-18.23 71.211a3.554 3.554 0 0 0-1.038-.046 3.603 3.603 0 0 0-2.982 2.396L25.2 122.172a2.95 2.95 0 0 0 .071-1.035 2.969 2.969 0 0 0-.459-1.261l69.06-58.904zm-22.364 75.222c.018.156.062.301.099.45l-36.038 11.944a3.112 3.112 0 0 0-3.133-1.69 3.063 3.063 0 0 0-1.088.344l-7.903-23.004a2.989 2.989 0 0 0 1.576-1.54l46.541 12.422a3.592 3.592 0 0 0-.054 1.074zM28.616 307.793l1.29-53.982c.124-.004.245.01.37-.004 2.036-.236 3.611-1.721 4.083-3.597l17.859 1.569c-.005.156-.011.312.007.473a3.14 3.14 0 0 0 1.541 2.348l-24.43 53.325a2.278 2.278 0 0 0-.72-.132zm1.217.379l24.434-53.336a3.08 3.08 0 0 0 1.176.193l3.713 33.802a3.323 3.323 0 0 0-2.684 3.642c.069.594.302 1.125.632 1.574l-26.399 15.162a2.321 2.321 0 0 0-.872-1.037zm26.53 17.685c.168-.104.317-.229.453-.368l12.391 4.78a3.5 3.5 0 0 0-.042.999 3.53 3.53 0 0 0 3.795 3.108l1.037 31.57a2.613 2.613 0 0 0-.515.008c-.129.015-.25.051-.373.082l-16.746-40.179zm50.95 63.321a5.871 5.871 0 0 0-3.122-4.536l13.824-28.222c.2.04.407.059.621.034.043-.005.082-.021.125-.027l15.243 30.188a3.791 3.791 0 0 0-1.949 3.563l-24.703-.386a6.116 6.116 0 0 0-.039-.614zm.019 1.17l24.803.388c.404 1.897 2.175 3.22 4.141 2.99a3.757 3.757 0 0 0 2.191-1.05l12.884 10.609a2.405 2.405 0 0 0-.369.686l-43.833-12.594c.089-.334.153-.678.183-1.029zm48.07 15.555c.013-.024.021-.053.033-.077l8.151 2.342c-.011.167-.012.336.008.508a2.802 2.802 0 0 0 4.173 2.111l4.672 7.852a4.169 4.169 0 0 0-.842.601l-16.195-13.337zm-37.21-147.085c.227-.102.425-.244.589-.422l.072.008-.051-.029a1.759 1.759 0 0 0 .189-2.132l10.399-22.203c.331.133.677.23 1.04.273l-4.069 93.772-8.169-69.267zm181.365-145.901l-21.037 2.481a4.462 4.462 0 0 0-2.287-2.881l21.16-44.458a3.531 3.531 0 0 0 1.604.535l6.51 36.118a7.598 7.598 0 0 0-5.95 8.205zM159.458 10.505L140.411 33.9a4.745 4.745 0 0 0-3.441-.953c-2.063.239-3.648 1.767-4.086 3.684l-26.076-5.962c.05-.276.075-.56.041-.853a2.855 2.855 0 0 0-.114-.521L158.68 9.16c.183.496.442.954.778 1.345zM84.841 46.904a2.625 2.625 0 0 0-.551-.307l10.107-8.391-9.556 8.698zM56.567 72.142a2.868 2.868 0 0 0 2.525-2.587l34.287-8.891-68.908 58.774a3.013 3.013 0 0 0-.264-.254l30.546-47.451a2.845 2.845 0 0 0 1.814.409zm-33.931 52.322c.097-.011.186-.042.28-.062l7.955 23.152a3.113 3.113 0 0 0-1.175 2.804c.076.656.353 1.238.758 1.699L5.393 192.455a3.288 3.288 0 0 0-.616-.317l17.084-67.697c.252.037.51.054.775.023zM4.638 198.346l21.191 34.116a3.332 3.332 0 0 0 .682 5.43l-13.842 25.611a2.12 2.12 0 0 0-.901-.095l-.024.005-7.66-64.944c.19-.028.377-.064.554-.123zm72.012 170.12a2.814 2.814 0 0 0-.205-.748l19.62-24.927a2.14 2.14 0 0 0 1.055.174l3.383 41.1a5.855 5.855 0 0 0-3.699 2.225L75.95 370.676a2.843 2.843 0 0 0 .7-2.21zm30.329 23.437l43.874 12.605c-.02.181-.025.362-.004.55a2.424 2.424 0 0 0 2.686 2.127 2.409 2.409 0 0 0 1.549-.827l16.128 13.28c-.16.188-.299.392-.424.604l-63.902-28.102c.032-.076.063-.156.093-.237zm96.746 29.182c.004.03-.002.06.002.09a3.579 3.579 0 0 0 3.965 3.143 3.578 3.578 0 0 0 3.033-2.604l11.846 3.404c-.021.122-.045.242-.053.368l-43.119-3.054 24.326-1.347zm10.127-1.116l-3.064.17a3.568 3.568 0 0 0-3.919-2.929 3.558 3.558 0 0 0-2.806 2.013l-35.002-10.057a2.803 2.803 0 0 0-3.004-3.599 2.667 2.667 0 0 0-.648.164l-11.773-19.791a2.73 2.73 0 0 0 .424-.568l60.014 33.793c-.117.251-.198.52-.222.804zm-82.866-185.637c.066-.001.132.001.199-.003l4.1 29.452a3.196 3.196 0 0 0-2.575 3.502 3.198 3.198 0 0 0 2.733 2.794l-8.448 56.237 3.991-91.982zm4.849 29.391l-4.102-29.468c2.103-.415 3.576-2.358 3.34-4.522l36.122-6.365c.008.009.017.016.025.023l-33.097 41.236a3.175 3.175 0 0 0-2.288-.904zm37.791-41.484a1.387 1.387 0 0 0-1.416-1.169l.196-43.137c.371-.079.693-.27.935-.536l39.927 30.67a5.185 5.185 0 0 0-.804 3.4c.034.295.106.576.187.853l-39.025 9.919zm44.729-16.548l1.484-45.97c.199.014.4.015.605-.009.318-.037.611-.132.893-.252l29.905 37.377a3.622 3.622 0 0 0-.698 2.584c.04.341.139.657.264.959l-28.123 9.059a5.214 5.214 0 0 0-4.33-3.748zm36.713-10.219l9.447-43.757c.241.094.504.139.778.107.374-.044.698-.215.948-.46l22.883 14.806a2.819 2.819 0 0 0-.25 1.513c.044.377.163.726.334 1.039l-32.25 27.926a3.64 3.64 0 0 0-1.89-1.174z"/></svg>