<svg xmlns="http://www.w3.org/2000/svg" width="315" height="430" viewBox="0 0 315 430"><path fill="#4D4D4D" d="M314.695 234.41a3.297 3.297 0 0 0-3.224-2.911l-7.674-65.063a2.118 2.118 0 0 0 1.302-2.199 2.119 2.119 0 0 0-2.219-1.867l-14.905-40.723a2.345 2.345 0 0 0-1.803-4.104c-.083.01-.158.035-.237.052L243.29 63.126c.539-.59.838-1.393.738-2.249a2.859 2.859 0 0 0-4.253-2.154l-.016-.02.01.024c-.108.062-.206.139-.305.214L218.51 43.256a5.849 5.849 0 0 0 .856-3.788 5.88 5.88 0 0 0-6.517-5.163 5.868 5.868 0 0 0-4.495 3.052L144.461 9.26a4.26 4.26 0 0 0 .332-2.173 4.301 4.301 0 0 0-4.767-3.777 4.295 4.295 0 0 0-3.763 3.75l-43.788-3.1c-.003-.047.003-.092-.002-.139a3.784 3.784 0 1 0-7.529.784l-20.343 6.166a3.087 3.087 0 0 0-3.18-1.833 3.1 3.1 0 0 0 .714 6.158 3.089 3.089 0 0 0 2.727-3.066l31.323-1.729a2.51 2.51 0 0 0 2.746 2.008 2.509 2.509 0 0 0 1.72-.993l60.073 33.824a2.75 2.75 0 0 0-.11 1.141 2.77 2.77 0 0 0 3.071 2.433c.056-.006.107-.026.163-.036l22.97 46.961a3.348 3.348 0 0 0-1.587 3.243 3.35 3.35 0 0 0 2.509 2.857l-8.737 58.159c-.089.003-.177-.007-.267.004a3.208 3.208 0 0 0-2.817 3.556 3.17 3.17 0 0 0 .591 1.491l-33.176 41.334a1.394 1.394 0 0 0-.747-.125 1.392 1.392 0 0 0-1.19 1.055l-39.236 9.949c-.867-2.118-3.042-3.501-5.427-3.226a5.236 5.236 0 0 0-4.598 5.804c.012.101.046.192.063.291l-28.249 9.087a3.644 3.644 0 0 0-3.54-1.744 3.651 3.651 0 0 0-3.207 4.047c.063.544.25 1.04.518 1.478L25.477 260.82a2.843 2.843 0 0 0-4.999 2.154 2.838 2.838 0 0 0 2.148 2.426L9.638 310.471a7.545 7.545 0 0 0-2.628-.162 7.602 7.602 0 0 0 1.75 15.102c.066-.008.129-.023.194-.032l6.536 36.036c-.055.003-.107-.004-.162.002a3.559 3.559 0 0 0 .82 7.069 3.542 3.542 0 0 0 1.989-.918l27.643 31.863a3.465 3.465 0 0 0-.765 2.597 3.479 3.479 0 0 0 3.854 3.055 3.45 3.45 0 0 0 2.464-1.51l37.509 14.756a2.135 2.135 0 0 0-.157 1.069 2.168 2.168 0 0 0 2.403 1.904 2.16 2.16 0 0 0 1.877-1.785l31.544 5.313a4.338 4.338 0 0 0 4.825 4.671c2.238-.26 3.857-2.181 3.818-4.388l14.713-1.769c.488 2.189 2.542 3.71 4.819 3.445a4.436 4.436 0 0 0 3.897-4.918c-.02-.173-.07-.333-.109-.498l52.007-20.158a2.897 2.897 0 1 0 5.053-2.834l17.829-14.801c.215.029.435.042.661.016a2.626 2.626 0 0 0 2.319-2.49l22.281-18.498a2.86 2.86 0 0 0 2.471.947 2.87 2.87 0 0 0 2.519-3.18 2.843 2.843 0 0 0-.921-1.776l30.56-47.472a2.97 2.97 0 0 0 1.805.367 2.998 2.998 0 0 0 2.635-3.324 2.99 2.99 0 0 0-2.011-2.484l17.077-67.67c.333.068.679.1 1.035.059a3.306 3.306 0 0 0 2.903-3.665zm-80.413 146.028a2.648 2.648 0 0 0-.246-.697l14.297-10.969-14.051 11.666zm-101.163 44.13a4.32 4.32 0 0 0-4.279-3.698l-1.521-12.891a4.312 4.312 0 0 0 2.377-1.542l18.83 13.453a4.395 4.395 0 0 0-.761 2.95l-14.646 1.728zM23.178 265.477c.149.006.298.011.45-.007a2.825 2.825 0 0 0 1.966-1.16l22.836 14.775a1.62 1.62 0 0 0-.156.897c.049.425.261.789.562 1.047l-27.15 24.042-8.405 7.442a7.622 7.622 0 0 0-3.108-1.899l13.005-45.137zm41.641-253.99c-.011-.065-.027-.129-.042-.192l20.267-6.152c.442 1.835 2.178 3.102 4.102 2.878a3.763 3.763 0 0 0 2.699-1.666l4.472 2.518a2.499 2.499 0 0 0-.18.88l-31.318 1.734zm220.562 106.3c-.091.046-.176.1-.259.157l-22.854-11.532a2.426 2.426 0 0 0-.002-.511 2.396 2.396 0 0 0-3.129-1.999l-16.724-40.129c.165-.078.318-.17.462-.277l42.506 54.291zM101.133 9.477a2.515 2.515 0 0 0-1.317-1.895l4.356 1.252c-.018.156-.014.315-.011.475l-3.028.168zm-4.556-1.093l-4.454-2.507c.07-.146.131-.297.182-.453l6.525 1.875a2.48 2.48 0 0 0-.479.007 2.503 2.503 0 0 0-1.774 1.078zm39.025-.816l-24.327 1.347c-.003-.03.002-.06-.001-.09a3.576 3.576 0 1 0-6.998-.537L92.429 4.885c.021-.123.046-.244.055-.37l3.86.273 39.258 2.78zm75.097 389.401a2.886 2.886 0 0 0-2.355 1.828l-26.125-5.973a4.71 4.71 0 0 0 .004-1.062 4.745 4.745 0 0 0-.485-1.574l17.417-8.967 19.38-9.979a1.78 1.78 0 0 0 1.002.95l-1.092 3.582-6.506 21.327a2.9 2.9 0 0 0-1.24-.132zM92.246 417.507l18.55-31.243a1.998 1.998 0 0 0 1.53-.543l9.429 12.317 1.814 2.369a4.323 4.323 0 0 0-1.614 3.884c.045.386.154.744.291 1.089l-29.604 12.578a2.245 2.245 0 0 0-.396-.451zm-43.153-19.284l2.469-33.094c.106-.003.209.008.317-.005a3.716 3.716 0 0 0 3.102-4.856l26.468-7.848c.219.466.547.86.956 1.155l-31.876 45.261a3.458 3.458 0 0 0-1.436-.613zm95.039-190.842a1.37 1.37 0 0 0-.051-.234l35.959-6.335a4.133 4.133 0 0 0 1.317 2.156l-18.054 23.663-19.53 25.596a1.717 1.717 0 0 0-.625-.191l.112-24.626.085-18.615a1.39 1.39 0 0 0 .787-1.414zm44.11-112.222l-8.527-51.349c.271-.04.528-.108.775-.201l15.215 30.139a2.01 2.01 0 0 0-1.113 2.034c.073.634.438 1.158.941 1.472l-6.203 17.984a3.335 3.335 0 0 0-1.088-.079zm-3.673 100.528l4.07-93.771 8.169 69.266c-.227.1-.425.244-.589.421l-.072-.007.051.029c-.33.37-.511.868-.45 1.398.032.271.126.518.261.735l-2.83 6.042-7.569 16.161a4.117 4.117 0 0 0-1.041-.274zm97.945 81.211L266.83 213.2c.52-.358.835-.977.757-1.647a1.746 1.746 0 0 0-.485-1.013l14.852-11.808 2.24-1.781a3.33 3.33 0 0 0 2.264 1.409l-3.62 78.6c-.108-.023-.213-.05-.324-.062zM50.946 399.206l31.937-45.349c.488.229 1.04.338 1.616.271a2.99 2.99 0 0 0 2.573-2.337l14.379 1.322 8.04.739c-.003.133-.01.266.006.401.065.567.297 1.072.634 1.483l-58.78 43.967a3.587 3.587 0 0 0-.405-.497zm138.659-297.524l20.431 47.027a1.815 1.815 0 0 0-.199 2.551l-12.43 19.771h-.06l-8.168-69.256c.144-.026.291-.048.426-.093zM45.237 313.261l55.752-10.5 12.819-2.413c.033.163.084.317.154.463l-41.366 28.294-3.33 2.277a3.671 3.671 0 0 0-3.348-1.438 3.657 3.657 0 0 0-1.999.888l-19.537-14.688c.597-.81.912-1.816.855-2.883zM219.944 90.275l19.147 7.454a3.505 3.505 0 0 0-.285 1.816 3.526 3.526 0 0 0 1.807 2.683l-2.242 8.717-5.393 20.967c-.029.003-.058-.002-.087.001-.328.038-.629.14-.911.274l-2.475-7.656-10.755-33.279a2.163 2.163 0 0 0 1.194-.977zm37.565 16.178c.016.141.05.275.089.406l-23.089 25.336a2.896 2.896 0 0 0-.958-.279l5.13-19.948 2.447-9.515c.498.18 1.038.263 1.6.198a3.53 3.53 0 0 0 2.933-2.379l12.17 4.696a2.368 2.368 0 0 0-.322 1.485zm-127.736 294.82c-.89-1.236-2.388-1.979-4.008-1.791a4.309 4.309 0 0 0-1.743.606l-11.341-14.813c.182-.308.279-.664.274-1.04l66.865-19.603c.177.48.417.928.711 1.331l-20.427 14.21-30.331 21.1zm-17.794-18.737l1.216-25.882a2.86 2.86 0 0 0 1.99-3.059 2.844 2.844 0 0 0-.104-.473l19.313-10.383 11.349-6.102c.33.479.737.891 1.212 1.219l-34.559 45.01a2.048 2.048 0 0 0-.417-.33zM95.296 276.688a3.192 3.192 0 0 0 1.841-.873l17.612 22.397c-.557.33-.933.916-.983 1.578l-55.843 10.519-12.75 2.401a4.47 4.47 0 0 0-.5-1.429l47.804-35.702a3.213 3.213 0 0 0 2.819 1.109zm114.074 48.93c.195-.022.381-.069.563-.123l10.038 43.253h-.011a1.768 1.768 0 0 0-1.064.529l-28.439-6.036a5.477 5.477 0 0 0-1.889-4.681l19.334-33.118c.457.162.953.236 1.468.176zM70.005 333.18a3.665 3.665 0 0 0-.429-1.338l27.179-18.591 17.508-11.975c.113.128.245.235.386.33l-17.672 28.675-11.282 18.307a2.978 2.978 0 0 0-1.887-.421 2.977 2.977 0 0 0-1.483.614l-12.906-13.174a3.655 3.655 0 0 0 .586-2.427zm117.689-131.322l26.879 13.034a4.536 4.536 0 0 0-.656 2.902c.051.438.18.843.342 1.23l-21.229 12.827a5.86 5.86 0 0 0-5.166-2.583l-2.994-25.378a4.146 4.146 0 0 0 2.824-2.032zm72.269-78.56l-2.869 7.792-1.308 3.552a3.282 3.282 0 0 0-.952-.042 3.317 3.317 0 0 0-2.673 2.02l-.597-.064-15.431-1.666c.003-.138.01-.275-.006-.416a2.895 2.895 0 0 0-.314-1.001l23.273-11.442c.147.521.46.96.877 1.267zm-115.27 130.273c-.005-.048-.021-.093-.031-.14l38.182-15.83a5.882 5.882 0 0 0 3.714 3.167l-.247.992-5.373 21.547a1.946 1.946 0 0 0-.675-.046 1.933 1.933 0 0 0-1.161.576l-34.437-9.739a1.71 1.71 0 0 0 .028-.527zm111.801-75.386c.002.098-.007.193.004.292a3.156 3.156 0 0 0 3.444 2.776l5.593 28.778c-.17.03-.33.083-.477.156l-65.738-37.362c0-.071.005-.142-.003-.215-.008-.067-.028-.13-.043-.195l57.22 5.77zm-113.202 77.297l.101-.022 9.908 18.546 12.364 23.145a2.976 2.976 0 0 0-1.478 2.925c.089.765.467 1.42 1.005 1.89l-13.199 27.86a4.716 4.716 0 0 0-1.737-.577l-6.81-72.131-.154-1.636zm38.166 8.032l5.64-22.617a5.85 5.85 0 0 0 5.582-2.031l5.823 4.568 18.25 14.318a3.704 3.704 0 0 0-.839 2.472l-33.751 3.98a1.95 1.95 0 0 0-.705-.69zm65.417-12.329l-23.794 7.58a3.714 3.714 0 0 0-2.829-2.302l-.066-2.202-.979-32.494a4.533 4.533 0 0 0 2.549-1.348l26.065 29.557a1.717 1.717 0 0 0-.946 1.209zm-30.907 9.59c.097.542.307 1.034.604 1.462l-28.875 21.149-18.935 13.867a2.942 2.942 0 0 0-.705-.346l12.121-29.786c.174.028.351.042.534.02a1.952 1.952 0 0 0 1.715-2.165c-.01-.083-.033-.161-.053-.24l19.372-2.285 14.222-1.676zm-1.48-41.24a4.569 4.569 0 0 0 4.165 2.285l.491 16.266.552 18.325c-.167-.003-.333-.012-.502.008-.796.092-1.5.434-2.055.932l-24.127-18.928a5.842 5.842 0 0 0 .307-6.098l4.813-2.908 16.356-9.882zM154.383 333.41a4.739 4.739 0 0 0-1.921-3.28l13.188-27.836c.537.313 1.17.472 1.835.395.09-.011.173-.039.261-.058l16.309 54.673a5.477 5.477 0 0 0-2.661 1.241l-27.565-22.315a4.737 4.737 0 0 0 .554-2.82zm33.742 24.807a5.48 5.48 0 0 0-3.512-.979l-16.338-54.769a2.965 2.965 0 0 0 1.603-1.604l36.268 19.861a3.263 3.263 0 0 0-.419 2.004 3.272 3.272 0 0 0 1.665 2.483l-14.323 24.535-4.944 8.469zm21.576-39.06a3.28 3.28 0 0 0-1.087-.069 3.275 3.275 0 0 0-2.155 1.179l-9.464-5.183-26.95-14.759a2.94 2.94 0 0 0 .053-.935 2.948 2.948 0 0 0-.887-1.777l47.708-34.942a3.713 3.713 0 0 0 2.234 1.139l-6.65 38.947-2.802 16.4zm-30.952-54.843a1.946 1.946 0 0 0 .898 2.646l-12.139 29.828a2.994 2.994 0 0 0-.709-.011 2.938 2.938 0 0 0-.627.146l-22.27-41.688c.24-.156.438-.365.577-.613l34.27 9.692zm79.407-88.985l-8.641-13.847-15.012-24.059a2.908 2.908 0 0 0 1.561-1.982l15.919 1.719a3.306 3.306 0 0 0-.076 1.136c.199 1.724 1.685 2.97 3.386 2.931l3.714 33.807c-.302.06-.589.155-.851.295zM142.301 255.39c.139.056.284.097.437.116l6.958 73.714c-.197-.002-.391-.015-.591.009a4.71 4.71 0 0 0-2.097.796l-29.362-29.36c.114-.294.168-.616.129-.951a2 2 0 0 0-.604-1.208l20.71-35.53 4.42-7.586zm97.184 35.241c-.411.048-.79.177-1.143.346l-16.257-28.059a3.722 3.722 0 0 0 1.242-3.224c-.016-.138-.057-.265-.087-.397l23.615-7.523a1.716 1.716 0 0 0 1.301 1.423l-7.794 37.451a3.515 3.515 0 0 0-.877-.017zm8.93-40.817l-15.852-17.975-10.439-11.838a4.552 4.552 0 0 0 .889-3.262c-.013-.115-.051-.219-.073-.331l41.155-4.854c-.015.132-.02.266-.003.403.059.506.33.933.71 1.212l-15.764 36.703a1.741 1.741 0 0 0-.623-.058zM233.563 137.71c.142-.017.275-.054.409-.09l22.685 36.353 1.037 1.662a3.11 3.11 0 0 0-.684.75l-44.148-25.529a1.8 1.8 0 0 0 .165-.979 1.792 1.792 0 0 0-.282-.769l18.023-12.743a2.91 2.91 0 0 0 2.795 1.345zm-120.088 213.6l2.66-45.756.214-3.683a2.003 2.003 0 0 0 1.019-.7l9.554 9.554 19.626 19.625a4.753 4.753 0 0 0-1.625 4.157c.07.601.259 1.156.525 1.661l-30.576 16.438a2.853 2.853 0 0 0-1.397-1.296zm106.235-87.478c.115-.003.227.008.343-.005a3.7 3.7 0 0 0 1.583-.581l16.227 28.01a3.601 3.601 0 0 0-1.552 3.382 3.59 3.59 0 0 0 .758 1.812l-25.705 23.646a3.274 3.274 0 0 0-1.13-.77l9.476-55.494zm-9.443-112.212c.336.209.739.318 1.164.269a1.8 1.8 0 0 0 1.117-.575l12.933 7.479 31.265 18.08a3.12 3.12 0 0 0-.218.759l-8.223-.829-49.279-4.97a1.795 1.795 0 0 0-1-.742l7.527-11.974 4.714-7.497zm-11.662 22.628a1.79 1.79 0 0 0 .617-.841l65.35 37.14a1.765 1.765 0 0 0-.307.43l-41.443 4.888a4.577 4.577 0 0 0-4.883-3.146c-.233.027-.452.087-.671.147l-5.169-10.698-13.494-27.92zM87.141 351.242c.005-.146.011-.291-.006-.439a2.975 2.975 0 0 0-.992-1.886l23.776-38.579 5.229-8.482c.203.066.419.096.642.094l-2.86 49.188a2.84 2.84 0 0 0-.919-.056 2.856 2.856 0 0 0-2.453 2.222l-9.512-.874-12.905-1.188zm63.061-12.554a4.731 4.731 0 0 0 3.324-1.99l27.464 22.233a5.492 5.492 0 0 0-1.48 4.427c.03.256.083.504.145.747l-66.778 19.576a1.966 1.966 0 0 0-.141-.345l34.687-45.176a4.739 4.739 0 0 0 2.779.528zm130.315-157.183a4.766 4.766 0 0 0 1.769 3.188l-15.976 25.368c-.069-.019-.14-.029-.212-.04l-5.611-28.877a3.143 3.143 0 0 0 2.227-2.373l17.826 1.566a4.74 4.74 0 0 0-.023 1.168zm-138.692 73.601l-25.101 43.064a2.005 2.005 0 0 0-1.183-.228c-.088.01-.171.035-.255.056l-17.775-22.605a3.207 3.207 0 0 0 .614-2.277 3.211 3.211 0 0 0-.199-.771l43.569-17.616a1.7 1.7 0 0 0 .33.377zm99.081 35.644l7.808-37.512h.041a1.71 1.71 0 0 0 1.375-1.028l29.896 25.574a3.105 3.105 0 0 0-.923 2.578c.021.186.066.363.118.536L243.22 292.83a3.607 3.607 0 0 0-2.314-2.08zm40.939-13.849a3.09 3.09 0 0 0-1.382.526L250.271 251.6a1.65 1.65 0 0 0-.004-.272 1.709 1.709 0 0 0-.73-1.209l15.759-36.694c.234.077.486.109.746.079.096-.011.187-.035.276-.061l15.625 63.457c-.033.002-.065-.003-.098.001zm1.769-81.453c.042.364.155.7.302 1.016l-16.798 13.355 2.198-3.491 13.432-21.33a4.734 4.734 0 0 0 2.86.718l.717 6.075a3.333 3.333 0 0 0-2.711 3.657zm-24.057-20.478l-3.713-33.801a3.323 3.323 0 0 0 2.684-3.641 3.303 3.303 0 0 0-.632-1.576l26.399-15.162c.185.431.489.788.873 1.038l-24.434 53.335a3.127 3.127 0 0 0-1.177-.193zm-41.36-83.623l13.295 41.132a2.904 2.904 0 0 0-1.164 2.667c.029.253.1.489.188.715l-11.75 8.308-6.39 4.517a1.806 1.806 0 0 0-.975-.408l6.402-56.943c.129.018.26.019.394.012zm-21.79 82.868a1.792 1.792 0 0 0 1.71.298l10.207 21.121 8.415 17.414a4.561 4.561 0 0 0-1.862 1.376l-1.309-.635-25.642-12.434a4.12 4.12 0 0 0 .286-2.018 4.157 4.157 0 0 0-2.1-3.143l6.368-13.597 3.927-8.382zm-12.084 29.749l2.99 25.357a5.868 5.868 0 0 0-4.983 6.479c.052.45.159.879.304 1.289l-32.241 13.367-5.917 2.453a1.731 1.731 0 0 0-.264-.343l37.591-49.27a4.132 4.132 0 0 0 2.52.668zm-54.245 197.773l50.804-35.343a5.507 5.507 0 0 0 3.155 1.749l-5.544 19.522a4.75 4.75 0 0 0-1.562-.098 4.775 4.775 0 0 0-4.192 5.292l.001.006-42.302 9.801a4.377 4.377 0 0 0-.36-.929zm80.375-76.453a3.279 3.279 0 0 0 1.804-3.31 3.253 3.253 0 0 0-.547-1.445l8.441-7.765 17.297-15.91c.372.346.808.613 1.293.779l-18.204 71.103-10.084-43.452zm73.658-205.142c.004.036.017.067.022.103l-26.61 15.283a3.335 3.335 0 0 0-1.199-.746l4.128-11.209c.368.155.775.23 1.2.181a2.39 2.39 0 0 0 2.1-2.65c-.012-.107-.042-.208-.068-.31l20.449-1.284a2.333 2.333 0 0 0-.022.632zm-23.352-1.063a2.378 2.378 0 0 0-1.76 2.378l-23.491 11.549a2.908 2.908 0 0 0-.52-.514l22.854-25.078a2.388 2.388 0 0 0 1.673 1.119l1.244 10.546zM66.768 337.267a3.658 3.658 0 0 0 2.312-1.213l12.84 13.106a2.985 2.985 0 0 0-.749 2.334c.016.14.054.271.088.403l-26.505 7.859a3.707 3.707 0 0 0-1.355-1.47l11.721-21.219c.514.183 1.07.267 1.648.2zm114.691 52.441a4.767 4.767 0 0 0-2.433-1.897l5.567-19.601a5.502 5.502 0 0 0 5.781-4.42l28.174 5.98a1.775 1.775 0 0 0-.162.924l-36.531 18.809-.396.205zM91.74 273.926c.06.437.204.841.417 1.2l-20.432 15.26-27.371 20.442a4.457 4.457 0 0 0-1.977-1.487l7.923-27.975a1.62 1.62 0 0 0 1.18-1.229l38.341-5.915 1.919-.296zm91.206-234.105l24.703.385a5.871 5.871 0 0 0 3.161 5.152l-12.015 24.531-1.808 3.691c-.2-.04-.407-.059-.621-.034-.043.005-.083.02-.125.027l-15.242-30.188a3.797 3.797 0 0 0 1.947-3.564zm13.883 37.733a2.015 2.015 0 0 0 1.563-1.086l17.698 11.868a2.146 2.146 0 0 0-.171 1.104 2.162 2.162 0 0 0 1.344 1.752l-6.421 57.126a1.705 1.705 0 0 0-.327.103l-20.403-46.961a3.349 3.349 0 0 0 1.784-3.354 3.342 3.342 0 0 0-2.04-2.694l6.183-17.924c.249.072.516.097.79.066zm43.615-13.594l1.043 31.756a3.505 3.505 0 0 0-2.131 1.521l-8.624-3.357-10.569-4.115a2.163 2.163 0 0 0-.745-2.277l19.422-24.675c.384.557.947.969 1.604 1.147zm-24.078 23.895L198.57 75.921c.037-.195.054-.396.03-.604a2.015 2.015 0 0 0-1.084-1.562l8.162-16.663 5.634-11.502a5.832 5.832 0 0 0 2.632.411l3.388 41.157a2.16 2.16 0 0 0-.966.697zM41.307 317.941a4.436 4.436 0 0 0 2.714-1.378l19.512 14.67a3.666 3.666 0 0 0-.413 4.156l-44.259 27.863a3.55 3.55 0 0 0-.798-.981l21.219-44.581a4.417 4.417 0 0 0 2.025.251zm10.314 82.253l34.814-26.04 24.091-18.02c.57.468 1.318.717 2.108.636l-1.158 24.65-.042.89a1.988 1.988 0 0 0-.712-.051 2.012 2.012 0 0 0-1.768 2.23c.012.102.039.198.064.294L51.86 400.936a3.46 3.46 0 0 0-.239-.742zm238.358-92.893l-46.541-12.422a3.59 3.59 0 0 0 .053-1.074c-.018-.152-.061-.295-.097-.439l36.036-11.953a3.11 3.11 0 0 0 3.133 1.689c.394-.046.757-.17 1.088-.344l7.904 23.004a2.99 2.99 0 0 0-1.576 1.539zm-2.006-115.407a3.302 3.302 0 0 0-1.096-.156l-.719-6.097c2.45-.461 4.169-2.726 3.878-5.24a4.757 4.757 0 0 0-1.273-2.713l12.834-11.612c.074.064.153.121.235.175l-13.288 24.585-.571 1.058zm-2.878-15.706c-.124.005-.245-.009-.37.005a4.781 4.781 0 0 0-4.083 3.597l-17.859-1.569c.005-.156.011-.312-.007-.473a3.143 3.143 0 0 0-1.541-2.349l24.429-53.325c.229.081.47.125.721.131l-.721 30.182-.569 23.801zm-.798-57.244l-20.815 1.307a2.38 2.38 0 0 0-2.173-1.251l-1.232-10.443c.029-.002.057.002.086-.001a2.39 2.39 0 0 0 1.976-1.588l22.537 11.372a2.32 2.32 0 0 0-.379.604zm-26.114-14.433l-2.38-.918-10.011-3.863c.055-.324.082-.656.042-1a3.532 3.532 0 0 0-3.796-3.109l-1.036-31.569c.169.011.341.012.515-.008.129-.015.25-.051.373-.082l16.746 40.181a2.362 2.362 0 0 0-.453.368zm-98.618-80.337l-8.151-2.342a2.787 2.787 0 0 0-.007-.508 2.804 2.804 0 0 0-4.175-2.111l-4.671-7.852c.307-.166.587-.368.842-.6l16.195 13.335c-.013.026-.02.053-.033.078zM141.356 253.07c-.122.276-.18.583-.143.904.01.086.033.167.055.249l-43.579 17.62a3.22 3.22 0 0 0-1.977-1.47l1.487-46.025c.245.006.488.018.738-.011a5.216 5.216 0 0 0 3.49-1.938l19.722 15.148 20.207 15.523zM19.268 364.517a3.565 3.565 0 0 0-.18-.751l44.347-27.918c.319.413.714.758 1.172 1.004l-11.699 21.18a3.675 3.675 0 0 0-1.884-.29 3.713 3.713 0 0 0-3.274 3.415l-28.482 3.36zm132.395 53.46a4.405 4.405 0 0 0-2.798 1.476l-18.867-13.481a4.302 4.302 0 0 0 .576-2.678c-.003-.029-.015-.057-.019-.086l42.302-9.801c.216.911.68 1.703 1.319 2.32L155.14 419.11c-.914-.829-2.155-1.288-3.477-1.133zm79.752-39.611a2.547 2.547 0 0 0-.577.139l-8.905-7.74c.02-.145.028-.293.01-.444a1.83 1.83 0 0 0-.125-.463l34.097-8.842v.021c.041.355.153.683.308.982l-22.496 17.26a2.635 2.635 0 0 0-2.312-.913zM150.094 24.024a2.803 2.803 0 0 0 1.23-1.645l8.065 2.317a2.406 2.406 0 0 0-.051.802 2.421 2.421 0 0 0 2.685 2.127 2.399 2.399 0 0 0 1.23-.519l12.902 10.624a3.79 3.79 0 0 0-.772 2.763c.002.02.01.037.012.056l-9.658 3.987a2.767 2.767 0 0 0-2.69-1.329 2.74 2.74 0 0 0-1.252.485l-6.122-10.291-5.579-9.377zm-56.93 246.782a3.202 3.202 0 0 0-1.446 2.563l-40.214 6.204a1.624 1.624 0 0 0-.52-.978l9.493-43.964c.252.024.51.025.772-.005a3.616 3.616 0 0 0 2.136-1.041l1.224 1.529 28.555 35.692zm-43.821 10.516c.118.043.24.074.367.089l-7.862 27.761a4.392 4.392 0 0 0-1.57-.111 4.47 4.47 0 0 0-3.926 4.955c.001.015.007.027.009.042l-16.377 1.932-4.623.545a7.568 7.568 0 0 0-1.699-3.616l16.084-14.243 19.597-17.354zm171.785 87.705c-.026-.018-.052-.036-.079-.052l3.244-12.671 14.987-58.539c.336.06.681.088 1.038.047a3.606 3.606 0 0 0 2.982-2.396l7.305 1.949 39.196 10.463c-.078.33-.112.677-.071 1.033.054.467.222.891.459 1.262l-49.139 41.912-19.922 16.992zm63.008-91.476a3.144 3.144 0 0 0-.75-.423l1.182-25.674 2.444-53.065c.103-.002.204.008.308-.004a3.324 3.324 0 0 0 1.406-.512l21.124 34.009a3.302 3.302 0 0 0-1.724 3.291 3.28 3.28 0 0 0 1.042 2.03l-5.099 8.22-19.933 32.128zM207.668 39.652l-3.581-.056-21.222-.331c-.404-1.897-2.175-3.219-4.142-2.992-.861.1-1.612.491-2.191 1.05l-8.78-7.229-4.105-3.38a2.43 2.43 0 0 0 .37-.688l43.834 12.593a6.1 6.1 0 0 0-.183 1.033zm-66.652-27.798a4.215 4.215 0 0 0 1.034-.268l4.729 7.951a2.838 2.838 0 0 0-.624.784l-35.01-10.059c.077-.255.12-.523.138-.797l24.967-1.378a4.301 4.301 0 0 0 4.766 3.767zm72.106 385.999a2.859 2.859 0 0 0-.671-.524l7.631-25.021c.096.004.191.007.29-.005a1.786 1.786 0 0 0 1.384-.958l2.748 2.389 5.798 5.04a2.622 2.622 0 0 0-.555 3.95l-7.421 6.754-9.204 8.375zm87.756-233.128c.041.349.171.662.354.934l-12.87 11.645a4.767 4.767 0 0 0-2.712-1.124l1.29-54.029c.197-.043.384-.106.558-.194l14.825 40.506a2.124 2.124 0 0 0-1.445 2.262zM92.993 418.898a2.151 2.151 0 0 0-.101-.445l29.578-12.566a4.339 4.339 0 0 0 4.294 2.215l.012-.003 1.509 12.79a4.324 4.324 0 0 0-3.678 3.399l-31.614-5.328c-.001-.021.002-.041 0-.062zm217.369-187.244l-11.936-19.215-9.255-14.901a3.332 3.332 0 0 0-.682-5.431l13.841-25.611c.283.093.587.132.902.096l.025-.005 7.659 64.945a3.25 3.25 0 0 0-.554.122zM238.35 61.534c.031.266.108.512.205.748l-5.835 7.414-13.785 17.513a2.143 2.143 0 0 0-1.056-.174l-3.383-41.099a5.853 5.853 0 0 0 3.699-2.224l20.856 15.613a2.836 2.836 0 0 0-.701 2.209zm-30.329-23.438L164.146 25.49c.021-.18.025-.363.004-.55a2.42 2.42 0 0 0-2.685-2.127 2.41 2.41 0 0 0-1.549.828l-16.128-13.28c.16-.188.299-.391.425-.604l63.902 28.101a6.193 6.193 0 0 0-.094.238zM101.15 10.025l3.062-.169a3.568 3.568 0 0 0 3.92 2.934 3.567 3.567 0 0 0 2.807-2.013l35.002 10.056a2.804 2.804 0 0 0 3.004 3.599c.229-.026.443-.087.649-.164l11.773 19.79a2.73 2.73 0 0 0-.424.568l-60.014-33.792c.114-.253.196-.523.221-.809zm64.968 35.616a2.724 2.724 0 0 0-.145-.603l9.542-3.939a3.785 3.785 0 0 0 3.642 2.743l8.54 51.423a3.293 3.293 0 0 0-.382.128l-22.926-46.871a2.762 2.762 0 0 0 1.729-2.881zm17.896 150.026c-.066.001-.132-.001-.199.003l-4.1-29.451a3.198 3.198 0 0 0 2.575-3.503 3.2 3.2 0 0 0-2.733-2.794l8.448-56.237-3.991 91.982zm-4.849-29.39l4.102 29.467c-2.104.416-3.576 2.36-3.34 4.524l-36.122 6.364-.025-.024 33.096-41.236a3.176 3.176 0 0 0 2.289.905zm-37.791 41.485c.111.694.72 1.189 1.417 1.167l-.197 43.139a1.736 1.736 0 0 0-.934.536l-31.129-23.911-8.798-6.759c.624-.979.948-2.158.804-3.401a5.22 5.22 0 0 0-.187-.853l39.024-9.918zm-44.728 16.547l-1.485 45.97a3.237 3.237 0 0 0-.606.009 3.191 3.191 0 0 0-.892.252l-29.905-37.376c.531-.719.81-1.627.699-2.585a3.626 3.626 0 0 0-.263-.959l28.122-9.059a5.213 5.213 0 0 0 4.33 3.748zm-36.715 10.219l-.56 2.592-8.889 41.166a1.608 1.608 0 0 0-.777-.107 1.609 1.609 0 0 0-.948.459l-22.883-14.806c.212-.458.313-.975.25-1.514a2.833 2.833 0 0 0-.334-1.039l32.25-27.926a3.653 3.653 0 0 0 1.891 1.175zm-44.488 82.555l21.038-2.48a4.458 4.458 0 0 0 2.286 2.881L26.78 342.67l-9.172 19.271a3.502 3.502 0 0 0-1.604-.534l-6.51-36.119a7.599 7.599 0 0 0 5.949-8.205zm3.838 47.99l28.476-3.358c.004.049-.003.096.002.146a3.711 3.711 0 0 0 3.248 3.253l-2.017 27.04-.449 6.014c-.157-.004-.312-.012-.472.007a3.448 3.448 0 0 0-1.904.856l-27.642-31.864a3.548 3.548 0 0 0 .758-2.094zm32.647 36.42l57.308-16.195c.231.381.583.669.996.829l-18.448 31.074a2.15 2.15 0 0 0-1.193-.207 2.157 2.157 0 0 0-1.478.852l-37.498-14.758a3.467 3.467 0 0 0 .313-1.595zm103.614 18.002l19.047-23.396a4.745 4.745 0 0 0 3.441.953c2.064-.238 3.648-1.767 4.086-3.684l26.076 5.961c-.05.276-.075.561-.041.854.021.181.062.353.114.521L156.32 420.84a4.405 4.405 0 0 0-.778-1.345zm74.617-36.399c.169.125.355.225.551.307l-10.108 8.393 9.557-8.7zm28.274-25.237a2.865 2.865 0 0 0-2.524 2.586l-34.287 8.892 64.06-54.641 4.847-4.135c.084.089.17.176.265.254l-30.546 47.452a2.842 2.842 0 0 0-1.815-.408zm33.931-52.322c-.097.011-.186.041-.279.061l-5.655-16.458-2.3-6.694a3.111 3.111 0 0 0 1.175-2.803 3.101 3.101 0 0 0-.759-1.699l25.061-40.398c.194.127.399.232.616.317l-17.084 67.698a2.86 2.86 0 0 0-.775-.024z"/></svg>