<svg xmlns="http://www.w3.org/2000/svg" width="640" height="640" viewBox="0 0 640 640"><path d="M301.688 322.992c-3.71 4.103-12.975-9.82-24.522-10.375-11.55-.593-19.587 12.669-6.356 16.715 13.275 4.047 16.446.876 20.194 5.746 3.737 4.923 2.592 16.742.272 20.211-1.134 1.725-3.982 4.668-4.884 5.49-7.3 6.558 4.318 17.588 14.111 7.203 9.821-10.389 2.253-34.659 8.687-36.347 9.795-2.613 2.294 15.572 14.436 15.884 6.555.133 4.113-12.764 3.736-21.357-.581-12.99-17.901-11.846-25.674-3.17zm19.589-25.969c29.365 1.958 51.061-.297 70.392-.607 19.346-.269 18.672-24.97.58-27.103-27.102-3.156-56.237-3.438-71.538-.269-19.789 4.102-25.091 26.24.566 27.979zm25.416 12.68c-6.666 15.584-13.585 36.006-10.415 52.803 3.467 18.172 12.706 18.172 23.081 3.764 7.161-9.983 11.535-42.143 10.131-56.566-1.428-14.122-18.98-8.997-22.797-.001zm54.124 8.013c-12.979.878-21.25 13.627-22.423 21.126-1.74 11.417-1.376 25.338 4.046 30.922 10.065 10.44 27.035 13.49 38.758-5.409 4.086-6.582-5.057-10.227-7.971-5.772-4.682 7.08-8.538 3.924-12.561 3.897-7.81 0-10.091-6.88-8.836-12.665 0 0 28.654.899 30.463-3.697 2.631-6.735-1.621-29.643-21.476-28.402zm6.095 23.013l-14.663 1.258c.689-18.806 16.026-9.54 14.663-1.258zm62.297 13.266c-.351 10.588-12.344 5.624-13.179-4.331-.474-5.193-1.688-33.66 2.78-39.38 5.408-6.92 9.522-.42 9.768 0 3.02 5.422 18.385 6.287 14.043-7.582-11.901-37.92-35.035-25.51-41.092-6.069-3.048 9.767-11.697 36.381-7.367 60.829 4.319 24.43 32.875 20.317 36.572 16.66 3.669-3.698 13.15-12.547 12.101-24.89-.851-9.472-12.98-14.274-13.626 4.763zm-236.063-96.807c-6.581-4.83-14.933-5.909-17.671.621-2.198-5.87-9.833-7.004-13.017-5.79-24.756 9.242-62.895 100.099-64.606 112.228-1.741 12.101 10.615 20.586 21.34 16.134 8.353-3.451 28.544-43.548 30.287-48.744.524-1.198 1.147-2.655 1.815-4.207 5.023 6.045 32.691 10.579 38.317 5.585.115-.052.229-.173.344-.257 2.752 5.615 5.316 23.394 7.697 30.316 3.266 9.562 22.029 23.051 26.817 1.173 4.494-20.45-18.345-97.564-31.323-107.059zm-33.584 50.653c6.056-14.663 12.62-31.27 15.378-40.563.013.109 0 .175.02.281 2.051 11.953 5.263 27.252 8.794 41.97-7.416.109-17.007-.888-24.192-1.688z" fill="#0068B6"/><path fill="#231815" d="M493.339 267.3c5.401 0 9.531 4.344 9.531 9.74 0 5.462-4.13 9.833-9.531 9.833-5.395 0-9.632-4.371-9.632-9.821 0-6.287 5.143-9.752 9.632-9.752zm-.013 18.346c4.763.04 8.08-3.954 8.08-8.594 0-4.503-3.237-8.553-8.067-8.553-4.531 0-8.12 3.686-8.12 8.662 0 4.962 3.735 8.485 8.107 8.485z"/><path fill="#231815" d="M489.488 283.191v-12.208h4.432c.93 0 1.619.121 2.057.351.44.214.803.607 1.086 1.131.284.528.419 1.147.419 1.834 0 .934-.236 1.675-.715 2.241-.48.565-1.175.932-2.091 1.093.37.217.653.444.849.674.393.472.74.985 1.041 1.566l1.745 3.317h-1.667l-1.333-2.535c-.515-1-.909-1.674-1.168-2.013-.265-.349-.519-.577-.761-.701-.253-.108-.596-.174-1.04-.174h-1.525v5.422h-1.329zm1.328-6.825h2.84c.63 0 1.092-.069 1.415-.216.32-.149.575-.394.765-.715.189-.31.284-.687.284-1.12 0-.619-.177-1.093-.541-1.456-.364-.352-.89-.528-1.604-.528h-3.159v4.035z"/></svg>