<svg xmlns="http://www.w3.org/2000/svg" width="640" height="640" viewBox="0 0 640 640"><path fill="#004380" d="M122.19 267.913c-14.031 0-27.198 5.422-37.006 15.258C75.379 292.99 70 306.165 70 320.26c0 29.053 22.912 51.827 52.19 51.827 14.618 0 27.364-4.878 36.864-14.188l-10.798-10.762a37.95 37.95 0 0 1-17.606 9.675l-.396.078v-17.161h.333c3.25-.084 6.528-.438 9.745-1.126 10.249-2.217 17.577-5.512 22.431-10.161 5.051-4.888 7.839-11.711 7.839-19.271 0-21.967-22.605-41.258-48.412-41.258zm14.956 56.317c-2.119.44-4.333.708-6.543.789l-.349.064v-16.011c0-4.574 1.771-6.902 5.312-6.902.159 0 3.505.101 5.889.69v-10.577c-3.273-.516-7.578-.761-7.629-.762-9.214 0-20.188 2.583-20.188 14.891v14.794l-.512-.325c-4.714-2.832-8.35-6.964-10.816-12.307l-13.707 6.205c5.788 10.666 14.361 18.319 24.81 22.126l.226.079v19.795l-.423-.135c-16.428-4.251-28.369-19.574-28.369-36.385 0-20.301 16.767-36.772 37.345-36.772 18.316 0 33.764 11.735 33.764 25.683-.002 7.412-6.144 12.381-18.81 15.06z"/><path d="M303.178 348.075c-4.954 0-5.324-3.236-5.324-8.008v-15.305h10.635v-10.187h-10.635v-12.64h-13.157v12.64h-10.774v10.187h10.774v18.067c0 11.728 6.775 15.475 15.256 15.475h8.713v-10.229h-5.896M180.594 313.2h12.967v44.035h-12.967zm14.563-12.982c0 4.552-3.716 8.255-8.231 8.255-4.565 0-8.264-3.703-8.264-8.255a8.262 8.262 0 0 1 8.264-8.265c4.515.001 8.231 3.698 8.231 8.265m41.22 25.402c0 7.824 5.579 11.447 12.223 13.261 6.386 1.73 10.346 2.337 10.346 5.166 0 3.888-3.628 4.819-8.635 4.819-6.713 0-11.956-2.324-12.13-2.488l-1.469 9.63c.764.75 8.192 2.259 16.537 2.259 16.365 0 18.606-9.668 18.606-13.953 0-5.776-2.228-9.738-10.089-12.761-3.171-1.207-7.305-2.139-8.873-2.58-1.622-.44-3.349-1.216-3.349-3.176 0-2.165 1.811-3.379 4.925-3.625 4.704-.338 9.464-.098 14.634 2.824l.248-9.365c-4.896-2.768-8.099-3.53-14.04-3.53-8.866 0-18.934 3.71-18.934 13.519m96.74-23.069c-4.499 3.013-7.409 6.686-7.409 13.151 0 11.547 9.803 14.223 16.142 16.543 10.397 3.81 13.792 5.929 13.792 8.878 0 2.222-1.184 5.953-7.873 5.953-5.724 0-12.056-1.467-20.39-4.937l-1.361 12.586c7.751 2.258 14.684 3.991 24.135 3.375 11.565-.72 19.773-7.951 19.773-17.164 0-5.952-2.706-11.263-7.762-14.043-6.201-3.438-11.543-4.304-17.495-7.224-1.586-.786-5.221-2.33-5.221-4.993 0-2.253 1.085-3.449 4.175-4.384 3.578-1.054 15.946-1.042 22.223 2.159l.484-11.977c-12.225-3.007-25.643-3.272-33.213 2.077m60.441 19.706c5.226-.873 7.94 1.622 8.619 2.664-3.626 4.985-11.921 7.309-16.861 7.309-.041-6.202 4.237-9.213 8.242-9.973m-19.695 14.021c0 8.885 4.84 17.169 12.794 20.377 8.238 3.317 19.109 1.709 26.533-6.854l-7.305-6.268c-4.429 4.025-8.389 4.401-11.16 4.401-5.317 0-8.091-2.431-8.751-6.305 4.44-.189 11.312-1.561 15.707-3.626 5.134-2.395 9.984-6.543 12.165-11.715-1.388-6.37-8.638-14.094-18.885-14.094-9.631.001-21.098 6.369-21.098 24.084zm141.454-14.021c5.2-.873 7.937 1.622 8.624 2.664-3.634 4.985-11.939 7.309-16.874 7.309-.029-6.202 4.233-9.213 8.25-9.973m-19.767 14.021c0 8.885 4.902 17.169 12.871 20.377 8.212 3.317 19.086 1.709 26.534-6.854l-7.379-6.268c-4.387 4.025-8.336 4.401-11.107 4.401-5.304 0-8.094-2.431-8.724-6.305 4.378-.189 11.224-1.561 15.695-3.626 5.142-2.395 9.989-6.543 12.141-11.715-1.377-6.37-8.688-14.094-18.856-14.094-9.634.001-21.175 6.369-21.175 24.084zm-278.912-16.687V313.2H203.67v44.035h12.968v-21.47c.002-8.348 6.3-12.388 16.642-10.592v-12.062c-9.289.001-13.72 1.733-16.642 6.48m214.442 0V313.2h-12.934v44.035h12.934v-21.47c.009-8.348 6.327-12.388 16.688-10.592v-12.062c-9.293.001-13.77 1.733-16.688 6.48m122.25 0V313.2h-12.982v44.035h12.982v-21.47c.004-8.348 6.29-12.388 16.67-10.592v-12.062c-9.284.001-13.747 1.733-16.67 6.48m-70.898-6.555l-8.608 32.313-8.61-32.313h-13.978l14.477 44.357h15.953l14.479-44.357H482.03" fill="#888"/></svg>