<svg xmlns="http://www.w3.org/2000/svg" width="640" height="640" viewBox="0 0 640 640"><path d="M317.879 270.47h-37.836s2.267-13.278-16.376-13.278c-18.634 0-18.063 12.395-9.598 14.966 9.32 2.831 34.085 7.452 53.082 17.219 9.89 5.084 13.562 14.974 13.562 14.974v-70.873h105.596v32.473h-68.326v14.11h58.723v29.933h-58.723v15.817h68.885v33.596h-106.45v-22.869s-7.908 28.251-56.185 27.38c-62.673-1.129-57.595-48.276-57.595-48.276h38.959s-2.819 16.089 21.18 16.089c26.258 0 16.376-15.238 10.447-17.511-22.736-8.65-66.632-6.486-66.911-46.302-.26-36.16 37.257-39.808 54.206-39.808 59.575-.001 53.36 42.36 53.36 42.36zm-89.673 116.362c-.532-4.901-3.8-7.008-8.504-7.008-3.833 0-7.687 1.391-7.687 5.854 0 4.227 5.483 4.848 11.006 6.1 5.465 1.242 10.942 3.168 10.942 9.887 0 7.293-7.153 10.227-13.391 10.227-7.681 0-14.167-3.746-14.167-12.099h4.314c0 5.759 4.8 8.257 9.992 8.257 4.126 0 8.689-1.301 8.689-6.244 0-4.703-5.477-5.516-10.941-6.716-5.479-1.198-10.994-2.786-10.994-9.069 0-6.964 6.193-10.042 12.433-10.042 7.006 0 12.326 3.313 12.624 10.854h-4.316zm8.86-10.034h4.571v14.736h18.047v-14.736h4.568v34.281h-4.568v-15.704h-18.047v15.704h-4.571zm59.094 17.136c0-6.909-3.503-14.109-11.858-14.109-8.352 0-11.855 7.2-11.855 14.109 0 6.914 3.503 14.115 11.855 14.115 8.354 0 11.858-7.201 11.858-14.115h4.565c0 9.318-5.523 17.957-16.423 17.957-10.897 0-16.413-8.639-16.413-17.957 0-9.311 5.515-17.956 16.413-17.956 10.899 0 16.423 8.646 16.423 17.956h-4.565zm8.2-17.136h23.663v3.838h-19.106v10.898h17.81v3.843l-17.81-.002v11.857h19.247v3.847H304.36zm28.79 0h4.559v34.281h-4.559zm30.137 10.034c-.533-4.901-3.795-7.008-8.498-7.008-3.842 0-7.689 1.391-7.689 5.854 0 4.227 5.48 4.848 10.996 6.1 5.471 1.242 10.955 3.168 10.955 9.887 0 7.293-7.16 10.227-13.404 10.227-7.668 0-14.16-3.746-14.16-12.099h4.322c0 5.759 4.811 8.257 9.99 8.257 4.125 0 8.68-1.301 8.68-6.244 0-4.703-5.471-5.516-10.941-6.716-5.477-1.198-10.986-2.786-10.986-9.069 0-6.964 6.188-10.042 12.436-10.042 7.006 0 12.338 3.313 12.619 10.854h-4.32zm9.35-10.034h4.566l-.002 14.736h18.043v-14.736h4.568l-.005 34.281h-4.563v-15.704h-18.043v15.704h-4.564zm39.123 20.112h11.603l-5.699-15.982h-.102l-5.802 15.982-1.44 3.842-3.845 10.327h-4.705l13.394-34.281h5.039l13.393 34.281h-5.039l-3.746-10.327H410.32z"/></svg>