<svg xmlns="http://www.w3.org/2000/svg" width="640" height="640" viewBox="0 0 640 640"><path d="M159.191 310.5c-21.562 0-39.633 15.578-44.108 36.334h-9.698v.008a8.895 8.895 0 0 0-.4-.008c-5.515 0-9.984 4.604-9.984 10.281 0 5.679 4.47 10.281 9.984 10.281.133 0 .267-.004.4-.008v.008h9.822c4.67 20.484 22.612 35.793 43.985 35.793 24.912 0 45.18-20.79 45.18-46.346-.001-25.552-20.269-46.343-45.181-46.343zm0 80.606c-18.251 0-33.1-15.371-33.1-34.263 0-18.894 14.849-34.263 33.1-34.263s33.099 15.369 33.099 34.263c0 18.892-14.848 34.263-33.099 34.263zm158.27-44.574c-.133 0-.268.002-.4.008v-.008h-9.821c-4.67-20.485-22.612-35.792-43.985-35.792-24.913 0-45.18 20.791-45.18 46.343 0 25.557 20.268 46.345 45.18 46.345 21.561 0 39.633-15.577 44.108-36.333h9.699v-.009c.132.005.267.009.4.009 5.513 0 9.984-4.603 9.984-10.283-.001-5.678-4.471-10.28-9.985-10.28zm-54.206 44.817c-18.251 0-33.1-15.371-33.1-34.266 0-18.891 14.849-34.262 33.1-34.262 18.253 0 33.101 15.371 33.101 34.262 0 18.895-14.849 34.266-33.101 34.266zm-105.336-88.758c.667-.015 16.388-.511 23.067-12.13.855-1.487 1.439-2.878 1.836-4.197l1.825-1.752c10.483-10.069 9.783-16.408 7.778-23.649-.783-2.824-1.458-5.263-.7-8.185 2.169-8.346 7.153-9.796 7.512-9.89l2.778-.586-1.188-5.628-2.815.594c-.302.063-6.374 1.444-10.124 9.269l-1.08.582c-.33.178-8.09 4.478-11.101 16.069-1.425 5.48-.2 9.501.882 13.048 1.207 3.957 2.078 6.816-.593 11.462-5.051 8.789-18.086 9.244-18.212 9.247l-2.875.067.132 5.75 2.878-.071zm23.357-38.06c1.05-4.045 2.769-6.935 4.371-8.908.055 2.507.667 4.729 1.233 6.774 1.317 4.757 2.381 8.617-3.836 15.517-.266-1.205-.613-2.351-.95-3.458-.984-3.229-1.835-6.016-.818-9.925zm200.1 110.184a17.551 17.551 0 0 1-7.357 1.585c-2.874 0-5.466-.525-7.769-1.58-2.306-1.054-4.26-2.475-5.867-4.267-1.606-1.79-2.844-3.864-3.711-6.227-.866-2.36-1.299-4.849-1.299-7.46s.42-5.098 1.269-7.457c.845-2.361 2.069-4.437 3.679-6.228 1.605-1.792 3.561-3.212 5.865-4.267 2.305-1.053 4.915-1.58 7.833-1.58 1.438 0 2.78.168 4.027.507 1.246.339 2.399.783 3.456 1.331 1.057.552 1.977 1.185 2.761 1.904.78.72 1.403 1.437 1.872 2.156l3.803-2.792c-.76-1.099-1.711-2.084-2.854-2.957a19.063 19.063 0 0 0-3.804-2.244 22.79 22.79 0 0 0-4.472-1.448 22.839 22.839 0 0 0-4.853-.517c-3.341 0-6.437.594-9.291 1.776-2.854 1.184-5.327 2.821-7.42 4.914-2.092 2.092-3.732 4.579-4.916 7.453-1.185 2.875-1.776 6.024-1.776 9.449 0 3.426.581 6.574 1.745 9.451 1.161 2.874 2.779 5.358 4.852 7.452 2.07 2.094 4.545 3.731 7.42 4.915 2.875 1.185 6.003 1.776 9.387 1.776 2.029 0 3.9-.228 5.613-.677 1.711-.453 3.275-1.063 4.693-1.837 1.415-.774 2.663-1.669 3.74-2.687a18.767 18.767 0 0 0 2.76-3.237l-3.552-2.283c-1.564 2.328-3.509 4.019-5.834 5.076zm38.623-2.156v-13.001c0-1.817-.296-3.404-.888-4.756-.594-1.353-1.418-2.474-2.474-3.361-1.058-.889-2.285-1.556-3.681-1.998-1.394-.444-2.896-.666-4.502-.666-2.537 0-4.811.402-6.816 1.204-2.01.803-3.627 1.818-4.854 3.044l2.411 2.855c1.055-1.057 2.346-1.902 3.867-2.539 1.522-.633 3.172-.95 4.948-.95 2.579 0 4.544.63 5.896 1.889 1.354 1.261 2.031 3.169 2.031 5.729v.943c-2.707 0-5.317.097-7.834.287-2.515.191-4.746.615-6.69 1.273-1.944.657-3.498 1.654-4.661 2.99-1.164 1.336-1.744 3.15-1.744 5.44 0 1.656.327 3.055.983 4.198.655 1.145 1.479 2.078 2.474 2.802a9.818 9.818 0 0 0 3.297 1.558c1.205.316 2.38.477 3.521.477 2.409 0 4.47-.434 6.183-1.3 1.711-.866 3.243-2.293 4.597-4.281h.129c0 .803.04 1.629.126 2.473.085.847.19 1.629.317 2.347h3.867c-.168-.846-.297-1.882-.38-3.107a53.208 53.208 0 0 1-.123-3.55zm-4.059-5.961c0 1.311-.212 2.558-.636 3.74a9.503 9.503 0 0 1-1.84 3.141c-.803.909-1.797 1.629-2.979 2.156-1.185.529-2.538.792-4.061.792-.846 0-1.68-.094-2.505-.284a6.895 6.895 0 0 1-2.251-.952 4.907 4.907 0 0 1-1.618-1.743c-.402-.719-.604-1.607-.604-2.665 0-1.396.465-2.514 1.396-3.359.93-.846 2.124-1.491 3.583-1.936 1.458-.443 3.086-.738 4.884-.888a66.157 66.157 0 0 1 5.359-.222h1.269v2.22h.003zm26.51-36.087c-3.426 0-5.963.972-7.61 2.917-1.648 1.945-2.474 4.608-2.474 7.991v8.118h-6.215v3.613h6.215v26.067h4.312V353.15h6.978v-3.613h-6.978v-7.61c0-1.058.075-2.053.221-2.982.15-.93.424-1.743.826-2.44a4.083 4.083 0 0 1 1.712-1.617c.739-.383 1.681-.571 2.822-.571.593 0 1.12.043 1.587.127.464.085.93.19 1.396.316l.76-3.805a9.251 9.251 0 0 0-1.776-.349 17.762 17.762 0 0 0-1.776-.095zm9.577 4.565c-.763 0-1.46.285-2.094.857-.635.57-.952 1.3-.952 2.187 0 .89.317 1.618.952 2.189.634.568 1.331.855 2.094.855.76 0 1.458-.285 2.092-.855.636-.571.951-1.3.951-2.189 0-.887-.315-1.616-.951-2.187-.634-.572-1.332-.857-2.092-.857zm-2.157 14.461h4.312v29.681h-4.312zm40.336 5.137h-.128c-1.185-1.902-2.812-3.36-4.885-4.376-2.071-1.016-4.186-1.522-6.341-1.522-2.327 0-4.43.402-6.312 1.205s-3.488 1.903-4.818 3.298a14.979 14.979 0 0 0-3.107 4.884c-.741 1.86-1.11 3.848-1.11 5.961 0 2.157.369 4.165 1.11 6.026.738 1.859 1.775 3.455 3.107 4.786 1.331 1.333 2.938 2.379 4.818 3.141 1.882.76 3.984 1.142 6.312 1.142 2.155 0 4.28-.508 6.374-1.523 2.093-1.014 3.71-2.451 4.852-4.311h.128v5.581c0 1.606-.211 3.116-.636 4.534-.422 1.416-1.088 2.651-1.997 3.71-.911 1.056-2.104 1.892-3.583 2.505-1.48.613-3.276.921-5.391.921a13.97 13.97 0 0 1-6.5-1.588c-2.053-1.057-3.669-2.346-4.852-3.866l-3.108 3.297c1.776 1.859 3.91 3.318 6.405 4.377a19.964 19.964 0 0 0 7.863 1.587c3.299 0 5.983-.508 8.057-1.521 2.068-1.017 3.708-2.284 4.913-3.808 1.206-1.521 2.03-3.193 2.473-5.008.444-1.819.667-3.531.667-5.139V349.54h-4.312v5.134zm-.349 14.05c-.571 1.416-1.365 2.631-2.38 3.645a10.405 10.405 0 0 1-3.613 2.347c-1.396.55-2.917.824-4.567.824-1.775 0-3.36-.307-4.754-.92-1.398-.612-2.57-1.446-3.522-2.505a11.138 11.138 0 0 1-2.188-3.678c-.507-1.396-.761-2.876-.761-4.439s.254-3.046.761-4.44a11.156 11.156 0 0 1 2.188-3.679c.952-1.056 2.124-1.902 3.522-2.538 1.394-.633 2.979-.95 4.754-.95 1.65 0 3.172.317 4.567.95a11.606 11.606 0 0 1 3.613 2.538 11.595 11.595 0 0 1 2.38 3.679c.569 1.396.855 2.875.855 4.44 0 1.732-.285 3.308-.855 4.726zm16.013-37.453h4.312v47.946h-4.312zm38.75 44.839a50.805 50.805 0 0 1-.128-3.552v-13.001c0-1.817-.295-3.402-.888-4.756-.592-1.353-1.417-2.474-2.474-3.361-1.057-.889-2.283-1.556-3.679-1.998-1.396-.444-2.896-.666-4.502-.666-2.538 0-4.811.402-6.818 1.204-2.008.803-3.626 1.818-4.854 3.044l2.411 2.855c1.058-1.057 2.347-1.902 3.87-2.539 1.521-.633 3.169-.95 4.944-.95 2.579 0 4.547.631 5.898 1.889 1.353 1.261 2.03 3.169 2.03 5.729v.943c-2.707 0-5.317.097-7.833.287-2.515.191-4.745.615-6.689 1.273-1.945.657-3.499 1.654-4.662 2.99s-1.744 3.15-1.744 5.44c0 1.656.327 3.055.984 4.198.652 1.146 1.479 2.078 2.471 2.802a9.796 9.796 0 0 0 3.3 1.558c1.205.316 2.377.477 3.519.477 2.41 0 4.472-.434 6.184-1.3 1.713-.866 3.245-2.293 4.599-4.281h.127c0 .803.042 1.629.128 2.473.083.847.189 1.629.316 2.347H545c-.169-.843-.297-1.877-.38-3.105zm-4.184-9.512c0 1.311-.213 2.558-.636 3.74a9.535 9.535 0 0 1-1.839 3.141c-.804.909-1.799 1.629-2.981 2.156-1.185.529-2.537.792-4.059.792-.847 0-1.68-.094-2.506-.284a6.895 6.895 0 0 1-2.251-.952 4.88 4.88 0 0 1-1.618-1.743c-.403-.719-.604-1.607-.604-2.665 0-1.396.466-2.514 1.397-3.359.93-.846 2.125-1.491 3.581-1.936 1.461-.443 3.088-.738 4.885-.888a66.182 66.182 0 0 1 5.36-.222h1.268v2.22h.003z"/></svg>