<svg xmlns="http://www.w3.org/2000/svg" width="640" height="640" viewBox="0 0 640 640"><path fill="#24318F" d="M231.852 293.903c10.86 0 13.273 1.677 17.425 6.504l26.635 31.218c.375.445.591.568 1.024.568l-.002-38.293 10.286.003-.007 51.185h-11.021c-7.277-.004-10.302-.574-14.727-5.785l-27.472-32.233c-.372-.453-.604-.58-1.035-.58l.003 38.602-10.288.003v-51.182l9.179-.01zm-50.954 7.299l26.038.003c1.249 0 2.167-.375 2.787-1.531l3.042-5.772-37.194.002c-16.553 0-24.6 6.007-24.6 18.339v14.135c0 13.137 8.283 18.712 24.607 18.712l32.277.004c1.252 0 2.165-.373 2.79-1.528l3.041-5.772-32.8.002c-8.585 0-11.657-2.928-11.657-8.704v-6.964l33.992.002c1.251 0 2.167-.37 2.789-1.526l3.04-5.772-39.821.001v-4.242c.001-4.887 1.107-9.389 11.669-9.389zm147.847 0l26.043.003c1.25 0 2.168-.375 2.787-1.531l3.041-5.772-37.194.002c-16.552 0-24.599 6.007-24.599 18.339v14.135c0 13.137 8.282 18.712 24.607 18.712l32.281.004c1.246 0 2.162-.373 2.785-1.528l3.041-5.772-32.799.002c-8.586 0-11.658-2.928-11.658-8.704v-6.964l33.994.002c1.251 0 2.165-.37 2.787-1.526l3.041-5.772-39.822.001v-4.242c.001-4.887 1.107-9.389 11.665-9.389zm74.694 26.567c7.001 2.31 9.145 3.29 9.145 5.952 0 2.312-1.381 4.07-10.159 4.07l-30.113-.002c-1.252 0-2.166.373-2.787 1.528l-3.041 5.771 42.645.006c17.237 0 23.682-5.394 23.682-12.875 0-4.333-2.458-10.071-18.617-15.372l-17.034-5.588c-7.004-2.308-9.142-3.325-9.142-5.99 0-2.119 1.205-4.067 10.154-4.067l25.479.004c1.252 0 2.165-.376 2.784-1.531l3.046-5.772-38.01.005c-17.236 0-23.683 5.387-23.683 12.869 0 4.334 2.458 10.104 18.619 15.403l17.032 5.589zm148.881 17.325c17.236 0 23.68-5.394 23.68-12.875 0-4.333-2.456-10.071-18.618-15.372l-17.031-5.588c-7.004-2.308-9.146-3.325-9.146-5.99 0-2.119 1.38-4.067 10.154-4.067l25.48.004c1.251 0 2.167-.376 2.785-1.531l3.046-5.772-38.011.005c-17.235 0-23.682 5.387-23.682 12.869 0 4.334 2.457 10.104 18.619 15.403l17.032 5.59c7.004 2.31 9.144 3.29 9.144 5.952 0 2.122-1.379 4.07-10.155 4.07l-34.679-.001-26.821-43.889h-10.18c-7.932 0-11.982 2.193-15.688 8.238l-26.241 42.954h17.824l21.664-38.306c.524-.929.954-.914 1.399-.914l18.063 31.916-19.634-.001c-1.249 0-2.166.373-2.784 1.528l-3.044 5.771 86.824.006zM67.615 318.725h23.932v23.929H67.615z"/><path fill="#24318F" d="M143.622 292.414c2.821 10.887-6.739 17.411-15.982 21.738-2.449 1.148-3.653 2.238-3.792 3.55-.15 1.441.439 3.249 2.305 5.944 8.218 11.875 24.855 27.238 42.312 36.324.446.234.167.428-.07.553-.443.238-1.011.375-2.05.104-26.177-6.759-52.828-26.091-61.898-39.493-1.424-2.101-1.783-3.654-1.653-4.707.147-1.196.999-2.275 3.453-3.453 6.369-3.046 17.789-9.738 15.016-17.883-3.984-11.692-26.649-11.507-44.539-6.116-3.772 1.141-7.897 3.157-11.604 5.394-.354.216-1.237.394-1.104-.472l.4-2.53c.232-1.205 1.568-2.173 2.492-2.642 28.223-14.282 72.652-11.989 76.714 3.689z"/></svg>