<svg xmlns="http://www.w3.org/2000/svg" width="640" height="640" viewBox="0 0 640 640"><g fill="#040000"><path d="M151.564 363.979l-25.827-53.488-7.804 53.488H96.602l13.438-87.83h20.197l24.615 51.498 8.14-51.498h21.185l-13.553 87.83zm142.475 0l-19.387-87.83h20.031l12.162 55.308 28.415-55.308h21.818l-45.016 87.83zm97.295 0l-4.232-16.861h-28.326l-9.056 16.861h-22.347l47.176-87.831h14.755l22.37 87.831h-20.34zm-8.92-35.524l-4.339-17.269-9.273 17.269h13.612zm72.464 35.524l-15.316-29.858-4.409 29.858h-21.385l13.04-87.831h17.617c11.006 0 19.568 2.325 25.454 6.902 6.041 4.7 9.105 11.533 9.105 20.309 0 6.768-1.625 12.844-4.819 18.057-2.928 4.766-7.627 8.145-13.978 10.054l16.674 32.509h-21.983zm-11.16-49.189c3.85 0 7.172-1.085 9.842-3.217 2.57-2.055 3.821-4.456 3.821-7.346 0-3.304-.973-5.573-2.974-6.942-1.946-1.328-4.994-2.103-9.072-2.297l-2.914 19.754 1.297.048z"/><path d="M508.271 365c-9.945 0-19.309-3.994-29.466-12.568l-1.488-1.261 12.266-15.133 1.531 1.149c3.816 2.866 6.424 4.587 8.978 6.243 2.511 1.635 5.003 2.459 7.411 2.459 2.568 0 4.695-.818 6.5-2.503 1.765-1.64 2.622-3.557 2.622-5.856 0-2.031-.841-3.783-2.573-5.364-1.969-1.79-5.03-3.561-9.099-5.256-4.493-1.864-7.631-3.49-9.597-4.97-2.004-1.506-4.001-3.875-5.931-7.038-1.995-3.258-3.008-7.315-3.008-12.05 0-7.999 2.963-14.725 8.802-19.993C501 277.646 508.378 275 517.145 275c8.814 0 17.192 3.55 24.902 10.543l1.352 1.229-11.595 15.171-1.564-1.105c-3.103-2.194-5.712-3.875-7.756-4.989-1.802-.981-3.6-1.481-5.339-1.481-2.701 0-4.824.74-6.481 2.256-1.626 1.489-2.387 3.265-2.387 5.587 0 1.943.825 3.553 2.593 5.066 2.041 1.738 5.665 3.737 10.772 5.95 4.608 2.878 7.604 4.983 9.292 6.514 1.755 1.591 3.4 3.942 4.889 6.986 1.513 3.1 2.279 6.517 2.279 10.166 0 7.774-2.953 14.483-8.772 19.94-5.783 5.419-12.868 8.167-21.059 8.167m-277.956-.175c-24.725 0-44.838-20.114-44.838-44.836 0-24.721 20.113-44.839 44.838-44.839 24.722 0 44.836 20.118 44.836 44.839.001 24.722-20.114 44.836-44.836 44.836m24.071-44.836c0-13.271-10.799-24.069-24.07-24.069-13.274 0-24.072 10.798-24.072 24.069 0 13.271 10.798 24.066 24.072 24.066 13.271.001 24.07-10.794 24.07-24.066"/></g></svg>