<svg xmlns="http://www.w3.org/2000/svg" width="640" height="640" viewBox="0 0 640 640"><path fill="#231815" d="M269.695 273.206a4.964 4.964 0 0 0-2.983-4.568l-76.522-33.227a4.953 4.953 0 0 0-6.93 4.547v99.457a4.957 4.957 0 0 0 9.914 0v-30.432l73.503-31.234a4.96 4.96 0 0 0 3.018-4.543m95.689 90.673h-17.732v-47.718a4.956 4.956 0 0 0-9.912 0v52.677a4.956 4.956 0 0 0 4.957 4.957h22.688c2.738 0 4.96-2.219 4.96-4.957s-2.223-4.959-4.961-4.959m44.927 0h-17.732v-47.718a4.96 4.96 0 0 0-4.96-4.958 4.956 4.956 0 0 0-4.955 4.958v52.677a4.956 4.956 0 0 0 4.955 4.957h22.692a4.958 4.958 0 0 0 0-9.916m-104.443-49.334a4.958 4.958 0 0 0-9.373 0l-18.168 52.675a4.958 4.958 0 1 0 9.371 3.236l13.484-39.091 13.481 39.091a4.96 4.96 0 0 0 6.302 3.07 4.957 4.957 0 0 0 3.071-6.305l-18.168-52.676zm148.428-2.657a4.96 4.96 0 0 0-6.787 1.759l-13.185 22.417-13.187-22.417a4.96 4.96 0 0 0-6.787-1.759 4.96 4.96 0 0 0-1.76 6.787l16.775 28.516v21.646a4.96 4.96 0 0 0 9.917 0v-21.646l16.773-28.516a4.958 4.958 0 0 0-1.759-6.787"/><path fill="#231815" d="M269.234 381.314a4.942 4.942 0 0 0-1.443-3.417l-.003-.002-16.079-16.077c9.083-4.223 15.409-13.407 15.409-24.065 0-14.638-11.912-26.549-26.551-26.549h-20.835a4.957 4.957 0 0 0-4.956 4.958v78.925h-4.418a4.957 4.957 0 1 0 0 9.914h9.374a4.958 4.958 0 0 0 4.958-4.958V321.12h15.877c9.171 0 16.634 7.462 16.634 16.634 0 9.173-7.463 16.636-16.634 16.636h-4.06a4.957 4.957 0 1 0 0 9.914h3.666l17.102 17.102-3.066 3.064a4.958 4.958 0 1 0 7.01 7.011l6.568-6.566.003-.003a4.925 4.925 0 0 0 1.442-3.403c.001-.036.011-.068.011-.103 0-.031-.009-.062-.009-.092"/><path fill="#87CEFA" d="M197.469 249.38c-2.363-1.026-4.296.241-4.296 2.818v41.327c0 2.576 1.939 3.86 4.312 2.852l50.381-21.408c2.373-1.007 2.378-2.673.016-3.697l-50.413-21.892z"/></svg>