<svg xmlns="http://www.w3.org/2000/svg" width="640" height="640" viewBox="0 0 640 640"><g fill="#040000"><path d="M148.362 364.815l-26.318-54.504-7.953 54.504H92.354l13.695-89.5h20.58l25.083 52.478 8.295-52.478h21.588l-13.811 89.5zm145.183 0l-19.754-89.5h20.41l12.394 56.36 28.955-56.36h22.233l-45.872 89.5zm99.145 0l-4.313-17.182h-28.864l-9.228 17.182h-22.771l48.072-89.5h15.035l22.796 89.5H392.69zm-9.089-36.199l-4.421-17.598-9.45 17.598h13.871zm73.841 36.199l-15.608-30.426-4.492 30.426H415.55l13.288-89.5h17.952c11.215 0 19.94 2.369 25.938 7.033 6.155 4.789 9.278 11.752 9.278 20.695 0 6.896-1.656 13.088-4.911 18.4-2.983 4.855-7.771 8.299-14.243 10.244l16.991 33.127h-22.401zm-11.373-50.125c3.923 0 7.309-1.105 10.029-3.278 2.619-2.094 3.894-4.541 3.894-7.485 0-3.367-.991-5.679-3.03-7.074-1.982-1.354-5.089-2.143-9.244-2.341l-2.97 20.13 1.321.048z"/><path d="M511.85 365.855c-10.135 0-19.676-4.07-30.026-12.808l-1.517-1.284 12.499-15.421 1.561 1.172c3.889 2.92 6.546 4.674 9.148 6.361 2.559 1.666 5.098 2.506 7.552 2.506 2.617 0 4.785-.834 6.624-2.551 1.798-1.671 2.672-3.624 2.672-5.968 0-2.069-.857-3.854-2.622-5.466-2.007-1.824-5.126-3.629-9.272-5.355-4.578-1.9-7.775-3.557-9.778-5.064-2.042-1.535-4.077-3.948-6.044-7.172-2.033-3.32-3.064-7.454-3.064-12.279 0-8.15 3.019-15.005 8.969-20.373 5.891-5.312 13.409-8.009 22.343-8.009 8.981 0 17.519 3.617 25.376 10.743l1.377 1.252L535.83 301.6l-1.594-1.126c-3.162-2.236-5.82-3.949-7.903-5.084-1.836-1-3.668-1.51-5.44-1.51-2.753 0-4.916.754-6.604 2.299-1.657 1.518-2.433 3.327-2.433 5.693 0 1.98.841 3.621 2.643 5.163 2.079 1.771 5.772 3.808 10.977 6.062 4.696 2.933 7.748 5.078 9.469 6.638 1.788 1.621 3.465 4.018 4.981 7.119 1.542 3.158 2.323 6.641 2.323 10.359 0 7.922-3.01 14.759-8.939 20.319-5.894 5.523-13.114 8.323-21.46 8.323m-283.24-.177c-25.194 0-45.69-20.497-45.69-45.688s20.496-45.691 45.69-45.691c25.192 0 45.689 20.5 45.689 45.691s-20.497 45.688-45.689 45.688m24.528-45.689c0-13.523-11.004-24.527-24.528-24.527-13.526 0-24.53 11.004-24.53 24.527s11.003 24.523 24.53 24.523c13.524.001 24.528-10.999 24.528-24.523"/></g></svg>