<svg xmlns="http://www.w3.org/2000/svg" width="640" height="640" viewBox="0 0 640 640"><g fill="#231815"><path d="M203.734 283.788h4.777l11.628 25.271.116-.118-.345-7.77v-17.383h3.856v29.991h-4.777l-11.628-25.271-.115.115.344 7.829v17.327h-3.856v-29.991zm36.319 0h18.708v3.455h-14.853v8.977h12.262v3.454h-12.262v10.649h14.853v3.456h-18.708v-29.991zm34.767 30.741l-3.456-1.957 9.268-14.681-8.461-12.837 3.511-2.017 7.137 11.398 7.139-11.398 3.509 2.017-8.46 12.837 9.27 14.681-3.457 1.957-8.001-13.242-7.999 13.242zm40.695-27.287h-8.29v-3.455h20.265v3.455h-8.12v26.536h-3.856v-26.536zm-91.232 71.354c-2.476 1.963-6.159 3.286-9.21 3.286-8.805 0-11.339-8.177-11.339-15.545 0-7.255 2.649-15.487 11.225-15.487 4.03 0 7.54 2.358 9.613 5.754l-3.279 2.136c-1.441-2.418-3.628-4.266-6.567-4.266-5.927 0-6.964 7.432-6.964 11.979 0 4.663 1.037 11.794 7.08 11.794 1.959 0 3.916-.516 5.586-1.547v-7.888h-7.198v-3.456h11.052v13.24zm16.175-27.227h18.709v3.46H244.31v8.971h12.265v3.455H244.31v10.652h14.857v3.455h-18.709v-29.993zm32.747 0h4.778l11.626 25.271.118-.117-.345-7.772V331.37h3.857v29.993h-4.777l-11.627-25.271-.116.11.345 7.834v17.327h-3.859v-29.994zm36.319 0h18.716v3.46h-14.858v8.971h12.266v3.455h-12.266v10.652h14.858v3.455h-18.716v-29.993zm34.09 0h10.199c5.007 0 8.977 2.357 8.977 8.174 0 3.685-2.477 7.305-6.099 8.403l7.361 12.15-3.338 2.011-7.659-13.585h-5.583v12.84h-3.858v-29.993zm8.928 13.701c3.741 0 6.212-2.13 6.212-5.527 0-2.706-1.608-4.714-5.066-4.714h-6.215v10.241h5.069zm29.003 8.117l-2.815 8.921-3.804-1.383 9.447-29.355h4.941l9.447 29.355-3.796 1.383-2.76-8.921h-10.66zm5.301-17.329l-4.259 13.87h8.514l-4.255-13.87zm32.694-1.029h-8.286v-3.46h20.259v3.46h-8.118v26.533h-3.854v-26.533zm30.217 23.078h4.201v-23.078h-4.201v-3.46h12.317v3.46h-4.258v23.078h4.258v3.455h-12.317v-3.455zm51.342-11.518c0 2.424-.171 15.493-10.651 15.493-4.838 0-10.646-3.458-10.646-15.493 0-11.969 5.7-15.539 10.646-15.539 4.779 0 10.651 3.453 10.651 15.539zm-17.269 0c0 4.375.81 11.858 6.617 11.858 5.818 0 6.623-7.483 6.623-11.858 0-4.427-.805-11.915-6.623-11.915-5.807 0-6.617 7.488-6.617 11.915zm31.142-15.02h4.777l11.627 25.271.112-.117-.346-7.772V331.37H535v29.993h-4.777l-11.624-25.271-.118.11.345 7.834v17.327h-3.854v-29.994zm-174.433-18.143a1.321 1.321 0 0 1 .01-1.854l5.187-5.187-5.187-5.182a1.325 1.325 0 0 1-.01-1.853 1.304 1.304 0 0 1 1.853 0l6.12 6.114c.243.243.376.574.376.92 0 .351-.133.684-.376.935l-6.12 6.115a1.327 1.327 0 0 1-.919.376 1.326 1.326 0 0 1-.934-.384z"/><path d="M337.78 307.492a1.309 1.309 0 0 1 0-2.617h8.641c.729 0 1.312.583 1.312 1.31a1.31 1.31 0 0 1-1.312 1.307h-8.641zm21.281-5.776a1.31 1.31 0 0 1 0-1.854l5.193-5.181-5.193-5.188v.008a1.312 1.312 0 0 1 0-1.856 1.32 1.32 0 0 1 1.855-.007l6.112 6.122c.242.242.379.574.379.921 0 .35-.137.677-.379.921l-6.112 6.123a1.33 1.33 0 0 1-.924.376c-.337 0-.678-.127-.931-.385z"/><path d="M356.298 295.981a1.302 1.302 0 0 1-1.309-1.302c0-.728.577-1.313 1.309-1.313h8.644c.729 0 1.307.585 1.307 1.313a1.3 1.3 0 0 1-1.307 1.302h-8.644z"/></g><path fill="#C8C9CA" d="M181.057 358.056c0-5.257-11.8-8.624-28.605-8.624s-28.609 3.367-28.609 8.624 11.804 14.144 28.609 14.144c16.805-.001 28.605-8.888 28.605-14.144z"/><path fill="#FFF" d="M183.919 330.891c0 18.486-12.981 30.342-31.467 30.342-18.486 0-31.468-11.855-31.468-30.342 0-18.481 12.981-49.741 31.468-49.741 18.486 0 31.467 31.26 31.467 49.741z"/><path fill="#231815" d="M152.455 363.35c-9.692.009-18.128-3.118-24.13-8.814-6.004-5.696-9.473-13.912-9.463-23.645.021-9.723 3.341-22.35 9.067-32.823 5.719-10.38 13.968-18.948 24.525-19.032 10.55.084 18.797 8.652 24.518 19.032 5.728 10.474 9.048 23.101 9.062 32.823.014 9.732-3.451 17.948-9.463 23.645-5.99 5.689-14.407 8.814-24.078 8.814h-.038zm-20.81-63.242c-5.388 9.776-8.562 22.022-8.542 30.783.121 17.401 11.785 28.089 29.353 28.221 17.56-.132 29.223-10.819 29.341-28.221.017-8.761-3.154-21.007-8.537-30.783-5.394-9.869-12.877-16.925-20.805-16.84h-.145c-7.878 0-15.305 7.031-20.665 16.84z"/><path fill="#DBDCDC" d="M144.809 352.797c-16.277-7.214-13.685-23.058-12.157-35.03 1.235-9.681 2.679-18.128 9.755-32.301-12.069 9.208-19.837 31.131-19.837 45.425 0 18.486 12.982 30.342 31.463 30.342 6.131 0 11.63-1.326 16.278-3.743-7.439-1.458-15.673-.336-25.502-4.693z"/><path fill="#231815" d="M152.455 363.35c-9.692.009-18.128-3.118-24.13-8.814-6.004-5.696-9.473-13.912-9.463-23.645.021-9.723 3.341-22.35 9.067-32.823 5.719-10.38 13.968-18.948 24.525-19.032 10.55.084 18.797 8.652 24.518 19.032 5.728 10.474 9.048 23.101 9.062 32.823.014 9.732-3.451 17.948-9.463 23.645-5.99 5.689-14.407 8.814-24.078 8.814h-.038zm-20.81-63.242c-5.388 9.776-8.562 22.022-8.542 30.783.121 17.401 11.785 28.089 29.353 28.221 17.56-.132 29.223-10.819 29.341-28.221.017-8.761-3.154-21.007-8.537-30.783-5.394-9.869-12.877-16.925-20.805-16.84h-.145c-7.878 0-15.305 7.031-20.665 16.84z"/><path fill="#231815" d="M120.023 331.658l32.522-19.685.452 16.271 27.565-16.595 1.631 2.711-32.217 19.404-.443-16.263-27.875 16.866-1.635-2.709z"/><path fill="#F00" d="M105 254.814h33.896v130.371H105z"/></svg>