<svg xmlns="http://www.w3.org/2000/svg" width="640" height="640" viewBox="0 0 640 640"><path d="M175.514 319.916c.647 30.467-25.156 55.617-55.119 55.905-30.46.294-56.709-24.906-56.392-56.443.304-30.106 25.334-55.333 56.091-55.202 30.864.133 56.013 25.912 55.42 55.74m-55.57-46.663c-25.67-.547-46.864 21.142-46.97 46.52-.106 25.73 21.212 46.984 46.662 47.077 25.698.093 46.902-21.209 47.042-46.559.142-25.833-21.277-47.479-46.734-47.038"/><path d="M97.074 332.038c-.991-1.581-2.626-2.039-4.304-2.259-3.58-.471-7.285-1.04-11.01-1.696-3.693-.649-6.423-4.172-6.353-8.194.071-4.08 2.716-7.366 6.433-7.994 3.577-.606 7.111-1.13 11.029-1.706 2.36-.346 3.281-.722 4.175-2.207 1.078 1.546 2.826 2.019 4.484 2.253 3.43.484 6.934 1.119 10.024 1.679 4.182.758 6.886 3.916 6.887 8.046 0 4.109-2.747 7.368-6.836 8.109-4.124.748-7.303 1.277-10.306 1.717-1.521.222-3.136.69-4.223 2.252m22.757 19.911c-1.249-1.806-3.278-2.096-4.977-2.337-.388-.057-.753-.107-1.111-.174-1.533-.286-3.094-.54-4.603-.789-1.204-.195-2.45-.399-3.67-.616-4.349-.775-7.143-3.966-7.117-8.13.024-4.047 3-7.387 7.237-8.122.704-.122 1.407-.247 2.111-.37 2.548-.448 5.183-.913 7.78-1.275 1.438-.2 3.122-.632 4.301-2.09.967 1.451 2.532 1.863 3.894 2.043 3.886.515 7.681 1.13 10.883 1.667 3.979.666 6.784 4.003 6.818 8.117.035 4.257-2.564 7.473-6.625 8.191-2.275.402-4.602.756-6.852 1.099-1.503.229-3.061.466-4.59.715-1.836.299-2.727.749-3.479 2.071m-.013-39.828c-1.241-1.734-3.211-2.011-4.865-2.244-.382-.055-.741-.104-1.094-.17-1.515-.281-3.055-.531-4.545-.773-1.357-.22-2.759-.447-4.13-.698-3.861-.701-6.801-4.153-6.837-8.027-.037-4 2.607-7.225 6.583-8.024 2.03-.408 4.117-.748 6.135-1.076 1.275-.208 2.595-.422 3.892-.653 2.9-.515 3.536-.694 4.812-2.334.971 1.619 2.707 2.056 4.049 2.237 3.745.5 7.511 1.101 11.022 1.676 3.713.607 6.463 3.856 6.537 7.728.082 4.266-2.528 7.751-6.347 8.47-2.554.483-5.178.879-7.714 1.265-1.351.205-2.748.416-4.122.639-1.775.286-2.668.737-3.376 1.984m22.914 19.756c-1.188-1.455-2.922-1.907-4.67-2.145-3.312-.453-6.564-1.042-9.88-1.656-3.953-.731-6.917-4.221-6.896-8.121.022-4.105 2.857-7.349 7.056-8.069 1.653-.286 3.308-.564 4.962-.844 1.559-.263 3.119-.526 4.677-.794 2.847-.489 3.515-.667 4.714-2.257.902 1.532 2.554 1.985 4.139 2.202 3.84.522 7.728 1.146 11.024 1.686 3.769.617 6.427 3.875 6.464 7.924.038 4.23-2.583 7.64-6.374 8.292a343.085 343.085 0 0 1-11.156 1.711c-1.518.211-3.108.644-4.06 2.071m78.562 4.418l-2.445-6.74h-17.058l-2.506 6.74h-9.663l15.388-39.784h10.618l15.328 39.784h-9.662zm-10.975-31.314l-6.203 17.119h12.406l-6.203-17.119zm57.664 31.314V308.44l-11.213 27.855h-3.698l-11.214-27.855v27.855h-8.469v-39.783h11.869l9.663 24.036 9.662-24.036h11.929v39.783zm15.434-39.784h8.47v39.784h-8.47zm49.844 39.784V308.44l-11.213 27.855h-3.698l-11.214-27.855v27.855h-8.469v-39.783h11.87l9.662 24.036 9.663-24.036h11.928v39.783zm13.4-19.862c0-11.989 8.769-20.576 20.758-20.576 12.049 0 20.817 8.587 20.817 20.576 0 11.988-8.769 20.578-20.817 20.578-11.989 0-20.758-8.59-20.758-20.578m32.866 0c0-7.455-4.773-13.061-12.108-13.061-7.337 0-12.049 5.605-12.049 13.061 0 7.396 4.712 13.064 12.049 13.064 7.335 0 12.108-5.668 12.108-13.064m20.939 19.862v-32.329h-11.631v-7.454h31.73v7.454h-11.57v32.329zm20.665-19.862c0-11.989 8.768-20.576 20.758-20.576 12.049 0 20.816 8.587 20.816 20.576 0 11.988-8.768 20.578-20.816 20.578-11.991 0-20.758-8.59-20.758-20.578m32.864 0c0-7.455-4.771-13.061-12.106-13.061-7.338 0-12.049 5.605-12.049 13.061 0 7.396 4.711 13.064 12.049 13.064 7.336 0 12.106-5.668 12.106-13.064m51.413 19.862l-2.446-6.74h-17.058l-2.505 6.74h-9.662l15.387-39.784h10.618l15.328 39.784h-9.662zm-10.975-31.314L488.23 322.1h12.407l-6.204-17.119zm57.663 31.314V308.44l-11.214 27.855h-3.698l-11.213-27.855v27.855h-8.469v-39.783h11.87l9.662 24.036 9.663-24.036h11.928v39.783zm15.434-39.784H576v39.784h-8.47z"/></svg>