<svg xmlns="http://www.w3.org/2000/svg" xmlns:xlink="http://www.w3.org/1999/xlink" width="640" height="640" viewBox="0 0 640 640"><path d="M316.542 255c-12.592 0-25.185 2.099-35.679 12.593-14.691 14.691-25.185 41.976-25.185 67.161h10.494c0-11.854 1.729-23.333 4.814-33.581h41.235v33.581h10.495V255h-6.174m-42.469 37.778c3.333-7.902 7.531-14.691 12.593-19.753 4.568-4.568 10.987-9.506 25.679-9.506v29.26h-38.272zm75.804 0c0-6.296 4.196-8.396 12.592-8.396h18.891v-8.395h-18.891c-12.592 0-23.087 4.198-23.087 16.791 0 20.987 33.581 12.594 33.581 25.184 0 4.197-2.1 8.396-8.396 8.396h-25.186v8.396h25.186c12.593 0 18.89-4.196 18.89-16.792 0-20.986-33.58-12.59-33.58-25.184zm47.777-16.79h10.495v58.766h-10.495zm10.495-13.704c0 2.839-2.346 5.185-5.309 5.185-2.841 0-5.187-2.346-5.187-5.185s2.346-5.185 5.187-5.185c2.964 0 5.309 2.346 5.309 5.185zm57.408 72.47H444.57c-14.693 0-23.086-5.311-23.086-17.902 0-12.593 8.393-17.777 23.086-17.777h10.493v-4.198c0-8.395-6.297-10.495-10.493-10.495h-18.89v-8.395h18.89c12.594 0 20.987 6.296 20.987 18.889m-10.495 12.594h-10.493c-8.396 0-12.593 3.086-12.593 9.382 0 6.296 4.196 9.505 12.593 9.505h10.493V307.47zM477.286 255v8.395h2.098v71.359h10.495V255"/><defs><circle id="a" cx="185.06" cy="274.877" r="16.543"/></defs><clipPath id="b"><use xlink:href="#a" overflow="visible"/></clipPath><g clip-path="url(#b)"><defs><path id="c" d="M192.22 242.161l25.433 38.148-37.408 26.049-25.308-38.148z"/></defs><clipPath id="d"><use xlink:href="#c" overflow="visible"/></clipPath><linearGradient id="e" gradientUnits="userSpaceOnUse" x1="-853.002" y1="108.764" x2="-852.608" y2="108.764" gradientTransform="matrix(49.4906 74.3727 -72.5858 50.7087 50285.8 58182.902)"><stop offset="0" stop-color="#dcdddd"/><stop offset="1" stop-color="#595757"/></linearGradient><path clip-path="url(#d)" fill="url(#e)" d="M192.22 242.161l25.433 38.148-37.408 26.049-25.308-38.148z"/></g><linearGradient id="f" gradientUnits="userSpaceOnUse" x1="-85.236" y1="557.582" x2="-79.846" y2="549.671" gradientTransform="matrix(3.3862 0 0 -3.3862 464.606 2149.654)"><stop offset="0" stop-color="#d2d2d3"/><stop offset=".551" stop-color="#959696"/><stop offset="1" stop-color="#585757"/></linearGradient><circle clip-path="url(#b)" fill="url(#f)" cx="185.06" cy="274.877" r="16.543"/><radialGradient id="g" cx="-81.509" cy="556.045" r="7.635" fx="-81.469" fy="556.001" gradientTransform="matrix(3.3862 0 0 -3.3859 464.606 2149.376)" gradientUnits="userSpaceOnUse"><stop offset="0" stop-color="#f3de29"/><stop offset="1" stop-color="#e27c16"/></radialGradient><path clip-path="url(#b)" fill="url(#g)" d="M199.011 274.877c0 7.778-6.296 13.951-13.951 13.951-7.777 0-13.95-6.296-13.95-13.951 0-7.778 6.296-13.951 13.95-13.951 7.655 0 13.951 6.296 13.951 13.951z"/><defs><circle id="h" cx="161.479" cy="318.21" r="16.543"/></defs><clipPath id="i"><use xlink:href="#h" overflow="visible"/></clipPath><g clip-path="url(#i)"><defs><path id="j" d="M168.64 285.371l25.432 38.271-37.407 26.048-25.433-38.146z"/></defs><clipPath id="k"><use xlink:href="#j" overflow="visible"/></clipPath><linearGradient id="l" gradientUnits="userSpaceOnUse" x1="-853.381" y1="108.004" x2="-852.988" y2="108.004" gradientTransform="matrix(49.4906 74.3727 -72.5858 50.7087 50225.8 58292.902)"><stop offset="0" stop-color="#dcdddd"/><stop offset="1" stop-color="#595757"/></linearGradient><path clip-path="url(#k)" fill="url(#l)" d="M168.64 285.371l25.432 38.15-37.407 26.169-25.433-38.146z"/></g><linearGradient id="m" gradientUnits="userSpaceOnUse" x1="-92.207" y1="544.795" x2="-86.817" y2="536.885" gradientTransform="matrix(3.3862 0 0 -3.3862 464.606 2149.654)"><stop offset="0" stop-color="#d2d2d3"/><stop offset=".551" stop-color="#959696"/><stop offset="1" stop-color="#585757"/></linearGradient><circle clip-path="url(#i)" fill="url(#m)" cx="161.479" cy="318.21" r="16.543"/><radialGradient id="n" cx="-88.478" cy="543.259" r="7.634" fx="-88.438" fy="543.215" gradientTransform="matrix(3.3862 0 0 -3.3859 464.606 2149.376)" gradientUnits="userSpaceOnUse"><stop offset="0" stop-color="#f3de29"/><stop offset="1" stop-color="#e27c16"/></radialGradient><circle clip-path="url(#i)" fill="url(#n)" cx="161.479" cy="318.21" r="13.95"/><defs><circle id="o" cx="208.64" cy="318.21" r="16.543"/></defs><clipPath id="p"><use xlink:href="#o" overflow="visible"/></clipPath><g clip-path="url(#p)"><defs><path id="q" d="M215.924 285.371l25.31 38.271-37.284 26.048-25.433-38.146z"/></defs><clipPath id="r"><use xlink:href="#q" overflow="visible"/></clipPath><linearGradient id="s" gradientUnits="userSpaceOnUse" x1="-853.848" y1="108.688" x2="-853.455" y2="108.688" gradientTransform="matrix(49.4906 74.3727 -72.5858 50.7087 50345.832 58292.902)"><stop offset="0" stop-color="#dcdddd"/><stop offset="1" stop-color="#595757"/></linearGradient><path clip-path="url(#r)" fill="url(#s)" d="M215.924 285.371l25.31 38.15-37.284 26.169-25.433-38.146z"/></g><linearGradient id="t" gradientUnits="userSpaceOnUse" x1="-78.275" y1="544.787" x2="-72.885" y2="536.877" gradientTransform="matrix(3.3862 0 0 -3.3862 464.606 2149.654)"><stop offset="0" stop-color="#d2d2d3"/><stop offset=".551" stop-color="#959696"/><stop offset="1" stop-color="#585757"/></linearGradient><circle clip-path="url(#p)" fill="url(#t)" cx="208.64" cy="318.21" r="16.543"/><radialGradient id="u" cx="-74.535" cy="543.259" r="7.634" fx="-74.495" fy="543.215" gradientTransform="matrix(3.3862 0 0 -3.3859 464.606 2149.376)" gradientUnits="userSpaceOnUse"><stop offset="0" stop-color="#f3de29"/><stop offset="1" stop-color="#e27c16"/></radialGradient><circle clip-path="url(#p)" fill="url(#u)" cx="208.64" cy="318.21" r="13.95"/><path d="M148.639 361.543c0-2.345 0-2.717-1.974-2.839-.372 0-.988 0-.988-.493 0-.494.37-.618.617-.618.864 0 1.852 0 2.84.124.988 0 1.975.122 2.84.122 1.481 0 3.086 0 4.567-.122h4.568c.617 0 .617.122.617 1.109v2.966c0 .368 0 .864-.494.864-.247 0-.494-.249-.617-.496-.247-.368-.37-.74-.495-1.11-.74-1.604-1.481-2.224-5.061-2.224-1.481 0-2.099 0-2.469.249-.37.247-.37.615-.37 1.234v4.566c0 1.359.124 1.359 2.223 1.359 2.715 0 3.086 0 3.333-1.48.123-.496.247-1.36.741-1.36.37 0 .494.249.494.617 0 .864-.124 1.852-.124 2.717 0 .988.124 1.976.124 2.838 0 .496-.124.742-.494.742-.495 0-.618-.742-.741-1.481-.371-1.234-.988-1.358-4.074-1.358-1.233 0-1.481 0-1.481 1.111v5.187c0 2.594 1.111 2.716 3.581 2.716 2.716 0 4.198-.371 5.185-2.841.247-.616.493-1.234.987-1.234.248 0 .371.123.371.372.123.246 0 .615 0 .987-.123 1.11-.371 2.222-.371 3.331-.122.495-.122.62-.494.62h-10.617c-.988 0-1.728 0-2.469.122-.74 0-1.357.123-1.975.123-.37 0-.617-.123-.617-.616 0-.494.617-.494.987-.494 1.852-.124 1.852-.492 1.852-2.963v-12.347zm19.26 6.914c0-1.729-.124-2.098-1.234-2.098-.617 0-.864-.124-.864-.371 0-.493.494-.493.864-.618.864-.247 2.469-.986 3.209-1.727.247-.249.37-.494.617-.494.372 0 .372.245.372.616v1.357c0 .372 0 .619.123.619.124 0 .741-.619 1.605-1.236.864-.615 2.098-1.234 3.458-1.234 1.357 0 2.715.494 3.703 1.604.987 1.112 1.111 2.348 1.111 4.2v5.43c0 1.482 0 2.347 1.358 2.47.37 0 .864.122.864.493s-.247.371-.494.371c-.988 0-2.469-.122-3.581-.122-1.11 0-2.099.122-2.962.122-.248 0-.495-.122-.495-.371 0-.371.495-.493.741-.493 1.235-.123 1.235-.864 1.235-2.47v-5.183c0-.866 0-2.1-.495-2.841-.493-.863-1.481-1.359-2.716-1.359-1.111 0-2.098.496-2.839 1.236-.74.864-.864 1.48-.864 2.592v5.555c0 1.605 0 2.347 1.235 2.47.247 0 .74.122.74.493 0 .249-.247.494-.494.494-.864 0-2.1-.123-3.21-.123-1.234 0-2.222.123-3.21.123-.247 0-.494-.123-.494-.37 0-.495.494-.495.865-.495 1.357-.122 1.357-.862 1.357-2.839v-5.802h.495zm19.013 0c0-3.209 3.21-5.186 6.543-5.186 1.234 0 2.346.247 3.581.74.741.372.987.372 1.852.372h1.975c.865 0 1.111 0 1.235.864 0 .494 0 .615-.617.615h-1.358c-.37 0-.74.125-.74.249 0 .123.123.37.247.616.247.618.371 1.111.371 1.852 0 1.358-1.605 4.939-6.667 4.939-1.481 0-2.963.615-2.963 1.357 0 .74 1.234.987 1.975.987h4.074c2.839 0 5.186 1.111 5.309 3.458 0 4.073-5.186 5.678-9.259 5.678-3.333 0-6.667-1.234-6.667-3.457 0-1.479 1.481-2.221 2.716-2.84.247-.123.987-.491.987-.74 0-.245-.74-.865-1.233-1.356-.618-.495-1.235-1.111-1.235-1.482 0-.37.247-.493 1.235-.74 1.111-.371 2.468-.864 2.468-1.111 0-.125-.494-.372-1.11-.742-1.36-.738-2.719-1.974-2.719-4.073zm6.173 15.556c1.111 0 2.593-.247 3.703-.74 1.112-.493 1.853-1.358 1.853-2.469 0-1.977-2.1-2.346-3.581-2.346-1.975 0-3.21-.125-4.197-.125-.988.494-2.223 1.358-2.223 2.595.001 1.602 1.605 3.085 4.445 3.085zm.247-11.359c2.346 0 3.209-2.223 3.209-4.197s-.986-4.445-3.086-4.445c-2.222 0-3.21 2.348-3.21 4.199 0 1.975.865 4.443 3.087 4.443zm13.58-4.197c0-1.851-.124-2.222-1.234-2.222-.618 0-.864 0-.864-.372 0-.493.494-.493.988-.615 1.11-.249 2.592-1.111 3.457-1.729.247-.247.37-.369.617-.369s.371.245.371.494v10.74c0 1.604 0 2.345 1.358 2.469.37 0 .864 0 .864.494 0 .371-.247.371-.494.371-.988 0-2.222-.125-3.334-.125-1.604 0-2.592.125-3.58.125-.247 0-.494-.125-.494-.371 0-.494.494-.494.987-.494 1.482 0 1.482-.617 1.482-2.594v-5.802h-.124zm1.481-7.777c-.987 0-1.852-.742-1.852-1.854 0-.987.617-1.852 1.976-1.852.987 0 1.852.742 1.852 1.852 0 1.112-.865 1.854-1.976 1.854zm8.519 7.777c0-1.729-.124-2.098-1.235-2.098-.617 0-.863-.124-.863-.371 0-.493.493-.493.863-.618.865-.247 2.469-.986 3.21-1.727.247-.249.371-.494.617-.494.37 0 .37.245.37.616v1.357c0 .372 0 .619.125.619.122 0 .74-.619 1.604-1.236.864-.615 2.1-1.234 3.458-1.234s2.716.494 3.703 1.604c.988 1.112 1.111 2.348 1.111 4.2v5.43c0 1.482 0 2.347 1.358 2.47.37 0 .864.122.864.493s-.246.371-.494.371c-.987 0-2.468-.122-3.58-.122-1.111 0-2.099.122-2.963.122-.247 0-.493-.122-.493-.371 0-.371.493-.493.74-.493 1.235-.123 1.235-.864 1.235-2.47v-5.183c0-.866 0-2.1-.493-2.841-.495-.863-1.481-1.359-2.716-1.359-1.111 0-2.1.496-2.84 1.236-.741.864-.864 1.48-.864 2.592v5.555c0 1.605 0 2.347 1.234 2.47.247 0 .74.122.74.493 0 .249-.247.494-.494.494-.865 0-2.099-.123-3.209-.123-1.235 0-2.223.123-3.209.123-.248 0-.494-.123-.494-.37 0-.495.494-.495.864-.495 1.358-.122 1.358-.862 1.358-2.839v-5.802h.493zm22.716.741c-1.111 0-1.234 0-1.234.864 0 3.332 2.223 6.173 5.802 6.173 1.605 0 2.716-.618 3.457-1.236.495-.493.865-.74.988-.74.247 0 .37.125.37.372 0 .368-.863 1.233-1.234 1.48-1.357 1.235-3.086 1.852-5.185 1.852-4.569 0-7.531-3.457-7.531-7.407 0-5.061 4.568-7.53 8.272-7.53 3.95 0 6.049 2.594 6.049 5.186 0 .616-.248.865-.617.865h-9.136v.121zm-.987-1.481c0 .37.247.494.988.494h2.345c.865 0 2.469-.124 3.211-.371.617-.123.987-.493.987-1.233 0-.618-.494-2.595-3.21-2.595-2.84 0-4.321 2.47-4.321 3.705zm18.642 1.481c-1.111 0-1.234 0-1.234.864 0 3.332 2.222 6.173 5.802 6.173 1.605 0 2.716-.618 3.581-1.236.493-.493.863-.74.986-.74.248 0 .371.125.371.372 0 .368-.864 1.233-1.235 1.48-1.357 1.235-3.085 1.852-5.185 1.852-4.568 0-7.531-3.457-7.531-7.407 0-5.061 4.568-7.53 8.271-7.53 3.951 0 6.051 2.594 6.051 5.186 0 .616-.247.865-.618.865h-9.259v.121zm-.988-1.481c0 .37.247.494.988.494h2.345c.865 0 2.469-.124 3.209-.371.618-.123.988-.493.988-1.233 0-.618-.494-2.595-3.209-2.595-2.839 0-4.321 2.47-4.321 3.705zm15.927.863c0-1.852-.124-2.221-1.235-2.345-.616-.123-.864-.123-.864-.372 0-.493.371-.493.988-.615.865-.249 2.346-.989 3.086-1.604.371-.372.494-.494.741-.494.371 0 .371.245.371.616v1.482c0 .494 0 .615.123.615s.493-.615 1.111-1.108c.617-.618 1.481-1.36 2.84-1.36 1.111 0 2.099.742 2.099 1.854 0 .987-.741 1.604-1.606 1.604-.617 0-.988-.37-1.235-.617-.37-.372-.617-.616-1.11-.616-.618 0-1.112.616-1.482 1.109-.618.988-.618 1.729-.618 2.963v4.939c0 1.604 0 2.467 1.605 2.467.495 0 1.111 0 1.111.495 0 .37-.247.37-.741.37-.864 0-2.222-.123-3.58-.123-1.481 0-2.592.123-3.456.123-.248 0-.495-.123-.495-.37 0-.495.495-.495.988-.495 1.481 0 1.481-.862 1.481-2.839v-5.679h-.122zm13.58-.123c0-1.851-.125-2.222-1.234-2.222-.618 0-.865 0-.865-.372 0-.493.494-.493.987-.615 1.112-.249 2.594-1.111 3.457-1.729.247-.247.37-.369.618-.369.247 0 .37.245.37.494v10.74c0 1.604 0 2.345 1.358 2.469.37 0 .864 0 .864.494 0 .371-.247.371-.494.371-.988 0-2.223-.125-3.333-.125-1.605 0-2.592.125-3.581.125-.247 0-.495-.125-.495-.371 0-.494.495-.494.988-.494 1.481 0 1.481-.617 1.481-2.594v-5.802h-.121zm1.482-7.777c-.988 0-1.853-.742-1.853-1.854 0-.987.618-1.852 1.976-1.852.987 0 1.853.742 1.853 1.852-.001 1.112-.866 1.854-1.976 1.854zm8.518 7.777c0-1.729-.124-2.098-1.233-2.098-.618 0-.865-.124-.865-.371 0-.493.494-.493.865-.618.863-.247 2.468-.986 3.208-1.727.248-.249.372-.494.617-.494.371 0 .371.245.371.616v1.357c0 .372 0 .619.124.619.125 0 .741-.619 1.606-1.236.864-.615 2.098-1.234 3.58-1.234 1.357 0 2.714.494 3.703 1.604.988 1.112 1.112 2.348 1.112 4.2v5.43c0 1.482 0 2.347 1.358 2.47.371 0 .865.122.865.493s-.248.371-.494.371c-.988 0-2.47-.122-3.458-.122-1.11 0-2.099.122-2.963.122-.247 0-.494-.122-.494-.371 0-.371.494-.493.741-.493 1.234-.123 1.234-.864 1.234-2.47v-5.183c0-.866 0-2.1-.494-2.841-.495-.863-1.481-1.359-2.716-1.359-1.111 0-2.099.496-2.84 1.236-.741.864-.864 1.48-.864 2.592v5.555c0 1.605 0 2.347 1.235 2.47.247 0 .74.122.74.493a.529.529 0 0 1-.494.494c-.864 0-2.098-.123-3.209-.123-1.235 0-2.222.123-3.21.123-.247 0-.494-.123-.494-.37 0-.495.494-.495.864-.495 1.357-.122 1.357-.862 1.357-2.839v-5.802h.248zm19.012 0c0-3.209 3.209-5.186 6.542-5.186 1.236 0 2.347.247 3.581.74.742.372.987.372 1.852.372h1.977c.864 0 1.11 0 1.233.864 0 .494 0 .615-.616.615h-1.358c-.371 0-.74.125-.74.249 0 .123.122.37.246.616.247.618.37 1.111.37 1.852 0 1.358-1.604 4.939-6.665 4.939-1.482 0-2.964.615-2.964 1.357 0 .74 1.234.987 1.976.987h4.075c2.839 0 5.185 1.111 5.309 3.458 0 4.073-5.187 5.678-9.26 5.678-3.334 0-6.667-1.234-6.667-3.457 0-1.479 1.482-2.221 2.716-2.84.248-.123.988-.491.988-.74 0-.245-.741-.865-1.234-1.356-.617-.495-1.235-1.111-1.235-1.482 0-.37.248-.493 1.235-.74 1.111-.371 2.469-.864 2.469-1.111 0-.125-.494-.372-1.113-.742-1.358-.738-2.717-1.974-2.717-4.073zm6.173 15.556c1.112 0 2.594-.247 3.704-.74 1.111-.493 1.852-1.358 1.852-2.469 0-1.977-2.1-2.346-3.581-2.346-1.975 0-3.208-.125-4.197-.125-.988.494-2.223 1.358-2.223 2.595 0 1.602 1.606 3.085 4.445 3.085zm.248-11.359c2.346 0 3.208-2.223 3.208-4.197s-.987-4.445-3.087-4.445c-2.221 0-3.208 2.348-3.208 4.199 0 1.975.863 4.443 3.087 4.443zm27.284.371c0 1.605.246 3.335 1.728 3.335.619 0 1.111-.249 1.483-.496.492-.247.739-.493.862-.493.247 0 .371.246.371.37 0 .619-1.852 2.346-4.198 2.346-1.11 0-1.975-.369-2.591-.989-.741-.862-.865-1.727-.865-3.825v-7.902c0-.615-.123-.615-.494-.615h-.864c-.37 0-.74-.125-.74-.371 0-.372.246-.493.617-.618 1.481-.74 2.715-1.481 3.579-3.456.124-.372.248-.619.618-.619s.37.247.37.496v2.715c0 .37 0 .617.494.742.864 0 2.346-.125 3.209-.125.371 0 .371.247.371.618 0 .739-.123.739-.494.739-.74 0-1.604-.121-2.47-.121-.986 0-1.11 0-1.11.864v7.406h.124zm8.764-12.715c0-2.222 0-2.471-1.605-2.593-.368-.124-.616-.124-.616-.493 0-.371.248-.371.864-.495.988-.122 2.099-.369 3.21-.987.246-.122.741-.371.986-.371.372 0 .372.249.372.617v8.889c0 .247 0 .372.247.372.245 0 .369-.125.493-.249 1.357-1.233 2.716-1.85 4.568-1.85 4.197 0 4.691 3.086 4.691 5.678v5.557c0 1.728 0 2.345 1.357 2.469.37 0 .864.123.864.494s-.247.371-.494.371c-.987 0-2.345-.125-3.21-.125-.987 0-2.469.125-3.333.125-.246 0-.493-.125-.493-.371 0-.371.493-.494.864-.494 1.109 0 1.234-.617 1.234-2.347v-5.183c0-.989 0-2.224-.493-3.088-.495-.987-1.482-1.48-2.841-1.48-1.11 0-2.099.493-2.84 1.233-.74.864-.74 1.604-.74 2.716v5.927c0 1.604 0 2.222 1.234 2.345.37 0 .742.124.742.493 0 .371-.248.494-.495.494-.865 0-2.222-.123-3.086-.123-.987 0-2.592.123-3.58.123-.248 0-.494-.123-.494-.37 0-.493.494-.493.987-.493 1.482 0 1.482-.617 1.482-2.841v-13.95h.125zm22.84 8.888c-1.11 0-1.234 0-1.234.864 0 3.332 2.223 6.173 5.803 6.173 1.605 0 2.717-.618 3.457-1.236.493-.493.864-.74.987-.74.248 0 .37.125.37.372 0 .368-.864 1.233-1.234 1.48-1.358 1.235-3.087 1.852-5.186 1.852-4.567 0-7.531-3.457-7.531-7.407 0-5.061 4.568-7.53 8.273-7.53 3.949 0 6.049 2.594 6.049 5.186 0 .616-.247.865-.618.865h-9.136v.121zm-.987-1.481c0 .37.247.494.987.494h2.346c.865 0 2.471-.124 3.21-.371.618-.123.988-.493.988-1.233 0-.618-.495-2.595-3.21-2.595-2.84 0-4.321 2.47-4.321 3.705zm30.495 6.667c0 1.604 0 2.469 1.48 2.469.372 0 .987.123.987.494s-.246.371-.493.371c-.987 0-2.346-.125-3.703-.125s-2.345.125-3.21.125c-.247 0-.493-.125-.493-.371 0-.494.493-.494.986-.494 1.482 0 1.482-.617 1.482-2.84v-7.9c0-1.113 0-1.113-.864-1.113-.618 0-1.235 0-1.235-.369 0-.493.495-.618.989-.739.987-.247.987-.989 1.11-1.977.245-1.604.862-3.332 2.099-4.445 1.234-1.109 3.209-1.975 4.692-1.975.985 0 2.96.369 2.96 1.358 0 .247-.245.986-.492 1.48-.247.371-.493.618-.74.618-.494 0-.987-.618-1.234-.863-.617-.864-1.113-1.481-1.977-1.481-1.851 0-2.222 2.592-2.222 4.073v1.977c0 .987.122.987 1.236.987h2.469c.493 0 .493.247.493.615 0 .617-.125.74-.989.74h-2.098c-1.111 0-1.111 0-1.111.989v8.396h-.122zm11.48-2.592c0 1.975 0 4.443 3.332 4.443 1.236 0 2.224-.371 2.964-1.358.496-.493.496-.864.496-2.098v-5.927c0-1.604 0-2.347-1.236-2.469-.37 0-.987 0-.987-.493 0-.247.122-.372.617-.372.741 0 1.606.125 2.224.125.615 0 1.48-.125 2.099-.125.37 0 .37.125.37.74v10.125c0 .987.123 1.48 1.234 1.48.493 0 .987-.123.987.371 0 .493-.494.493-1.358.617-.987.245-2.345.616-3.332 1.234-.125 0-.371.246-.493.246-.249 0-.249-.121-.249-.37v-1.234c0-.368 0-.617-.247-.617-.124 0-.368.124-.617.371-.74.615-2.222 1.851-4.443 1.851-1.604 0-2.839-.615-3.704-1.729-.988-1.232-.988-2.962-.988-4.318V367.1c0-1.729 0-2.345-1.359-2.47-.368 0-.862 0-.862-.493 0-.246.123-.371.494-.371.615 0 1.728.125 2.345.125.618 0 1.358-.125 1.977-.125.494 0 .494.371.494 1.11v6.916h.242zm19.508 1.233c0 1.605.246 3.335 1.728 3.335.617 0 1.11-.249 1.482-.496.493-.247.74-.493.864-.493.245 0 .369.246.369.37 0 .619-1.852 2.346-4.197 2.346-1.111 0-1.976-.369-2.594-.989-.739-.862-.864-1.727-.864-3.825v-7.902c0-.615-.122-.615-.493-.615h-.862c-.372 0-.743-.125-.743-.371 0-.372.249-.493.618-.618 1.48-.74 2.717-1.481 3.581-3.456.123-.372.246-.619.618-.619.369 0 .369.247.369.496v2.715c0 .37 0 .617.493.742.864 0 2.348-.125 3.209-.125.372 0 .372.247.372.618 0 .739-.125.739-.495.739-.738 0-1.604-.121-2.469-.121-.986 0-1.11 0-1.11.864v7.406h.124zm11.482-1.233c0 1.975 0 4.443 3.333 4.443 1.234 0 2.224-.371 2.964-1.358.493-.493.493-.864.493-2.098v-5.927c0-1.604 0-2.347-1.233-2.469-.372 0-.989 0-.989-.493 0-.247.125-.372.617-.372.74 0 1.605.125 2.221.125.743 0 1.483-.125 2.101-.125.37 0 .37.125.37.74v10.125c0 .987.124 1.48 1.234 1.48.494 0 .987-.123.987.371 0 .493-.493.493-1.357.617-.987.245-2.346.616-3.335 1.234-.121 0-.368.246-.493.246-.247 0-.247-.121-.247-.37v-1.234c0-.368 0-.617-.246-.617-.122 0-.369.124-.618.371-.738.615-2.221 1.851-4.443 1.851-1.604 0-2.839-.615-3.703-1.729-.989-1.232-.989-2.962-.989-4.318V367.1c0-1.729 0-2.345-1.357-2.47-.37 0-.865 0-.865-.493 0-.246.125-.371.495-.371.618 0 1.728.125 2.346.125s1.357-.125 1.977-.125c.493 0 .493.371.493 1.11v6.916h.244zm17.162-3.212c0-1.852-.125-2.221-1.236-2.345-.618-.123-.863-.123-.863-.372 0-.493.37-.493.985-.615.865-.249 2.347-.989 3.087-1.604.369-.372.494-.494.741-.494.37 0 .37.245.37.616v1.482c0 .494 0 .615.123.615.124 0 .495-.615 1.111-1.108.617-.618 1.482-1.36 2.841-1.36 1.11 0 2.098.742 2.098 1.854 0 .987-.74 1.604-1.604 1.604-.617 0-.987-.37-1.234-.617-.37-.372-.617-.616-1.11-.616-.618 0-1.111.616-1.483 1.109-.617.988-.617 1.729-.617 2.963v4.939c0 1.604 0 2.467 1.604 2.467.496 0 1.113 0 1.113.495 0 .37-.249.37-.742.37-.864 0-2.221-.123-3.578-.123-1.483 0-2.594.123-3.459.123-.245 0-.494-.123-.494-.37 0-.495.494-.495.987-.495 1.482 0 1.482-.862 1.482-2.839v-5.679h-.122zm16.048.618c-1.111 0-1.236 0-1.236.864 0 3.332 2.224 6.173 5.805 6.173 1.604 0 2.716-.618 3.456-1.236.495-.493.864-.74.989-.74.244 0 .368.125.368.372 0 .368-.862 1.233-1.233 1.48-1.358 1.235-3.087 1.852-5.186 1.852-4.568 0-7.53-3.457-7.53-7.407 0-5.061 4.567-7.53 8.271-7.53 3.952 0 6.051 2.594 6.051 5.186 0 .616-.247.865-.619.865h-9.135v.121zm-1.112-1.481c0 .37.247.494.989.494h2.345c.864 0 2.467-.124 3.208-.371.619-.123.989-.493.989-1.233 0-.618-.494-2.595-3.21-2.595s-4.321 2.47-4.321 3.705z" fill="#727171"/></svg>