<svg xmlns="http://www.w3.org/2000/svg" width="640" height="640" viewBox="0 0 640 640"><path d="M163.663 358.154h3.464l5.637 20.964h-2.7l-1.497-5.755h-6.694l-1.557 5.755h-2.701l6.048-20.964zm-1.263 13.095h5.637l-2.672-10.128h-.059l-2.906 10.128zm12.541-13.095h2.465v20.964h-2.465v-20.964zm5.75 0h2.466v20.964h-2.466v-20.964zm13.571 0h2.584v18.672h8.515v2.292h-11.099v-20.964zm13.509 0h2.465v2.819h-2.465v-2.819zm0 5.226h2.465v15.738h-2.465V363.38zm6.771 1.938h-2.288v-1.938h2.288v-1.85c0-2.378 1.028-3.61 3.408-3.61h1.79v2.113h-1.146c-1.057 0-1.584.412-1.584 1.497v1.85h2.7v1.938h-2.7v13.8h-2.469v-13.8zm8.947 6.225c0 2.406 0 6.047 3.023 6.047 2.348 0 2.672-2.465 2.672-3.641h2.465c0 1.674-.998 5.579-5.283 5.579-3.847 0-5.461-2.673-5.461-8.075 0-3.934.764-8.484 5.607-8.484 4.815 0 5.255 4.199 5.255 7.574v1h-8.278zm5.696-1.938v-.852c0-1.762-.558-3.848-2.73-3.848-2.583 0-2.877 3.17-2.877 4.111v.588h5.607zm13.072-11.451h2.467v2.819h-2.467v-2.819zm0 5.226h2.467v15.738h-2.467V363.38zm12.579 4.608c0-1.996-.528-3.082-2.319-3.082-.794 0-2.555.208-2.555 2.408 0 1.85 1.937 2.201 3.875 2.848 1.908.648 3.846 1.322 3.846 4.432 0 3.32-2.144 4.935-5.079 4.935-5.344 0-5.401-3.964-5.401-5.579h2.467c0 1.909.527 3.641 2.935 3.641.794 0 2.614-.382 2.614-2.611 0-2.115-1.938-2.557-3.847-3.2-1.908-.647-3.875-1.204-3.875-4.464 0-2.936 2.288-4.346 5.021-4.346 4.58 0 4.757 3.173 4.784 5.02h-2.466zm12.456.148c0-3.581 1.525-5.167 5.284-5.167 4.785 0 4.785 2.879 4.785 4.521v8.779c0 .645 0 1.262.763 1.262.324 0 .471-.059.589-.146v1.76c-.177.032-.823.15-1.44.15-.938 0-2.113 0-2.231-2.027h-.057c-.795 1.408-2.32 2.261-3.787 2.261-2.937 0-4.288-1.763-4.288-4.579 0-2.201.94-3.729 2.966-4.348l3.316-.996c1.793-.559 1.793-1.057 1.793-2.379 0-1.469-.883-2.32-2.526-2.32-2.701 0-2.701 2.526-2.701 3.082v.147h-2.466zm7.604 2.407c-.911.969-3.083 1.177-4.199 1.852-.793.498-1.204 1.115-1.204 2.494 0 1.586.559 2.701 2.231 2.701 1.614 0 3.172-1.379 3.172-2.996v-4.051zm5.953-7.163h2.35v1.853h.06c.645-1.439 2.288-2.264 3.816-2.264 4.139 0 4.139 3.143 4.139 4.993v11.156h-2.466v-10.864c0-1.201-.088-3.172-2.32-3.172-1.32 0-3.111.883-3.111 3.172v10.864h-2.467V363.38zm21.326-5.226h10.835v2.291h-8.252v6.575h7.781v2.29h-7.781v7.516h8.603v2.292h-11.186v-20.964zm13.335 5.226h2.703l2.848 5.61 2.878-5.61h2.7l-4.11 7.546 4.256 8.192h-2.701l-3.141-6.226-3.023 6.226h-2.701l4.315-8.192-4.024-7.546zm13.295 0h2.35v1.938h.059c.322-1.174 1.703-2.35 3.404-2.35 3.729 0 5.141 3.316 5.141 7.986 0 3.581-1.059 8.573-5.141 8.573a3.573 3.573 0 0 1-3.287-2.203h-.059v6.959h-2.467V363.38zm5.49 14.036c2.291 0 2.876-2.409 2.876-6.461 0-3.465-.585-5.873-2.876-5.873-2.731 0-3.17 2.586-3.17 6.167 0 3.052.527 6.167 3.17 6.167zm10.24-5.873c0 2.406 0 6.047 3.024 6.047 2.347 0 2.67-2.465 2.67-3.641h2.466c0 1.674-.998 5.579-5.283 5.579-3.847 0-5.46-2.673-5.46-8.075 0-3.934.762-8.484 5.607-8.484 4.814 0 5.254 4.199 5.254 7.574v1h-8.278zm5.694-1.938v-.852c0-1.762-.557-3.848-2.729-3.848-2.582 0-2.877 3.17-2.877 4.111v.588h5.606zm5.274-6.225h2.468v2.351h.058c.704-1.5 1.645-2.762 3.405-2.762.498 0 .853.058 1.087.176v2.408c-.234-.028-.53-.117-1.322-.117-1.231 0-3.228 1.115-3.228 3.729v9.954h-2.468V363.38zm9.052-5.226h2.465v2.819h-2.465v-2.819zm0 5.226h2.465v15.738h-2.465V363.38zm5.8 0h2.35v1.853h.059c.646-1.439 2.29-2.264 3.816-2.264 1.819 0 2.905.705 3.406 2.496.704-1.379 2.114-2.496 3.729-2.496 4.138 0 4.138 3.143 4.138 4.993v11.156h-2.466v-10.864c0-1.201-.088-3.172-2.114-3.172-1.144 0-2.937.707-2.937 3.172v10.864h-2.465v-10.864c0-1.201-.089-3.172-2.114-3.172-1.144 0-2.936.707-2.936 3.172v10.864h-2.467V363.38zm22.917 8.163c0 2.406 0 6.047 3.024 6.047 2.349 0 2.672-2.465 2.672-3.641h2.465c0 1.674-.998 5.579-5.284 5.579-3.846 0-5.461-2.673-5.461-8.075 0-3.934.764-8.484 5.608-8.484 4.814 0 5.255 4.199 5.255 7.574v1h-8.279zm5.697-1.938v-.852c0-1.762-.557-3.848-2.73-3.848-2.584 0-2.878 3.17-2.878 4.111v.588h5.608zm5.272-6.225h2.349v1.853h.06c.644-1.439 2.289-2.264 3.816-2.264 4.139 0 4.139 3.143 4.139 4.993v11.156h-2.466v-10.864c0-1.201-.088-3.172-2.32-3.172-1.319 0-3.11.883-3.11 3.172v10.864h-2.467V363.38zm14.529-4.58h2.467v4.58h2.729v1.938h-2.729v10.101c0 1.261.322 1.761 1.614 1.761.529 0 .821-.059 1.085-.09v2.028c-.322.059-.968.177-1.995.177-2.554 0-3.171-1.061-3.171-3.115v-10.861h-2.291v-1.938h2.291V358.8zm7.724 17.206h2.701v3.112h-2.701v-3.112zm33.764-20.881l-14.006 3.899 36.134 20.773-14.407 3.5z"/><path d="M468.377 355.125l14.009 3.899-36.134 20.773 14.401 3.5zm-308.728-97.784h18.456l10.678 26.811 10.559-26.811h18.224l-19.267 40.971 20.66 41.899h-18.802l-11.956-28.087-11.839 28.087h-18.337l20.658-41.899-19.034-40.971zm59.591 41.434c0-6.267.29-12.051.868-17.352.582-5.298 1.855-9.844 3.832-13.636 1.97-3.792 4.816-6.75 8.53-8.879 3.715-2.127 8.702-3.193 14.97-3.193 6.267 0 11.261 1.065 14.975 3.193 3.714 2.129 6.556 5.087 8.53 8.879 1.972 3.792 3.25 8.337 3.829 13.636.582 5.3.871 11.084.871 17.352 0 6.268-.289 12.053-.871 17.353-.579 5.301-1.857 9.847-3.829 13.637-1.975 3.793-4.816 6.75-8.53 8.877-3.714 2.131-8.708 3.193-14.975 3.193-6.268 0-11.255-1.062-14.97-3.193-3.714-2.127-6.561-5.084-8.53-8.877-1.977-3.79-3.25-8.336-3.832-13.637-.578-5.299-.868-11.085-.868-17.353zm16.713 0c0 5.572.133 10.314.403 14.218.27 3.909.814 7.082 1.625 9.519.813 2.438 1.975 4.219 3.485 5.338 1.508 1.123 3.497 1.685 5.974 1.685 2.478 0 4.471-.562 5.979-1.685 1.511-1.119 2.672-2.9 3.481-5.338.814-2.437 1.355-5.609 1.626-9.519.27-3.904.406-8.646.406-14.218 0-5.571-.137-10.289-.406-14.159-.271-3.868-.812-7.04-1.626-9.517-.81-2.475-1.971-4.274-3.481-5.398-1.508-1.12-3.501-1.681-5.979-1.681-2.477 0-4.466.561-5.974 1.681-1.511 1.124-2.672 2.923-3.485 5.398-.811 2.478-1.355 5.649-1.625 9.517-.27 3.87-.403 8.589-.403 14.159zm46.022 0c0-6.267.288-12.051.867-17.352.582-5.298 1.856-9.844 3.832-13.636 1.97-3.792 4.816-6.75 8.53-8.879 3.715-2.127 8.703-3.193 14.971-3.193s11.26 1.065 14.974 3.193c3.714 2.129 6.556 5.087 8.532 8.879 1.971 3.792 3.249 8.337 3.827 13.636.583 5.3.872 11.084.872 17.352 0 6.268-.289 12.053-.872 17.353-.578 5.301-1.856 9.847-3.827 13.637-1.977 3.793-4.818 6.75-8.532 8.877-3.714 2.131-8.706 3.193-14.974 3.193s-11.256-1.062-14.971-3.193c-3.714-2.127-6.561-5.084-8.53-8.877-1.976-3.79-3.25-8.336-3.832-13.637-.579-5.299-.867-11.085-.867-17.353zm16.712 0c0 5.572.134 10.314.403 14.218.27 3.909.814 7.082 1.625 9.519.814 2.438 1.975 4.219 3.485 5.338 1.507 1.123 3.497 1.685 5.975 1.685 2.477 0 4.472-.562 5.978-1.685 1.511-1.119 2.672-2.9 3.482-5.338.813-2.437 1.355-5.609 1.624-9.519.271-3.904.408-8.646.408-14.218 0-5.571-.138-10.289-.408-14.159-.269-3.868-.811-7.04-1.624-9.517-.811-2.475-1.972-4.274-3.482-5.398-1.506-1.12-3.501-1.681-5.978-1.681-2.478 0-4.468.561-5.975 1.681-1.511 1.124-2.671 2.923-3.485 5.398-.811 2.478-1.355 5.649-1.625 9.517-.27 3.87-.403 8.589-.403 14.159zm47.912-41.434h24.838l11.837 58.497h.232l11.956-58.497h24.72v82.87h-15.32v-66.156h-.232l-14.741 66.156H376.89l-14.737-66.156h-.232v66.156h-15.32v-82.87zm97.355 56.99v2.437c0 1.935.154 3.694.464 5.279.307 1.586.89 2.924 1.741 4.006.849 1.084 1.973 1.935 3.363 2.553 1.394.619 3.213.929 5.459.929 2.553 0 4.854-.832 6.905-2.497 2.048-1.662 3.075-4.234 3.075-7.716 0-1.857-.251-3.463-.753-4.817-.508-1.353-1.336-2.573-2.496-3.657-1.161-1.083-2.69-2.068-4.586-2.958-1.896-.888-4.234-1.8-7.021-2.729-3.714-1.236-6.927-2.61-9.635-4.119-2.71-1.51-4.975-3.231-6.789-5.166a17.987 17.987 0 0 1-4.003-6.732c-.853-2.553-1.279-5.57-1.279-9.053 0-8.124 2.282-14.218 6.851-18.28 4.562-4.062 10.829-6.094 18.801-6.094 3.714 0 7.139.407 10.27 1.219 3.138.813 5.843 2.129 8.125 3.945 2.284 1.82 4.064 4.14 5.34 6.965 1.277 2.825 1.917 6.209 1.917 10.156v2.321h-16.021c0-3.946-.695-6.982-2.089-9.112-1.393-2.127-3.714-3.19-6.962-3.19-1.858 0-3.407.272-4.644.812-1.236.541-2.228 1.258-2.961 2.146a7.388 7.388 0 0 0-1.506 3.077 15.56 15.56 0 0 0-.408 3.598c0 2.553.541 4.7 1.626 6.441 1.083 1.74 3.405 3.348 6.963 4.816l12.885 5.571c3.092 1.393 5.666 2.845 7.717 4.353 2.051 1.51 3.676 3.135 4.875 4.875a16.26 16.26 0 0 1 2.496 5.743c.465 2.09.695 4.412.695 6.966 0 8.746-2.535 15.166-7.603 19.267s-12.127 6.15-21.18 6.15c-9.441 0-16.191-2.107-20.256-6.326-4.061-4.217-6.092-10.154-6.092-17.813v-3.366h16.716z"/></svg>