<svg xmlns="http://www.w3.org/2000/svg" width="640" height="640" viewBox="0 0 640 640"><path d="M140.334 282.596c-4.202-4.213-25.246-5.408-25.246-5.408l-27.047.599-22.243 3.607-1.204 4.21 1.204 25.845L64 322.88l2.4 27.643s3.603 6.607 8.412 8.417c4.815 1.801 31.866 3.606 31.866 3.606s25.84.6 27.647 0c1.806-.604 7.81-6.613 7.81-6.613l-2.403-18.628 2.403-43.889c.001-.001 2.411-6.61-1.801-10.82zm-50.492 33.66l-.602-26.448 16.834-2.395-1.81 13.222.603 13.823 18.64.602-23.442 19.833-21.04-18.029 10.817-.608zm-7.209 32.461l-1.206-6.004 43.273-4.21 2.411 9.012-44.478 1.202zm232.752-65.959l-24.113 41.361 2.062 7.58 17.924-6.199-4.829 24.812 18.615 3.44-4.131-40.667 12.397-22.739zm26.2 13.789l-5.52 11.73 12.419 6.883 6.201-8.274zm26.189 12.405v4.133l-22.742 24.129 8.963 13.779 27.567-40.647zm21.372-11.73v13.806l18.607-1.381-23.432 28.957.685 7.564 10.34 4.144 11.028-22.737 7.578 18.593 14.482.698h6.89l-17.24-33.08 6.897-17.239zm56.515-14.464l-2.072 45.496v17.914l15.168 2.76-.687-31.011 11.017 4.823h9.656l2.073-15.158-20.692-.696 2.073-19.98 2.763-2.76zm43.425 29.918l-2.073 13.785 23.432-4.131v-13.78zm35.222-7.961l12.404.686-10.327 35.842h-14.474zm22.06-6.196l-4.832 12.391-.679 41.372 19.294-9.653 6.891-8.276L576 306.1l-15.849 12.399-6.199 6.899 2.065-25.505-7.576-4.821zm-362.105-12.348l-1.904 23.719 24.716 9.62-11.251 6.505-14.595-7.385 1.13 32.864-15.511-2.258 1.126-26.632-3.925-32.42zm7.009 7.804l8.38-5.098 1.791 2.552 2.995 15.291-5.383.841zm14.49-8.328l8.971.837-.58 16.143-5.995 1.704zm5.656 52.396l-4.615-8.677-4.083 1.289 2.922 11.876zm9.574-2.993l-7.573-8.495-3.489 2.13 4.129 11.985zm8.463-5.793l12.486 2.114-23.597 26.343-7.635-3.83zm12.122-39.668l7.019 33.766-1.196 25.056 15.472 5.989-1.601-30.819 18.437 1.015 9.217-9.2-26.542-1.151 2.648-30.957z" fill="#E89213"/></svg>