<svg xmlns="http://www.w3.org/2000/svg" width="640" height="640" viewBox="0 0 640 640"><path d="M279.745 347.796h-5.112V307.7l-15.176 26.197c-1.277 1.917-1.757 2.876-2.556 3.354-1.118.959-2.556 1.278-4.153 1.278-1.597 0-3.035-.319-4.153-1.278-.639-.479-1.118-1.117-2.556-3.354l-15.975-26.357v40.256h-5.112c-1.438 0-2.716-.64-3.674-1.598-.958-1.118-1.438-2.396-1.438-3.833v-43.131c0-2.078.639-3.835 1.917-5.272 1.277-1.437 3.035-2.236 4.952-2.236h2.875c1.438 0 2.716.479 3.994 1.438 1.118.959 1.438 1.757 2.396 3.354l16.773 28.435 16.134-28.435c1.278-1.757 1.438-2.396 2.396-3.354 1.118-.959 2.556-1.438 3.994-1.438h2.875c1.917 0 3.514.799 4.952 2.236 1.278 1.438 1.917 3.195 1.917 5.272v43.131c0 1.597-.479 2.875-1.438 3.833-1.118 1.119-2.395 1.598-3.832 1.598zm40.255.478c-7.029 0-12.78-2.556-16.934-7.348s-6.229-11.342-6.229-19.17c0-7.827 2.076-14.216 6.229-19.168s9.905-7.349 16.934-7.349c7.028 0 12.619 2.557 16.932 7.349 4.153 4.952 6.231 11.342 6.231 19.168 0 7.828-2.078 14.218-6.231 19.17-4.313 4.953-9.904 7.348-16.932 7.348zm0-42.491c-5.592 0-9.425 2.715-11.662 8.466-.799 2.077-1.278 4.633-1.278 7.667 0 3.035.479 5.592 1.278 7.668.798 2.076 1.757 3.674 3.035 4.951 1.278 1.278 2.556 2.077 4.153 2.716 1.597.64 3.035.8 4.473.8 1.437 0 3.036-.319 4.474-.8 1.436-.639 2.873-1.438 4.152-2.716 2.874-2.875 4.313-7.027 4.313-12.619 0-5.271-1.439-9.585-4.313-12.46-2.396-2.555-5.27-3.673-8.625-3.673zm70.768 42.013h-5.113v-31.63c0-3.354-.639-5.911-1.915-7.828-1.277-1.757-3.195-2.556-6.229-2.556-4.475 0-8.788 2.715-12.78 8.307v33.706h-5.112c-1.438 0-2.715-.64-3.673-1.598-.96-1.118-1.438-2.396-1.438-3.833V301.47c0-1.598.479-2.875 1.438-3.993.958-1.119 2.234-1.599 3.673-1.599 1.438 0 2.715.48 3.675 1.599.958 1.118 1.438 2.396 1.438 3.993v.64c1.438-1.439 2.715-2.716 3.992-3.355 3.517-2.236 6.87-3.355 10.065-3.355 3.194 0 5.751.479 7.827 1.599 2.077 1.118 3.834 2.556 5.271 4.472 2.876 3.674 4.313 8.307 4.313 13.897v26.998c0 1.597-.479 2.875-1.438 3.833-1.278 1.118-2.557 1.597-3.994 1.597zm30.35.478c-4.313 0-7.827-1.438-10.701-4.153-3.036-2.875-4.474-6.708-4.474-11.341 0-5.112 1.757-9.105 5.271-11.981 3.675-3.035 8.946-4.632 15.655-4.632h9.106c0-3.675-.96-6.23-2.397-7.668-1.597-1.598-4.313-2.396-7.828-2.396-3.194 0-6.867.798-11.021 2.236h-.16c-.639.16-1.119.16-1.918.16-.958 0-1.916-.479-2.715-1.438-.8-.958-1.277-2.236-1.277-3.993 0-1.278.478-3.195 2.873-4.313 4.952-2.396 10.065-3.515 15.497-3.515 6.229 0 11.021 2.078 14.537 6.39 3.034 3.674 4.633 8.307 4.633 13.578v26.997c0 1.598-.479 2.876-1.439 3.835-.958 1.117-2.235 1.598-3.673 1.598h-5.111v-5.112c-1.279 1.118-2.717 2.076-4.313 3.034-2.877 1.916-6.39 2.714-10.545 2.714zm6.71-22.683c-3.834 0-6.868.479-8.944 1.599-1.918.958-2.718 2.396-2.718 4.633 0 2.714.8 6.389 7.828 6.389 2.396 0 4.792-.639 6.87-2.076 2.076-1.278 3.833-2.715 5.112-4.312v-6.231h-8.148zm51.919 22.683c-6.71 0-12.301-2.396-16.934-7.028-4.793-4.952-7.19-11.502-7.19-19.489s2.397-14.536 7.19-19.488c4.633-4.633 10.224-7.03 16.934-7.03 3.514 0 6.548.479 8.944 1.598 2.236.959 4.154 2.077 5.432 3.035 1.597 1.119 2.557 2.557 2.557 4.153 0 1.438-.48 2.716-1.279 3.675-.798 1.117-1.916 1.757-2.876 1.757-1.277 0-2.396-.32-3.673-1.118-2.717-1.598-5.591-2.556-8.467-2.556-4.633 0-8.146 1.438-10.703 4.312-2.555 2.876-3.833 6.869-3.833 11.661 0 4.793 1.278 8.787 3.833 11.663 2.557 2.874 6.07 4.312 10.703 4.312 2.876 0 5.75-.799 8.467-2.557 1.277-.799 2.396-1.117 3.354-1.117.8 0 2.078.318 3.195 1.756.799 1.119 1.279 2.237 1.279 3.675 0 1.597-.8 3.035-2.557 4.153-4.153 3.196-8.946 4.633-14.376 4.633zm41.532 0c-4.313 0-7.828-1.438-10.701-4.153-3.037-2.875-4.475-6.708-4.475-11.341 0-5.112 1.757-9.105 5.271-11.981 3.675-3.035 8.946-4.632 15.655-4.632h9.105c0-3.675-.958-6.23-2.396-7.668-1.597-1.598-4.314-2.396-7.828-2.396-3.195 0-6.868.798-11.022 2.236h-.161c-.637.16-1.277.16-1.916.16-.957 0-1.915-.479-2.715-1.438-.799-.958-1.277-2.236-1.277-3.993 0-1.278.479-3.195 2.874-4.313 4.952-2.396 10.064-3.515 15.497-3.515 6.229 0 11.021 2.078 14.537 6.39 3.034 3.674 4.631 8.307 4.631 13.578v26.997c0 1.598-.479 2.876-1.438 3.835-.958 1.117-2.234 1.598-3.673 1.598h-5.112v-5.112c-1.277 1.118-2.715 2.076-4.312 3.034-2.716 1.916-6.389 2.714-10.544 2.714zm6.87-22.683c-3.834 0-6.87.479-8.946 1.599-1.916.958-2.715 2.396-2.715 4.633 0 2.714.799 6.389 7.827 6.389 2.396 0 4.792-.639 6.868-2.076 2.076-1.278 3.833-2.715 5.112-4.312v-6.231h-8.146z" fill="#424242"/><path fill="#00629D" d="M174.472 270H112.81c-10.543 0-19.169 8.626-19.169 19.17v61.661c0 10.543 8.626 19.169 19.169 19.169h61.662c10.544 0 19.17-8.626 19.17-19.169V289.17c0-10.544-8.626-19.17-19.17-19.17zm-11.343 69.489h-38.978V300.51h38.818v38.979h.16z"/></svg>