<svg xmlns="http://www.w3.org/2000/svg" width="640" height="640" viewBox="0 0 640 640"><path d="M159.191 273.702c-21.562 0-39.633 15.578-44.108 36.33h-9.698v.008a8.895 8.895 0 0 0-.4-.008c-5.515 0-9.984 4.603-9.984 10.279 0 5.679 4.47 10.281 9.984 10.281.133 0 .267-.004.4-.008v.008h9.822c4.67 20.483 22.612 35.793 43.985 35.793 24.912 0 45.18-20.791 45.18-46.347-.001-25.546-20.269-46.336-45.181-46.336zm0 80.6c-18.251 0-33.1-15.371-33.1-34.263 0-18.891 14.849-34.257 33.1-34.257s33.099 15.366 33.099 34.257c0 18.892-14.848 34.263-33.099 34.263zm158.27-44.572c-.133 0-.268.002-.4.008v-.008h-9.82c-4.67-20.481-22.612-35.788-43.985-35.788-24.913 0-45.18 20.79-45.18 46.337 0 25.558 20.268 46.345 45.18 46.345 21.561 0 39.633-15.576 44.108-36.332h9.699v-.01c.132.005.267.01.399.01 5.513 0 9.984-4.604 9.984-10.283-.001-5.678-4.471-10.279-9.985-10.279zm-54.206 44.816c-18.251 0-33.1-15.371-33.1-34.267 0-18.889 14.849-34.257 33.1-34.257 18.253 0 33.101 15.368 33.101 34.257 0 18.896-14.849 34.267-33.101 34.267zm-105.336-88.753c.667-.015 16.388-.511 23.067-12.13.855-1.486 1.439-2.878 1.836-4.196l1.825-1.752c10.483-10.069 9.783-16.408 7.778-23.649-.783-2.824-1.458-5.263-.7-8.185 2.169-8.347 7.153-9.797 7.512-9.891l2.778-.586-1.188-5.628-2.815.594c-.302.063-6.374 1.444-10.124 9.27l-1.08.582c-.33.178-8.09 4.478-11.101 16.068-1.425 5.48-.2 9.501.882 13.049 1.207 3.956 2.078 6.815-.593 11.462-5.051 8.789-18.086 9.243-18.212 9.247l-2.875.066.132 5.75 2.878-.071zm23.357-38.06c1.05-4.045 2.769-6.935 4.371-8.908.055 2.507.667 4.729 1.233 6.774 1.317 4.757 2.381 8.617-3.836 15.517-.266-1.205-.613-2.351-.95-3.458-.984-3.228-1.835-6.015-.818-9.925zm200.1 110.178a17.551 17.551 0 0 1-7.357 1.585c-2.874 0-5.466-.524-7.769-1.579-2.306-1.055-4.26-2.476-5.867-4.268-1.605-1.79-2.844-3.864-3.711-6.227-.866-2.36-1.299-4.85-1.299-7.461 0-2.609.42-5.097 1.269-7.456.846-2.359 2.069-4.436 3.68-6.226 1.604-1.792 3.561-3.212 5.864-4.267 2.306-1.053 4.915-1.579 7.833-1.579 1.438 0 2.78.168 4.027.506 1.246.339 2.399.782 3.456 1.331 1.057.552 1.977 1.185 2.761 1.904.78.719 1.403 1.437 1.872 2.155l3.803-2.792a13.068 13.068 0 0 0-2.854-2.956 19.159 19.159 0 0 0-3.804-2.244 22.798 22.798 0 0 0-4.473-1.447 22.84 22.84 0 0 0-4.853-.518c-3.341 0-6.438.594-9.291 1.776-2.854 1.184-5.327 2.82-7.42 4.913-2.092 2.092-3.732 4.578-4.916 7.451-1.186 2.874-1.776 6.023-1.776 9.447 0 3.426.581 6.574 1.745 9.451 1.161 2.874 2.779 5.358 4.853 7.452 2.069 2.095 4.545 3.731 7.42 4.915 2.875 1.186 6.003 1.775 9.387 1.775 2.029 0 3.9-.228 5.613-.676 1.711-.453 3.274-1.063 4.692-1.838 1.415-.773 2.663-1.668 3.74-2.687a18.843 18.843 0 0 0 2.76-3.237l-3.552-2.283c-1.563 2.332-3.508 4.023-5.833 5.08zm38.623-2.156v-13c0-1.817-.296-3.404-.888-4.757-.595-1.352-1.418-2.473-2.475-3.359-1.058-.89-2.285-1.557-3.681-1.998-1.395-.444-2.896-.665-4.502-.665-2.537 0-4.812.401-6.816 1.202-2.01.804-3.627 1.818-4.854 3.045l2.411 2.854c1.055-1.057 2.346-1.9 3.866-2.538 1.522-.633 3.173-.95 4.948-.95 2.579 0 4.544.631 5.896 1.89 1.354 1.26 2.03 3.168 2.03 5.728v.943c-2.706 0-5.316.097-7.834.287-2.515.19-4.745.614-6.689 1.272-1.944.657-3.498 1.654-4.661 2.99-1.164 1.336-1.744 3.15-1.744 5.439 0 1.656.327 3.056.983 4.199.654 1.145 1.479 2.077 2.474 2.801a9.82 9.82 0 0 0 3.297 1.559c1.205.316 2.38.477 3.521.477 2.409 0 4.47-.434 6.183-1.299 1.711-.867 3.243-2.294 4.597-4.281h.13c0 .803.04 1.629.126 2.473.085.847.189 1.629.316 2.347h3.867c-.168-.846-.297-1.882-.38-3.106a54.712 54.712 0 0 1-.121-3.553zm-4.059-5.961c0 1.312-.213 2.559-.637 3.74a9.513 9.513 0 0 1-1.84 3.141c-.803.91-1.797 1.629-2.979 2.156-1.186.529-2.538.792-4.062.792-.846 0-1.68-.094-2.505-.284s-1.575-.508-2.251-.951a4.901 4.901 0 0 1-1.618-1.744c-.401-.719-.604-1.606-.604-2.664 0-1.396.465-2.514 1.396-3.359.93-.846 2.124-1.49 3.583-1.936 1.458-.443 3.086-.738 4.884-.889a66.176 66.176 0 0 1 5.359-.222h1.27v2.22h.004zm26.51-36.082c-3.426 0-5.963.972-7.61 2.916-1.647 1.945-2.474 4.607-2.474 7.99v8.116h-6.215v3.613h6.215v26.065h4.312v-26.065h6.979v-3.613h-6.979v-7.608c0-1.058.075-2.053.222-2.981.149-.93.424-1.742.825-2.439a4.09 4.09 0 0 1 1.713-1.616c.738-.384 1.681-.572 2.821-.572.593 0 1.12.043 1.587.127.464.086.931.19 1.396.316l.76-3.804a9.327 9.327 0 0 0-1.776-.35 17.762 17.762 0 0 0-1.776-.095zm9.577 4.564c-.764 0-1.46.285-2.095.857-.635.569-.951 1.299-.951 2.186 0 .89.316 1.618.951 2.188.635.568 1.331.855 2.095.855.76 0 1.458-.285 2.092-.855.636-.57.951-1.3.951-2.188 0-.887-.315-1.615-.951-2.186-.634-.571-1.332-.857-2.092-.857zm-2.157 14.458h4.312v29.68h-4.312zm40.336 5.136h-.128c-1.186-1.901-2.812-3.358-4.885-4.375-2.071-1.016-4.187-1.521-6.342-1.521-2.326 0-4.43.401-6.312 1.204-1.882.804-3.488 1.903-4.818 3.299a14.945 14.945 0 0 0-3.106 4.883c-.741 1.86-1.11 3.848-1.11 5.961 0 2.157.369 4.165 1.11 6.026.737 1.858 1.774 3.455 3.106 4.785 1.331 1.334 2.938 2.379 4.818 3.142 1.882.76 3.984 1.142 6.312 1.142 2.155 0 4.28-.508 6.374-1.523 2.094-1.014 3.71-2.45 4.853-4.311h.128v5.581c0 1.606-.211 3.116-.636 4.534-.422 1.416-1.088 2.65-1.997 3.71-.911 1.056-2.104 1.892-3.583 2.505-1.48.613-3.276.921-5.392.921-2.282 0-4.449-.528-6.5-1.588-2.053-1.058-3.669-2.346-4.852-3.866l-3.108 3.297c1.776 1.859 3.91 3.318 6.405 4.377a19.948 19.948 0 0 0 7.863 1.588c3.299 0 5.982-.508 8.057-1.521 2.068-1.018 3.708-2.283 4.913-3.809 1.206-1.521 2.03-3.192 2.473-5.008.444-1.818.667-3.53.667-5.139v-29.426h-4.312l.002 5.132zm-.349 14.051c-.571 1.416-1.365 2.631-2.381 3.645a10.41 10.41 0 0 1-3.612 2.347c-1.396.55-2.917.824-4.567.824-1.774 0-3.359-.308-4.754-.92-1.398-.612-2.57-1.446-3.521-2.505a11.122 11.122 0 0 1-2.188-3.678c-.507-1.396-.761-2.877-.761-4.439s.254-3.046.761-4.439a11.171 11.171 0 0 1 2.188-3.68c.951-1.057 2.123-1.901 3.521-2.537 1.395-.633 2.979-.95 4.754-.95 1.65 0 3.172.317 4.567.95 1.396.636 2.602 1.48 3.612 2.537a11.664 11.664 0 0 1 3.235 8.119c.001 1.732-.284 3.308-.854 4.726zm16.013-37.448h4.312v47.94h-4.312zm38.75 44.833a50.777 50.777 0 0 1-.128-3.551v-13.002c0-1.816-.295-3.402-.889-4.756-.592-1.353-1.416-2.473-2.474-3.36-1.057-.889-2.283-1.556-3.679-1.998-1.396-.443-2.896-.665-4.502-.665-2.538 0-4.812.401-6.818 1.204-2.008.803-3.626 1.817-4.854 3.043l2.41 2.854c1.059-1.057 2.348-1.901 3.87-2.538 1.521-.633 3.169-.949 4.944-.949 2.579 0 4.547.631 5.898 1.889 1.353 1.26 2.029 3.168 2.029 5.728v.943c-2.707 0-5.316.097-7.833.287-2.515.191-4.745.615-6.688 1.273-1.945.656-3.499 1.653-4.662 2.989s-1.744 3.149-1.744 5.44c0 1.656.327 3.055.984 4.197a8.81 8.81 0 0 0 2.471 2.803 9.796 9.796 0 0 0 3.3 1.558c1.205.315 2.377.478 3.52.478 2.409 0 4.472-.435 6.184-1.301 1.713-.865 3.245-2.293 4.599-4.281h.127c0 .804.042 1.629.129 2.474.082.847.188 1.629.315 2.347H545c-.169-.844-.297-1.878-.38-3.106zm-4.184-9.512a11.01 11.01 0 0 1-.636 3.74 9.545 9.545 0 0 1-1.839 3.141c-.804.91-1.799 1.629-2.98 2.156-1.186.529-2.537.792-4.06.792-.847 0-1.68-.094-2.506-.284a6.893 6.893 0 0 1-2.251-.951 4.875 4.875 0 0 1-1.618-1.744c-.403-.719-.604-1.606-.604-2.664 0-1.396.466-2.514 1.396-3.359.93-.846 2.125-1.49 3.581-1.936 1.461-.443 3.088-.738 4.885-.889a66.182 66.182 0 0 1 5.36-.222h1.268v2.22h.004z"/></svg>