<svg xmlns="http://www.w3.org/2000/svg" width="640" height="640" viewBox="22.5 740.5 640 640"><path d="M198.014 1060.416c.647 30.467-25.156 55.617-55.119 55.904-30.46.295-56.709-24.905-56.392-56.442.304-30.106 25.334-55.333 56.091-55.202 30.864.133 56.013 25.912 55.42 55.74m-55.57-46.663c-25.67-.547-46.863 21.142-46.97 46.521-.105 25.729 21.212 46.983 46.662 47.076 25.698.094 46.902-21.209 47.042-46.559.142-25.833-21.277-47.479-46.734-47.038"/><path d="M119.574 1072.538c-.991-1.581-2.627-2.039-4.305-2.259-3.58-.471-7.285-1.04-11.01-1.696-3.693-.649-6.423-4.172-6.353-8.194.07-4.08 2.716-7.365 6.433-7.994 3.577-.605 7.111-1.129 11.029-1.705 2.359-.347 3.28-.723 4.175-2.207 1.078 1.545 2.826 2.019 4.483 2.252 3.431.484 6.935 1.119 10.024 1.68 4.182.758 6.886 3.916 6.887 8.046 0 4.108-2.747 7.368-6.836 8.108-4.124.748-7.303 1.277-10.306 1.718-1.519.221-3.134.69-4.221 2.251m22.757 19.911c-1.249-1.807-3.278-2.096-4.978-2.338-.388-.057-.753-.106-1.11-.174-1.533-.285-3.095-.539-4.604-.789-1.204-.194-2.45-.398-3.67-.615-4.349-.775-7.143-3.967-7.117-8.131.024-4.047 3-7.387 7.237-8.121.704-.122 1.407-.247 2.111-.37 2.548-.448 5.183-.913 7.779-1.275 1.438-.2 3.122-.632 4.302-2.09.967 1.451 2.531 1.863 3.894 2.043 3.886.515 7.681 1.13 10.883 1.667 3.979.666 6.784 4.003 6.818 8.117.035 4.257-2.564 7.473-6.625 8.191-2.275.401-4.603.756-6.853 1.099-1.503.229-3.061.466-4.59.715-1.834.299-2.725.749-3.477 2.071m-.013-39.828c-1.24-1.734-3.211-2.012-4.864-2.244-.383-.055-.741-.104-1.095-.17-1.515-.281-3.055-.531-4.545-.773-1.356-.22-2.759-.447-4.13-.697-3.86-.701-6.801-4.153-6.837-8.027-.037-4 2.607-7.225 6.583-8.023 2.03-.408 4.117-.748 6.135-1.076 1.275-.209 2.596-.422 3.893-.653 2.899-.515 3.536-.694 4.812-2.334.972 1.619 2.707 2.056 4.049 2.237 3.745.5 7.512 1.101 11.022 1.676 3.713.607 6.463 3.855 6.537 7.728.082 4.267-2.528 7.751-6.348 8.47-2.554.483-5.178.879-7.714 1.266-1.351.205-2.748.416-4.122.639-1.775.283-2.668.734-3.376 1.981m22.914 19.756c-1.188-1.455-2.922-1.906-4.67-2.145-3.312-.453-6.563-1.043-9.88-1.656-3.953-.73-6.917-4.221-6.896-8.121.021-4.105 2.856-7.35 7.056-8.069 1.653-.286 3.308-.563 4.962-.844 1.559-.263 3.119-.526 4.677-.794 2.848-.489 3.516-.667 4.714-2.257.902 1.532 2.555 1.985 4.14 2.202 3.84.521 7.728 1.146 11.023 1.686 3.77.617 6.428 3.875 6.464 7.924.038 4.23-2.582 7.641-6.373 8.293a349.108 349.108 0 0 1-11.156 1.711c-1.519.211-3.109.643-4.061 2.07m78.562 4.418l-2.445-6.74h-17.058l-2.506 6.74h-9.663l15.388-39.784h10.618l15.328 39.784h-9.662zm-10.975-31.315l-6.202 17.119h12.405l-6.203-17.119zm57.664 31.315v-27.856l-11.213 27.856h-3.698l-11.214-27.856v27.856h-8.469v-39.783h11.869l9.663 24.036 9.662-24.036h11.929v39.783zm15.434-39.784h8.47v39.784h-8.47zm49.844 39.784v-27.856l-11.213 27.856h-3.698l-11.214-27.856v27.856h-8.47v-39.783h11.87l9.662 24.036 9.664-24.036h11.927v39.783zm13.399-19.861c0-11.99 8.77-20.576 20.759-20.576 12.049 0 20.816 8.586 20.816 20.576 0 11.987-8.769 20.578-20.816 20.578-11.989-.001-20.759-8.591-20.759-20.578m32.867 0c0-7.455-4.772-13.062-12.107-13.062-7.338 0-12.05 5.604-12.05 13.062 0 7.396 4.712 13.063 12.05 13.063 7.334 0 12.107-5.668 12.107-13.063m20.939 19.861v-32.329h-11.631v-7.454h31.73v7.454h-11.571v32.329zm20.665-19.861c0-11.99 8.768-20.576 20.758-20.576 12.049 0 20.815 8.586 20.815 20.576 0 11.987-8.768 20.578-20.815 20.578-11.991-.001-20.758-8.591-20.758-20.578m32.863 0c0-7.455-4.771-13.062-12.105-13.062-7.338 0-12.049 5.604-12.049 13.062 0 7.396 4.711 13.063 12.049 13.063 7.336 0 12.105-5.668 12.105-13.063m51.413 19.861l-2.445-6.74h-17.059l-2.505 6.74h-9.662l15.387-39.784h10.618l15.328 39.784h-9.662zm-10.974-31.315l-6.203 17.119h12.407l-6.204-17.119zm57.663 31.315v-27.856l-11.214 27.856h-3.698l-11.213-27.856v27.856h-8.469v-39.783h11.869l9.662 24.036 9.664-24.036h11.928v39.783zm15.434-39.784h8.471v39.784h-8.471z"/></svg>