<svg xmlns="http://www.w3.org/2000/svg" width="640" height="640" viewBox="0 0 640 640"><path fill="#0E0D0D" d="M199.213 312.351h-33.02c-.853 0-1.544.691-1.544 1.543v16.143c0 .852.691 1.545 1.544 1.545h12.881v20.059s-2.893.986-10.889.986c-9.435 0-22.612-3.447-22.612-32.428 0-28.985 13.723-32.799 26.605-32.799 11.152 0 15.957 1.963 19.015 2.91.96.293 1.849-.663 1.849-1.515l3.684-15.598c0-.399-.136-.879-.59-1.206-1.241-.886-8.815-5.124-27.95-5.124-22.044 0-44.654 9.378-44.654 54.462s25.888 51.802 47.702 51.802c18.063 0 29.021-7.718 29.021-7.718.451-.25.5-.881.5-1.17v-50.35c0-.851-.691-1.542-1.542-1.542zm170.168-40.081c0-.859-.681-1.552-1.533-1.552h-18.591c-.85 0-1.54.693-1.54 1.552l.004 35.929h-28.979V272.27a1.54 1.54 0 0 0-1.534-1.552h-18.592c-.846 0-1.535.693-1.535 1.552v97.287c0 .858.689 1.557 1.535 1.557h18.592c.85 0 1.534-.698 1.534-1.557v-41.613h28.979l-.05 41.613a1.55 1.55 0 0 0 1.54 1.557h18.636c.853 0 1.533-.698 1.534-1.557V272.27zm-135.085 12.766c0-6.694-5.367-12.104-11.989-12.104-6.615 0-11.985 5.41-11.985 12.104 0 6.688 5.37 12.112 11.985 12.112 6.622 0 11.989-5.424 11.989-12.112zm-1.329 63.999v-44.908c0-.853-.688-1.549-1.538-1.549h-18.533c-.851 0-1.611.877-1.611 1.729v64.34c0 1.891 1.179 2.453 2.703 2.453h16.698c1.832 0 2.281-.9 2.281-2.484v-19.581zm207.072-46.312h-18.45c-.846 0-1.534.698-1.534 1.556v47.703s-4.688 3.43-11.34 3.43-8.418-3.02-8.418-9.533v-41.6c0-.858-.688-1.556-1.534-1.556h-18.725a1.55 1.55 0 0 0-1.537 1.556v44.749c0 19.348 10.782 24.082 25.617 24.082 12.169 0 21.98-6.724 21.98-6.724s.468 3.543.679 3.963c.212.42.762.843 1.357.843l11.912-.053a1.55 1.55 0 0 0 1.537-1.554l-.005-65.307a1.548 1.548 0 0 0-1.539-1.555zm50.425-2.185c-10.479 0-17.605 4.675-17.605 4.675V272.27c0-.859-.688-1.552-1.534-1.552H452.68c-.848 0-1.537.693-1.537 1.552v97.287a1.55 1.55 0 0 0 1.539 1.557h12.936c.583 0 1.024-.3 1.35-.826.321-.521.786-4.486.786-4.486s7.623 7.227 22.056 7.227c16.943 0 26.66-8.595 26.66-38.582-.001-29.99-15.519-33.909-26.006-33.909zm-7.277 54.815c-6.398-.195-10.739-3.099-10.739-3.099v-30.81s4.282-2.624 9.536-3.093c6.644-.595 13.045 1.412 13.045 17.26-.001 16.713-2.889 20.011-11.842 19.742zm-196.786-52.784h-13.946l-.021-18.425c0-.698-.36-1.046-1.166-1.046h-19.006c-.738 0-1.135.325-1.135 1.035v19.04s-9.524 2.299-10.168 2.484a1.544 1.544 0 0 0-1.113 1.483v11.964c0 .86.687 1.555 1.537 1.555h9.744v28.782c0 21.38 14.996 23.479 25.115 23.479 4.624 0 10.154-1.485 11.068-1.822.552-.203.873-.775.873-1.395l.016-13.162c0-.858-.726-1.554-1.542-1.554-.812 0-2.892.331-5.032.331-6.851 0-9.171-3.185-9.171-7.308l-.001-27.353H286.4c.85 0 1.538-.695 1.538-1.555v-14.986a1.54 1.54 0 0 0-1.537-1.547z"/></svg>