<svg xmlns="http://www.w3.org/2000/svg" width="640" height="640" viewBox="0 0 640 640"><g fill="#231815"><path d="M511.455 370.824h.392a3.606 3.606 0 0 0 3.607-3.604 3.607 3.607 0 0 0-3.607-3.603h-5.33a3.604 3.604 0 0 0-3.604 3.603v8.002c0 .518.42.935.937.935a.94.94 0 0 0 .943-.935v-4.397h4.001l5.056 5.061a.942.942 0 0 0 1.331-1.331l-3.726-3.731zm-6.662-1.877v-1.726a1.73 1.73 0 0 1 1.724-1.724h5.33c.955 0 1.726.776 1.726 1.724 0 .949-.771 1.726-1.726 1.726h-7.054z"/><path d="M498.367 370.106c0 5.958 4.854 10.812 10.816 10.812 5.965 0 10.816-4.854 10.816-10.812 0-5.97-4.851-10.82-10.816-10.82-5.962 0-10.816 4.851-10.816 10.82m1.453 0c0-5.167 4.2-9.368 9.364-9.368 5.162 0 9.366 4.201 9.366 9.368 0 5.161-4.203 9.36-9.366 9.36-5.164.001-9.364-4.198-9.364-9.36"/></g><path d="M366.418 302.364l-50.09.002c-12.453 0-22.583 10.132-22.583 22.585v33.388c0 12.453 10.129 22.586 22.583 22.586l50.092-.002a5.893 5.893 0 0 0 5.893-5.889 5.893 5.893 0 0 0-5.895-5.892l-50.09.004c-5.957 0-10.804-4.846-10.804-10.808V324.95c0-5.957 4.847-10.805 10.804-10.805l50.092-.003a5.894 5.894 0 0 0 5.893-5.889 5.892 5.892 0 0 0-5.895-5.889m107.652 5.893v66.779a5.893 5.893 0 0 0 11.784 0v-66.779a5.893 5.893 0 0 0-11.784 0m-67.127-5.889c-12.455 0-22.59 10.133-22.59 22.585l.005 50.083a5.89 5.89 0 1 0 11.779 0v-27.501h44.201c12.452 0 22.587-10.129 22.587-22.582 0-12.452-10.135-22.585-22.587-22.585h-33.395zm-10.809 22.585c0-5.959 4.849-10.806 10.809-10.806h33.396c5.958 0 10.805 4.847 10.805 10.806 0 5.958-4.847 10.803-10.805 10.803h-44.203l-.002-10.803z" fill="#231815"/><path fill="#C2DA70" d="M127.795 313.867c-1.476.8-2.57.094-2.439-1.583l1.828-23.18c.132-1.682 1.259-3.943 2.524-5.055l57.076-49.816v47.541l-58.989 32.093zm58.989-16.907v45.031l-61.611 10.94c-1.658.293-2.902-.843-2.772-2.502l1.749-22.164c.134-1.677 1.495-3.616 3.027-4.302l59.607-27.003zm-64.12 87.993c-1.6-.526-2.787-2.311-2.654-3.984l1.224-15.739c.13-1.669 1.609-3.157 3.283-3.314l62.267-5.781v49.635l-64.12-20.817z"/><path fill="#0098D8" d="M245.768 313.867c1.477.8 2.574.094 2.441-1.583l-1.831-23.18c-.13-1.682-1.276-3.943-2.533-5.055l-57.062-49.816v47.541l58.985 32.093zm-58.985-16.907v45.031l61.612 10.94c1.654.293 2.891-.843 2.763-2.502l-1.749-22.164c-.133-1.677-1.495-3.616-3.027-4.302l-59.599-27.003zm64.113 87.993c1.583-.526 2.787-2.311 2.655-3.984l-1.243-15.739c-.129-1.669-1.591-3.157-3.265-3.314l-62.261-5.781v49.635l64.114-20.817z"/></svg>