<svg xmlns="http://www.w3.org/2000/svg" width="640" height="640" viewBox="0 0 640 640"><path d="M233.691 390.573h-42.706v-81.269h18.822v61.365h23.884v19.904z"/><path d="M263.884 413.536c-.444-2.042-.622-4.174-.622-6.304-3.552 5.238-8.612 7.191-14.827 7.191-8.436 0-15.805-4.617-15.805-13.673 0-7.191 5.594-11.985 11.897-13.939 5.771-1.775 11.898-2.486 17.847-2.842v-.354c0-4.084-1.066-5.685-5.328-5.685-3.462 0-6.392 1.244-6.925 5.062l-16.159-1.509c2.665-11.276 13.407-14.207 23.617-14.207 5.327 0 12.163.71 16.604 3.908 5.949 4.172 5.238 10.031 5.238 16.513v15.893c0 3.374.088 6.748 1.42 9.944h-16.957zm-1.509-21.221c-4.263.445-11.365 1.776-11.365 7.28 0 2.932 1.865 4.175 4.616 4.175 6.659 0 6.749-5.595 6.749-10.566v-.889zm19.62-39.687h17.58v20.955h.267c2.485-4.617 6.304-6.305 11.63-6.305 12.697 0 17.048 12.164 17.048 22.995 0 12.608-5.328 24.15-19.534 24.15-6.037 0-11.098-2.13-14.561-7.103-1.065 1.953-1.775 4.084-2.397 6.215h-10.033v-60.907zm17.669 42.886c0 3.551.445 7.901 5.061 7.901 6.038 0 5.861-8.079 5.861-12.431 0-4.351.266-12.431-6.04-12.431-1.597 0-2.84.8-3.816 2.042-1.242 1.51-1.066 2.932-1.066 4.795v10.124zm79.387-4.263c0 13.761-11.1 23.173-24.949 23.173-13.852 0-24.949-9.412-24.949-23.173 0-14.561 10.744-23.973 24.949-23.973s24.949 9.412 24.949 23.973zm-31.076-.622c0 12.165 2.932 13.052 6.127 13.052 3.196 0 6.127-.887 6.127-13.052 0-4.35-.088-12.252-6.127-12.252-6.038 0-6.127 7.902-6.127 12.252z"/><g fill="#E50012"><path d="M229.541 289.009h22.462c8.79 0 15.804 1.387 22.375 8.96 6.393 7.253 9.323 17.281 9.323 27.734 0 9.601-2.841 19.627-8.435 26.561-6.037 7.574-13.583 9.921-22.018 9.921h-23.707v-73.176zm21.397 56.321c2.486 0 4.083.212 6.393-1.279 1.687-1.175 3.019-2.773 3.995-4.8 2.131-4.268 2.842-9.175 2.842-14.081 0-4.907-1.154-11.307-3.729-15.361-2.93-4.373-5.771-4.16-10.033-4.16h-2.13v39.681h2.662zm50.687 4.61h-17.58v-45.369h17.58v45.369zm0-49.719h-17.58v-12.075h17.58v12.075z"/><path d="M335.493 336.712c3.907.178 8.082.711 11.276 3.108 3.463 2.573 5.239 7.014 5.239 11.275 0 6.481-4.351 10.566-10.122 12.519-4.883 1.776-11.897 1.954-17.224 1.954-7.548 0-24.594-.534-24.594-11.188 0-4.35 2.574-7.37 6.569-8.789-2.485-1.865-4.172-3.997-4.172-7.192 0-5.239 4.262-8.347 8.701-10.033-4.706-1.952-7.371-5.238-7.371-10.477 0-11.72 12.963-14.206 22.198-14.206 2.841 0 5.682.177 8.434.888.978-6.57 4.263-10.655 11.276-10.655l5.15.266 1.154.09-.444 12.163-4.349-.177c-1.601 0-4.085.088-4.974 1.686 3.106 2.486 5.061 6.216 5.061 10.211 0 11.365-11.631 13.852-20.777 13.852l-2.041-.091-1.864-.087c-1.51 0-4.438 0-4.438 2.218 0 2.31 3.284 2.131 4.883 2.131l12.429.534zm-16.246 12.608c-2.042 0-4.439.176-4.439 2.841 0 2.13 1.687 3.019 3.55 3.373 2.842.711 5.86.8 8.79.8 2.664 0 9.234.443 9.234-3.552 0-3.019-3.02-2.842-5.238-2.93l-8.701-.443-3.196-.089zm11.897-31.164c0-3.463-1.776-5.683-5.416-5.683-3.374 0-5.239 2.309-5.239 5.593 0 3.64 1.954 5.506 5.593 5.506 3.285 0 5.062-2.308 5.062-5.416zm39.107 31.784h-17.58v-45.369h17.58v45.369zm0-49.719h-17.58v-12.075h17.58v12.075zm.218 15.892v-11.542h7.37l1.332-14.473 15.271-.533v15.005h9.057v11.542h-8.879v15.627c0 3.285-.355 5.859 3.817 5.859 1.687 0 3.374-.355 5.062-.798v12.694l-10.389 1.332c-4.704.622-9.234-.888-12.696-4.614-3.463-3.73-3.374-8.081-3.374-12.964v-17.137h-6.571z"/><path d="M434.473 349.94c-.444-2.041-.621-4.172-.621-6.303-3.551 5.237-8.612 7.19-14.827 7.19-8.435 0-15.805-4.614-15.805-13.672 0-7.192 5.595-11.986 11.897-13.94 5.771-1.775 11.898-2.486 17.846-2.84v-.355c0-4.084-1.064-5.682-5.326-5.682-3.463 0-6.393 1.242-6.926 5.061l-16.159-1.509c2.663-11.275 13.406-14.206 23.617-14.206 5.328 0 12.164.71 16.604 3.907 5.949 4.173 5.237 10.033 5.237 16.514v15.893c0 3.373.09 6.748 1.421 9.943h-16.958zm-1.51-21.218c-4.261.443-11.364 1.776-11.364 7.28 0 2.93 1.864 4.173 4.618 4.173 6.659 0 6.746-5.595 6.746-10.565v-.888zM470 349.94h-17.579v-60.907H470v60.907z"/></g><path d="M204.448 300.9l-10.476-28.438-6.393 10.98V300.9H170v-75.324h17.579v31.074l16.869-31.074h16.781l-15.359 27.561 19.089 47.764h-20.511z"/><path d="M262.536 264.42c0 13.762-11.099 23.174-24.949 23.174-13.851 0-24.95-9.412-24.95-23.174 0-14.561 10.743-23.973 24.95-23.973 14.205.001 24.949 9.412 24.949 23.973zm-31.076-.621c0 12.164 2.93 13.052 6.127 13.052 3.196 0 6.126-.888 6.126-13.052 0-4.351-.09-12.253-6.126-12.253-6.039 0-6.127 7.902-6.127 12.253zm31.576-38h17.579v20.953h.267c2.485-4.617 6.303-6.304 11.631-6.304 12.696 0 17.045 12.164 17.045 22.996 0 12.608-5.326 24.151-19.531 24.151-6.039 0-11.1-2.132-14.562-7.104-1.065 1.955-1.775 4.086-2.397 6.215h-10.032v-60.907zm17.669 42.883c0 3.551.443 7.903 5.06 7.903 6.039 0 5.861-8.08 5.861-12.431 0-4.35.266-12.43-6.039-12.43-1.598 0-2.841.799-3.817 2.042-1.243 1.508-1.065 2.93-1.065 4.794v10.122zm78.558 2.842c-2.753 11.009-12.52 16.07-23.262 16.07-6.659 0-13.142-1.42-18.291-5.95-4.882-4.35-7.458-10.565-7.458-17.047 0-6.125 2.398-12.785 6.66-17.135 4.615-4.795 11.541-7.015 18.021-7.015 15.096 0 24.329 9.767 24.329 24.683v2.396h-30.365c-.268 4.884 1.509 8.436 6.836 8.436 3.995 0 6.216-1.599 6.926-5.505l16.604 1.067zm-17.758-12.875c0-4.439-1.421-7.813-6.393-7.813-4.618 0-6.482 3.64-6.304 7.813h12.697z"/></svg>