<svg xmlns="http://www.w3.org/2000/svg" width="640" height="640" viewBox="0 0 640 640"><g fill-rule="evenodd" clip-rule="evenodd"><ellipse fill="#FCCF00" cx="117.136" cy="342.882" rx="53.136" ry="22.177"/><path fill="#575564" d="M73.538 295.541l-.306 48.589 49.894 11.837 35.5-15.309v-51.471l-27.434-10.843-25.818 17.197z"/><path fill="#D0AB00" d="M122.959 274.94l31.848 12.75s7.851 43.794-32.252 53.062l.404-65.812z"/><path fill="#FCCF00" d="M73.538 295.541l49.421-20.601.363 65.718s-53.452 8.863-49.784-45.117z"/></g><path d="M193.221 299.619v1.204h-2.601v-21h16.761v21h-2.721v-1.204h-11.439zm11.438-17.29h-11.438v5.971h11.438v-5.971zm0 14.786v-6.358h-11.438v6.358h11.438zm9.275 0l-1.879-2.072c3.492-2.021 6.936-5.514 8.91-9.488h-8.548V283.1h9.777v-4.503h2.697v4.503h9.874v2.455h-8.5c1.975 3.829 5.442 7.249 8.861 9.248l-1.974 2.239c-3.083-2.143-6.141-5.466-8.26-9.223v6.381h4.094v2.457h-4.094v4.286h-2.697v-4.286h-4.021V294.2h4.021v-6.092c-2.144 3.684-5.179 6.912-8.261 9.007zm29.937-5.371v-2.769h-1.638v-.795a18.471 18.471 0 0 1-3.997 2.36l-1.589-1.831c1.854-.698 3.516-1.661 4.889-2.842-.747-.818-1.662-1.637-2.77-2.48l1.517-1.396a21.04 21.04 0 0 1 2.818 2.264 12.366 12.366 0 0 0 1.685-2.696h-5.924v-2.216h7.297l1.733.505a15.96 15.96 0 0 1-4.045 6.912h8.742c-1.903-1.927-3.42-4.406-4.407-7.417l2.263-.771a15.415 15.415 0 0 0 1.3 3.082c1.229-.963 2.384-1.975 3.059-2.745l1.734 1.517c-.891.868-2.264 1.95-3.684 2.938.361.481.747.939 1.131 1.348 1.277-.938 2.481-1.95 3.204-2.721l1.758 1.614c-.819.77-2.023 1.685-3.323 2.553a15.62 15.62 0 0 0 4.045 2.167l-1.686 2.095c-1.373-.603-2.673-1.349-3.853-2.287v.843h-1.854v2.769h5.924v2.216h-5.924v2.576c0 1.301.192 1.47.915 1.493h2.335c.723-.023.795-.145.843-2.167l2.504.434c-.289 3.757-.747 4.214-3.13 4.263-.843.024-2.047.024-2.817 0-2.673-.073-3.275-.746-3.275-4.022v-2.576H246.4c-.361 2.673-2.192 5.033-6.719 7.008l-1.902-1.854c3.949-1.444 5.587-3.179 5.996-5.153h-5.684v-2.216h5.78zm5.779 0v-2.769h-3.179v2.769h3.179zm22.497-3.54h6.285v2.48h-6.285v5.659h7.658v2.577h-10.572v-18.495h10.042v2.577h-7.128v5.202zm12.548 1.686c0-5.057 1.854-9.849 8.958-9.849 1.589 0 3.275.312 4.383.65l-.482 2.673c-1.107-.434-2.505-.698-3.805-.698-4.238 0-5.899 2.962-5.899 7.272 0 4.094 1.902 6.646 5.972 6.646 1.276 0 3.034-.313 4.021-.674l.313 2.696c-1.012.337-2.817.651-4.456.651-7.007 0-9.006-4.383-9.006-9.345v-.022zm21.266 8.212l-1.95-2.119c3.54-1.878 7.874-5.852 10.162-9.223h-9.825v-2.625h10.764v-4.817h2.914v4.817h5.635v2.625h-5.635v9.608c0 2.576-.987 3.853-3.54 3.853-1.06 0-2.264-.048-3.396-.216v-2.77c.939.145 1.951.192 2.721.192.915 0 1.3-.41 1.3-1.349v-6.141c-2.528 3.084-6.044 6.239-9.15 8.165zm40.003-9.753v2.914h-19.699v-2.914h19.699zm18.932-6.093l2.216 1.181c-1.758 7.875-5.732 13.509-13.222 16.736l-1.951-2.312c7.032-2.745 10.5-7.249 11.752-12.956h-14.256v-2.649h15.461zm5.344-1.95c0 1.324-1.083 2.433-2.456 2.433s-2.456-1.108-2.456-2.457c0-1.372 1.083-2.456 2.456-2.456s2.456 1.084 2.456 2.456v.024zm-4.02 0c0 .818.722 1.541 1.564 1.541.844 0 1.564-.723 1.564-1.565s-.721-1.564-1.564-1.564c-.843 0-1.564.722-1.564 1.564v.024zm14.812 5.201l-1.878 2.337c-1.348-1.204-4.142-3.203-6.142-4.263l1.759-2.312c2.096 1.204 4.745 2.986 6.261 4.238zm8.789.048l1.854 2.144c-3.348 5.371-10.113 10.379-16.591 12.378l-1.47-2.721c6.384-1.615 12.957-6.43 16.207-11.801zm20.834-3.299l2.217 1.181c-1.759 7.875-5.731 13.509-13.221 16.736l-1.951-2.312c7.032-2.745 10.5-7.249 11.753-12.956h-14.256v-2.649h15.458zm5.347-1.95a2.447 2.447 0 0 1-2.455 2.433 2.453 2.453 0 0 1-2.458-2.457 2.437 2.437 0 0 1 2.458-2.456 2.436 2.436 0 0 1 2.455 2.456v.024zm-4.022 0c0 .818.723 1.541 1.566 1.541.841 0 1.564-.723 1.564-1.565s-.724-1.564-1.564-1.564c-.844 0-1.566.722-1.566 1.564v.024zm21.822 5.707l1.976 1.373c-1.783 6.213-6.021 10.548-12.017 12.859l-1.807-2.48c5.515-1.83 9.126-5.298 10.186-9.151h-14.785v-2.601h16.447zm-.193-5.466v2.576h-13.8v-2.576h13.8zm9.515 6.333c.843 1.349 1.71 3.396 2.19 4.864l-2.214.939c-.338-1.301-1.35-3.612-2.145-4.84l2.169-.963zm12.643.024c-.915 6.068-4.575 11.077-9.994 13.316l-1.612-2.215c5.322-1.927 8.26-6.068 9.054-11.632l2.552.531zm-7.995-1.01c.77 1.371 1.589 3.442 2.022 4.936l-2.216.915c-.313-1.324-1.228-3.685-1.975-4.984l2.169-.867zm28.998 5.97l-1.854 2.36c-2.456-1.831-5.829-3.757-8.862-5.226v11.222h-2.914v-20.903h2.914v6.6c3.442 1.565 7.656 3.877 10.716 5.947zm19.653-9.8l2.215 1.18c-1.781 7.874-5.731 13.701-13.219 16.929l-1.976-2.312c7.032-2.745 10.523-7.441 11.775-13.149h-14.28v-2.647h15.485zm6.288 16.471l-1.637-1.854c2.818-1.589 5.827-4.238 7.634-6.767h-7.273v-2.36h8.261v-3.612h2.576v3.612h4.238v2.36h-4.238v7.321c0 1.999-.986 2.985-2.986 2.985-.818 0-1.829-.023-2.721-.145v-2.312c.746.097 1.517.12 2.119.12.698 0 1.012-.289 1.012-1.011v-4.552c-1.952 2.338-4.528 4.673-6.985 6.215zm38.341-10.186v2.914h-19.699v-2.914h19.699zm4.555 7.922c2.071-5.298 3.972-11.054 5.297-16.424l2.962.723a169.744 169.744 0 0 1-5.153 15.412c3.228-.288 6.792-.698 9.729-1.083-1.035-1.687-2.191-3.348-3.251-4.647l2.433-1.349c2.263 2.889 4.767 6.814 6.356 9.825l-2.745 1.444c-.338-.843-.819-1.782-1.349-2.77-5.322.746-11.775 1.469-16.134 1.927l-.53-2.914c.722-.023 1.517-.095 2.385-.144z" fill="#575564"/><path fill-rule="evenodd" clip-rule="evenodd" fill="#575564" d="M189.413 312.442v49.622h47.139v-10.119h-33.827c-1.927 0-2.895-.915-2.895-2.75V345.3c0-1.83.968-2.75 2.895-2.75h33.827v-10.113h-33.827c-1.927 0-2.895-.964-2.895-2.89v-4.102c0-1.921.968-2.885 2.895-2.885h33.827v-10.119h-47.139zm59.416 0v49.622h47.139v-10.119h-33.821c-1.931 0-2.895-.931-2.895-2.804v-23.776c0-1.867.964-2.804 2.895-2.804h33.821v-10.119h-47.139zm268.663-.643v49.616h47.137v-10.114H530.81c-1.932 0-2.895-.914-2.895-2.748v-3.896c0-1.829.963-2.749 2.895-2.749h33.819v-10.12H530.81c-1.932 0-2.895-.956-2.895-2.884v-4.102c0-1.926.963-2.89 2.895-2.89h33.819v-10.113h-47.137zm-188.806 0v49.616h51.104v-10.114h-37.793c-1.926 0-2.894-.937-2.894-2.803v-23.776c0-1.868.968-2.81 2.894-2.81h37.793v-10.113h-51.104zm64.378 49.616h51.105v-49.616h-10.418v36.688c0 1.877-.964 2.813-2.89 2.813h-24.493c-1.921 0-2.885-.937-2.885-2.813v-36.688h-10.42v49.616zm98.124-29.628h-21.203c-1.927 0-2.895-.956-2.895-2.884v-4.102c0-1.926.968-2.89 2.895-2.89h21.474l-.028.043s3.409-.509 3.409 2.858v3.856c0 .002.394 3.119-3.652 3.119zm.152 19.514h-20.753c-1.547 0-2.424-.41-2.921-.925-.359-.449-.575-1.034-.575-1.823v-3.897c0-.416.07-.769.164-1.088.052-.162.134-.281.205-.411a2.14 2.14 0 0 1 .235-.373 2.15 2.15 0 0 1 .327-.304c.173-.135.366-.259.599-.345l.179-.066c.347-.104 1.202-.162 1.202-.162h22.145c.934.026 2.688.383 2.688 2.749v3.674s.369 2.971-3.495 2.971zm8.618-14.681c2.134-.064 3.843-1.742 3.843-3.826l-.015-18.575c-.046-2.663-3.517-2.372-3.517-2.372l-43.597-.048v49.616l43.611-.032s3.456.092 3.502-2.37l.015-18.562c.001-2.083-1.708-3.755-3.842-3.831z"/><path fill="#565462" d="M310.542 312.76v48.768c0 .929.807 1.683 1.804 1.683.996 0 1.804-.754 1.804-1.683V312.76c0-.93-.808-1.683-1.804-1.683-.997 0-1.804.753-1.804 1.683"/><g fill="#565462"><path d="M569.751 359.566v-5.07H572c.452 0 .796.042 1.031.134.235.091.424.254.564.482.141.231.211.487.211.767 0 .36-.117.662-.35.909-.231.246-.592.403-1.08.47.18.087.313.172.405.254.196.18.381.404.558.673l.883 1.382h-.846l-.67-1.055a9.47 9.47 0 0 0-.485-.7 1.609 1.609 0 0 0-.341-.34 1.134 1.134 0 0 0-.307-.134 2.04 2.04 0 0 0-.373-.023h-.778v2.252h-.671zm.672-2.834h1.442c.307 0 .547-.03.721-.096a.76.76 0 0 0 .394-.304.824.824 0 0 0 .136-.454.761.761 0 0 0-.263-.593c-.174-.154-.448-.232-.825-.232h-1.604v1.679z"/><path d="M575.734 357.128h-.266a3.7 3.7 0 0 1-1.087 2.626 3.695 3.695 0 0 1-2.622 1.087 3.699 3.699 0 0 1-2.626-1.087 3.697 3.697 0 0 1-1.088-2.626c0-1.025.415-1.951 1.088-2.624a3.696 3.696 0 0 1 2.626-1.088c1.023 0 1.95.415 2.622 1.088a3.695 3.695 0 0 1 1.087 2.624H576a4.243 4.243 0 1 0-8.486 0 4.243 4.243 0 0 0 8.486 0h-.266z"/></g></svg>