<svg xmlns="http://www.w3.org/2000/svg" width="640" height="640" viewBox="0 0 640 640"><path d="M147.777 280.157c-4.203-4.213-25.246-5.408-25.246-5.408l-27.047.599-22.244 3.607-1.204 4.21 1.204 25.845-1.797 11.43 2.4 27.643s3.603 6.607 8.412 8.417c4.816 1.801 31.866 3.606 31.866 3.606s25.84.6 27.648 0c1.805-.603 7.809-6.613 7.809-6.613l-2.403-18.628 2.403-43.888c0-.001 2.411-6.61-1.801-10.82zm-50.493 33.66l-.601-26.448 16.834-2.395-1.81 13.222.603 13.823 18.639.601-23.442 19.832-21.04-18.028 10.817-.607zm-7.209 32.46l-1.206-6.004 43.274-4.21 2.411 9.012-44.479 1.202zm232.752-65.958l-24.112 41.361 2.062 7.58 17.923-6.199-4.829 24.811 18.615 3.44-4.131-40.666 12.397-22.739zm26.201 13.789l-5.52 11.73 12.419 6.883 6.2-8.274zm26.189 12.405v4.133l-22.743 24.128 8.963 13.78 27.567-40.647zm21.371-11.73v13.806l18.607-1.381-23.432 28.957.685 7.564 10.34 4.143 11.028-22.736 7.579 18.593 14.481.698h6.891l-17.241-33.08 6.898-17.239zm56.516-14.464l-2.073 45.495v17.915l15.168 2.759-.686-31.009 11.016 4.822h9.657l2.073-15.158-20.693-.696 2.074-19.98 2.762-2.76zm43.424 29.918l-2.073 13.784 23.433-4.13v-13.78zm35.222-7.961l12.404.686-10.327 35.842h-14.473zm22.061-6.196l-4.832 12.391-.679 41.372 19.294-9.654 6.89-8.276 8.958-28.252-15.848 12.399-6.199 6.899 2.064-25.505-7.575-4.821zm-362.106-12.348l-1.903 23.719 24.716 9.62-11.251 6.504-14.595-7.384 1.13 32.864-15.512-2.258 1.126-26.632-3.925-32.42zm7.01 7.804l8.38-5.098 1.791 2.552 2.995 15.291-5.384.841zm14.489-8.328l8.972.837-.58 16.143-5.995 1.704zm5.657 52.396l-4.616-8.677-4.083 1.289 2.922 11.876zm9.574-2.994l-7.573-8.495-3.49 2.13 4.129 11.985zm8.463-5.793l12.486 2.115-23.598 26.342-7.634-3.83zm12.122-39.667l7.018 33.766-1.195 25.056 15.472 5.989-1.602-30.819 18.438 1.014 9.216-9.199-26.542-1.151 2.649-30.957z" fill="#E89213"/></svg>