<svg xmlns="http://www.w3.org/2000/svg" width="640" height="640" viewBox="0 0 640 640"><path fill="#444" d="M313.504 288.908c-6.662-5.293-16.873-7.939-30.635-7.939-4.941 0-9.749.132-14.424.396a146.34 146.34 0 0 0-4.108.299c.211 21.99-3.814 43.951 2.652 65.297.641 1.919 2.493 3.079 4.765 3.988v-4.741c1.764.178 3.705.31 5.822.396 2.117.089 4.454.133 7.014.133 25.937 0 38.905-11.424 38.905-34.274 0-10.407-3.33-18.261-9.991-23.555m-13.895 38.642c-3.838 3.175-9.418 4.764-16.74 4.764-4.059 0-7.764-.265-11.115-.795v-34.936c3.352-.529 7.057-.793 11.115-.793 14.997 0 22.497 6 22.497 17.997 0 6-1.919 10.586-5.757 13.763"/><path fill="#18B2A8" d="M351.113 330.429c0 11.205 2.69 19.982 8.072 26.334 5.204 6.265 12.218 9.396 21.04 9.396 3.176 0 6.396-.286 9.66-.86 3.264-.573 6.704-1.346 10.322-2.316.794-.265 1.476-.176 2.052.265.572.441.859 1.059.859 1.853v11.646c0 1.059-.485 1.72-1.455 1.985-7.235 1.674-15.042 2.513-23.423 2.513-14.292 0-25.586-4.41-33.877-13.231-8.382-8.734-12.571-21.261-12.571-37.583 0-16.056 4.057-28.538 12.175-37.45 8.026-8.909 19.32-13.364 33.877-13.364 3.97 0 7.85.197 11.645.595a75.2 75.2 0 0 1 11.248 2.051c.97.265 1.456.884 1.456 1.854v11.645c0 .795-.288 1.412-.861 1.853-.575.442-1.257.529-2.05.265-6.796-1.939-13.279-2.911-19.453-2.911-8.913 0-15.88 3.089-20.908 9.264-5.207 6.081-7.808 14.816-7.808 26.196"/><path fill="#444" d="M472.654 343.046v5.248h-.265l-36.655-66.298c-.442-.706-.972-1.06-1.589-1.06h-5.903c-.023 13.565-.389 28.148 6.962 40.226v-8.599h.265l36.656 66.432c.44.617.969.926 1.588.926h4.715c2.484-12.63 4.783-28.049-5.774-36.875"/><path fill="#E8C03B" d="M270.07 280.937h-14.292c-1.322 0-1.984.662-1.984 1.985v95.015c0 1.322.662 1.984 1.984 1.984h14.292c1.323 0 1.985-.662 1.985-1.984v-95.015c.001-1.323-.661-1.985-1.985-1.985"/><path fill="#3D95B7" d="M433.244 280.937h-14.292c-1.323 0-1.984.662-1.984 1.985v95.015c0 1.322.661 1.984 1.984 1.984h14.292c1.322 0 1.985-.662 1.985-1.984v-95.015c0-1.323-.663-1.985-1.985-1.985m55.219 0h-14.292c-1.323 0-1.983.662-1.983 1.985v95.015c0 1.322.66 1.984 1.983 1.984h14.292c1.323 0 1.985-.662 1.985-1.984v-95.015c0-1.323-.662-1.985-1.985-1.985"/><path fill-rule="evenodd" clip-rule="evenodd" fill="#444" d="M200.434 352.642l-3.74 2.709-18.238-27.701 1.346-.972z"/><path fill-rule="evenodd" clip-rule="evenodd" fill="#444" d="M201.639 379.776h-10.265l3.286-95.343h3.694z"/><path fill-rule="evenodd" clip-rule="evenodd" fill="#444" d="M192.023 344.957l3.741 2.708 18.237-27.7-1.346-.975z"/><path fill-rule="evenodd" clip-rule="evenodd" fill="#18B2A8" d="M170.78 291.708c11.721 0 21.226 9.502 21.226 21.226 0 11.723-9.505 21.224-21.226 21.224-11.726 0-21.229-9.501-21.229-21.224.001-11.724 9.504-21.226 21.229-21.226"/><path fill-rule="evenodd" clip-rule="evenodd" fill="#3D95B7" d="M222.235 291.744c11.722 0 21.227 9.502 21.227 21.226 0 11.723-9.505 21.224-21.227 21.224-11.726 0-21.227-9.501-21.227-21.224.001-11.724 9.502-21.226 21.227-21.226"/><path fill-rule="evenodd" clip-rule="evenodd" fill="#E8C03B" d="M196.508 258.757c11.722 0 21.226 9.503 21.226 21.227 0 11.722-9.504 21.225-21.226 21.225-11.726 0-21.228-9.503-21.228-21.225 0-11.724 9.502-21.227 21.228-21.227"/></svg>