<svg xmlns="http://www.w3.org/2000/svg" width="640" height="640" viewBox="0 0 640 640"><path fill="#F5F6FB" d="M170 297.595h300V342.4H170z"/><path fill="none" d="M325.521 371.54c-.541-4.372-.938-8.198-1.457-11.58a22.393 22.393 0 0 1-4.148 1.557 78.485 78.485 0 0 1 5.605 10.023zm-8.055-75.454c.413.502.813 1.004 1.211 1.51h1.405l-2.616-1.51zm32.697 50.81a424.561 424.561 0 0 1-.538-4.496h-1.746a79.914 79.914 0 0 1 2.284 4.496z"/><path d="M382.997 297.595c.489-2.27.75-4.782.75-7.569 0-24.253-16.394-49.943-44.161-65.973l-41.817-24.145v30.946l35.626 20.571c10.038 5.794 15.058 13.04 15.058 21.404 0 2.335-.487 4.06-1.425 5.186 4.229 6.288 7.398 12.89 9.426 19.583h26.543v-.003zm-65.531-1.509l2.616 1.51h3.724c0-.044.006-.083.006-.126 0-8.364-5.018-15.61-15.054-21.404l-10.987-6.345v8.389c7.674 5.32 14.286 11.406 19.695 17.976zm32.697 50.81c3.712 7.943 5.836 15.936 7.523 24.384l33.823 19.529c-5.501-18.681-6.873-34.119-10.082-48.409h-31.806c.171 1.435.346 2.93.542 4.496z" fill="#1D4B9F" stroke="#1D4B9F" stroke-width=".517"/><path d="M273.129 294.361v3.234h5.603zm83.327 3.234c-2.026-6.692-5.198-13.294-9.426-19.582-7.558-11.226-18.436-21.442-32.081-29.321l-41.818-24.144v30.947l24.641 14.226 10.987 6.345c10.037 5.793 15.054 13.04 15.054 21.404 0 .044-.006.083-.006.126l32.649-.001zm1.232 73.685c-1.689-8.449-3.813-16.44-7.523-24.384a78.636 78.636 0 0 0-2.286-4.496h-13.536c-.639 8.712-4.066 14.492-10.28 17.56.521 3.382.913 7.208 1.457 11.581 3.716 7.94 5.836 15.933 7.526 24.383l33.821 19.525c-4.961-16.848-6.558-31.057-9.179-44.169z" fill="#ADB0D8" stroke="#ADB0D8" stroke-width=".517"/><path d="M333.047 395.924c-1.69-8.45-3.811-16.443-7.526-24.384a78.13 78.13 0 0 0-5.606-10.023 22.242 22.242 0 0 0 4.148-1.557c6.214-3.067 9.642-8.848 10.28-17.56h-71.294l13.207 7.626c12.378 7.148 19.402 16.554 22.413 30.503 1.955 8.62 1.861 20.658 6.328 38.064l37.232 21.498c-4.962-16.849-6.562-31.059-9.182-44.167zm-15.581-99.838c-5.409-6.57-12.021-12.657-19.697-17.978-2.398-1.663-4.863-3.273-7.463-4.775l-41.819-24.144v30.947l24.642 14.226 5.603 3.235h39.944a93.02 93.02 0 0 0-1.21-1.511z" fill="#D6D7EC" stroke="#D6D7EC" stroke-width=".517"/><path fill="none" d="M347.878 342.4h1.745c-.303-2.563-.586-4.912-.921-7.081a22.51 22.51 0 0 1-4.148 1.558 79.27 79.27 0 0 1 3.324 5.523zm-24.249-42.754l-3.546-2.05h-1.405a83.847 83.847 0 0 1 3.709 5.061c.618-.74 1.027-1.75 1.242-3.011z"/><path d="M382.997 297.595h-26.542c1.723 5.677 2.653 11.413 2.653 17.073 0 10.458-3.479 17.232-10.405 20.651.336 2.168.619 4.518.922 7.081h31.805c-2.337-10.393-5.643-20.184-12.234-30.165 7.516-2.008 12.11-6.821 13.801-14.64zm-59.191 0h-3.724l3.545 2.05c.107-.623.173-1.298.179-2.05z" fill="#C6C8E4" stroke="#C6C8E4" stroke-width=".517"/><path d="M298.989 324.286c.115-.663.182-1.374.182-2.177 0-8.363-5.019-15.609-15.055-21.406l-5.384-3.109h-5.603v11.76l25.86 14.932zm57.467-26.691h-32.65a12.418 12.418 0 0 1-.177 2.05c-.213 1.261-.624 2.271-1.24 3.01 7.816 11.617 12.076 24.319 12.076 36.652 0 1.076-.05 2.097-.121 3.092h13.536a78.65 78.65 0 0 0-3.323-5.524 22.32 22.32 0 0 0 4.147-1.557c6.927-3.42 10.405-10.194 10.405-20.651-.002-5.659-.932-11.394-2.653-17.072z" fill="#DADBEE" stroke="#D6D7EC" stroke-width=".517"/><path fill="#ECECF6" stroke="#ECECF6" stroke-width=".517" d="M322.386 302.657a83.944 83.944 0 0 0-3.709-5.06h-39.944l5.384 3.108c10.036 5.796 15.055 13.042 15.055 21.404 0 .805-.068 1.517-.182 2.177-.963 5.674-6.031 6.113-14.873 1.007l-35.629-20.569v29.271l14.561 8.405h71.294a43.11 43.11 0 0 0 .121-3.092c.001-12.333-4.259-25.035-12.078-36.651z"/><path d="M203.062 334.533h-4.141l-8.36-12.944h-3.676v12.944h-3.311V306.04h8.057c2.708 0 4.844.655 6.412 1.967 1.569 1.313 2.354 3.141 2.354 5.484 0 1.735-.572 3.282-1.715 4.633-1.144 1.354-2.72 2.273-4.727 2.756l9.107 13.653zm-16.177-15.832h4.181c1.75 0 3.17-.475 4.26-1.424 1.091-.949 1.637-2.144 1.637-3.585 0-3.178-1.94-4.767-5.815-4.767h-4.262l-.001 9.776zm31.464.526c1.738.484 3.129 1.37 4.181 2.657 1.049 1.282 1.575 2.728 1.575 4.329 0 2.507-.977 4.607-2.927 6.313-1.953 1.701-4.255 2.554-6.908 2.554-2.261 0-4.289-.498-6.078-1.495l.646-2.726c1.872.875 3.724 1.312 5.555 1.312 1.722 0 3.192-.533 4.412-1.605 1.218-1.07 1.828-2.445 1.828-4.129 0-1.654-.653-3.002-1.958-4.039-1.307-1.038-3.035-1.556-5.191-1.556h-.868v-2.727h.242c2.074 0 3.784-.488 5.129-1.464 1.346-.977 2.02-2.291 2.02-3.947 0-1.347-.485-2.4-1.455-3.162s-2.302-1.141-3.999-1.141c-1.468 0-3.109.396-4.927 1.192l-.445-2.846c1.831-.833 3.676-1.251 5.533-1.251 2.546 0 4.642.669 6.291 2.009s2.474 3.059 2.474 5.161c0 1.452-.501 2.811-1.504 4.068-1.003 1.261-2.21 2.051-3.625 2.375v.118h-.001zm34.228 15.306h-3.151v-18.317h-6.199v-2.725h9.351l-.001 21.042zm-1.536-29c.591 0 1.098.212 1.514.635.417.425.627.934.627 1.526 0 .62-.207 1.137-.617 1.555-.411.417-.919.626-1.525.626-.553 0-1.04-.219-1.464-.657-.424-.438-.635-.947-.635-1.524 0-.58.211-1.084.635-1.514.425-.43.912-.647 1.465-.647zm31.606 29h-3.152v-13.489c0-1.874-.299-3.227-.898-4.072-.6-.841-1.541-1.26-2.817-1.26-1.927 0-3.994 1.197-6.2 3.592v15.227h-3.15v-21.042h3.15v3.089c2.262-2.396 4.645-3.593 7.149-3.593 3.944 0 5.917 2.382 5.917 7.15l.001 14.398zm22.619-18.033c-1.764-.579-3.428-.868-4.989-.868-1.711 0-3.063.287-4.061.858-.995.572-1.493 1.337-1.493 2.292 0 .606.228 1.134.687 1.585.457.452 1.373.873 2.745 1.263l3.01.869c1.385.39 2.52.856 3.394 1.403.872.544 1.53 1.204 1.967 1.977.435.774.656 1.674.656 2.696 0 2.009-.842 3.594-2.524 4.758-1.685 1.163-3.824 1.745-6.421 1.745-2.584 0-4.72-.389-6.402-1.172l.606-2.724c1.762.833 3.656 1.25 5.673 1.25 1.749 0 3.174-.325 4.273-.979 1.095-.653 1.645-1.517 1.645-2.596 0-.727-.273-1.376-.816-1.95-.547-.572-1.83-1.168-3.849-1.787-1.629-.496-2.828-.87-3.594-1.119a7.572 7.572 0 0 1-2.14-1.101c-.661-.486-1.161-1.063-1.504-1.736s-.516-1.426-.516-2.26c0-1.82.793-3.259 2.385-4.324 1.589-1.064 3.696-1.596 6.321-1.596 1.695 0 3.579.29 5.653.868l-.706 2.648zm27.222 17.085c-2.116.97-4.194 1.456-6.239 1.456-3.757 0-5.636-1.985-5.636-5.958v-12.864h-4.039v-2.726h4.039v-5.757h3.071v5.757h7.149v2.726h-7.149v12.036c0 1.279.282 2.274.848 2.979.565.708 1.333 1.06 2.304 1.06 1.721 0 3.425-.382 5.107-1.15l.545 2.441zm19.367.948h-3.151v-18.317h-6.2v-2.725h9.352v21.042h-.001zm-1.535-29a2.05 2.05 0 0 1 1.515.635c.417.425.624.934.624 1.526 0 .62-.207 1.137-.617 1.555-.41.417-.917.626-1.523.626-.553 0-1.041-.219-1.467-.657-.424-.438-.631-.947-.631-1.524 0-.58.208-1.084.631-1.514.429-.43.916-.647 1.468-.647zm31.808 28.052c-2.114.97-4.195 1.456-6.24 1.456-3.755 0-5.634-1.985-5.634-5.958v-12.864h-4.039v-2.726h4.039v-5.757h3.07v5.757h7.148v2.726h-7.148v12.036c0 1.279.282 2.274.85 2.979.565.708 1.331 1.06 2.303 1.06 1.72 0 3.425-.382 5.106-1.15l.545 2.441zm24.577.948h-3.152v-3.109c-2.261 2.411-4.646 3.615-7.15 3.615-3.944 0-5.917-2.39-5.917-7.17v-14.377h3.151v13.47c0 1.788.282 3.126.852 4.007.564.884 1.521 1.323 2.865 1.323 1.924 0 3.992-1.198 6.199-3.594v-15.207h3.152v21.042zm25.06-.948c-2.109.97-4.189 1.456-6.239 1.456-3.757 0-5.632-1.985-5.632-5.958v-12.864h-4.04v-2.726h4.04v-5.757h3.069v5.757h7.148v2.726h-7.148v12.036c0 1.279.285 2.274.849 2.979.567.708 1.333 1.06 2.302 1.06 1.722 0 3.427-.382 5.108-1.15l.543 2.441zm25.245-9.472h-14.438c0 2.384.688 4.35 2.066 5.898 1.384 1.549 3.078 2.321 5.079 2.321 1.915 0 3.885-.343 5.919-1.03l.544 2.523c-1.86.835-4.028 1.252-6.503 1.252-3.123 0-5.642-1-7.555-3.008-1.912-2.005-2.868-4.71-2.868-8.118 0-3.339.855-6.001 2.572-7.986 1.72-1.986 3.938-2.978 6.657-2.978 2.423 0 4.448.922 6.082 2.767 1.628 1.844 2.438 4.302 2.438 7.371v.99h.005v-.002zm-3.433-2.563c0-1.643-.512-3.027-1.538-4.15-1.02-1.125-2.167-1.685-3.43-1.685-1.629 0-2.98.537-4.052 1.614-1.067 1.079-1.665 2.485-1.784 4.221h10.804z" fill="#1D4B9F"/><path fill="none" stroke="#979CCD" stroke-width=".862" d="M170 297.595h300V342.4H170z"/></svg>