<svg xmlns="http://www.w3.org/2000/svg" width="640" height="640" viewBox="0 0 640 640"><path fill="#82BC00" d="M241.875 210.13c4.441-3.439 10.827-2.631 14.268 1.808 3.446 4.438 2.637 10.829-1.802 14.271-4.443 3.441-10.832 2.634-14.274-1.806-3.438-4.439-2.63-10.827 1.808-14.273"/><path fill="#00ACC8" d="M95.66 280.632c-6.162 22.084 6.748 44.975 28.831 51.129 22.085 6.161 44.979-6.749 51.14-28.826a41.386 41.386 0 0 0 1.439-8.365c2.69-16.858 9.37-28.334 24.834-28.075.136.002 1.011.03 1.33.034a26.511 26.511 0 0 0 14.467-3.865c9.583-4.079 17.71-4.27 22.792 3.844.042.079.336.549.437.727 3.966 6.439 11.915 9.629 19.447 7.261 8.894-2.792 13.845-12.274 11.049-21.171-2.792-8.897-12.269-13.849-21.174-11.051-.557.178-1.104.38-1.629.605-8.889 2.521-15.062-2.436-19.646-11.59-.28-.814-.604-1.61-.965-2.39-.051-.117-.113-.229-.172-.345a21.879 21.879 0 0 0-1.011-1.931c-.078-.136-.164-.259-.246-.393a31.141 31.141 0 0 0-1.167-1.786 4.67 4.67 0 0 0-.147-.181c-3.392-4.623-8.288-8.197-14.24-9.858-14.125-3.939-28.772 4.315-32.71 18.446-.25.893-.447 1.786-.6 2.677-4.302 13.879-16.125 17.765-32.131 15.964-21.708-5.368-43.881 7.461-49.928 29.14"/><path fill="#555759" d="M241.829 331.1c0 10.197-9.737 16.901-21.128 16.901-8.729 0-15.25-2.203-20.209-5.236v-11.207c4.315 3.218 10.102 5.879 17.638 5.879 6.337 0 12.674-1.376 12.674-7.072 0-13.596-31.14-5.879-31.14-27.283 0-12.494 10.382-17.823 21.865-17.823 6.154 0 11.667 1.745 16.443 4.225v10.749c-3.769-2.479-8.82-4.684-15.157-4.684-5.788 0-12.128 1.744-12.128 7.256 0 11.207 31.142 3.306 31.142 28.295m46.205-11.392v27.558H277.1V318.79c0-4.042-.919-8.36-11.205-8.36-3.033 0-5.513.551-7.352 1.377v35.46h-11.022v-63.294h11.022v18.281c2.575-1.011 5.604-1.561 9.187-1.561 12.769 0 20.304 7.073 20.304 19.015m43.168.46v12.4c0 7.442-5.052 15.433-19.29 15.433-14.516 0-19.659-8.082-19.659-15.707 0-3.397 1.377-14.425 19.75-14.425 2.847 0 5.606.275 8.085.644 0-4.96-2.572-8.634-9.736-8.634-5.512 0-10.014.918-13.414 2.296v-8.912c3.857-1.562 8.542-2.57 14.055-2.57 13.044 0 20.209 6.888 20.209 19.475m-11.023 5.327c-1.931-.275-4.135-.55-6.614-.55-7.44 0-10.381 2.204-10.381 5.97 0 4.776 2.851 7.351 8.637 7.351 6.154 0 8.359-2.757 8.359-6.982v-5.789zm39.961-24.802v9.553c-6.157.091-10.29 1.103-11.853 1.561v35.46h-11.023V305.56s9.737-4.594 22.876-4.867m40.23 34.264v8.91c-4.223 2.297-9.919 4.134-17.267 4.134-9.096 0-21.312-3.675-21.312-23.148 0-13.688 5.509-24.253 20.483-24.253 14.329 0 20.487 10.749 20.487 22.232 0 2.021 0 3.858-.187 5.696h-29.488c.645 8.818 6.341 10.012 11.668 10.012 6.525-.001 11.76-1.746 15.616-3.583m-27.282-14.055h18.466c-.549-5.788-3.398-11.299-9.278-11.299-5.422.001-8.544 3.123-9.188 11.299"/><path fill="#82BC00" d="M492.044 285.995l-19.655 61.272h-11.393l-13.688-42.717-13.777 42.717H422.14l-19.66-61.272h11.576l13.78 45.288 14.604-45.288h9.644l14.609 45.288 13.871-45.288zm3.761-.92h11.303v10.105h-11.303v-10.105zm.184 16.352h11.025v45.839h-11.025v-45.839zm49.889 33.163c0 7.624-6.618 13.411-17.094 13.411-5.788 0-10.656-1.561-14.514-3.766v-9.829c3.304 2.205 7.715 4.041 12.953 4.041 7.074 0 7.623-1.929 7.623-4.407 0-7.532-21.861-3.126-21.861-19.019 0-9.645 7.897-14.329 16.993-14.329 4.776 0 9.006 1.285 12.499 3.306v8.36c-2.761-1.286-6.253-2.204-10.569-2.204-4.592 0-7.9.918-7.9 3.857 0 7.074 21.87 1.839 21.87 20.579"/></svg>