<svg xmlns="http://www.w3.org/2000/svg" width="100" height="100" viewBox="0 0 100 100"><path fill="#FFF" d="M49.877 22.833c-7.079 0-14.826-.828-14.902-.835a.505.505 0 0 1-.461-.49v-3.423a.49.49 0 0 1 .49-.489c.1.01 6.508.835 14.874.835 8.364 0 14.773-.825 14.837-.833h.005c.302 0 .52.219.52.487v3.423a.49.49 0 0 1-.473.49c-.35.036-7.941.835-14.89.835zM35.056 21.46c.696.073 8.066.831 14.821.831 6.858 0 14.35-.781 14.821-.831v-3.317c-.626.079-6.839.828-14.821.828-7.872 0-14.021-.728-14.821-.827v3.316zm-.052-.004l.012.001-.012-.001zm26.25 39.821c0 1.495-.395 2.905-1.945 2.905-1.528 0-1.952-1.376-1.952-2.905 0-1.415.36-2.902 1.952-2.902 1.565 0 1.945 1.443 1.945 2.902zm-2.903 0c0 1.156.226 1.951.958 1.951.712 0 .958-.754.958-1.951 0-1.164-.232-1.951-.958-1.951s-.958.787-.958 1.951zm4.503-.972a.442.442 0 0 1-.289.091c-.282 0-.458-.189-.458-.457 0-.184.056-.29.162-.388l1.177-1.037a.634.634 0 0 1 .422-.14c.409 0 .542.267.542.487v4.825c0 .43-.344.495-.471.495-.282 0-.486-.192-.486-.508V59.79l-.599.515z"/><path fill="#FFF" d="M41.422 36.873c-.378-4.247-3.165-7.47-6.223-7.198-3.058.273-5.23 3.937-4.852 8.185.378 4.247 3.164 7.468 6.222 7.196s5.231-3.935 4.853-8.183zm-3.351 5.464c-1.87.166-3.585-1.949-3.832-4.724-.248-2.775 1.067-5.159 2.936-5.326.681-.061 1.34.184 1.917.652-.552.178-.92.934-.842 1.807.086.964.682 1.699 1.332 1.64.512-.045.899-.573 1-1.264.217.575.365 1.211.426 1.889.246 2.776-1.069 5.16-2.937 5.326zm-3.1-20.939v-3.147c0-.154.057-.289.212-.25.155.038.927.155 1.332.174.405.02 2.22.212 2.22.212v3.532s-3.263-.328-3.475-.347-.289-.174-.289-.174m4.092-2.973v3.494l1.352.117v-3.514zm25.562 11.25c-3.059-.272-5.845 2.951-6.223 7.198-.378 4.248 1.794 7.912 4.853 8.184 3.059.272 5.845-2.949 6.224-7.196.375-4.25-1.797-7.913-4.854-8.186zm.96 7.939c-.249 2.775-1.964 4.889-3.833 4.724-1.868-.166-3.183-2.551-2.937-5.326.248-2.775 1.963-4.89 3.832-4.724.494.044.945.245 1.342.563-.606.115-1.024.908-.943 1.832.086.964.683 1.699 1.332 1.642.497-.044.878-.541.993-1.202.21.751.292 1.599.214 2.491z"/><path fill="#FFF" d="M57.2 92.56h-5.051l-.02-.249c-.492-5.866-1.471-10.823-2.14-10.823s-1.648 4.957-2.14 10.823l-.02.249h-5.071l-.075-.153c-.379-.783-9.315-19.231-10.42-26.235a23.69 23.69 0 0 1-.278-3.27l-.005-.254.557-.049v-.705l-6.418.417-.056-.218c-.138-.536-.256-1.57-.039-3.448.442-3.804 2.638-5.538 3.659-6.147-9.347-3.236-13.527-10.422-13.527-23.178 0-16.439 11.382-24.774 33.833-24.774 1.614 0 3.188.042 4.68.123l.04-.113.484.141c.612.025 9.458.393 11.678.467 2.915.097 7.119.365 10.584 1.087 3.855.803 6.151 1.45 6.476 2.379.062.18.083.457-.171.762-.469.563-1.395.668-2.374.78-1.091.123-2.218.25-2.583 1.017-.679 1.425.793 3.753 1.259 4.432l.047.072c.103.144.158.213.159.217l.636.824-.178-.076c2.055 3.485 3.095 7.738 3.095 12.663 0 12.756-4.179 19.942-13.526 23.176 1.02.611 3.217 2.345 3.658 6.149.219 1.878.1 2.912-.038 3.448l-.057.218-6.418-.417v.705l.557.049-.005.254a24.266 24.266 0 0 1-.277 3.27c-1.106 7.004-10.06 25.453-10.442 26.235l-.073.152zm-4.554-.541h4.215c.88-1.825 9.277-19.338 10.318-25.93.147-.943.238-1.933.267-2.946l-.546-.046v-1.78l6.54.425c.1-.542.158-1.475-.024-3.032-.497-4.278-3.4-5.773-3.799-5.959h-1.885l1.676-.529c9.595-3.032 13.873-10.094 13.873-22.901 0-5.169-1.166-9.578-3.464-13.102l-.049-.077a7.517 7.517 0 0 1-.15-.211l-.048-.07c-.669-.991-2.018-3.303-1.255-4.905.495-1.038 1.832-1.189 3.011-1.323.868-.098 1.689-.191 2.019-.588.112-.134.087-.205.075-.236-.285-.821-4.49-1.697-6.072-2.027-3.428-.713-7.599-.979-10.493-1.075-1.788-.06-7.858-.31-10.487-.417l.061.026-1.495-.088a84.924 84.924 0 0 0-4.943-.139c-9.174 0-16.239 1.31-21.602 4-7.756 3.894-11.69 10.7-11.69 20.233 0 12.807 4.279 19.87 13.873 22.901l1.677.529h-1.886c-.42.189-3.297 1.645-3.798 5.959-.181 1.557-.124 2.49-.023 3.032l6.539-.425v1.78l-.546.046a22.97 22.97 0 0 0 .266 2.946c1.04 6.592 9.42 24.105 10.299 25.93h4.233c.304-3.527 1.133-11.072 2.658-11.072 1.524-.002 2.352 7.544 2.655 11.071zm5.325-42.926h-.055a66.427 66.427 0 0 1-4.725-.146c-.904-.054-1.759-.108-3.202-.108-1.429 0-2.252.052-3.123.108-1.062.068-2.267.143-4.805.146h-.055c-6.221 0-10.4-.811-13.151-2.544-3.003-1.894-4.463-5.039-4.463-9.611 0-9.461 8.298-12.521 12.316-12.521 1.814 0 3.264.116 4.942.252 2.123.171 4.529.365 8.339.365s6.216-.194 8.339-.365c1.679-.136 3.128-.252 4.941-.252 4.019 0 12.318 3.06 12.318 12.521 0 4.549-1.499 7.694-4.581 9.611-2.786 1.733-6.93 2.544-13.035 2.544zm-.055-.544h.055c6 0 10.051-.783 12.748-2.458 2.911-1.813 4.326-4.806 4.326-9.153 0-9.052-7.933-11.98-11.775-11.98-1.791 0-3.23.116-4.897.25-2.134.172-4.551.368-8.383.368-3.832 0-6.249-.196-8.383-.368-1.667-.134-3.106-.25-4.898-.25-3.841 0-11.774 2.928-11.774 11.98 0 4.432 1.338 7.341 4.21 9.153 2.661 1.676 6.749 2.458 12.862 2.458h.055c2.521 0 3.716-.075 4.771-.143.88-.057 1.711-.108 3.157-.108 1.459 0 2.322.054 3.236.108 1.065.068 2.274.143 4.69.143z"/><path fill="#FFF" d="M88.657 42.056c5.379-2.632 11.2-1.37 11.2-1.37s-1.201-1.588-1.561-2.422c-.358-.835.368-2.274.368-2.274s-7.891.771-12.041 3.018c-2.369 1.281-4.159 2.718-5.703 4.222-1.909 3.868-4.823 6.464-8.634 8.185l-.171 1.063s.619-.363 1.538-.92c1.298-.064 4.289-.518 5.813-1.389 2.034-1.163 4.726-2.803 7.587-3.068 2.861-.267 8.307 2.109 8.307 2.109s-1.009-1.571-.915-2.76c.093-1.187.977-1.65.977-1.65s-4.705-1.146-8.941-.176c-4.199.961-6.595 3.167-9.239 4.68 1.508-.993 2.952-2.011 3.693-2.726 1.954-1.887 2.344-1.89 7.722-4.522zM52.845 92.288c.211.943.784 3.148 1.51 3.167.924.023 1.291-.886 1.658-1.793.197-.487.434-.998.614-1.374h-3.782zm-9.493 0c.18.376.417.886.613 1.374.368.907.735 1.816 1.658 1.793.727-.018 1.298-2.223 1.51-3.167h-3.781zm6.637-37.704c-5.812 0-10.973-.256-15.404-1.094 3.494 1.568 9.209 2.589 15.672 2.589 6.729 0 12.648-1.106 16.093-2.783-4.64.987-10.125 1.288-16.361 1.288zM34.448 72.709s5.785 1.438 15.205 1.438 15.873-1.438 15.873-1.438l-.671 1.795S58.044 76.3 49.602 76.3s-14.521-1.796-14.521-1.796l-.633-1.795zm-3.695-.091c.188.358.631 1.177 1.021 1.708.509.697.768.804 1.263.674.547-.143.692-.182.751-1.368.035-.692.045-1.265.047-1.637l-3.082.623zm35.39-.624c.002.373.012.945.046 1.637.06 1.187.205 1.226.752 1.368.495.13.754.023 1.265-.674.388-.531.832-1.35 1.021-1.708l-3.084-.623zm-40.169-9.945l.2 1.389 6.634-.591v-1.241zm48.03 0l-.199 1.389-6.634-.591v-1.241z"/><path fill="#FFF" d="M68.286 71.784l-.535.535.53.108.324-.324.488.488.582.118.063-.107-.818-.817 1.309-1.306.439.438c.073-.137.143-.269.218-.416l-.341-.341.985-.984c.163-.356.323-.713.461-1.062.007-.016.012-.034.019-.049l-.156.156-1.309-1.309 1.309-1.309.74.739c.049-.167.096-.33.141-.491l-.564-.564.944-.945c.127-.561.193-.921.193-.921l-.441-.055.295.295-1.309 1.306-1.309-1.306.517-.517-.566-.069-.267.268-.341-.343-.724-.088.749.749-1.307 1.306-.987-.985c-.02.177-.044.367-.071.563l.74.74-1.094 1.094c-.007.027-.013.057-.021.084a43.75 43.75 0 0 0-.208.777l.016-.016 1.307 1.309-1.307 1.309-.536-.537-.125.509.344.343-.564.563c-.082.335-.151.627-.201.836l1.082-1.081 1.306 1.309zm3.25-3.249l-1.307 1.309-1.309-1.309 1.309-1.309 1.307 1.309zm-1.307-4.558l1.307 1.309-1.307 1.309-1.309-1.309 1.309-1.309zm-2.933 2.933l1.309-1.309 1.307 1.309-1.307 1.309-1.309-1.309zm1.308 1.941l1.307 1.309-1.307 1.309-1.309-1.309 1.309-1.309zm-34.944.965l-.124-.509-.536.536-1.308-1.309L33 67.226l.016.017a37.038 37.038 0 0 0-.208-.779c-.008-.027-.013-.056-.021-.083l-1.095-1.096.74-.742a22.8 22.8 0 0 1-.071-.562l-.986.985-1.308-1.306.749-.749-.726.089-.341.342-.267-.268-.566.069.517.517-1.308 1.306-1.309-1.306.295-.295-.44.055s.066.36.193.922l.943.943-.563.563c.044.162.091.326.141.492l.74-.739 1.308 1.309-1.308 1.309-.157-.157.019.051c.139.348.297.706.461 1.061l.985.986-.342.34c.075.146.146.279.218.417l.44-.439 1.309 1.306-.817.817.063.107.583-.118.488-.488.324.324.529-.106-.536-.536L33 70.478l1.082 1.081-.201-.834-.564-.565.343-.344zm-.977-2.906l-1.308 1.309-1.308-1.309 1.308-1.309 1.308 1.309zm-4.242-1.624l1.308-1.309 1.308 1.309-1.308 1.309-1.308-1.309zm0 3.249l1.308-1.309 1.309 1.309-1.309 1.309-1.308-1.309zm2.934 2.933l-1.308-1.309 1.308-1.309 1.308 1.309-1.308 1.309z"/></svg>