<svg xmlns="http://www.w3.org/2000/svg" width="80" height="75" viewBox="0 0 80 75"><path opacity=".9" fill="#FFF" stroke="#0A94B8" stroke-miterlimit="10" d="M34.311 2.375C12.865 6.426-1.972 23.193 1.17 39.826 3.463 51.961 14.704 60.665 28.944 62.91l4.469 10.602 7.782-10.272a51.759 51.759 0 0 0 4.493-.638C67.135 58.55 81.972 41.783 78.83 25.151 75.687 8.521 55.755-1.677 34.311 2.375z"/><path d="M14.532 28.763l2.411-.292.417 1.514.077-.009c1.106-1.177 2.539-2.237 4.104-2.426 3.59-.435 5.934 2.175 6.46 6.516.588 4.854-1.972 7.979-5.153 8.367-1.256.151-2.582-.262-3.91-1.143l.369 2.405.555 4.573-2.923.354-2.407-19.859zm10.426 5.722c-.358-2.954-1.528-4.662-3.888-4.376-1.103.134-2.084.826-3.15 2.128l.837 6.912c1.219.815 2.361 1.017 3.234.911 2.05-.25 3.368-2.26 2.967-5.575zm4.782-12.022c-.127-1.053.584-1.843 1.661-1.974 1.077-.129 1.981.464 2.11 1.518.124 1.027-.61 1.846-1.686 1.977-1.077.13-1.96-.493-2.085-1.521zm.943 4.343l2.922-.354 1.713 14.128-2.923.355-1.712-14.129zm7.359-.891l2.41-.292.419 1.513.077-.009c1.105-1.176 2.538-2.236 4.103-2.425 3.589-.436 5.935 2.174 6.461 6.515.588 4.855-1.972 7.98-5.153 8.366-1.256.153-2.581-.261-3.91-1.142l.368 2.404.555 4.573-2.923.354-2.407-19.857zm10.425 5.722c-.359-2.955-1.529-4.663-3.889-4.376-1.101.133-2.085.826-3.149 2.127l.837 6.911c1.218.817 2.362 1.017 3.232.912 2.052-.25 3.369-2.26 2.969-5.574zm4.783-12.024c-.129-1.052.583-1.843 1.661-1.973 1.077-.13 1.982.464 2.11 1.517.124 1.028-.609 1.846-1.687 1.977s-1.96-.492-2.084-1.521zm.942 4.345l2.924-.355 1.711 14.129-2.922.353-1.713-14.127zm7.863-3.169l-.445-3.022 2.974-.36.267 3.043.833 10.327-1.974.239-1.655-10.227zm1.204 14.661c-.147-1.208.591-2.209 1.693-2.344 1.129-.136 2.11.658 2.256 1.865.146 1.207-.624 2.16-1.752 2.297-1.102.133-2.05-.612-2.197-1.818z" fill="#0A94B8"/></svg>