<?xml version="1.0" encoding="utf-8"?>
<!-- Generator: Adobe Illustrator 16.0.4, SVG Export Plug-In . SVG Version: 6.00 Build 0)  -->
<!DOCTYPE svg PUBLIC "-//W3C//DTD SVG 1.1//EN" "http://www.w3.org/Graphics/SVG/1.1/DTD/svg11.dtd">
<svg version="1.1" id="レイヤー_1" xmlns="http://www.w3.org/2000/svg" xmlns:xlink="http://www.w3.org/1999/xlink" x="0px"
	 y="0px" width="354px" height="100px" viewBox="0 0 354 100" enable-background="new 0 0 354 100" xml:space="preserve">
<g>
	<path d="M138.168,60.095v9.018c0,3.003-0.75,5.259-1.501,7.512c-0.75,1.503-2.252,3.756-3.753,4.507
		c-1.505,1.502-4.511,2.252-7.513,2.252c-3.004,0-6.011-0.75-7.512-2.252c-1.504-1.503-3.006-3.003-3.757-4.507
		c-0.751-2.253-1.501-4.509-1.501-7.512V30.048c0-2.252,0.75-5.258,1.501-6.758c0.751-1.506,2.253-3.759,3.757-5.258
		c1.501-1.505,4.508-2.255,7.512-2.255c3.002,0,6.008,0.75,7.513,2.255c1.501,1.499,3.003,3.002,3.753,5.258
		c0.752,2.251,1.501,4.506,1.501,6.758v9.015h-9.012v-9.015c0-1.499-0.753-3.006-1.502-3.758c-0.752-0.749-1.504-0.749-2.253-0.749
		c-1.503,0-2.255,1.5-3.004,2.255c0,0.753,0,1.502-0.754,2.252v39.064c0,1.503,0.754,3.003,1.503,3.756
		c0.752,0.751,0.752,0.751,1.502,0.751c2.254,0,3.006-0.751,3.006-2.253V60.095H138.168z M165.963,70.616
		c0,4.507-1.5,8.263-4.507,10.516c-1.502,1.502-3.755,2.252-6.76,2.252c-6.012,0-9.016-3.003-9.765-6.759
		c-0.754-1.502-1.504-3.756-1.504-6.76V45.072c0-4.507,1.504-8.264,4.506-11.267c1.504-1.5,3.757-2.255,6.763-2.255
		c6.008,0,9.014,3.005,10.518,6.012c0.75,2.252,1.5,3.755,1.5,6.009v24.79L165.963,70.616z M157.702,45.825
		c0-1.504,0-3.004-1.504-4.507c-0.751-0.753-1.501-0.753-2.254-0.753c-1.499,0-2.252,1.504-3.004,2.256v27.044
		c0,1.502,0,3.004,1.505,4.507c0.749,0.751,0.749,0.751,2.252,0.751c1.501,0,2.254-0.751,3.005-2.254V45.825z M195.26,82.633h-9.014
		v-3.005c-1.5,1.503-3.005,2.254-4.507,3.005c-0.75,0.75-1.503,0.75-2.251,0.75c-2.255,0-4.507-1.501-5.259-3.003
		c-1.504-1.502-1.504-4.51-1.504-6.009V42.82c0-2.256,0.75-4.507,1.504-6.013c0.752-1.5,3.004-3.002,5.259-3.002
		c1.502,0,3.753,0.75,4.505,2.251l2.253,2.256V18.032h9.014v66.103V82.633z M186.246,44.32c0-1.5-1.5-3.003-3.005-3.003
		c-1.502,0-2.251,1.503-2.251,3.003v27.795c0,1.503,0.75,3.007,2.251,3.007c1.505,0,3.005-1.503,3.005-3.007V44.32z M225.309,65.357
		v6.009c0,4.504-1.501,8.262-5.262,10.516c-1.5,1.501-3.752,2.252-6.759,2.252c-6.007,0-9.014-3.003-10.518-6.76
		c-0.748-1.504-1.5-3.756-1.5-6.759V45.825c0-4.507,1.5-8.263,5.259-11.27c1.5-1.5,3.755-2.25,6.759-2.25
		c6.015,0,9.019,3.002,10.52,6.008c0.752,2.251,1.501,3.756,1.501,6.007v14.274h-15.024v10.518c0,1.503,0.752,3.003,1.503,4.507
		c0.749,0.752,0.749,0.752,2.256,0.752c1.5,0,2.251-0.752,3.003-2.256v-7.512h8.262V65.357z M210.285,53.338h6.763v-6.765
		c0-1.501,0-3.002-1.503-4.504c-0.752-0.751-1.5-0.751-2.256-0.751c-1.5,0-2.251,1.503-3.003,2.253c0,0.75,0,1.501-0.751,2.254
		v6.761L210.285,53.338z M249.348,43.571h-2.253c-1.502,0-3.005,0-4.509,1.501c-1.502,1.501-2.252,3.006-2.252,4.508v33.804h-9.013
		V34.555h9.013v5.259c0-0.751,0.75-2.252,2.252-3.757c1.503-1.501,3.759-2.251,6.762-2.251V43.571z M253.104,83.384V17.279h7.512
		c9.016,0,13.523,1.502,16.525,6.761c2.257,5.259,3.005,13.522,3.005,26.293c0,12.769,0,21.034-3.005,26.292
		c-2.252,5.258-7.509,6.759-16.525,6.759H253.104z M262.87,73.619c3.008,0,5.259,0,6.01-3.755c0.752-1.503,0.752-3.759,0.752-6.763
		v-25.54c0-3.007-0.752-5.257-0.752-6.762c-0.751-3.003-3.002-3.758-6.01-3.758V73.619z M308.696,71.366
		c0,4.504-1.503,8.262-4.507,10.516c-1.507,1.501-3.759,2.252-6.765,2.252c-6.009,0-9.011-3.003-9.765-6.76
		c-0.75-1.504-1.501-3.756-1.501-6.759V45.825c0-4.507,1.501-8.263,4.507-11.27c1.502-1.5,3.754-2.25,6.76-2.25
		c6.013,0,9.017,3.002,10.517,6.008c0.755,2.251,1.503,3.756,1.503,6.007v24.792L308.696,71.366z M300.429,46.573
		c0-1.501,0-3.002-1.499-4.504c-0.752-0.751-1.506-0.751-2.255-0.751c-1.502,0-2.256,1.503-3.004,2.253v27.045
		c0,1.5,0,3.003,1.502,4.507c0.75,0.748,0.75,0.748,2.251,0.748c1.506,0,2.254-0.748,3.005-2.251V46.573z M314.703,17.279h9.014
		v9.011h-9.014V17.279z M323.717,33.805v50.33c0,2.254,0,6.763-1.503,9.767c-1.5,3.005-3.755,6.009-9.014,6.009h-3.755v-8.263h2.255
		c1.5,0,2.254-1.502,2.254-3.005V33.805H323.717z M353.015,70.616c0,4.507-1.502,8.263-4.505,10.516
		c-1.503,1.502-3.759,2.252-6.763,2.252c-6.009,0-9.013-3.003-9.768-6.759c-0.75-1.502-1.499-3.756-1.499-6.76V45.072
		c0-4.507,1.499-8.264,4.507-11.267c1.503-1.5,3.756-2.255,6.76-2.255c6.009,0,9.014,3.005,10.518,6.012
		c0.75,2.252,1.502,3.755,1.502,6.009v24.79L353.015,70.616z M344.75,45.825c0-1.504,0-3.004-1.501-4.507
		c-0.752-0.753-1.502-0.753-2.254-0.753c-1.501,0-2.251,1.504-3.002,2.256v27.044c0,1.502,0,3.004,1.501,4.507
		c0.751,0.751,0.751,0.751,2.253,0.751s2.254-0.751,3.003-2.254V45.825z"/>
	<g>
		<defs>
			<rect id="SVGID_1_" width="354.133" height="100"/>
		</defs>
		<clipPath id="SVGID_2_">
			<use xlink:href="#SVGID_1_"  overflow="visible"/>
		</clipPath>
		<path clip-path="url(#SVGID_2_)" fill="#FEFEFE" d="M96.853,49.58c0,26.553-21.525,48.078-48.08,48.078
			c-26.55,0-48.074-21.525-48.074-48.078c0-26.552,21.524-48.078,48.074-48.078C75.328,1.502,96.853,23.027,96.853,49.58
			L96.853,49.58z"/>
		<path clip-path="url(#SVGID_2_)" d="M49.527,0c27.042,0,49.578,21.784,49.578,49.58c0,27.045-21.782,49.579-49.578,49.579
			c-27.043,0-49.58-21.783-49.58-49.579C-0.053,22.538,21.731,0,49.527,0L49.527,0z M48.773,2.253h-0.748
			C22.483,2.253,2.2,23.29,2.2,48.829c0,25.542,20.283,46.574,46.573,46.574c-12.769,0-22.536-10.519-22.536-23.288
			c0-12.772,10.52-23.287,23.29-23.287c12.771,0,23.287-10.516,23.287-23.288c0-12.769-10.517-23.288-23.287-23.288H48.773z"/>
	</g>
	<path d="M41.263,30.8V13.523c0-0.75,0-1.503,0.75-2.256c0.753-0.749,1.503-0.749,2.255-0.749h9.015c0.751,0,1.503,0,2.254,0.749
		c0.751,0.753,0.751,1.506,0.751,2.256V30.8c0,0.75,0,1.505-0.751,2.255c-0.751,0.75-1.503,0.75-2.254,0.75h-9.015
		c-0.752,0-1.502,0-2.255-0.75C41.263,32.305,41.263,31.55,41.263,30.8L41.263,30.8z M53.282,30.8V13.523h-9.015V30.8H53.282z"/>
	<path fill="#FFFFFF" d="M45.02,83.384h4.507V66.105H45.02c-0.752,0-0.752,0-0.752-0.748l-0.752-0.753c0-0.75,0-0.75,0.752-0.75
		l0.752-0.752h7.513v20.282h3.004v-6.009c0-0.75,0-0.75,0.751-0.75l0.751-0.754c0.752,0,0.752,0,0.752,0.754l0.75,0.75v7.51
		c0,0.752,0,0.752-0.75,0.752l-0.752,0.752H45.02c-0.752,0-0.752,0-0.752-0.752l-0.752-0.752c0-0.75,0-0.75,0.752-0.75L45.02,83.384
		z"/>
</g>
</svg>
