<?xml version="1.0" encoding="utf-8"?>
<!-- Generator: Adobe Illustrator 16.0.4, SVG Export Plug-In . SVG Version: 6.00 Build 0)  -->
<!DOCTYPE svg PUBLIC "-//W3C//DTD SVG 1.1//EN" "http://www.w3.org/Graphics/SVG/1.1/DTD/svg11.dtd">
<svg version="1.1" id="レイヤー_1" xmlns="http://www.w3.org/2000/svg" xmlns:xlink="http://www.w3.org/1999/xlink" x="0px"
	 y="0px" width="400px" height="320px" viewBox="0 0 400 320" enable-background="new 0 0 400 320" xml:space="preserve">
<g>
	<g>
		<path fill="#FFFF00" d="M3.364,72.768V3.814h20.062c20.326,0,35.013,15.223,35.013,34.388c0,19.253-14.596,34.566-35.013,34.566
			H3.364z M6.052,70.082h17.374c18.447,0,32.327-13.702,32.327-31.88c0-18.09-13.88-31.702-32.327-31.702H6.052V70.082z"/>
		<path fill="#FFFF00" d="M74.294,50.29c0-12.894,10.657-23.73,23.732-23.73c13.253,0,23.73,10.746,23.73,23.73
			c0,12.717-9.94,23.822-23.73,23.822C84.414,74.112,74.294,63.007,74.294,50.29z M76.981,50.29
			c0,11.643,9.493,21.135,21.045,21.135c11.641,0,21.044-9.492,21.044-21.135c0-11.551-9.403-21.043-21.044-21.043
			C86.474,29.247,76.981,38.739,76.981,50.29z"/>
		<path fill="#FFFF00" d="M129.849,93.902c9.851-2.508,10.656-8.687,10.656-14.866V27.993h2.687v51.044
			c0,7.88-2.508,14.866-12.716,17.462L129.849,93.902z M141.849,9.545c-1.433,0-2.419-0.985-2.419-2.418
			c0-1.433,0.986-2.418,2.419-2.418s2.417,0.985,2.417,2.418C144.267,8.56,143.282,9.545,141.849,9.545z"/>
		<path fill="#FFFF00" d="M160.482,50.29c0-12.894,10.657-23.73,23.731-23.73c13.254,0,23.731,10.746,23.731,23.73
			c0,12.717-9.94,23.822-23.731,23.822C170.601,74.112,160.482,63.007,160.482,50.29z M163.168,50.29
			c0,11.643,9.494,21.135,21.045,21.135c11.641,0,21.045-9.492,21.045-21.135c0-11.551-9.404-21.043-21.045-21.043
			C172.662,29.247,163.168,38.739,163.168,50.29z"/>
		<path fill="#FFFF00" d="M223.801,38.291c0-19.343,16.299-35.373,35.91-35.373c6.986,0,14.868,2.328,20.418,6l-1.432,2.239
			c-5.194-3.404-12.447-5.552-18.986-5.552c-18.359,0-33.223,14.686-33.223,32.686s14.864,32.687,33.223,32.687
			c6.896,0,14.597-2.598,20.33-6.718l1.521,2.241c-6.089,4.387-14.417,7.163-21.851,7.163
			C240.011,73.664,223.801,57.545,223.801,38.291z"/>
		<path fill="#FFFF00" d="M294.865,50.29c0-12.894,10.656-23.73,23.731-23.73c13.253,0,23.73,10.746,23.73,23.73
			c0,12.717-9.94,23.822-23.73,23.822C304.983,74.112,294.865,63.007,294.865,50.29z M297.552,50.29
			c0,11.643,9.492,21.135,21.044,21.135c11.64,0,21.042-9.492,21.042-21.135c0-11.551-9.402-21.043-21.042-21.043
			C307.043,29.247,297.552,38.739,297.552,50.29z"/>
		<path fill="#FFFF00" d="M394.452,72.768h-2.687V42.32c0-7.164-5.82-13.073-12.985-13.073c-11.911,0-16.388,10.029-16.567,19.522
			v24h-2.687V27.993h2.687v8.955c3.044-6.447,9.134-10.388,16.567-10.388c8.597,0,15.671,7.164,15.671,15.76V72.768z"/>
		<circle fill="#FFFF00" cx="6.223" cy="70.175" r="6.222"/>
		<circle fill="#FFFF00" cx="98.998" cy="27.232" r="6.222"/>
		<path fill="#FFFF00" d="M333.311,49.353c-0.611,3.381,1.633,6.618,5.015,7.231c3.38,0.613,6.618-1.632,7.232-5.014
			c0.609-3.382-1.633-6.618-5.015-7.231C337.162,43.726,333.924,45.971,333.311,49.353z"/>
		<circle fill="#FFFF00" cx="141.683" cy="7.521" r="6.222"/>
		<circle fill="#FFFF00" cx="280.724" cy="63.951" r="6.222"/>
		<circle fill="#FFFF00" cx="186.071" cy="72.548" r="6.222"/>
		<circle fill="#FFFF00" cx="392.584" cy="70.175" r="6.223"/>
	</g>
	<g>
		<path fill="#FFFF00" d="M242.418,312.157h-45.4c0,0,24.396-29.952,34.945-42.292c3.58-4.143,5.275-8.007,5.275-12.245
			c0-11.773-8.948-16.483-16.67-16.483c-6.878,0-12.718,1.978-18.839,6.405l-1.695-2.262c6.405-4.614,12.716-6.97,20.534-6.97
			c8.854,0,19.497,5.557,19.497,19.31c0,4.897-1.979,9.514-5.935,14.13c-8.76,10.171-25.431,30.706-31.083,37.582h39.371V312.157z"
			/>
		<path fill="#FFFF00" d="M258.061,275.705c0-17.613,7.911-37.395,26.844-37.395s26.845,19.782,26.845,37.395
			c0,19.685-9.327,37.394-26.845,37.394C267.293,313.099,258.061,295.39,258.061,275.705z M260.886,275.705
			c0,17.143,7.63,34.57,24.019,34.57c16.296,0,24.02-17.428,24.02-34.57c0-17.049-7.252-34.568-24.02-34.568
			C268.139,241.137,260.886,258.656,260.886,275.705z"/>
		<path fill="#FFFF00" d="M335.942,239.631v72.526h-2.826v-72.526H335.942z"/>
		<path fill="#FFFF00" d="M355.728,290.965c0-15.071,7.536-27.691,16.391-37.677c8.006-8.949,16.295-14.412,16.295-14.412
			l1.506,2.45c0,0.563-20.722,12.527-28.822,35.132c5.084-5.559,10.831-7.629,16.766-7.629c12.34,0,22.136,9.983,22.136,22.135
			c0,12.15-9.795,22.134-22.136,22.134C365.525,313.099,355.728,303.115,355.728,290.965z M358.554,290.965
			c0,10.644,8.666,19.311,19.31,19.311c10.645,0,19.31-8.667,19.31-19.311c0-10.644-8.666-19.31-19.31-19.31
			C367.502,271.655,358.554,279.944,358.554,290.965z"/>
		<circle fill="#FFFF00" cx="241.043" cy="312.157" r="6.545"/>
		<circle fill="#FFFF00" cx="303.499" cy="250.246" r="6.545"/>
		<circle fill="#FFFF00" cx="334.636" cy="309.43" r="6.545"/>
		<circle fill="#FFFF00" cx="388.579" cy="243.109" r="6.545"/>
	</g>
	<g>
		<path fill="#FFFF00" d="M11.914,231.57c12.805-3.171,13.979-11.275,13.979-19.383v-97.382h3.522v97.382
			c0,13.041-4.58,19.736-16.679,22.908L11.914,231.57z"/>
		<path fill="#FFFF00" d="M54.402,205.258h-3.877l41.116-93.154l40.878,93.154h-3.875l-13.98-31.835H68.381L54.402,205.258z
			 M69.907,169.899h43.229l-21.496-49.103L69.907,169.899z"/>
		<path fill="#FFFF00" d="M157.465,205.258h-3.525v-90.453h25.257c16.094,0,29.956,8.928,29.956,24.904
			c0,14.919-13.981,23.259-28.781,23.259h-22.907V205.258z M157.465,159.443h22.907c12.569,0,25.256-6.814,25.256-19.735
			c0-14.802-13.274-21.379-26.431-21.379h-21.732V159.443z"/>
		<path fill="#FFFF00" d="M219.167,205.258h-3.875l41.113-93.154l40.88,93.154h-3.875l-13.979-31.835h-46.285L219.167,205.258z
			 M234.674,169.899h43.229l-21.499-49.103L234.674,169.899z"/>
		<path fill="#FFFF00" d="M392.715,208.899l-70.483-86.929v83.287h-3.524v-93.154l70.483,86.928v-84.227h3.524V208.899z"/>
		<circle fill="#FFFF00" cx="8.164" cy="232.44" r="8.162"/>
		<circle fill="#FFFF00" cx="391.836" cy="115.894" r="8.162"/>
		<circle fill="#FFFF00" cx="155.444" cy="161.831" r="8.162"/>
		<circle fill="#FFFF00" cx="130.657" cy="205.257" r="8.162"/>
		<circle fill="#FFFF00" cx="281.691" cy="171.06" r="8.162"/>
	</g>
</g>
</svg>
