<?xml version="1.0" encoding="utf-8"?>
<!-- Generator: Adobe Illustrator 16.0.4, SVG Export Plug-In . SVG Version: 6.00 Build 0)  -->
<!DOCTYPE svg PUBLIC "-//W3C//DTD SVG 1.1//EN" "http://www.w3.org/Graphics/SVG/1.1/DTD/svg11.dtd">
<svg version="1.1" id="レイヤー_1" xmlns="http://www.w3.org/2000/svg" xmlns:xlink="http://www.w3.org/1999/xlink" x="0px"
	 y="0px" width="400px" height="80px" viewBox="0 0 400 80" enable-background="new 0 0 400 80" xml:space="preserve">
<g>
	<polyline fill="none" stroke="#FFF701" stroke-miterlimit="10" points="1,62 9.468,70.468 30.639,70.468 38.048,77.877 
		59.218,77.877 66.628,70.468 390.532,70.468 399,62 	"/>
	<line fill="none" stroke="#FFF701" stroke-miterlimit="10" x1="1" y1="78.936" x2="9.468" y2="70.468"/>
</g>
<g>
	<path fill="#FFFF00" d="M163.068,1.185h-6.595v16.542h-0.67V1.185h-6.594v-0.67h13.859V1.185z"/>
	<path fill="#FFFF00" d="M178.478,17.727h-0.67V9.455h-10.283v8.271h-0.67V0.514h0.67v8.271h10.283V0.514h0.67V17.727z"/>
	<path fill="#FFFF00" d="M192.392,9.455h-7.712v7.601h8.83v0.671h-9.5V0.514h9.277v0.67h-8.606v7.601h7.712V9.455z"/>
	<path fill="#FFFF00" d="M219.905,17.727V1.833l-6.818,8.092l-6.839-8.092v15.894h-0.672V0l7.511,8.896L220.576,0v17.727H219.905z"
		/>
	<path fill="#FFFF00" d="M225.446,9.098c0-4.828,3.934-8.808,8.83-8.808c4.917,0,8.807,4.023,8.807,8.808
		c0,4.896-3.957,8.851-8.807,8.851C229.403,17.949,225.446,13.994,225.446,9.098z M226.115,9.098c0,4.515,3.667,8.181,8.16,8.181
		c4.493,0,8.136-3.666,8.136-8.181c0-4.493-3.644-8.137-8.136-8.137C229.782,0.961,226.115,4.605,226.115,9.098z"/>
	<path fill="#FFFF00" d="M248.586,17.727h-0.669V0.514h4.805c2.995,0,5.7,1.632,5.7,4.739c0,2.593-2.236,4.158-4.828,4.404
		l6.103,8.07h-0.827l-6.103-8.047h-4.181V17.727z M248.586,9.008h4.359c2.392,0,4.806-1.296,4.806-3.755
		c0-2.817-2.525-4.068-5.029-4.068h-4.136V9.008z"/>
	<path fill="#FFFF00" d="M272.216,9.455h-7.713v7.601h8.83v0.671h-9.5V0.514h9.277v0.67h-8.606v7.601h7.713V9.455z"/>
	<path fill="#FFFF00" d="M285.4,17.727V0.514h5.701c5.075,0,8.717,3.799,8.717,8.584c0,4.806-3.62,8.628-8.717,8.628H285.4z
		 M291.101,14.262c2.838,0,4.896-2.325,4.896-5.164c0-2.816-2.058-5.119-4.896-5.119h-1.924v10.283H291.101z"/>
	<path fill="#FFFF00" d="M304.022,9.098c0-4.806,4.001-8.808,8.852-8.808c4.873,0,8.807,4.046,8.807,8.808
		c0,4.896-4,8.851-8.807,8.851C308.047,17.949,304.022,13.994,304.022,9.098z M307.822,9.098c0,2.816,2.19,5.365,5.052,5.365
		c2.817,0,4.986-2.548,4.986-5.365c0-2.794-2.169-5.32-4.986-5.32C310.013,3.778,307.822,6.304,307.822,9.098z"/>
	<path fill="#FFFF00" d="M324.065,20.164c1.99-0.492,2.012-1.296,2.012-1.833V0.514h3.778v17.435c0,2.885-0.983,4.36-4.94,5.455
		L324.065,20.164z"/>
	<path fill="#FFFF00" d="M334.681,9.098c0-4.806,4.001-8.808,8.852-8.808c4.873,0,8.808,4.046,8.808,8.808
		c0,4.896-4.001,8.851-8.808,8.851C338.704,17.949,334.681,13.994,334.681,9.098z M338.481,9.098c0,2.816,2.191,5.365,5.052,5.365
		c2.816,0,4.985-2.548,4.985-5.365c0-2.794-2.168-5.32-4.985-5.32C340.672,3.778,338.481,6.304,338.481,9.098z"/>
	<path fill="#FFFF00" d="M356.273,15.804l1.968-2.727c1.72,1.207,2.66,1.385,3.709,1.385c1.454,0,2.08-0.447,2.08-1.609
		c0-2.75-7.465-2.079-7.465-7.601c0-3.867,2.883-4.985,5.342-4.985c1.989,0,3.062,0.336,5.476,2.146l-1.967,2.727
		c-1.744-1.251-2.525-1.386-3.509-1.386c-0.961,0-1.609,0.358-1.609,1.498c0,0.805,1.34,1.476,2.325,1.833
		c2.458,0.894,5.142,2.346,5.142,5.768c0,3.845-2.638,5.095-5.813,5.095C360.073,17.949,358.822,17.638,356.273,15.804z"/>
	<path fill="#FFFF00" d="M371.378,20.677c0.737-0.581,1.475-1.699,1.63-3.04c0,0-0.178,0.089-0.402,0.089
		c-0.491,0-0.894-0.402-0.894-0.895c0-0.491,0.403-0.893,0.894-0.893c0.492,0,0.895,0.402,0.895,0.893c0,2.169-1.006,3.6-1.9,4.204
		L371.378,20.677z"/>
	<path fill="#FFFF00" d="M38.985,34.74H32.39v16.542h-0.671V34.74h-6.594v-0.671h13.86V34.74z"/>
	<path fill="#FFFF00" d="M54.395,51.281h-0.671v-8.271H43.441v8.271H42.77V34.069h0.671v8.271h10.282v-8.271h0.671V51.281z"/>
	<path fill="#FFFF00" d="M68.308,43.011h-7.711v7.601h8.83v0.67h-9.5V34.069h9.276v0.671h-8.605v7.6h7.711V43.011z"/>
	<path fill="#FFFF00" d="M95.822,51.281V35.388l-6.818,8.091l-6.84-8.091v15.893h-0.67V33.555l7.51,8.896l7.489-8.896v17.726H95.822
		z"/>
	<path fill="#FFFF00" d="M101.361,42.654c0-4.83,3.935-8.809,8.83-8.809c4.918,0,8.808,4.024,8.808,8.809
		c0,4.894-3.957,8.851-8.808,8.851C105.319,51.504,101.361,47.547,101.361,42.654z M102.032,42.654c0,4.514,3.666,8.181,8.159,8.181
		s8.137-3.667,8.137-8.181c0-4.494-3.644-8.138-8.137-8.138S102.032,38.16,102.032,42.654z"/>
	<path fill="#FFFF00" d="M124.502,51.281h-0.67V34.069h4.807c2.995,0,5.7,1.632,5.7,4.739c0,2.593-2.236,4.158-4.828,4.404
		l6.103,8.069h-0.827l-6.104-8.048h-4.18V51.281z M124.502,42.563h4.359c2.393,0,4.807-1.296,4.807-3.755
		c0-2.816-2.526-4.068-5.029-4.068h-4.136V42.563z"/>
	<path fill="#FFFF00" d="M148.133,43.011h-7.713v7.601h8.83v0.67h-9.5V34.069h9.276v0.671h-8.606v7.6h7.713V43.011z"/>
	<path fill="#FFFF00" d="M160.981,42.674c0-4.805,4.046-8.829,8.875-8.829c1.944,0,3.979,0.625,6.259,2.168l-1.922,2.816
		c-1.654-1.072-2.951-1.498-4.336-1.498c-2.861,0-5.052,2.548-5.052,5.342s2.191,5.343,5.052,5.343c1.475,0,2.928-0.514,4.671-1.765
		l1.878,2.794c-2.168,1.676-4.471,2.458-6.549,2.458C165.006,51.504,160.981,47.458,160.981,42.674z"/>
	<path fill="#FFFF00" d="M179.78,42.654c0-4.807,4.001-8.809,8.852-8.809c4.874,0,8.808,4.045,8.808,8.809
		c0,4.894-4.001,8.851-8.808,8.851C183.804,51.504,179.78,47.547,179.78,42.654z M183.58,42.654c0,2.814,2.19,5.364,5.052,5.364
		c2.817,0,4.985-2.549,4.985-5.364c0-2.795-2.168-5.322-4.985-5.322C185.771,37.332,183.58,39.859,183.58,42.654z"/>
	<path fill="#FFFF00" d="M201.598,42.654c0-4.807,4-8.809,8.852-8.809c4.873,0,8.807,4.045,8.807,8.809
		c0,4.894-4.001,8.851-8.807,8.851C205.621,51.504,201.598,47.547,201.598,42.654z M205.398,42.654c0,2.814,2.19,5.364,5.052,5.364
		c2.817,0,4.986-2.549,4.986-5.364c0-2.795-2.169-5.322-4.986-5.322C207.588,37.332,205.398,39.859,205.398,42.654z"/>
	<path fill="#FFFF00" d="M224.09,51.281V34.069h3.778v13.747h7.31v3.465H224.09z"/>
	<path fill="#FFFF00" d="M245.904,42.674c0-4.805,4.046-8.829,8.875-8.829c1.945,0,3.979,0.625,6.259,2.168l-1.922,2.816
		c-1.655-1.072-2.951-1.498-4.337-1.498c-2.862,0-5.052,2.548-5.052,5.342s2.19,5.343,5.052,5.343c1.475,0,2.928-0.514,4.672-1.765
		l1.877,2.794c-2.169,1.676-4.47,2.458-6.549,2.458C249.928,51.504,245.904,47.458,245.904,42.674z"/>
	<path fill="#FFFF00" d="M264.702,42.654c0-4.807,4.002-8.809,8.853-8.809c4.873,0,8.807,4.045,8.807,8.809
		c0,4.894-4.001,8.851-8.807,8.851C268.726,51.504,264.702,47.547,264.702,42.654z M268.502,42.654c0,2.814,2.19,5.364,5.052,5.364
		c2.817,0,4.985-2.549,4.985-5.364c0-2.795-2.168-5.322-4.985-5.322C270.693,37.332,268.502,39.859,268.502,42.654z"/>
	<path fill="#FFFF00" d="M290.972,51.281h-3.777V34.069h5.7c3.265,0,6.125,1.654,6.125,5.23c0,2.169-1.476,3.958-3.175,4.784
		l4.449,7.198h-4.158l-3.934-6.572h-1.23V51.281z M290.972,41.222h1.945c1.185,0,2.325-0.648,2.325-1.923
		c0-1.229-1.14-1.765-2.348-1.765h-1.922V41.222z"/>
	<path fill="#FFFF00" d="M304.496,51.281V34.069h5.7c5.075,0,8.718,3.801,8.718,8.585c0,4.805-3.621,8.627-8.718,8.627H304.496z
		 M310.196,47.816c2.84,0,4.896-2.325,4.896-5.162c0-2.817-2.056-5.12-4.896-5.12h-1.921v10.282H310.196z"/>
	<path fill="#FFFF00" d="M333.72,44.419h-6.103v3.396h7.22v3.465h-10.998V34.069h10.775v3.465h-6.998v3.419h6.103V44.419z"/>
	<path fill="#FFFF00" d="M343.654,51.281h-3.778V34.069h5.701c3.262,0,6.124,1.654,6.124,5.23c0,2.169-1.474,3.958-3.174,4.784
		l4.449,7.198h-4.158l-3.936-6.572h-1.228V51.281z M343.654,41.222h1.944c1.185,0,2.325-0.648,2.325-1.923
		c0-1.229-1.14-1.765-2.346-1.765h-1.923V41.222z"/>
	<path fill="#FFFF00" d="M356.459,49.358l1.967-2.727c1.721,1.208,2.66,1.386,3.71,1.386c1.453,0,2.08-0.447,2.08-1.609
		c0-2.75-7.466-2.08-7.466-7.601c0-3.866,2.883-4.984,5.343-4.984c1.989,0,3.062,0.335,5.477,2.146l-1.968,2.727
		c-1.743-1.251-2.525-1.385-3.508-1.385c-0.961,0-1.61,0.357-1.61,1.497c0,0.805,1.342,1.476,2.326,1.833
		c2.458,0.894,5.14,2.348,5.14,5.767c0,3.845-2.636,5.096-5.812,5.096C360.259,51.504,359.007,51.192,356.459,49.358z"/>
	<path fill="#FFFF00" d="M372.606,51.281c-0.492,0-0.894-0.402-0.894-0.895c0-0.49,0.402-0.893,0.894-0.893s0.895,0.403,0.895,0.893
		C373.501,50.879,373.099,51.281,372.606,51.281z"/>
</g>
</svg>
