<?xml version="1.0" encoding="utf-8"?>
<!-- Generator: Adobe Illustrator 16.0.4, SVG Export Plug-In . SVG Version: 6.00 Build 0)  -->
<!DOCTYPE svg PUBLIC "-//W3C//DTD SVG 1.1//EN" "http://www.w3.org/Graphics/SVG/1.1/DTD/svg11.dtd">
<svg version="1.1" id="レイヤー_1" xmlns="http://www.w3.org/2000/svg" xmlns:xlink="http://www.w3.org/1999/xlink" x="0px"
	 y="0px" width="382px" height="80px" viewBox="-279.5 320.5 382 80" enable-background="new -279.5 320.5 382 80"
	 xml:space="preserve">
<g>
	<polyline fill="none" stroke="#FFF701" stroke-miterlimit="10" points="-278.5,382.5 -270.032,390.968 -248.861,390.968 
		-241.452,398.377 -220.282,398.377 -212.872,390.968 93.032,390.968 101.5,382.5 	"/>
	<line fill="none" stroke="#FFF701" stroke-miterlimit="10" x1="-278.5" y1="399.436" x2="-270.032" y2="390.968"/>
</g>
<g>
	<path fill="#FFFF00" d="M-134.432,321.686h-6.595v16.541h-0.67v-16.541h-6.594v-0.67h13.859V321.686z"/>
	<path fill="#FFFF00" d="M-119.022,338.227h-0.67v-8.271h-10.283v8.271h-0.67v-17.213h0.67v8.271h10.283v-8.271h0.67V338.227z"/>
	<path fill="#FFFF00" d="M-105.108,329.955h-7.712v7.602h8.83v0.67h-9.5v-17.213h9.277v0.67h-8.606v7.602h7.712L-105.108,329.955
		L-105.108,329.955z"/>
	<path fill="#FFFF00" d="M-77.596,338.227v-15.894l-6.817,8.092l-6.839-8.092v15.894h-0.672V320.5l7.511,8.896l7.489-8.896v17.727
		H-77.596z"/>
	<path fill="#FFFF00" d="M-72.055,329.598c0-4.828,3.935-8.808,8.83-8.808c4.918,0,8.808,4.022,8.808,8.808
		c0,4.896-3.957,8.852-8.808,8.852C-68.098,338.449-72.055,334.494-72.055,329.598z M-71.385,329.598
		c0,4.516,3.667,8.182,8.16,8.182c4.492,0,8.136-3.666,8.136-8.182c0-4.492-3.644-8.137-8.136-8.137
		C-67.718,321.461-71.385,325.105-71.385,329.598z"/>
	<path fill="#FFFF00" d="M-48.914,338.227h-0.669v-17.213h4.806c2.994,0,5.699,1.633,5.699,4.739c0,2.593-2.236,4.158-4.828,4.404
		l6.104,8.069h-0.827l-6.103-8.047h-4.182V338.227z M-48.914,329.508h4.359c2.392,0,4.806-1.296,4.806-3.755
		c0-2.817-2.524-4.067-5.028-4.067h-4.137V329.508z"/>
	<path fill="#FFFF00" d="M-25.284,329.955h-7.713v7.602h8.83v0.67h-9.5v-17.213h9.276v0.67h-8.605v7.602h7.713L-25.284,329.955
		L-25.284,329.955z"/>
	<path fill="#FFFF00" d="M-12.1,338.227v-17.213h5.701c5.074,0,8.717,3.799,8.717,8.584c0,4.807-3.62,8.629-8.717,8.629H-12.1
		L-12.1,338.227z M-6.398,334.762c2.838,0,4.896-2.324,4.896-5.164c0-2.815-2.058-5.119-4.896-5.119h-1.925v10.283H-6.398z"/>
	<path fill="#FFFF00" d="M6.521,329.598c0-4.806,4.002-8.808,8.853-8.808c4.873,0,8.808,4.046,8.808,8.808
		c0,4.896-4,8.852-8.808,8.852C10.547,338.449,6.521,334.494,6.521,329.598z M10.322,329.598c0,2.816,2.189,5.365,5.052,5.365
		c2.817,0,4.985-2.548,4.985-5.365c0-2.793-2.168-5.32-4.985-5.32C12.514,324.277,10.322,326.805,10.322,329.598z"/>
	<path fill="#FFFF00" d="M26.564,340.664c1.99-0.492,2.013-1.296,2.013-1.833v-17.817h3.778v17.436c0,2.885-0.983,4.359-4.94,5.455
		L26.564,340.664z"/>
	<path fill="#FFFF00" d="M37.182,329.598c0-4.806,4-8.808,8.852-8.808c4.873,0,8.808,4.046,8.808,8.808
		c0,4.896-4.001,8.852-8.808,8.852C41.204,338.449,37.182,334.494,37.182,329.598z M40.98,329.598c0,2.816,2.191,5.365,5.053,5.365
		c2.816,0,4.984-2.548,4.984-5.365c0-2.793-2.168-5.32-4.984-5.32C43.172,324.277,40.98,326.805,40.98,329.598z"/>
	<path fill="#FFFF00" d="M58.773,336.305l1.968-2.728c1.72,1.207,2.659,1.385,3.709,1.385c1.454,0,2.079-0.446,2.079-1.608
		c0-2.75-7.465-2.08-7.465-7.602c0-3.867,2.884-4.984,5.343-4.984c1.989,0,3.062,0.336,5.476,2.146l-1.967,2.728
		c-1.744-1.252-2.525-1.387-3.509-1.387c-0.962,0-1.609,0.357-1.609,1.498c0,0.805,1.341,1.477,2.325,1.833
		c2.458,0.894,5.143,2.347,5.143,5.769c0,3.845-2.639,5.095-5.813,5.095C62.573,338.449,61.322,338.139,58.773,336.305z"/>
	<path fill="#FFFF00" d="M73.878,341.177c0.737-0.581,1.476-1.698,1.63-3.04c0,0-0.178,0.09-0.402,0.09
		c-0.49,0-0.894-0.402-0.894-0.896c0-0.491,0.403-0.894,0.894-0.894c0.492,0,0.896,0.402,0.896,0.894
		c0,2.169-1.006,3.601-1.899,4.204L73.878,341.177z"/>
	<path fill="#FFFF00" d="M-241.12,355.24h-6.595v16.542h-0.671V355.24h-6.594v-0.672h13.86V355.24z"/>
	<path fill="#FFFF00" d="M-225.709,371.781h-0.671v-8.271h-10.283v8.271h-0.671v-17.213h0.671v8.271h10.282v-8.271h0.671
		L-225.709,371.781L-225.709,371.781z"/>
	<path fill="#FFFF00" d="M-211.796,363.511h-7.711v7.601h8.83v0.671h-9.5v-17.214h9.276v0.672h-8.605v7.6h7.711L-211.796,363.511
		L-211.796,363.511z"/>
	<path fill="#FFFF00" d="M-184.283,371.781v-15.893l-6.818,8.09l-6.84-8.09v15.893h-0.67v-17.727l7.51,8.896l7.489-8.896v17.727
		H-184.283z"/>
	<path fill="#FFFF00" d="M-178.744,363.154c0-4.83,3.935-8.81,8.83-8.81c4.918,0,8.808,4.024,8.808,8.81
		c0,4.894-3.957,8.851-8.808,8.851C-174.786,372.004-178.744,368.047-178.744,363.154z M-178.072,363.154
		c0,4.514,3.666,8.181,8.159,8.181c4.493,0,8.137-3.667,8.137-8.181c0-4.494-3.644-8.139-8.137-8.139
		C-174.406,355.016-178.072,358.66-178.072,363.154z"/>
	<path fill="#FFFF00" d="M-155.603,371.781h-0.67v-17.213h4.807c2.995,0,5.7,1.633,5.7,4.74c0,2.592-2.236,4.157-4.828,4.403
		l6.103,8.069h-0.827l-6.104-8.049h-4.18L-155.603,371.781L-155.603,371.781z M-155.603,363.062h4.359
		c2.393,0,4.807-1.295,4.807-3.754c0-2.816-2.526-4.068-5.029-4.068h-4.136L-155.603,363.062L-155.603,363.062z"/>
	<path fill="#FFFF00" d="M-131.972,363.511h-7.713v7.601h8.83v0.671h-9.5v-17.214h9.276v0.672h-8.606v7.6h7.713V363.511z"/>
	<path fill="#FFFF00" d="M-119.124,363.174c0-4.805,4.046-8.829,8.875-8.829c1.944,0,3.979,0.625,6.259,2.169l-1.922,2.815
		c-1.654-1.072-2.951-1.498-4.336-1.498c-2.861,0-5.052,2.548-5.052,5.342s2.191,5.343,5.052,5.343c1.475,0,2.928-0.514,4.671-1.765
		l1.878,2.794c-2.168,1.676-4.471,2.458-6.549,2.458C-115.099,372.004-119.124,367.958-119.124,363.174z"/>
	<path fill="#FFFF00" d="M-100.325,363.154c0-4.807,4.001-8.81,8.85-8.81c4.872,0,8.806,4.046,8.806,8.81
		c0,4.894-4,8.851-8.806,8.851C-96.301,372.004-100.325,368.047-100.325,363.154z M-96.524,363.154c0,2.813,2.189,5.363,5.05,5.363
		c2.816,0,4.983-2.549,4.983-5.363c0-2.795-2.167-5.322-4.983-5.322C-94.334,357.832-96.524,360.359-96.524,363.154z"/>
	<path fill="#FFFF00" d="M-78.513,363.154c0-4.807,4-8.81,8.853-8.81c4.873,0,8.807,4.046,8.807,8.81
		c0,4.894-4.001,8.851-8.807,8.851C-74.489,372.004-78.513,368.047-78.513,363.154z M-74.712,363.154
		c0,2.813,2.189,5.363,5.052,5.363c2.817,0,4.985-2.549,4.985-5.363c0-2.795-2.168-5.322-4.985-5.322
		C-72.522,357.832-74.712,360.359-74.712,363.154z"/>
	<path fill="#FFFF00" d="M-56.021,371.781v-17.213h3.778v13.748h7.31v3.465H-56.021z"/>
	<path fill="#FFFF00" d="M-34.206,363.174c0-4.805,4.046-8.829,8.875-8.829c1.945,0,3.979,0.625,6.259,2.169l-1.922,2.815
		c-1.655-1.072-2.951-1.498-4.337-1.498c-2.862,0-5.053,2.548-5.053,5.342s2.19,5.343,5.053,5.343c1.475,0,2.928-0.514,4.672-1.765
		l1.877,2.794c-2.169,1.676-4.471,2.458-6.549,2.458C-30.183,372.004-34.206,367.958-34.206,363.174z"/>
	<path fill="#FFFF00" d="M-15.408,363.154c0-4.807,4.002-8.81,8.853-8.81c4.873,0,8.807,4.046,8.807,8.81
		c0,4.894-4,8.851-8.807,8.851C-11.384,372.004-15.408,368.047-15.408,363.154z M-11.608,363.154c0,2.813,2.189,5.363,5.053,5.363
		c2.816,0,4.984-2.549,4.984-5.363c0-2.795-2.168-5.322-4.984-5.322C-9.417,357.832-11.608,360.359-11.608,363.154z"/>
	<path fill="#FFFF00" d="M6.996,371.781v-17.213h5.699c5.076,0,8.719,3.802,8.719,8.586c0,4.805-3.621,8.627-8.719,8.627H6.996z
		 M12.695,368.316c2.841,0,4.896-2.325,4.896-5.162c0-2.817-2.056-5.12-4.896-5.12h-1.92v10.282H12.695z"/>
	<path fill="#FFFF00" d="M36.221,364.919h-6.104v3.396h7.22v3.466H26.339v-17.212h10.775v3.466h-6.998v3.419h6.103v3.466H36.221z"/>
	<path fill="#FFFF00" d="M46.154,371.781h-3.778v-17.213h5.701c3.262,0,6.124,1.654,6.124,5.23c0,2.169-1.475,3.958-3.174,4.784
		l4.449,7.198h-4.158l-3.937-6.572h-1.228V371.781L46.154,371.781z M46.154,361.723h1.943c1.186,0,2.325-0.648,2.325-1.924
		c0-1.229-1.14-1.765-2.346-1.765h-1.923V361.723z"/>
	<path fill="#FFFF00" d="M58.959,369.857l1.967-2.727c1.721,1.208,2.66,1.387,3.711,1.387c1.452,0,2.079-0.447,2.079-1.609
		c0-2.75-7.466-2.08-7.466-7.602c0-3.865,2.883-4.983,5.343-4.983c1.989,0,3.062,0.335,5.478,2.146l-1.969,2.727
		c-1.742-1.25-2.524-1.385-3.508-1.385c-0.961,0-1.609,0.357-1.609,1.498c0,0.805,1.342,1.476,2.326,1.832
		c2.457,0.895,5.14,2.349,5.14,5.768c0,3.845-2.636,5.096-5.812,5.096C62.759,372.004,61.507,371.691,58.959,369.857z"/>
	<path fill="#FFFF00" d="M75.105,371.781c-0.492,0-0.894-0.402-0.894-0.896c0-0.489,0.401-0.893,0.894-0.893
		s0.896,0.403,0.896,0.893C76.001,371.379,75.6,371.781,75.105,371.781z"/>
</g>
</svg>
