<?xml version="1.0" encoding="utf-8"?>
<!-- Generator: Adobe Illustrator 16.0.4, SVG Export Plug-In . SVG Version: 6.00 Build 0)  -->
<!DOCTYPE svg PUBLIC "-//W3C//DTD SVG 1.1//EN" "http://www.w3.org/Graphics/SVG/1.1/DTD/svg11.dtd">
<svg version="1.1" id="レイヤー_1" xmlns="http://www.w3.org/2000/svg" xmlns:xlink="http://www.w3.org/1999/xlink" x="0px"
	 y="0px" width="315px" height="430px" viewBox="0 0 315 430" enable-background="new 0 0 315 430" xml:space="preserve">
<path fill="#4D4D4D" d="M314.695,234.41c-0.193-1.665-1.594-2.882-3.224-2.911l-7.674-65.063c0.855-0.354,1.414-1.234,1.302-2.199
	c-0.13-1.119-1.11-1.924-2.219-1.867l-14.905-40.723c0.567-0.491,0.89-1.243,0.797-2.044c-0.149-1.287-1.313-2.209-2.6-2.06
	c-0.083,0.01-0.158,0.035-0.237,0.052l-42.645-54.469c0.539-0.59,0.838-1.393,0.738-2.249c-0.182-1.567-1.6-2.691-3.167-2.51
	c-0.395,0.046-0.762,0.171-1.086,0.356l-0.016-0.02l0.01,0.024c-0.108,0.062-0.206,0.139-0.305,0.214L218.51,43.256
	c0.682-1.091,1.016-2.411,0.856-3.788c-0.374-3.225-3.292-5.537-6.517-5.163c-1.98,0.229-3.614,1.421-4.495,3.052L144.461,9.26
	c0.284-0.665,0.421-1.403,0.332-2.173c-0.273-2.359-2.408-4.05-4.767-3.777c-2.012,0.233-3.527,1.824-3.763,3.75l-43.788-3.1
	c-0.003-0.047,0.003-0.092-0.002-0.139c-0.241-2.078-2.122-3.567-4.2-3.327c-2.048,0.237-3.517,2.068-3.329,4.111l-20.343,6.166
	c-0.534-1.21-1.796-1.994-3.18-1.833c-1.7,0.197-2.919,1.735-2.722,3.436c0.197,1.7,1.735,2.918,3.436,2.722
	c1.575-0.183,2.722-1.519,2.727-3.066l31.323-1.729c0.255,1.271,1.435,2.16,2.746,2.008c0.714-0.083,1.319-0.46,1.72-0.993
	l60.073,33.824c-0.112,0.358-0.156,0.744-0.11,1.141c0.176,1.52,1.551,2.609,3.071,2.433c0.056-0.006,0.107-0.026,0.163-0.036
	l22.97,46.961c-1.08,0.662-1.743,1.902-1.587,3.243c0.165,1.422,1.2,2.524,2.509,2.857l-8.737,58.159
	c-0.089,0.003-0.177-0.007-0.267,0.004c-1.76,0.204-3.021,1.796-2.817,3.556c0.065,0.562,0.283,1.062,0.591,1.491l-33.176,41.334
	c-0.226-0.105-0.481-0.155-0.747-0.125c-0.595,0.069-1.055,0.505-1.19,1.055l-39.236,9.949c-0.867-2.118-3.042-3.501-5.427-3.226
	c-2.872,0.333-4.931,2.932-4.598,5.804c0.012,0.101,0.046,0.192,0.063,0.291l-28.249,9.087c-0.717-1.186-2.074-1.914-3.54-1.744
	c-2.003,0.232-3.439,2.044-3.207,4.047c0.063,0.544,0.25,1.04,0.518,1.478l-32.244,27.921c-0.594-0.706-1.518-1.111-2.502-0.997
	c-1.56,0.181-2.678,1.592-2.497,3.151c0.141,1.213,1.028,2.15,2.148,2.426L9.638,310.471c-0.838-0.199-1.722-0.268-2.628-0.162
	c-4.17,0.483-7.159,4.256-6.676,8.426s4.256,7.159,8.426,6.676c0.066-0.008,0.129-0.023,0.194-0.032l6.536,36.036
	c-0.055,0.003-0.107-0.004-0.162,0.002c-1.952,0.227-3.351,1.992-3.125,3.944c0.227,1.952,1.993,3.351,3.945,3.125
	c0.774-0.09,1.455-0.429,1.989-0.918l27.643,31.863c-0.574,0.703-0.877,1.625-0.765,2.597c0.221,1.908,1.947,3.275,3.854,3.055
	c1.045-0.121,1.916-0.702,2.464-1.51l37.509,14.756c-0.136,0.329-0.201,0.691-0.157,1.069c0.138,1.19,1.214,2.042,2.403,1.904
	c0.977-0.113,1.717-0.862,1.877-1.785l31.544,5.313c-0.023,0.281-0.021,0.568,0.013,0.859c0.276,2.382,2.43,4.088,4.812,3.812
	c2.238-0.26,3.857-2.181,3.818-4.388l14.713-1.769c0.488,2.189,2.542,3.71,4.819,3.445c2.435-0.281,4.179-2.484,3.897-4.918
	c-0.02-0.173-0.07-0.333-0.109-0.498l52.007-20.158c0.546,1.02,1.67,1.657,2.888,1.516c1.592-0.185,2.732-1.625,2.548-3.216
	c-0.048-0.414-0.184-0.796-0.383-1.134l17.829-14.801c0.215,0.029,0.435,0.042,0.661,0.016c1.3-0.15,2.26-1.225,2.319-2.49
	l22.281-18.498c0.601,0.675,1.506,1.059,2.471,0.947c1.573-0.183,2.701-1.606,2.519-3.18c-0.083-0.714-0.429-1.326-0.921-1.776
	l30.56-47.472c0.531,0.298,1.154,0.443,1.805,0.367c1.646-0.189,2.826-1.679,2.635-3.324c-0.137-1.187-0.953-2.121-2.011-2.484
	l17.077-67.67c0.333,0.068,0.679,0.1,1.035,0.059C313.605,237.865,314.905,236.224,314.695,234.41z M234.282,380.438
	c-0.053-0.247-0.131-0.482-0.246-0.697l14.297-10.969L234.282,380.438z M133.119,424.568c-0.312-2.146-2.149-3.696-4.279-3.698
	l-1.521-12.891c0.968-0.243,1.797-0.79,2.377-1.542l18.83,13.453c-0.573,0.838-0.874,1.864-0.761,2.95L133.119,424.568z
	 M23.178,265.477c0.149,0.006,0.298,0.011,0.45-0.007c0.823-0.096,1.515-0.538,1.966-1.16l22.836,14.775
	c-0.131,0.27-0.193,0.577-0.156,0.897c0.049,0.425,0.261,0.789,0.562,1.047l-27.15,24.042l-8.405,7.442
	c-0.862-0.869-1.927-1.525-3.108-1.899L23.178,265.477z M64.819,11.487c-0.011-0.065-0.027-0.129-0.042-0.192l20.267-6.152
	c0.442,1.835,2.178,3.102,4.102,2.878c1.148-0.133,2.102-0.775,2.699-1.666l4.472,2.518c-0.111,0.276-0.173,0.571-0.18,0.88
	L64.819,11.487z M285.381,117.787c-0.091,0.046-0.176,0.1-0.259,0.157l-22.854-11.532c0.016-0.167,0.018-0.337-0.002-0.511
	c-0.152-1.313-1.341-2.255-2.655-2.103c-0.165,0.019-0.323,0.054-0.474,0.104l-16.724-40.129c0.165-0.078,0.318-0.17,0.462-0.277
	L285.381,117.787z M101.133,9.477c-0.111-0.837-0.621-1.526-1.317-1.895l4.356,1.252c-0.018,0.156-0.014,0.315-0.011,0.475
	L101.133,9.477z M96.577,8.384l-4.454-2.507c0.07-0.146,0.131-0.297,0.182-0.453l6.525,1.875c-0.157-0.012-0.317-0.012-0.479,0.007
	C97.601,7.393,96.975,7.808,96.577,8.384z M135.602,7.568l-24.327,1.347c-0.003-0.03,0.002-0.06-0.001-0.09
	c-0.227-1.963-2.002-3.369-3.965-3.142c-1.491,0.173-2.657,1.242-3.033,2.605L92.429,4.885c0.021-0.123,0.046-0.244,0.055-0.37
	l3.86,0.273L135.602,7.568z M210.699,396.969c-1.103,0.127-1.976,0.863-2.355,1.828l-26.125-5.973
	c0.038-0.347,0.046-0.701,0.004-1.062c-0.066-0.567-0.244-1.091-0.485-1.574l17.417-8.967l19.38-9.979
	c0.194,0.442,0.557,0.782,1.002,0.95l-1.092,3.582l-6.506,21.327C211.551,396.974,211.132,396.919,210.699,396.969z M92.246,417.507
	l18.55-31.243c0.127,0.01,0.257,0.01,0.389-0.006c0.446-0.052,0.837-0.251,1.141-0.537l9.429,12.317l1.814,2.369
	c-1.131,0.902-1.793,2.341-1.614,3.884c0.045,0.386,0.154,0.744,0.291,1.089l-29.604,12.578
	C92.529,417.79,92.398,417.638,92.246,417.507z M49.093,398.223l2.469-33.094c0.106-0.003,0.209,0.008,0.317-0.005
	c2.039-0.235,3.5-2.081,3.264-4.119c-0.03-0.256-0.085-0.502-0.162-0.737l26.468-7.848c0.219,0.466,0.547,0.86,0.956,1.155
	l-31.876,45.261C50.108,398.526,49.619,398.319,49.093,398.223z M144.132,207.381c-0.009-0.081-0.029-0.159-0.051-0.234
	l35.959-6.335c0.212,0.862,0.677,1.605,1.317,2.156l-18.054,23.663l-19.53,25.596c-0.191-0.102-0.403-0.167-0.625-0.191
	l0.112-24.626l0.085-18.615C143.868,208.545,144.202,207.989,144.132,207.381z M188.242,95.159l-8.527-51.349
	c0.271-0.04,0.528-0.108,0.775-0.201l15.215,30.139c-0.742,0.367-1.214,1.164-1.113,2.034c0.073,0.634,0.438,1.158,0.941,1.472
	l-6.203,17.984C188.982,95.156,188.618,95.123,188.242,95.159z M184.569,195.687l4.07-93.771l8.169,69.266
	c-0.227,0.1-0.425,0.244-0.589,0.421l-0.072-0.007l0.051,0.029c-0.33,0.37-0.511,0.868-0.45,1.398
	c0.032,0.271,0.126,0.518,0.261,0.735l-2.83,6.042l-7.569,16.161C185.278,195.829,184.933,195.73,184.569,195.687z M282.514,276.898
	L266.83,213.2c0.52-0.358,0.835-0.977,0.757-1.647c-0.046-0.398-0.227-0.745-0.485-1.013l14.852-11.808l2.24-1.781
	c0.522,0.756,1.334,1.274,2.264,1.409l-3.62,78.6C282.73,276.937,282.625,276.91,282.514,276.898z M50.946,399.206l31.937-45.349
	c0.488,0.229,1.04,0.338,1.616,0.271c1.305-0.15,2.305-1.122,2.573-2.337l14.379,1.322l8.04,0.739
	c-0.003,0.133-0.01,0.266,0.006,0.401c0.065,0.567,0.297,1.072,0.634,1.483l-58.78,43.967
	C51.23,399.525,51.096,399.359,50.946,399.206z M189.605,101.682l20.431,47.027c-0.44,0.38-0.691,0.964-0.619,1.585
	c0.043,0.371,0.195,0.701,0.42,0.966l-12.43,19.771c-0.021,0.001-0.04-0.001-0.06,0l-8.168-69.256
	C189.323,101.749,189.47,101.727,189.605,101.682z M45.237,313.261l55.752-10.5l12.819-2.413c0.033,0.163,0.084,0.317,0.154,0.463
	l-41.366,28.294l-3.33,2.277c-0.763-1-2.007-1.594-3.348-1.438c-0.771,0.089-1.456,0.412-1.999,0.888l-19.537-14.688
	C44.979,315.334,45.294,314.328,45.237,313.261z M219.944,90.275l19.147,7.454c-0.243,0.555-0.359,1.172-0.285,1.816
	c0.136,1.179,0.842,2.148,1.807,2.683l-2.242,8.717l-5.393,20.967c-0.029,0.003-0.058-0.002-0.087,0.001
	c-0.328,0.038-0.629,0.14-0.911,0.274l-2.475-7.656L218.75,91.252C219.265,91.083,219.682,90.727,219.944,90.275z M257.509,106.453
	c0.016,0.141,0.05,0.275,0.089,0.406l-23.089,25.336c-0.296-0.146-0.62-0.241-0.958-0.279l5.13-19.948l2.447-9.515
	c0.498,0.18,1.038,0.263,1.6,0.198c1.401-0.162,2.506-1.127,2.933-2.379l12.17,4.696
	C257.575,105.402,257.446,105.915,257.509,106.453z M129.773,401.273c-0.89-1.236-2.388-1.979-4.008-1.791
	c-0.641,0.074-1.226,0.293-1.743,0.606l-11.341-14.813c0.182-0.308,0.279-0.664,0.274-1.04l66.865-19.603
	c0.177,0.48,0.417,0.928,0.711,1.331l-20.427,14.21L129.773,401.273z M111.979,382.536l1.216-25.882
	c1.288-0.401,2.151-1.67,1.99-3.059c-0.019-0.164-0.059-0.319-0.104-0.473l19.313-10.383l11.349-6.102
	c0.33,0.479,0.737,0.891,1.212,1.219l-34.559,45.01C112.272,382.738,112.132,382.628,111.979,382.536z M95.296,276.688
	c0.722-0.083,1.352-0.408,1.841-0.873l17.612,22.397c-0.557,0.33-0.933,0.916-0.983,1.578l-55.843,10.519l-12.75,2.401
	c-0.093-0.513-0.253-0.997-0.5-1.429l47.804-35.702C93.149,276.367,94.189,276.816,95.296,276.688z M209.37,325.618
	c0.195-0.022,0.381-0.069,0.563-0.123l10.038,43.253c-0.004,0-0.007,0-0.011,0c-0.423,0.049-0.788,0.247-1.064,0.529l-28.439-6.036
	c0.035-0.376,0.034-0.761-0.012-1.151c-0.166-1.428-0.868-2.66-1.877-3.53l19.334-33.118
	C208.359,325.604,208.855,325.678,209.37,325.618z M70.005,333.18c-0.056-0.485-0.209-0.935-0.429-1.338l27.179-18.591
	l17.508-11.975c0.113,0.128,0.245,0.235,0.386,0.33l-17.672,28.675l-11.282,18.307c-0.549-0.331-1.201-0.5-1.887-0.421
	c-0.563,0.065-1.065,0.291-1.483,0.614l-12.906-13.174C69.872,334.912,70.108,334.069,70.005,333.18z M187.694,201.858
	l26.879,13.034c-0.515,0.842-0.778,1.845-0.656,2.902c0.051,0.438,0.18,0.843,0.342,1.23l-21.229,12.827
	c-1.12-1.664-3.055-2.692-5.166-2.583l-2.994-25.378C186.102,203.648,187.112,202.889,187.694,201.858z M259.963,123.298
	l-2.869,7.792l-1.308,3.552c-0.309-0.054-0.625-0.08-0.952-0.042c-1.235,0.143-2.221,0.951-2.673,2.02l-0.597-0.064l-15.431-1.666
	c0.003-0.138,0.01-0.275-0.006-0.416c-0.042-0.362-0.156-0.696-0.314-1.001l23.273-11.442
	C259.233,122.552,259.546,122.991,259.963,123.298z M144.693,253.571c-0.005-0.048-0.021-0.093-0.031-0.14l38.182-15.83
	c0.721,1.546,2.084,2.704,3.714,3.167l-0.247,0.992l-5.373,21.547c-0.216-0.051-0.442-0.073-0.675-0.046
	c-0.461,0.053-0.859,0.269-1.161,0.576l-34.437-9.739C144.698,253.929,144.714,253.753,144.693,253.571z M256.494,178.185
	c0.002,0.098-0.007,0.193,0.004,0.292c0.199,1.714,1.734,2.942,3.444,2.776l5.593,28.778c-0.17,0.03-0.33,0.083-0.477,0.156
	l-65.738-37.362c0-0.071,0.005-0.142-0.003-0.215c-0.008-0.067-0.028-0.13-0.043-0.195L256.494,178.185z M143.292,255.482
	c0.034-0.007,0.068-0.014,0.101-0.022l9.908,18.546l12.364,23.145c-1.001,0.573-1.619,1.705-1.478,2.925
	c0.089,0.765,0.467,1.42,1.005,1.89l-13.199,27.86c-0.529-0.3-1.115-0.498-1.737-0.577l-6.81-72.131L143.292,255.482z
	 M181.458,263.514l5.64-22.617c0.561,0.104,1.145,0.127,1.741,0.058c1.564-0.182,2.91-0.965,3.841-2.089l5.823,4.568l18.25,14.318
	c-0.558,0.675-0.864,1.544-0.839,2.472l-33.751,3.98C181.991,263.915,181.746,263.68,181.458,263.514z M246.875,251.185
	l-23.794,7.58c-0.476-1.212-1.55-2.082-2.829-2.302l-0.066-2.202l-0.979-32.494c1.01-0.167,1.885-0.654,2.549-1.348l26.065,29.557
	C247.333,250.208,246.983,250.655,246.875,251.185z M215.968,260.775c0.097,0.542,0.307,1.034,0.604,1.462l-28.875,21.149
	l-18.935,13.867c-0.219-0.144-0.453-0.264-0.705-0.346l12.121-29.786c0.174,0.028,0.351,0.042,0.534,0.02
	c1.072-0.124,1.84-1.093,1.715-2.165c-0.01-0.083-0.033-0.161-0.053-0.24l19.372-2.285L215.968,260.775z M214.488,219.535
	c0.828,1.45,2.419,2.357,4.165,2.285l0.491,16.266l0.552,18.325c-0.167-0.003-0.333-0.012-0.502,0.008
	c-0.796,0.092-1.5,0.434-2.055,0.932l-24.127-18.928c0.766-1.125,1.15-2.517,0.981-3.975c-0.089-0.768-0.326-1.482-0.674-2.123
	l4.813-2.908L214.488,219.535z M154.383,333.41c-0.159-1.369-0.892-2.524-1.921-3.28l13.188-27.836
	c0.537,0.313,1.17,0.472,1.835,0.395c0.09-0.011,0.173-0.039,0.261-0.058l16.309,54.673c-1.015,0.173-1.926,0.609-2.661,1.241
	l-27.565-22.315C154.283,335.396,154.5,334.424,154.383,333.41z M188.125,358.217c-0.995-0.696-2.22-1.064-3.512-0.979
	l-16.338-54.769c0.734-0.305,1.304-0.884,1.603-1.604l36.268,19.861c-0.336,0.588-0.503,1.279-0.419,2.004
	c0.126,1.09,0.776,1.985,1.665,2.483l-14.323,24.535L188.125,358.217z M209.701,319.157c-0.349-0.077-0.712-0.112-1.087-0.069
	c-0.879,0.102-1.633,0.546-2.155,1.179l-9.464-5.183l-26.95-14.759c0.062-0.302,0.09-0.612,0.053-0.935
	c-0.082-0.707-0.415-1.317-0.887-1.777l47.708-34.942c0.583,0.617,1.365,1.029,2.234,1.139l-6.65,38.947L209.701,319.157z
	 M178.749,264.314c-0.17,0.332-0.248,0.715-0.201,1.113c0.08,0.692,0.514,1.252,1.099,1.533l-12.139,29.828
	c-0.231-0.028-0.467-0.039-0.709-0.011c-0.219,0.025-0.427,0.077-0.627,0.146l-22.27-41.688c0.24-0.156,0.438-0.365,0.577-0.613
	L178.749,264.314z M258.156,175.329l-8.641-13.847l-15.012-24.059c0.795-0.389,1.369-1.118,1.561-1.982l15.919,1.719
	c-0.084,0.363-0.122,0.744-0.076,1.136c0.199,1.724,1.685,2.97,3.386,2.931l3.714,33.807
	C258.705,175.094,258.418,175.189,258.156,175.329z M142.301,255.39c0.139,0.056,0.284,0.097,0.437,0.116l6.958,73.714
	c-0.197-0.002-0.391-0.015-0.591,0.009c-0.783,0.091-1.486,0.384-2.097,0.796l-29.362-29.36c0.114-0.294,0.168-0.616,0.129-0.951
	c-0.056-0.48-0.282-0.896-0.604-1.208l20.71-35.53L142.301,255.39z M239.485,290.631c-0.411,0.048-0.79,0.177-1.143,0.346
	l-16.257-28.059c0.884-0.781,1.388-1.964,1.242-3.224c-0.016-0.138-0.057-0.265-0.087-0.397l23.615-7.523
	c0.104,0.714,0.633,1.263,1.301,1.423l-7.794,37.451C240.076,290.61,239.784,290.596,239.485,290.631z M248.415,249.814
	l-15.852-17.975l-10.439-11.838c0.676-0.904,1.029-2.052,0.889-3.262c-0.013-0.115-0.051-0.219-0.073-0.331l41.155-4.854
	c-0.015,0.132-0.02,0.266-0.003,0.403c0.059,0.506,0.33,0.933,0.71,1.212l-15.764,36.703
	C248.842,249.815,248.631,249.797,248.415,249.814z M233.563,137.71c0.142-0.017,0.275-0.054,0.409-0.09l22.685,36.353l1.037,1.662
	c-0.27,0.211-0.497,0.465-0.684,0.75l-44.148-25.529c0.139-0.296,0.206-0.631,0.165-0.979c-0.033-0.285-0.136-0.543-0.282-0.769
	l18.023-12.743C231.349,137.282,232.412,137.843,233.563,137.71z M113.475,351.31l2.66-45.756l0.214-3.683
	c0.414-0.124,0.767-0.371,1.019-0.7l9.554,9.554l19.626,19.625c-1.156,0.996-1.814,2.527-1.625,4.157
	c0.07,0.601,0.259,1.156,0.525,1.661l-30.576,16.438C114.568,352.022,114.072,351.57,113.475,351.31z M219.71,263.832
	c0.115-0.003,0.227,0.008,0.343-0.005c0.587-0.068,1.117-0.281,1.583-0.581l16.227,28.01c-1.066,0.735-1.711,2.006-1.552,3.382
	c0.08,0.689,0.358,1.304,0.758,1.812l-25.705,23.646c-0.318-0.334-0.702-0.594-1.13-0.77L219.71,263.832z M210.267,151.62
	c0.336,0.209,0.739,0.318,1.164,0.269c0.448-0.052,0.833-0.268,1.117-0.575l12.933,7.479l31.265,18.08
	c-0.104,0.241-0.177,0.495-0.218,0.759l-8.223-0.829l-49.279-4.97c-0.235-0.356-0.587-0.624-1-0.742l7.527-11.974L210.267,151.62z
	 M198.605,174.248c0.284-0.213,0.499-0.504,0.617-0.841l65.35,37.14c-0.122,0.128-0.228,0.271-0.307,0.43l-41.443,4.888
	c-0.654-2.04-2.675-3.402-4.883-3.146c-0.233,0.027-0.452,0.087-0.671,0.147l-5.169-10.698L198.605,174.248z M87.141,351.242
	c0.005-0.146,0.011-0.291-0.006-0.439c-0.088-0.761-0.461-1.413-0.992-1.886l23.776-38.579l5.229-8.482
	c0.203,0.066,0.419,0.096,0.642,0.094l-2.86,49.188c-0.295-0.063-0.602-0.092-0.919-0.056c-1.242,0.145-2.194,1.067-2.453,2.222
	l-9.512-0.874L87.141,351.242z M150.202,338.688c1.398-0.162,2.57-0.925,3.324-1.99l27.464,22.233
	c-1.085,1.143-1.676,2.739-1.48,4.427c0.03,0.256,0.083,0.504,0.145,0.747l-66.778,19.576c-0.036-0.121-0.084-0.235-0.141-0.345
	l34.687-45.176C148.246,338.598,149.205,338.803,150.202,338.688z M280.517,181.505c0.151,1.307,0.816,2.427,1.769,3.188
	l-15.976,25.368c-0.069-0.019-0.14-0.029-0.212-0.04l-5.611-28.877c1.14-0.318,1.984-1.242,2.227-2.373l17.826,1.566
	C280.49,180.718,280.471,181.107,280.517,181.505z M141.825,255.106l-25.101,43.064c-0.35-0.188-0.758-0.277-1.183-0.228
	c-0.088,0.01-0.171,0.035-0.255,0.056l-17.775-22.605c0.467-0.634,0.711-1.434,0.614-2.277c-0.032-0.272-0.106-0.527-0.199-0.771
	l43.569-17.616C141.587,254.871,141.697,254.998,141.825,255.106z M240.906,290.75l7.808-37.512c0.014-0.001,0.027,0.001,0.041,0
	c0.633-0.073,1.139-0.483,1.375-1.028l29.896,25.574c-0.663,0.652-1.038,1.583-0.923,2.578c0.021,0.186,0.066,0.363,0.118,0.536
	L243.22,292.83C242.796,291.819,241.947,291.051,240.906,290.75z M281.845,276.901c-0.516,0.06-0.979,0.253-1.382,0.526
	L250.271,251.6c0.004-0.09,0.007-0.18-0.004-0.272c-0.059-0.51-0.339-0.937-0.73-1.209l15.759-36.694
	c0.234,0.077,0.486,0.109,0.746,0.079c0.096-0.011,0.187-0.035,0.276-0.061l15.625,63.457
	C281.91,276.902,281.878,276.897,281.845,276.901z M283.614,195.448c0.042,0.364,0.155,0.7,0.302,1.016l-16.798,13.355l2.198-3.491
	l13.432-21.33c0.831,0.521,1.817,0.791,2.86,0.718l0.717,6.075C284.613,192.11,283.41,193.692,283.614,195.448z M259.557,174.97
	l-3.713-33.801c1.696-0.326,2.886-1.897,2.684-3.641c-0.069-0.595-0.302-1.125-0.632-1.576l26.399-15.162
	c0.185,0.431,0.489,0.788,0.873,1.038l-24.434,53.335C260.365,175.026,259.969,174.959,259.557,174.97z M218.197,91.347
	l13.295,41.132c-0.807,0.602-1.289,1.596-1.164,2.667c0.029,0.253,0.1,0.489,0.188,0.715l-11.75,8.308l-6.39,4.517
	c-0.273-0.226-0.61-0.372-0.975-0.408l6.402-56.943C217.932,91.353,218.063,91.354,218.197,91.347z M196.407,174.215
	c0.362,0.291,0.834,0.443,1.332,0.386c0.132-0.015,0.257-0.046,0.378-0.088l10.207,21.121l8.415,17.414
	c-0.737,0.301-1.381,0.769-1.862,1.376l-1.309-0.635l-25.642-12.434c0.249-0.623,0.369-1.305,0.286-2.018
	c-0.16-1.377-0.979-2.509-2.1-3.143l6.368-13.597L196.407,174.215z M184.323,203.964l2.99,25.357
	c-3.128,0.457-5.349,3.316-4.983,6.479c0.052,0.45,0.159,0.879,0.304,1.289l-32.241,13.367l-5.917,2.453
	c-0.072-0.127-0.164-0.239-0.264-0.343l37.591-49.27C182.53,203.77,183.4,204.02,184.323,203.964z M130.078,401.737l50.804-35.343
	c0.816,0.908,1.922,1.536,3.155,1.749l-5.544,19.522c-0.501-0.109-1.023-0.16-1.562-0.098c-2.619,0.305-4.496,2.674-4.192,5.292
	c0,0.002,0.001,0.004,0.001,0.006l-42.302,9.801C130.349,402.34,130.234,402.026,130.078,401.737z M210.453,325.284
	c1.203-0.601,1.968-1.897,1.804-3.31c-0.062-0.539-0.264-1.023-0.547-1.445l8.441-7.765l17.297-15.91
	c0.372,0.346,0.808,0.613,1.293,0.779l-18.204,71.103L210.453,325.284z M284.111,120.142c0.004,0.036,0.017,0.067,0.022,0.103
	l-26.61,15.283c-0.342-0.33-0.747-0.585-1.199-0.746l4.128-11.209c0.368,0.155,0.775,0.23,1.2,0.181
	c1.312-0.152,2.252-1.338,2.1-2.65c-0.012-0.107-0.042-0.208-0.068-0.31l20.449-1.284
	C284.101,119.715,284.086,119.925,284.111,120.142z M260.759,119.079c-1.063,0.285-1.796,1.265-1.76,2.378l-23.491,11.549
	c-0.153-0.193-0.325-0.366-0.52-0.514l22.854-25.078c0.361,0.597,0.972,1.008,1.673,1.119L260.759,119.079z M66.768,337.267
	c0.932-0.108,1.731-0.564,2.312-1.213l12.84,13.106c-0.549,0.617-0.851,1.449-0.749,2.334c0.016,0.14,0.054,0.271,0.088,0.403
	l-26.505,7.859c-0.311-0.612-0.782-1.114-1.355-1.47l11.721-21.219C65.634,337.25,66.19,337.334,66.768,337.267z M181.459,389.708
	c-0.58-0.884-1.432-1.552-2.433-1.897l5.567-19.601c0.333,0.022,0.672,0.02,1.016-0.021c2.437-0.282,4.314-2.115,4.765-4.399
	l28.174,5.98c-0.131,0.279-0.193,0.595-0.162,0.924l-36.531,18.809L181.459,389.708z M91.74,273.926
	c0.06,0.437,0.204,0.841,0.417,1.2l-20.432,15.26l-27.371,20.442c-0.506-0.673-1.189-1.186-1.977-1.487l7.923-27.975
	c0.603-0.155,1.052-0.637,1.18-1.229l38.341-5.915L91.74,273.926z M182.946,39.821l24.703,0.385
	c0.002,0.204,0.015,0.409,0.039,0.616c0.233,2.01,1.454,3.665,3.122,4.536l-12.015,24.531l-1.808,3.691
	c-0.2-0.04-0.407-0.059-0.621-0.034c-0.043,0.005-0.083,0.02-0.125,0.027l-15.242-30.188
	C182.252,42.693,183.039,41.323,182.946,39.821z M196.829,77.554c0.695-0.081,1.266-0.506,1.563-1.086l17.698,11.868
	c-0.146,0.337-0.216,0.712-0.171,1.104c0.095,0.815,0.634,1.463,1.344,1.752l-6.421,57.126c-0.114,0.024-0.223,0.058-0.327,0.103
	l-20.403-46.961c1.196-0.625,1.949-1.933,1.784-3.354c-0.145-1.246-0.961-2.24-2.04-2.694l6.183-17.924
	C196.288,77.56,196.555,77.585,196.829,77.554z M240.444,63.96l1.043,31.756c-0.905,0.22-1.653,0.775-2.131,1.521l-8.624-3.357
	l-10.569-4.115c0.072-0.261,0.099-0.54,0.065-0.825c-0.069-0.596-0.374-1.107-0.81-1.452l19.422-24.675
	C239.224,63.37,239.787,63.782,240.444,63.96z M216.366,87.855L198.57,75.921c0.037-0.195,0.054-0.396,0.03-0.604
	c-0.081-0.694-0.505-1.265-1.084-1.562l8.162-16.663l5.634-11.502c0.811,0.331,1.706,0.478,2.632,0.411l3.388,41.157
	C216.945,87.299,216.611,87.541,216.366,87.855z M41.307,317.941c1.084-0.126,2.018-0.644,2.714-1.378l19.512,14.67
	c-0.633,0.75-0.974,1.744-0.852,2.796c0.057,0.494,0.212,0.951,0.439,1.36l-44.259,27.863c-0.206-0.377-0.479-0.705-0.798-0.981
	l21.219-44.581C39.913,317.918,40.596,318.024,41.307,317.941z M51.621,400.194l34.814-26.04l24.091-18.02
	c0.57,0.468,1.318,0.717,2.108,0.636l-1.158,24.65l-0.042,0.89c-0.227-0.057-0.466-0.079-0.712-0.051
	c-1.104,0.127-1.896,1.127-1.768,2.23c0.012,0.102,0.039,0.198,0.064,0.294L51.86,400.936
	C51.807,400.675,51.727,400.428,51.621,400.194z M289.979,307.301l-46.541-12.422c0.064-0.347,0.096-0.705,0.053-1.074
	c-0.018-0.152-0.061-0.295-0.097-0.439l36.036-11.953c0.575,1.13,1.8,1.845,3.133,1.689c0.394-0.046,0.757-0.17,1.088-0.344
	l7.904,23.004C290.845,306.06,290.287,306.612,289.979,307.301z M287.973,191.894c-0.347-0.114-0.715-0.163-1.096-0.156
	l-0.719-6.097c2.45-0.461,4.169-2.726,3.878-5.24c-0.123-1.061-0.595-1.989-1.273-2.713l12.834-11.612
	c0.074,0.064,0.153,0.121,0.235,0.175l-13.288,24.585L287.973,191.894z M285.095,176.188c-0.124,0.005-0.245-0.009-0.37,0.005
	c-2.036,0.236-3.611,1.72-4.083,3.597l-17.859-1.569c0.005-0.156,0.011-0.312-0.007-0.473c-0.118-1.022-0.718-1.863-1.541-2.349
	l24.429-53.325c0.229,0.081,0.47,0.125,0.721,0.131l-0.721,30.182L285.095,176.188z M284.297,118.944l-20.815,1.307
	c-0.418-0.781-1.25-1.278-2.173-1.251l-1.232-10.443c0.029-0.002,0.057,0.002,0.086-0.001c0.939-0.109,1.681-0.752,1.976-1.588
	l22.537,11.372C284.519,118.52,284.393,118.723,284.297,118.944z M258.183,104.511l-2.38-0.918l-10.011-3.863
	c0.055-0.324,0.082-0.656,0.042-1c-0.22-1.898-1.906-3.26-3.796-3.109l-1.036-31.569c0.169,0.011,0.341,0.012,0.515-0.008
	c0.129-0.015,0.25-0.051,0.373-0.082l16.746,40.181C258.469,104.246,258.319,104.371,258.183,104.511z M159.565,24.174l-8.151-2.342
	c0.011-0.167,0.013-0.336-0.007-0.508c-0.178-1.538-1.57-2.64-3.108-2.462c-0.388,0.045-0.748,0.168-1.067,0.351l-4.671-7.852
	c0.307-0.166,0.587-0.368,0.842-0.6l16.195,13.335C159.585,24.122,159.578,24.149,159.565,24.174z M141.356,253.07
	c-0.122,0.276-0.18,0.583-0.143,0.904c0.01,0.086,0.033,0.167,0.055,0.249l-43.579,17.62c-0.436-0.731-1.147-1.26-1.977-1.47
	l1.487-46.025c0.245,0.006,0.488,0.018,0.738-0.011c1.431-0.166,2.658-0.894,3.49-1.938l19.722,15.148L141.356,253.07z
	 M19.268,364.517c-0.032-0.262-0.096-0.512-0.18-0.751l44.347-27.918c0.319,0.413,0.714,0.758,1.172,1.004l-11.699,21.18
	c-0.576-0.248-1.216-0.367-1.884-0.29c-1.801,0.208-3.146,1.673-3.274,3.415L19.268,364.517z M151.663,417.977
	c-1.13,0.131-2.099,0.687-2.798,1.476l-18.867-13.481c0.458-0.783,0.688-1.707,0.576-2.678c-0.003-0.029-0.015-0.057-0.019-0.086
	l42.302-9.801c0.216,0.911,0.68,1.703,1.319,2.32l-19.036,23.383C154.226,418.281,152.985,417.822,151.663,417.977z
	 M231.415,378.366c-0.202,0.023-0.394,0.073-0.577,0.139l-8.905-7.74c0.02-0.145,0.028-0.293,0.01-0.444
	c-0.019-0.164-0.067-0.316-0.125-0.463l34.097-8.842c0.001,0.008,0,0.015,0,0.021c0.041,0.355,0.153,0.683,0.308,0.982
	l-22.496,17.26C233.176,378.632,232.323,378.261,231.415,378.366z M150.094,24.024c0.601-0.373,1.044-0.959,1.23-1.645l8.065,2.317
	c-0.057,0.257-0.083,0.525-0.051,0.802c0.154,1.329,1.356,2.282,2.685,2.127c0.469-0.054,0.887-0.244,1.23-0.519l12.902,10.624
	c-0.586,0.759-0.891,1.735-0.772,2.763c0.002,0.02,0.01,0.037,0.012,0.056l-9.658,3.987c-0.543-0.903-1.575-1.458-2.69-1.329
	c-0.47,0.055-0.89,0.233-1.252,0.485l-6.122-10.291L150.094,24.024z M93.164,270.806c-0.854,0.562-1.408,1.504-1.446,2.563
	l-40.214,6.204c-0.055-0.392-0.247-0.729-0.52-0.978l9.493-43.964c0.252,0.024,0.51,0.025,0.772-0.005
	c0.844-0.098,1.576-0.486,2.136-1.041l1.224,1.529L93.164,270.806z M49.343,281.322c0.118,0.043,0.24,0.074,0.367,0.089
	l-7.862,27.761c-0.501-0.123-1.027-0.175-1.57-0.111c-2.453,0.284-4.21,2.502-3.926,4.955c0.001,0.015,0.007,0.027,0.009,0.042
	l-16.377,1.932l-4.623,0.545c-0.244-1.378-0.841-2.614-1.699-3.616l16.084-14.243L49.343,281.322z M221.128,369.027
	c-0.026-0.018-0.052-0.036-0.079-0.052l3.244-12.671l14.987-58.539c0.336,0.06,0.681,0.088,1.038,0.047
	c1.418-0.165,2.537-1.135,2.982-2.396l7.305,1.949l39.196,10.463c-0.078,0.33-0.112,0.677-0.071,1.033
	c0.054,0.467,0.222,0.891,0.459,1.262l-49.139,41.912L221.128,369.027z M284.136,277.551c-0.226-0.178-0.482-0.312-0.75-0.423
	l1.182-25.674l2.444-53.065c0.103-0.002,0.204,0.008,0.308-0.004c0.521-0.061,0.992-0.248,1.406-0.512l21.124,34.009
	c-1.16,0.623-1.885,1.903-1.724,3.291c0.094,0.813,0.486,1.513,1.042,2.03l-5.099,8.22L284.136,277.551z M207.668,39.652
	l-3.581-0.056l-21.222-0.331c-0.404-1.897-2.175-3.219-4.142-2.992c-0.861,0.1-1.612,0.491-2.191,1.05l-8.78-7.229l-4.105-3.38
	c0.161-0.205,0.281-0.439,0.37-0.688l43.834,12.593C207.763,38.954,207.698,39.299,207.668,39.652z M141.016,11.854
	c0.365-0.042,0.706-0.142,1.034-0.268l4.729,7.951c-0.253,0.222-0.464,0.488-0.624,0.784l-35.01-10.059
	c0.077-0.255,0.12-0.523,0.138-0.797l24.967-1.378C136.529,10.441,138.66,12.127,141.016,11.854z M213.122,397.853
	c-0.198-0.207-0.422-0.385-0.671-0.524l7.631-25.021c0.096,0.004,0.191,0.007,0.29-0.005c0.614-0.071,1.12-0.446,1.384-0.958
	l2.748,2.389l5.798,5.04c-0.819,0.525-1.319,1.479-1.199,2.512c0.064,0.556,0.299,1.048,0.644,1.438l-7.421,6.754L213.122,397.853z
	 M300.878,164.725c0.041,0.349,0.171,0.662,0.354,0.934l-12.87,11.645c-0.752-0.636-1.691-1.045-2.712-1.124l1.29-54.029
	c0.197-0.043,0.384-0.106,0.558-0.194l14.825,40.506C301.384,162.771,300.76,163.705,300.878,164.725z M92.993,418.898
	c-0.018-0.155-0.053-0.304-0.101-0.445l29.578-12.566c0.826,1.494,2.494,2.423,4.294,2.215c0.004,0,0.008-0.002,0.012-0.003
	l1.509,12.79c-1.874,0.239-3.303,1.645-3.678,3.399l-31.614-5.328C92.992,418.939,92.995,418.919,92.993,418.898z M310.362,231.654
	l-11.936-19.215l-9.255-14.901c0.773-0.7,1.213-1.745,1.084-2.859c-0.132-1.139-0.823-2.076-1.766-2.572l13.841-25.611
	c0.283,0.093,0.587,0.132,0.902,0.096c0.009-0.001,0.016-0.004,0.025-0.005l7.659,64.945
	C310.726,231.559,310.539,231.596,310.362,231.654z M238.35,61.534c0.031,0.266,0.108,0.512,0.205,0.748l-5.835,7.414
	l-13.785,17.513c-0.323-0.141-0.682-0.208-1.056-0.174l-3.383-41.099c1.523-0.254,2.821-1.075,3.699-2.224l20.856,15.613
	C238.535,59.911,238.253,60.698,238.35,61.534z M208.021,38.096L164.146,25.49c0.021-0.18,0.025-0.363,0.004-0.55
	c-0.154-1.33-1.356-2.282-2.685-2.127c-0.628,0.073-1.166,0.385-1.549,0.828l-16.128-13.28c0.16-0.188,0.299-0.391,0.425-0.604
	l63.902,28.101C208.082,37.936,208.051,38.016,208.021,38.096z M101.15,10.025l3.062-0.169c0.327,1.85,2.029,3.153,3.92,2.934
	c1.266-0.147,2.293-0.942,2.807-2.013l35.002,10.056c-0.109,0.358-0.15,0.742-0.104,1.137c0.178,1.538,1.57,2.64,3.108,2.462
	c0.229-0.026,0.443-0.087,0.649-0.164l11.773,19.79c-0.164,0.172-0.31,0.36-0.424,0.568l-60.014-33.792
	C101.043,10.581,101.125,10.311,101.15,10.025z M166.118,45.641c-0.024-0.211-0.077-0.411-0.145-0.603l9.542-3.939
	c0.462,1.62,1.944,2.741,3.642,2.743l8.54,51.423c-0.131,0.035-0.258,0.078-0.382,0.128l-22.926-46.871
	C165.522,48.07,166.266,46.911,166.118,45.641z M184.014,195.667c-0.066,0.001-0.132-0.001-0.199,0.003l-4.1-29.451
	c1.628-0.318,2.77-1.827,2.575-3.503c-0.171-1.478-1.326-2.592-2.733-2.794l8.448-56.237L184.014,195.667z M179.165,166.277
	l4.102,29.467c-2.104,0.416-3.576,2.36-3.34,4.524l-36.122,6.364c-0.008-0.009-0.017-0.015-0.025-0.024l33.096-41.236
	C177.474,165.955,178.285,166.294,179.165,166.277z M141.374,207.762c0.111,0.694,0.72,1.189,1.417,1.167l-0.197,43.139
	c-0.372,0.079-0.693,0.269-0.934,0.536l-31.129-23.911l-8.798-6.759c0.624-0.979,0.948-2.158,0.804-3.401
	c-0.034-0.295-0.107-0.576-0.187-0.853L141.374,207.762z M96.646,224.309l-1.485,45.97c-0.199-0.014-0.401-0.015-0.606,0.009
	c-0.318,0.037-0.612,0.132-0.892,0.252l-29.905-37.376c0.531-0.719,0.81-1.627,0.699-2.585c-0.04-0.341-0.139-0.657-0.263-0.959
	l28.122-9.059C92.884,222.574,94.597,224.036,96.646,224.309z M59.931,234.528l-0.56,2.592l-8.889,41.166
	c-0.24-0.094-0.503-0.139-0.777-0.107c-0.374,0.043-0.699,0.214-0.948,0.459l-22.883-14.806c0.212-0.458,0.313-0.975,0.25-1.514
	c-0.044-0.377-0.162-0.726-0.334-1.039l32.25-27.926C58.527,233.929,59.189,234.339,59.931,234.528z M15.443,317.083l21.038-2.48
	c0.325,1.272,1.167,2.311,2.286,2.881l-11.987,25.186l-9.172,19.271c-0.478-0.298-1.021-0.492-1.604-0.534l-6.51-36.119
	C13.243,324.48,15.843,320.965,15.443,317.083z M19.281,365.073l28.476-3.358c0.004,0.049-0.003,0.096,0.002,0.146
	c0.202,1.742,1.581,3.053,3.248,3.253l-2.017,27.04l-0.449,6.014c-0.157-0.004-0.312-0.012-0.472,0.007
	c-0.737,0.085-1.389,0.398-1.904,0.856l-27.642-31.864C18.986,366.583,19.255,365.854,19.281,365.073z M51.928,401.493
	l57.308-16.195c0.231,0.381,0.583,0.669,0.996,0.829l-18.448,31.074c-0.359-0.175-0.768-0.256-1.193-0.207
	c-0.613,0.071-1.134,0.395-1.478,0.852l-37.498-14.758C51.84,402.601,51.95,402.059,51.928,401.493z M155.542,419.495l19.047-23.396
	c0.948,0.724,2.163,1.102,3.441,0.953c2.064-0.238,3.648-1.767,4.086-3.684l26.076,5.961c-0.05,0.276-0.075,0.561-0.041,0.854
	c0.021,0.181,0.062,0.353,0.114,0.521L156.32,420.84C156.136,420.344,155.878,419.886,155.542,419.495z M230.159,383.096
	c0.169,0.125,0.355,0.225,0.551,0.307l-10.108,8.393L230.159,383.096z M258.433,357.859c-1.372,0.158-2.405,1.263-2.524,2.586
	l-34.287,8.892l64.06-54.641l4.847-4.135c0.084,0.089,0.17,0.176,0.265,0.254l-30.546,47.452
	C259.72,357.946,259.093,357.782,258.433,357.859z M292.364,305.537c-0.097,0.011-0.186,0.041-0.279,0.061l-5.655-16.458l-2.3-6.694
	c0.821-0.648,1.304-1.688,1.175-2.803c-0.076-0.656-0.353-1.238-0.759-1.699l25.061-40.398c0.194,0.127,0.399,0.232,0.616,0.317
	l-17.084,67.698C292.887,305.522,292.629,305.506,292.364,305.537z"/>
</svg>
