<?xml version="1.0" encoding="utf-8"?>
<!-- Generator: Adobe Illustrator 16.0.4, SVG Export Plug-In . SVG Version: 6.00 Build 0)  -->
<!DOCTYPE svg PUBLIC "-//W3C//DTD SVG 1.1//EN" "http://www.w3.org/Graphics/SVG/1.1/DTD/svg11.dtd">
<svg version="1.1" id="レイヤー_1" xmlns="http://www.w3.org/2000/svg" xmlns:xlink="http://www.w3.org/1999/xlink" x="0px"
	 y="0px" width="315px" height="430px" viewBox="0 0 315 430" enable-background="new 0 0 315 430" xml:space="preserve">
<path fill="#FFF701" d="M314.666,111.266c-0.484-4.17-4.256-7.159-8.427-6.676c-0.063,0.007-0.124,0.022-0.187,0.031l-6.498-36.035
	c0.04-0.003,0.078,0.002,0.117-0.002c1.951-0.226,3.351-1.992,3.125-3.944c-0.227-1.952-1.992-3.352-3.945-3.125
	c-0.774,0.09-1.455,0.428-1.988,0.918l-27.643-31.864c0.573-0.703,0.876-1.625,0.764-2.597c-0.221-1.908-1.946-3.275-3.854-3.054
	c-1.045,0.122-1.916,0.703-2.464,1.51L226.16,11.667c0.134-0.328,0.199-0.688,0.155-1.064c-0.138-1.19-1.214-2.042-2.403-1.905
	c-0.977,0.114-1.717,0.863-1.876,1.785L190.49,5.167c0.023-0.28,0.021-0.567-0.013-0.857c-0.276-2.381-2.431-4.088-4.812-3.812
	c-2.234,0.259-3.853,2.175-3.819,4.378l-14.721,1.736c-0.506-2.167-2.547-3.667-4.812-3.404c-2.434,0.282-4.178,2.484-3.896,4.918
	c0.02,0.172,0.07,0.333,0.109,0.498l-52.007,20.159c-0.545-1.019-1.669-1.657-2.888-1.516c-1.592,0.185-2.732,1.624-2.548,3.216
	c0.048,0.415,0.185,0.796,0.383,1.134L83.644,46.418c-0.217-0.03-0.438-0.043-0.666-0.017c-1.301,0.151-2.262,1.228-2.319,2.496
	L58.382,67.395c-0.6-0.678-1.508-1.064-2.476-0.952c-1.573,0.183-2.701,1.605-2.519,3.18c0.083,0.714,0.429,1.327,0.921,1.776
	L23.75,118.87c-0.531-0.297-1.154-0.442-1.805-0.367c-1.646,0.19-2.826,1.68-2.635,3.326c0.137,1.186,0.953,2.12,2.011,2.483
	l-17.077,67.67c-0.333-0.067-0.678-0.1-1.035-0.058c-1.814,0.21-3.115,1.852-2.904,3.665c0.193,1.666,1.593,2.882,3.225,2.912
	l7.675,65.063c-0.856,0.354-1.415,1.234-1.303,2.199c0.13,1.119,1.11,1.925,2.22,1.867l14.905,40.722
	c-0.567,0.491-0.89,1.244-0.797,2.045c0.149,1.287,1.313,2.209,2.6,2.061c0.082-0.01,0.158-0.034,0.237-0.052l42.649,54.464
	c-0.542,0.591-0.842,1.396-0.743,2.254c0.182,1.567,1.6,2.691,3.167,2.51c0.395-0.046,0.762-0.171,1.086-0.356l0.014,0.018
	l-0.009-0.021c0.109-0.062,0.207-0.14,0.306-0.215l20.953,15.684c-0.682,1.091-1.016,2.41-0.856,3.788
	c0.374,3.226,3.292,5.536,6.517,5.163c1.98-0.229,3.613-1.421,4.494-3.052l63.895,28.098c-0.284,0.665-0.422,1.402-0.333,2.173
	c0.273,2.359,2.408,4.051,4.768,3.776c2.013-0.232,3.526-1.823,3.762-3.749l43.789,3.101c0.003,0.046-0.003,0.091,0.002,0.138
	c0.24,2.078,2.121,3.568,4.199,3.326c2.045-0.236,3.511-2.061,3.33-4.1l20.343-6.176c0.535,1.211,1.797,1.994,3.179,1.834
	c1.701-0.197,2.92-1.736,2.723-3.436c-0.197-1.701-1.736-2.92-3.436-2.723c-1.572,0.183-2.717,1.513-2.729,3.055l-31.323,1.734
	c-0.257-1.268-1.437-2.152-2.745-2.002c-0.714,0.083-1.319,0.46-1.719,0.993l-60.072-33.825c0.111-0.358,0.155-0.742,0.109-1.139
	c-0.176-1.521-1.551-2.609-3.071-2.434c-0.056,0.007-0.107,0.025-0.162,0.035l-22.97-46.96c1.08-0.662,1.743-1.902,1.587-3.243
	c-0.165-1.422-1.2-2.523-2.509-2.856l8.738-58.159c0.089-0.003,0.176,0.007,0.267-0.004c1.76-0.204,3.021-1.796,2.817-3.556
	c-0.065-0.562-0.283-1.063-0.591-1.492l33.176-41.334c0.226,0.105,0.48,0.155,0.746,0.125c0.585-0.068,1.042-0.49,1.185-1.026
	l39.241-9.979c0.866,2.118,3.042,3.503,5.428,3.227c2.873-0.332,4.932-2.931,4.599-5.804c-0.011-0.097-0.045-0.184-0.061-0.278
	l28.248-9.098c0.717,1.186,2.073,1.914,3.539,1.744c2.004-0.232,3.439-2.044,3.207-4.048c-0.063-0.543-0.25-1.039-0.518-1.477
	l32.244-27.921c0.594,0.706,1.518,1.111,2.503,0.997c1.56-0.181,2.678-1.592,2.496-3.151c-0.14-1.214-1.028-2.15-2.148-2.425
	l12.986-45.072c0.838,0.199,1.723,0.267,2.628,0.162C312.16,119.208,315.148,115.436,314.666,111.266z M291.822,164.523
	c-0.148-0.006-0.298-0.011-0.45,0.007c-0.822,0.095-1.515,0.538-1.966,1.159l-22.836-14.775c0.131-0.27,0.193-0.578,0.156-0.898
	c-0.05-0.425-0.261-0.789-0.562-1.046l35.555-31.484c0.862,0.87,1.927,1.526,3.108,1.9L291.822,164.523z M127.686,334.607
	l22.925,46.87c-1.133,0.452-1.876,1.611-1.729,2.882c0.024,0.211,0.077,0.41,0.144,0.603l-9.542,3.939
	c-0.462-1.62-1.944-2.741-3.642-2.743l-8.54-51.423C127.435,334.7,127.561,334.657,127.686,334.607z M250.18,418.513
	c0.011,0.065,0.027,0.129,0.042,0.192l-20.267,6.152c-0.442-1.836-2.178-3.103-4.102-2.88c-1.148,0.134-2.102,0.776-2.698,1.667
	l-4.472-2.518c0.111-0.275,0.173-0.57,0.18-0.88L250.18,418.513z M29.619,312.213c0.091-0.047,0.176-0.1,0.259-0.157l22.854,11.531
	c-0.016,0.167-0.018,0.338,0.002,0.512c0.152,1.313,1.341,2.255,2.655,2.103c0.165-0.02,0.323-0.055,0.475-0.104l16.723,40.13
	c-0.165,0.078-0.318,0.17-0.462,0.277L29.619,312.213z M80.719,49.563c0.052,0.247,0.131,0.482,0.246,0.696L66.668,61.228
	L80.719,49.563z M181.88,5.431c0.312,2.146,2.149,3.696,4.28,3.698l1.521,12.892c-0.968,0.243-1.797,0.79-2.377,1.543
	l-18.829-13.455c0.573-0.838,0.874-1.865,0.761-2.951L181.88,5.431z M224.41,13.005c0.614-0.071,1.134-0.394,1.479-0.852
	l37.497,14.759c-0.226,0.486-0.336,1.028-0.314,1.594l-57.308,16.194c-0.23-0.38-0.583-0.668-0.996-0.829l18.449-31.074
	C223.576,12.973,223.985,13.055,224.41,13.005z M266.932,31.827c0.736-0.085,1.389-0.399,1.904-0.857l27.642,31.864
	c-0.464,0.583-0.732,1.313-0.759,2.093l-28.477,3.359c-0.003-0.049,0.004-0.097-0.002-0.146c-0.202-1.742-1.58-3.053-3.248-3.253
	l2.467-33.053C266.616,31.837,266.772,31.845,266.932,31.827z M253.751,195.374c-0.844,0.098-1.575,0.487-2.135,1.041l-29.78-37.221
	c0.854-0.562,1.408-1.504,1.447-2.562l40.213-6.204c0.055,0.392,0.247,0.729,0.52,0.978l-9.492,43.964
	C254.271,195.345,254.013,195.344,253.751,195.374z M217.062,205.663c-1.431,0.166-2.659,0.895-3.49,1.938l-39.928-30.671
	c0.122-0.276,0.18-0.583,0.143-0.904c-0.01-0.086-0.033-0.167-0.055-0.249l43.579-17.62c0.436,0.731,1.147,1.26,1.977,1.47
	l-1.487,46.025C217.556,205.646,217.312,205.634,217.062,205.663z M170.868,222.618c0.009,0.082,0.029,0.159,0.052,0.235
	l-35.959,6.335c-0.212-0.862-0.677-1.605-1.317-2.156l37.583-49.259c0.191,0.102,0.403,0.167,0.625,0.192l-0.197,43.241
	C171.132,221.455,170.798,222.011,170.868,222.618z M135.285,386.19c-0.271,0.039-0.528,0.107-0.775,0.2l-15.216-30.139
	c0.742-0.367,1.214-1.165,1.113-2.034c-0.073-0.634-0.438-1.158-0.941-1.473l6.203-17.983c0.349,0.082,0.713,0.116,1.089,0.08
	L135.285,386.19z M151.953,386.793c0.47-0.055,0.89-0.233,1.252-0.485l11.701,19.668c-0.601,0.373-1.043,0.958-1.229,1.644
	l-8.065-2.317c0.057-0.257,0.083-0.524,0.051-0.801c-0.154-1.328-1.356-2.281-2.685-2.127c-0.469,0.055-0.887,0.244-1.23,0.52
	l-12.902-10.624c0.586-0.759,0.891-1.735,0.772-2.763c-0.002-0.02-0.01-0.036-0.012-0.056l9.658-3.987
	C149.806,386.367,150.838,386.922,151.953,386.793z M213.866,420.523c0.111,0.837,0.621,1.525,1.317,1.895l-4.357-1.252
	c0.018-0.155,0.015-0.314,0.011-0.475L213.866,420.523z M222.695,424.576l-6.525-1.875c0.157,0.012,0.316,0.012,0.479-0.007
	c0.75-0.087,1.377-0.502,1.774-1.079l4.454,2.508C222.807,424.27,222.745,424.421,222.695,424.576z M178.749,421.912
	c-0.28-2.354-2.409-4.04-4.764-3.767c-0.365,0.042-0.706,0.143-1.034,0.268l-4.729-7.95c0.254-0.222,0.464-0.488,0.624-0.784
	l35.009,10.06c-0.076,0.254-0.12,0.52-0.137,0.791L178.749,421.912z M101.056,383.998l-3.388-41.156
	c0.387-0.141,0.721-0.383,0.966-0.697l17.797,11.934c-0.037,0.195-0.055,0.396-0.031,0.604c0.081,0.694,0.505,1.265,1.083,1.562
	l-13.795,28.165C102.877,384.078,101.981,383.932,101.056,383.998z M74.556,366.04l-1.043-31.758c0.905-0.22,1.652-0.774,2.131-1.52
	l19.193,7.472c-0.072,0.262-0.099,0.539-0.066,0.825c0.069,0.596,0.374,1.106,0.81,1.451l-19.422,24.676
	C75.776,366.63,75.213,366.218,74.556,366.04z M28.06,307.849c-0.197,0.043-0.384,0.106-0.558,0.194l-14.825-40.506
	c0.938-0.308,1.563-1.242,1.445-2.263c-0.041-0.349-0.17-0.662-0.354-0.934l12.87-11.645c0.752,0.636,1.691,1.044,2.712,1.123
	L28.06,307.849z M6.875,194.829c-0.094-0.813-0.486-1.513-1.042-2.03l25.031-40.35c0.226,0.178,0.482,0.313,0.75,0.423
	l-3.626,78.739c-0.103,0.003-0.203-0.007-0.307,0.005c-0.521,0.061-0.992,0.248-1.406,0.512l-21.123-34.01
	C6.311,197.496,7.036,196.216,6.875,194.829z M101.878,32.148c0.198,0.206,0.422,0.384,0.671,0.524l-7.631,25.02
	c-0.096-0.004-0.191-0.007-0.289,0.004c-0.615,0.071-1.121,0.447-1.385,0.958l-8.545-7.429c0.818-0.526,1.318-1.48,1.199-2.512
	c-0.064-0.556-0.299-1.048-0.644-1.438L101.878,32.148z M104.301,33.031c1.102-0.127,1.976-0.863,2.355-1.829l26.125,5.974
	c-0.037,0.347-0.045,0.701-0.003,1.062c0.066,0.567,0.244,1.09,0.485,1.573L96.465,58.757c-0.194-0.443-0.557-0.782-1.002-0.951
	l7.598-24.909C103.449,33.026,103.868,33.082,104.301,33.031z M163.337,12.024c1.13-0.131,2.099-0.687,2.798-1.477l18.867,13.481
	c-0.458,0.783-0.688,1.708-0.576,2.679c0.003,0.029,0.015,0.056,0.019,0.084l-42.302,9.801c-0.216-0.91-0.68-1.702-1.319-2.32
	l19.036-23.382C160.774,11.719,162.015,12.177,163.337,12.024z M264.054,30.793l-31.938,45.348c-0.488-0.229-1.04-0.338-1.615-0.271
	c-1.305,0.151-2.305,1.123-2.574,2.338l-22.418-2.062c0.003-0.133,0.01-0.266-0.006-0.401c-0.065-0.567-0.297-1.073-0.634-1.483
	l58.78-43.968C263.77,30.474,263.904,30.641,264.054,30.793z M295.732,65.484c0.032,0.262,0.096,0.511,0.18,0.75l-44.347,27.918
	c-0.319-0.413-0.714-0.758-1.172-1.003l11.699-21.179c0.576,0.248,1.216,0.367,1.884,0.29c1.801-0.209,3.146-1.672,3.274-3.416
	L295.732,65.484z M296.937,67.729l-21.219,44.582c-0.63-0.228-1.313-0.334-2.024-0.251c-1.084,0.125-2.018,0.643-2.714,1.378
	l-19.512-14.67c0.633-0.75,0.974-1.744,0.852-2.796c-0.057-0.494-0.212-0.952-0.439-1.361l44.26-27.863
	C296.344,67.124,296.618,67.452,296.937,67.729z M264.7,148.633c-0.603,0.156-1.052,0.637-1.179,1.23l-40.26,6.211
	c-0.061-0.437-0.205-0.841-0.417-1.2l47.804-35.702c0.506,0.672,1.188,1.185,1.977,1.486L264.7,148.633z M219.704,153.312
	c-0.722,0.084-1.352,0.408-1.841,0.874l-17.612-22.399c0.558-0.33,0.934-0.915,0.983-1.577l68.594-12.919
	c0.092,0.512,0.253,0.997,0.5,1.428l-47.804,35.702C221.851,153.633,220.811,153.184,219.704,153.312z M172.262,174.494
	l-6.958-73.714c0.196,0.002,0.391,0.015,0.591-0.009c0.783-0.091,1.486-0.383,2.098-0.795l29.362,29.361
	c-0.114,0.294-0.168,0.616-0.129,0.951c0.056,0.48,0.282,0.896,0.605,1.208l-25.132,43.115
	C172.56,174.554,172.414,174.512,172.262,174.494z M130.677,226.037l-2.99-25.357c3.128-0.457,5.349-3.317,4.983-6.478
	c-0.052-0.45-0.159-0.88-0.304-1.289l38.158-15.821c0.072,0.127,0.164,0.239,0.264,0.343l-37.591,49.27
	C132.47,226.23,131.6,225.98,130.677,226.037z M123.104,331.894c0.145,1.246,0.96,2.239,2.04,2.694l-6.183,17.924
	c-0.249-0.072-0.516-0.098-0.789-0.065c-0.695,0.08-1.266,0.506-1.562,1.085l-17.698-11.869c0.146-0.337,0.216-0.712,0.17-1.103
	c-0.095-0.815-0.634-1.463-1.344-1.751l6.423-57.128c0.113-0.024,0.221-0.058,0.325-0.102l20.403,46.961
	C123.691,329.165,122.939,330.474,123.104,331.894z M96.803,338.653L83.508,297.52c0.807-0.602,1.288-1.595,1.164-2.667
	c-0.029-0.253-0.1-0.489-0.188-0.717l18.141-12.823c0.273,0.226,0.609,0.371,0.975,0.408l-6.402,56.943
	C97.068,338.647,96.937,338.646,96.803,338.653z M55.484,321.468l-1.244-10.547c1.063-0.284,1.796-1.265,1.76-2.378l23.49-11.549
	c0.153,0.192,0.326,0.366,0.521,0.515l-22.854,25.077C56.796,321.988,56.185,321.578,55.484,321.468z M138.069,42.431
	c2.619-0.304,4.496-2.673,4.192-5.292c0-0.001-0.001-0.003-0.001-0.005l42.302-9.801c0.088,0.327,0.203,0.64,0.359,0.929
	l-50.804,35.342c-0.816-0.908-1.922-1.536-3.154-1.749l5.545-19.522C137.01,42.443,137.531,42.494,138.069,42.431z M189.234,30.518
	c0.641-0.074,1.226-0.292,1.743-0.606l11.341,14.814c-0.181,0.308-0.278,0.664-0.273,1.04l-66.866,19.602
	c-0.177-0.48-0.417-0.927-0.711-1.331l50.758-35.31C186.116,29.963,187.615,30.705,189.234,30.518z M173.175,174.893l25.102-43.063
	c0.35,0.188,0.758,0.276,1.182,0.227c0.088-0.01,0.17-0.035,0.254-0.056l17.775,22.605c-0.467,0.633-0.711,1.433-0.614,2.276
	c0.032,0.272,0.106,0.527,0.199,0.771l-43.568,17.615C173.413,175.128,173.303,175.001,173.175,174.893z M171.607,174.54
	l-22.271-41.691c1.001-0.574,1.619-1.705,1.478-2.924c-0.088-0.765-0.467-1.421-1.005-1.891l13.2-27.86
	c0.529,0.3,1.114,0.498,1.736,0.577l6.964,73.768C171.675,174.524,171.641,174.531,171.607,174.54z M126.788,230.663
	c0.16,1.376,0.979,2.509,2.1,3.142l-10.294,21.98c-0.362-0.291-0.834-0.443-1.332-0.386c-0.132,0.015-0.257,0.046-0.377,0.088
	l-18.623-38.535c0.737-0.302,1.381-0.769,1.862-1.376l26.951,13.069C126.825,229.268,126.705,229.951,126.788,230.663z
	 M58.502,251.523c-0.199-1.713-1.734-2.942-3.444-2.776l-5.593-28.777c0.17-0.03,0.33-0.083,0.478-0.157l65.737,37.362
	c0,0.072-0.005,0.143,0.003,0.215c0.008,0.067,0.028,0.13,0.043,0.195l-57.22-5.771C58.504,251.717,58.513,251.622,58.502,251.523z
	 M29.391,244.283l-0.717-6.076c1.712-0.319,2.915-1.899,2.711-3.656c-0.042-0.364-0.155-0.7-0.302-1.016l16.798-13.355
	l-15.631,24.82C31.42,244.481,30.434,244.21,29.391,244.283z M75.515,139.369c0.411-0.047,0.79-0.176,1.143-0.346l16.256,28.06
	c-0.884,0.78-1.388,1.963-1.242,3.224c0.016,0.138,0.057,0.265,0.087,0.397l-23.615,7.522c-0.104-0.714-0.633-1.262-1.301-1.423
	l7.794-37.451C74.924,139.39,75.216,139.404,75.515,139.369z M104.548,104.715c-1.204,0.6-1.968,1.896-1.805,3.31
	c0.062,0.539,0.264,1.023,0.547,1.445l-25.738,23.676c-0.372-0.346-0.808-0.614-1.293-0.779l18.204-71.104L104.548,104.715z
	 M95.041,61.251c0.423-0.049,0.788-0.247,1.064-0.529l28.439,6.038c-0.035,0.376-0.034,0.761,0.012,1.15
	c0.166,1.428,0.868,2.66,1.877,3.53l-19.335,33.118c-0.458-0.162-0.953-0.236-1.468-0.177c-0.195,0.022-0.38,0.069-0.562,0.123
	L95.029,61.251C95.033,61.251,95.037,61.251,95.041,61.251z M202.604,47.133c0.124,0.128,0.264,0.239,0.417,0.331l-1.217,25.881
	c-1.287,0.401-2.15,1.669-1.988,3.059c0.019,0.164,0.059,0.319,0.104,0.472l-30.664,16.485c-0.33-0.479-0.738-0.891-1.212-1.219
	L202.604,47.133z M231.193,81.833c0.563-0.065,1.064-0.291,1.482-0.614l12.906,13.173c-0.454,0.695-0.69,1.538-0.587,2.427
	c0.056,0.485,0.209,0.936,0.43,1.339l-44.687,30.565c-0.113-0.128-0.245-0.235-0.386-0.331l28.955-46.98
	C229.854,81.744,230.507,81.913,231.193,81.833z M101.974,280.124c0.033,0.286,0.136,0.543,0.282,0.77l-18.023,12.742
	c-0.581-0.918-1.645-1.479-2.796-1.346c-0.142,0.017-0.275,0.055-0.41,0.09l-23.72-38.014c0.269-0.211,0.497-0.465,0.684-0.75
	l44.148,25.53C102,279.441,101.934,279.775,101.974,280.124z M115.974,258.168c0.236,0.356,0.587,0.623,1,0.742l-12.241,19.47
	c-0.336-0.21-0.739-0.318-1.164-0.269c-0.448,0.052-0.833,0.268-1.117,0.575l-44.197-25.559c0.104-0.241,0.177-0.495,0.218-0.76
	L115.974,258.168z M164.799,91.312c-1.398,0.162-2.571,0.925-3.325,1.99L134.01,71.069c1.085-1.142,1.676-2.738,1.48-4.425
	c-0.03-0.257-0.083-0.504-0.146-0.748l66.779-19.576c0.036,0.121,0.084,0.235,0.141,0.345L167.578,91.84
	C166.754,91.401,165.796,91.196,164.799,91.312z M126.162,189.045c-1.564,0.181-2.91,0.965-3.841,2.089l-24.074-18.886
	c0.558-0.676,0.864-1.544,0.839-2.472l33.751-3.98c0.172,0.289,0.417,0.524,0.705,0.69l-5.639,22.618
	C127.342,189,126.758,188.976,126.162,189.045z M96.347,208.18l-1.043-34.591c0.167,0.003,0.332,0.012,0.502-0.007
	c0.796-0.092,1.5-0.434,2.055-0.932l24.127,18.928c-0.766,1.125-1.15,2.517-0.981,3.975c0.089,0.768,0.326,1.482,0.674,2.122
	l-21.169,12.791C99.684,209.015,98.093,208.108,96.347,208.18z M130.386,72.762l16.338,54.769c-0.734,0.305-1.304,0.884-1.603,1.604
	l-36.268-19.861c0.337-0.588,0.504-1.28,0.42-2.004c-0.126-1.09-0.776-1.986-1.665-2.484l19.267-33.001
	C127.87,72.479,129.094,72.848,130.386,72.762z M160.617,96.59c0.159,1.369,0.892,2.524,1.922,3.279l-13.188,27.836
	c-0.537-0.313-1.17-0.471-1.835-0.394c-0.09,0.011-0.173,0.039-0.261,0.057l-16.309-54.673c1.015-0.172,1.926-0.61,2.661-1.241
	l27.564,22.315C160.717,94.604,160.5,95.576,160.617,96.59z M134.287,162.857c-1.072,0.124-1.84,1.094-1.715,2.165
	c0.01,0.083,0.033,0.161,0.053,0.24l-33.592,3.962c-0.097-0.542-0.307-1.034-0.604-1.462l47.81-35.016
	c0.219,0.144,0.453,0.263,0.705,0.345l-12.122,29.786C134.647,162.85,134.47,162.836,134.287,162.857z M98.082,167.329
	c-0.583-0.618-1.365-1.029-2.233-1.14l9.451-55.346c0.349,0.078,0.712,0.113,1.087,0.069c0.879-0.102,1.633-0.545,2.154-1.179
	l36.415,19.942c-0.062,0.301-0.09,0.612-0.053,0.934c0.082,0.707,0.415,1.317,0.887,1.778L98.082,167.329z M50.908,218.042
	c-0.059-0.506-0.33-0.933-0.71-1.212l15.763-36.702c0.197,0.057,0.408,0.076,0.624,0.058l26.292,29.813
	c-0.675,0.904-1.029,2.051-0.889,3.261c0.013,0.115,0.051,0.22,0.073,0.332l-41.155,4.854
	C50.92,218.313,50.924,218.179,50.908,218.042z M91.918,171.235c0.476,1.211,1.55,2.081,2.829,2.301l1.046,34.696
	c-1.01,0.167-1.885,0.654-2.548,1.347L67.18,180.023c0.488-0.232,0.837-0.679,0.945-1.208L91.918,171.235z M115.778,256.592
	l-65.35-37.14c0.122-0.128,0.228-0.27,0.306-0.429l41.444-4.888c0.654,2.04,2.675,3.401,4.883,3.145
	c0.232-0.027,0.451-0.087,0.67-0.147l18.663,38.619C116.112,255.965,115.897,256.256,115.778,256.592z M202.99,78.919
	c1.242-0.144,2.194-1.067,2.452-2.222l22.417,2.062c-0.004,0.145-0.011,0.291,0.006,0.439c0.088,0.761,0.462,1.414,0.992,1.886
	l-29.005,47.061c-0.203-0.067-0.419-0.096-0.642-0.094l2.86-49.186C202.366,78.926,202.673,78.956,202.99,78.919z M197.631,128.829
	l-29.18-29.178c1.156-0.996,1.814-2.528,1.625-4.158c-0.07-0.601-0.259-1.156-0.524-1.661l30.576-16.438
	c0.305,0.584,0.8,1.036,1.397,1.296l-2.875,49.438C198.236,128.252,197.884,128.5,197.631,128.829z M269.763,116.739l-68.572,12.915
	c-0.033-0.164-0.084-0.318-0.154-0.464l44.696-30.571c0.763,1,2.007,1.594,3.348,1.438c0.771-0.089,1.456-0.413,1.999-0.888
	l19.536,14.689C270.021,114.667,269.706,115.672,269.763,116.739z M261.601,71.713L249.88,92.932
	c-0.514-0.182-1.07-0.265-1.647-0.198c-0.933,0.108-1.732,0.564-2.312,1.213L233.081,80.84c0.549-0.617,0.851-1.449,0.748-2.334
	c-0.016-0.14-0.054-0.271-0.088-0.404l26.506-7.859C260.557,70.855,261.028,71.357,261.601,71.713z M103.635,109.904
	c0.318,0.333,0.702,0.594,1.13,0.77l-9.476,55.494c-0.114,0.002-0.227-0.009-0.343,0.005c-0.587,0.068-1.118,0.281-1.583,0.581
	l-16.227-28.01c1.066-0.735,1.711-2.006,1.552-3.382c-0.08-0.69-0.358-1.304-0.758-1.812L103.635,109.904z M74.094,139.25
	l-7.808,37.511c-0.014,0.001-0.027-0.001-0.041,0c-0.633,0.074-1.139,0.484-1.375,1.029l-29.896-25.575
	c0.662-0.652,1.038-1.583,0.922-2.577c-0.021-0.186-0.066-0.363-0.118-0.537L71.78,137.17
	C72.204,138.181,73.054,138.949,74.094,139.25z M64.729,178.4c-0.004,0.09-0.007,0.18,0.004,0.272
	c0.059,0.511,0.34,0.937,0.73,1.209l-15.76,36.694c-0.233-0.076-0.485-0.108-0.745-0.078c-0.096,0.011-0.187,0.035-0.276,0.061
	l-15.624-63.457c0.033-0.003,0.065,0.002,0.098-0.001c0.516-0.06,0.979-0.254,1.381-0.526L64.729,178.4z M34.483,248.495
	c-0.152-1.307-0.817-2.428-1.769-3.189l15.976-25.367c0.069,0.019,0.14,0.029,0.211,0.04l5.612,28.876
	c-1.14,0.318-1.984,1.242-2.227,2.373l-17.826-1.566C34.51,249.281,34.529,248.893,34.483,248.495z M56.844,254.671l23.653,37.906
	c-0.795,0.389-1.369,1.117-1.561,1.981l-15.919-1.718c0.084-0.364,0.122-0.744,0.076-1.137c-0.2-1.723-1.685-2.971-3.386-2.931
	l-3.714-33.806C56.295,254.905,56.582,254.811,56.844,254.671z M60.167,295.398c1.235-0.144,2.22-0.951,2.673-2.02l16.028,1.73
	c-0.003,0.138-0.01,0.274,0.006,0.415c0.042,0.362,0.156,0.695,0.314,1.001l-23.273,11.441c-0.148-0.52-0.461-0.958-0.877-1.266
	l4.178-11.345C59.523,295.41,59.84,295.437,60.167,295.398z M128.443,189.23l5.62-22.539c0.216,0.051,0.441,0.073,0.674,0.046
	c0.46-0.053,0.858-0.269,1.16-0.576l34.438,9.738c-0.033,0.171-0.049,0.347-0.028,0.529c0.006,0.048,0.021,0.092,0.031,0.139
	l-38.181,15.83C131.435,190.851,130.072,189.694,128.443,189.23z M136.452,164.572c-0.08-0.691-0.514-1.252-1.099-1.533
	l12.139-29.828c0.231,0.028,0.467,0.039,0.708,0.011c0.219-0.025,0.427-0.077,0.627-0.146l22.269,41.688
	c-0.24,0.156-0.438,0.365-0.576,0.613l-34.271-9.691C136.42,165.354,136.498,164.97,136.452,164.572z M135.973,42.189l-5.568,19.601
	c-0.333-0.023-0.672-0.02-1.016,0.02c-2.437,0.282-4.314,2.116-4.765,4.4l-28.174-5.981c0.131-0.279,0.193-0.595,0.162-0.923
	l36.929-19.013C134.121,41.176,134.973,41.844,135.973,42.189z M32.486,153.102L48.17,216.8c-0.52,0.357-0.835,0.978-0.757,1.647
	c0.046,0.398,0.227,0.745,0.485,1.013l-17.092,13.589c-0.521-0.756-1.334-1.274-2.263-1.408l3.62-78.6
	C32.27,153.063,32.375,153.091,32.486,153.102z M57.492,323.547c-0.016-0.141-0.05-0.274-0.089-0.406l23.089-25.336
	c0.297,0.146,0.62,0.24,0.958,0.278l-7.577,29.463c-0.498-0.18-1.039-0.264-1.601-0.198c-1.401,0.163-2.505,1.128-2.932,2.38
	l-12.17-4.695C57.425,324.598,57.554,324.086,57.492,323.547z M76.193,330.455c-0.137-1.179-0.842-2.148-1.807-2.683l7.635-29.685
	c0.029-0.002,0.058,0.002,0.087-0.001c0.328-0.038,0.629-0.14,0.911-0.274l13.231,40.936c-0.516,0.168-0.932,0.525-1.195,0.977
	l-19.147-7.453C76.151,331.717,76.268,331.1,76.193,330.455z M125.394,328.318l-20.431-47.027c0.44-0.38,0.691-0.964,0.619-1.585
	c-0.043-0.371-0.195-0.702-0.42-0.966l12.429-19.771c0.021-0.001,0.041,0.001,0.061,0l8.168,69.256
	C125.676,328.252,125.53,328.273,125.394,328.318z M101.083,212.206c-0.051-0.438-0.18-0.843-0.342-1.231l21.229-12.826
	c1.12,1.663,3.055,2.692,5.166,2.583l2.994,25.378c-1.23,0.242-2.241,1-2.823,2.032l-26.879-13.035
	C100.941,214.266,101.205,213.262,101.083,212.206z M263.379,29.805l-58.904,44.061c-0.571-0.469-1.319-0.717-2.109-0.636
	l1.201-25.541c0.227,0.056,0.465,0.08,0.711,0.051c1.104-0.128,1.896-1.126,1.768-2.231c-0.012-0.102-0.039-0.198-0.064-0.294
	l57.159-16.152C263.193,29.324,263.273,29.571,263.379,29.805z M28.123,238.262l0.719,6.097c-2.45,0.462-4.169,2.726-3.878,5.24
	c0.123,1.061,0.594,1.989,1.273,2.712l-12.834,11.613c-0.074-0.064-0.153-0.122-0.235-0.175l13.859-25.643
	C27.374,238.219,27.742,238.269,28.123,238.262z M58.675,295.218l-4.128,11.21c-0.368-0.155-0.774-0.23-1.199-0.182
	c-1.312,0.152-2.251,1.339-2.1,2.65c0.013,0.107,0.042,0.207,0.068,0.309l-20.448,1.284c0.032-0.205,0.047-0.415,0.022-0.631
	c-0.004-0.036-0.017-0.068-0.022-0.104l26.61-15.282C57.818,294.802,58.223,295.058,58.675,295.218z M53.691,310.999l1.232,10.444
	c-0.029,0.002-0.057-0.002-0.086,0.001c-0.94,0.108-1.681,0.751-1.976,1.588L30.325,311.66c0.157-0.18,0.282-0.384,0.378-0.604
	l20.815-1.307C51.938,310.528,52.77,311.025,53.691,310.999z M265.291,148.588l7.862-27.76c0.501,0.123,1.027,0.174,1.57,0.111
	c2.452-0.284,4.21-2.503,3.926-4.955c-0.002-0.015-0.007-0.028-0.009-0.042l21-2.477c0.243,1.378,0.841,2.616,1.699,3.617
	l-35.68,31.595C265.54,148.634,265.418,148.602,265.291,148.588z M265.907,31.777l-2.469,33.093
	c-0.106,0.003-0.209-0.007-0.316,0.005c-2.039,0.236-3.5,2.081-3.264,4.12c0.03,0.255,0.084,0.502,0.162,0.737l-26.469,7.848
	c-0.219-0.466-0.546-0.86-0.955-1.155l31.876-45.261C264.892,31.473,265.381,31.681,265.907,31.777z M222.754,12.493l-18.549,31.243
	c-0.128-0.01-0.258-0.009-0.39,0.006c-0.446,0.052-0.837,0.25-1.141,0.537l-11.243-14.686c1.131-0.902,1.793-2.341,1.614-3.884
	c-0.044-0.386-0.154-0.745-0.29-1.089l29.604-12.578C222.471,12.21,222.602,12.363,222.754,12.493z M222.008,11.101
	c0.018,0.155,0.053,0.303,0.101,0.445l-29.578,12.566c-0.826-1.495-2.494-2.423-4.294-2.214c-0.004,0-0.008,0.002-0.013,0.003
	l-1.509-12.791c1.873-0.239,3.303-1.645,3.678-3.399l31.614,5.328C222.009,11.061,222.005,11.08,222.008,11.101z M81.274,50.721
	c0.551,0.647,1.403,1.018,2.311,0.913c0.202-0.023,0.393-0.074,0.577-0.139l8.905,7.741c-0.019,0.145-0.027,0.292-0.01,0.444
	c0.019,0.164,0.066,0.316,0.125,0.462l-34.097,8.842c-0.001-0.007,0-0.014,0-0.021c-0.041-0.355-0.153-0.683-0.308-0.982
	L81.274,50.721z M93.872,60.972c0.026,0.017,0.052,0.036,0.079,0.051l-18.23,71.211c-0.336-0.059-0.682-0.088-1.038-0.046
	c-1.418,0.164-2.537,1.134-2.982,2.396l-46.501-12.412c0.079-0.331,0.113-0.677,0.071-1.035c-0.054-0.467-0.222-0.89-0.459-1.261
	L93.872,60.972z M71.508,136.194c0.018,0.156,0.062,0.301,0.099,0.45l-36.038,11.944c-0.575-1.13-1.8-1.845-3.133-1.69
	c-0.394,0.045-0.757,0.169-1.088,0.344l-7.903-23.004c0.71-0.298,1.269-0.851,1.576-1.54l46.541,12.422
	C71.497,135.468,71.466,135.825,71.508,136.194z M28.616,307.793l1.29-53.982c0.124-0.004,0.245,0.009,0.37-0.005
	c2.036-0.236,3.611-1.72,4.083-3.596l17.859,1.569c-0.005,0.156-0.011,0.312,0.007,0.473c0.118,1.021,0.718,1.863,1.541,2.348
	l-24.43,53.325C29.108,307.843,28.867,307.799,28.616,307.793z M29.833,308.172l24.434-53.336c0.368,0.138,0.764,0.204,1.176,0.194
	l3.713,33.801c-1.696,0.326-2.886,1.896-2.684,3.642c0.069,0.594,0.302,1.124,0.632,1.574l-26.399,15.162
	C30.521,308.778,30.216,308.421,29.833,308.172z M56.363,325.857c0.168-0.104,0.317-0.229,0.453-0.368l12.391,4.781
	c-0.055,0.324-0.082,0.656-0.042,0.999c0.22,1.897,1.906,3.26,3.795,3.108l1.037,31.57c-0.169-0.011-0.341-0.013-0.515,0.008
	c-0.129,0.015-0.25,0.051-0.373,0.082L56.363,325.857z M107.313,389.178c-0.233-2.011-1.454-3.664-3.122-4.536l13.824-28.222
	c0.2,0.04,0.407,0.059,0.621,0.034c0.043-0.005,0.082-0.02,0.125-0.027l15.243,30.188c-1.256,0.692-2.042,2.063-1.949,3.564
	l-24.703-0.386C107.349,389.59,107.337,389.385,107.313,389.178z M107.332,390.348l24.803,0.387c0.404,1.898,2.175,3.22,4.141,2.991
	c0.862-0.1,1.612-0.49,2.191-1.05l12.884,10.609c-0.161,0.205-0.281,0.438-0.369,0.686l-43.833-12.594
	C107.238,391.043,107.302,390.699,107.332,390.348z M155.402,405.903c0.013-0.024,0.021-0.052,0.033-0.077l8.151,2.342
	c-0.011,0.167-0.012,0.336,0.008,0.508c0.178,1.538,1.569,2.64,3.107,2.462c0.388-0.045,0.748-0.168,1.067-0.351l4.671,7.852
	c-0.307,0.166-0.587,0.368-0.842,0.6L155.402,405.903z M118.192,258.818c0.227-0.101,0.425-0.244,0.589-0.421l0.072,0.007
	l-0.051-0.029c0.33-0.37,0.511-0.868,0.45-1.398c-0.031-0.271-0.126-0.518-0.261-0.735l10.399-22.203
	c0.331,0.133,0.677,0.23,1.04,0.274l-4.069,93.772L118.192,258.818z M299.557,112.917l-21.038,2.481
	c-0.325-1.273-1.167-2.31-2.286-2.881l21.16-44.458c0.478,0.297,1.021,0.492,1.604,0.535l6.51,36.118
	C301.757,105.519,299.158,109.034,299.557,112.917z M159.458,10.505L140.411,33.9c-0.948-0.724-2.163-1.102-3.441-0.953
	c-2.063,0.239-3.648,1.767-4.086,3.684l-26.076-5.962c0.05-0.276,0.075-0.56,0.041-0.853c-0.021-0.181-0.062-0.354-0.114-0.521
	l51.945-20.135C158.864,9.656,159.122,10.114,159.458,10.505z M84.841,46.904c-0.169-0.125-0.355-0.225-0.551-0.307l10.107-8.391
	L84.841,46.904z M56.567,72.142c1.373-0.159,2.405-1.264,2.525-2.587l34.287-8.891l-68.908,58.774
	c-0.084-0.089-0.17-0.176-0.264-0.254l30.546-47.451C55.28,72.054,55.907,72.218,56.567,72.142z M22.636,124.464
	c0.097-0.011,0.186-0.042,0.28-0.062l7.955,23.152c-0.821,0.649-1.304,1.688-1.175,2.804c0.076,0.656,0.353,1.238,0.758,1.699
	L5.393,192.455c-0.193-0.127-0.398-0.232-0.616-0.317l17.084-67.697C22.113,124.478,22.371,124.495,22.636,124.464z M4.638,198.346
	l21.191,34.116c-0.773,0.7-1.213,1.745-1.083,2.859c0.132,1.139,0.822,2.076,1.765,2.572l-13.842,25.611
	c-0.283-0.092-0.587-0.131-0.901-0.095c-0.009,0.001-0.016,0.004-0.024,0.005l-7.66-64.944
	C4.274,198.441,4.461,198.405,4.638,198.346z M76.65,368.466c-0.031-0.266-0.108-0.512-0.205-0.748l19.62-24.927
	c0.323,0.141,0.681,0.208,1.055,0.174l3.383,41.099c-1.522,0.255-2.82,1.075-3.699,2.225L75.95,370.676
	C76.465,370.089,76.747,369.302,76.65,368.466z M106.979,391.903l43.874,12.606c-0.02,0.18-0.025,0.362-0.004,0.55
	c0.154,1.328,1.357,2.281,2.686,2.127c0.628-0.073,1.166-0.385,1.549-0.828l16.128,13.281c-0.16,0.188-0.299,0.391-0.424,0.604
	l-63.902-28.101C106.918,392.064,106.949,391.984,106.979,391.903z M203.725,421.085c0.003,0.03-0.002,0.06,0.001,0.09
	c0.228,1.963,2.002,3.369,3.965,3.142c1.491-0.173,2.657-1.241,3.033-2.604l11.847,3.404c-0.021,0.122-0.046,0.242-0.054,0.368
	l-43.119-3.053L203.725,421.085z M213.851,419.969l-3.064,0.17c-0.329-1.847-2.03-3.148-3.919-2.929
	c-1.266,0.146-2.293,0.941-2.806,2.013l-35.001-10.057c0.108-0.357,0.149-0.741,0.104-1.136c-0.179-1.538-1.569-2.642-3.108-2.463
	c-0.229,0.026-0.443,0.087-0.649,0.164l-11.773-19.791c0.164-0.172,0.31-0.359,0.424-0.568l60.014,33.793
	C213.957,419.416,213.876,419.685,213.851,419.969z M130.986,234.332c0.066-0.001,0.132,0.001,0.199-0.003l4.1,29.452
	c-1.628,0.317-2.77,1.827-2.575,3.502c0.171,1.478,1.326,2.593,2.733,2.794l-8.448,56.237L130.986,234.332z M135.835,263.723
	l-4.102-29.468c2.103-0.415,3.576-2.359,3.34-4.523l36.122-6.365c0.008,0.009,0.017,0.016,0.025,0.024l-33.096,41.236
	C137.526,264.045,136.715,263.706,135.835,263.723z M173.626,222.239c-0.111-0.695-0.718-1.19-1.416-1.168l0.196-43.138
	c0.372-0.079,0.694-0.27,0.935-0.536l39.926,30.67c-0.624,0.979-0.947,2.157-0.803,3.4c0.034,0.295,0.107,0.576,0.187,0.853
	L173.626,222.239z M218.355,205.691l1.485-45.97c0.199,0.014,0.4,0.015,0.605-0.009c0.318-0.037,0.612-0.132,0.893-0.252
	l29.905,37.377c-0.531,0.718-0.81,1.626-0.698,2.584c0.04,0.341,0.139,0.657,0.263,0.959l-28.122,9.059
	C222.116,207.425,220.403,205.963,218.355,205.691z M255.069,195.472l9.447-43.757c0.241,0.094,0.504,0.139,0.778,0.107
	c0.374-0.044,0.698-0.215,0.948-0.46l22.883,14.806c-0.212,0.458-0.313,0.975-0.25,1.513c0.044,0.377,0.163,0.726,0.334,1.039
	l-32.25,27.926C256.473,196.071,255.812,195.661,255.069,195.472z"/>
</svg>
