<?xml version="1.0" encoding="utf-8"?>
<!-- Generator: Adobe Illustrator 16.0.4, SVG Export Plug-In . SVG Version: 6.00 Build 0)  -->
<!DOCTYPE svg PUBLIC "-//W3C//DTD SVG 1.1//EN" "http://www.w3.org/Graphics/SVG/1.1/DTD/svg11.dtd">
<svg version="1.1" id="レイヤー_1" xmlns="http://www.w3.org/2000/svg" xmlns:xlink="http://www.w3.org/1999/xlink" x="0px"
	 y="0px" width="500px" height="500px" viewBox="0 0 500 500" enable-background="new 0 0 500 500" xml:space="preserve">
<g>
	<g>
		<path fill="#FFFFFF" d="M77.31,212.811c-0.009,0-0.022-0.004-0.031-0.012l-39.118-33.464c-0.013-0.013-0.019-0.028-0.016-0.045
			c0.003-0.016,0.016-0.031,0.031-0.033l49.501-16.407c0.013-0.008,0.031-0.005,0.043,0.011c0.013,0.008,0.019,0.025,0.016,0.043
			l-10.38,49.869c-0.003,0.019-0.016,0.031-0.031,0.036C77.319,212.811,77.316,212.811,77.31,212.811z M38.285,179.317
			l38.997,33.359l10.346-49.715L38.285,179.317z"/>
		<path fill="#FFFFFF" d="M336.146,199.114c-0.006,0-0.016-0.003-0.025-0.008l-30.693-19.86c-0.012-0.008-0.021-0.021-0.021-0.036
			c-0.003-0.016,0.003-0.031,0.016-0.038l48.89-43.293c0.016-0.012,0.037-0.016,0.056-0.006c0.019,0.014,0.025,0.034,0.019,0.055
			l-18.194,63.153c-0.003,0.012-0.016,0.025-0.028,0.029C336.159,199.114,336.152,199.114,336.146,199.114z M305.528,179.199
			l30.593,19.793l18.132-62.938L305.528,179.199z"/>
		<path fill="#FFFFFF" d="M146.562,364.403h-0.006c-0.025-0.006-0.043-0.024-0.041-0.049l5.233-92.979
			c0.003-0.023,0.019-0.04,0.037-0.046c0.019,0,0.043,0.008,0.053,0.029l12.911,29.646c0.006,0.011,0.006,0.02,0.003,0.031
			l-18.147,63.334C146.599,364.392,146.581,364.403,146.562,364.403z M151.833,271.575l-5.203,92.366l18.03-62.918L151.833,271.575z
			"/>
		<path fill="#FFFFFF" d="M146.562,364.403c-0.025,0-0.043-0.015-0.047-0.04l-9.775-60.934c0-0.01,0-0.018,0.006-0.026
			l15.008-32.048c0.009-0.019,0.031-0.031,0.053-0.023c0.021,0.005,0.034,0.026,0.034,0.045l-5.233,92.984
			C146.605,364.382,146.587,364.403,146.562,364.403L146.562,364.403z M136.833,303.431l9.707,60.492l5.196-92.309L136.833,303.431z
			"/>
		<path fill="#FFFFFF" d="M77.31,212.811c-0.009,0-0.022-0.004-0.031-0.012c-0.012-0.011-0.015-0.028-0.015-0.045l10.379-49.872
			c0.006-0.017,0.022-0.032,0.041-0.037c0.016,0,0.037,0.009,0.046,0.025l22.773,39.312c0.009,0.012,0.009,0.025,0.006,0.041
			c-0.006,0.012-0.019,0.023-0.031,0.024l-33.152,10.562C77.319,212.811,77.316,212.811,77.31,212.811z M87.711,163.02
			l-10.339,49.676l33.022-10.518L87.711,163.02z"/>
		<path fill="#FFFFFF" d="M33.666,277.605c-0.016,0-0.031-0.009-0.041-0.021L5.393,232.126c-0.009-0.012-0.009-0.032,0-0.048
			l32.759-52.805c0.012-0.017,0.037-0.028,0.053-0.017c0.021,0.004,0.034,0.025,0.031,0.045l-4.523,98.259
			c0,0.021-0.016,0.037-0.034,0.043C33.675,277.603,33.668,277.605,33.666,277.605z M5.489,232.105l28.136,45.301l4.511-97.93
			L5.489,232.105z"/>
		<path fill="#FFFFFF" d="M304.07,86.225c-0.022,0-0.041-0.016-0.047-0.038l-13.392-70.732c-0.003-0.02,0.006-0.043,0.028-0.051
			c0.019-0.007,0.043-0.001,0.056,0.013l53.841,65.962c0.009,0.012,0.013,0.029,0.006,0.045c-0.006,0.019-0.021,0.028-0.04,0.031
			l-40.446,4.77C304.073,86.225,304.07,86.225,304.07,86.225z M290.759,15.617l13.349,70.512l40.322-4.757L290.759,15.617z"/>
		<path fill="#FFFFFF" d="M293.12,236.372c-0.009,0-0.019-0.003-0.025-0.006c-0.019-0.009-0.025-0.029-0.021-0.05l12.334-57.118
			c0.003-0.016,0.016-0.028,0.028-0.033c0.016-0.007,0.031-0.006,0.043,0.002l30.693,19.86c0.015,0.011,0.021,0.023,0.021,0.036
			c0.003,0.016-0.003,0.031-0.016,0.042l-43.027,37.257C293.142,236.369,293.132,236.372,293.12,236.372z M305.485,179.282
			l-12.291,56.917l42.877-37.125L305.485,179.282z"/>
		<path fill="#FFFFFF" d="M14.891,312.344c-0.003,0-0.006,0-0.009-0.003c-0.019-0.004-0.034-0.018-0.037-0.039l-9.458-80.192
			c-0.003-0.023,0.009-0.043,0.031-0.048c0.021-0.011,0.043,0,0.056,0.017l28.232,45.454c0.009,0.016,0.009,0.033,0,0.048
			l-18.774,34.736C14.925,312.333,14.907,312.344,14.891,312.344z M5.504,232.305l9.415,79.836l18.694-34.583L5.504,232.305z"/>
		<path fill="#FFFFFF" d="M38.191,179.345c-0.019,0-0.037-0.011-0.043-0.031l-11.205-32.609c-0.006-0.014,0-0.033,0.009-0.045
			c0.013-0.014,0.031-0.02,0.047-0.012l60.703,16.2c0.019,0.007,0.034,0.023,0.034,0.046c0.003,0.02-0.012,0.039-0.031,0.043
			l-49.501,16.406C38.201,179.345,38.194,179.345,38.191,179.345z M27.061,146.759l11.158,32.482l49.309-16.345L27.061,146.759z"/>
		<path fill="#FFFFFF" d="M5.433,232.15c-0.006,0-0.012,0-0.019-0.001c-0.019-0.011-0.031-0.034-0.025-0.056l21.554-85.413
			c0.003-0.021,0.022-0.036,0.043-0.037c0.013-0.003,0.038,0.012,0.043,0.031l11.205,32.611c0.006,0.012,0.003,0.028-0.003,0.037
			L5.473,232.128C5.464,232.142,5.448,232.15,5.433,232.15z M26.996,146.852L5.551,231.826l32.588-52.532L26.996,146.852z"/>
		<path fill="#FFFFFF" d="M235.1,59.39c-0.009,0-0.019-0.006-0.028-0.011c-0.016-0.011-0.025-0.032-0.016-0.053l15.529-48.153
			c0.006-0.017,0.022-0.033,0.043-0.033c0.003,0,0.003,0,0.006,0l40.049,4.259c0.019,0.003,0.034,0.016,0.04,0.033
			c0.003,0.02-0.003,0.039-0.015,0.051l-55.582,43.896C235.122,59.384,235.109,59.39,235.1,59.39z M250.664,11.24L235.19,59.208
			l55.371-43.728L250.664,11.24z"/>
		<path fill="#FFFFFF" d="M293.12,236.372c-0.016,0-0.028-0.006-0.037-0.019l-39.323-49.147c-0.013-0.014-0.013-0.031-0.006-0.046
			c0.006-0.016,0.019-0.03,0.034-0.031l51.657-7.969c0.016-0.001,0.031,0.006,0.041,0.016c0.012,0.011,0.019,0.026,0.012,0.04
			l-12.331,57.122c-0.006,0.017-0.019,0.029-0.034,0.036C293.126,236.372,293.123,236.372,293.12,236.372z M253.881,187.211
			l39.214,49.009l12.3-56.955L253.881,187.211z"/>
		<path fill="#FFFFFF" d="M151.795,271.421c-0.006,0-0.012-0.001-0.019-0.003l-39.832-19.314c-0.012-0.009-0.025-0.023-0.025-0.041
			c0-0.015,0.01-0.034,0.022-0.04l35.054-21.18c0.013-0.009,0.031-0.009,0.043-0.001c0.016,0.005,0.025,0.02,0.028,0.034
			l4.774,40.494c0.003,0.018-0.003,0.033-0.019,0.045C151.817,271.418,151.805,271.421,151.795,271.421z M112.066,252.06
			l39.673,19.236l-4.755-40.334L112.066,252.06z"/>
		<path fill="#FFFFFF" d="M111.967,252.109c-0.013,0-0.025-0.005-0.034-0.016l-34.657-39.298c-0.009-0.014-0.012-0.03-0.009-0.044
			c0.003-0.014,0.016-0.028,0.031-0.032l33.153-10.562c0.012-0.004,0.031,0,0.041,0.008c0.012,0.008,0.019,0.023,0.019,0.037
			l1.504,49.858c0,0.02-0.009,0.039-0.028,0.043C111.979,252.107,111.973,252.109,111.967,252.109z M77.393,212.786l34.524,39.147
			l-1.498-49.667L77.393,212.786z"/>
		<path fill="#FFFFFF" d="M136.787,303.469c-0.019,0-0.034-0.01-0.041-0.027l-24.823-51.36c-0.006-0.017-0.003-0.037,0.012-0.053
			c0.013-0.012,0.031-0.015,0.05-0.009l39.832,19.316c0.025,0.009,0.031,0.037,0.021,0.063l-15.011,32.043
			C136.821,303.457,136.806,303.469,136.787,303.469L136.787,303.469z M112.069,252.164l24.714,51.15l14.949-31.915L112.069,252.164
			z"/>
		<path fill="#FFFFFF" d="M111.967,252.109c-0.006,0-0.016-0.002-0.022-0.008c-0.015-0.008-0.025-0.021-0.025-0.038l-1.504-49.861
			c0-0.014,0.013-0.032,0.028-0.04c0.013-0.009,0.034-0.008,0.05,0.004l36.556,28.68c0.013,0.008,0.019,0.023,0.019,0.037
			c0,0.016-0.009,0.031-0.021,0.039l-35.054,21.179C111.985,252.107,111.976,252.109,111.967,252.109z M110.515,202.303
			l1.496,49.678l34.93-21.104L110.515,202.303z"/>
		<path fill="#FFFFFF" d="M33.873,364.205c-0.021,0-0.037-0.013-0.043-0.031l-18.982-51.861c-0.006-0.019-0.003-0.039,0.009-0.051
			l20.67-18.698c0.012-0.013,0.034-0.016,0.049-0.008c0.016,0.008,0.028,0.024,0.028,0.043l-1.688,70.56
			c0,0.022-0.015,0.041-0.037,0.047C33.876,364.205,33.873,364.205,33.873,364.205z M14.944,312.308L33.83,363.91l1.675-70.204
			L14.944,312.308z"/>
		<path fill="#FFFFFF" d="M14.891,312.344c-0.009,0-0.021-0.007-0.028-0.011c-0.019-0.016-0.025-0.041-0.012-0.06l18.774-34.736
			c0.009-0.021,0.034-0.028,0.05-0.025c0.019,0.004,0.034,0.02,0.037,0.04l1.893,16.038c0,0.016-0.006,0.031-0.016,0.04
			l-20.667,18.698C14.913,312.337,14.9,312.344,14.891,312.344z M33.638,277.711l-18.576,34.367l20.446-18.5L33.638,277.711z"/>
		<path fill="#FFFFFF" d="M117.762,455.03l-0.006,0.003c-0.022-0.007-0.037-0.021-0.041-0.044l-4.644-56.428
			c0-0.019,0.006-0.034,0.021-0.044c0.016-0.009,0.034-0.009,0.05,0l24.302,16.299c0.021,0.013,0.028,0.037,0.015,0.06
			l-19.655,40.132C117.796,455.023,117.78,455.03,117.762,455.03z M113.17,398.648l4.625,56.164l19.565-39.943L113.17,398.648z"/>
		<path fill="#FFFFFF" d="M87.689,162.941c-0.003,0-0.006-0.003-0.013-0.003l-60.703-16.203c-0.016-0.004-0.028-0.017-0.031-0.037
			c-0.006-0.016,0-0.031,0.013-0.043l82.97-70.765c0.013-0.016,0.038-0.019,0.056-0.008c0.019,0.013,0.025,0.033,0.019,0.051
			l-22.264,86.972c-0.003,0.011-0.012,0.021-0.022,0.028C87.705,162.937,87.699,162.941,87.689,162.941z M27.086,146.669
			l60.572,16.168l22.218-86.782L27.086,146.669z"/>
		<path fill="#FFFFFF" d="M26.986,146.738c-0.009,0-0.021-0.006-0.031-0.014c-0.016-0.016-0.019-0.041-0.006-0.061l38.057-59.121
			c0.006-0.009,0.019-0.014,0.028-0.017l44.91-11.647c0.024-0.008,0.04,0.004,0.053,0.023c0.009,0.021,0.006,0.043-0.013,0.056
			l-82.967,70.766C27.008,146.732,26.999,146.738,26.986,146.738z M65.075,87.61l-37.877,58.838l82.573-70.429L65.075,87.61z"/>
		<path fill="#FFFFFF" d="M65.047,87.618c-0.016,0-0.034-0.011-0.041-0.029c-0.012-0.019-0.006-0.042,0.012-0.054L95.991,63.77
			c0.019-0.012,0.043-0.012,0.056,0.003l13.938,12.117c0.016,0.009,0.022,0.028,0.016,0.045c-0.003,0.014-0.019,0.028-0.031,0.033
			l-44.91,11.647C65.056,87.615,65.05,87.618,65.047,87.618z M96.016,63.866L65.254,87.467l44.603-11.568L96.016,63.866z"/>
		<path fill="#FFFFFF" d="M151.795,271.421c-0.003,0-0.009,0.001-0.009-0.001c-0.019-0.004-0.034-0.02-0.037-0.04l-4.774-40.493
			c-0.003-0.021,0.009-0.04,0.028-0.048l52.175-21.631c0.019-0.011,0.041-0.003,0.053,0.016c0.016,0.014,0.016,0.04,0.003,0.054
			l-47.398,62.128C151.823,271.416,151.811,271.421,151.795,271.421z M147.07,230.912l4.759,40.344l47.224-61.896L147.07,230.912z"
			/>
		<path fill="#FFFFFF" d="M151.795,271.421c-0.015,0-0.031-0.007-0.04-0.021c-0.009-0.017-0.006-0.037,0.003-0.053l47.398-62.124
			c0.015-0.016,0.025-0.023,0.053-0.019c0.019,0.004,0.031,0.019,0.034,0.039l8.202,55.297c0,0.011-0.003,0.026-0.009,0.036
			c-0.009,0.008-0.021,0.016-0.031,0.016l-55.603,6.831C151.798,271.421,151.798,271.421,151.795,271.421z M199.165,209.368
			L151.9,271.316l55.445-6.811L199.165,209.368z"/>
		<path fill="#FFFFFF" d="M199.196,209.299c-0.003,0-0.009-0.003-0.009-0.003c-0.021-0.006-0.037-0.02-0.037-0.041l-8.67-91.857
			c-0.003-0.017,0.009-0.039,0.028-0.045c0.012-0.008,0.037-0.005,0.05,0.009l39.304,39.301c0.015,0.015,0.019,0.039,0.009,0.056
			l-30.634,52.553C199.227,209.289,199.211,209.299,199.196,209.299z M190.584,117.518l8.646,91.586l30.541-52.4L190.584,117.518z"
			/>
		<path fill="#FFFFFF" d="M199.196,209.299c-0.015,0-0.028-0.007-0.034-0.019c-0.015-0.015-0.015-0.036-0.006-0.053l30.633-52.553
			c0.006-0.016,0.022-0.023,0.038-0.023c0.009,0,0.028,0.005,0.04,0.019l23.964,30.477c0.009,0.013,0.012,0.025,0.009,0.041
			c-0.003,0.016-0.013,0.025-0.028,0.031l-54.601,22.077C199.208,209.296,199.202,209.299,199.196,209.299z M229.836,156.779
			l-30.531,52.378l54.415-22.002L229.836,156.779z"/>
		<path fill="#FFFFFF" d="M146.562,364.403c-0.016,0-0.031-0.009-0.038-0.019l-25.574-35.803c-0.013-0.018-0.013-0.039-0.003-0.053
			l15.799-25.133c0.012-0.014,0.028-0.021,0.05-0.02c0.019,0.006,0.031,0.02,0.037,0.039l9.775,60.932
			c0.003,0.021-0.009,0.044-0.028,0.053C146.574,364.403,146.568,364.403,146.562,364.403z M121.043,328.551l25.441,35.617
			l-9.726-60.616L121.043,328.551z"/>
		<path fill="#FFFFFF" d="M35.558,293.644c-0.003,0-0.009-0.001-0.009,0c-0.021-0.005-0.034-0.021-0.037-0.04l-1.892-16.041
			c0-0.014,0.006-0.03,0.019-0.042l24.017-19.094c0.019-0.014,0.043-0.009,0.059,0.003c0.019,0.016,0.021,0.041,0.009,0.061
			l-22.128,35.132C35.585,293.636,35.573,293.644,35.558,293.644z M33.715,277.578l1.871,15.883l21.911-34.789L33.715,277.578z"/>
		<path fill="#FFFFFF" d="M33.666,277.605c-0.009,0-0.016-0.001-0.022-0.008c-0.016-0.007-0.024-0.021-0.024-0.042l4.526-98.259
			c0.003-0.023,0.019-0.04,0.04-0.043c0.003,0,0.003,0,0.003,0c0.025,0,0.043,0.012,0.046,0.036l19.494,79.164
			c0.003,0.017-0.003,0.037-0.019,0.048l-24.017,19.095C33.687,277.6,33.678,277.605,33.666,277.605z M38.223,179.623l-4.504,97.835
			l23.911-19.012L38.223,179.623z"/>
		<path fill="#FFFFFF" d="M57.682,258.51h-0.003c-0.022-0.001-0.037-0.014-0.043-0.036L38.148,179.31
			c-0.006-0.017,0-0.041,0.019-0.048c0.019-0.012,0.041-0.011,0.056,0.003l39.118,33.463c0.016,0.012,0.022,0.036,0.013,0.056
			l-19.627,45.699C57.716,258.501,57.701,258.51,57.682,258.51z M38.272,179.427l19.423,78.891l19.559-45.54L38.272,179.427z"/>
		<path fill="#FFFFFF" d="M57.682,258.51c-0.015,0-0.028-0.007-0.037-0.017c-0.009-0.015-0.012-0.031-0.003-0.046l19.624-45.702
			c0.006-0.013,0.021-0.025,0.037-0.028c0.013,0,0.031,0.006,0.043,0.015l34.657,39.298c0.009,0.014,0.013,0.034,0.006,0.049
			c-0.006,0.014-0.019,0.028-0.038,0.03l-54.287,6.401C57.686,258.51,57.686,258.51,57.682,258.51z M77.322,212.852L57.76,258.41
			l54.114-6.384L77.322,212.852z"/>
		<path fill="#FFFFFF" d="M136.787,303.469c-0.009,0-0.016,0-0.022-0.005l-79.104-44.958c-0.019-0.009-0.028-0.031-0.025-0.051
			c0.006-0.02,0.021-0.033,0.043-0.036l54.281-6.403c0.003,0,0.006,0,0.006,0c0.019,0,0.034,0.009,0.043,0.028l24.817,51.359
			c0.009,0.017,0.006,0.038-0.009,0.056C136.809,303.467,136.799,303.469,136.787,303.469z M57.828,258.493l78.85,44.815
			l-24.739-51.198L57.828,258.493z"/>
		<path fill="#FFFFFF" d="M87.689,162.941c-0.006,0-0.016-0.004-0.022-0.008c-0.019-0.012-0.028-0.032-0.021-0.053l22.264-86.968
			c0.006-0.021,0.021-0.034,0.046-0.034l0,0c0.021,0,0.037,0.014,0.043,0.034l12.719,54.793c0.003,0.016-0.003,0.033-0.016,0.043
			l-34.983,32.18C87.714,162.937,87.702,162.941,87.689,162.941z M109.954,76.121l-22.177,86.632l34.843-32.056L109.954,76.121z"/>
		<path fill="#FFFFFF" d="M110.465,202.25c-0.019,0-0.034-0.008-0.043-0.025l-22.77-39.309c-0.013-0.019-0.01-0.042,0.006-0.056
			l34.983-32.18c0.012-0.014,0.037-0.019,0.053-0.006c0.019,0.008,0.028,0.028,0.025,0.048l-12.21,71.487
			c-0.003,0.022-0.019,0.037-0.037,0.041H110.465z M87.748,162.904l22.692,39.166l12.16-71.228L87.748,162.904z"/>
		<path fill="#FFFFFF" d="M117.762,455.03c-0.01,0-0.019,0-0.028-0.007l-30.869-23.107c-0.013-0.01-0.019-0.021-0.019-0.034
			c-0.003-0.01,0-0.021,0.009-0.034l26.226-33.32c0.012-0.013,0.031-0.021,0.049-0.016s0.031,0.021,0.034,0.04l4.644,56.432
			c0.003,0.019-0.006,0.037-0.022,0.043C117.777,455.033,117.768,455.03,117.762,455.03z M86.957,431.869l30.749,23.015
			l-4.625-56.204L86.957,431.869z"/>
		<path fill="#FFFFFF" d="M159.349,50.541c-0.015,0-0.028-0.008-0.037-0.023c-0.012-0.016-0.009-0.039,0.003-0.053l28.53-35.048
			c0.019-0.02,0.046-0.022,0.065-0.008l30.051,21.475c0.019,0.009,0.025,0.028,0.021,0.045c-0.003,0.019-0.019,0.034-0.037,0.036
			l-58.584,13.577C159.358,50.541,159.355,50.541,159.349,50.541z M187.892,15.508l-28.418,34.909l58.351-13.518L187.892,15.508z"/>
		<path fill="#FFFFFF" d="M217.936,36.968c-0.009,0-0.019-0.003-0.028-0.011l-30.051-21.473c-0.019-0.011-0.024-0.031-0.019-0.048
			c0.003-0.019,0.019-0.033,0.037-0.036l27.144-3.2c0.021-0.008,0.05,0.015,0.05,0.04l2.913,24.675c0,0.017-0.006,0.037-0.021,0.045
			C217.952,36.964,217.942,36.968,217.936,36.968z M188.006,15.479l29.871,21.344l-2.894-24.527L188.006,15.479z"/>
		<path fill="#FFFFFF" d="M217.936,36.968c-0.006,0-0.012-0.003-0.019-0.005c-0.016-0.006-0.028-0.021-0.028-0.036l-2.913-24.676
			c0-0.012,0.003-0.024,0.012-0.036c0.009-0.011,0.022-0.015,0.034-0.019l35.606-1.056l0,0c0.019,0,0.041,0.012,0.043,0.033
			c0.009,0.019,0.003,0.039-0.016,0.049l-32.693,25.734C217.955,36.963,217.945,36.968,217.936,36.968z M215.076,12.292
			l2.897,24.541L250.49,11.24L215.076,12.292z"/>
		<path fill="#FFFFFF" d="M235.1,59.39c-0.016,0-0.028-0.008-0.037-0.021l-17.164-22.417c-0.016-0.022-0.013-0.051,0.006-0.067
			l32.697-25.731c0.016-0.015,0.037-0.015,0.056-0.003c0.016,0.011,0.025,0.034,0.019,0.054l-15.53,48.151
			c-0.006,0.016-0.021,0.028-0.037,0.031C235.104,59.387,235.104,59.39,235.1,59.39z M218.001,36.929l17.083,22.312l15.455-47.922
			L218.001,36.929z"/>
		<path fill="#FFFFFF" d="M113.118,398.602c-0.022,0-0.037-0.012-0.046-0.031l-16.954-52.45c-0.006-0.022,0-0.042,0.019-0.055
			l24.826-17.551c0.013-0.009,0.031-0.012,0.05-0.001c0.016,0.009,0.024,0.027,0.021,0.045l-7.87,70.003
			c-0.003,0.021-0.021,0.04-0.043,0.04H113.118z M96.217,346.121l16.878,52.214l7.833-69.682L96.217,346.121z"/>
		<path fill="#FFFFFF" d="M159.349,50.541c0,0-0.006,0-0.009,0l-38.926-8.903c-0.019-0.004-0.031-0.02-0.034-0.04
			c0-0.021,0.009-0.039,0.031-0.048l67.453-26.146c0.022-0.006,0.043,0,0.056,0.017c0.012,0.016,0.012,0.037,0,0.056l-28.534,35.046
			C159.377,50.535,159.364,50.541,159.349,50.541z M120.584,41.582l38.746,8.86l28.407-34.89L120.584,41.582z"/>
		<path fill="#FFFFFF" d="M65.047,87.618c-0.013,0-0.028-0.008-0.037-0.019c-0.016-0.02-0.013-0.048,0.006-0.065l55.379-45.976
			c0.022-0.019,0.047-0.014,0.065,0.006c0.019,0.017,0.016,0.045-0.003,0.063L96.05,63.841L65.075,87.607
			C65.065,87.613,65.056,87.618,65.047,87.618z M118.881,42.938l-51.942,43.12L95.991,63.77L118.881,42.938z"/>
		<path fill="#FFFFFF" d="M109.957,75.971c-0.012,0-0.025-0.004-0.031-0.012L95.987,63.845c-0.009-0.011-0.015-0.023-0.015-0.036
			c0-0.012,0.006-0.026,0.012-0.035l24.411-22.213c0.016-0.015,0.038-0.015,0.056-0.006c0.016,0.011,0.028,0.034,0.019,0.054
			L110,75.938c-0.006,0.015-0.019,0.024-0.031,0.029C109.963,75.971,109.959,75.971,109.957,75.971z M96.087,63.809l13.845,12.034
			l10.401-34.102L96.087,63.809z"/>
		<path fill="#FFFFFF" d="M109.957,75.971c-0.012,0-0.025-0.004-0.031-0.009c-0.012-0.014-0.019-0.034-0.015-0.051l10.473-34.331
			c0.003-0.022,0.025-0.034,0.053-0.03l38.926,8.9c0.019,0.002,0.031,0.021,0.037,0.038c0,0.02-0.009,0.039-0.025,0.048
			l-49.396,25.432C109.969,75.968,109.963,75.971,109.957,75.971z M120.457,41.648l-10.426,34.183l49.185-25.321L120.457,41.648z"/>
		<path fill="#FFFFFF" d="M286.549,117.951c-0.012,0-0.025-0.005-0.031-0.012c-0.019-0.016-0.021-0.039-0.012-0.059l17.524-31.723
			c0.009-0.012,0.022-0.023,0.034-0.023l40.452-4.772c0,0,0,0,0.003,0c0.022,0,0.037,0.012,0.043,0.031
			c0.006,0.021,0,0.045-0.019,0.056l-57.97,36.495C286.565,117.947,286.556,117.951,286.549,117.951z M304.101,86.222
			l-17.425,31.546l57.644-36.291L304.101,86.222z"/>
		<path fill="#FFFFFF" d="M33.873,364.205c-0.006,0-0.009,0-0.012,0c-0.019-0.009-0.037-0.024-0.034-0.05l1.685-70.56
			c0-0.014,0.006-0.024,0.016-0.032s0.028-0.013,0.034-0.013l29.455,2.587c0.016,0.002,0.031,0.01,0.037,0.021
			c0.006,0.016,0.01,0.031,0.003,0.042l-31.143,67.977C33.907,364.196,33.892,364.205,33.873,364.205z M35.601,293.65l-1.678,70.282
			l31.021-67.706L35.601,293.65z"/>
		<path fill="#FFFFFF" d="M65.013,296.23H65.01l-29.455-2.587c-0.019-0.001-0.031-0.013-0.037-0.024
			c-0.009-0.016-0.009-0.034,0-0.047l22.127-35.132c0.009-0.015,0.025-0.028,0.046-0.021c0.019,0.003,0.034,0.019,0.037,0.036
			l7.331,37.719c0.003,0.017-0.003,0.032-0.009,0.042C65.038,296.227,65.025,296.23,65.013,296.23z M35.635,293.559l29.322,2.573
			l-7.296-37.542L35.635,293.559z"/>
		<path fill="#FFFFFF" d="M136.787,303.469c0,0-0.003,0-0.006,0l-71.774-7.238c-0.019-0.001-0.034-0.019-0.041-0.037l-7.33-37.72
			c-0.003-0.019,0.006-0.037,0.019-0.046c0.013-0.014,0.034-0.009,0.05-0.001l79.104,44.958c0.019,0.01,0.028,0.036,0.022,0.056
			C136.824,303.456,136.809,303.469,136.787,303.469z M65.05,296.143l71.523,7.213l-78.825-44.802L65.05,296.143z"/>
		<path fill="#FFFFFF" d="M96.165,346.152c-0.006,0-0.006-0.003-0.013-0.005c-0.009,0-0.021-0.009-0.031-0.019l-31.149-49.921
			c-0.009-0.019-0.009-0.041,0.006-0.056c0.016-0.018,0.04-0.018,0.056-0.008l55.979,32.369c0.012,0.008,0.021,0.023,0.021,0.037
			c0,0.016-0.006,0.031-0.021,0.042l-24.823,17.549C96.183,346.147,96.17,346.152,96.165,346.152z M65.149,296.317l31.028,49.72
			l24.724-17.48L65.149,296.317z"/>
		<path fill="#FFFFFF" d="M120.988,328.599c-0.009,0-0.016-0.001-0.022-0.005l-55.978-32.37c-0.019-0.012-0.025-0.034-0.019-0.053
			c0.006-0.021,0.021-0.033,0.043-0.033c0,0,0.003,0,0.006,0l71.774,7.239c0.016,0,0.028,0.011,0.034,0.026
			c0.006,0.016,0.006,0.029,0,0.045l-15.799,25.13C121.019,328.593,121.003,328.599,120.988,328.599z M65.224,296.251l55.749,32.239
			l15.737-25.029L65.224,296.251z"/>
		<path fill="#FFFFFF" d="M190.525,117.442c-0.012,0-0.028-0.005-0.037-0.016c-0.013-0.017-0.013-0.043,0-0.061l44.575-58.053
			c0.012-0.014,0.034-0.022,0.053-0.014s0.031,0.025,0.031,0.045l-1.644,34.974c0,0.017-0.009,0.029-0.025,0.041l-42.93,23.08
			C190.541,117.44,190.532,117.442,190.525,117.442z M235.047,59.487l-44.354,57.764l42.72-22.965L235.047,59.487z"/>
		<path fill="#FFFFFF" d="M229.83,156.746c-0.012,0-0.025-0.006-0.034-0.016l-39.301-39.304c-0.013-0.009-0.019-0.021-0.016-0.037
			c0.003-0.017,0.009-0.029,0.025-0.036l42.931-23.08c0.015-0.008,0.031-0.008,0.046,0.003c0.016,0.01,0.021,0.025,0.021,0.041
			l-3.626,62.383c-0.003,0.02-0.012,0.036-0.031,0.04C229.839,156.743,229.836,156.746,229.83,156.746z M190.603,117.406
			l39.186,39.185l3.614-62.195L190.603,117.406z"/>
		<path fill="#FFFFFF" d="M233.456,94.362c-0.003,0-0.009-0.001-0.016-0.001c-0.019-0.008-0.031-0.028-0.031-0.05l1.644-34.972
			c0-0.013,0.006-0.026,0.019-0.033l55.578-43.897c0.019-0.014,0.043-0.012,0.062,0.003c0.016,0.019,0.019,0.043,0.003,0.061
			l-57.219,78.869C233.484,94.354,233.472,94.362,233.456,94.362z M235.146,59.363l-1.638,34.798l56.934-78.47L235.146,59.363z"/>
		<path fill="#FFFFFF" d="M149.729,84.417c-0.009,0-0.021-0.006-0.028-0.011c-0.016-0.011-0.021-0.031-0.019-0.051l9.623-33.873
			c0.006-0.017,0.019-0.031,0.034-0.033l58.584-13.576c0.021,0,0.046,0.008,0.056,0.026c0.006,0.021,0,0.045-0.019,0.057
			l-68.207,47.449C149.748,84.41,149.738,84.417,149.729,84.417z M159.386,50.533l-9.58,33.722l67.903-47.234L159.386,50.533z"/>
		<path fill="#FFFFFF" d="M149.729,84.417c-0.015,0-0.034-0.014-0.043-0.028c-0.009-0.022-0.003-0.047,0.016-0.059l68.207-47.449
			c0.021-0.013,0.049-0.008,0.065,0.009l17.164,22.422c0.009,0.011,0.009,0.028,0.006,0.043c-0.003,0.016-0.016,0.026-0.031,0.031
			l-85.371,25.026C149.738,84.412,149.732,84.417,149.729,84.417z M217.927,36.984l-67.934,47.258l85.03-24.927L217.927,36.984z"/>
		<path fill="#FFFFFF" d="M190.525,117.442c-0.012,0-0.021-0.005-0.031-0.009l-40.793-33.03c-0.016-0.009-0.021-0.028-0.019-0.043
			c0.003-0.017,0.016-0.032,0.034-0.037l85.371-25.026c0.021-0.003,0.037,0.003,0.053,0.02c0.009,0.016,0.009,0.039-0.003,0.053
			l-44.575,58.057C190.553,117.434,190.532,117.442,190.525,117.442z M149.828,84.389l40.691,32.941l44.457-57.903L149.828,84.389z"
			/>
		<path fill="#FFFFFF" d="M122.672,130.761c-0.003,0-0.006,0-0.009,0c-0.019-0.003-0.031-0.017-0.038-0.036L109.91,75.934
			c-0.003-0.014,0-0.031,0.012-0.042c0.009-0.012,0.028-0.017,0.043-0.012l39.772,8.442c0.016,0.003,0.028,0.012,0.034,0.028
			c0.003,0.013,0.003,0.028-0.003,0.041l-27.057,46.348C122.703,130.753,122.688,130.761,122.672,130.761z M110.019,75.983
			l12.672,54.607l26.967-46.189L110.019,75.983z"/>
		<path fill="#FFFFFF" d="M149.729,84.417c-0.003,0-0.006-0.005-0.009-0.003l-39.775-8.445c-0.019-0.001-0.031-0.02-0.034-0.037
			c-0.003-0.021,0.006-0.039,0.021-0.048l49.398-25.431c0.016-0.009,0.034-0.005,0.05,0.008c0.013,0.011,0.021,0.031,0.016,0.048
			l-9.62,33.874C149.77,84.399,149.751,84.417,149.729,84.417z M110.093,75.906l39.602,8.408l9.58-33.729L110.093,75.906z"/>
		<path fill="#FFFFFF" d="M113.118,398.602c-0.006,0-0.013,0-0.019,0l-27.671-10.773c-0.021-0.01-0.034-0.034-0.028-0.056
			l10.718-41.679c0.003-0.021,0.025-0.036,0.043-0.038h0.003c0.019,0,0.037,0.015,0.043,0.033l16.953,52.454
			c0.006,0.019,0,0.034-0.013,0.047C113.139,398.602,113.13,398.602,113.118,398.602z M85.499,387.754l27.544,10.724l-16.875-52.206
			L85.499,387.754z"/>
		<path fill="#FFFFFF" d="M86.892,431.922c-0.006,0-0.009,0-0.016-0.003c-0.019-0.003-0.031-0.021-0.031-0.04l-1.449-44.095
			c0-0.015,0.006-0.03,0.019-0.037c0.012-0.012,0.028-0.009,0.046-0.009l27.671,10.776c0.012,0.003,0.024,0.016,0.028,0.031
			c0.003,0.016,0.003,0.028-0.009,0.04l-26.226,33.317C86.92,431.916,86.904,431.922,86.892,431.922z M85.493,387.853l1.439,43.893
			l26.107-33.168L85.493,387.853z"/>
		<path fill="#FFFFFF" d="M207.398,264.595c-0.009,0-0.016-0.003-0.025-0.008c-0.012-0.008-0.019-0.021-0.021-0.033l-8.202-55.295
			c-0.003-0.022,0.006-0.039,0.025-0.05c0.016-0.009,0.037-0.008,0.049,0.006l49.886,41.196c0.013,0.009,0.022,0.025,0.016,0.043
			c-0.003,0.016-0.012,0.03-0.031,0.036l-41.68,14.101C207.407,264.592,207.401,264.595,207.398,264.595z M199.261,209.365
			l8.174,55.119l41.55-14.054L199.261,209.365z"/>
		<path fill="#FFFFFF" d="M249.082,250.493c-0.012,0-0.021-0.005-0.031-0.01l-49.883-41.196c-0.016-0.011-0.021-0.026-0.019-0.043
			c0.003-0.016,0.012-0.031,0.028-0.036l54.601-22.076c0.009-0.008,0.031-0.003,0.043,0.007c0.012,0.008,0.019,0.023,0.019,0.041
			l-4.715,63.27c0,0.019-0.009,0.034-0.025,0.039C249.094,250.493,249.088,250.493,249.082,250.493z M199.286,209.264l49.755,41.088
			l4.7-63.105L199.286,209.264z"/>
		<path fill="#FFFFFF" d="M249.082,250.493c-0.012,0-0.021-0.005-0.031-0.01c-0.013-0.012-0.019-0.026-0.016-0.042l4.715-63.27
			c0-0.017,0.012-0.036,0.031-0.04c0.016-0.008,0.037-0.003,0.05,0.015l39.326,49.15c0.009,0.011,0.013,0.028,0.006,0.041
			c-0.003,0.014-0.013,0.026-0.028,0.031l-44.042,14.123C249.091,250.493,249.088,250.493,249.082,250.493z M253.834,187.297
			l-4.703,63.084l43.911-14.079L253.834,187.297z"/>
		<path fill="#FFFFFF" d="M229.83,156.746c-0.006,0-0.009-0.003-0.016-0.005c-0.019-0.006-0.034-0.026-0.031-0.046l3.626-62.384
			c0-0.012,0.006-0.021,0.015-0.029c0.013-0.011,0.022-0.019,0.034-0.012l32.954,3.031c0.016,0,0.028,0.011,0.034,0.026
			c0.009,0.012,0.009,0.029,0,0.042l-36.577,59.355C229.861,156.735,229.845,156.746,229.83,156.746z M233.5,94.365l-3.614,62.15
			l36.444-59.132L233.5,94.365z"/>
		<path fill="#FFFFFF" d="M229.83,156.746c-0.012,0-0.025-0.006-0.031-0.016c-0.019-0.016-0.022-0.039-0.01-0.056l36.578-59.355
			c0.012-0.012,0.031-0.02,0.043-0.02c0.009,0,0.021,0.003,0.031,0.012l20.139,20.556c0.01,0.011,0.016,0.026,0.013,0.038
			c0,0.014-0.006,0.029-0.019,0.034l-56.72,38.795C229.848,156.74,229.839,156.746,229.83,156.746z M266.417,97.422l-36.432,59.113
			l56.493-38.641L266.417,97.422z"/>
		<path fill="#FFFFFF" d="M266.41,97.391c0,0-0.003,0-0.006,0l-32.951-3.029c-0.019-0.003-0.031-0.012-0.038-0.029
			c-0.009-0.014-0.006-0.031,0.003-0.043l57.222-78.869c0.012-0.02,0.04-0.026,0.059-0.016c0.019,0.011,0.031,0.033,0.024,0.056
			l-24.271,81.898C266.447,97.379,266.429,97.391,266.41,97.391z M233.543,94.276l32.83,3.019l24.184-81.601L233.543,94.276z"/>
		<path fill="#FFFFFF" d="M286.549,117.951c-0.012,0-0.025-0.005-0.034-0.016l-20.139-20.556c-0.012-0.013-0.019-0.028-0.012-0.045
			c0.003-0.016,0.015-0.028,0.031-0.034l37.663-11.167c0.016-0.006,0.038,0,0.05,0.016c0.013,0.016,0.013,0.036,0.006,0.053
			l-17.524,31.723c-0.01,0.014-0.022,0.023-0.034,0.023C286.552,117.951,286.549,117.951,286.549,117.951z M266.497,97.366
			l20.04,20.46l17.437-31.571L266.497,97.366z"/>
		<path fill="#FFFFFF" d="M266.41,97.391c-0.012,0-0.025-0.004-0.034-0.012c-0.012-0.013-0.019-0.031-0.012-0.045l24.271-81.901
			c0.003-0.021,0.022-0.033,0.043-0.033c0.028,0,0.041,0.017,0.046,0.037l13.392,70.732c0.003,0.025-0.009,0.048-0.031,0.056
			l-37.664,11.163C266.417,97.391,266.413,97.391,266.41,97.391z M290.669,15.644l-24.19,81.633l37.539-11.13L290.669,15.644z"/>
		<path fill="#FFFFFF" d="M193.255,459.866c-0.006,0-0.016-0.003-0.022-0.007l-42.198-22.267c-0.019-0.006-0.025-0.021-0.025-0.037
			l-4.495-73.195c-0.003-0.024,0.016-0.05,0.043-0.05h0.003c0.025,0,0.043,0.019,0.046,0.044l4.492,73.17l42.177,22.252
			c0.022,0.012,0.031,0.04,0.019,0.064C193.286,459.856,193.271,459.866,193.255,459.866z"/>
		<path fill="#FFFFFF" d="M202.481,492.29c-0.012,0-0.025-0.007-0.034-0.016l-51.428-54.691c-0.016-0.019-0.016-0.043-0.003-0.062
			c0.012-0.016,0.037-0.021,0.059-0.013l42.202,22.268c0.009,0.009,0.019,0.019,0.022,0.03l9.229,32.421
			c0.006,0.021-0.003,0.044-0.022,0.056C202.5,492.287,202.487,492.29,202.481,492.29z M151.28,437.723l51.104,54.35l-9.17-32.222
			L151.28,437.723z"/>
		<path fill="#FFFFFF" d="M202.481,492.29c-0.006,0-0.012-0.003-0.019-0.007l-84.719-37.253c-0.016-0.007-0.028-0.022-0.028-0.041
			c0-0.021,0.009-0.037,0.025-0.043l33.295-17.438c0.016-0.006,0.04-0.003,0.056,0.013l51.424,54.688
			c0.016,0.019,0.019,0.043,0.003,0.062C202.512,492.283,202.497,492.29,202.481,492.29z M117.87,454.983l84.422,37.123
			l-51.248-54.498L117.87,454.983z"/>
		<path fill="#FFFFFF" d="M117.762,455.03c-0.013,0-0.022-0.004-0.031-0.01c-0.016-0.013-0.019-0.037-0.009-0.053l19.658-40.133
			c0.006-0.019,0.028-0.024,0.041-0.024c0.016,0,0.031,0.006,0.04,0.021l13.634,22.695c0.006,0.01,0.009,0.025,0.006,0.037
			c-0.003,0.013-0.012,0.022-0.025,0.028l-33.292,17.434C117.777,455.033,117.768,455.03,117.762,455.03z M137.423,414.953
			l-19.556,39.928l33.122-17.347L137.423,414.953z"/>
		<path fill="#FFFFFF" d="M151.054,437.599c-0.012,0-0.031-0.009-0.037-0.021l-13.637-22.698c-0.006-0.01-0.006-0.021-0.006-0.031
			l9.142-50.5c0.003-0.024,0.031-0.04,0.047-0.037c0.025,0,0.043,0.021,0.046,0.044l4.492,73.191
			c0.003,0.025-0.009,0.044-0.031,0.05C151.066,437.599,151.06,437.599,151.054,437.599z M137.469,414.845l13.529,22.519
			l-4.461-72.621L137.469,414.845z"/>
		<path fill="#FFFFFF" d="M253.797,187.223c-0.016,0-0.031-0.008-0.037-0.017l-23.967-30.48c-0.009-0.014-0.012-0.028-0.006-0.043
			c0.006-0.016,0.019-0.028,0.034-0.031l86.621-16.312c0.022-0.008,0.043,0.008,0.05,0.026c0.009,0.02,0.003,0.04-0.012,0.056
			l-62.657,46.792C253.815,187.22,253.806,187.223,253.797,187.223z M229.914,156.728l23.89,30.384l62.456-46.646L229.914,156.728z"
			/>
		<path fill="#FFFFFF" d="M229.83,156.746c-0.019,0-0.037-0.014-0.043-0.031c-0.009-0.02-0.003-0.043,0.016-0.057l56.72-38.794
			c0.016-0.011,0.037-0.009,0.056,0.003l29.902,22.48c0.012,0.011,0.019,0.031,0.015,0.048c-0.003,0.019-0.019,0.031-0.037,0.034
			l-86.621,16.314C229.836,156.743,229.833,156.746,229.83,156.746z M286.546,117.96l-56.506,38.651l86.295-16.254L286.546,117.96z"
			/>
		<path fill="#FFFFFF" d="M253.797,187.223c-0.019,0-0.037-0.012-0.043-0.028c-0.009-0.021-0.003-0.043,0.012-0.056l62.654-46.792
			c0.019-0.013,0.04-0.013,0.056-0.003c0.016,0.014,0.022,0.034,0.019,0.051l-10.997,38.823c-0.006,0.019-0.019,0.031-0.037,0.036
			l-51.657,7.966C253.8,187.223,253.797,187.223,253.797,187.223z M316.367,140.501l-62.396,46.599l51.446-7.937L316.367,140.501z"
			/>
		<path fill="#FFFFFF" d="M316.448,140.43c-0.009,0-0.019-0.004-0.028-0.011l-29.898-22.479c-0.016-0.009-0.022-0.022-0.019-0.038
			c0-0.015,0.009-0.031,0.021-0.039l57.97-36.495c0.016-0.013,0.041-0.009,0.056,0.004c0.015,0.014,0.019,0.036,0.009,0.055
			l-28.068,58.975c-0.006,0.013-0.019,0.023-0.031,0.026C316.457,140.43,316.454,140.43,316.448,140.43z M286.63,117.907
			l29.802,22.404l27.975-58.776L286.63,117.907z"/>
		<path fill="#FFFFFF" d="M305.454,179.254c-0.009,0-0.019-0.003-0.025-0.008c-0.019-0.009-0.028-0.033-0.021-0.053l10.997-38.824
			c0.003-0.019,0.019-0.031,0.041-0.032l37.893-4.469c0.003-0.001,0.006-0.001,0.006-0.001c0.019,0,0.034,0.012,0.043,0.028
			c0.006,0.02,0,0.041-0.013,0.056l-48.89,43.291C305.476,179.249,305.463,179.254,305.454,179.254z M316.485,140.426l-10.944,38.64
			l48.66-43.087L316.485,140.426z"/>
		<path fill="#FFFFFF" d="M316.448,140.43c-0.012,0-0.028-0.008-0.037-0.021c-0.009-0.011-0.013-0.03-0.003-0.043l28.068-58.977
			c0.009-0.02,0.028-0.033,0.05-0.028c0.021,0.003,0.034,0.017,0.04,0.039l9.822,54.508c0.006,0.009,0,0.023-0.006,0.036
			c-0.006,0.009-0.019,0.016-0.031,0.016l-37.896,4.472C316.454,140.43,316.451,140.43,316.448,140.43z M344.498,81.56
			l-27.969,58.767l37.759-4.453L344.498,81.56z"/>
		<path fill="#FFFFFF" d="M171.537,157.52c-0.009,0-0.016-0.001-0.021-0.004l-48.865-26.759c-0.012-0.008-0.019-0.019-0.025-0.028
			c-0.003-0.013,0-0.026,0.006-0.036l27.057-46.351c0.009-0.012,0.028-0.026,0.046-0.021c0.019,0.004,0.034,0.017,0.04,0.034
			l21.805,73.108c0.006,0.017,0,0.036-0.016,0.048C171.559,157.519,171.546,157.52,171.537,157.52z M122.737,130.697l48.722,26.682
			l-21.743-72.894L122.737,130.697z"/>
		<path fill="#FFFFFF" d="M171.537,157.52c-0.003,0-0.003,0-0.003,0c-0.022-0.001-0.037-0.014-0.043-0.033l-21.808-73.106
			c-0.006-0.019,0.003-0.042,0.019-0.051c0.019-0.012,0.041-0.011,0.056,0l40.796,33.028c0.019,0.016,0.022,0.039,0.016,0.058
			l-18.988,40.078C171.571,157.511,171.556,157.52,171.537,157.52z M149.816,84.5l21.73,72.845l18.92-39.936L149.816,84.5z"/>
		<path fill="#FFFFFF" d="M199.196,209.299c-0.019,0-0.034-0.011-0.04-0.026l-27.659-51.774c-0.01-0.016-0.01-0.031-0.003-0.043
			l18.988-40.078c0.013-0.022,0.022-0.028,0.053-0.028c0.019,0.005,0.034,0.022,0.037,0.042l8.671,91.854
			c0.003,0.023-0.013,0.043-0.031,0.051C199.205,209.296,199.199,209.299,199.196,209.299z M171.59,157.472l27.538,51.553
			l-8.633-91.456L171.59,157.472z"/>
		<path fill="#FFFFFF" d="M110.465,202.25c-0.009,0-0.019-0.003-0.025-0.008c-0.019-0.008-0.025-0.029-0.025-0.046l12.21-71.488
			c0.003-0.015,0.013-0.028,0.025-0.036c0.016-0.006,0.031-0.008,0.043,0.001l48.865,26.761c0.012,0.008,0.021,0.022,0.025,0.038
			c0,0.015-0.006,0.031-0.019,0.04l-61.075,44.73C110.484,202.247,110.472,202.25,110.465,202.25z M122.706,130.786l-12.179,71.312
			l60.923-44.618L122.706,130.786z"/>
		<path fill="#FFFFFF" d="M33.873,364.205c-0.021,0-0.04-0.013-0.046-0.034c-0.006-0.019,0.003-0.043,0.022-0.053l36.32-20.858
			c0.012-0.008,0.037-0.008,0.049,0.006c0.016,0.013,0.022,0.032,0.016,0.05l-7.004,19.016c-0.006,0.019-0.022,0.031-0.041,0.034
			L33.873,364.205L33.873,364.205z M70.1,343.403l-36.031,20.693l29.083-1.824L70.1,343.403z"/>
		<path fill="#FFFFFF" d="M33.873,364.205c-0.012,0-0.024-0.006-0.031-0.013c-0.016-0.012-0.022-0.037-0.012-0.056l31.139-67.971
			c0.009-0.021,0.031-0.028,0.049-0.028c0.022,0.005,0.038,0.021,0.041,0.042l5.178,47.115c0,0.019-0.009,0.036-0.025,0.047
			l-36.317,20.854C33.889,364.202,33.879,364.205,33.873,364.205z M64.985,296.358l-31.009,67.686l36.165-20.769L64.985,296.358z"/>
		<path fill="#FFFFFF" d="M63.186,362.365c-0.009,0-0.022-0.006-0.031-0.012c-0.016-0.013-0.019-0.034-0.012-0.053l7.004-19.018
			c0.006-0.018,0.022-0.028,0.041-0.028c0.003,0,0.006,0,0.006,0l25.974,2.803c0.022,0.003,0.037,0.019,0.041,0.039
			c0.006,0.02-0.006,0.038-0.025,0.051l-32.976,16.212C63.201,362.362,63.191,362.365,63.186,362.365z M70.221,343.35l-6.952,18.876
			l32.728-16.092L70.221,343.35z"/>
		<path fill="#FFFFFF" d="M96.165,346.152c-0.003,0-0.006,0-0.006-0.003l-25.974-2.803c-0.022-0.003-0.038-0.021-0.041-0.041
			l-5.178-47.115c-0.003-0.023,0.01-0.043,0.031-0.051s0.043,0,0.056,0.019l31.149,49.92c0.009,0.016,0.009,0.035,0,0.051
			C96.192,346.142,96.177,346.152,96.165,346.152z M70.23,343.258l25.841,2.789l-30.99-49.665L70.23,343.258z"/>
		<path fill="#FFFFFF" d="M262.126,496.515L262.126,496.515l-59.648-4.225c-0.019-0.003-0.034-0.016-0.041-0.034l-9.229-32.424
			c-0.003-0.019,0.003-0.04,0.015-0.05c0.016-0.009,0.034-0.013,0.053-0.006l68.871,36.648c0.021,0.01,0.031,0.034,0.025,0.053
			C262.167,496.499,262.148,496.515,262.126,496.515z M202.519,492.199l59.394,4.204l-68.583-36.491L202.519,492.199z"/>
		<path fill="#FFFFFF" d="M262.126,496.515L262.126,496.515l-59.648-4.225c-0.019-0.003-0.034-0.016-0.041-0.034l-9.229-32.424
			c-0.003-0.019,0.003-0.04,0.015-0.05c0.016-0.009,0.034-0.013,0.053-0.006l68.871,36.648c0.021,0.01,0.031,0.034,0.025,0.053
			C262.167,496.499,262.148,496.515,262.126,496.515z M202.519,492.199l59.394,4.204l-68.583-36.491L202.519,492.199z"/>
		<path fill="#FFFFFF" d="M262.126,496.515L262.126,496.515l-59.648-4.225c-0.025-0.003-0.043-0.022-0.041-0.047
			c0-0.028,0.019-0.047,0.043-0.047l83.057-4.554c0.019,0.003,0.046,0.013,0.05,0.034c0.006,0.021-0.006,0.047-0.031,0.053
			l-23.415,8.779C262.139,496.512,262.132,496.515,262.126,496.515z M203.226,492.249l58.895,4.167l23.12-8.665L203.226,492.249z"/>
		<path fill="#FFFFFF" d="M262.126,496.515c-0.003,0-0.006-0.003-0.012-0.003l-144.365-41.479c-0.025-0.01-0.04-0.034-0.031-0.06
			c0.006-0.021,0.025-0.034,0.043-0.034c0.003,0,0.009,0,0.012,0l144.368,41.479c0.025,0.009,0.037,0.034,0.031,0.059
			C262.167,496.499,262.148,496.515,262.126,496.515z"/>
		<path fill="#FFFFFF" d="M147.021,230.931c-0.012,0-0.025-0.004-0.031-0.012c-0.012-0.011-0.019-0.028-0.015-0.046l8.475-33.989
			c0.003-0.014,0.013-0.023,0.022-0.031c0.012-0.004,0.025-0.008,0.037-0.004l43.7,12.357c0.019,0.008,0.031,0.021,0.034,0.043
			c0,0.02-0.013,0.039-0.028,0.046l-52.175,21.631C147.033,230.928,147.027,230.931,147.021,230.931z M155.527,196.951
			l-8.438,33.853l51.964-21.544L155.527,196.951z"/>
		<path fill="#FFFFFF" d="M199.196,209.299c-0.003,0-0.009-0.003-0.012-0.003l-43.7-12.357c-0.015-0.006-0.024-0.014-0.031-0.026
			c-0.006-0.009-0.006-0.026,0-0.037l16.041-39.419c0.006-0.017,0.028-0.03,0.043-0.031c0.016,0,0.034,0.011,0.041,0.026
			l27.659,51.776c0.009,0.017,0.009,0.038-0.006,0.051C199.224,209.292,199.211,209.299,199.196,209.299z M155.558,196.861
			l43.545,12.315l-27.56-51.593L155.558,196.861z"/>
		<path fill="#FFFFFF" d="M147.021,230.931c-0.009,0-0.022-0.004-0.031-0.011l-36.556-28.681c-0.012-0.01-0.021-0.03-0.015-0.048
			c0.003-0.017,0.021-0.033,0.04-0.036l45.031-5.308c0,0,0.003,0,0.006,0c0.012,0,0.025,0.003,0.034,0.014
			c0.009,0.014,0.016,0.028,0.009,0.043l-8.475,33.99c-0.003,0.016-0.016,0.025-0.031,0.033
			C147.03,230.928,147.024,230.931,147.021,230.931z M110.583,202.237l36.41,28.563l8.441-33.852L110.583,202.237z"/>
		<path fill="#FFFFFF" d="M110.465,202.25c-0.022,0-0.037-0.011-0.043-0.028c-0.009-0.021-0.003-0.043,0.016-0.056l61.072-44.729
			c0.016-0.014,0.041-0.01,0.056,0c0.016,0.015,0.022,0.036,0.016,0.056l-16.041,39.419c-0.006,0.014-0.022,0.028-0.041,0.028
			l-45.031,5.311C110.465,202.25,110.465,202.25,110.465,202.25z M171.432,157.61l-60.799,44.528l44.829-5.289L171.432,157.61z"/>
		<path fill="#FFFFFF" d="M65.273,380.048c-0.01,0-0.019-0.003-0.025-0.006l-31.397-15.843c-0.019-0.01-0.028-0.031-0.025-0.05
			c0.003-0.021,0.022-0.037,0.043-0.04l29.312-1.84c0,0,0,0,0.003,0c0.021,0,0.043,0.019,0.046,0.04l2.084,17.686
			c0.003,0.016-0.006,0.034-0.019,0.044C65.289,380.045,65.279,380.048,65.273,380.048z M34.047,364.196l31.167,15.725
			l-2.069-17.552L34.047,364.196z"/>
		<path fill="#FFFFFF" d="M86.892,431.922c-0.016,0-0.028-0.006-0.037-0.019l-53.019-67.717c-0.012-0.019-0.012-0.043,0-0.059
			c0.016-0.019,0.041-0.019,0.056-0.013l31.4,15.843c0.009,0.006,0.019,0.016,0.021,0.021l21.619,51.881
			c0.012,0.019,0.003,0.043-0.019,0.056C86.908,431.919,86.898,431.922,86.892,431.922z M34.038,364.292l52.678,67.286
			l-21.479-51.543L34.038,364.292z"/>
		<path fill="#FFFFFF" d="M65.273,380.048c-0.006,0-0.013,0-0.019-0.003c-0.015-0.006-0.028-0.021-0.031-0.037l-2.085-17.683
			c-0.003-0.021,0.006-0.043,0.025-0.05l32.979-16.212c0.016-0.011,0.043-0.008,0.059,0.013c0.012,0.018,0.012,0.044-0.006,0.061
			l-30.891,33.896C65.298,380.042,65.286,380.048,65.273,380.048z M63.235,362.344l2.069,17.552l30.659-33.643L63.235,362.344z"/>
		<path fill="#FFFFFF" d="M85.443,387.831c-0.006,0-0.013-0.003-0.016-0.003l-20.173-7.783c-0.015-0.006-0.025-0.019-0.028-0.034
			s0-0.031,0.009-0.044l30.891-33.894c0.016-0.018,0.038-0.021,0.059-0.01c0.019,0.008,0.028,0.033,0.022,0.053l-10.721,41.678
			c0,0.016-0.012,0.024-0.022,0.031C85.459,387.828,85.45,387.831,85.443,387.831z M65.351,379.979l20.062,7.743l10.659-41.448
			L65.351,379.979z"/>
		<path fill="#FFFFFF" d="M86.892,431.922c-0.019,0-0.037-0.009-0.043-0.027L65.229,380.02c-0.009-0.019-0.006-0.04,0.006-0.053
			c0.016-0.016,0.034-0.016,0.053-0.012l20.173,7.783c0.016,0.009,0.028,0.027,0.028,0.043l1.449,44.091
			c0,0.025-0.016,0.044-0.037,0.05C86.895,431.922,86.895,431.922,86.892,431.922z M65.354,380.082l21.482,51.542l-1.439-43.809
			L65.354,380.082z"/>
	</g>
	<g>
		<path fill="#FFF701" d="M413.167,337.243c-0.009,0-0.022-0.007-0.031-0.015c-0.013-0.009-0.019-0.027-0.016-0.041l10.38-49.874
			c0.003-0.015,0.015-0.027,0.034-0.032c0.013-0.006,0.031-0.003,0.043,0.008l39.118,33.466c0.013,0.01,0.019,0.028,0.019,0.044
			c-0.006,0.017-0.019,0.029-0.034,0.035l-49.498,16.406C413.176,337.243,413.173,337.243,413.167,337.243z M423.577,287.41
			l-10.349,49.715l49.343-16.354L423.577,287.41z"/>
		<path fill="#FFF701" d="M146.512,364.221c-0.006,0-0.016-0.003-0.025-0.006c-0.019-0.013-0.025-0.034-0.019-0.053l18.194-63.154
			c0.003-0.014,0.015-0.024,0.028-0.029c0.015-0.006,0.031-0.006,0.043,0.005l30.695,19.86c0.013,0.006,0.019,0.019,0.022,0.035
			c0,0.013-0.006,0.028-0.019,0.039l-48.89,43.29C146.537,364.218,146.524,364.221,146.512,364.221z M164.734,301.095
			l-18.132,62.937l48.726-43.145L164.734,301.095z"/>
		<path fill="#FFF701" d="M349.061,228.758c-0.016,0-0.034-0.011-0.04-0.028l-12.48-29.534c-0.006-0.011-0.006-0.021-0.003-0.031
			l17.713-63.445c0.006-0.021,0.025-0.036,0.043-0.036c0.003,0,0.006,0.001,0.006,0.001c0.025,0.003,0.043,0.023,0.04,0.048
			l-5.233,92.981c0,0.02-0.019,0.041-0.038,0.043C349.067,228.758,349.063,228.758,349.061,228.758z M336.63,199.174l12.396,29.333
			l5.199-92.351L336.63,199.174z"/>
		<path fill="#FFF701" d="M349.061,228.758c-0.003,0-0.006,0-0.009,0c-0.025-0.008-0.037-0.025-0.037-0.048l5.233-92.982
			c0.003-0.023,0.021-0.042,0.046-0.043c0.019-0.003,0.043,0.014,0.046,0.041l9.775,60.934c0.003,0.008,0,0.019-0.003,0.026
			l-15.008,32.048C349.095,228.747,349.079,228.758,349.061,228.758z M354.315,136.163l-5.193,92.311l14.9-31.815L354.315,136.163z"
			/>
		<path fill="#FFF701" d="M413.167,337.243c-0.019,0-0.031-0.013-0.041-0.026l-22.772-39.308c-0.006-0.014-0.006-0.029-0.003-0.042
			c0.003-0.013,0.016-0.021,0.028-0.027l33.156-10.559c0.013-0.008,0.031-0.003,0.043,0.008c0.013,0.013,0.019,0.028,0.016,0.045
			l-10.38,49.87c-0.003,0.021-0.019,0.032-0.04,0.039C413.173,337.243,413.169,337.243,413.167,337.243z M390.462,297.911
			l22.683,39.156l10.34-49.675L390.462,297.911z"/>
		<path fill="#FFF701" d="M462.667,320.836c-0.006,0-0.009-0.002-0.016-0.002c-0.019-0.006-0.031-0.026-0.031-0.047l4.523-98.26
			c0-0.021,0.015-0.039,0.037-0.042c0.028-0.009,0.037,0.003,0.049,0.019l28.232,45.456c0.01,0.016,0.01,0.036,0,0.048
			l-32.755,52.805C462.695,320.828,462.683,320.836,462.667,320.836z M467.23,222.682l-4.51,97.93l32.65-52.628L467.23,222.682z"/>
		<path fill="#FFF701" d="M293.551,236.372c-0.019,0-0.034-0.011-0.043-0.026c-0.009-0.021-0.003-0.043,0.013-0.056l43.033-37.148
			c0.009-0.009,0.022-0.013,0.041-0.009c0.015,0.001,0.028,0.012,0.031,0.028l12.48,29.534c0.006,0.012,0.003,0.028-0.003,0.04
			c-0.006,0.013-0.019,0.021-0.034,0.023l-55.51,7.614C293.554,236.372,293.554,236.372,293.551,236.372z M336.565,199.253
			L293.7,236.257l55.296-7.583L336.565,199.253z"/>
		<path fill="#FFF701" d="M193.255,461.28c-0.012,0-0.028-0.006-0.037-0.015l-36.916-42.556c-0.013-0.013-0.013-0.031-0.009-0.05
			c0.006-0.013,0.021-0.024,0.04-0.027l40.446-4.769c0.003-0.003,0.006-0.003,0.006-0.003c0.012,0,0.025,0.006,0.034,0.016
			c0.009,0.006,0.015,0.021,0.012,0.034l-3.53,47.326c-0.003,0.019-0.016,0.034-0.034,0.04
			C193.265,461.277,193.258,461.28,193.255,461.28z M156.433,418.716l36.786,42.403l3.518-47.155L156.433,418.716z"/>
		<path fill="#FFF701" d="M195.405,320.927c-0.009,0-0.019,0-0.028-0.008l-30.695-19.859c-0.013-0.008-0.019-0.021-0.022-0.036
			c0-0.016,0.006-0.027,0.019-0.037l43.027-37.258c0.016-0.012,0.037-0.015,0.056-0.004c0.019,0.009,0.025,0.029,0.025,0.048
			l-12.334,57.12c-0.006,0.016-0.016,0.027-0.028,0.034C195.417,320.926,195.411,320.927,195.405,320.927z M164.784,301.016
			l30.587,19.791l12.291-56.918L164.784,301.016z"/>
		<path fill="#FFF701" d="M495.423,268.031c-0.016,0-0.031-0.008-0.037-0.02l-28.236-45.457c-0.006-0.014-0.006-0.033,0-0.047
			l18.774-34.738c0.01-0.016,0.031-0.028,0.05-0.021c0.022,0.004,0.037,0.02,0.037,0.04l9.459,80.192
			c0.003,0.021-0.01,0.041-0.028,0.048C495.436,268.031,495.43,268.031,495.423,268.031z M467.243,222.529l28.111,45.252
			l-9.418-79.837L467.243,222.529z"/>
		<path fill="#FFF701" d="M473.869,353.443c-0.003,0-0.006,0-0.012-0.003l-60.703-16.2c-0.019-0.005-0.034-0.023-0.034-0.044
			s0.012-0.037,0.034-0.045l49.498-16.407c0.019-0.01,0.05,0.005,0.056,0.031l11.205,32.606c0.006,0.019,0.003,0.034-0.009,0.047
			C473.894,353.44,473.882,353.443,473.869,353.443z M413.328,337.191l60.47,16.138l-11.162-32.482L413.328,337.191z"/>
		<path fill="#FFF701" d="M473.869,353.443c-0.019,0-0.037-0.012-0.043-0.03l-11.205-32.606c-0.003-0.016,0-0.03,0.006-0.042
			l32.759-52.805c0.013-0.02,0.037-0.025,0.056-0.017c0.021,0.009,0.034,0.03,0.028,0.053l-21.554,85.415
			C473.91,353.429,473.888,353.44,473.869,353.443z M462.717,320.795l11.146,32.438l21.441-84.967L462.717,320.795z"/>
		<path fill="#FFF701" d="M242.164,480.529c-0.006,0-0.009,0-0.019-0.003l-48.908-19.249c-0.019-0.009-0.031-0.027-0.028-0.046
			c0-0.022,0.015-0.038,0.034-0.041l72.503-20.489c0.019-0.006,0.038,0,0.047,0.016c0.012,0.016,0.012,0.037,0.003,0.053
			l-23.592,39.735C242.195,480.521,242.179,480.529,242.164,480.529z M193.401,461.24l48.744,19.184l23.514-39.599L193.401,461.24z"
			/>
		<path fill="#FFF701" d="M195.405,320.927c-0.013,0-0.028-0.004-0.034-0.012c-0.013-0.013-0.016-0.028-0.013-0.044l12.334-57.118
			c0.003-0.017,0.019-0.032,0.034-0.036c0.019-0.004,0.037,0.003,0.046,0.016l39.326,49.152c0.009,0.013,0.013,0.029,0.006,0.045
			s-0.021,0.025-0.034,0.028l-51.66,7.969C195.408,320.927,195.408,320.927,195.405,320.927z M207.761,263.868l-12.297,56.958
			l51.511-7.947L207.761,263.868z"/>
		<path fill="#FFF701" d="M353.838,269.253c-0.009,0-0.016-0.004-0.021-0.007c-0.013-0.005-0.025-0.017-0.025-0.033l-4.777-40.496
			c0-0.019,0.006-0.033,0.019-0.043c0.016-0.011,0.034-0.011,0.05-0.004l39.828,19.315c0.016,0.008,0.025,0.023,0.025,0.039
			c0.003,0.017-0.006,0.033-0.021,0.043l-35.051,21.179C353.854,269.25,353.847,269.253,353.838,269.253z M349.116,228.79
			l4.759,40.339l34.918-21.098L349.116,228.79z"/>
		<path fill="#FFF701" d="M390.394,297.931c-0.009,0-0.019-0.001-0.028-0.008c-0.012-0.009-0.019-0.021-0.019-0.037l-1.501-49.857
			c-0.003-0.02,0.009-0.039,0.028-0.046c0.016-0.006,0.037-0.003,0.053,0.014l34.657,39.298c0.009,0.012,0.012,0.027,0.009,0.043
			s-0.016,0.026-0.031,0.029l-33.152,10.562C390.403,297.931,390.396,297.931,390.394,297.931z M388.942,248.152l1.499,49.67
			l33.025-10.521L388.942,248.152z"/>
		<path fill="#FFF701" d="M388.889,248.073c-0.006,0-0.012-0.001-0.019-0.005l-39.832-19.313c-0.022-0.013-0.031-0.041-0.019-0.064
			l15.008-32.045c0.009-0.017,0.025-0.028,0.041-0.028l0,0c0.019,0,0.034,0.011,0.043,0.028l24.82,51.359
			c0.009,0.019,0.006,0.039-0.009,0.054C388.914,248.068,388.901,248.073,388.889,248.073z M349.123,228.689l39.667,19.235
			l-24.718-51.151L349.123,228.689z"/>
		<path fill="#FFF701" d="M390.394,297.931c-0.009,0-0.021-0.001-0.028-0.009l-36.556-28.68c-0.016-0.009-0.019-0.025-0.019-0.04
			c0-0.016,0.006-0.028,0.021-0.036l35.054-21.181c0.01-0.008,0.031-0.009,0.047,0c0.012,0.008,0.021,0.023,0.021,0.041
			l1.505,49.857c0,0.019-0.01,0.036-0.025,0.043C390.409,297.93,390.4,297.931,390.394,297.931z M353.918,269.21l36.425,28.577
			l-1.498-49.68L353.918,269.21z"/>
		<path fill="#FFF701" d="M465.301,206.539c-0.006,0-0.016-0.001-0.022-0.004c-0.016-0.008-0.028-0.025-0.024-0.045l1.684-70.561
			c0-0.023,0.019-0.041,0.038-0.043c0.028,0,0.046,0.008,0.053,0.031l18.981,51.862c0.007,0.019,0,0.039-0.012,0.051l-20.667,18.698
			C465.323,206.534,465.311,206.539,465.301,206.539z M467.026,136.176l-1.675,70.209l20.562-18.605L467.026,136.176z"/>
		<path fill="#FFF701" d="M467.19,222.577c0,0-0.006-0.001-0.009-0.001c-0.019-0.003-0.034-0.02-0.037-0.041l-1.889-16.038
			c-0.003-0.015,0.003-0.028,0.015-0.039l20.664-18.701c0.021-0.013,0.047-0.016,0.062,0c0.015,0.012,0.021,0.039,0.012,0.057
			l-18.777,34.738C467.225,222.566,467.209,222.577,467.19,222.577z M465.348,206.509l1.874,15.871l18.576-34.372L465.348,206.509z"
			/>
		<path fill="#FFF701" d="M387.741,101.576c-0.009,0-0.019-0.003-0.025-0.006l-24.305-16.3c-0.021-0.011-0.028-0.037-0.016-0.059
			l19.658-40.129c0.01-0.02,0.034-0.029,0.05-0.028c0.022,0.006,0.037,0.023,0.037,0.043l4.644,56.43
			c0.003,0.017-0.006,0.033-0.021,0.043C387.757,101.574,387.748,101.576,387.741,101.576z M363.495,85.217l24.19,16.221
			l-4.622-56.166L363.495,85.217z"/>
		<path fill="#FFF701" d="M390.902,424.21c-0.009,0-0.019,0-0.025-0.006c-0.019-0.013-0.025-0.034-0.021-0.05l22.267-86.971
			c0-0.012,0.009-0.022,0.021-0.027c0.01-0.005,0.022-0.011,0.034-0.005l60.703,16.202c0.019,0.004,0.031,0.019,0.034,0.031
			c0.003,0.019-0.003,0.037-0.016,0.047l-82.97,70.766C390.924,424.207,390.912,424.21,390.902,424.21z M413.201,337.252
			l-22.218,86.778l82.787-70.611L413.201,337.252z"/>
		<path fill="#FFF701" d="M390.902,424.21c-0.019,0-0.034-0.009-0.043-0.024c-0.009-0.022-0.003-0.044,0.012-0.057l82.967-70.766
			c0.019-0.019,0.043-0.016,0.062,0s0.021,0.04,0.009,0.059l-38.06,59.124c-0.006,0.006-0.016,0.016-0.025,0.016l-44.913,11.648
			C390.909,424.21,390.905,424.21,390.902,424.21z M473.658,353.64l-82.573,70.428l44.696-11.59L473.658,353.64z"/>
		<path fill="#FFF701" d="M404.84,436.327c-0.012,0-0.025-0.007-0.031-0.013l-13.938-12.117c-0.015-0.012-0.019-0.027-0.015-0.043
			c0.003-0.019,0.019-0.031,0.034-0.037l44.91-11.646c0.025-0.007,0.043,0.006,0.053,0.024s0.003,0.047-0.016,0.06l-30.972,23.759
			C404.859,436.324,404.85,436.327,404.84,436.327z M390.999,424.186l13.842,12.033l30.761-23.599L390.999,424.186z"/>
		<path fill="#FFF701" d="M301.663,290.885c-0.016,0-0.031-0.008-0.037-0.018c-0.013-0.019-0.013-0.042,0-0.059l47.397-62.124
			c0.012-0.015,0.031-0.023,0.05-0.019c0.019,0.005,0.031,0.023,0.034,0.041l4.777,40.494c0,0.021-0.009,0.041-0.028,0.048
			l-52.175,21.631C301.675,290.881,301.669,290.885,301.663,290.885z M349.026,228.829l-47.221,61.897l51.979-21.549
			L349.026,228.829z"/>
		<path fill="#FFF701" d="M301.663,290.885c-0.006,0-0.006,0-0.013-0.004c-0.019-0.001-0.031-0.017-0.034-0.037l-8.112-54.511
			c0-0.012,0-0.024,0.009-0.036c0.006-0.009,0.019-0.015,0.031-0.017l55.51-7.614c0.019-0.004,0.037,0.005,0.046,0.023
			c0.009,0.016,0.009,0.036-0.003,0.051L301.7,290.867C301.688,290.877,301.675,290.885,301.663,290.885z M293.604,236.366
			l8.087,54.356l47.264-61.948L293.604,236.366z"/>
		<path fill="#FFF701" d="M310.33,382.737c-0.012,0-0.024-0.003-0.031-0.013l-39.304-39.303c-0.016-0.012-0.019-0.037-0.009-0.056
			l30.637-52.553c0.009-0.018,0.041-0.025,0.05-0.021c0.019,0.003,0.034,0.019,0.034,0.04l8.67,91.854
			c0.003,0.019-0.009,0.037-0.028,0.047C310.343,382.737,310.336,382.737,310.33,382.737z M271.085,343.385l39.187,39.182
			l-8.643-91.58L271.085,343.385z"/>
		<path fill="#FFF701" d="M271.026,343.438c-0.013,0-0.028-0.008-0.038-0.017l-23.964-30.48c-0.009-0.011-0.009-0.026-0.009-0.042
			c0.006-0.012,0.016-0.024,0.031-0.029l54.598-22.074c0.015-0.007,0.04-0.002,0.053,0.014c0.012,0.016,0.015,0.035,0.003,0.053
			l-30.634,52.552c-0.006,0.016-0.021,0.021-0.037,0.024H271.026z M247.137,312.933l23.883,30.377l30.531-52.38L247.137,312.933z"/>
		<path fill="#FFF701" d="M364.069,196.712c-0.003,0-0.003,0-0.009-0.003c-0.019-0.001-0.031-0.017-0.037-0.037l-9.775-60.933
			c-0.003-0.023,0.009-0.043,0.028-0.051c0.019-0.011,0.043-0.003,0.056,0.016l25.574,35.804c0.012,0.015,0.012,0.036,0.003,0.054
			l-15.799,25.127C364.1,196.705,364.084,196.712,364.069,196.712z M354.372,135.92l9.725,60.614l15.715-24.999L354.372,135.92z"/>
		<path fill="#FFF701" d="M443.177,241.67c-0.013,0-0.025-0.003-0.034-0.011c-0.016-0.016-0.019-0.041-0.006-0.061l22.125-35.13
			c0.013-0.021,0.041-0.026,0.05-0.023c0.019,0.005,0.034,0.023,0.034,0.041l1.892,16.038c0.003,0.016-0.006,0.033-0.016,0.043
			l-24.017,19.092C443.195,241.667,443.183,241.67,443.177,241.67z M465.27,206.628l-21.91,34.791l23.781-18.911L465.27,206.628z"/>
		<path fill="#FFF701" d="M462.667,320.836c-0.022,0-0.041-0.016-0.046-0.036l-19.491-79.165c-0.006-0.019,0-0.036,0.016-0.046
			l24.017-19.095c0.015-0.01,0.034-0.013,0.049-0.005c0.019,0.008,0.025,0.023,0.025,0.042l-4.523,98.261
			c-0.003,0.024-0.019,0.043-0.043,0.043C462.67,320.836,462.667,320.836,462.667,320.836z M443.227,241.643l19.41,78.822
			l4.504-97.834L443.227,241.643z"/>
		<path fill="#FFF701" d="M462.667,320.836c-0.012,0-0.022-0.005-0.031-0.01l-39.121-33.466c-0.015-0.014-0.019-0.036-0.012-0.055
			l19.63-45.699c0.006-0.019,0.021-0.028,0.043-0.028h0.003c0.019,0,0.034,0.015,0.041,0.036l19.491,79.162
			c0.006,0.022-0.003,0.042-0.022,0.052C462.683,320.834,462.674,320.836,462.667,320.836z M423.602,287.311l38.985,33.347
			l-19.423-78.886L423.602,287.311z"/>
		<path fill="#FFF701" d="M423.546,287.37c-0.013,0-0.025-0.005-0.034-0.016l-34.657-39.298c-0.009-0.012-0.016-0.031-0.009-0.045
			c0.006-0.019,0.021-0.028,0.04-0.033l54.285-6.399c0.019-0.008,0.031,0.004,0.041,0.017c0.009,0.013,0.016,0.031,0.006,0.047
			l-19.627,45.699c-0.006,0.016-0.019,0.024-0.037,0.028C423.553,287.37,423.549,287.37,423.546,287.37z M388.982,248.061
			l34.551,39.177l19.565-45.559L388.982,248.061z"/>
		<path fill="#FFF701" d="M388.889,248.073c-0.019,0-0.031-0.012-0.043-0.028l-24.817-51.361c-0.009-0.019-0.006-0.039,0.009-0.054
			c0.016-0.014,0.038-0.017,0.056-0.008l79.104,44.961c0.016,0.011,0.028,0.03,0.022,0.051c-0.006,0.02-0.019,0.031-0.041,0.036
			l-54.284,6.4C388.896,248.073,388.892,248.073,388.889,248.073z M364.177,196.781l24.743,51.195l54.108-6.381L364.177,196.781z"/>
		<path fill="#FFF701" d="M390.902,424.21L390.902,424.21c-0.021,0-0.04-0.016-0.046-0.037l-12.716-54.79
			c-0.006-0.016,0-0.031,0.012-0.044l34.983-32.178c0.015-0.016,0.037-0.016,0.056-0.005c0.019,0.008,0.025,0.031,0.021,0.051
			l-22.267,86.969C390.943,424.197,390.924,424.21,390.902,424.21z M378.236,369.389l12.669,54.579l22.178-86.632L378.236,369.389z"
			/>
		<path fill="#FFF701" d="M378.184,369.42c-0.006,0-0.016,0-0.021-0.006c-0.019-0.01-0.028-0.028-0.025-0.047l12.21-71.489
			c0.003-0.02,0.019-0.035,0.037-0.04c0.022,0.002,0.041,0.008,0.05,0.024l22.773,39.31c0.009,0.02,0.009,0.043-0.01,0.057
			l-34.979,32.182C378.205,369.417,378.196,369.42,378.184,369.42z M390.418,298.021l-12.167,71.226l34.855-32.059L390.418,298.021z
			"/>
		<path fill="#FFF701" d="M387.741,101.576c-0.006,0-0.009,0.001-0.016-0.002c-0.015-0.004-0.031-0.02-0.031-0.04l-4.647-56.43
			c-0.003-0.017,0.009-0.036,0.025-0.043c0.015-0.009,0.034-0.009,0.049,0.003l30.873,23.111c0.009,0.006,0.016,0.017,0.019,0.029
			c0,0.012-0.003,0.026-0.009,0.036l-26.229,33.319C387.766,101.57,387.754,101.576,387.741,101.576z M383.15,45.201l4.625,56.209
			l26.123-33.19L383.15,45.201z"/>
		<path fill="#FFF701" d="M312.974,484.687c-0.01,0-0.019-0.003-0.028-0.007l-30.05-21.476c-0.016-0.01-0.022-0.028-0.019-0.044
			c0.003-0.021,0.019-0.033,0.034-0.04l58.584-13.571c0.025-0.004,0.04,0.006,0.053,0.021c0.009,0.016,0.009,0.037-0.003,0.053
			l-28.533,35.048C312.998,484.68,312.986,484.687,312.974,484.687z M283.035,463.188l29.929,21.39l28.419-34.909L283.035,463.188z"
			/>
		<path fill="#FFF701" d="M285.83,487.888c-0.009,0-0.019-0.003-0.028-0.009c-0.009-0.007-0.016-0.022-0.016-0.034l-2.91-24.672
			c-0.003-0.019,0.006-0.037,0.021-0.046c0.016-0.007,0.034-0.007,0.05,0.003l30.05,21.473c0.019,0.013,0.025,0.031,0.019,0.05
			c-0.003,0.019-0.019,0.034-0.037,0.034l-27.144,3.201C285.836,487.888,285.833,487.888,285.83,487.888z M282.982,463.266
			l2.891,24.522l26.976-3.18L282.982,463.266z"/>
		<path fill="#FFF701" d="M285.83,487.888h-0.003l-43.669-7.358c-0.022-0.003-0.038-0.021-0.038-0.04
			c-0.006-0.021,0.006-0.04,0.025-0.05l40.759-17.316c0.016-0.003,0.028-0.003,0.04,0.004c0.013,0.006,0.022,0.021,0.025,0.033
			l2.91,24.678c0,0.013-0.006,0.028-0.019,0.037C285.854,487.885,285.842,487.888,285.83,487.888z M242.331,480.465l43.449,7.32
			l-2.897-24.55L242.331,480.465z"/>
		<path fill="#FFF701" d="M242.164,480.529c-0.012,0-0.024-0.006-0.034-0.016c-0.016-0.016-0.016-0.037-0.006-0.053l23.592-39.738
			c0.009-0.013,0.025-0.021,0.037-0.021h0.006c0.012,0,0.025,0.006,0.034,0.016l17.164,22.422c0.012,0.013,0.012,0.025,0.009,0.041
			c-0.003,0.012-0.012,0.024-0.028,0.03l-40.756,17.316C242.176,480.529,242.17,480.529,242.164,480.529z M265.762,440.828
			l-23.483,39.556l40.57-17.235L265.762,440.828z"/>
		<path fill="#FFF701" d="M379.868,171.582c-0.006,0-0.013-0.003-0.025-0.006c-0.012-0.009-0.022-0.029-0.019-0.045l7.87-70.007
			c0.003-0.021,0.019-0.038,0.041-0.041c0.021-0.003,0.043,0.012,0.049,0.033l16.953,52.456c0.006,0.017-0.003,0.041-0.019,0.05
			l-24.823,17.55C379.887,171.579,379.88,171.582,379.868,171.582z M387.763,101.75l-7.836,69.685l24.712-17.47L387.763,101.75z"/>
		<path fill="#FFF701" d="M312.974,484.687c-0.016,0-0.028-0.007-0.038-0.019c-0.012-0.016-0.012-0.041,0-0.056l28.534-35.045
			c0.012-0.019,0.034-0.022,0.05-0.019l38.922,8.899c0.019,0.003,0.034,0.019,0.034,0.044c0.003,0.019-0.009,0.037-0.028,0.046
			l-67.456,26.146C312.986,484.687,312.979,484.687,312.974,484.687z M341.525,449.647l-28.406,34.887l67.152-26.026
			L341.525,449.647z"/>
		<path fill="#FFF701" d="M380.43,458.538c-0.013,0-0.025-0.003-0.034-0.016c-0.019-0.015-0.016-0.046,0.003-0.064l24.408-22.215
			l30.975-23.763c0.021-0.019,0.049-0.012,0.065,0.01c0.016,0.019,0.013,0.047-0.006,0.065l-55.379,45.974
			C380.451,458.535,380.442,458.538,380.43,458.538z M433.917,414.028l-29.052,22.286l-22.891,20.834L433.917,414.028z"/>
		<path fill="#FFF701" d="M380.43,458.538c-0.009,0-0.016,0-0.025-0.006c-0.016-0.01-0.028-0.031-0.019-0.053l10.47-34.328
			c0.006-0.016,0.019-0.028,0.031-0.034c0.016-0.003,0.034,0,0.043,0.012l13.938,12.114c0.009,0.01,0.016,0.021,0.016,0.037
			c0,0.013-0.003,0.025-0.013,0.034l-24.411,22.215C380.451,458.538,380.442,458.538,380.43,458.538z M390.924,424.244
			l-10.402,34.099l24.247-22.062L390.924,424.244z"/>
		<path fill="#FFF701" d="M380.43,458.538c-0.003,0-0.006,0-0.009,0l-38.926-8.899c-0.019-0.004-0.031-0.019-0.034-0.041
			c-0.003-0.016,0.009-0.037,0.025-0.043l49.396-25.432c0.015-0.009,0.037-0.009,0.049,0.003c0.016,0.016,0.022,0.031,0.016,0.05
			l-10.47,34.332C380.47,458.526,380.451,458.538,380.43,458.538z M341.644,449.576l38.755,8.863l10.426-34.186L341.644,449.576z"/>
		<path fill="#FFF701" d="M156.34,418.726c-0.022,0-0.041-0.01-0.046-0.031c-0.006-0.019,0-0.043,0.021-0.056l57.97-36.494
			c0.022-0.012,0.043-0.009,0.056,0.007c0.015,0.016,0.019,0.037,0.009,0.056l-17.521,31.726c-0.009,0.013-0.022,0.019-0.037,0.021
			l-40.449,4.771H156.34z M214.179,382.321l-57.641,36.286l40.22-4.74L214.179,382.321z M196.786,413.908h0.003H196.786z"/>
		<path fill="#FFF701" d="M465.301,206.539h-0.006l-29.455-2.589c-0.015,0-0.028-0.011-0.034-0.023
			c-0.009-0.013-0.009-0.028-0.003-0.043l31.14-67.974c0.009-0.021,0.031-0.028,0.053-0.025c0.021,0.004,0.037,0.025,0.037,0.048
			l-1.688,70.562c0,0.012-0.003,0.025-0.013,0.033S465.311,206.539,465.301,206.539z M435.915,203.861l29.34,2.58l1.678-70.285
			L435.915,203.861z"/>
		<path fill="#FFF701" d="M443.177,241.67c-0.006,0-0.009,0-0.013,0c-0.019-0.003-0.031-0.019-0.037-0.036l-7.327-37.721
			c-0.003-0.016,0-0.031,0.009-0.04c0.009-0.013,0.019-0.019,0.041-0.016l29.455,2.587c0.016,0.003,0.028,0.01,0.037,0.025
			c0.006,0.016,0.006,0.034-0.003,0.047l-22.125,35.13C443.205,241.663,443.189,241.67,443.177,241.67z M435.902,203.955
			l7.296,37.545l22.022-34.968L435.902,203.955z"/>
		<path fill="#FFF701" d="M443.177,241.67c-0.013,0-0.019-0.003-0.025-0.008l-79.105-44.958c-0.019-0.011-0.028-0.033-0.021-0.055
			c0.006-0.02,0.025-0.032,0.043-0.032c0,0,0.003,0,0.006,0l71.774,7.24c0.021,0.003,0.037,0.017,0.04,0.036l7.331,37.721
			c0.006,0.02-0.003,0.037-0.019,0.045C443.195,241.666,443.183,241.67,443.177,241.67z M364.283,196.733l78.826,44.799
			l-7.302-37.585L364.283,196.733z"/>
		<path fill="#FFF701" d="M435.843,203.95c-0.006,0-0.016-0.003-0.022-0.004l-55.975-32.37c-0.015-0.009-0.021-0.021-0.021-0.04
			c-0.003-0.016,0.006-0.03,0.019-0.038l24.823-17.553c0.009-0.004,0.025-0.008,0.038-0.004c0.012,0,0.021,0.007,0.031,0.02
			l31.152,49.917c0.009,0.02,0.006,0.045-0.006,0.061C435.868,203.945,435.855,203.95,435.843,203.95z M379.955,171.531
			l55.751,32.239l-31.027-49.718L379.955,171.531z"/>
		<path fill="#FFF701" d="M435.843,203.95h-0.003l-71.774-7.237c-0.016-0.003-0.031-0.014-0.038-0.026
			c-0.006-0.014-0.006-0.032,0.003-0.045l15.799-25.13c0.012-0.023,0.04-0.028,0.062-0.016l55.975,32.368
			c0.019,0.012,0.028,0.034,0.021,0.056C435.88,203.938,435.865,203.95,435.843,203.95z M364.149,196.625l71.483,7.209
			l-55.746-32.239L364.149,196.625z"/>
		<path fill="#FFF701" d="M265.759,440.794c-0.006,0-0.013-0.003-0.019-0.003c-0.019-0.006-0.031-0.024-0.028-0.05l1.641-34.974
			c0-0.012,0.009-0.027,0.025-0.037l42.931-23.08c0.021-0.009,0.043-0.003,0.059,0.013c0.012,0.016,0.012,0.04,0,0.056
			l-44.575,58.057C265.784,440.785,265.771,440.794,265.759,440.794z M267.443,405.799l-1.635,34.803l44.354-57.765L267.443,405.799
			z"/>
		<path fill="#FFF701" d="M267.4,405.82c-0.009,0-0.016-0.003-0.025-0.006c-0.016-0.013-0.022-0.028-0.022-0.047l3.626-62.381
			c0.003-0.018,0.013-0.032,0.031-0.04c0.016-0.005,0.034-0.003,0.049,0.012l39.304,39.302c0.01,0.009,0.016,0.024,0.013,0.04
			c-0.003,0.013-0.009,0.024-0.025,0.031l-42.931,23.083C267.415,405.817,267.406,405.82,267.4,405.82z M271.066,343.495
			l-3.614,62.198l42.8-23.015L271.066,343.495z"/>
		<path fill="#FFF701" d="M193.255,461.28c-0.019,0-0.034-0.009-0.043-0.027s-0.003-0.044,0.016-0.056l74.145-55.461
			c0.015-0.012,0.034-0.012,0.049-0.006c0.016,0.01,0.025,0.028,0.025,0.043l-1.644,34.975c0,0.021-0.013,0.037-0.034,0.043
			l-72.5,20.486C193.262,461.277,193.258,461.28,193.255,461.28z M267.347,405.87l-73.862,55.252l72.227-20.412L267.347,405.87z
			 M265.759,440.744L265.759,440.744L265.759,440.744z"/>
		<path fill="#FFF701" d="M282.923,463.213c-0.019,0-0.037-0.012-0.043-0.024c-0.009-0.021-0.003-0.047,0.016-0.059l68.207-47.447
			c0.015-0.013,0.037-0.013,0.053,0c0.019,0.012,0.024,0.03,0.019,0.049l-9.623,33.876c-0.003,0.016-0.016,0.027-0.031,0.031
			l-58.587,13.571C282.929,463.213,282.926,463.213,282.923,463.213z M351.049,415.834l-67.9,47.233l58.32-13.513L351.049,415.834z
			 M341.507,449.595L341.507,449.595L341.507,449.595z"/>
		<path fill="#FFF701" d="M282.923,463.213c-0.016,0-0.028-0.006-0.037-0.019l-17.164-22.419c-0.01-0.013-0.013-0.031-0.006-0.043
			c0-0.016,0.012-0.028,0.028-0.031l85.371-25.025c0.021-0.006,0.046,0.007,0.056,0.025c0.009,0.021,0.003,0.046-0.015,0.056
			l-68.207,47.447C282.938,463.21,282.932,463.213,282.923,463.213z M265.836,440.77l17.096,22.335l67.934-47.258L265.836,440.77z"
			/>
		<path fill="#FFF701" d="M265.759,440.794c-0.016,0-0.031-0.009-0.041-0.021c-0.009-0.016-0.009-0.037,0.003-0.056l44.571-58.054
			c0.013-0.013,0.028-0.016,0.037-0.016c0.013,0,0.022,0.003,0.031,0.009l40.796,33.026c0.012,0.012,0.019,0.027,0.016,0.046
			c-0.003,0.019-0.013,0.031-0.031,0.037l-85.371,25.025C265.765,440.791,265.762,440.794,265.759,440.794z M310.336,382.759
			l-44.457,57.902l85.15-24.96L310.336,382.759z"/>
		<path fill="#FFF701" d="M390.902,424.21c-0.003,0-0.006,0-0.009,0l-39.776-8.444c-0.012-0.003-0.024-0.016-0.031-0.027
			c-0.006-0.013-0.006-0.028,0-0.044l27.057-46.343c0.009-0.019,0.025-0.027,0.05-0.024c0.019,0.003,0.031,0.019,0.037,0.034
			l12.716,54.79c0.003,0.019,0,0.034-0.012,0.046C390.927,424.204,390.912,424.21,390.902,424.21z M351.201,415.688l39.639,8.413
			l-12.675-54.604L351.201,415.688z"/>
		<path fill="#FFF701" d="M341.507,449.639c-0.012,0-0.021,0-0.031-0.01c-0.013-0.013-0.019-0.031-0.016-0.047l9.623-33.875
			c0.006-0.024,0.028-0.037,0.056-0.031l39.772,8.441c0.019,0.006,0.034,0.021,0.037,0.04c0,0.019-0.009,0.04-0.024,0.047
			l-49.396,25.431C341.52,449.639,341.513,449.639,341.507,449.639z M351.161,415.775l-9.579,33.727l49.184-25.323L351.161,415.775z
			"/>
		<path fill="#FFF701" d="M404.691,154.032c-0.019,0-0.037-0.016-0.043-0.033l-16.953-52.456c-0.003-0.017,0-0.036,0.016-0.048
			c0.009-0.012,0.031-0.015,0.046-0.009l27.674,10.774c0.021,0.011,0.034,0.034,0.028,0.058l-10.721,41.679
			c-0.003,0.02-0.021,0.036-0.043,0.036H404.691z M387.816,101.61l16.873,52.208l10.668-41.485L387.816,101.61z"/>
		<path fill="#FFF701" d="M415.413,112.351c-0.006,0-0.009-0.001-0.016-0.004l-27.674-10.774c-0.012-0.003-0.025-0.016-0.028-0.031
			c-0.003-0.013,0-0.028,0.009-0.041l26.226-33.32c0.012-0.014,0.031-0.021,0.05-0.014c0.019,0.004,0.034,0.021,0.034,0.042
			l1.446,44.094c0.003,0.016-0.006,0.031-0.019,0.037C415.434,112.347,415.425,112.351,415.413,112.351z M387.816,101.508
			l27.55,10.727l-1.442-43.896L387.816,101.508z"/>
		<path fill="#FFF701" d="M301.663,290.885c-0.013,0-0.022-0.005-0.031-0.012l-52.578-40.39c-0.016-0.011-0.022-0.028-0.019-0.046
			c0.003-0.016,0.016-0.033,0.031-0.036l44.469-14.119c0.016-0.005,0.031-0.005,0.041,0.006c0.009,0.005,0.019,0.017,0.021,0.03
			l8.109,54.514c0.003,0.017-0.006,0.037-0.022,0.045C301.679,290.881,301.669,290.885,301.663,290.885z M249.181,250.462
			l52.417,40.268l-8.084-54.344L249.181,250.462z"/>
		<path fill="#FFF701" d="M247.062,312.961c-0.009,0-0.019-0.006-0.028-0.011c-0.013-0.008-0.019-0.023-0.019-0.037l2.02-62.47
			c0-0.016,0.009-0.031,0.028-0.039c0.012-0.009,0.031-0.004,0.046,0.005l52.578,40.39c0.016,0.011,0.022,0.029,0.019,0.045
			c0,0.018-0.013,0.029-0.028,0.036l-54.601,22.075C247.074,312.958,247.068,312.961,247.062,312.961z M249.125,250.54
			l-2.017,62.302l54.461-22.018L249.125,250.54z"/>
		<path fill="#FFF701" d="M267.4,405.82c-0.003,0-0.003,0-0.003-0.003l-32.951-3.027c-0.019-0.004-0.031-0.013-0.038-0.025
			c-0.009-0.016-0.009-0.034,0-0.046l36.578-59.353c0.009-0.017,0.034-0.029,0.056-0.02c0.019,0.004,0.034,0.024,0.031,0.046
			l-3.626,62.381c0,0.013-0.006,0.025-0.016,0.035C267.421,405.814,267.409,405.82,267.4,405.82z M234.526,402.703l32.83,3.018
			l3.614-62.147L234.526,402.703z"/>
		<path fill="#FFF701" d="M234.449,402.79c-0.012,0-0.025-0.007-0.034-0.013l-20.139-20.562c-0.009-0.009-0.012-0.024-0.012-0.037
			c0-0.012,0.009-0.024,0.019-0.034l56.72-38.794c0.019-0.012,0.04-0.009,0.056,0.007c0.019,0.014,0.019,0.04,0.009,0.058
			l-36.577,59.35C234.479,402.777,234.467,402.79,234.449,402.79z M214.381,382.191l20.059,20.475l36.432-59.111L214.381,382.191z"
			/>
		<path fill="#FFF701" d="M193.255,461.28c-0.012,0-0.025-0.003-0.034-0.015c-0.016-0.016-0.019-0.041-0.003-0.06l41.193-58.491
			c0.009-0.012,0.021-0.021,0.037-0.021h0.003l32.951,3.034c0.019,0.003,0.037,0.013,0.041,0.031c0.006,0.021,0,0.04-0.016,0.053
			l-74.147,55.46C193.274,461.277,193.265,461.28,193.255,461.28z M234.471,402.793l-41.007,58.228l73.812-55.212L234.471,402.793z"
			/>
		<path fill="#FFF701" d="M196.786,413.954c-0.012,0-0.028-0.003-0.037-0.016c-0.009-0.016-0.013-0.037-0.003-0.053l17.524-31.726
			c0.006-0.012,0.019-0.019,0.034-0.021c0.019-0.003,0.028,0.003,0.038,0.013l20.142,20.558c0.012,0.013,0.016,0.028,0.012,0.043
			c-0.006,0.016-0.019,0.028-0.034,0.034l-37.663,11.165C196.795,413.954,196.792,413.954,196.786,413.954z M214.319,382.263
			l-17.437,31.567l37.48-11.108L214.319,382.263z"/>
		<path fill="#FFF701" d="M193.255,461.28c-0.006,0-0.012-0.003-0.016-0.003c-0.021-0.006-0.034-0.027-0.031-0.046l3.53-47.327
			c0.003-0.019,0.015-0.037,0.034-0.04l37.663-11.168c0.015-0.003,0.04,0,0.049,0.019c0.013,0.016,0.013,0.034,0,0.053
			l-41.193,58.494C193.283,461.274,193.268,461.28,193.255,461.28z M196.829,413.945l-3.515,47.121l41.02-58.242L196.829,413.945z"
			/>
		<path fill="#FFF701" d="M345.44,83.109c-0.019,0-0.031-0.008-0.043-0.02l-47.062-75.22c-0.009-0.017-0.006-0.043,0.009-0.057
			c0.019-0.016,0.043-0.016,0.062-0.003l44.481,36.63c0.009,0.008,0.016,0.02,0.016,0.033l2.581,38.587
			c0,0.022-0.009,0.042-0.031,0.048C345.447,83.109,345.443,83.109,345.44,83.109z M298.567,8.063l46.812,74.817l-2.565-38.383
			L298.567,8.063z"/>
		<path fill="#FFF701" d="M383.094,45.146L383.094,45.146l-40.238-0.627c-0.009,0-0.022-0.001-0.028-0.009L298.347,7.882
			c-0.019-0.014-0.021-0.041-0.012-0.061c0.012-0.02,0.04-0.028,0.059-0.017l84.719,37.255c0.019,0.008,0.031,0.029,0.028,0.053
			C383.138,45.132,383.116,45.146,383.094,45.146z M342.875,44.428l39.99,0.624L298.666,8.024L342.875,44.428z"/>
		<path fill="#FFF701" d="M363.436,85.28c-0.016,0-0.034-0.011-0.041-0.026l-20.58-40.759c-0.006-0.014-0.006-0.033,0-0.047
			c0.009-0.012,0.025-0.021,0.043-0.021l0,0l40.238,0.626c0.015,0.003,0.028,0.011,0.037,0.023c0.009,0.012,0.009,0.031,0.003,0.046
			l-19.661,40.131C363.47,85.27,363.455,85.28,363.436,85.28L363.436,85.28z M342.934,44.52l20.499,40.607l19.587-39.979
			L342.934,44.52z"/>
		<path fill="#FFF701" d="M354.294,135.777h-0.006c-0.028-0.005-0.043-0.03-0.04-0.056l9.142-50.483l-20.574-40.743
			c-0.012-0.023,0-0.051,0.022-0.064c0.021-0.011,0.049,0,0.062,0.021l20.577,40.759c0.006,0.011,0.006,0.02,0.006,0.031
			l-9.142,50.498C354.337,135.762,354.315,135.777,354.294,135.777z"/>
		<path fill="#FFF701" d="M184.408,359.754c-0.019,0-0.038-0.016-0.043-0.028c-0.009-0.021-0.003-0.043,0.012-0.059l62.657-46.793
			c0.019-0.013,0.05-0.01,0.065,0.009l23.964,30.479c0.009,0.012,0.012,0.029,0.006,0.045c-0.006,0.015-0.019,0.026-0.034,0.027
			l-86.622,16.315L184.408,359.754z M247.053,312.978l-62.458,46.646l86.348-16.265L247.053,312.978z"/>
		<path fill="#FFF701" d="M214.31,382.231c-0.009,0-0.021-0.003-0.028-0.009l-29.905-22.481c-0.012-0.01-0.019-0.031-0.016-0.047
			c0.003-0.019,0.019-0.03,0.037-0.037l86.622-16.311c0.021-0.008,0.04,0.008,0.049,0.024c0.006,0.021,0.003,0.047-0.015,0.058
			l-56.72,38.794C214.328,382.229,214.319,382.231,214.31,382.231z M184.52,359.731l29.79,22.397l56.506-38.65L184.52,359.731z"/>
		<path fill="#FFF701" d="M184.408,359.754c-0.01,0-0.019-0.007-0.028-0.013c-0.015-0.013-0.021-0.031-0.019-0.05l10.997-38.823
			c0.006-0.017,0.019-0.029,0.038-0.032l51.657-7.97c0.025-0.008,0.043,0.008,0.053,0.028c0.006,0.02,0.003,0.043-0.016,0.056
			l-62.657,46.791C184.427,359.747,184.417,359.754,184.408,359.754z M195.439,320.923l-10.951,38.66l62.396-46.595L195.439,320.923
			z"/>
		<path fill="#FFF701" d="M156.34,418.726c-0.013,0-0.025-0.003-0.034-0.01c-0.016-0.016-0.019-0.037-0.009-0.056l28.068-58.978
			c0.006-0.013,0.019-0.019,0.031-0.025c0.013-0.003,0.025,0,0.037,0.013l29.905,22.479c0.013,0.009,0.019,0.021,0.019,0.037
			s-0.009,0.03-0.021,0.04l-57.973,36.493C156.355,418.726,156.346,418.726,156.34,418.726z M184.423,359.775l-27.972,58.779
			l57.774-36.376L184.423,359.775z"/>
		<path fill="#FFF701" d="M146.512,364.221c-0.019,0-0.034-0.013-0.043-0.028c-0.006-0.019-0.003-0.04,0.013-0.056l48.893-43.29
			c0.016-0.013,0.037-0.016,0.053-0.003c0.019,0.011,0.028,0.03,0.022,0.051l-10.997,38.822c-0.003,0.021-0.019,0.033-0.041,0.033
			l-37.893,4.471C146.515,364.221,146.512,364.221,146.512,364.221z M195.315,321.021l-48.661,43.088l37.716-4.445L195.315,321.021z
			"/>
		<path fill="#FFF701" d="M156.34,418.726c-0.003,0-0.006,0-0.006,0c-0.021-0.003-0.037-0.019-0.043-0.037l-9.824-54.508
			c-0.003-0.013,0.003-0.025,0.009-0.034c0.006-0.01,0.019-0.019,0.031-0.019l37.896-4.471h0.003c0.016,0,0.031,0.007,0.041,0.021
			c0.009,0.013,0.012,0.028,0.006,0.047L156.38,418.7C156.371,418.716,156.355,418.726,156.34,418.726z M146.568,364.215
			l9.791,54.315l27.969-58.768L146.568,364.215z"/>
		<path fill="#FFF701" d="M351.13,415.766c-0.003,0-0.006,0-0.006,0c-0.019,0-0.034-0.016-0.041-0.03l-21.808-73.108
			c-0.003-0.018,0.003-0.037,0.015-0.05c0.016-0.011,0.038-0.014,0.05-0.003l48.865,26.759c0.013,0.006,0.019,0.016,0.025,0.028
			c0.003,0.009,0,0.024-0.006,0.034l-27.057,46.349C351.161,415.757,351.146,415.766,351.13,415.766z M329.396,342.709
			l21.746,72.896l26.977-46.213L329.396,342.709z"/>
		<path fill="#FFF701" d="M351.13,415.766c-0.013,0-0.022-0.003-0.031-0.009l-40.796-33.028c-0.015-0.013-0.021-0.038-0.015-0.057
			l18.991-40.078c0.006-0.017,0.025-0.024,0.046-0.027c0.019,0.003,0.034,0.014,0.041,0.032l21.808,73.105
			c0.006,0.021-0.003,0.043-0.019,0.056C351.146,415.766,351.136,415.766,351.13,415.766z M310.389,382.679l40.654,32.91
			l-21.734-72.845L310.389,382.679z"/>
		<path fill="#FFF701" d="M310.33,382.737c0,0-0.006,0-0.009,0c-0.019-0.003-0.034-0.021-0.034-0.04l-8.671-91.856
			c-0.003-0.021,0.01-0.043,0.031-0.048s0.043,0.003,0.056,0.023l27.659,51.776c0.006,0.013,0.006,0.027,0,0.042l-18.988,40.078
			C310.364,382.729,310.349,382.737,310.33,382.737z M301.731,291.062l8.63,91.458l18.908-39.906L301.731,291.062z"/>
		<path fill="#FFF701" d="M378.184,369.42c-0.006,0-0.016,0-0.021-0.006l-48.862-26.76c-0.015-0.006-0.024-0.021-0.024-0.037
			c-0.003-0.017,0.006-0.031,0.015-0.04l61.075-44.729c0.012-0.013,0.034-0.013,0.053-0.002c0.016,0.009,0.022,0.027,0.022,0.048
			l-12.21,71.489c-0.003,0.013-0.012,0.027-0.025,0.031C378.199,369.42,378.193,369.42,378.184,369.42z M329.409,342.609
			l48.741,26.692l12.179-71.312L329.409,342.609z"/>
		<path fill="#FFF701" d="M430.666,156.834c-0.009,0-0.021-0.003-0.028-0.011c-0.016-0.013-0.021-0.033-0.012-0.053l7.001-19.016
			c0.006-0.019,0.021-0.028,0.043-0.031l29.312-1.839c0,0,0,0,0.003,0c0.021,0,0.037,0.012,0.043,0.032
			c0.006,0.021-0.003,0.043-0.022,0.055L430.69,156.83C430.681,156.832,430.675,156.834,430.666,156.834z M437.705,137.815
			l-6.949,18.869l36.034-20.696L437.705,137.815z"/>
		<path fill="#FFF701" d="M435.843,203.95c0,0-0.003,0-0.006,0c-0.019-0.003-0.037-0.021-0.037-0.04l-5.181-47.116
			c0-0.02,0.009-0.039,0.025-0.046l36.32-20.859c0.016-0.009,0.037-0.008,0.053,0.006s0.019,0.037,0.009,0.056l-31.139,67.974
			C435.88,203.939,435.862,203.95,435.843,203.95z M430.715,156.814l5.159,46.917l31.009-67.688L430.715,156.814z"/>
		<path fill="#FFF701" d="M430.666,156.834c0,0-0.003,0-0.003-0.001l-25.974-2.801c-0.022-0.003-0.037-0.019-0.041-0.041
			c-0.006-0.019,0.006-0.042,0.025-0.048l32.979-16.213c0.012-0.008,0.034-0.008,0.053,0.006c0.012,0.014,0.019,0.034,0.009,0.051
			l-7.001,19.017C430.703,156.822,430.688,156.834,430.666,156.834z M404.859,153.956l25.776,2.783l6.952-18.875L404.859,153.956z"
			/>
		<path fill="#FFF701" d="M435.843,203.95c-0.016,0-0.031-0.009-0.037-0.02l-31.152-49.921c-0.009-0.015-0.009-0.033,0-0.048
			c0.009-0.016,0.021-0.023,0.037-0.023h0.006l25.974,2.804c0.021,0.005,0.041,0.021,0.041,0.041l5.177,47.117
			c0.003,0.021-0.009,0.044-0.031,0.048C435.855,203.95,435.85,203.95,435.843,203.95z M404.781,154.041l30.994,49.666
			l-5.149-46.876L404.781,154.041z"/>
		<path fill="#FFF701" d="M238.702,3.658c-0.019-0.012-0.025-0.033-0.015-0.053c0.006-0.02,0.021-0.028,0.046-0.031l59.648,4.224
			c0.013,0.003,0.025,0.011,0.034,0.023l47.062,75.218c0.013,0.02,0.009,0.042-0.006,0.058c-0.01,0.011-0.022,0.012-0.031,0.012
			c-0.012,0-0.021-0.001-0.031-0.008 M345.267,82.878L298.35,7.89l-59.465-4.21"/>
		<path fill="#FFF701" d="M345.44,83.109c-0.019,0-0.031-0.008-0.043-0.02L298.35,7.89l-59.623-4.221
			c-0.028-0.003-0.046-0.024-0.043-0.051c0-0.025,0.022-0.044,0.046-0.044h0.003l59.648,4.224c0.013,0.003,0.025,0.011,0.034,0.023
			l47.062,75.218c0.013,0.02,0.006,0.05-0.016,0.062C345.456,83.107,345.447,83.109,345.44,83.109z"/>
		<path fill="#FFF701" d="M208.406,12.873c-0.021,0-0.041-0.017-0.043-0.039c-0.006-0.022,0.009-0.045,0.031-0.053l30.321-9.204
			c0.006-0.003,0.009-0.003,0.019-0.003l59.648,4.224c0.021,0.002,0.043,0.023,0.041,0.05c0,0.021-0.019,0.042-0.043,0.045
			l-89.969,4.98C208.409,12.873,208.409,12.873,208.406,12.873z M238.733,3.669l-29.939,9.091l88.842-4.92L238.733,3.669z"/>
		<path fill="#FFF701" d="M383.094,45.146c-0.003,0-0.006,0.001-0.012-0.002L238.714,3.666c-0.025-0.008-0.038-0.033-0.031-0.058
			c0.006-0.02,0.025-0.034,0.046-0.034c0.003,0,0.01,0,0.013,0.003l144.364,41.479c0.025,0.007,0.041,0.032,0.034,0.059
			C383.131,45.136,383.116,45.146,383.094,45.146z"/>
		<path fill="#FFF701" d="M345.363,303.243c-0.003,0-0.009,0-0.012-0.003l-43.7-12.359c-0.019-0.006-0.034-0.021-0.034-0.04
			c-0.003-0.021,0.01-0.037,0.028-0.046l52.175-21.633c0.016-0.004,0.037-0.003,0.046,0.009c0.016,0.011,0.022,0.029,0.016,0.046
			l-8.475,33.991c-0.003,0.012-0.009,0.021-0.021,0.027C345.378,303.238,345.372,303.243,345.363,303.243z M301.806,290.828
			l43.523,12.31l8.441-33.854L301.806,290.828z"/>
		<path fill="#FFF701" d="M329.322,342.661c-0.019,0-0.034-0.011-0.043-0.026l-27.659-51.775c-0.006-0.016-0.006-0.039,0.006-0.051
			c0.009-0.016,0.031-0.021,0.049-0.016l43.697,12.357c0.016,0.003,0.025,0.013,0.031,0.023c0.006,0.012,0.006,0.027,0.003,0.04
			l-16.041,39.419C329.356,342.65,329.343,342.658,329.322,342.661z M301.753,290.912l27.562,51.591l15.982-39.275L301.753,290.912z
			"/>
		<path fill="#FFF701" d="M345.363,303.243c-0.016,0-0.025-0.006-0.037-0.016c-0.009-0.014-0.012-0.027-0.009-0.043l8.475-33.99
			c0.003-0.016,0.016-0.028,0.031-0.033c0.016-0.004,0.031-0.003,0.043,0.008l36.556,28.678c0.016,0.012,0.022,0.03,0.019,0.051
			c-0.006,0.017-0.022,0.029-0.041,0.032l-45.034,5.312H345.363z M353.866,269.286l-8.441,33.855l44.851-5.289L353.866,269.286z"/>
		<path fill="#FFF701" d="M329.322,342.661c-0.013,0-0.022-0.003-0.031-0.011c-0.015-0.013-0.021-0.036-0.012-0.053l16.041-39.418
			c0.006-0.016,0.022-0.027,0.037-0.031l45.031-5.311c0.003,0,0.006,0,0.006,0c0.019,0,0.034,0.01,0.043,0.029
			c0.009,0.021,0.003,0.042-0.016,0.055L329.35,342.65C329.34,342.658,329.331,342.661,329.322,342.661z M345.394,303.24
			l-15.967,39.239l60.796-44.528L345.394,303.24z"/>
		<path fill="#FFF701" d="M437.673,137.818c-0.025,0-0.046-0.019-0.046-0.041l-2.088-17.685c0-0.017,0.006-0.033,0.019-0.043
			c0.019-0.011,0.034-0.009,0.05-0.005l31.4,15.843c0.019,0.009,0.028,0.029,0.025,0.053c-0.006,0.02-0.022,0.036-0.043,0.036
			L437.673,137.818L437.673,137.818z M435.645,120.168l2.066,17.554l29.098-1.827L435.645,120.168z"/>
		<path fill="#FFF701" d="M466.986,135.976c-0.009,0-0.016,0-0.022-0.003l-31.4-15.844c-0.006-0.005-0.019-0.013-0.021-0.023
			l-21.619-51.874c-0.009-0.023,0-0.05,0.019-0.059c0.019-0.011,0.047-0.011,0.062,0.009l53.019,67.722
			c0.012,0.014,0.012,0.04,0,0.057C467.014,135.971,466.998,135.976,466.986,135.976z M435.623,120.054l31.198,15.742
			l-52.681-67.284L435.623,120.054z"/>
		<path fill="#FFF701" d="M404.691,154.032c-0.012,0-0.025-0.008-0.037-0.02c-0.013-0.016-0.013-0.041,0.006-0.061l30.892-33.897
			c0.012-0.012,0.031-0.017,0.049-0.009c0.019,0.005,0.028,0.021,0.031,0.038l2.084,17.682c0.003,0.021-0.006,0.042-0.025,0.049
			l-32.979,16.213C404.707,154.028,404.701,154.032,404.691,154.032z M435.552,120.195l-30.659,33.638l32.731-16.089
			L435.552,120.195z"/>
		<path fill="#FFF701" d="M404.691,154.032c-0.006,0-0.012-0.003-0.021-0.005c-0.019-0.011-0.028-0.034-0.022-0.054l10.721-41.679
			c0.003-0.013,0.012-0.026,0.021-0.033c0.016-0.006,0.028-0.003,0.041-0.001l20.17,7.785c0.019,0.005,0.025,0.017,0.031,0.033
			c0.003,0.012,0,0.031-0.013,0.041l-30.894,33.898C404.719,154.027,404.707,154.032,404.691,154.032z M415.443,112.367
			l-10.659,41.449l30.72-33.711L415.443,112.367z"/>
		<path fill="#FFF701" d="M435.586,120.133c-0.006,0-0.01,0-0.016-0.001l-20.173-7.785c-0.016-0.005-0.028-0.023-0.028-0.041
			l-1.449-44.095c-0.003-0.022,0.016-0.039,0.037-0.043c0.025-0.006,0.041,0.003,0.053,0.025l21.619,51.877
			c0.006,0.019,0.003,0.036-0.009,0.051C435.61,120.128,435.598,120.133,435.586,120.133z M415.459,112.273l20.043,7.731
			l-21.479-51.541L415.459,112.273z"/>
	</g>
	<g>
		<path fill="#FFFFFF" d="M257.535,496.536c-0.251-2.146,1.29-4.088,3.437-4.337c2.146-0.251,4.088,1.288,4.337,3.435
			c0.248,2.146-1.291,4.089-3.438,4.34C259.725,500.222,257.783,498.68,257.535,496.536z"/>
		<circle fill="#FFFFFF" cx="201.887" cy="492.265" r="5.442"/>
		<path fill="#FFFFFF" d="M146.624,437.342c-0.248-2.159,1.3-4.117,3.462-4.365c2.162-0.251,4.116,1.3,4.368,3.459
			c0.251,2.162-1.296,4.12-3.462,4.368C148.833,441.055,146.875,439.507,146.624,437.342z"/>
		<path fill="#FFFFFF" d="M174.366,472.358c-0.202-1.728,1.04-3.291,2.771-3.49c1.728-0.201,3.294,1.036,3.493,2.768
			c0.202,1.73-1.039,3.294-2.767,3.496C176.131,475.33,174.568,474.093,174.366,472.358z"/>
		<circle fill="#FFFFFF" cx="192.577" cy="476.103" r="4.221"/>
		<path fill="#FFFFFF" d="M236.232,490.751c-0.211-1.849,1.11-3.515,2.957-3.729c1.846-0.218,3.515,1.107,3.732,2.956
			c0.211,1.843-1.111,3.515-2.957,3.726C238.119,493.922,236.45,492.597,236.232,490.751z"/>
		<circle fill="#FFFFFF" cx="250.009" cy="489.709" r="3.395"/>
		<path fill="#FFFFFF" d="M111.247,455.629c-0.435-3.726,2.24-7.102,5.968-7.532c3.729-0.435,7.101,2.239,7.532,5.969
			c0.434,3.726-2.24,7.101-5.969,7.531C115.05,462.028,111.678,459.36,111.247,455.629z"/>
		<path fill="#FFFFFF" d="M81.51,431.189c-0.301-2.593,1.561-4.941,4.157-5.242c2.597-0.301,4.945,1.558,5.246,4.153
			c0.301,2.6-1.561,4.948-4.157,5.249C84.159,435.65,81.811,433.789,81.51,431.189z"/>
		<circle fill="#FFFFFF" cx="137.451" cy="414.165" r="2.124"/>
		<circle fill="#FFFFFF" cx="112.77" cy="398.49" r="3.104"/>
		<path fill="#FFFFFF" d="M79.946,387.633c-0.316-2.736,1.647-5.218,4.387-5.537c2.742-0.316,5.221,1.65,5.537,4.389
			c0.319,2.743-1.644,5.219-4.383,5.535C82.745,392.339,80.266,390.375,79.946,387.633z"/>
		<path fill="#FFFFFF" d="M61.501,379.347c-0.208-1.783,1.067-3.394,2.848-3.599c1.781-0.208,3.394,1.067,3.599,2.852
			c0.208,1.777-1.067,3.391-2.851,3.595C63.319,382.399,61.706,381.124,61.501,379.347z"/>
		<path fill="#FFFFFF" d="M30.712,363.641c-0.226-1.933,1.161-3.683,3.093-3.905c1.936-0.224,3.685,1.16,3.909,3.093
			c0.223,1.936-1.164,3.686-3.096,3.908C32.685,366.96,30.936,365.573,30.712,363.641z"/>
		<path fill="#FFFFFF" d="M59.652,361.891c-0.217-1.854,1.113-3.533,2.972-3.75c1.855-0.214,3.533,1.116,3.747,2.972
			c0.217,1.858-1.113,3.536-2.972,3.754C61.544,365.08,59.866,363.749,59.652,361.891z"/>
		<circle fill="#FFFFFF" cx="95.359" cy="346.068" r="3.571"/>
		<path fill="#FFFFFF" d="M117.504,328.881c-0.202-1.732,1.042-3.301,2.776-3.501c1.734-0.201,3.304,1.041,3.506,2.775
			c0.198,1.732-1.042,3.301-2.777,3.501C119.275,331.86,117.706,330.613,117.504,328.881z"/>
		<path fill="#FFFFFF" d="M133.322,302.752c-0.195-1.688,1.015-3.213,2.699-3.408c1.688-0.192,3.211,1.015,3.406,2.699
			c0.195,1.688-1.011,3.212-2.699,3.407C135.043,305.645,133.521,304.438,133.322,302.752z"/>
		<path fill="#FFFFFF" d="M66.517,342.92c-0.229-1.973,1.185-3.759,3.158-3.988c1.976-0.229,3.76,1.187,3.989,3.16
			c0.227,1.975-1.185,3.761-3.161,3.989C68.53,346.309,66.744,344.893,66.517,342.92z"/>
		<path fill="#FFFFFF" d="M60.316,296.856c-0.304-2.596,1.557-4.942,4.151-5.243c2.593-0.299,4.941,1.559,5.243,4.152
			c0.301,2.595-1.558,4.941-4.154,5.242C62.962,301.31,60.614,299.449,60.316,296.856z"/>
		<circle fill="#FFFFFF" cx="35.55" cy="293.048" r="5.791"/>
		<circle fill="#FFFFFF" cx="33.644" cy="276.835" r="3.451"/>
		<path fill="#FFFFFF" d="M0.994,231.709c-0.289-2.499,1.501-4.762,4.001-5.053c2.5-0.29,4.762,1.504,5.054,4.005
			c0.289,2.499-1.504,4.76-4.005,5.05C3.543,236,1.282,234.208,0.994,231.709z"/>
		<circle fill="#FFFFFF" cx="39.08" cy="179.232" r="3.737"/>
		<circle fill="#FFFFFF" cx="27.008" cy="146.468" r="4.001"/>
		<path fill="#FFFFFF" d="M63.195,86.822c-0.18-1.558,0.937-2.966,2.494-3.149c1.557-0.18,2.965,0.936,3.146,2.496
			c0.183,1.558-0.934,2.966-2.491,3.146C64.786,89.495,63.375,88.379,63.195,86.822z"/>
		<path fill="#FFFFFF" d="M118.661,131.094c-0.292-2.511,1.508-4.783,4.021-5.075c2.513-0.29,4.783,1.509,5.075,4.021
			c0.288,2.511-1.511,4.784-4.021,5.075C121.224,135.406,118.95,133.605,118.661,131.094z"/>
		<circle fill="#FFFFFF" cx="171.297" cy="156.56" r="2.825"/>
		<circle fill="#FFFFFF" cx="191.391" cy="117.232" r="5.731"/>
		<circle fill="#FFFFFF" cx="150.802" cy="84.179" r="8.029"/>
		<circle fill="#FFFFFF" cx="159.416" cy="50.181" r="7.009"/>
		<path fill="#FFFFFF" d="M212.234,37.688c-0.385-3.332,2.004-6.347,5.335-6.73c3.329-0.386,6.344,2.001,6.729,5.333
			c0.388,3.331-2,6.342-5.333,6.729C215.634,43.404,212.622,41.019,212.234,37.688z"/>
		<circle fill="#FFFFFF" cx="235.86" cy="59.433" r="2.323"/>
		<circle fill="#FFFFFF" cx="234.269" cy="94.289" r="4.076"/>
		<path fill="#FFFFFF" d="M227.069,156.692c-0.211-1.796,1.08-3.423,2.878-3.631c1.796-0.208,3.425,1.08,3.633,2.879
			c0.208,1.798-1.083,3.423-2.879,3.633C228.902,159.783,227.276,158.491,227.069,156.692z"/>
		<circle fill="#FFFFFF" cx="287.122" cy="117.639" r="6.366"/>
		<path fill="#FFFFFF" d="M311.373,141.33c-0.326-2.82,1.697-5.372,4.517-5.7c2.823-0.326,5.373,1.695,5.702,4.515
			c0.326,2.824-1.694,5.376-4.517,5.703C314.251,146.174,311.702,144.151,311.373,141.33z"/>
		<circle fill="#FFFFFF" cx="254.279" cy="186.719" r="4.139"/>
		<path fill="#FFFFFF" d="M303.165,179.8c-0.18-1.578,0.949-3.006,2.528-3.189c1.579-0.183,3.009,0.948,3.192,2.526
			c0.183,1.581-0.949,3.006-2.528,3.191C304.777,182.511,303.351,181.377,303.165,179.8z"/>
		<circle fill="#FFFFFF" cx="304.235" cy="85.661" r="4.522"/>
		<circle fill="#FFFFFF" cx="266.658" cy="97.479" r="2.836"/>
		<path fill="#FFFFFF" d="M248.107,11.249c-0.18-1.546,0.931-2.948,2.479-3.125c1.548-0.182,2.95,0.931,3.13,2.479
			c0.177,1.546-0.931,2.947-2.482,3.125C249.689,13.908,248.288,12.8,248.107,11.249z"/>
		<path fill="#FFFFFF" d="M209.92,13.023c-0.344-2.978,1.793-5.672,4.771-6.018c2.978-0.346,5.67,1.79,6.018,4.768
			c0.344,2.981-1.79,5.674-4.768,6.02C212.96,18.139,210.268,16.002,209.92,13.023z"/>
		<circle fill="#FFFFFF" cx="188.497" cy="15.624" r="5.824"/>
		<circle fill="#FFFFFF" cx="120.862" cy="41.516" r="3.19"/>
		<path fill="#FFFFFF" d="M91.958,63.793c-0.329-2.837,1.703-5.401,4.542-5.731c2.835-0.327,5.397,1.707,5.727,4.542
			c0.329,2.834-1.703,5.401-4.539,5.729C94.852,68.662,92.287,66.629,91.958,63.793z"/>
		<path fill="#FFFFFF" d="M107.146,75.588c-0.208-1.782,1.067-3.391,2.848-3.597c1.781-0.205,3.391,1.07,3.599,2.848
			c0.205,1.781-1.07,3.389-2.851,3.596C108.961,78.642,107.351,77.367,107.146,75.588z"/>
		<circle fill="#FFFFFF" cx="77.744" cy="211.953" r="2.954"/>
		<path fill="#FFFFFF" d="M82.903,163.45c-0.307-2.646,1.588-5.038,4.231-5.345c2.646-0.307,5.038,1.588,5.345,4.234
			c0.304,2.643-1.588,5.033-4.234,5.342C85.602,167.988,83.21,166.093,82.903,163.45z"/>
		<circle fill="#FFFFFF" cx="110.991" cy="202.075" r="5.457"/>
		<circle fill="#FFFFFF" cx="147.144" cy="230.803" r="7.225"/>
		<path fill="#FFFFFF" d="M196.9,209.624c-0.14-1.207,0.729-2.302,1.939-2.441c1.207-0.139,2.302,0.728,2.441,1.936
			c0.139,1.21-0.726,2.303-1.936,2.443C198.135,211.704,197.04,210.833,196.9,209.624z"/>
		<path fill="#FFFFFF" d="M152.54,196.633c-0.217-1.888,1.135-3.597,3.025-3.814c1.889-0.219,3.598,1.132,3.815,3.021
			c0.217,1.891-1.135,3.599-3.021,3.817C154.466,199.877,152.76,198.521,152.54,196.633z"/>
		<circle fill="#FFFFFF" cx="57.884" cy="257.653" r="3.21"/>
		<circle fill="#FFFFFF" cx="112.322" cy="251.32" r="4.776"/>
		<path fill="#FFFFFF" d="M0.376,231.782c-0.329-2.845,1.706-5.413,4.547-5.744c2.842-0.327,5.41,1.708,5.742,4.548
			c0.329,2.845-1.709,5.413-4.551,5.744C3.273,236.659,0.705,234.621,0.376,231.782z"/>
		<circle fill="#FFFFFF" cx="151.845" cy="271.371" r="5.681"/>
		<path fill="#FFFFFF" d="M12.028,312.344c-0.202-1.75,1.052-3.335,2.801-3.538c1.753-0.2,3.335,1.052,3.54,2.803
			c0.202,1.751-1.055,3.335-2.804,3.538S12.232,314.093,12.028,312.344z"/>
		<path fill="#FFF701" d="M332.455,199.655c-0.264-2.28,1.371-4.34,3.648-4.605c2.28-0.264,4.343,1.37,4.604,3.649
			c0.267,2.277-1.368,4.339-3.648,4.603C334.781,203.567,332.722,201.935,332.455,199.655z"/>
		<circle fill="#FFF701" cx="293.459" cy="235.541" r="4.33"/>
		<path fill="#FFF701" d="M345.732,136.725c-0.552-4.73,2.842-9.012,7.569-9.559c4.731-0.549,9.012,2.843,9.561,7.572
			c0.546,4.732-2.845,9.012-7.576,9.558C350.559,144.845,346.278,141.454,345.732,136.725z"/>
		<path fill="#FFF701" d="M341.048,82.108c-0.273-2.333,1.402-4.442,3.735-4.712c2.333-0.271,4.442,1.4,4.712,3.733
			c0.27,2.333-1.402,4.442-3.735,4.713C343.43,86.113,341.318,84.441,341.048,82.108z"/>
		<path fill="#FFF701" d="M285.296,16.07c-0.341-2.973,1.787-5.661,4.759-6.004c2.972-0.346,5.662,1.784,6.006,4.757
			c0.344,2.974-1.787,5.662-4.759,6.004C288.33,21.173,285.644,19.043,285.296,16.07z"/>
		<circle fill="#FFF701" cx="208.49" cy="12.917" r="4.203"/>
		<path fill="#FFF701" d="M243.411,3.542c0.254,2.196-1.321,4.183-3.515,4.435c-2.196,0.257-4.182-1.317-4.436-3.512
			c-0.254-2.196,1.318-4.185,3.515-4.438C241.171-0.227,243.156,1.347,243.411,3.542z"/>
		<circle fill="#FFF701" cx="298.972" cy="7.822" r="6.247"/>
		<circle fill="#FFF701" cx="343.374" cy="45.137" r="4.753"/>
		<circle fill="#FFF701" cx="323.358" cy="28.089" r="2.79"/>
		<path fill="#FFF701" d="M265.43,9.242c0.267,2.292-1.377,4.366-3.667,4.633c-2.292,0.264-4.368-1.377-4.635-3.67
			c-0.264-2.292,1.377-4.366,3.67-4.63C263.091,5.309,265.163,6.953,265.43,9.242z"/>
		<circle fill="#FFF701" cx="250.848" cy="10.377" r="3.112"/>
		<circle fill="#FFF701" cx="382.86" cy="45.241" r="6.341"/>
		<circle fill="#FFF701" cx="414.646" cy="69.439" r="3.772"/>
		<path fill="#FFF701" d="M365.564,85.674c0.14,1.191-0.716,2.269-1.908,2.409c-1.191,0.137-2.271-0.716-2.407-1.911
			c-0.14-1.19,0.713-2.27,1.908-2.407C364.348,83.628,365.428,84.481,365.564,85.674z"/>
		<path fill="#FFF701" d="M390.918,101.267c0.183,1.568-0.937,2.983-2.503,3.165c-1.567,0.183-2.981-0.941-3.161-2.507
			c-0.183-1.565,0.937-2.981,2.503-3.161C389.323,98.579,390.738,99.704,390.918,101.267z"/>
		<circle fill="#FFF701" cx="415.948" cy="113.027" r="4.283"/>
		<circle fill="#FFF701" cx="436.132" cy="121.117" r="3.276"/>
		<path fill="#FFF701" d="M470.047,136.458c0.217,1.878-1.129,3.578-3.009,3.797c-1.877,0.216-3.577-1.13-3.794-3.009
			c-0.22-1.878,1.126-3.579,3.006-3.794C468.13,133.233,469.83,134.581,470.047,136.458z"/>
		<path fill="#FFF701" d="M441.582,138.152c0.242,2.066-1.238,3.934-3.304,4.172s-3.934-1.241-4.172-3.307
			c-0.239-2.063,1.241-3.933,3.307-4.172C439.479,134.606,441.346,136.084,441.582,138.152z"/>
		<circle fill="#FFF701" cx="308.357" cy="24.36" r="3.435"/>
		<path fill="#FFF701" d="M409.531,153.551c0.257,2.229-1.34,4.242-3.564,4.501c-2.227,0.256-4.241-1.34-4.498-3.566
			c-0.257-2.226,1.337-4.239,3.564-4.498C407.257,149.732,409.27,151.328,409.531,153.551z"/>
		<path fill="#FFF701" d="M382.645,171.289c0.155,1.342-0.81,2.556-2.15,2.711c-1.343,0.158-2.559-0.805-2.714-2.149
			c-0.155-1.343,0.807-2.556,2.15-2.711C381.273,168.982,382.486,169.946,382.645,171.289z"/>
		<circle fill="#FFF701" cx="364.481" cy="197.69" r="3.007"/>
		<path fill="#FFF701" d="M434.305,157.173c0.223,1.951-1.176,3.721-3.127,3.944c-1.955,0.228-3.72-1.173-3.946-3.127
			c-0.226-1.952,1.173-3.717,3.127-3.943C432.31,153.821,434.075,155.218,434.305,157.173z"/>
		<circle fill="#FFF701" cx="435.845" cy="203.777" r="4.964"/>
		<path fill="#FFF701" d="M472.2,206.242c0.44,3.805-2.289,7.249-6.092,7.69c-3.81,0.442-7.253-2.288-7.693-6.093
			c-0.441-3.806,2.289-7.25,6.092-7.691C468.316,199.708,471.76,202.435,472.2,206.242z"/>
		<path fill="#FFF701" d="M470.68,222.851c0.22,1.917-1.151,3.647-3.065,3.872c-1.917,0.22-3.648-1.152-3.871-3.065
			c-0.221-1.917,1.15-3.646,3.064-3.872C468.726,219.566,470.457,220.939,470.68,222.851z"/>
		<circle fill="#FFF701" cx="495.336" cy="268.903" r="4.322"/>
		<path fill="#FFF701" d="M465.503,320.425c0.239,2.058-1.238,3.918-3.294,4.156c-2.057,0.239-3.921-1.234-4.16-3.292
			c-0.236-2.059,1.238-3.922,3.297-4.16C463.403,316.89,465.264,318.366,465.503,320.425z"/>
		<circle fill="#FFF701" cx="473.849" cy="353.621" r="3.877"/>
		<circle fill="#FFF701" cx="434.841" cy="413.591" r="2.914"/>
		<path fill="#FFF701" d="M381.968,369.02c0.276,2.386-1.433,4.542-3.819,4.817c-2.386,0.279-4.542-1.433-4.821-3.815
			c-0.273-2.386,1.437-4.545,3.822-4.82C379.533,364.925,381.692,366.634,381.968,369.02z"/>
		<path fill="#FFF701" d="M333.075,343.12c0.224,1.941-1.167,3.694-3.108,3.921c-1.938,0.225-3.694-1.166-3.921-3.105
			c-0.224-1.941,1.167-3.694,3.108-3.923C331.093,339.791,332.849,341.181,333.075,343.12z"/>
		<circle fill="#FFF701" cx="309.465" cy="382.855" r="5.824"/>
		<path fill="#FFF701" d="M358.78,414.897c0.558,4.817-2.895,9.179-7.712,9.737c-4.821,0.562-9.183-2.897-9.741-7.715
			c-0.559-4.82,2.897-9.18,7.718-9.737C353.863,406.624,358.221,410.076,358.78,414.897z"/>
		<circle fill="#FFF701" cx="341.44" cy="449.908" r="6.516"/>
		<path fill="#FFF701" d="M288.221,462.447c0.36,3.111-1.867,5.922-4.979,6.285c-3.111,0.359-5.925-1.871-6.285-4.982
			c-0.36-3.108,1.868-5.922,4.979-6.282C285.048,457.108,287.861,459.339,288.221,462.447z"/>
		<path fill="#FFF701" d="M267.552,440.359c0.161,1.409-0.85,2.687-2.258,2.852c-1.415,0.164-2.693-0.848-2.854-2.259
			c-0.165-1.414,0.847-2.689,2.258-2.854C266.112,437.934,267.387,438.945,267.552,440.359z"/>
		<path fill="#FFF701" d="M270.977,405.29c0.282,2.423-1.455,4.616-3.878,4.898c-2.426,0.279-4.616-1.455-4.898-3.881
			c-0.282-2.423,1.455-4.619,3.88-4.896C268.504,401.13,270.697,402.864,270.977,405.29z"/>
		<path fill="#FFF701" d="M273.868,343.385c0.211,1.843-1.107,3.508-2.947,3.72c-1.843,0.211-3.506-1.104-3.72-2.947
			c-0.214-1.839,1.107-3.505,2.944-3.718C271.988,340.226,273.654,341.544,273.868,343.385z"/>
		<circle fill="#FFF701" cx="213.736" cy="382.449" r="6.224"/>
		<path fill="#FFF701" d="M189.496,358.755c0.326,2.826-1.7,5.385-4.529,5.714c-2.826,0.326-5.385-1.7-5.711-4.525
			c-0.329-2.83,1.697-5.386,4.526-5.715C186.61,353.903,189.167,355.929,189.496,358.755z"/>
		<circle fill="#FFF701" cx="246.577" cy="313.371" r="4.077"/>
		<circle fill="#FFF701" cx="194.831" cy="320.619" r="2.554"/>
		<circle fill="#FFF701" cx="164.275" cy="300.911" r="4.225"/>
		<circle fill="#FFF701" cx="207.398" cy="264.548" r="4.182"/>
		<circle fill="#FFF701" cx="249.347" cy="250.916" r="5.198"/>
		<circle fill="#FFF701" cx="146.562" cy="364.355" r="7.913"/>
		<path fill="#FFF701" d="M201.662,413.84c0.323,2.785-1.672,5.301-4.455,5.627c-2.786,0.319-5.305-1.672-5.627-4.458
			c-0.322-2.782,1.675-5.302,4.458-5.624S201.339,411.057,201.662,413.84z"/>
		<circle fill="#FFF701" cx="155.586" cy="418.469" r="5.187"/>
		<path fill="#FFF701" d="M237.157,402.266c0.192,1.635-0.98,3.111-2.615,3.301c-1.635,0.192-3.112-0.98-3.304-2.615
			c-0.187-1.635,0.983-3.111,2.618-3.304C235.491,399.461,236.971,400.631,237.157,402.266z"/>
		<circle fill="#FFF701" cx="193.195" cy="460.614" r="5.713"/>
		<path fill="#FFF701" d="M244.49,480.442c0.167,1.439-0.862,2.745-2.305,2.913s-2.746-0.868-2.913-2.308
			c-0.167-1.442,0.866-2.746,2.308-2.913C243.02,477.971,244.323,479.003,244.49,480.442z"/>
		<path fill="#FFF701" d="M289.98,487.171c0.285,2.457-1.471,4.672-3.924,4.958c-2.451,0.281-4.669-1.474-4.954-3.928
			c-0.286-2.451,1.473-4.669,3.927-4.954C287.48,482.965,289.698,484.724,289.98,487.171z"/>
		<path fill="#FFF701" d="M319.047,483.688c0.428,3.691-2.218,7.032-5.913,7.464c-3.691,0.428-7.033-2.222-7.458-5.913
			c-0.431-3.691,2.215-7.032,5.91-7.464C315.278,477.35,318.619,479.996,319.047,483.688z"/>
		<path fill="#FFF701" d="M382.803,458.247c0.18,1.548-0.931,2.95-2.482,3.13c-1.551,0.18-2.953-0.934-3.133-2.479
			c-0.177-1.551,0.934-2.953,2.481-3.134C381.221,455.585,382.623,456.695,382.803,458.247z"/>
		<circle fill="#FFF701" cx="403.765" cy="436.89" r="4.455"/>
		<path fill="#FFF701" d="M393.952,424.474c0.224,1.911-1.147,3.642-3.062,3.862c-1.911,0.22-3.642-1.147-3.862-3.059
			c-0.223-1.914,1.148-3.646,3.059-3.862C392,421.191,393.729,422.562,393.952,424.474z"/>
		<circle fill="#FFF701" cx="423.112" cy="288.133" r="2.923"/>
		<circle fill="#FFF701" cx="413.168" cy="337.194" r="4.745"/>
		<circle fill="#FFF701" cx="389.866" cy="298.013" r="5.846"/>
		<circle fill="#FFF701" cx="353.714" cy="269.287" r="6.274"/>
		<path fill="#FFF701" d="M304.123,290.442c0.152,1.303-0.782,2.479-2.085,2.631c-1.3,0.148-2.479-0.78-2.63-2.082
			c-0.149-1.304,0.785-2.479,2.084-2.634C302.792,288.209,303.971,289.141,304.123,290.442z"/>
		<circle fill="#FFF701" cx="344.897" cy="303.85" r="3.688"/>
		<circle fill="#FFF701" cx="442.972" cy="242.434" r="3.292"/>
		<circle fill="#FFF701" cx="388.535" cy="248.769" r="4.956"/>
		<path fill="#FFF701" d="M355.433,227.973c0.409,3.544-2.131,6.755-5.677,7.163c-3.545,0.413-6.753-2.13-7.163-5.674
			c-0.41-3.546,2.128-6.755,5.677-7.165C351.812,221.887,355.02,224.427,355.433,227.973z"/>
		<path fill="#FFF701" d="M488.871,187.74c0.205,1.773-1.067,3.376-2.842,3.583c-1.771,0.205-3.375-1.066-3.579-2.838
			c-0.205-1.771,1.063-3.378,2.838-3.582C487.06,184.696,488.663,185.968,488.871,187.74z"/>
	</g>
	<polygon opacity="0.2" fill="#F3F3F3" points="229.876,484.578 183.279,464.86 146.996,432.639 129.835,366.997 150.539,298.021 
		196.624,257.654 273.492,234.968 330.642,196.848 342,148.026 342,84.919 308.936,38.894 258.507,17.311 213.029,19.641 
		176.642,26.538 123.249,48.652 100.986,67.448 70.099,94.149 33.619,154.052 14.469,230.8 24.184,310.691 41.408,359.775 
		92.166,423.968 122.737,446.998 	"/>
</g>
</svg>
