<?xml version="1.0" encoding="utf-8"?>
<!-- Generator: Adobe Illustrator 16.0.4, SVG Export Plug-In . SVG Version: 6.00 Build 0)  -->
<!DOCTYPE svg PUBLIC "-//W3C//DTD SVG 1.1//EN" "http://www.w3.org/Graphics/SVG/1.1/DTD/svg11.dtd">
<svg version="1.1" id="レイヤー_1" xmlns="http://www.w3.org/2000/svg" xmlns:xlink="http://www.w3.org/1999/xlink" x="0px"
	 y="0px" width="500px" height="500px" viewBox="0 0 500 500" enable-background="new 0 0 500 500" xml:space="preserve">
<g>
	<path fill="#FFFFFF" d="M354.68,135.895l-0.002-0.003l0.286-0.254l-0.342,0.041l0.109-0.381l-0.171,0.151l-9.71-53.874l0.061-0.007
		l-0.079-0.097l-0.003-0.018l0.561-0.353l-0.528,0.062l0.142-0.297l-0.338,0.213l-0.059-0.326l-0.088,0.186L291.04,15.42
		l0.156-0.124l-0.147-0.016l0.657-0.907l-0.649,0.513l0.154-0.52l-0.42,0.578l-0.068-0.361l-0.129,0.436l-0.264-0.322l0.079,0.421
		l-39.479-4.196l0.099-0.307l-0.347,0.273l-35.667,1.057l-0.051,0.01l-26.522,3.126l0.085-0.104l-0.35,0.135l-0.342,0.041
		c0,0,0,0,0,0l-0.017,0l-0.012,0.004l-0.079,0.009l-0.026,0.032l-0.238,0.092l-0.127,0.015l0.031,0.022L120.778,41.14l0.06-0.196
		l-0.33,0.3l-0.151,0.059l-0.052,0.005l-0.003,0.002l-0.003,0l-0.007,0.006l-0.092,0.013l-0.027,0.088l-0.125,0.104l-0.314,0.122
		l0.131,0.03L64.892,87.312l-0.048,0.019l-0.043,0.066l-0.104,0.094l0.017,0.042l-0.042,0.064l-0.547,0.42l0.333-0.086
		l-37.451,58.181l-0.047-0.137l-0.087,0.345l-0.069,0.106l-0.009,0.002l-0.123-0.033l0.049,0.142l-0.01,0.039l-0.049,0.08
		l0.007,0.02l-0.016,0.033l-0.092,0.078l0.09,0.024l-0.009,0.038l-0.573,0.89l0.444-0.378L5.286,231.48l-0.162-0.26l0.073,0.614
		l-0.014,0.054l-0.071,0.027l0.018,0.147l-0.029,0.067l0.03,0.049L5.12,232.27l0.037,0.021l0.006,0.051l-0.248,0.984l0.306-0.493
		l9.363,79.389l-0.023,0.033l0.009,0.024l-0.072,0.141l0.074,0.04l-0.422,0.781l0.581-0.525l0.008,0.021l0.026,0.217l0.032-0.06
		l18.589,50.787l-0.233-0.117l0.327,0.417l-0.366,0.023l0.327,0.165l-0.423,0.242l0.532-0.033l-0.124,0.271l0.235-0.135
		l-0.015,0.626l0.206-0.449l0.199,0.543l0.009-0.361l52.552,67.121l0.017,0.14l0.069,0.01l0.01,0.296l0.131-0.166l0.295,0.708
		l-0.016-0.488l0.542,0.691l-0.221-0.529l29.962,22.428l0,0.001l0.056,0.041l0.012,0.009l-0.158,0.322l0.278-0.146l0.035,0.427
		l0.197-0.401l0.183,0.08l0.001,0.001l0,0l84.202,37.023l0.005,0.081l0.09,0.007h0l0.07,0.005l0.008,0.007h0.087l0.016,0.001
		l0.425,0.452l-0.112-0.394l0.521,0.229l-0.231-0.245l59.024,4.18l0.018,0.001l0.169-0.007l0.011-0.021l0.063-0.01l0.01-0.04
		l0.691,0.05l-0.342-0.183l22.896-8.583c0.091-0.025,0.159-0.092,0.193-0.169l1.041-0.39l-1.083,0.06l-0.033-0.092l-36.317,1.992
		l-56.032-29.815c0,0,0-0.001-0.001-0.001l-40.752-21.5l-1.299-0.687l-4.473-72.872l0.016-0.012l-0.019-0.115l18.128-63.27
		l0.02-0.116l-12.788-29.362l55.147-6.776h0.025l0.016-0.006c0.036-0.001,0.084-0.016,0.136-0.046l41.574-14.05l0.13,0.108
		l0.01-0.133l43.559-13.989l-0.032,0.148l0.252-0.218l0.062-0.021l0.124,0.147l0.042-0.2l0.022-0.019l0.091-0.052l0.007-0.032
		l0.057-0.049l0.016-0.005l-0.004-0.005l42.79-37.051l0.019,0.012l0.01-0.038l0.037-0.031l0.082-0.04l0.06-0.207l0.028-0.025
		l-0.018-0.012l18.157-63.022L354.68,135.895z M193.731,460.409l54.552,29.025l-8.015,0.439l-41.548-11.938l-1.141-4.007
		L193.731,460.409z M117.411,454.351l-30.099-22.528l25.572-32.487l1.494,18.144L117.411,454.351z M335.655,199.103l-42.055,36.413
		l10.54-48.827l1.512-6.999l12.138,7.853L335.655,199.103z M292.62,236.174l-43.212,13.855l4.628-62.079l23.571,29.459
		L292.62,236.174z M85.775,429.972l-50.849-64.95l30.102,15.189l0.005,0.017l0.013,0.005l0.063,0.151l0.01,0.086l0.018-0.02
		l6.296,15.106L85.775,429.972z M13.953,246.381l19.371,31.187l-18.249,33.76L5.884,233.39L13.953,246.381z M77.1,77.948
		l33.481-27.794L95.815,63.589l-0.002,0.002l-0.407,0.312L77.1,77.948z M216.271,25.35l1.291,10.941l-11.408-8.151l-17.476-12.488
		l26.083-3.078L216.271,25.35z M239.909,19.25l-21.74,17.108l-2.812-23.825l34.383-1.021L239.909,19.25z M289.925,15.664
		l-54.238,42.833l15.154-46.987L289.925,15.664z M291.188,16.538l52.761,64.64l-39.637,4.676l-8.579-45.31L291.188,16.538z
		 M187.938,15.849l10.399,7.43l18.89,13.499l-37.708,8.739l-19.389,4.492l23.179-28.473L187.938,15.849z M353.437,136.321
		l-7.819,6.925l-39.604,35.066l10.665-37.655l18.787-2.218L353.437,136.321z M147.417,430.919l-9.673-16.102l0.03-0.08l-0.029-0.02
		l8.669-47.894l4.271,69.535L147.417,430.919z M201.861,491.148l-15.06-16.016l11.437,3.286L201.861,491.148z M27.61,146.55
		l81.825-69.791l-21.958,85.77l-3.333-0.889L27.61,146.55z M241.963,37.096l-6.971,21.615l-2.153-2.812l-14.449-18.874l0.03-0.007
		l-0.067-0.048l31.694-24.946L241.963,37.096z M123.102,451.857l-4.674,2.448l19.018-38.83l12.899,21.471l-0.273-0.145l0.518,0.551
		l0.049,0.081L123.102,451.857z M137.212,414.36l-23.78-15.949l7.763-69.057l25.052,35.072L137.212,414.36z M86.564,412.898
		l-0.809-24.674l26.878,10.465l-25.472,32.361L86.564,412.898z M289.902,17.021l-23.711,80.006l-32.188-2.96l11.055-15.238
		L289.902,17.021z M112.643,398.054l-14.68-5.715l-12.167-4.738l10.398-40.43l3.693,11.425L112.643,398.054z M100.35,358.094
		l-3.795-11.743h0l-0.001-0.002l-0.042-0.13l0.228-0.161l0.048-0.034l0.093-0.046l-0.024-0.003l23.761-16.796l-7.641,67.976
		L100.35,358.094z M35.122,363.779l10.055-5.774l24.45-14.04l-6.653,18.066l-16.132,1.014L35.122,363.779z M52.527,238.766
		l4.809,19.534l-0.293,0.034l0.19,0.108L33.994,276.92l4.4-95.56L52.527,238.766z M122.305,130.443l0.039,0.168l-16.708,15.371
		l-17.407,16.012l21.713-84.818L122.305,130.443z M315.926,141.144L305.22,178.94l-50.29,7.759L315.926,141.144z M151.344,271.637
		l-14.564,31.096l-24.173-50.029l38.794,18.812l-0.051,0.109l-0.009,0.012H151.344z M256.55,138.062l-25.732,17.601l4.262-6.916
		l31.383-50.921l19.629,20.031L256.55,138.062z M90.525,310.594l-24.167-13.976l55.974,5.644l13.946,1.406l-15.389,24.482
		L90.525,310.594z M120.438,328.578l-23.903,16.898l0.029-0.113l-0.239,0.262l-0.077,0.055l-0.02-0.032l-0.088-0.272l-0.024,0.094
		l-2.26-3.621l-27.959-44.809l31.021,17.938L120.438,328.578z M198.605,208.775l-42.707-12.078l15.675-38.524l6.576,12.309
		L198.605,208.775z M153.738,202.718l-6.894,27.646l-24.218-18.999l-11.41-8.952l8.755-1.033l35.134-4.143L153.738,202.718z
		 M70.447,342.916l-4.997-45.471l30.136,48.298l-4.373-0.472l-20.711-2.235l0.071-0.192L70.447,342.916z M167.343,144.455
		l3.703,12.413l-47.963-26.266l26.558-45.491L167.343,144.455z M110.18,202.662l1.466,48.585l-4.205-4.767l-29.606-33.572
		l32.344-10.303l0.001,0.041l-0.003,0.019L110.18,202.662z M150.289,85.205l34.119,27.622l5.747,4.654l-0.074,0.157l-0.296,0.385
		l0.152-0.082l-18.338,38.708l-6.927-23.221L150.289,85.205z M111.552,201.775l59.315-43.442l-15.582,38.285l-36.283,4.281
		L111.552,201.775z M122.895,131.176l48.09,26.334l-60.107,44.021L122.895,131.176z M195.231,201.2l-23.355-43.722l0.039-0.028
		l-0.028-0.015l18.445-38.936l8.431,89.31L195.231,201.2z M191.019,117.469l33.205-17.854l8.903-4.787l-3.556,61.191l-12.219-12.218
		L191.019,117.469z M77.398,213.316l33.973,38.517l-18.522,2.186l-34.688,4.092l0.031-0.072l0.3-0.477l-0.145,0.115l6.503-15.146
		L77.398,213.316z M230.194,155.539l1.753-30.169l1.787-30.731l32.169,2.957l-20.719,33.621L230.194,155.539z M234.31,59.883
		l-43.643,56.839l-0.008-0.082l-0.115,0.241l-0.069,0.09l-40.112-32.474l67.839-19.893L234.31,59.883z M87.823,163.712
		l22.199,38.322l-32.318,10.294l3.248-15.603L87.823,163.712z M58.097,259.041l77.32,43.946l-35.608-3.59l-34.546-3.485
		l-5.819-29.942L58.097,259.041z M70.389,343.619l24.725,2.671l-14.896,7.324l-16.497,8.11l0.919-2.495L70.389,343.619z
		 M112.25,251.544l-0.776-25.725l-0.692-22.99l35.716,28.022l-15.996,9.666L112.25,251.544z M110.31,201.347l-13.322-22.994
		l-8.907-15.376l0.32-0.106l-0.191-0.051l34.021-31.298L110.31,201.347z M136.104,302.693l-77.49-44.041l5.87-0.692l47.29-5.575
		l0.001,0.031l0.025-0.015l12.104,25.043L136.104,302.693z M199.405,208.303l-8.507-90.118l33.777,33.776l4.76,4.76l-0.519,0.355
		l0.392-0.074l-6.19,10.62L199.405,208.303z M253.85,186.765l-23.484-29.867l56.557-10.652l28.322-5.333l-20.356,15.204
		L253.85,186.765z M231.165,156.145l55.375-37.877l29.192,21.949l-83.381,15.705L231.165,156.145z M217.351,102.637l-25.743,13.838
		l42.608-55.496l0.542-0.707l-1.591,33.86L217.351,102.637z M151.397,83.57l66.474-46.243l16.73,21.851l-58.294,17.089
		L151.397,83.57z M110.352,76.311l36.777,7.809l1.994,0.423l-0.534,0.371l0.574-0.168l-20.715,35.486l-5.656,9.688l-0.322-1.388
		L110.352,76.311z M38.702,180.126l35.68,30.523l2.569,2.197l-4.795,11.168L57.76,257.533l-2.896-11.76L38.702,180.126z
		 M94.889,347.06l-29.401,32.264l-1.984-16.831L94.889,347.06z M155.707,197.262l42.585,12.043l-50.84,21.078L155.707,197.262z
		 M149.538,83.953l-0.192-0.155l0.059,0.198l-14.786-3.138l-23.784-5.049l48.041-24.735L149.538,83.953z M87.293,163.335
		L84.5,176.768l-7.376,35.443l-38.327-32.785l48.309-16.028L87.293,163.335z M62.503,284.813l2.12,10.91l-0.217-0.126l0.155,0.248
		l-28.493-2.502l21.467-34.083L62.503,284.813z M69.875,343.14l-35.346,20.299l30.306-66.152L69.875,343.14z M229.866,157.224
		l18.688,23.766l4.754,6.047L199.89,208.65L229.866,157.224z M303.46,86.67l-16.979,30.739l-11.728-11.97l-7.788-7.951l30.927-9.169
		L303.46,86.67z M56.502,259.782l-20.748,32.942l-1.775-15.037L56.502,259.782z M65.784,379.878l11.914-13.074l17.881-19.618
		l-10.338,40.2l-7.51-2.896L65.784,379.878z M151.437,270.872l-38.848-18.836l34.192-20.66l1.375,11.664L151.437,270.872z
		 M216.498,37.558l-11.701,8.14l-54.552,37.947l9.343-32.899l26.446-6.129L216.498,37.558z M62.927,362.672l1.983,16.812
		l-29.924-15.097l27.864-1.749l-0.032,0.087L62.927,362.672z M121.347,328.547l0.017-0.012l-0.011-0.006l3.263-5.193l12-19.089
		l8.7,54.223l0.752,4.687L121.347,328.547z M137.157,303.867l0.096,0.055l-0.125-0.258l0.598,0.06l-0.596-0.338l14.282-30.49
		l-4.992,88.702l-2.099-13.078L137.157,303.867z M316.337,139.926l-29.266-22.001l56.739-35.718l-2.159,4.538L316.337,139.926z
		 M343.248,81.856l-11.746,7.395l-44.137,27.786l2.147-3.887l14.746-26.695l6.517-0.769L343.248,81.856z M267.468,96.723
		l-0.619,0.184l23.765-80.197l13.116,69.262L267.468,96.723z M233.799,93.333l1.589-33.809l0.001-0.036l0.043-0.034l0.01-0.003
		l-0.002-0.003l53.733-42.437L233.799,93.333z M158.493,50.601l-48.048,24.736l7.426-24.35l2.758-9.043l2.577,0.589L158.493,50.601z
		 M96.463,63.805l23.366-21.266l-10.023,32.863L96.463,63.805z M109.334,75.776l-42.952,11.14L96.004,64.19l6.352,5.518
		L109.334,75.776z M86.651,162.923l-48.238,15.991l0.018-0.386l-0.124,0.199l-0.166-0.484l-0.088-0.357l-0.004,0.089L27.45,147.121
		l7.328,1.956L86.651,162.923z M35.846,293.923l28.72,2.521l-20.35,44.42l-10.015,21.858l0.666-27.878L35.846,293.923z
		 M152.045,270.56l0.013-0.223l-0.069,0.146l-4.649-39.412l50.947-21.122l-11.049,14.483L152.045,270.56z M250.697,188.748
		l2.765-1.117l-4.634,62.221l-49.059-40.513L250.697,188.748z M5.783,232.105l32.059-51.681l-4.43,96.163L9.37,237.879
		L5.783,232.105z M15.976,310.913l17.506-32.387l0.45,3.811l1.313,11.143l-15.354,13.893L15.976,310.913z M65.813,380.528l8.66,3.34
		l10.655,4.111v0.001l0.024,0.01l1.389,42.276l-10.46-25.099L65.813,380.528z M305.072,179.567l-12.11,56.084l-38.615-48.259
		L305.072,179.567z M113.463,399.146l23.576,15.809l-19.07,38.933l-2.021-24.539L113.463,399.146z M149.204,438.854l1.787-0.937
		l0.134,0.143l0.185,0.309l-0.007-0.119l33.581,35.711l-66.299-19.049L149.204,438.854z M198.913,478.613l39.539,11.36l-35.747,1.96
		L198.913,478.613z M259.312,495.967l-52.097-3.687l32.972-1.809L259.312,495.967z M198.046,477.742L186,474.282l-33.511-35.638
		l40.513,21.377l1.775,6.235L198.046,477.742z M316.949,140.026l27.44-57.657l9.605,53.288L316.949,140.026z M181.892,22.335
		l-22.657,27.829l-37.799-8.644l65.51-25.394L181.892,22.335z M32.608,163.96l5.235,15.24l-0.057,0.019l0.068,0.059L6.188,230.323
		l20.844-82.591L32.608,163.96z M22.913,305.436l12.329-11.153l-1.629,68.304l-18.375-50.205L22.913,305.436z M185.684,474.812
		l15.582,16.569l-79.343-34.89L185.684,474.812z M242.004,490.372l7.291-0.399l10.193,5.423L242.004,490.372z M199.005,209.991
		l4.866,32.795l3.189,21.502l-54.601,6.708L199.005,209.991z M199.604,209.974l48.875,40.364l-40.84,13.814L199.604,209.974z
		 M313.168,183.844l-7.225-4.674l47.83-42.354l-17.8,61.783L313.168,183.844z M65.232,87.827l43.55-11.293L49.169,127.38
		l-20.842,17.775L65.232,87.827z M262.146,496.14l-11.709-6.229l33.188-1.82L262.146,496.14z M147.007,361.719l1.334-23.697
		l3.683-65.383l12.372,28.402L147.007,361.719z"/>
	<path fill="#FFF701" d="M495.711,267.889l-0.018-0.146l0.247-0.977l-0.304,0.489l-9.365-79.377l0.027-0.038l-0.05-0.135
		c0-0.002,0.002-0.005,0.001-0.007l0.46-0.853l-0.582,0.527l-0.012-0.033l-0.025-0.209l-0.03,0.057l-18.586-50.782l0.234,0.118
		l-0.324-0.414l0.358-0.022l-0.332-0.167l0.433-0.249l-0.53,0.034l0.122-0.267l-0.238,0.137l0.015-0.627l-0.205,0.448l-0.199-0.544
		l-0.009,0.359l-52.584-67.167l-0.007-0.022l-0.028-0.021l-0.018-0.025l-0.011-0.33l-0.129,0.164l-0.294-0.704l0.017,0.495
		l-0.545-0.695l0.22,0.527l-29.543-22.115l0.222,0.003l-0.526-0.231l-0.18-0.135l0.024-0.05l-0.036,0l-0.102-0.045l-0.042-0.512
		l-0.199,0.406l-0.17-0.075l-0.013-0.01v0.004l-84.302-37.07l-0.041-0.046l-0.054-0.004l-0.006-0.003h-0.011l-0.001,0h-0.039H298.4
		c-0.001,0-0.001,0-0.001,0l-0.071-0.005l-0.788-0.649l0.312,0.499l-0.742-0.327l0.519,0.427l-58.895-4.169h0h-0.003c0,0,0,0,0,0
		c0,0,0,0,0,0l-0.015,0.002l-0.01,0l-0.019,0.005l-0.188,0.027L238.484,3.4l-30.174,9.146l-0.218,0.119l0.005,0.045l-1.365,0.415
		l1.429-0.08l0.021,0.078h0.224l40.033-2.216l96.415,71.78l0.202,0.324l0.005-0.003l0.163,0.261l0.044,0.034l-0.002,0.002
		l0.018,0.01l0.056,0.043h0.021h0.023l0.311,0.497l-0.038-0.569l0.091-0.04l-0.007-0.102l0.052-0.073l-0.063-0.101l-2.48-37.062
		l19.868,39.35l-0.032,0.093l0.028,0.019l-8.852,48.882l-0.066-0.413l-0.063,1.131l-0.026,0.146l-0.148-0.208l0.088,0.543
		l-0.019,0.099l-0.056,0.034l0.021,0.136l-17.67,63.293l-42.945,37.071l-44.346,14.067l-0.139-0.107l-0.006,0.176l-0.095,0.056
		l-0.001,0.047l-0.14,0.044l0.135,0.104l-1.993,61.629l-38.808-48.504c-0.001-0.002,0-0.004-0.001-0.006l0.083-0.382l-0.298,0.258
		h-0.002c-0.001,0-0.002-0.001-0.004-0.001l-0.132-0.165l-0.043,0.202l-0.009,0.007l-0.095,0.039l-0.012,0.054l-42.858,37.113
		l-0.023-0.015l-0.014,0.047l-0.033,0.028l-0.086,0.049l-0.056,0.192l-0.03,0.026l0.019,0.012l-18.148,62.994l-0.053,0.074
		l0.015,0.05l-0.312,0.276l0.342-0.041l-0.109,0.38l0.172-0.152l9.712,53.876l-0.073,0.009l0.084,0.098l0.004,0.017l-0.554,0.349
		l0.53-0.062l-0.144,0.302l0.313-0.196l0.083,0.311l0.095-0.198l36.445,42.012l-0.171,0.049l0.225,0.088l-0.588,0.44l0.504-0.143
		l-0.407,0.578l0.666-0.498l-0.021,0.283l0.274-0.39l0.152,0.176l0.008-0.113l48.076,18.92l-0.062,0.026l0.225,0.038l0.15,0.059
		l-0.146,0.246l0.355-0.15l0.008,0.001l0.019,0.017l0.07-0.001l43.599,7.343l0.027,0.017h0.073h0.003h0.02l26.565-3.135
		l-0.086,0.105l0.353-0.137l0.291-0.034h0.002l0.02-0.003l0.089-0.002l0.038-0.031l0.271-0.105l0.129-0.015l-0.032-0.022
		l66.586-25.81l-0.059,0.19l0.323-0.294l0.163-0.062l0.03-0.003l0.023-0.001l0.01-0.009l0.096-0.013l0.028-0.094l0.113-0.094
		l0.319-0.124l-0.133-0.03l54.944-45.615l0.051-0.005l0.196-0.306l0.549-0.421l-0.333,0.087l37.455-58.186l0.048,0.139l0.087-0.348
		l0.068-0.105l0.131,0.035l-0.048-0.141l0.01-0.039l0.05-0.071l-0.016-0.045l0.111-0.096l-0.086-0.022l0.012-0.048l0.566-0.881
		l-0.438,0.374l21.226-84.115l0.16,0.259l-0.072-0.609l0.019-0.072l0.062-0.031l-0.013-0.108l0.039-0.063L495.711,267.889z
		 M165.2,300.986l42.06-36.419L195.203,320.4l-0.695-0.45L165.2,300.986z M423.764,422.132l-33.453,27.771l14.653-13.336
		l0.043-0.003l0.048-0.08l7.637-5.858L423.764,422.132z M341.621,449.926l37.799,8.644l-65.511,25.391L341.621,449.926z
		 M286.006,486.777l-2.709-22.979l28.881,20.638l-26.086,3.075L286.006,486.777z M285.492,487.483l-42.276-7.123l39.458-16.765
		l0.144,1.213L285.492,487.483z M249.713,250.556l43.595-13.842l4.505,30.272l3.447,23.169l-3.391-2.604L249.713,250.556z
		 M348.639,228.471l-54.136,7.424l41.965-36.228L348.639,228.471z M336.895,199.157l16.949-60.708l-1.704,30.3l-3.304,58.666
		l-1.842-4.358L336.895,199.157z M467.246,137.501l18.373,50.203l-20.005,18.105l1.37-57.395L467.246,137.501z M466.375,246.699
		l1.068-23.199l27.633,44.485l-32.061,51.676L466.375,246.699z M473.245,353.538l-81.824,69.789l6.339-24.761l15.621-61.007
		l7.868,2.1L473.245,353.538z M404.851,435.896l-13.329-11.588l42.949-11.137L404.851,435.896z M242.883,479.855l22.905-38.582
		l16.666,21.771l-37.287,15.842L242.883,479.855z M293.89,236.579l54.499-7.475L312.533,276.1l-10.682,14.001l-4.208-28.277
		L293.89,236.579z M422.78,90.126l12.266,29.434l-9.609-3.707l-9.733-3.757l-1.385-42.268L422.78,90.126z M267.073,406.388
		l-1.603,34.131l-70.757,19.996L267.073,406.388z M388.222,101.397l25.475-32.366l1.407,42.832l-7.465-2.906L388.222,101.397z
		 M193.63,460.183l3.435-46.047l36.649-10.867l-9.304,13.212L193.63,460.183z M404.537,154.458l0.07-0.049l0.021,0.034l0.088,0.272
		l0.023-0.093l30.223,48.43l-54.545-31.542l23.904-16.9l-0.03,0.117L404.537,154.458z M408.404,149.472l-3.127,3.431l10.341-40.2
		l19.455,7.503L408.404,149.472z M462.072,320.674l-48.509,16.076l10.173-48.871l10.688,9.141L462.072,320.674z M282.985,462.764
		l-16.724-21.849l71.371-20.929l11.83-3.468l-59.113,41.122L282.985,462.764z M464.79,206.746l-21.467,34.087l-7.087-36.467
		l0.213,0.123l-0.154-0.248l3.919,0.345L464.79,206.746z M214.768,382.229l55.27-37.801l-20.706,33.599l-14.937,24.234
		l-18.667-19.052L214.768,382.229z M302.567,290.783l50.84-21.078l-8.258,33.122L302.567,290.783z M329.256,343.44l21.316,71.446
		l-39.873-32.278l0.076-0.16l0.295-0.383l-0.152,0.082l13.925-29.393L329.256,343.44z M302.25,291.312l42.71,12.079l-15.676,38.523
		l-21.462-40.173L302.25,291.312z M332.846,334.742l12.725-31.271l43.738-5.161l-59.316,43.444L332.846,334.742z M389.212,248.838
		l33.812,38.341l-32.343,10.305L389.212,248.838z M357.275,272.278l32.369,25.396l-43.89,5.176l8.261-33.129L357.275,272.278z
		 M388.608,248.545l1.469,48.713l-26.19-20.545l-9.529-7.477l22.373-13.518L388.608,248.545z M329.874,342.579l60.104-44.023
		l-12.017,70.357L329.874,342.579z M442.242,241.436l-53.158,6.269l-0.001-0.033l-0.025,0.015l-24.307-50.292L442.242,241.436z
		 M413.034,336.373l-22.198-38.319l32.315-10.292l-7.503,36.051L413.034,336.373z M423.459,286.774l-33.973-38.521l53.211-6.275
		l-0.033,0.078l-0.299,0.474l0.145-0.115l-14.234,33.147L423.459,286.774z M302.097,292.282l26.887,50.329l-0.039,0.028l0.028,0.016
		l-18.448,38.936l-0.396-4.198L302.097,292.282z M271.284,344.066l38.554,38.551l-18.861,10.143l-23.249,12.499l0.136-2.326
		L271.284,344.066z M351.219,414.979l-21.406-71.756l47.961,26.265l-9.011,15.438L351.219,414.979z M405.743,153.8l31.393-15.435
		l-1.363,3.705l-5.305,14.399l-9.523-1.027L405.743,153.8z M435.406,202.633l-30.136-48.287l8.153,0.879l16.93,1.828l-0.07,0.19
		l0.126-0.072l2.194,19.949L435.406,202.633z M435.584,204.175l0.003,0.025h0.015l7.159,36.846l-16.351-9.292l-60.964-34.65
		l44.066,4.442L435.584,204.175z M269.418,344.131l-55.101,37.689l-29.194-21.948l84.569-15.929L269.418,344.131z M388.268,248.055
		l-23.69,14.315l-10.499,6.344l-4.66-39.497l28.161,13.653L388.268,248.055z M234.954,402.49l26.868-43.597l8.837-14.338
		l-2.881,49.602l-0.657,11.291l-13.733-1.263L234.954,402.49z M287.669,395.211l21.58-11.6l-26.252,34.193l-16.9,22.012
		l1.592-33.863L287.669,395.211z M310.19,383.362l0.008,0.086l0.12-0.253l0.061-0.08l40.122,32.48l-24.088,7.061l-59.866,17.549
		L310.19,383.362z M423.906,287.242l6.814-15.869l12.379-28.817l19.058,77.406L423.906,287.242z M432.395,152.96l5.489-14.905
		l27.853-1.75l-34.506,19.819L432.395,152.96z M271.421,343.366l0.52-0.354l-0.392,0.073l29.904-51.301l8.504,90.115
		L271.421,343.366z M351.32,416.135l0.193,0.156l-0.06-0.198l38.573,8.185l-48.046,24.737L351.32,416.135z M390.507,423.774
		l-38.77-8.229l0.532-0.371l-0.578,0.17l7.931-13.586l18.442-31.591l8.092,34.859L390.507,423.774z M378.626,368.563l8.142-47.689
		l3.78-22.129l22.225,38.367l-0.317,0.105l0.193,0.051l-15.881,14.608L378.626,368.563z M466.876,222.399l-22.521,17.91
		l20.749-32.949l0.189,1.611L466.876,222.399z M436.023,202.803l-5.042-45.854l35.349-20.301l-8.778,19.162L436.023,202.803z
		 M437.355,137.597l-3.927,1.931l-27.463,13.5l29.401-32.258l1.548,13.101L437.355,137.597z M434.496,203.468l-69.921-7.052
		l15.393-24.481L434.496,203.468z M214.376,382.678l19.517,19.922l-36.492,10.815L214.376,382.678z M443.624,241.646l23.238-18.476
		l-4.397,95.55l-18.944-76.932l0.294-0.035L443.624,241.646z M415.061,112.485l-3.901,15.171l-6.498,25.262l-16.445-50.885
		L415.061,112.485z M364.076,197.355l1,2.069l23.176,47.961l-35.256-17.096l-3.541-1.717l0.051-0.108l0.016-0.02l-0.006,0.001
		l4.732-10.108L364.076,197.355z M348.812,229.526l-0.013,0.226l0.066-0.142l4.647,39.408l-50.947,21.121l28.196-36.959
		L348.812,229.526z M350.615,416.439l-9.347,32.904l-56.91,13.187L350.615,416.439z M270.492,343.19l-27.295,5.142l-57.587,10.847
		l61.397-45.854l3.203,4.073L270.492,343.19z M228.161,326.658l-43.228,32.28l10.705-37.794l50.288-7.755L228.161,326.658z
		 M234.592,403.055l32.012,2.943l-72.03,53.88L234.592,403.055z M390.916,422.912l-12.403-53.438l34.119-31.383l-13.352,52.15
		L390.916,422.912z M455.709,205.351l-19.419-1.708l30.363-66.277l-1.642,68.802L455.709,205.351z M438.005,137.452l0.032-0.088
		l-0.11,0.054l-1.979-16.818l29.927,15.103L438.005,137.452z M213.49,383.052l-7.84,14.196l-9.05,16.386l-38.99,4.596
		L213.49,383.052z M363.761,438.47l26.65-13.721l-7.316,23.994l-2.867,9.399l-37.859-8.657L363.761,438.47z M467.159,219.719
		l-1.547-13.107l19.263-17.428l-17.498,32.379L467.159,219.719z M404.302,153.738l-0.005,0l0.009,0.015l0.038,0.116l-0.295,0.208
		l-0.073,0.036l0.02,0.002l-23.758,16.795l7.646-67.974L404.302,153.738z M379.503,171.559l-15.264,24.28l-9.451-58.907
		l24.721,34.608l-0.017,0.012L379.503,171.559z M300.965,291.438l-26.666,45.748l-3.31,5.678l-23.449-29.824l28.281-11.437
		L300.965,291.438z M194.841,321.774l-1.501,5.301l-9.165,32.36l-36.758,4.332L194.841,321.774z M184.52,360.161l29.265,21.998
		l-53.65,33.78l-3.087,1.943l9.491-19.944L184.52,360.161z M414.202,337.166l43.588-14.449l4.653-1.541l-0.018,0.385l0.123-0.198
		l0.182,0.531l0.076,0.309l0.004-0.077l10.598,30.842l-41.577-11.096L414.202,337.166z M347.623,44.843l34.999,0.548l-19.191,39.174
		l-20.088-39.789L347.623,44.843z M342.966,44.179l-19.217-15.824l57.135,16.414L342.966,44.179z M381.684,48.654l1.203-2.454
		l2.753,33.438l1.754,21.304l-23.578-15.811L381.684,48.654z M354.435,138.487l9.264,57.735l-0.096-0.055l0.124,0.258l-0.596-0.06
		l0.594,0.337l-14.28,30.493l4.965-88.254L354.435,138.487z M312.918,484.238l-29.274-20.924l57.083-13.235l-25.422,31.228
		L312.918,484.238z M299.593,9.232L320.4,26.365l0.772,0.636l-12.755-3.665L299.593,9.232z M381.034,457.539l10.019-32.852
		l13.339,11.596l-13.467,12.257L381.034,457.539z M454.996,129.549l-19.178-9.677l-0.074-0.179l-0.009-0.072l-0.015,0.016
		l-5.172-12.407l-15.465-37.108l50.846,64.941L454.996,129.549z M322.605,27.413L300.222,8.981l78.72,34.618L322.605,27.413z
		 M241.529,4.118l30.223,2.14l21.914,1.552l-32.94,1.824L241.529,4.118z M298.217,8.152l9.14,14.605l0.21,0.335l-45.109-12.96
		L298.217,8.152z M363.645,85.728l23.78,15.946l-7.761,69.065l-25.055-35.077L363.645,85.728z M194.916,320.918l-40.065,35.476
		l-7.771,6.881l17.8-61.787L194.916,320.918z M150.654,363.984l33.252-3.921l-27.439,57.658l-9.606-53.29L150.654,363.984z
		 M196.461,414.248l-3.449,46.252l-36.081-41.591L196.461,414.248z M463.014,320.889l0.057-0.02l-0.068-0.059l31.665-51.045
		l-20.841,82.592L463.014,320.889z M467.533,222.521l18.247-33.761l9.193,77.937L467.533,222.521z M387.973,100.756l-4.527-55.022
		l30.099,22.533L387.973,100.756z M238.73,3.931l0.55,0.158l8.417,6.266l-36.842,2.04L238.73,3.931z M239.53,4.161l19.398,5.572
		l-11.088,0.614L239.53,4.161z M308.887,24.085l13.43,3.858l20.256,16.68l2.491,37.281L308.887,24.085z M299.344,289.43l1.726,1.326
		l-53.699,21.71l1.989-61.431L299.344,289.43z M195.789,320.522l12.105-56.088l38.615,48.263L195.789,320.522z M265.118,441.238
		l-20.864,35.144l-2.215,3.731l-47.856-18.834L265.118,441.238z M435.624,412.261l-42.726,11.079l-0.825,0.214l80.456-68.623
		L435.624,412.261z M248.582,10.899l12.078-0.669l47.374,13.61l36.681,58.626L248.582,10.899z"/>
	<g>
		<path fill="#FFFFFF" d="M257.535,496.536c-0.251-2.146,1.29-4.088,3.438-4.337c2.146-0.251,4.088,1.288,4.336,3.435
			s-1.291,4.089-3.438,4.34C259.725,500.222,257.783,498.68,257.535,496.536z"/>
		<circle fill="#FFFFFF" cx="201.887" cy="492.265" r="5.442"/>
		<path fill="#FFFFFF" d="M146.624,437.342c-0.248-2.159,1.3-4.117,3.462-4.365c2.162-0.251,4.116,1.301,4.368,3.459
			c0.251,2.162-1.296,4.12-3.462,4.368C148.833,441.055,146.875,439.507,146.624,437.342z"/>
		<path fill="#FFFFFF" d="M174.366,472.358c-0.202-1.729,1.04-3.291,2.771-3.49c1.728-0.201,3.294,1.036,3.493,2.768
			c0.202,1.73-1.039,3.294-2.767,3.496C176.131,475.33,174.568,474.093,174.366,472.358z"/>
		<circle fill="#FFFFFF" cx="192.577" cy="476.103" r="4.221"/>
		<path fill="#FFFFFF" d="M236.232,490.751c-0.211-1.849,1.11-3.515,2.957-3.729c1.846-0.219,3.515,1.106,3.732,2.955
			c0.211,1.844-1.111,3.516-2.957,3.727C238.119,493.922,236.45,492.597,236.232,490.751z"/>
		<circle fill="#FFFFFF" cx="250.009" cy="489.709" r="3.395"/>
		<path fill="#FFFFFF" d="M111.247,455.629c-0.435-3.726,2.24-7.102,5.968-7.532c3.729-0.435,7.101,2.239,7.532,5.97
			c0.434,3.726-2.24,7.101-5.969,7.53C115.05,462.028,111.678,459.36,111.247,455.629z"/>
		<path fill="#FFFFFF" d="M81.51,431.189c-0.301-2.594,1.561-4.941,4.157-5.242c2.597-0.301,4.945,1.558,5.246,4.152
			c0.301,2.601-1.561,4.948-4.157,5.249C84.159,435.65,81.811,433.789,81.51,431.189z"/>
		<circle fill="#FFFFFF" cx="137.451" cy="414.165" r="2.124"/>
		<circle fill="#FFFFFF" cx="112.77" cy="398.49" r="3.104"/>
		<path fill="#FFFFFF" d="M79.946,387.633c-0.316-2.735,1.647-5.218,4.387-5.537c2.742-0.315,5.221,1.65,5.537,4.39
			c0.319,2.743-1.644,5.219-4.383,5.534C82.745,392.339,80.266,390.375,79.946,387.633z"/>
		<path fill="#FFFFFF" d="M61.501,379.347c-0.208-1.782,1.067-3.394,2.848-3.599c1.781-0.208,3.394,1.067,3.599,2.852
			c0.208,1.777-1.067,3.392-2.851,3.596C63.319,382.399,61.706,381.124,61.501,379.347z"/>
		<path fill="#FFFFFF" d="M30.712,363.641c-0.226-1.933,1.161-3.683,3.093-3.904c1.936-0.225,3.685,1.16,3.909,3.093
			c0.223,1.936-1.164,3.686-3.096,3.908C32.685,366.96,30.936,365.573,30.712,363.641z"/>
		<path fill="#FFFFFF" d="M59.652,361.891c-0.217-1.854,1.113-3.532,2.972-3.75c1.855-0.214,3.533,1.116,3.747,2.973
			c0.217,1.857-1.113,3.536-2.972,3.754C61.544,365.08,59.866,363.749,59.652,361.891z"/>
		<circle fill="#FFFFFF" cx="95.359" cy="346.068" r="3.571"/>
		<path fill="#FFFFFF" d="M117.504,328.881c-0.202-1.731,1.042-3.301,2.776-3.501c1.734-0.201,3.304,1.041,3.506,2.775
			c0.198,1.731-1.042,3.301-2.777,3.501C119.275,331.86,117.706,330.613,117.504,328.881z"/>
		<path fill="#FFFFFF" d="M133.322,302.752c-0.195-1.688,1.015-3.213,2.699-3.408c1.688-0.191,3.211,1.016,3.406,2.699
			c0.195,1.688-1.011,3.212-2.699,3.407C135.043,305.645,133.521,304.438,133.322,302.752z"/>
		<path fill="#FFFFFF" d="M66.517,342.92c-0.229-1.973,1.185-3.759,3.158-3.988c1.976-0.229,3.76,1.188,3.989,3.16
			c0.227,1.976-1.185,3.761-3.161,3.989C68.53,346.309,66.744,344.893,66.517,342.92z"/>
		<path fill="#FFFFFF" d="M60.316,296.855c-0.304-2.596,1.557-4.941,4.151-5.242c2.593-0.299,4.941,1.559,5.243,4.152
			c0.301,2.595-1.558,4.94-4.154,5.241C62.962,301.31,60.614,299.449,60.316,296.855z"/>
		<circle fill="#FFFFFF" cx="35.55" cy="293.048" r="5.791"/>
		<circle fill="#FFFFFF" cx="33.644" cy="276.835" r="3.451"/>
		<path fill="#FFFFFF" d="M0.994,231.709c-0.289-2.499,1.501-4.762,4.001-5.053c2.5-0.29,4.762,1.504,5.054,4.005
			c0.289,2.499-1.504,4.76-4.005,5.05C3.543,236,1.282,234.208,0.994,231.709z"/>
		<circle fill="#FFFFFF" cx="39.08" cy="179.232" r="3.737"/>
		<circle fill="#FFFFFF" cx="27.008" cy="146.468" r="4.001"/>
		<path fill="#FFFFFF" d="M63.195,86.822c-0.18-1.558,0.937-2.966,2.494-3.149c1.557-0.18,2.965,0.936,3.146,2.496
			c0.183,1.558-0.934,2.966-2.491,3.146C64.786,89.495,63.375,88.379,63.195,86.822z"/>
		<path fill="#FFFFFF" d="M118.661,131.094c-0.292-2.511,1.508-4.783,4.021-5.075c2.513-0.29,4.783,1.509,5.075,4.021
			c0.288,2.511-1.511,4.784-4.021,5.075C121.224,135.406,118.95,133.605,118.661,131.094z"/>
		<circle fill="#FFFFFF" cx="171.297" cy="156.56" r="2.825"/>
		<circle fill="#FFFFFF" cx="191.391" cy="117.232" r="5.731"/>
		<circle fill="#FFFFFF" cx="150.802" cy="84.179" r="8.029"/>
		<circle fill="#FFFFFF" cx="159.416" cy="50.181" r="7.009"/>
		<path fill="#FFFFFF" d="M212.234,37.688c-0.385-3.332,2.004-6.347,5.335-6.73c3.329-0.386,6.344,2.001,6.729,5.333
			c0.388,3.331-2,6.342-5.333,6.729C215.634,43.404,212.622,41.019,212.234,37.688z"/>
		<circle fill="#FFFFFF" cx="235.86" cy="59.433" r="2.323"/>
		<circle fill="#FFFFFF" cx="234.269" cy="94.289" r="4.076"/>
		<path fill="#FFFFFF" d="M227.069,156.692c-0.211-1.796,1.08-3.423,2.878-3.631c1.796-0.208,3.425,1.08,3.633,2.879
			c0.208,1.798-1.083,3.423-2.879,3.633C228.902,159.783,227.276,158.491,227.069,156.692z"/>
		<circle fill="#FFFFFF" cx="287.122" cy="117.639" r="6.366"/>
		<path fill="#FFFFFF" d="M311.373,141.33c-0.326-2.82,1.697-5.372,4.518-5.7c2.822-0.326,5.373,1.695,5.701,4.515
			c0.326,2.824-1.693,5.376-4.517,5.703C314.251,146.174,311.702,144.151,311.373,141.33z"/>
		<circle fill="#FFFFFF" cx="254.279" cy="186.719" r="4.139"/>
		<path fill="#FFFFFF" d="M303.165,179.8c-0.181-1.578,0.949-3.006,2.528-3.189c1.578-0.183,3.009,0.948,3.191,2.526
			c0.184,1.581-0.949,3.006-2.527,3.191C304.777,182.511,303.352,181.377,303.165,179.8z"/>
		<circle fill="#FFFFFF" cx="304.234" cy="85.661" r="4.522"/>
		<circle fill="#FFFFFF" cx="266.658" cy="97.479" r="2.836"/>
		<path fill="#FFFFFF" d="M248.107,11.249c-0.18-1.546,0.931-2.948,2.479-3.125c1.548-0.182,2.95,0.931,3.13,2.479
			c0.177,1.546-0.931,2.947-2.481,3.125C249.689,13.908,248.288,12.8,248.107,11.249z"/>
		<path fill="#FFFFFF" d="M209.92,13.023c-0.344-2.978,1.793-5.672,4.771-6.018c2.978-0.346,5.67,1.79,6.018,4.768
			c0.344,2.981-1.79,5.674-4.768,6.02C212.96,18.139,210.268,16.002,209.92,13.023z"/>
		<circle fill="#FFFFFF" cx="188.497" cy="15.624" r="5.824"/>
		<circle fill="#FFFFFF" cx="120.862" cy="41.516" r="3.19"/>
		<path fill="#FFFFFF" d="M91.958,63.793c-0.329-2.837,1.703-5.401,4.542-5.731c2.835-0.327,5.397,1.707,5.727,4.542
			c0.329,2.834-1.703,5.401-4.539,5.729C94.852,68.662,92.287,66.629,91.958,63.793z"/>
		<path fill="#FFFFFF" d="M107.146,75.588c-0.208-1.782,1.067-3.391,2.848-3.597c1.781-0.205,3.391,1.07,3.599,2.848
			c0.205,1.781-1.07,3.389-2.851,3.596C108.961,78.642,107.351,77.367,107.146,75.588z"/>
		<circle fill="#FFFFFF" cx="77.744" cy="211.953" r="2.954"/>
		<path fill="#FFFFFF" d="M82.903,163.45c-0.307-2.646,1.588-5.038,4.231-5.345c2.646-0.307,5.038,1.588,5.345,4.234
			c0.304,2.643-1.588,5.033-4.234,5.342C85.602,167.988,83.21,166.093,82.903,163.45z"/>
		<circle fill="#FFFFFF" cx="110.991" cy="202.075" r="5.457"/>
		<circle fill="#FFFFFF" cx="147.144" cy="230.803" r="7.225"/>
		<path fill="#FFFFFF" d="M196.9,209.624c-0.14-1.207,0.729-2.302,1.939-2.441c1.207-0.139,2.302,0.728,2.441,1.936
			c0.139,1.21-0.726,2.303-1.936,2.443C198.135,211.704,197.04,210.833,196.9,209.624z"/>
		<path fill="#FFFFFF" d="M152.54,196.633c-0.217-1.888,1.135-3.597,3.025-3.814c1.889-0.219,3.598,1.132,3.815,3.021
			c0.217,1.891-1.135,3.599-3.021,3.817C154.466,199.877,152.76,198.521,152.54,196.633z"/>
		<circle fill="#FFFFFF" cx="57.884" cy="257.653" r="3.21"/>
		<circle fill="#FFFFFF" cx="112.322" cy="251.32" r="4.776"/>
		<path fill="#FFFFFF" d="M0.376,231.782c-0.329-2.845,1.706-5.413,4.547-5.744c2.842-0.327,5.41,1.708,5.742,4.548
			c0.329,2.845-1.709,5.413-4.551,5.744C3.273,236.659,0.705,234.621,0.376,231.782z"/>
		<circle fill="#FFFFFF" cx="151.845" cy="271.371" r="5.681"/>
		<path fill="#FFFFFF" d="M12.028,312.344c-0.202-1.75,1.052-3.335,2.801-3.538c1.753-0.199,3.335,1.053,3.54,2.804
			c0.202,1.751-1.055,3.335-2.804,3.538C13.816,315.35,12.232,314.093,12.028,312.344z"/>
		<path fill="#FFF701" d="M332.455,199.655c-0.264-2.28,1.371-4.34,3.648-4.605c2.279-0.264,4.342,1.37,4.604,3.649
			c0.268,2.277-1.368,4.339-3.648,4.603C334.781,203.567,332.723,201.935,332.455,199.655z"/>
		<circle fill="#FFF701" cx="293.459" cy="235.541" r="4.33"/>
		<path fill="#FFF701" d="M345.732,136.725c-0.553-4.73,2.842-9.012,7.568-9.559c4.731-0.549,9.012,2.843,9.561,7.572
			c0.547,4.732-2.844,9.012-7.575,9.558C350.559,144.845,346.277,141.454,345.732,136.725z"/>
		<path fill="#FFF701" d="M341.048,82.108c-0.272-2.333,1.402-4.442,3.735-4.712c2.333-0.271,4.441,1.4,4.712,3.733
			s-1.402,4.442-3.735,4.713C343.43,86.113,341.318,84.441,341.048,82.108z"/>
		<path fill="#FFF701" d="M285.296,16.07c-0.341-2.973,1.787-5.661,4.759-6.004c2.973-0.346,5.662,1.784,6.006,4.757
			c0.344,2.974-1.787,5.662-4.759,6.004C288.33,21.173,285.645,19.043,285.296,16.07z"/>
		<circle fill="#FFF701" cx="208.49" cy="12.917" r="4.203"/>
		<path fill="#FFF701" d="M243.411,3.542c0.254,2.196-1.321,4.183-3.515,4.435c-2.196,0.257-4.182-1.317-4.436-3.512
			c-0.254-2.196,1.318-4.185,3.515-4.438C241.171-0.227,243.156,1.347,243.411,3.542z"/>
		<circle fill="#FFF701" cx="298.973" cy="7.822" r="6.247"/>
		<circle fill="#FFF701" cx="343.374" cy="45.137" r="4.753"/>
		<circle fill="#FFF701" cx="323.357" cy="28.089" r="2.79"/>
		<path fill="#FFF701" d="M265.43,9.242c0.268,2.292-1.377,4.366-3.666,4.633c-2.293,0.264-4.369-1.377-4.636-3.67
			c-0.265-2.292,1.377-4.366,3.67-4.63C263.091,5.309,265.163,6.953,265.43,9.242z"/>
		<circle fill="#FFF701" cx="250.848" cy="10.377" r="3.112"/>
		<circle fill="#FFF701" cx="382.859" cy="45.241" r="6.341"/>
		<circle fill="#FFF701" cx="414.646" cy="69.439" r="3.772"/>
		<path fill="#FFF701" d="M365.564,85.674c0.14,1.191-0.717,2.269-1.908,2.409c-1.191,0.137-2.271-0.716-2.407-1.911
			c-0.14-1.19,0.713-2.27,1.908-2.407C364.348,83.628,365.428,84.481,365.564,85.674z"/>
		<path fill="#FFF701" d="M390.918,101.267c0.184,1.568-0.938,2.983-2.503,3.165c-1.567,0.183-2.981-0.941-3.161-2.507
			c-0.184-1.565,0.938-2.981,2.503-3.161C389.323,98.579,390.738,99.704,390.918,101.267z"/>
		<circle fill="#FFF701" cx="415.948" cy="113.027" r="4.283"/>
		<circle fill="#FFF701" cx="436.132" cy="121.117" r="3.276"/>
		<path fill="#FFF701" d="M470.047,136.458c0.217,1.878-1.129,3.578-3.009,3.797c-1.877,0.216-3.577-1.13-3.794-3.009
			c-0.22-1.878,1.126-3.579,3.006-3.794C468.13,133.233,469.83,134.581,470.047,136.458z"/>
		<path fill="#FFF701" d="M441.582,138.152c0.242,2.066-1.238,3.934-3.304,4.172c-2.066,0.238-3.935-1.241-4.172-3.307
			c-0.239-2.063,1.24-3.933,3.307-4.172C439.479,134.606,441.346,136.084,441.582,138.152z"/>
		<circle fill="#FFF701" cx="308.357" cy="24.36" r="3.435"/>
		<path fill="#FFF701" d="M409.531,153.551c0.257,2.229-1.34,4.242-3.564,4.501c-2.227,0.256-4.24-1.34-4.498-3.566
			c-0.257-2.226,1.338-4.239,3.564-4.498C407.257,149.732,409.27,151.328,409.531,153.551z"/>
		<path fill="#FFF701" d="M382.645,171.289c0.155,1.342-0.81,2.556-2.149,2.711c-1.343,0.158-2.56-0.805-2.714-2.149
			c-0.155-1.343,0.807-2.556,2.15-2.711C381.273,168.982,382.486,169.946,382.645,171.289z"/>
		<circle fill="#FFF701" cx="364.48" cy="197.69" r="3.007"/>
		<path fill="#FFF701" d="M434.305,157.173c0.224,1.951-1.176,3.721-3.127,3.944c-1.955,0.228-3.72-1.173-3.945-3.127
			c-0.227-1.952,1.173-3.717,3.127-3.943C432.31,153.821,434.075,155.218,434.305,157.173z"/>
		<circle fill="#FFF701" cx="435.845" cy="203.777" r="4.964"/>
		<path fill="#FFF701" d="M472.2,206.242c0.439,3.805-2.289,7.249-6.092,7.69c-3.811,0.442-7.253-2.288-7.693-6.093
			c-0.441-3.806,2.289-7.25,6.092-7.691C468.316,199.708,471.76,202.435,472.2,206.242z"/>
		<path fill="#FFF701" d="M470.68,222.851c0.221,1.917-1.15,3.647-3.064,3.872c-1.917,0.22-3.648-1.152-3.871-3.065
			c-0.221-1.917,1.149-3.646,3.063-3.872C468.726,219.566,470.457,220.939,470.68,222.851z"/>
		<circle fill="#FFF701" cx="495.336" cy="268.903" r="4.322"/>
		<path fill="#FFF701" d="M465.503,320.425c0.239,2.059-1.238,3.918-3.294,4.156c-2.057,0.239-3.921-1.234-4.16-3.292
			c-0.236-2.059,1.238-3.922,3.297-4.16C463.403,316.89,465.264,318.366,465.503,320.425z"/>
		<circle fill="#FFF701" cx="473.849" cy="353.621" r="3.877"/>
		<circle fill="#FFF701" cx="434.841" cy="413.591" r="2.914"/>
		<path fill="#FFF701" d="M381.968,369.02c0.276,2.387-1.433,4.542-3.819,4.817c-2.385,0.279-4.541-1.433-4.82-3.815
			c-0.273-2.386,1.438-4.545,3.822-4.819C379.533,364.925,381.691,366.634,381.968,369.02z"/>
		<path fill="#FFF701" d="M333.075,343.12c0.224,1.94-1.167,3.694-3.108,3.921c-1.938,0.225-3.693-1.166-3.921-3.105
			c-0.224-1.94,1.167-3.693,3.108-3.923C331.093,339.791,332.85,341.181,333.075,343.12z"/>
		<circle fill="#FFF701" cx="309.465" cy="382.855" r="5.824"/>
		<path fill="#FFF701" d="M358.779,414.897c0.559,4.816-2.895,9.179-7.711,9.736c-4.821,0.562-9.184-2.896-9.741-7.715
			c-0.56-4.82,2.897-9.18,7.718-9.737C353.863,406.624,358.221,410.076,358.779,414.897z"/>
		<circle fill="#FFF701" cx="341.439" cy="449.908" r="6.516"/>
		<path fill="#FFF701" d="M288.221,462.447c0.36,3.11-1.867,5.922-4.979,6.285c-3.111,0.358-5.926-1.871-6.285-4.982
			c-0.359-3.108,1.868-5.922,4.979-6.282C285.048,457.108,287.861,459.339,288.221,462.447z"/>
		<path fill="#FFF701" d="M267.552,440.359c0.161,1.408-0.85,2.687-2.258,2.852c-1.415,0.164-2.692-0.848-2.854-2.259
			c-0.164-1.414,0.848-2.689,2.259-2.854C266.111,437.934,267.387,438.945,267.552,440.359z"/>
		<path fill="#FFF701" d="M270.977,405.29c0.282,2.423-1.455,4.616-3.877,4.898c-2.427,0.278-4.617-1.455-4.898-3.882
			c-0.282-2.423,1.455-4.618,3.88-4.896C268.504,401.13,270.697,402.864,270.977,405.29z"/>
		<path fill="#FFF701" d="M273.868,343.385c0.211,1.843-1.106,3.508-2.947,3.721c-1.843,0.211-3.506-1.104-3.72-2.947
			c-0.215-1.839,1.107-3.505,2.943-3.718C271.988,340.226,273.654,341.544,273.868,343.385z"/>
		<circle fill="#FFF701" cx="213.736" cy="382.449" r="6.224"/>
		<path fill="#FFF701" d="M189.496,358.755c0.326,2.826-1.7,5.385-4.529,5.714c-2.826,0.326-5.385-1.7-5.711-4.524
			c-0.329-2.83,1.697-5.387,4.526-5.716C186.61,353.903,189.167,355.929,189.496,358.755z"/>
		<circle fill="#FFF701" cx="246.577" cy="313.371" r="4.077"/>
		<circle fill="#FFF701" cx="194.831" cy="320.619" r="2.554"/>
		<circle fill="#FFF701" cx="164.275" cy="300.911" r="4.225"/>
		<circle fill="#FFF701" cx="207.398" cy="264.548" r="4.182"/>
		<circle fill="#FFF701" cx="249.347" cy="250.916" r="5.198"/>
		<circle fill="#FFF701" cx="146.562" cy="364.355" r="7.913"/>
		<path fill="#FFF701" d="M201.662,413.84c0.323,2.785-1.672,5.301-4.455,5.627c-2.786,0.319-5.305-1.672-5.627-4.458
			c-0.322-2.782,1.675-5.302,4.458-5.624C198.821,409.063,201.339,411.057,201.662,413.84z"/>
		<circle fill="#FFF701" cx="155.586" cy="418.469" r="5.187"/>
		<path fill="#FFF701" d="M237.157,402.266c0.192,1.636-0.98,3.111-2.615,3.302c-1.635,0.191-3.112-0.98-3.304-2.615
			c-0.187-1.635,0.983-3.111,2.618-3.304C235.491,399.461,236.971,400.631,237.157,402.266z"/>
		<circle fill="#FFF701" cx="193.195" cy="460.614" r="5.713"/>
		<path fill="#FFF701" d="M244.49,480.442c0.167,1.438-0.862,2.744-2.305,2.913c-1.443,0.168-2.746-0.868-2.913-2.309
			c-0.167-1.441,0.866-2.746,2.308-2.913C243.02,477.971,244.323,479.003,244.49,480.442z"/>
		<path fill="#FFF701" d="M289.98,487.171c0.285,2.457-1.472,4.672-3.924,4.958c-2.451,0.281-4.67-1.474-4.955-3.928
			c-0.285-2.451,1.474-4.669,3.928-4.954C287.48,482.965,289.698,484.724,289.98,487.171z"/>
		<path fill="#FFF701" d="M319.047,483.688c0.428,3.691-2.218,7.032-5.913,7.465c-3.69,0.428-7.032-2.223-7.458-5.913
			c-0.431-3.691,2.215-7.032,5.91-7.464C315.277,477.35,318.619,479.996,319.047,483.688z"/>
		<path fill="#FFF701" d="M382.803,458.247c0.18,1.548-0.931,2.95-2.482,3.13c-1.551,0.18-2.952-0.934-3.133-2.479
			c-0.176-1.552,0.935-2.953,2.481-3.135C381.221,455.585,382.623,456.695,382.803,458.247z"/>
		<circle fill="#FFF701" cx="403.766" cy="436.89" r="4.455"/>
		<path fill="#FFF701" d="M393.952,424.474c0.224,1.911-1.147,3.643-3.062,3.862c-1.912,0.22-3.643-1.146-3.863-3.059
			c-0.223-1.914,1.148-3.646,3.06-3.862C392,421.191,393.729,422.562,393.952,424.474z"/>
		<circle fill="#FFF701" cx="423.112" cy="288.133" r="2.923"/>
		<circle fill="#FFF701" cx="413.168" cy="337.194" r="4.745"/>
		<circle fill="#FFF701" cx="389.866" cy="298.013" r="5.846"/>
		<circle fill="#FFF701" cx="353.714" cy="269.287" r="6.273"/>
		<path fill="#FFF701" d="M304.123,290.441c0.152,1.304-0.782,2.479-2.085,2.632c-1.3,0.147-2.479-0.78-2.63-2.082
			c-0.149-1.304,0.785-2.479,2.084-2.634C302.792,288.209,303.971,289.141,304.123,290.441z"/>
		<circle fill="#FFF701" cx="344.896" cy="303.85" r="3.688"/>
		<circle fill="#FFF701" cx="442.972" cy="242.434" r="3.292"/>
		<circle fill="#FFF701" cx="388.535" cy="248.769" r="4.956"/>
		<path fill="#FFF701" d="M355.434,227.973c0.408,3.544-2.132,6.755-5.678,7.163c-3.545,0.413-6.753-2.13-7.163-5.674
			c-0.409-3.546,2.128-6.755,5.677-7.165C351.812,221.887,355.02,224.427,355.434,227.973z"/>
		<path fill="#FFF701" d="M488.871,187.74c0.205,1.773-1.067,3.376-2.842,3.583c-1.771,0.205-3.375-1.066-3.579-2.838
			c-0.205-1.771,1.062-3.378,2.838-3.582C487.06,184.696,488.663,185.968,488.871,187.74z"/>
	</g>
	<polygon opacity="0.2" fill="#F3F3F3" enable-background="new    " points="229.876,484.578 183.279,464.86 146.996,432.639 
		129.835,366.997 150.539,298.021 196.624,257.654 273.492,234.968 330.643,196.848 342,148.026 342,84.919 308.936,38.894 
		258.507,17.311 213.029,19.641 176.642,26.538 123.249,48.652 100.986,67.448 70.099,94.149 33.619,154.052 14.469,230.8 
		24.184,310.691 41.408,359.775 92.166,423.968 122.737,446.998 	"/>
</g>
</svg>
