<?xml version="1.0" encoding="utf-8"?>
<!-- Generator: Adobe Illustrator 16.0.4, SVG Export Plug-In . SVG Version: 6.00 Build 0)  -->
<!DOCTYPE svg PUBLIC "-//W3C//DTD SVG 1.1//EN" "http://www.w3.org/Graphics/SVG/1.1/DTD/svg11.dtd">
<svg version="1.1" id="レイヤー_1" xmlns="http://www.w3.org/2000/svg" xmlns:xlink="http://www.w3.org/1999/xlink" x="0px"
	 y="0px" width="500px" height="500px" viewBox="0 0 500 500" enable-background="new 0 0 500 500" xml:space="preserve">
<g>
	<g>
		<path fill="#FFFFFF" d="M77.311,212.812c-0.011,0-0.021-0.005-0.03-0.012l-39.12-33.465c-0.012-0.012-0.018-0.028-0.016-0.044
			c0.004-0.017,0.016-0.03,0.032-0.036l49.5-16.407c0.015-0.006,0.032-0.001,0.045,0.01c0.013,0.012,0.018,0.028,0.015,0.044
			l-10.379,49.871c-0.004,0.016-0.016,0.029-0.032,0.035C77.32,212.811,77.315,212.812,77.311,212.812z M38.284,179.318
			l38.998,33.36l10.347-49.714L38.284,179.318z"/>
		<path fill="#FFFFFF" d="M336.148,199.114c-0.009,0-0.019-0.002-0.025-0.008l-30.696-19.86c-0.011-0.007-0.018-0.021-0.021-0.035
			c0-0.015,0.004-0.029,0.016-0.039l48.891-43.292c0.015-0.015,0.036-0.016,0.057-0.005c0.016,0.01,0.025,0.032,0.018,0.052
			l-18.195,63.153c-0.002,0.014-0.014,0.025-0.028,0.03C336.159,199.113,336.154,199.114,336.148,199.114z M305.529,179.201
			l30.592,19.793l18.133-62.938L305.529,179.201z"/>
		<path fill="#FFFFFF" d="M146.562,364.404c-0.002,0-0.005,0-0.007,0c-0.025-0.005-0.041-0.025-0.039-0.049l5.234-92.981
			c0.001-0.021,0.017-0.039,0.038-0.043c0.017,0,0.042,0.007,0.05,0.028l12.912,29.644c0.005,0.012,0.005,0.022,0.002,0.032
			l-18.146,63.336C146.6,364.392,146.582,364.404,146.562,364.404z M151.832,271.574l-5.2,92.369l18.026-62.919L151.832,271.574z"/>
		<path fill="#FFFFFF" d="M146.562,364.404c-0.023,0-0.042-0.017-0.046-0.039l-9.774-60.935c-0.001-0.01,0-0.02,0.003-0.027
			l15.009-32.047c0.011-0.019,0.033-0.032,0.054-0.024c0.021,0.006,0.036,0.025,0.035,0.047l-5.235,92.981
			c-0.001,0.022-0.02,0.044-0.043,0.044C146.562,364.404,146.562,364.404,146.562,364.404z M136.836,303.431l9.704,60.495
			l5.196-92.31L136.836,303.431z"/>
		<path fill="#FFFFFF" d="M77.311,212.812c-0.011,0-0.023-0.005-0.031-0.013c-0.013-0.011-0.017-0.028-0.015-0.044l10.38-49.872
			c0.004-0.019,0.02-0.034,0.039-0.036c0.016-0.002,0.037,0.007,0.047,0.022l22.773,39.311c0.007,0.012,0.008,0.027,0.003,0.04
			s-0.016,0.023-0.029,0.028l-33.153,10.56C77.32,212.811,77.315,212.812,77.311,212.812z M87.711,163.021l-10.338,49.674
			l33.022-10.519L87.711,163.021z"/>
		<path fill="#FFFFFF" d="M33.666,277.606c-0.016,0-0.031-0.008-0.041-0.022L5.393,232.129c-0.008-0.015-0.008-0.035,0-0.049
			l32.758-52.805c0.013-0.02,0.038-0.029,0.054-0.021c0.021,0.006,0.033,0.025,0.032,0.046l-4.525,98.26
			c0,0.021-0.015,0.037-0.034,0.043C33.673,277.605,33.669,277.606,33.666,277.606z M5.488,232.105l28.138,45.302l4.511-97.931
			L5.488,232.105z"/>
		<path fill="#FFFFFF" d="M304.071,86.226c-0.022,0-0.042-0.015-0.046-0.039l-13.392-70.731c-0.004-0.021,0.007-0.042,0.027-0.051
			c0.02-0.008,0.042-0.003,0.056,0.013l53.839,65.961c0.011,0.013,0.014,0.031,0.007,0.047s-0.021,0.026-0.038,0.028l-40.448,4.771
			C304.075,86.226,304.072,86.226,304.071,86.226z M290.76,15.619l13.349,70.509l40.32-4.756L290.76,15.619z"/>
		<path fill="#FFFFFF" d="M293.12,236.372c-0.008,0-0.016-0.001-0.023-0.006c-0.019-0.01-0.027-0.03-0.023-0.05l12.333-57.119
			c0.004-0.015,0.015-0.028,0.027-0.033c0.017-0.006,0.034-0.005,0.044,0.004l30.696,19.86c0.012,0.007,0.019,0.022,0.021,0.036
			c0.001,0.015-0.004,0.028-0.016,0.039l-43.029,37.258C293.143,236.369,293.131,236.372,293.12,236.372z M305.484,179.282
			l-12.289,56.917l42.875-37.126L305.484,179.282z"/>
		<path fill="#FFFFFF" d="M14.891,312.343c-0.003,0-0.007,0-0.009-0.001c-0.021-0.004-0.035-0.02-0.038-0.041L5.387,232.11
			c-0.002-0.022,0.01-0.043,0.03-0.049c0.02-0.008,0.042,0,0.056,0.018l28.233,45.455c0.008,0.015,0.008,0.032,0.001,0.048
			l-18.775,34.735C14.923,312.333,14.908,312.343,14.891,312.343z M5.504,232.306l9.416,79.838l18.692-34.583L5.504,232.306z"/>
		<path fill="#FFFFFF" d="M38.191,179.346c-0.02,0-0.038-0.012-0.044-0.032l-11.204-32.608c-0.006-0.016-0.002-0.036,0.01-0.047
			c0.011-0.012,0.031-0.019,0.047-0.013l60.703,16.203c0.019,0.006,0.034,0.023,0.034,0.044c0.001,0.02-0.012,0.039-0.032,0.045
			l-49.499,16.406C38.201,179.346,38.196,179.346,38.191,179.346z M27.06,146.758l11.16,32.483l49.308-16.343L27.06,146.758z"/>
		<path fill="#FFFFFF" d="M5.434,232.151c-0.006,0-0.013-0.001-0.019-0.004c-0.021-0.008-0.033-0.032-0.026-0.055l21.554-85.413
			c0.005-0.021,0.022-0.034,0.042-0.036c0.016-0.005,0.039,0.011,0.046,0.032l11.204,32.609c0.005,0.013,0.003,0.028-0.004,0.04
			L5.473,232.128C5.463,232.144,5.449,232.151,5.434,232.151z M26.995,146.854l-21.443,84.97l32.588-52.53L26.995,146.854z"/>
		<path fill="#FFFFFF" d="M235.101,59.388c-0.01,0-0.019-0.003-0.027-0.008c-0.017-0.012-0.024-0.033-0.018-0.053l15.53-48.154
			c0.007-0.019,0.024-0.032,0.045-0.032c0.001,0,0.003,0,0.004,0l40.049,4.259c0.02,0.001,0.035,0.015,0.041,0.033
			c0.004,0.019-0.001,0.038-0.016,0.049L235.13,59.378C235.121,59.384,235.11,59.388,235.101,59.388z M250.663,11.239L235.191,59.21
			l55.368-43.729L250.663,11.239z"/>
		<path fill="#FFFFFF" d="M293.12,236.372c-0.014,0-0.028-0.006-0.037-0.017l-39.324-49.15c-0.011-0.013-0.014-0.03-0.007-0.046
			c0.006-0.015,0.021-0.027,0.037-0.029l51.657-7.969c0.016-0.003,0.03,0.003,0.042,0.014c0.011,0.012,0.014,0.026,0.011,0.042
			l-12.333,57.12c-0.005,0.018-0.019,0.032-0.035,0.036C293.126,236.372,293.124,236.372,293.12,236.372z M253.881,187.21
			l39.216,49.011l12.297-56.958L253.881,187.21z"/>
		<path fill="#FFFFFF" d="M151.796,271.422c-0.007,0-0.014,0-0.021-0.004l-39.829-19.313c-0.015-0.007-0.026-0.023-0.026-0.039
			c-0.001-0.019,0.007-0.033,0.021-0.042l35.053-21.179c0.012-0.008,0.031-0.01,0.045-0.003c0.014,0.007,0.024,0.021,0.026,0.037
			l4.776,40.494c0.002,0.016-0.005,0.032-0.02,0.042C151.815,271.42,151.806,271.422,151.796,271.422z M112.064,252.059
			l39.677,19.24l-4.758-40.339L112.064,252.059z"/>
		<path fill="#FFFFFF" d="M111.967,252.109c-0.013,0-0.025-0.005-0.035-0.016l-34.656-39.297c-0.01-0.012-0.013-0.028-0.01-0.043
			c0.003-0.016,0.016-0.027,0.03-0.032l33.153-10.56c0.013-0.005,0.03-0.003,0.042,0.006c0.012,0.009,0.019,0.022,0.019,0.036
			l1.503,49.859c0.001,0.021-0.011,0.038-0.029,0.043C111.979,252.109,111.973,252.109,111.967,252.109z M77.393,212.787
			l34.523,39.147l-1.497-49.667L77.393,212.787z"/>
		<path fill="#FFFFFF" d="M136.787,303.472c-0.019,0-0.034-0.012-0.042-0.028l-24.82-51.361c-0.009-0.017-0.005-0.038,0.01-0.052
			c0.013-0.016,0.034-0.018,0.053-0.01l39.83,19.314c0.022,0.012,0.032,0.039,0.021,0.062l-15.009,32.046
			C136.821,303.46,136.805,303.472,136.787,303.472L136.787,303.472z M112.068,252.163l24.718,51.151l14.949-31.917L112.068,252.163
			z"/>
		<path fill="#FFFFFF" d="M111.967,252.109c-0.008,0-0.016-0.002-0.022-0.007c-0.014-0.007-0.024-0.021-0.024-0.038l-1.503-49.859
			c-0.001-0.018,0.009-0.035,0.026-0.043c0.013-0.007,0.034-0.006,0.05,0.006l36.556,28.679c0.012,0.008,0.018,0.023,0.017,0.04
			c0,0.014-0.009,0.029-0.022,0.037l-35.053,21.179C111.984,252.107,111.975,252.109,111.967,252.109z M110.513,202.302
			l1.497,49.678l34.929-21.103L110.513,202.302z"/>
		<path fill="#FFFFFF" d="M33.873,364.206c-0.02,0-0.037-0.013-0.044-0.032l-18.981-51.861c-0.006-0.019-0.002-0.039,0.012-0.051
			l20.666-18.699c0.015-0.012,0.036-0.016,0.051-0.008c0.017,0.008,0.028,0.026,0.026,0.045l-1.685,70.561
			c0,0.022-0.018,0.041-0.039,0.044C33.877,364.204,33.875,364.206,33.873,364.206z M14.945,312.31l18.886,51.603l1.677-70.207
			L14.945,312.31z"/>
		<path fill="#FFFFFF" d="M14.891,312.343c-0.01,0-0.021-0.004-0.029-0.01c-0.017-0.016-0.023-0.039-0.012-0.06l18.774-34.737
			c0.01-0.016,0.035-0.028,0.05-0.023c0.02,0.004,0.035,0.021,0.037,0.04l1.891,16.04c0.003,0.014-0.003,0.029-0.014,0.039
			l-20.667,18.699C14.913,312.338,14.902,312.343,14.891,312.343z M33.637,277.711l-18.576,34.368l20.448-18.5L33.637,277.711z"/>
		<path fill="#FFFFFF" d="M117.762,455.034c-0.002,0-0.006,0-0.009-0.002c-0.021-0.002-0.036-0.021-0.037-0.041l-4.646-56.43
			c-0.001-0.016,0.007-0.034,0.023-0.044c0.015-0.008,0.035-0.008,0.049,0.002l24.303,16.299c0.02,0.013,0.027,0.037,0.016,0.059
			l-19.658,40.131C117.796,455.023,117.779,455.034,117.762,455.034z M113.172,398.651l4.623,56.163l19.566-39.942L113.172,398.651z
			"/>
		<path fill="#FFFFFF" d="M87.69,162.94c-0.003,0-0.009,0-0.012-0.002l-60.703-16.202c-0.017-0.005-0.029-0.018-0.033-0.035
			c-0.005-0.017,0.001-0.035,0.015-0.046l82.968-70.766c0.015-0.014,0.038-0.016,0.055-0.004c0.018,0.011,0.025,0.032,0.021,0.051
			l-22.266,86.969c-0.002,0.012-0.011,0.022-0.022,0.028C87.706,162.938,87.699,162.94,87.69,162.94z M27.085,146.668l60.571,16.168
			l22.218-86.781L27.085,146.668z"/>
		<path fill="#FFFFFF" d="M26.987,146.738c-0.011,0-0.021-0.005-0.03-0.013c-0.019-0.015-0.022-0.041-0.009-0.061l38.059-59.12
			c0.006-0.01,0.016-0.017,0.026-0.02l44.909-11.645c0.027-0.007,0.042,0.003,0.053,0.022c0.01,0.019,0.006,0.042-0.011,0.057
			l-82.968,70.766C27.009,146.734,26.999,146.738,26.987,146.738z M65.076,87.611l-37.878,58.838l82.574-70.428L65.076,87.611z"/>
		<path fill="#FFFFFF" d="M65.046,87.617c-0.017,0-0.034-0.01-0.042-0.025c-0.01-0.021-0.004-0.044,0.015-0.059l30.97-23.762
			c0.02-0.013,0.044-0.011,0.059,0.002l13.938,12.116c0.013,0.012,0.02,0.03,0.015,0.046c-0.004,0.016-0.018,0.029-0.033,0.034
			L65.059,87.616C65.054,87.617,65.05,87.617,65.046,87.617z M96.015,63.87L65.256,87.468l44.603-11.566L96.015,63.87z"/>
		<path fill="#FFFFFF" d="M151.796,271.422c-0.004,0-0.008,0-0.012,0c-0.018-0.005-0.032-0.021-0.034-0.039l-4.776-40.495
			c-0.002-0.021,0.009-0.04,0.028-0.049l52.175-21.631c0.019-0.008,0.042-0.001,0.055,0.015c0.014,0.017,0.014,0.04,0.001,0.056
			l-47.399,62.126C151.824,271.417,151.811,271.422,151.796,271.422z M147.071,230.913l4.758,40.344l47.225-61.896L147.071,230.913z
			"/>
		<path fill="#FFFFFF" d="M151.796,271.422c-0.017,0-0.032-0.008-0.04-0.023c-0.01-0.016-0.009-0.036,0.002-0.05l47.4-62.126
			c0.012-0.015,0.022-0.023,0.049-0.017c0.018,0.004,0.032,0.02,0.034,0.039l8.203,55.296c0.001,0.013-0.002,0.025-0.009,0.037
			c-0.009,0.008-0.02,0.016-0.032,0.016l-55.602,6.829C151.8,271.422,151.799,271.422,151.796,271.422z M199.165,209.368
			L151.9,271.317l55.444-6.811L199.165,209.368z"/>
		<path fill="#FFFFFF" d="M199.196,209.298c-0.003,0-0.008-0.001-0.01-0.002c-0.021-0.003-0.035-0.021-0.037-0.042l-8.67-91.855
			c-0.002-0.02,0.009-0.039,0.027-0.046c0.016-0.007,0.037-0.006,0.052,0.009l39.304,39.302c0.015,0.013,0.018,0.038,0.007,0.056
			l-30.633,52.553C199.227,209.289,199.211,209.298,199.196,209.298z M190.583,117.52l8.646,91.583l30.542-52.397L190.583,117.52z"
			/>
		<path fill="#FFFFFF" d="M199.196,209.298c-0.013,0-0.027-0.006-0.035-0.017c-0.014-0.016-0.015-0.036-0.005-0.054l30.634-52.553
			c0.007-0.013,0.022-0.022,0.037-0.023c0.012,0,0.03,0.005,0.04,0.018l23.966,30.479c0.01,0.012,0.012,0.025,0.008,0.04
			c-0.002,0.015-0.013,0.026-0.027,0.032l-54.599,22.074C199.208,209.296,199.202,209.298,199.196,209.298z M229.835,156.781
			l-30.53,52.376l54.415-22L229.835,156.781z"/>
		<path fill="#FFFFFF" d="M146.562,364.404c-0.014,0-0.029-0.008-0.038-0.019l-25.573-35.805c-0.011-0.017-0.012-0.037-0.003-0.053
			l15.799-25.13c0.011-0.017,0.028-0.023,0.05-0.021c0.018,0.004,0.033,0.019,0.036,0.038l9.774,60.935
			c0.003,0.021-0.008,0.042-0.028,0.05C146.574,364.404,146.567,364.404,146.562,364.404z M121.044,328.552l25.44,35.617
			l-9.724-60.615L121.044,328.552z"/>
		<path fill="#FFFFFF" d="M35.557,293.645c-0.003,0-0.007-0.001-0.01-0.001c-0.019-0.005-0.034-0.021-0.036-0.041l-1.891-16.038
			c-0.003-0.016,0.004-0.032,0.017-0.042l24.017-19.093c0.018-0.015,0.042-0.014,0.061,0.001c0.017,0.015,0.019,0.041,0.007,0.059
			l-22.125,35.133C35.587,293.637,35.573,293.645,35.557,293.645z M33.716,277.579l1.871,15.883l21.91-34.791L33.716,277.579z"/>
		<path fill="#FFFFFF" d="M33.666,277.606c-0.007,0-0.015-0.001-0.021-0.006c-0.017-0.007-0.026-0.025-0.025-0.044l4.524-98.259
			c0.002-0.023,0.019-0.042,0.042-0.044c0.002,0,0.003,0,0.005,0c0.021,0,0.04,0.014,0.045,0.035l19.491,79.167
			c0.005,0.017-0.001,0.034-0.015,0.046l-24.018,19.095C33.687,277.603,33.677,277.606,33.666,277.606z M38.222,179.624
			l-4.505,97.835l23.913-19.011L38.222,179.624z"/>
		<path fill="#FFFFFF" d="M57.683,258.512c-0.001,0-0.002,0-0.004,0c-0.02-0.002-0.036-0.018-0.041-0.037l-19.492-79.165
			c-0.005-0.02,0.003-0.04,0.02-0.05c0.017-0.011,0.041-0.011,0.055,0.004l39.12,33.465c0.016,0.012,0.021,0.035,0.012,0.053
			l-19.627,45.701C57.718,258.501,57.701,258.512,57.683,258.512z M38.271,179.43l19.423,78.89l19.56-45.542L38.271,179.43z"/>
		<path fill="#FFFFFF" d="M57.683,258.512c-0.015,0-0.028-0.008-0.038-0.02c-0.01-0.012-0.013-0.031-0.005-0.046l19.627-45.7
			c0.006-0.016,0.02-0.026,0.036-0.028c0.012-0.001,0.031,0.003,0.043,0.015l34.656,39.299c0.011,0.013,0.014,0.031,0.008,0.047
			c-0.005,0.016-0.02,0.028-0.037,0.03l-54.286,6.403C57.687,258.512,57.684,258.512,57.683,258.512z M77.324,212.852
			l-19.566,45.558l54.115-6.382L77.324,212.852z"/>
		<path fill="#FFFFFF" d="M136.787,303.472c-0.009,0-0.016-0.003-0.023-0.007L57.66,258.505c-0.018-0.011-0.027-0.03-0.023-0.049
			c0.005-0.02,0.021-0.035,0.041-0.037l54.283-6.402c0.003-0.001,0.005-0.001,0.006-0.001c0.019,0,0.034,0.01,0.042,0.026
			l24.82,51.361c0.009,0.018,0.004,0.04-0.011,0.054C136.81,303.466,136.799,303.472,136.787,303.472z M57.83,258.494l78.851,44.814
			l-24.741-51.195L57.83,258.494z"/>
		<path fill="#FFFFFF" d="M87.69,162.94c-0.009,0-0.017-0.002-0.024-0.007c-0.017-0.01-0.025-0.031-0.021-0.052l22.265-86.968
			c0.005-0.021,0.023-0.035,0.044-0.035l0,0c0.022,0,0.041,0.016,0.046,0.036l12.715,54.791c0.005,0.016-0.001,0.033-0.013,0.044
			l-34.982,32.178C87.713,162.936,87.701,162.94,87.69,162.94z M109.953,76.121l-22.179,86.631l34.847-32.053L109.953,76.121z"/>
		<path fill="#FFFFFF" d="M110.464,202.25c-0.017,0-0.032-0.009-0.04-0.022l-22.773-39.312c-0.012-0.019-0.008-0.042,0.008-0.058
			l34.982-32.178c0.013-0.013,0.039-0.017,0.053-0.007c0.019,0.01,0.028,0.029,0.025,0.049l-12.208,71.489
			c-0.003,0.02-0.018,0.035-0.038,0.038C110.47,202.25,110.466,202.25,110.464,202.25z M87.75,162.902l22.69,39.167l12.163-71.228
			L87.75,162.902z"/>
		<path fill="#FFFFFF" d="M117.762,455.034c-0.01,0-0.02-0.003-0.028-0.01l-30.872-23.11c-0.01-0.007-0.017-0.018-0.018-0.031
			c-0.001-0.012,0.001-0.024,0.01-0.035l26.226-33.318c0.011-0.015,0.032-0.021,0.05-0.016c0.018,0.006,0.032,0.021,0.032,0.041
			l4.646,56.43c0.002,0.018-0.007,0.035-0.023,0.043C117.778,455.032,117.77,455.034,117.762,455.034z M86.958,431.868l30.75,23.02
			l-4.627-56.209L86.958,431.868z"/>
		<path fill="#FFFFFF" d="M159.351,50.54c-0.016,0-0.03-0.007-0.04-0.021c-0.01-0.018-0.008-0.039,0.003-0.054l28.533-35.047
			c0.017-0.02,0.046-0.022,0.063-0.008l30.052,21.473c0.015,0.01,0.023,0.029,0.019,0.047c-0.004,0.018-0.018,0.032-0.035,0.036
			l-58.585,13.573C159.358,50.541,159.354,50.54,159.351,50.54z M187.892,15.509l-28.419,34.908l58.351-13.519L187.892,15.509z"/>
		<path fill="#FFFFFF" d="M217.935,36.968c-0.01,0-0.02-0.003-0.026-0.009l-30.052-21.473c-0.016-0.012-0.023-0.031-0.019-0.05
			c0.005-0.018,0.021-0.033,0.039-0.034L215.02,12.2c0.022-0.007,0.049,0.016,0.051,0.04l2.91,24.676
			c0.002,0.017-0.006,0.036-0.021,0.045C217.953,36.965,217.944,36.968,217.935,36.968z M188.008,15.479l29.869,21.342
			l-2.893-24.523L188.008,15.479z"/>
		<path fill="#FFFFFF" d="M217.935,36.968c-0.005,0-0.012-0.001-0.018-0.003c-0.016-0.007-0.027-0.021-0.028-0.038l-2.91-24.675
			c-0.001-0.013,0.002-0.026,0.011-0.036c0.008-0.009,0.021-0.016,0.034-0.016l35.605-1.058h0.001c0.019,0,0.037,0.012,0.043,0.031
			c0.007,0.018,0.001,0.04-0.015,0.052l-32.695,25.732C217.956,36.964,217.945,36.968,217.935,36.968z M215.077,12.291l2.896,24.542
			l32.519-25.593L215.077,12.291z"/>
		<path fill="#FFFFFF" d="M235.101,59.388c-0.015,0-0.028-0.006-0.037-0.018L217.899,36.95c-0.016-0.021-0.012-0.05,0.007-0.065
			l32.695-25.732c0.017-0.013,0.039-0.013,0.056-0.002c0.017,0.013,0.024,0.033,0.019,0.053l-15.53,48.154
			c-0.006,0.016-0.02,0.027-0.036,0.031C235.105,59.388,235.103,59.388,235.101,59.388z M218.001,36.929l17.083,22.313
			l15.455-47.922L218.001,36.929z"/>
		<path fill="#FFFFFF" d="M113.117,398.605c-0.021,0-0.038-0.013-0.045-0.032l-16.954-52.455c-0.006-0.018,0.001-0.039,0.019-0.053
			l24.824-17.55c0.014-0.011,0.033-0.012,0.051-0.002c0.016,0.01,0.024,0.027,0.022,0.044l-7.872,70.007
			c-0.001,0.022-0.019,0.037-0.041,0.041C113.121,398.605,113.119,398.605,113.117,398.605z M96.218,346.123l16.877,52.216
			l7.835-69.687L96.218,346.123z"/>
		<path fill="#FFFFFF" d="M159.351,50.54c-0.004,0-0.007,0-0.011-0.001l-38.924-8.899c-0.02-0.005-0.034-0.022-0.035-0.042
			c-0.002-0.021,0.01-0.04,0.029-0.047l67.457-26.146c0.02-0.008,0.042-0.002,0.054,0.016c0.013,0.017,0.013,0.039-0.001,0.056
			l-28.532,35.047C159.377,50.535,159.364,50.54,159.351,50.54z M120.585,41.583l38.747,8.859l28.404-34.889L120.585,41.583z"/>
		<path fill="#FFFFFF" d="M65.046,87.617c-0.013,0-0.026-0.006-0.036-0.018c-0.016-0.02-0.013-0.048,0.006-0.064l55.379-45.976
			c0.021-0.015,0.047-0.015,0.065,0.005c0.017,0.019,0.015,0.048-0.003,0.065L96.049,63.842L65.075,87.607
			C65.066,87.614,65.056,87.617,65.046,87.617z M118.881,42.938L66.94,86.059l29.049-22.288L118.881,42.938z"/>
		<path fill="#FFFFFF" d="M109.955,75.971c-0.011,0-0.021-0.005-0.03-0.011L95.987,63.844c-0.01-0.008-0.016-0.021-0.016-0.035
			c-0.002-0.013,0.004-0.026,0.014-0.035l24.409-22.214c0.016-0.014,0.038-0.016,0.058-0.006c0.017,0.013,0.025,0.034,0.019,0.053
			l-10.47,34.33c-0.005,0.015-0.018,0.027-0.032,0.032C109.964,75.971,109.96,75.971,109.955,75.971z M96.088,63.808l13.844,12.033
			l10.401-34.098L96.088,63.808z"/>
		<path fill="#FFFFFF" d="M109.955,75.971c-0.011,0-0.021-0.003-0.03-0.011c-0.013-0.012-0.02-0.031-0.015-0.049l10.471-34.33
			c0.006-0.024,0.027-0.037,0.056-0.032l38.924,8.9c0.019,0.003,0.033,0.02,0.036,0.039c0.002,0.02-0.007,0.04-0.025,0.048
			l-49.395,25.43C109.97,75.969,109.963,75.971,109.955,75.971z M120.458,41.65l-10.426,34.182l49.184-25.321L120.458,41.65z"/>
		<path fill="#FFFFFF" d="M286.548,117.95c-0.012,0-0.023-0.004-0.032-0.012c-0.016-0.016-0.019-0.038-0.009-0.057l17.523-31.724
			c0.008-0.014,0.021-0.022,0.036-0.024l40.448-4.771c0.002,0,0.005,0,0.005,0c0.021,0,0.038,0.013,0.043,0.031
			c0.008,0.021,0,0.044-0.019,0.056l-57.971,36.495C286.564,117.947,286.558,117.95,286.548,117.95z M304.1,86.224l-17.423,31.543
			l57.644-36.288L304.1,86.224z"/>
		<path fill="#FFFFFF" d="M33.873,364.206c-0.004,0-0.008-0.002-0.011-0.002c-0.021-0.005-0.037-0.023-0.036-0.046l1.686-70.561
			c0-0.015,0.005-0.025,0.014-0.035c0.01-0.008,0.029-0.014,0.036-0.012l29.456,2.588c0.016,0.001,0.029,0.01,0.036,0.021
			c0.008,0.016,0.009,0.029,0.002,0.044l-31.141,67.975C33.907,364.194,33.89,364.206,33.873,364.206z M35.602,293.647
			l-1.678,70.285l31.018-67.706L35.602,293.647z"/>
		<path fill="#FFFFFF" d="M65.013,296.23c-0.001,0-0.002,0-0.003,0l-29.456-2.586c-0.017-0.001-0.03-0.012-0.038-0.026
			c-0.007-0.014-0.007-0.031,0.002-0.045l22.125-35.133c0.01-0.016,0.026-0.025,0.047-0.021c0.019,0.003,0.034,0.017,0.038,0.037
			l7.33,37.72c0.003,0.014-0.001,0.029-0.011,0.039C65.039,296.227,65.026,296.23,65.013,296.23z M35.637,293.559l29.318,2.575
			l-7.295-37.545L35.637,293.559z"/>
		<path fill="#FFFFFF" d="M136.787,303.472c-0.001,0-0.003,0-0.005-0.003l-71.774-7.238c-0.021-0.001-0.036-0.017-0.041-0.036
			l-7.33-37.721c-0.004-0.017,0.004-0.037,0.02-0.046c0.012-0.013,0.032-0.011,0.05-0.003l79.104,44.959
			c0.02,0.012,0.028,0.033,0.022,0.054C136.824,303.456,136.808,303.472,136.787,303.472z M65.051,296.141l71.521,7.216
			l-78.824-44.801L65.051,296.141z"/>
		<path fill="#FFFFFF" d="M96.163,346.15c-0.003,0-0.006,0-0.009,0c-0.012-0.003-0.023-0.011-0.03-0.021l-31.15-49.92
			c-0.011-0.019-0.008-0.042,0.006-0.058c0.016-0.017,0.039-0.019,0.058-0.008l55.975,32.369c0.015,0.008,0.023,0.022,0.023,0.038
			c0.001,0.017-0.006,0.031-0.02,0.04l-24.825,17.551C96.183,346.148,96.173,346.15,96.163,346.15z M65.151,296.318l31.025,49.72
			l24.726-17.48L65.151,296.318z"/>
		<path fill="#FFFFFF" d="M120.988,328.6c-0.008,0-0.015-0.003-0.023-0.005l-55.975-32.37c-0.02-0.011-0.028-0.033-0.022-0.054
			c0.007-0.021,0.025-0.032,0.045-0.032c0.001,0,0.004,0,0.005,0l71.774,7.238c0.016,0.002,0.03,0.012,0.038,0.025
			c0.006,0.016,0.006,0.032-0.002,0.046l-15.799,25.13C121.019,328.592,121.003,328.6,120.988,328.6z M65.224,296.254l55.749,32.237
			l15.735-25.029L65.224,296.254z"/>
		<path fill="#FFFFFF" d="M190.525,117.442c-0.013,0-0.026-0.006-0.035-0.017c-0.015-0.016-0.015-0.041-0.001-0.059l44.575-58.054
			c0.011-0.015,0.034-0.022,0.052-0.015c0.02,0.007,0.032,0.025,0.031,0.046l-1.644,34.974c0,0.016-0.01,0.031-0.024,0.039
			l-42.932,23.08C190.54,117.441,190.533,117.442,190.525,117.442z M235.047,59.488l-44.354,57.764l42.718-22.965L235.047,59.488z"
			/>
		<path fill="#FFFFFF" d="M229.829,156.745c-0.013,0-0.024-0.006-0.033-0.015l-39.304-39.302c-0.011-0.01-0.016-0.024-0.013-0.039
			c0.002-0.015,0.011-0.028,0.024-0.035l42.931-23.081c0.015-0.007,0.03-0.007,0.047,0.003c0.014,0.008,0.022,0.025,0.021,0.042
			l-3.627,62.383c-0.001,0.019-0.012,0.035-0.029,0.042C229.84,156.744,229.835,156.745,229.829,156.745z M190.603,117.407
			l39.187,39.185l3.617-62.196L190.603,117.407z"/>
		<path fill="#FFFFFF" d="M233.457,94.362c-0.005,0-0.011-0.001-0.016-0.003c-0.02-0.007-0.032-0.025-0.03-0.047l1.644-34.973
			c0-0.013,0.006-0.025,0.017-0.034l55.578-43.895c0.018-0.015,0.043-0.013,0.062,0.003c0.016,0.016,0.018,0.042,0.004,0.062
			l-57.221,78.867C233.486,94.354,233.471,94.362,233.457,94.362z M235.146,59.366l-1.637,34.796l56.934-78.469L235.146,59.366z"/>
		<path fill="#FFFFFF" d="M149.729,84.415c-0.009,0-0.019-0.003-0.026-0.009c-0.017-0.011-0.023-0.032-0.018-0.05l9.622-33.874
			c0.005-0.017,0.018-0.03,0.034-0.033l58.585-13.574c0.022-0.003,0.045,0.006,0.053,0.026c0.01,0.02,0.002,0.044-0.015,0.058
			l-68.207,47.447C149.747,84.412,149.738,84.415,149.729,84.415z M159.388,50.534l-9.579,33.722l67.901-47.234L159.388,50.534z"/>
		<path fill="#FFFFFF" d="M149.729,84.415c-0.017,0-0.034-0.011-0.042-0.026c-0.01-0.021-0.002-0.045,0.016-0.059l68.207-47.447
			c0.021-0.014,0.048-0.01,0.063,0.009l17.165,22.421c0.01,0.013,0.012,0.028,0.007,0.044c-0.003,0.014-0.016,0.025-0.03,0.03
			l-85.372,25.026C149.737,84.415,149.734,84.415,149.729,84.415z M217.925,36.985l-67.935,47.258l85.031-24.927L217.925,36.985z"/>
		<path fill="#FFFFFF" d="M190.525,117.442c-0.011,0-0.021-0.004-0.029-0.01L149.7,84.403c-0.014-0.01-0.02-0.027-0.018-0.044
			c0.004-0.017,0.016-0.031,0.033-0.037l85.372-25.025c0.021-0.004,0.038,0.001,0.051,0.019c0.011,0.016,0.011,0.038-0.002,0.055
			l-44.575,58.054C190.553,117.436,190.531,117.443,190.525,117.442z M149.827,84.388l40.691,32.941l44.458-57.903L149.827,84.388z"
			/>
		<path fill="#FFFFFF" d="M122.672,130.762c-0.002,0-0.005,0-0.007-0.001c-0.018-0.003-0.034-0.017-0.038-0.036l-12.716-54.79
			c-0.003-0.016,0-0.032,0.012-0.043c0.01-0.012,0.029-0.016,0.042-0.013l39.773,8.443c0.015,0.003,0.027,0.013,0.033,0.028
			c0.006,0.013,0.005,0.029-0.002,0.042l-27.057,46.347C122.703,130.753,122.689,130.762,122.672,130.762z M110.018,75.985
			l12.674,54.604l26.965-46.19L110.018,75.985z"/>
		<path fill="#FFFFFF" d="M149.729,84.415c-0.003,0-0.005,0-0.009-0.001l-39.774-8.444c-0.019-0.004-0.033-0.02-0.036-0.039
			c-0.002-0.02,0.008-0.039,0.024-0.048l49.395-25.43c0.017-0.009,0.036-0.006,0.051,0.005c0.014,0.012,0.021,0.031,0.015,0.049
			l-9.622,33.874C149.768,84.401,149.75,84.415,149.729,84.415z M110.093,75.906l39.604,8.408l9.581-33.729L110.093,75.906z"/>
		<path fill="#FFFFFF" d="M113.117,398.605c-0.006,0-0.011-0.001-0.017-0.002l-27.673-10.776c-0.022-0.007-0.034-0.03-0.028-0.053
			l10.719-41.681c0.005-0.021,0.023-0.035,0.043-0.036h0.001c0.021,0,0.038,0.013,0.045,0.032l16.954,52.453
			c0.004,0.019,0,0.037-0.014,0.05C113.14,398.601,113.129,398.605,113.117,398.605z M85.5,387.756l27.543,10.725l-16.875-52.209
			L85.5,387.756z"/>
		<path fill="#FFFFFF" d="M86.891,431.924c-0.005,0-0.01-0.001-0.015-0.002c-0.018-0.006-0.031-0.023-0.031-0.043l-1.447-44.092
			c-0.001-0.016,0.006-0.031,0.02-0.04c0.011-0.01,0.027-0.012,0.043-0.007l27.673,10.774c0.013,0.006,0.024,0.018,0.028,0.032
			c0.003,0.013,0,0.028-0.009,0.041l-26.226,33.318C86.919,431.917,86.905,431.924,86.891,431.924z M85.492,387.854l1.441,43.895
			l26.109-33.169L85.492,387.854z"/>
		<path fill="#FFFFFF" d="M207.397,264.595c-0.008,0-0.017-0.003-0.024-0.006c-0.012-0.009-0.02-0.021-0.022-0.034l-8.202-55.296
			c-0.002-0.019,0.006-0.038,0.023-0.047c0.018-0.011,0.037-0.007,0.052,0.005l49.885,41.195c0.013,0.011,0.02,0.028,0.017,0.044
			c-0.004,0.018-0.015,0.031-0.031,0.037l-41.683,14.1C207.407,264.594,207.403,264.595,207.397,264.595z M199.26,209.365
			l8.175,55.121l41.551-14.056L199.26,209.365z"/>
		<path fill="#FFFFFF" d="M249.081,250.493c-0.011,0-0.02-0.003-0.029-0.011l-49.885-41.195c-0.013-0.011-0.02-0.026-0.017-0.043
			c0.002-0.015,0.014-0.03,0.029-0.036l54.6-22.075c0.01-0.007,0.03-0.004,0.045,0.006c0.012,0.009,0.019,0.024,0.019,0.042
			l-4.715,63.27c-0.001,0.017-0.012,0.032-0.028,0.04C249.093,250.493,249.087,250.493,249.081,250.493z M199.285,209.266
			l49.756,41.087l4.702-63.105L199.285,209.266z"/>
		<path fill="#FFFFFF" d="M249.081,250.493c-0.011,0-0.02-0.003-0.029-0.01c-0.012-0.009-0.019-0.024-0.017-0.04l4.715-63.27
			c0-0.019,0.014-0.035,0.032-0.041c0.014-0.006,0.037,0,0.05,0.015l39.325,49.15c0.009,0.012,0.012,0.029,0.008,0.042
			c-0.004,0.015-0.015,0.026-0.03,0.031l-44.039,14.121C249.09,250.493,249.086,250.493,249.081,250.493z M253.833,187.298
			l-4.7,63.083l43.908-14.079L253.833,187.298z"/>
		<path fill="#FFFFFF" d="M229.829,156.745c-0.005,0-0.01-0.001-0.014-0.003c-0.02-0.006-0.033-0.026-0.032-0.047l3.627-62.383
			c0-0.011,0.006-0.023,0.015-0.032c0.011-0.007,0.02-0.016,0.036-0.01l32.952,3.03c0.016,0.002,0.029,0.012,0.037,0.025
			c0.007,0.014,0.007,0.032-0.002,0.045l-36.579,59.352C229.861,156.736,229.845,156.745,229.829,156.745z M233.5,94.367
			l-3.614,62.15l36.443-59.132L233.5,94.367z"/>
		<path fill="#FFFFFF" d="M229.829,156.745c-0.013,0-0.023-0.005-0.031-0.013c-0.018-0.016-0.02-0.04-0.009-0.058l36.579-59.353
			c0.01-0.013,0.028-0.022,0.042-0.022c0.011,0,0.023,0.004,0.032,0.014l20.139,20.557c0.01,0.01,0.015,0.024,0.014,0.038
			c-0.001,0.013-0.009,0.025-0.02,0.033l-56.719,38.795C229.847,156.742,229.839,156.745,229.829,156.745z M266.417,97.421
			l-36.433,59.114l56.493-38.639L266.417,97.421z"/>
		<path fill="#FFFFFF" d="M266.409,97.393c-0.002,0-0.002,0-0.006,0l-32.952-3.031c-0.016-0.001-0.03-0.011-0.038-0.026
			c-0.007-0.015-0.005-0.033,0.005-0.046l57.222-78.868c0.013-0.021,0.041-0.024,0.059-0.016c0.021,0.01,0.03,0.034,0.024,0.056
			l-24.271,81.898C266.447,97.379,266.43,97.393,266.409,97.393z M233.542,94.276l32.832,3.02l24.183-81.603L233.542,94.276z"/>
		<path fill="#FFFFFF" d="M286.548,117.95c-0.012,0-0.024-0.004-0.032-0.014l-20.14-20.558c-0.013-0.012-0.018-0.029-0.013-0.044
			c0.004-0.016,0.016-0.028,0.032-0.033l37.662-11.168c0.018-0.004,0.038,0,0.049,0.016c0.013,0.015,0.014,0.036,0.006,0.052
			l-17.522,31.724c-0.007,0.013-0.021,0.022-0.036,0.024C286.552,117.95,286.551,117.95,286.548,117.95z M266.497,97.368
			l20.04,20.458l17.439-31.57L266.497,97.368z"/>
		<path fill="#FFFFFF" d="M266.409,97.393c-0.014,0-0.025-0.005-0.033-0.014c-0.013-0.012-0.018-0.03-0.013-0.046l24.27-81.898
			c0.007-0.021,0.025-0.034,0.046-0.034c0.026,0,0.042,0.018,0.046,0.039l13.392,70.732c0.003,0.024-0.011,0.046-0.034,0.054
			l-37.662,11.167C266.417,97.392,266.414,97.393,266.409,97.393z M290.67,15.645l-24.192,81.632l37.539-11.13L290.67,15.645z"/>
		<path fill="#FFFFFF" d="M193.255,459.867c-0.007,0-0.015-0.003-0.022-0.007l-42.2-22.266c-0.015-0.008-0.024-0.022-0.024-0.038
			l-4.493-73.196c-0.003-0.025,0.017-0.049,0.043-0.05c0,0,0.001,0,0.002,0c0.024,0,0.045,0.02,0.046,0.044l4.493,73.17
			l42.176,22.254c0.023,0.013,0.032,0.04,0.02,0.063C193.288,459.857,193.272,459.867,193.255,459.867z"/>
		<path fill="#FFFFFF" d="M202.482,492.291c-0.013,0-0.026-0.008-0.035-0.017l-51.426-54.689c-0.016-0.017-0.018-0.042-0.004-0.061
			c0.014-0.018,0.037-0.024,0.06-0.013l42.199,22.267c0.011,0.006,0.02,0.018,0.023,0.028l9.228,32.424
			c0.006,0.021-0.004,0.042-0.022,0.053C202.498,492.288,202.489,492.291,202.482,492.291z M151.281,437.725l51.104,54.348
			l-9.169-32.219L151.281,437.725z"/>
		<path fill="#FFFFFF" d="M202.482,492.291c-0.006,0-0.013-0.003-0.019-0.005l-84.72-37.256c-0.017-0.007-0.027-0.023-0.027-0.041
			c-0.001-0.02,0.008-0.035,0.024-0.043l33.293-17.435c0.018-0.009,0.042-0.006,0.056,0.011l51.427,54.688
			c0.015,0.017,0.017,0.042,0.003,0.06C202.511,492.282,202.497,492.291,202.482,492.291z M117.87,454.984l84.421,37.125
			l-51.246-54.499L117.87,454.984z"/>
		<path fill="#FFFFFF" d="M117.762,455.034c-0.012,0-0.023-0.004-0.033-0.014c-0.015-0.014-0.019-0.035-0.009-0.054l19.659-40.131
			c0.008-0.017,0.027-0.022,0.041-0.026c0.016,0,0.032,0.009,0.041,0.022l13.634,22.697c0.006,0.011,0.009,0.023,0.005,0.036
			c-0.004,0.012-0.013,0.023-0.023,0.029l-33.293,17.436C117.776,455.032,117.77,455.034,117.762,455.034z M137.424,414.954
			l-19.558,39.927l33.123-17.345L137.424,414.954z"/>
		<path fill="#FFFFFF" d="M151.055,437.601c-0.016,0-0.032-0.01-0.04-0.023l-13.635-22.696c-0.006-0.011-0.007-0.021-0.006-0.032
			l9.142-50.499c0.004-0.023,0.032-0.042,0.048-0.039c0.024,0.001,0.042,0.022,0.043,0.044l4.494,73.195
			c0.001,0.022-0.012,0.041-0.033,0.048C151.064,437.601,151.06,437.601,151.055,437.601z M137.469,414.848l13.528,22.518
			l-4.458-72.62L137.469,414.848z"/>
		<path fill="#FFFFFF" d="M253.796,187.223c-0.014,0-0.028-0.006-0.037-0.019l-23.966-30.478c-0.009-0.013-0.013-0.03-0.007-0.045
			c0.006-0.015,0.02-0.026,0.035-0.029l86.62-16.314c0.024-0.006,0.043,0.008,0.051,0.027c0.008,0.02,0.002,0.042-0.015,0.057
			l-62.653,46.792C253.814,187.22,253.805,187.223,253.796,187.223z M229.913,156.729l23.891,30.383l62.457-46.646L229.913,156.729z
			"/>
		<path fill="#FFFFFF" d="M229.829,156.745c-0.018,0-0.035-0.012-0.042-0.029c-0.008-0.021-0.002-0.044,0.016-0.057l56.718-38.794
			c0.019-0.011,0.039-0.012,0.055,0.001l29.901,22.48c0.015,0.01,0.023,0.03,0.017,0.048c-0.003,0.018-0.017,0.032-0.036,0.035
			l-86.62,16.314C229.835,156.744,229.832,156.745,229.829,156.745z M286.547,117.96l-56.508,38.65l86.297-16.254L286.547,117.96z"
			/>
		<path fill="#FFFFFF" d="M253.796,187.223c-0.019,0-0.036-0.011-0.044-0.029c-0.007-0.02-0.002-0.042,0.016-0.055l62.653-46.792
			c0.016-0.013,0.037-0.011,0.056-0.001c0.015,0.011,0.023,0.032,0.017,0.051l-10.996,38.823c-0.004,0.018-0.021,0.03-0.038,0.034
			l-51.658,7.97C253.8,187.223,253.798,187.223,253.796,187.223z M316.366,140.503l-62.393,46.599l51.444-7.937L316.366,140.503z"/>
		<path fill="#FFFFFF" d="M316.449,140.43c-0.009,0-0.019-0.003-0.028-0.009l-29.9-22.48c-0.013-0.01-0.021-0.023-0.019-0.039
			c0-0.016,0.008-0.03,0.022-0.037l57.97-36.495c0.018-0.013,0.039-0.01,0.057,0.005c0.014,0.013,0.02,0.034,0.011,0.055
			l-28.071,58.975c-0.006,0.012-0.019,0.021-0.031,0.025C316.456,140.43,316.453,140.43,316.449,140.43z M286.631,117.907
			l29.802,22.406l27.976-58.779L286.631,117.907z"/>
		<path fill="#FFFFFF" d="M305.452,179.253c-0.008,0-0.016-0.001-0.023-0.006c-0.019-0.011-0.028-0.033-0.021-0.053l10.995-38.823
			c0.006-0.018,0.021-0.031,0.041-0.034l37.894-4.468c0.001,0,0.003,0,0.004,0c0.019,0,0.036,0.011,0.043,0.027
			c0.009,0.019,0.003,0.041-0.012,0.055l-48.891,43.292C305.475,179.25,305.464,179.253,305.452,179.253z M316.485,140.427
			l-10.943,38.64l48.66-43.089L316.485,140.427z"/>
		<path fill="#FFFFFF" d="M316.449,140.43c-0.014,0-0.029-0.006-0.037-0.019c-0.011-0.014-0.014-0.033-0.006-0.048l28.071-58.975
			c0.008-0.019,0.025-0.033,0.048-0.026c0.021,0.003,0.037,0.019,0.039,0.038l9.825,54.507c0.003,0.012-0.001,0.025-0.008,0.036
			c-0.007,0.01-0.02,0.017-0.032,0.019l-37.896,4.469C316.453,140.43,316.45,140.43,316.449,140.43z M344.498,81.56l-27.971,58.768
			l37.762-4.454L344.498,81.56z"/>
		<path fill="#FFFFFF" d="M171.537,157.521c-0.008,0-0.016-0.001-0.022-0.005l-48.865-26.759c-0.012-0.007-0.019-0.016-0.023-0.028
			c-0.003-0.013-0.001-0.026,0.005-0.037l27.057-46.348c0.01-0.015,0.026-0.027,0.046-0.022c0.019,0.002,0.033,0.015,0.039,0.034
			l21.809,73.105c0.004,0.019-0.002,0.039-0.016,0.05C171.557,157.519,171.547,157.521,171.537,157.521z M122.736,130.698
			l48.723,26.682l-21.744-72.896L122.736,130.698z"/>
		<path fill="#FFFFFF" d="M171.537,157.521c-0.002,0-0.003,0-0.004,0c-0.02-0.001-0.035-0.014-0.042-0.033l-21.808-73.106
			c-0.006-0.02,0.002-0.041,0.02-0.052c0.016-0.012,0.039-0.011,0.054,0.002l40.796,33.028c0.017,0.014,0.022,0.037,0.013,0.056
			l-18.988,40.079C171.57,157.511,171.555,157.521,171.537,157.521z M149.816,84.499l21.73,72.846l18.92-39.935L149.816,84.499z"/>
		<path fill="#FFFFFF" d="M199.196,209.298c-0.018,0-0.033-0.009-0.042-0.025l-27.659-51.777c-0.007-0.013-0.007-0.028-0.001-0.042
			l18.988-40.079c0.01-0.019,0.022-0.026,0.051-0.026c0.021,0.004,0.036,0.021,0.038,0.041l8.67,91.857
			c0.003,0.021-0.011,0.041-0.033,0.049C199.204,209.297,199.201,209.298,199.196,209.298z M171.589,157.474l27.539,51.551
			l-8.633-91.458L171.589,157.474z"/>
		<path fill="#FFFFFF" d="M110.464,202.25c-0.008,0-0.017-0.001-0.024-0.006c-0.017-0.01-0.024-0.029-0.022-0.048l12.208-71.488
			c0.002-0.015,0.012-0.028,0.026-0.035c0.015-0.005,0.03-0.007,0.042,0.001l48.865,26.761c0.015,0.007,0.023,0.021,0.024,0.037
			c0.001,0.016-0.006,0.031-0.018,0.041l-61.073,44.729C110.483,202.248,110.474,202.25,110.464,202.25z M122.708,130.787
			l-12.178,71.312l60.921-44.618L122.708,130.787z"/>
		<path fill="#FFFFFF" d="M33.873,364.206c-0.021,0-0.039-0.014-0.045-0.033c-0.006-0.022,0.002-0.044,0.022-0.054l36.317-20.859
			c0.016-0.007,0.039-0.007,0.053,0.006s0.021,0.033,0.013,0.052l-7.003,19.017c-0.006,0.019-0.022,0.029-0.042,0.031l-29.313,1.841
			C33.875,364.206,33.874,364.206,33.873,364.206z M70.101,343.404l-36.032,20.696l29.084-1.826L70.101,343.404z"/>
		<path fill="#FFFFFF" d="M33.873,364.206c-0.011,0-0.023-0.005-0.032-0.013c-0.015-0.015-0.02-0.035-0.011-0.054l31.141-67.975
			c0.008-0.02,0.028-0.028,0.05-0.026c0.021,0.002,0.036,0.021,0.039,0.041l5.177,47.117c0.002,0.018-0.007,0.034-0.023,0.046
			l-36.317,20.856C33.888,364.203,33.88,364.206,33.873,364.206z M64.985,296.357l-31.01,67.688l36.164-20.771L64.985,296.357z"/>
		<path fill="#FFFFFF" d="M63.186,362.365c-0.011,0-0.021-0.004-0.031-0.012c-0.013-0.013-0.018-0.033-0.012-0.052l7.003-19.017
			c0.008-0.019,0.024-0.03,0.044-0.03c0.001,0,0.003,0,0.004,0l25.974,2.804c0.021,0.002,0.038,0.018,0.041,0.038
			c0.004,0.02-0.007,0.04-0.025,0.05l-32.977,16.213C63.2,362.363,63.193,362.365,63.186,362.365z M70.221,343.351l-6.952,18.874
			l32.729-16.091L70.221,343.351z"/>
		<path fill="#FFFFFF" d="M96.163,346.15c-0.001,0-0.003,0-0.004,0l-25.974-2.804c-0.021-0.002-0.039-0.02-0.041-0.041
			l-5.177-47.116c-0.002-0.021,0.01-0.041,0.03-0.05c0.023-0.006,0.043,0.001,0.056,0.02l31.15,49.92
			c0.009,0.016,0.009,0.035,0,0.051C96.194,346.143,96.179,346.15,96.163,346.15z M70.232,343.26l25.841,2.789l-30.991-49.666
			L70.232,343.26z"/>
		<path fill="#FFFFFF" d="M262.126,496.514h-0.002l-59.646-4.223c-0.02-0.003-0.037-0.017-0.042-0.035l-9.227-32.424
			c-0.005-0.017,0.001-0.036,0.016-0.048c0.014-0.012,0.033-0.014,0.05-0.006l68.873,36.647c0.019,0.01,0.029,0.032,0.023,0.053
			C262.166,496.5,262.147,496.514,262.126,496.514z M202.519,492.198l59.393,4.207l-68.581-36.492L202.519,492.198z"/>
		<path fill="#FFFFFF" d="M262.126,496.514h-0.002l-59.646-4.223c-0.02-0.003-0.037-0.017-0.042-0.035l-9.227-32.424
			c-0.005-0.017,0.001-0.036,0.016-0.048c0.014-0.012,0.033-0.014,0.05-0.006l68.873,36.647c0.019,0.01,0.029,0.032,0.023,0.053
			C262.166,496.5,262.147,496.514,262.126,496.514z M202.519,492.198l59.393,4.207l-68.581-36.492L202.519,492.198z"/>
		<path fill="#FFFFFF" d="M262.126,496.514h-0.002l-59.646-4.223c-0.024-0.003-0.044-0.023-0.042-0.049
			c0-0.024,0.02-0.044,0.043-0.046l83.062-4.554c0.017,0.003,0.043,0.014,0.048,0.037c0.002,0.022-0.009,0.045-0.031,0.054
			l-23.416,8.777C262.138,496.513,262.133,496.514,262.126,496.514z M203.226,492.249l58.894,4.17l23.122-8.666L203.226,492.249z"/>
		<path fill="#FFFFFF" d="M262.126,496.514c-0.002,0-0.008-0.001-0.013-0.003l-144.365-41.479c-0.024-0.007-0.039-0.032-0.031-0.058
			c0.006-0.021,0.024-0.034,0.045-0.034c0.003,0,0.009,0.001,0.013,0.002l144.365,41.479c0.025,0.007,0.039,0.033,0.032,0.057
			C262.166,496.5,262.147,496.514,262.126,496.514z"/>
		<path fill="#FFFFFF" d="M147.02,230.93c-0.011,0-0.022-0.004-0.03-0.011c-0.014-0.013-0.02-0.029-0.015-0.047l8.475-33.99
			c0.002-0.012,0.011-0.022,0.021-0.028c0.011-0.006,0.025-0.009,0.036-0.004l43.7,12.357c0.019,0.005,0.033,0.022,0.034,0.042
			c0.001,0.02-0.01,0.038-0.028,0.045l-52.176,21.632C147.032,230.929,147.026,230.93,147.02,230.93z M155.529,196.951
			l-8.441,33.854l51.966-21.545L155.529,196.951z"/>
		<path fill="#FFFFFF" d="M199.196,209.298c-0.003,0-0.009-0.001-0.012-0.001l-43.701-12.359c-0.013-0.003-0.024-0.012-0.031-0.024
			c-0.004-0.011-0.005-0.025-0.001-0.038l16.042-39.419c0.007-0.017,0.029-0.03,0.044-0.028c0.017,0,0.033,0.009,0.041,0.024
			l27.659,51.777c0.009,0.016,0.008,0.036-0.005,0.051C199.223,209.292,199.209,209.298,199.196,209.298z M155.558,196.863
			l43.545,12.313l-27.56-51.591L155.558,196.863z"/>
		<path fill="#FFFFFF" d="M147.02,230.93c-0.01,0-0.021-0.003-0.029-0.01l-36.556-28.679c-0.015-0.011-0.021-0.031-0.016-0.049
			c0.005-0.018,0.021-0.031,0.039-0.033l45.032-5.311c0.001-0.001,0.003-0.001,0.005-0.001c0.014,0,0.026,0.006,0.036,0.016
			c0.01,0.011,0.013,0.027,0.01,0.042l-8.476,33.99c-0.004,0.015-0.015,0.027-0.03,0.032
			C147.03,230.929,147.025,230.93,147.02,230.93z M110.582,202.237l36.411,28.565l8.441-33.854L110.582,202.237z"/>
		<path fill="#FFFFFF" d="M110.464,202.25c-0.019,0-0.037-0.011-0.044-0.029c-0.007-0.02-0.001-0.042,0.016-0.055l61.073-44.729
			c0.017-0.012,0.041-0.011,0.057,0.001c0.016,0.013,0.022,0.035,0.014,0.055l-16.042,39.418c-0.007,0.016-0.022,0.027-0.039,0.029
			l-45.03,5.31C110.468,202.25,110.465,202.25,110.464,202.25z M171.431,157.61l-60.798,44.528l44.83-5.287L171.431,157.61z"/>
		<path fill="#FFFFFF" d="M65.271,380.048c-0.008,0-0.015-0.001-0.021-0.005l-31.398-15.842c-0.02-0.012-0.029-0.031-0.026-0.052
			c0.005-0.021,0.022-0.035,0.044-0.038l29.314-1.84c0,0,0.001,0,0.002,0c0.023,0,0.044,0.018,0.046,0.042l2.085,17.683
			c0.002,0.017-0.005,0.034-0.02,0.043C65.29,380.044,65.281,380.048,65.271,380.048z M34.046,364.194l31.168,15.726l-2.07-17.553
			L34.046,364.194z"/>
		<path fill="#FFFFFF" d="M86.891,431.924c-0.014,0-0.028-0.007-0.037-0.019l-53.019-67.718c-0.013-0.018-0.013-0.041,0-0.059
			c0.016-0.018,0.042-0.021,0.058-0.013l31.398,15.843c0.01,0.006,0.019,0.014,0.022,0.025l21.619,51.875
			c0.01,0.021,0.001,0.046-0.019,0.058C86.907,431.922,86.9,431.924,86.891,431.924z M34.038,364.296l52.678,67.282l-21.481-51.543
			L34.038,364.296z"/>
		<path fill="#FFFFFF" d="M65.271,380.048c-0.005,0-0.01,0-0.015-0.001c-0.017-0.008-0.029-0.021-0.031-0.039l-2.085-17.685
			c-0.002-0.02,0.008-0.039,0.025-0.047l32.978-16.213c0.017-0.011,0.042-0.006,0.058,0.014c0.014,0.018,0.013,0.041-0.003,0.059
			l-30.892,33.896C65.297,380.043,65.285,380.048,65.271,380.048z M63.236,362.346l2.069,17.549l30.657-33.641L63.236,362.346z"/>
		<path fill="#FFFFFF" d="M85.444,387.832c-0.006,0-0.011-0.002-0.017-0.005l-20.173-7.783c-0.014-0.005-0.024-0.017-0.027-0.032
			c-0.004-0.015,0-0.029,0.011-0.042l30.892-33.897c0.013-0.015,0.036-0.02,0.056-0.009s0.029,0.032,0.023,0.053l-10.719,41.681
			c-0.004,0.012-0.012,0.023-0.023,0.03C85.458,387.83,85.451,387.832,85.444,387.832z M65.351,379.982l20.061,7.74l10.659-41.447
			L65.351,379.982z"/>
		<path fill="#FFFFFF" d="M86.891,431.924c-0.019,0-0.035-0.012-0.042-0.027l-21.62-51.878c-0.008-0.016-0.004-0.036,0.008-0.051
			c0.014-0.014,0.033-0.016,0.051-0.011l20.172,7.783c0.017,0.009,0.029,0.025,0.029,0.044l1.447,44.091
			c0.001,0.023-0.015,0.042-0.036,0.049C86.897,431.923,86.895,431.924,86.891,431.924z M65.356,380.083l21.48,51.541l-1.438-43.807
			L65.356,380.083z"/>
	</g>
	<g>
		<path fill="#FFF701" d="M413.167,337.243c-0.011,0-0.023-0.005-0.032-0.012c-0.011-0.012-0.017-0.029-0.014-0.045l10.379-49.872
			c0.003-0.016,0.015-0.028,0.031-0.033c0.016-0.006,0.032-0.002,0.046,0.007l39.119,33.466c0.011,0.012,0.018,0.027,0.016,0.045
			c-0.005,0.016-0.016,0.029-0.032,0.034l-49.499,16.407C413.177,337.24,413.172,337.243,413.167,337.243z M423.575,287.411
			l-10.347,49.714l49.344-16.354L423.575,287.411z"/>
		<path fill="#FFF701" d="M146.513,364.223c-0.008,0-0.017-0.003-0.025-0.008c-0.017-0.011-0.025-0.032-0.02-0.053l18.195-63.154
			c0.004-0.014,0.015-0.025,0.029-0.029c0.013-0.005,0.03-0.005,0.041,0.004l30.696,19.861c0.012,0.007,0.019,0.021,0.021,0.034
			c0.001,0.017-0.005,0.03-0.016,0.039l-48.892,43.293C146.535,364.218,146.523,364.223,146.513,364.223z M164.735,301.096
			l-18.134,62.938l48.727-43.146L164.735,301.096z"/>
		<path fill="#FFF701" d="M349.061,228.76c-0.019,0-0.035-0.012-0.042-0.029l-12.479-29.536c-0.004-0.009-0.004-0.02-0.002-0.031
			l17.713-63.444c0.005-0.021,0.024-0.034,0.045-0.034c0.002,0,0.004,0,0.007,0c0.024,0.005,0.04,0.025,0.039,0.049l-5.234,92.981
			c-0.001,0.021-0.016,0.039-0.037,0.043C349.065,228.759,349.063,228.76,349.061,228.76z M336.631,199.174l12.395,29.335
			l5.198-92.351L336.631,199.174z"/>
		<path fill="#FFF701" d="M349.061,228.76c-0.003,0-0.007-0.001-0.012-0.002c-0.021-0.006-0.036-0.025-0.034-0.048l5.233-92.979
			c0.001-0.023,0.02-0.044,0.044-0.044c0.021-0.004,0.045,0.015,0.048,0.04l9.776,60.934c0,0.008,0,0.019-0.005,0.027
			l-15.009,32.046C349.096,228.75,349.079,228.76,349.061,228.76z M354.316,136.165l-5.194,92.31l14.899-31.815L354.316,136.165z"/>
		<path fill="#FFF701" d="M413.167,337.243c-0.018,0-0.032-0.01-0.042-0.025l-22.772-39.311c-0.007-0.012-0.009-0.026-0.004-0.04
			c0.005-0.012,0.016-0.021,0.03-0.026l33.153-10.56c0.016-0.007,0.034-0.002,0.046,0.009c0.013,0.01,0.018,0.027,0.015,0.044
			l-10.379,49.871c-0.005,0.02-0.021,0.033-0.04,0.035C413.172,337.24,413.17,337.243,413.167,337.243z M390.463,297.912
			l22.684,39.156l10.338-49.676L390.463,297.912z"/>
		<path fill="#FFF701" d="M462.667,320.837c-0.005,0-0.011-0.002-0.014-0.004c-0.021-0.006-0.035-0.024-0.032-0.046l4.524-98.259
			c0-0.02,0.015-0.038,0.034-0.042c0.029-0.007,0.04,0.003,0.053,0.02l28.231,45.455c0.009,0.015,0.009,0.036,0,0.049
			l-32.758,52.804C462.697,320.828,462.683,320.837,462.667,320.837z M467.232,222.682l-4.512,97.932l32.648-52.629L467.232,222.682
			z"/>
		<path fill="#FFF701" d="M293.551,236.372c-0.019,0-0.036-0.01-0.042-0.027c-0.009-0.019-0.005-0.04,0.011-0.054l43.033-37.149
			c0.01-0.01,0.024-0.013,0.042-0.01c0.015,0.003,0.026,0.012,0.031,0.027l12.479,29.536c0.006,0.013,0.004,0.028-0.002,0.042
			c-0.008,0.012-0.02,0.021-0.033,0.022l-55.511,7.613C293.554,236.372,293.553,236.372,293.551,236.372z M336.565,199.254
			l-42.866,37.004l55.295-7.583L336.565,199.254z"/>
		<path fill="#FFF701" d="M193.255,461.281c-0.014,0-0.027-0.007-0.035-0.016l-36.917-42.555c-0.011-0.013-0.015-0.031-0.009-0.047
			c0.006-0.016,0.021-0.027,0.038-0.03l40.448-4.77c0.002,0,0.005,0,0.006,0c0.012,0,0.023,0.004,0.033,0.011
			c0.01,0.011,0.014,0.023,0.013,0.038l-3.532,47.325c-0.001,0.02-0.013,0.035-0.031,0.041
			C193.265,461.281,193.26,461.281,193.255,461.281z M156.432,418.716l36.786,42.404l3.518-47.157L156.432,418.716z"/>
		<path fill="#FFF701" d="M195.405,320.929c-0.009,0-0.019-0.003-0.025-0.008l-30.697-19.86c-0.012-0.008-0.02-0.021-0.021-0.036
			c-0.001-0.015,0.005-0.028,0.016-0.038l43.029-37.257c0.015-0.014,0.036-0.016,0.055-0.007c0.017,0.011,0.025,0.032,0.021,0.05
			l-12.333,57.119c-0.004,0.015-0.015,0.027-0.028,0.034C195.417,320.928,195.41,320.929,195.405,320.929z M164.785,301.018
			l30.588,19.789l12.289-56.917L164.785,301.018z"/>
		<path fill="#FFF701" d="M495.424,268.032c-0.016,0-0.03-0.009-0.039-0.023l-28.233-45.455c-0.009-0.015-0.009-0.032-0.002-0.047
			l18.775-34.737c0.009-0.017,0.03-0.028,0.051-0.023c0.021,0.003,0.034,0.021,0.036,0.041l9.458,80.191
			c0.003,0.021-0.009,0.043-0.03,0.049C495.436,268.03,495.429,268.032,495.424,268.032z M467.245,222.528l28.108,45.254
			l-9.416-79.838L467.245,222.528z"/>
		<path fill="#FFF701" d="M473.87,353.444c-0.004,0-0.009,0-0.013,0l-60.703-16.204c-0.02-0.004-0.033-0.022-0.033-0.044
			c-0.002-0.021,0.012-0.039,0.03-0.046l49.5-16.406c0.02-0.009,0.052,0.006,0.059,0.03l11.204,32.61
			c0.005,0.015,0.002,0.034-0.011,0.046C473.896,353.439,473.884,353.444,473.87,353.444z M413.329,337.191l60.468,16.14
			l-11.16-32.483L413.329,337.191z"/>
		<path fill="#FFF701" d="M473.87,353.444c-0.021,0-0.038-0.012-0.043-0.03l-11.204-32.609c-0.005-0.013-0.005-0.028,0.003-0.039
			l32.758-52.805c0.014-0.021,0.038-0.027,0.058-0.019c0.021,0.008,0.032,0.032,0.026,0.054l-21.555,85.414
			C473.909,353.432,473.889,353.444,473.87,353.444z M462.717,320.795l11.146,32.439l21.442-84.97L462.717,320.795z"/>
		<path fill="#FFF701" d="M242.165,480.531c-0.006,0-0.011-0.001-0.017-0.003l-48.91-19.25c-0.018-0.009-0.03-0.025-0.029-0.046
			c0-0.02,0.015-0.037,0.034-0.043l72.501-20.486c0.02-0.008,0.038,0.002,0.048,0.016c0.013,0.014,0.014,0.036,0.005,0.054
			l-23.593,39.735C242.196,480.521,242.181,480.531,242.165,480.531z M193.401,461.242l48.745,19.185l23.512-39.602L193.401,461.242
			z"/>
		<path fill="#FFF701" d="M195.405,320.929c-0.012,0-0.025-0.006-0.034-0.014c-0.011-0.012-0.015-0.028-0.012-0.042l12.333-57.119
			c0.004-0.019,0.019-0.032,0.035-0.037c0.019-0.004,0.037,0.002,0.048,0.016l39.324,49.149c0.011,0.014,0.013,0.031,0.007,0.047
			c-0.006,0.016-0.021,0.027-0.037,0.029l-51.658,7.97C195.409,320.929,195.407,320.929,195.405,320.929z M207.762,263.869
			l-12.298,56.956l51.512-7.946L207.762,263.869z"/>
		<path fill="#FFF701" d="M353.838,269.252c-0.008,0-0.016-0.002-0.021-0.004c-0.016-0.006-0.025-0.021-0.026-0.037l-4.776-40.493
			c-0.002-0.017,0.004-0.034,0.02-0.044c0.012-0.008,0.031-0.01,0.047-0.002l39.83,19.313c0.014,0.008,0.025,0.023,0.025,0.039
			c0.001,0.018-0.007,0.034-0.023,0.042l-35.052,21.181C353.854,269.249,353.845,269.252,353.838,269.252z M349.116,228.791
			l4.759,40.339l34.919-21.098L349.116,228.791z"/>
		<path fill="#FFF701" d="M390.393,297.932c-0.009,0-0.019-0.002-0.025-0.008c-0.013-0.01-0.021-0.023-0.021-0.038l-1.502-49.857
			c-0.002-0.02,0.01-0.038,0.027-0.044c0.017-0.008,0.039-0.004,0.053,0.012l34.657,39.298c0.009,0.013,0.014,0.026,0.009,0.043
			c-0.003,0.016-0.016,0.027-0.03,0.032l-33.153,10.559C390.403,297.931,390.398,297.932,390.393,297.932z M388.941,248.154
			l1.497,49.668l33.026-10.521L388.941,248.154z"/>
		<path fill="#FFF701" d="M388.891,248.073c-0.007,0-0.014-0.002-0.021-0.005l-39.83-19.314c-0.023-0.011-0.032-0.039-0.021-0.062
			l15.009-32.046c0.009-0.016,0.025-0.026,0.042-0.026l0,0c0.019,0,0.035,0.01,0.042,0.026l24.82,51.361
			c0.009,0.017,0.006,0.039-0.009,0.053C388.914,248.068,388.902,248.073,388.891,248.073z M349.123,228.691l39.667,19.235
			l-24.719-51.152L349.123,228.691z"/>
		<path fill="#FFF701" d="M390.393,297.932c-0.009,0-0.02-0.004-0.027-0.011l-36.557-28.679c-0.011-0.009-0.018-0.023-0.017-0.039
			c0-0.016,0.008-0.03,0.022-0.037l35.052-21.18c0.013-0.008,0.034-0.009,0.046,0c0.017,0.008,0.025,0.022,0.025,0.039l1.502,49.86
			c0.002,0.017-0.007,0.034-0.025,0.042C390.409,297.931,390.401,297.932,390.393,297.932z M353.918,269.21l36.426,28.575
			l-1.497-49.677L353.918,269.21z"/>
		<path fill="#FFF701" d="M465.3,206.539c-0.007,0-0.014-0.002-0.02-0.005c-0.017-0.007-0.029-0.024-0.026-0.043l1.685-70.562
			c0-0.022,0.017-0.042,0.039-0.044c0.025,0,0.044,0.009,0.051,0.03l18.981,51.863c0.007,0.018,0.001,0.037-0.012,0.049
			l-20.667,18.7C465.323,206.534,465.312,206.539,465.3,206.539z M467.026,136.177l-1.677,70.208l20.562-18.605L467.026,136.177z"/>
		<path fill="#FFF701" d="M467.191,222.577c-0.002,0-0.006,0-0.008-0.001c-0.021-0.004-0.035-0.02-0.038-0.04l-1.891-16.038
			c-0.002-0.016,0.003-0.03,0.014-0.04l20.666-18.699c0.021-0.015,0.044-0.016,0.062-0.002c0.016,0.014,0.022,0.039,0.012,0.059
			l-18.775,34.738C467.224,222.568,467.208,222.577,467.191,222.577z M465.349,206.51l1.872,15.869l18.575-34.37L465.349,206.51z"/>
		<path fill="#FFF701" d="M387.741,101.577c-0.009,0-0.019-0.002-0.025-0.008l-24.304-16.297c-0.021-0.013-0.028-0.038-0.017-0.06
			l19.659-40.131c0.009-0.018,0.036-0.03,0.051-0.025c0.021,0.004,0.037,0.021,0.037,0.042l4.646,56.429
			c0,0.018-0.007,0.035-0.023,0.043C387.757,101.575,387.749,101.577,387.741,101.577z M363.496,85.217l24.189,16.221l-4.623-56.164
			L363.496,85.217z"/>
		<path fill="#FFF701" d="M390.902,424.212c-0.008,0-0.018-0.003-0.024-0.008c-0.019-0.011-0.025-0.031-0.021-0.051l22.264-86.97
			c0.002-0.012,0.012-0.022,0.023-0.028c0.01-0.005,0.023-0.008,0.035-0.005l60.703,16.203c0.017,0.004,0.03,0.018,0.032,0.035
			c0.005,0.017,0,0.035-0.014,0.044L390.932,424.2C390.924,424.207,390.913,424.212,390.902,424.212z M413.201,337.253
			l-22.217,86.782l82.788-70.614L413.201,337.253z"/>
		<path fill="#FFF701" d="M390.902,424.212c-0.018,0-0.034-0.01-0.042-0.025c-0.01-0.02-0.006-0.044,0.01-0.058l82.969-70.766
			c0.016-0.016,0.043-0.015,0.06,0c0.019,0.015,0.022,0.042,0.009,0.061l-38.06,59.12c-0.006,0.01-0.015,0.019-0.026,0.021
			l-44.909,11.645C390.909,424.212,390.905,424.212,390.902,424.212z M473.66,353.64l-82.574,70.43l44.696-11.59L473.66,353.64z"/>
		<path fill="#FFF701" d="M404.839,436.328c-0.012,0-0.023-0.006-0.031-0.014L390.871,424.2c-0.013-0.012-0.019-0.03-0.014-0.046
			c0.003-0.017,0.016-0.03,0.032-0.034l44.908-11.646c0.027-0.008,0.043,0.006,0.055,0.024c0.009,0.021,0.003,0.045-0.014,0.057
			l-30.972,23.762C404.857,436.324,404.849,436.328,404.839,436.328z M390.999,424.187l13.843,12.034l30.758-23.599L390.999,424.187
			z"/>
		<path fill="#FFF701" d="M301.662,290.885c-0.015,0-0.027-0.008-0.037-0.019c-0.014-0.018-0.014-0.039-0.001-0.057l47.4-62.126
			c0.011-0.015,0.03-0.023,0.048-0.017c0.019,0.005,0.032,0.021,0.035,0.04l4.777,40.494c0.002,0.021-0.009,0.042-0.029,0.048
			l-52.175,21.632C301.673,290.883,301.667,290.885,301.662,290.885z M349.029,228.832l-47.225,61.897l51.982-21.553
			L349.029,228.832z"/>
		<path fill="#FFF701" d="M301.662,290.885c-0.003,0-0.007,0-0.011-0.003c-0.019-0.003-0.032-0.019-0.035-0.038l-8.112-54.511
			c0-0.013,0.002-0.026,0.009-0.035c0.007-0.009,0.02-0.016,0.032-0.018l55.51-7.614c0.017-0.003,0.036,0.007,0.046,0.023
			s0.008,0.037-0.002,0.052l-47.4,62.125C301.689,290.877,301.676,290.885,301.662,290.885z M293.604,236.366l8.088,54.357
			l47.264-61.949L293.604,236.366z"/>
		<path fill="#FFF701" d="M310.331,382.74c-0.011,0-0.024-0.005-0.032-0.015l-39.304-39.303c-0.015-0.014-0.019-0.037-0.008-0.055
			l30.635-52.554c0.01-0.019,0.04-0.025,0.049-0.023c0.021,0.005,0.036,0.023,0.037,0.041l8.668,91.857
			c0.002,0.019-0.009,0.038-0.026,0.046C310.344,382.738,310.337,382.74,310.331,382.74z M271.085,343.384l39.188,39.186
			l-8.644-91.583L271.085,343.384z"/>
		<path fill="#FFF701" d="M271.027,343.438c-0.015,0-0.028-0.008-0.037-0.017l-23.965-30.48c-0.01-0.011-0.012-0.025-0.008-0.039
			c0.003-0.015,0.013-0.025,0.027-0.032l54.6-22.074c0.015-0.009,0.04-0.004,0.052,0.013c0.014,0.016,0.015,0.036,0.004,0.054
			l-30.634,52.555c-0.007,0.013-0.021,0.021-0.037,0.021H271.027z M247.137,312.934l23.883,30.375l30.532-52.377L247.137,312.934z"
			/>
		<path fill="#FFF701" d="M364.07,196.712c-0.003,0-0.006-0.001-0.009-0.001c-0.019-0.003-0.033-0.019-0.036-0.039l-9.776-60.934
			c-0.003-0.021,0.008-0.042,0.028-0.05c0.019-0.009,0.043-0.001,0.056,0.016l25.574,35.804c0.012,0.016,0.012,0.037,0.002,0.052
			l-15.799,25.13C364.101,196.705,364.086,196.712,364.07,196.712z M354.372,135.92l9.725,60.616l15.717-24.999L354.372,135.92z"/>
		<path fill="#FFF701" d="M443.174,241.671c-0.01,0-0.021-0.004-0.031-0.011c-0.017-0.015-0.02-0.041-0.008-0.061l22.126-35.131
			c0.011-0.018,0.038-0.023,0.048-0.021c0.02,0.003,0.034,0.021,0.037,0.04l1.891,16.038c0.002,0.015-0.004,0.032-0.016,0.042
			l-24.017,19.095C443.194,241.668,443.184,241.671,443.174,241.671z M465.271,206.629l-21.91,34.789l23.781-18.907L465.271,206.629
			z"/>
		<path fill="#FFF701" d="M462.667,320.837c-0.023,0-0.041-0.015-0.046-0.037l-19.49-79.165c-0.005-0.017,0-0.036,0.015-0.047
			l24.017-19.095c0.015-0.01,0.033-0.014,0.049-0.005c0.018,0.007,0.028,0.024,0.025,0.043l-4.524,98.26
			c-0.002,0.022-0.019,0.041-0.042,0.043C462.669,320.837,462.667,320.837,462.667,320.837z M443.227,241.643l19.408,78.823
			l4.505-97.836L443.227,241.643z"/>
		<path fill="#FFF701" d="M462.667,320.837c-0.012,0-0.023-0.005-0.03-0.012l-39.121-33.466c-0.015-0.014-0.02-0.034-0.012-0.053
			l19.628-45.7c0.007-0.018,0.023-0.029,0.042-0.029c0.002,0,0.002,0,0.005,0c0.021,0.002,0.037,0.016,0.041,0.036l19.491,79.166
			c0.004,0.019-0.002,0.039-0.021,0.049C462.683,320.833,462.675,320.837,462.667,320.837z M423.603,287.312l38.983,33.348
			l-19.424-78.889L423.603,287.312z"/>
		<path fill="#FFF701" d="M423.546,287.371c-0.013,0-0.025-0.006-0.036-0.017l-34.656-39.297c-0.01-0.014-0.015-0.032-0.008-0.047
			c0.005-0.016,0.021-0.029,0.039-0.03l54.283-6.401c0.02-0.008,0.032,0.005,0.042,0.018c0.01,0.014,0.013,0.031,0.004,0.046
			l-19.627,45.701c-0.005,0.014-0.02,0.025-0.034,0.026C423.552,287.37,423.55,287.371,423.546,287.371z M388.984,248.062
			l34.55,39.175l19.565-45.557L388.984,248.062z"/>
		<path fill="#FFF701" d="M388.891,248.073c-0.019,0-0.034-0.01-0.042-0.027l-24.821-51.36c-0.008-0.019-0.005-0.04,0.012-0.055
			c0.014-0.014,0.037-0.018,0.055-0.006l79.103,44.959c0.019,0.01,0.028,0.029,0.023,0.05c-0.004,0.02-0.021,0.034-0.041,0.037
			l-54.282,6.402C388.894,248.073,388.892,248.073,388.891,248.073z M364.177,196.78l24.742,51.197l54.109-6.382L364.177,196.78z"/>
		<path fill="#FFF701" d="M390.902,424.212L390.902,424.212c-0.022,0-0.041-0.017-0.045-0.037l-12.718-54.789
			c-0.004-0.017,0.001-0.034,0.013-0.046l34.983-32.18c0.016-0.014,0.039-0.014,0.055-0.005c0.019,0.012,0.025,0.032,0.021,0.052
			l-22.265,86.971C390.942,424.198,390.924,424.212,390.902,424.212z M378.234,369.391l12.67,54.577l22.178-86.631L378.234,369.391z
			"/>
		<path fill="#FFF701" d="M378.184,369.423c-0.007,0-0.016-0.003-0.022-0.007c-0.017-0.01-0.027-0.03-0.024-0.049l12.208-71.489
			c0.004-0.021,0.019-0.035,0.039-0.039c0.021,0.001,0.038,0.007,0.048,0.022l22.772,39.312c0.012,0.019,0.007,0.041-0.008,0.058
			l-34.982,32.178C378.207,369.418,378.195,369.423,378.184,369.423z M390.418,298.021l-12.165,71.228l34.855-32.062
			L390.418,298.021z"/>
		<path fill="#FFF701" d="M387.741,101.577c-0.004,0-0.009,0-0.014-0.001c-0.019-0.006-0.032-0.022-0.032-0.042l-4.646-56.429
			c-0.002-0.018,0.007-0.036,0.023-0.044c0.016-0.01,0.036-0.009,0.05,0.003l30.873,23.109c0.01,0.008,0.017,0.019,0.017,0.031
			c0.002,0.012,0,0.025-0.009,0.035l-26.225,33.319C387.769,101.57,387.754,101.577,387.741,101.577z M383.15,45.202l4.627,56.207
			l26.122-33.188L383.15,45.202z"/>
		<path fill="#FFF701" d="M312.973,484.689c-0.009,0-0.02-0.004-0.027-0.01l-30.05-21.473c-0.016-0.011-0.023-0.03-0.021-0.048
			c0.005-0.017,0.019-0.032,0.037-0.036l58.584-13.573c0.021-0.003,0.037,0.004,0.051,0.02c0.009,0.019,0.009,0.039-0.003,0.056
			l-28.533,35.046C313,484.682,312.987,484.689,312.973,484.689z M283.034,463.19l29.931,21.388l28.419-34.907L283.034,463.19z"/>
		<path fill="#FFF701" d="M285.831,487.89c-0.01,0-0.021-0.004-0.029-0.011c-0.01-0.007-0.015-0.019-0.017-0.031l-2.91-24.673
			c-0.002-0.019,0.007-0.037,0.023-0.046c0.019-0.011,0.037-0.01,0.051,0.002L313,484.604c0.015,0.012,0.023,0.03,0.018,0.05
			c-0.005,0.02-0.021,0.033-0.039,0.036l-27.144,3.2C285.835,487.89,285.833,487.89,285.831,487.89z M282.981,463.267l2.891,24.525
			l26.976-3.182L282.981,463.267z"/>
		<path fill="#FFF701" d="M285.831,487.89c-0.002,0-0.004,0-0.007,0l-43.667-7.359c-0.02-0.003-0.036-0.02-0.039-0.04
			s0.009-0.04,0.028-0.05l40.757-17.314c0.015-0.007,0.029-0.005,0.042,0.003c0.013,0.007,0.021,0.02,0.023,0.034l2.908,24.675
			c0.002,0.014-0.002,0.029-0.014,0.039C285.854,487.885,285.843,487.89,285.831,487.89z M242.33,480.465l43.448,7.322
			l-2.895-24.551L242.33,480.465z"/>
		<path fill="#FFF701" d="M242.165,480.531c-0.013,0-0.025-0.006-0.035-0.016c-0.014-0.017-0.015-0.038-0.005-0.054l23.592-39.738
			c0.007-0.014,0.022-0.021,0.038-0.022c0,0,0.001,0,0.002,0c0.015,0,0.028,0.005,0.036,0.018l17.166,22.421
			c0.01,0.012,0.013,0.028,0.009,0.04c-0.004,0.016-0.014,0.025-0.027,0.031l-40.757,17.317
			C242.176,480.53,242.171,480.531,242.165,480.531z M265.762,440.831l-23.485,39.556l40.571-17.237L265.762,440.831z"/>
		<path fill="#FFF701" d="M379.869,171.583c-0.008,0-0.015-0.002-0.024-0.007c-0.016-0.008-0.024-0.027-0.021-0.045l7.871-70.006
			c0.002-0.021,0.018-0.039,0.042-0.04c0.021-0.003,0.041,0.012,0.048,0.032l16.954,52.454c0.006,0.02-0.001,0.04-0.018,0.052
			l-24.824,17.55C379.888,171.579,379.879,171.583,379.869,171.583z M387.761,101.75l-7.834,69.687l24.712-17.472L387.761,101.75z"
			/>
		<path fill="#FFF701" d="M312.973,484.689c-0.015,0-0.03-0.008-0.038-0.021c-0.013-0.017-0.013-0.04,0.001-0.056l28.534-35.048
			c0.013-0.015,0.032-0.019,0.046-0.016l38.924,8.899c0.02,0.004,0.034,0.021,0.036,0.042c0.002,0.021-0.01,0.039-0.029,0.048
			l-67.458,26.146C312.984,484.687,312.979,484.689,312.973,484.689z M341.525,449.646l-28.404,34.889l67.149-26.028
			L341.525,449.646z"/>
		<path fill="#FFF701" d="M380.429,458.541c-0.013,0-0.025-0.006-0.034-0.015c-0.016-0.02-0.014-0.049,0.004-0.065l24.408-22.216
			l30.975-23.764c0.021-0.016,0.048-0.012,0.065,0.008c0.015,0.02,0.013,0.05-0.006,0.065L380.46,458.53
			C380.451,458.537,380.44,458.541,380.429,458.541z M433.916,414.032l-29.049,22.284l-22.892,20.834L433.916,414.032z"/>
		<path fill="#FFF701" d="M380.429,458.541c-0.007,0-0.016-0.001-0.025-0.008c-0.016-0.011-0.025-0.031-0.018-0.052l10.472-34.331
			c0.004-0.015,0.016-0.026,0.031-0.03c0.015-0.005,0.031,0,0.044,0.009l13.937,12.116c0.009,0.01,0.016,0.021,0.016,0.035
			s-0.005,0.025-0.016,0.034l-24.408,22.214C380.453,458.537,380.44,458.541,380.429,458.541z M390.925,424.246l-10.402,34.101
			l24.245-22.065L390.925,424.246z"/>
		<path fill="#FFF701" d="M380.429,458.541c-0.002,0-0.007,0-0.009-0.001l-38.924-8.899c-0.019-0.004-0.033-0.021-0.036-0.04
			s0.008-0.038,0.024-0.047l49.396-25.43c0.016-0.011,0.037-0.008,0.052,0.005c0.013,0.013,0.02,0.032,0.015,0.05l-10.472,34.329
			C380.468,458.528,380.451,458.541,380.429,458.541z M341.641,449.579l38.758,8.86l10.426-34.183L341.641,449.579z"/>
		<path fill="#FFF701" d="M156.338,418.728c-0.02,0-0.038-0.013-0.044-0.031c-0.007-0.021,0-0.044,0.02-0.056l57.971-36.494
			c0.02-0.012,0.042-0.01,0.056,0.005c0.016,0.016,0.02,0.037,0.01,0.057l-17.523,31.725c-0.007,0.013-0.021,0.021-0.035,0.023
			l-40.449,4.771C156.342,418.728,156.34,418.728,156.338,418.728z M214.18,382.321l-57.644,36.29l40.22-4.745L214.18,382.321z
			 M196.786,413.91h0.001H196.786z"/>
		<path fill="#FFF701" d="M465.3,206.539c-0.001,0-0.002,0-0.004,0l-29.455-2.587c-0.016-0.003-0.03-0.011-0.037-0.024
			s-0.009-0.029-0.002-0.042l31.14-67.974c0.009-0.021,0.03-0.03,0.053-0.026c0.021,0.004,0.037,0.025,0.036,0.047l-1.685,70.562
			c0,0.013-0.004,0.025-0.015,0.034C465.323,206.534,465.312,206.539,465.3,206.539z M435.915,203.863l29.34,2.578l1.678-70.286
			L435.915,203.863z"/>
		<path fill="#FFF701" d="M443.174,241.671c-0.002,0-0.006,0-0.008-0.001c-0.02-0.003-0.034-0.017-0.038-0.036l-7.33-37.721
			c-0.002-0.015,0.002-0.029,0.011-0.04c0.009-0.011,0.02-0.017,0.039-0.016l29.456,2.588c0.017,0.001,0.031,0.012,0.038,0.025
			c0.007,0.016,0.007,0.032-0.002,0.046l-22.126,35.131C443.205,241.664,443.19,241.671,443.174,241.671z M435.901,203.956
			l7.295,37.544l22.023-34.968L435.901,203.956z"/>
		<path fill="#FFF701" d="M443.174,241.671c-0.008,0-0.015-0.001-0.023-0.006l-79.103-44.958c-0.021-0.012-0.029-0.034-0.023-0.055
			c0.007-0.02,0.025-0.033,0.045-0.033c0.001,0,0.003,0,0.006,0.001l71.774,7.238c0.021,0.002,0.036,0.017,0.041,0.038l7.329,37.719
			c0.005,0.02-0.003,0.037-0.018,0.047C443.194,241.668,443.184,241.671,443.174,241.671z M364.285,196.733l78.824,44.8
			l-7.304-37.586L364.285,196.733z"/>
		<path fill="#FFF701" d="M435.844,203.952c-0.007,0-0.015-0.003-0.023-0.007l-55.974-32.369c-0.016-0.008-0.022-0.021-0.022-0.038
			c-0.002-0.016,0.004-0.031,0.018-0.041l24.824-17.551c0.01-0.007,0.023-0.007,0.037-0.007c0.011,0.003,0.023,0.01,0.03,0.021
			l31.152,49.919c0.01,0.018,0.008,0.042-0.007,0.057C435.869,203.946,435.856,203.952,435.844,203.952z M379.955,171.532
			l55.75,32.238l-31.026-49.719L379.955,171.532z"/>
		<path fill="#FFF701" d="M435.844,203.952c0,0-0.002,0-0.005-0.002l-71.773-7.239c-0.015,0-0.03-0.01-0.038-0.025
			c-0.006-0.014-0.006-0.031,0.002-0.045l15.799-25.13c0.016-0.021,0.042-0.027,0.064-0.015l55.975,32.37
			c0.02,0.01,0.028,0.033,0.022,0.055C435.883,203.938,435.864,203.952,435.844,203.952z M364.149,196.626l71.484,7.21
			l-55.749-32.238L364.149,196.626z"/>
		<path fill="#FFF701" d="M265.757,440.794c-0.005,0-0.01-0.001-0.015-0.004c-0.021-0.005-0.032-0.024-0.032-0.046l1.644-34.972
			c0-0.019,0.01-0.032,0.024-0.039l42.933-23.081c0.02-0.011,0.042-0.005,0.056,0.011c0.015,0.017,0.015,0.042,0.001,0.06
			l-44.575,58.054C265.785,440.787,265.772,440.794,265.757,440.794z M267.444,405.803l-1.633,34.798l44.352-57.763L267.444,405.803
			z"/>
		<path fill="#FFF701" d="M267.399,405.82c-0.008,0-0.018-0.003-0.025-0.007c-0.014-0.009-0.022-0.025-0.021-0.041l3.628-62.384
			c0-0.019,0.012-0.035,0.028-0.042c0.018-0.004,0.037-0.002,0.05,0.012l39.304,39.303c0.011,0.01,0.015,0.024,0.013,0.038
			c-0.002,0.016-0.01,0.028-0.023,0.036l-42.933,23.079C267.414,405.818,267.407,405.82,267.399,405.82z M271.066,343.496
			l-3.615,62.198l42.801-23.012L271.066,343.496z"/>
		<path fill="#FFF701" d="M193.255,461.281c-0.017,0-0.034-0.009-0.042-0.025c-0.01-0.021-0.005-0.045,0.014-0.058l74.145-55.462
			c0.015-0.01,0.033-0.013,0.049-0.003c0.016,0.007,0.025,0.024,0.025,0.044l-1.643,34.972c0,0.021-0.015,0.037-0.034,0.044
			l-72.503,20.486C193.263,461.281,193.259,461.281,193.255,461.281z M267.349,405.871l-73.865,55.25l72.228-20.41L267.349,405.871z
			 M265.757,440.747h0.001H265.757z"/>
		<path fill="#FFF701" d="M282.922,463.216c-0.019,0-0.036-0.012-0.042-0.027c-0.009-0.021-0.002-0.046,0.016-0.058l68.206-47.447
			c0.019-0.012,0.039-0.012,0.054,0c0.017,0.011,0.023,0.032,0.017,0.05l-9.621,33.874c-0.004,0.018-0.019,0.029-0.035,0.033
			l-58.584,13.573C282.929,463.214,282.926,463.216,282.922,463.216z M351.048,415.835l-67.901,47.233l58.321-13.513
			L351.048,415.835z M341.506,449.595h0.001H341.506z"/>
		<path fill="#FFF701" d="M282.922,463.216c-0.015,0-0.029-0.007-0.037-0.019l-17.165-22.421c-0.01-0.013-0.013-0.029-0.007-0.044
			c0.003-0.014,0.015-0.026,0.031-0.029l85.371-25.026c0.022-0.007,0.045,0.004,0.055,0.024c0.011,0.021,0.002,0.045-0.015,0.058
			l-68.207,47.448C282.939,463.212,282.932,463.216,282.922,463.216z M265.836,440.773l17.095,22.332l67.935-47.259L265.836,440.773
			z"/>
		<path fill="#FFF701" d="M265.757,440.794c-0.015,0-0.028-0.008-0.039-0.021c-0.01-0.017-0.01-0.038,0.002-0.055l44.574-58.055
			c0.01-0.011,0.026-0.017,0.037-0.017c0.012,0,0.021,0.003,0.03,0.01l40.797,33.027c0.013,0.012,0.02,0.028,0.018,0.046
			c-0.005,0.018-0.016,0.031-0.033,0.035l-85.372,25.027C265.765,440.793,265.762,440.794,265.757,440.794z M310.337,382.76
			l-44.458,57.902l85.15-24.961L310.337,382.76z"/>
		<path fill="#FFF701" d="M390.902,424.212c-0.004,0-0.006,0-0.011-0.001l-39.772-8.445c-0.016-0.002-0.028-0.011-0.035-0.025
			c-0.004-0.015-0.004-0.029,0.002-0.043l27.058-46.346c0.007-0.018,0.023-0.028,0.046-0.023c0.019,0.002,0.035,0.018,0.038,0.037
			l12.718,54.789c0.003,0.016,0,0.032-0.013,0.044C390.926,424.206,390.915,424.212,390.902,424.212z M351.201,415.689l39.639,8.414
			l-12.674-54.603L351.201,415.689z"/>
		<path fill="#FFF701" d="M341.506,449.643c-0.01,0-0.02-0.004-0.029-0.011c-0.015-0.012-0.021-0.032-0.016-0.051l9.621-33.872
			c0.007-0.025,0.029-0.039,0.055-0.032l39.773,8.443c0.02,0.004,0.034,0.021,0.037,0.039c0.002,0.02-0.008,0.039-0.024,0.046
			l-49.396,25.432C341.521,449.641,341.515,449.643,341.506,449.643z M351.161,415.775l-9.58,33.729l49.184-25.322L351.161,415.775z
			"/>
		<path fill="#FFF701" d="M404.693,154.031c-0.022,0-0.038-0.013-0.045-0.032l-16.954-52.454c-0.005-0.018,0-0.036,0.014-0.049
			c0.011-0.013,0.03-0.015,0.048-0.009l27.674,10.773c0.022,0.01,0.035,0.032,0.028,0.056l-10.721,41.68
			C404.733,154.017,404.715,154.03,404.693,154.031L404.693,154.031z M387.814,101.609l16.873,52.208l10.67-41.484L387.814,101.609z
			"/>
		<path fill="#FFF701" d="M415.414,112.352c-0.006,0-0.01-0.001-0.017-0.003l-27.673-10.774c-0.013-0.006-0.024-0.017-0.029-0.032
			c-0.002-0.015,0-0.029,0.009-0.042l26.226-33.318c0.013-0.015,0.031-0.022,0.05-0.016c0.019,0.006,0.031,0.023,0.031,0.043
			l1.448,44.093c0.001,0.015-0.005,0.031-0.02,0.04C415.433,112.349,415.424,112.352,415.414,112.352z M387.815,101.51l27.55,10.726
			l-1.441-43.894L387.815,101.51z"/>
		<path fill="#FFF701" d="M301.662,290.885c-0.009,0-0.021-0.004-0.027-0.011l-52.581-40.39c-0.015-0.011-0.021-0.028-0.019-0.045
			c0.004-0.017,0.016-0.031,0.032-0.036l44.469-14.121c0.015-0.004,0.03-0.002,0.039,0.004c0.012,0.008,0.02,0.02,0.022,0.034
			l8.111,54.511c0.002,0.02-0.007,0.037-0.023,0.046C301.678,290.882,301.671,290.885,301.662,290.885z M249.181,250.464
			l52.418,40.267l-8.086-54.345L249.181,250.464z"/>
		<path fill="#FFF701" d="M247.062,312.959c-0.01,0-0.019-0.002-0.027-0.007c-0.013-0.01-0.021-0.025-0.02-0.039l2.019-62.467
			c0-0.018,0.011-0.033,0.027-0.041c0.013-0.007,0.034-0.006,0.047,0.005l52.581,40.391c0.014,0.01,0.021,0.027,0.019,0.043
			c-0.002,0.017-0.014,0.03-0.03,0.037l-54.599,22.076C247.074,312.959,247.068,312.959,247.062,312.959z M249.125,250.539
			l-2.014,62.305l54.457-22.02L249.125,250.539z"/>
		<path fill="#FFF701" d="M267.399,405.82c-0.001,0-0.002,0-0.005-0.001l-32.951-3.03c-0.016-0.001-0.029-0.01-0.036-0.025
			c-0.007-0.014-0.007-0.032,0.001-0.045l36.578-59.351c0.01-0.021,0.034-0.03,0.055-0.021c0.02,0.007,0.032,0.025,0.032,0.046
			l-3.627,62.385c0,0.011-0.007,0.023-0.016,0.032C267.421,405.816,267.411,405.82,267.399,405.82z M234.528,402.704l32.829,3.019
			l3.614-62.15L234.528,402.704z"/>
		<path fill="#FFF701" d="M234.449,402.789c-0.013,0-0.024-0.005-0.033-0.014l-20.14-20.558c-0.01-0.01-0.014-0.023-0.013-0.037
			s0.009-0.026,0.02-0.033L271,343.354c0.019-0.014,0.042-0.011,0.058,0.003c0.018,0.016,0.021,0.04,0.009,0.06l-36.577,59.352
			C234.48,402.78,234.467,402.791,234.449,402.789z M214.38,382.192l20.06,20.476l36.431-59.115L214.38,382.192z"/>
		<path fill="#FFF701" d="M193.255,461.281c-0.012,0-0.023-0.004-0.033-0.014c-0.015-0.015-0.018-0.04-0.004-0.06l41.194-58.492
			c0.008-0.012,0.023-0.019,0.037-0.019c0.001,0,0.002,0,0.005,0l32.951,3.03c0.019,0.001,0.035,0.015,0.04,0.033
			c0.004,0.02,0,0.038-0.017,0.051l-74.145,55.461C193.274,461.278,193.265,461.281,193.255,461.281z M234.472,402.793
			l-41.009,58.229l73.812-55.212L234.472,402.793z"/>
		<path fill="#FFF701" d="M196.786,413.956c-0.014,0-0.028-0.006-0.036-0.018c-0.012-0.014-0.014-0.035-0.005-0.051l17.522-31.724
			c0.008-0.013,0.021-0.022,0.036-0.024c0.018-0.003,0.029,0.002,0.039,0.014l20.14,20.558c0.012,0.012,0.017,0.027,0.012,0.044
			c-0.003,0.016-0.016,0.027-0.032,0.033L196.8,413.955C196.795,413.956,196.791,413.956,196.786,413.956z M214.32,382.263
			l-17.438,31.571l37.479-11.113L214.32,382.263z"/>
		<path fill="#FFF701" d="M193.255,461.281c-0.005,0-0.011-0.002-0.016-0.003c-0.02-0.006-0.033-0.025-0.031-0.048l3.532-47.324
			c0.001-0.02,0.015-0.035,0.032-0.041l37.663-11.167c0.017-0.006,0.04,0.001,0.051,0.018c0.012,0.016,0.012,0.039,0,0.055
			l-41.194,58.49C193.284,461.274,193.27,461.281,193.255,461.281z M196.83,413.945l-3.516,47.125l41.02-58.244L196.83,413.945z"/>
		<path fill="#FFF701" d="M345.438,83.11c-0.016,0-0.03-0.007-0.039-0.021L298.336,7.871c-0.013-0.019-0.008-0.045,0.009-0.06
			c0.016-0.014,0.042-0.015,0.06,0l44.483,36.628c0.01,0.008,0.016,0.02,0.016,0.032l2.581,38.59
			c0.002,0.021-0.012,0.041-0.031,0.048C345.448,83.11,345.443,83.11,345.438,83.11z M298.567,8.064l46.812,74.817l-2.564-38.383
			L298.567,8.064z"/>
		<path fill="#FFF701" d="M383.095,45.149L383.095,45.149l-40.237-0.627c-0.012,0-0.021-0.004-0.029-0.012L298.346,7.882
			c-0.018-0.015-0.023-0.042-0.01-0.06c0.012-0.02,0.037-0.028,0.058-0.019l84.72,37.256c0.021,0.009,0.032,0.031,0.027,0.052
			C383.136,45.133,383.118,45.149,383.095,45.149z M342.875,44.428l39.991,0.624L298.665,8.024L342.875,44.428z"/>
		<path fill="#FFF701" d="M363.436,85.28c-0.017,0-0.034-0.011-0.042-0.026l-20.578-40.758c-0.007-0.016-0.007-0.032,0.002-0.046
			c0.008-0.013,0.023-0.021,0.039-0.021c0,0,0,0,0.002,0l40.237,0.627c0.015,0,0.03,0.007,0.039,0.021
			c0.007,0.013,0.007,0.031,0,0.045l-19.658,40.131C363.47,85.27,363.455,85.28,363.436,85.28L363.436,85.28z M342.935,44.522
			l20.5,40.606l19.587-39.981L342.935,44.522z"/>
		<path fill="#FFF701" d="M354.295,135.777c-0.002,0-0.006,0-0.008,0c-0.025-0.005-0.043-0.029-0.038-0.055l9.139-50.482
			l-20.571-40.745c-0.012-0.023-0.002-0.051,0.021-0.063c0.021-0.011,0.051-0.002,0.062,0.021l20.578,40.758
			c0.005,0.009,0.006,0.019,0.005,0.03l-9.142,50.499C354.336,135.762,354.316,135.777,354.295,135.777z"/>
		<path fill="#FFF701" d="M184.407,359.752c-0.018,0-0.035-0.01-0.042-0.026c-0.009-0.021-0.003-0.044,0.014-0.058l62.655-46.792
			c0.021-0.015,0.05-0.014,0.064,0.01l23.965,30.478c0.01,0.013,0.012,0.028,0.008,0.045c-0.007,0.015-0.021,0.026-0.036,0.028
			l-86.62,16.314C184.413,359.751,184.41,359.752,184.407,359.752z M247.054,312.978l-62.457,46.646l86.346-16.264L247.054,312.978z
			"/>
		<path fill="#FFF701" d="M214.309,382.232c-0.01,0-0.02-0.003-0.028-0.01l-29.902-22.479c-0.014-0.012-0.022-0.031-0.017-0.048
			c0.004-0.018,0.018-0.032,0.037-0.034l86.62-16.315c0.023-0.006,0.042,0.008,0.05,0.029c0.009,0.018,0.002,0.042-0.016,0.055
			l-56.717,38.795C214.328,382.229,214.319,382.232,214.309,382.232z M184.52,359.731l29.791,22.397l56.505-38.65L184.52,359.731z"
			/>
		<path fill="#FFF701" d="M184.407,359.752c-0.009,0-0.018-0.003-0.026-0.008c-0.015-0.012-0.023-0.032-0.018-0.052l10.998-38.823
			c0.004-0.017,0.02-0.03,0.037-0.032l51.658-7.97c0.022-0.007,0.042,0.007,0.05,0.027c0.008,0.021,0.002,0.044-0.015,0.057
			l-62.655,46.793C184.427,359.749,184.417,359.752,184.407,359.752z M195.441,320.923l-10.951,38.663l62.396-46.599
			L195.441,320.923z"/>
		<path fill="#FFF701" d="M156.338,418.728c-0.011,0-0.022-0.005-0.032-0.013c-0.014-0.013-0.02-0.035-0.011-0.055l28.069-58.974
			c0.005-0.014,0.018-0.023,0.031-0.025c0.01-0.005,0.025,0,0.038,0.007l29.902,22.48c0.013,0.01,0.02,0.023,0.018,0.039
			c0,0.014-0.008,0.03-0.021,0.037l-57.971,36.494C156.355,418.724,156.347,418.728,156.338,418.728z M184.424,359.777
			l-27.974,58.778l57.777-36.375L184.424,359.777z"/>
		<path fill="#FFF701" d="M146.513,364.223c-0.018,0-0.035-0.012-0.042-0.029c-0.009-0.018-0.004-0.04,0.012-0.053l48.891-43.293
			c0.015-0.015,0.038-0.016,0.055-0.004c0.018,0.01,0.026,0.031,0.02,0.052l-10.996,38.823c-0.005,0.019-0.021,0.032-0.041,0.032
			l-37.894,4.472C146.517,364.223,146.514,364.223,146.513,364.223z M195.316,321.021l-48.661,43.089l37.716-4.447L195.316,321.021z
			"/>
		<path fill="#FFF701" d="M156.338,418.728c-0.003,0-0.004,0-0.006-0.001c-0.021-0.003-0.036-0.019-0.04-0.037l-9.826-54.507
			c-0.002-0.013,0.001-0.024,0.008-0.036c0.008-0.01,0.02-0.017,0.032-0.018l37.896-4.469c0.001-0.001,0.003-0.001,0.004-0.001
			c0.015,0,0.03,0.007,0.038,0.02c0.01,0.015,0.012,0.03,0.005,0.047l-28.069,58.976
			C156.373,418.717,156.356,418.728,156.338,418.728z M146.567,364.215l9.792,54.314l27.969-58.767L146.567,364.215z"/>
		<path fill="#FFF701" d="M351.129,415.769c-0.002,0-0.005,0-0.007-0.001c-0.018-0.003-0.032-0.016-0.039-0.034l-21.807-73.106
			c-0.004-0.019,0-0.037,0.016-0.049c0.014-0.012,0.035-0.015,0.051-0.004l48.863,26.76c0.013,0.006,0.02,0.016,0.023,0.028
			c0.003,0.012,0.001,0.024-0.005,0.036l-27.056,46.347C351.16,415.759,351.145,415.769,351.129,415.769z M329.398,342.709
			l21.744,72.896l26.978-46.213L329.398,342.709z"/>
		<path fill="#FFF701" d="M351.129,415.769c-0.012,0-0.021-0.005-0.03-0.011l-40.797-33.027c-0.017-0.015-0.021-0.037-0.014-0.058
			l18.99-40.079c0.008-0.018,0.023-0.025,0.046-0.026c0.019,0.002,0.035,0.015,0.042,0.034l21.807,73.107
			c0.007,0.018-0.002,0.039-0.019,0.05C351.147,415.764,351.137,415.769,351.129,415.769z M310.389,382.68l40.652,32.91
			l-21.73-72.846L310.389,382.68z"/>
		<path fill="#FFF701" d="M310.331,382.74c-0.002,0-0.004,0-0.008,0c-0.021-0.005-0.037-0.021-0.038-0.042l-8.669-91.856
			c-0.002-0.021,0.012-0.043,0.032-0.05c0.023-0.006,0.043,0.003,0.055,0.024l27.658,51.776c0.008,0.013,0.008,0.028,0.002,0.041
			l-18.99,40.081C310.365,382.73,310.349,382.74,310.331,382.74z M301.729,291.064l8.631,91.457l18.909-39.906L301.729,291.064z"/>
		<path fill="#FFF701" d="M378.184,369.423c-0.007,0-0.016-0.003-0.022-0.007l-48.863-26.762c-0.015-0.007-0.023-0.021-0.025-0.036
			c0-0.017,0.007-0.032,0.018-0.042l61.073-44.729c0.015-0.012,0.036-0.013,0.053-0.002c0.016,0.01,0.024,0.028,0.021,0.048
			l-12.208,71.489c-0.002,0.015-0.011,0.026-0.025,0.033C378.198,369.42,378.191,369.423,378.184,369.423z M329.407,342.608
			l48.742,26.694l12.179-71.312L329.407,342.608z"/>
		<path fill="#FFF701" d="M430.667,156.835c-0.011,0-0.021-0.004-0.03-0.011c-0.014-0.012-0.021-0.033-0.014-0.052l7.006-19.017
			c0.006-0.017,0.021-0.029,0.042-0.031l29.313-1.84c0,0,0.001,0,0.002,0c0.021,0,0.04,0.013,0.045,0.032
			c0.007,0.021-0.002,0.043-0.022,0.055l-36.318,20.856C430.683,156.833,430.675,156.835,430.667,156.835z M437.705,137.816
			l-6.949,18.868l36.033-20.695L437.705,137.816z"/>
		<path fill="#FFF701" d="M435.844,203.952c-0.002,0-0.005-0.002-0.007-0.002c-0.021-0.003-0.036-0.02-0.039-0.041l-5.178-47.117
			c-0.002-0.018,0.007-0.036,0.023-0.044l36.318-20.859c0.018-0.008,0.041-0.007,0.054,0.006c0.015,0.015,0.021,0.037,0.011,0.055
			l-31.14,67.974C435.88,203.941,435.862,203.952,435.844,203.952z M430.717,156.813l5.156,46.918l31.01-67.689L430.717,156.813z"/>
		<path fill="#FFF701" d="M430.667,156.835c0,0-0.003,0-0.005-0.001l-25.974-2.804c-0.021-0.001-0.037-0.017-0.041-0.037
			s0.007-0.041,0.024-0.05l32.98-16.213c0.013-0.008,0.035-0.006,0.052,0.007c0.013,0.013,0.018,0.033,0.013,0.051l-7.006,19.017
			C430.703,156.823,430.687,156.835,430.667,156.835z M404.857,153.956l25.778,2.782l6.952-18.874L404.857,153.956z"/>
		<path fill="#FFF701" d="M435.844,203.952c-0.015,0-0.03-0.008-0.039-0.023l-31.152-49.919c-0.009-0.015-0.009-0.035,0-0.05
			c0.009-0.014,0.024-0.021,0.041-0.021c0.001,0,0.003,0,0.004,0l25.973,2.804c0.023,0.003,0.039,0.02,0.042,0.042l5.178,47.115
			c0.002,0.022-0.01,0.043-0.031,0.05C435.854,203.95,435.85,203.952,435.844,203.952z M404.783,154.041l30.992,49.666
			l-5.149-46.875L404.783,154.041z"/>
		<path fill="#FFF701" d="M238.701,3.66c-0.017-0.012-0.023-0.034-0.016-0.054c0.007-0.02,0.021-0.028,0.047-0.03L298.379,7.8
			c0.014,0,0.028,0.009,0.036,0.021l47.063,75.218c0.011,0.019,0.008,0.043-0.008,0.059c-0.009,0.009-0.021,0.012-0.032,0.012
			c-0.009,0-0.02-0.003-0.028-0.009 M345.268,82.878L298.349,7.891l-59.465-4.21"/>
		<path fill="#FFF701" d="M345.438,83.11c-0.016,0-0.03-0.007-0.039-0.021L298.349,7.891l-59.624-4.222
			c-0.026-0.001-0.045-0.024-0.042-0.05c0.001-0.024,0.022-0.043,0.046-0.043c0.002,0,0.003,0,0.004,0L298.379,7.8
			c0.014,0,0.028,0.009,0.036,0.021l47.063,75.218c0.013,0.021,0.006,0.051-0.016,0.064C345.456,83.108,345.448,83.11,345.438,83.11
			z"/>
		<path fill="#FFF701" d="M208.408,12.874c-0.023,0-0.042-0.016-0.046-0.039c-0.004-0.022,0.01-0.045,0.033-0.052l30.32-9.206
			c0.004-0.002,0.008-0.003,0.018-0.002L298.379,7.8c0.023,0.001,0.044,0.022,0.042,0.047c0,0.024-0.019,0.044-0.043,0.046
			l-89.967,4.981C208.41,12.874,208.41,12.874,208.408,12.874z M238.734,3.67l-29.941,9.09l88.842-4.919L238.734,3.67z"/>
		<path fill="#FFF701" d="M383.095,45.149c-0.002,0-0.009-0.001-0.013-0.002L238.715,3.667c-0.024-0.008-0.039-0.033-0.031-0.057
			c0.006-0.022,0.024-0.034,0.044-0.034c0.004,0,0.009,0,0.014,0.002l144.366,41.478c0.024,0.008,0.039,0.033,0.032,0.058
			C383.134,45.134,383.115,45.149,383.095,45.149z"/>
		<path fill="#FFF701" d="M345.362,303.242c-0.004,0-0.009,0-0.013-0.001l-43.699-12.359c-0.021-0.005-0.034-0.021-0.035-0.041
			s0.009-0.038,0.028-0.046l52.176-21.631c0.016-0.007,0.036-0.005,0.048,0.007c0.014,0.011,0.018,0.03,0.014,0.047l-8.475,33.989
			c-0.003,0.014-0.011,0.022-0.021,0.029C345.378,303.241,345.371,303.242,345.362,303.242z M301.804,290.83l43.524,12.309
			l8.441-33.855L301.804,290.83z"/>
		<path fill="#FFF701" d="M329.32,342.66c-0.016,0-0.032-0.009-0.041-0.023L301.62,290.86c-0.009-0.017-0.007-0.037,0.005-0.052
			c0.012-0.016,0.033-0.022,0.048-0.017l43.701,12.359c0.014,0.004,0.025,0.013,0.03,0.023c0.006,0.014,0.007,0.027,0.002,0.039
			l-16.043,39.418C329.356,342.65,329.343,342.659,329.32,342.66z M301.754,290.913l27.561,51.591l15.983-39.276L301.754,290.913z"
			/>
		<path fill="#FFF701" d="M345.362,303.242c-0.014,0-0.025-0.006-0.036-0.015c-0.01-0.013-0.012-0.027-0.01-0.043l8.476-33.991
			c0.005-0.015,0.015-0.028,0.03-0.032c0.016-0.004,0.031-0.002,0.043,0.007l36.557,28.68c0.014,0.012,0.021,0.031,0.016,0.05
			c-0.004,0.019-0.021,0.029-0.039,0.032l-45.032,5.312C345.366,303.242,345.364,303.242,345.362,303.242z M353.866,269.288
			l-8.441,33.854l44.851-5.29L353.866,269.288z"/>
		<path fill="#FFF701" d="M329.32,342.66c-0.009,0-0.02-0.003-0.028-0.009c-0.016-0.013-0.023-0.036-0.016-0.054l16.043-39.419
			c0.007-0.016,0.021-0.027,0.039-0.028l45.03-5.312c0.002,0,0.004,0,0.004,0c0.021,0,0.037,0.011,0.044,0.028
			c0.008,0.02,0.002,0.043-0.015,0.056l-61.073,44.729C329.34,342.657,329.33,342.66,329.32,342.66z M345.395,303.239l-15.969,39.24
			l60.798-44.528L345.395,303.239z"/>
		<path fill="#FFF701" d="M437.671,137.818c-0.021,0-0.042-0.017-0.045-0.042l-2.086-17.683c-0.002-0.017,0.005-0.035,0.02-0.044
			c0.015-0.009,0.033-0.01,0.047-0.003l31.399,15.843c0.02,0.009,0.029,0.03,0.025,0.051c-0.005,0.021-0.022,0.036-0.044,0.037
			l-29.313,1.841C437.674,137.818,437.672,137.818,437.671,137.818z M435.644,120.168l2.069,17.553l29.098-1.827L435.644,120.168z"
			/>
		<path fill="#FFF701" d="M466.985,135.977c-0.007,0-0.015-0.001-0.021-0.004l-31.399-15.843c-0.009-0.005-0.019-0.013-0.022-0.023
			L413.924,68.23c-0.01-0.022-0.002-0.047,0.019-0.059c0.018-0.01,0.046-0.008,0.06,0.012l53.02,67.719
			c0.013,0.017,0.013,0.042,0,0.058C467.012,135.972,466.998,135.977,466.985,135.977z M435.623,120.054l31.198,15.74l-52.68-67.282
			L435.623,120.054z"/>
		<path fill="#FFF701" d="M404.693,154.031c-0.015,0-0.029-0.006-0.038-0.019c-0.014-0.018-0.012-0.042,0.004-0.06l30.892-33.897
			c0.013-0.013,0.03-0.02,0.048-0.012c0.019,0.005,0.03,0.021,0.032,0.039l2.086,17.683c0.002,0.02-0.008,0.039-0.025,0.048
			l-32.979,16.212C404.708,154.03,404.7,154.031,404.693,154.031z M435.552,120.194l-30.659,33.641l32.729-16.091L435.552,120.194z"
			/>
		<path fill="#FFF701" d="M404.693,154.031c-0.008,0-0.015-0.001-0.022-0.005c-0.02-0.011-0.03-0.032-0.023-0.053l10.72-41.68
			c0.003-0.012,0.012-0.023,0.023-0.03c0.014-0.006,0.025-0.006,0.039-0.002l20.173,7.784c0.015,0.004,0.024,0.018,0.027,0.032
			s0,0.031-0.01,0.042l-30.894,33.898C404.718,154.026,404.706,154.031,404.693,154.031z M415.445,112.367l-10.66,41.447
			l30.72-33.708L415.445,112.367z"/>
		<path fill="#FFF701" d="M435.586,120.135c-0.007,0-0.011-0.002-0.016-0.003l-20.173-7.783c-0.016-0.006-0.029-0.024-0.029-0.043
			l-1.448-44.091c0-0.024,0.015-0.043,0.037-0.048c0.028-0.003,0.042,0.007,0.053,0.027l21.619,51.876
			c0.008,0.017,0.003,0.038-0.008,0.05C435.61,120.129,435.598,120.135,435.586,120.135z M415.459,112.272l20.042,7.733
			l-21.48-51.54L415.459,112.272z"/>
	</g>
	<g>
		<circle fill="#FFFFFF" cx="261.422" cy="496.085" r="3.914"/>
		<circle fill="#FFFFFF" cx="201.886" cy="492.267" r="5.442"/>
		<circle fill="#FFFFFF" cx="150.54" cy="436.891" r="3.94"/>
		<circle fill="#FFFFFF" cx="177.499" cy="472" r="3.153"/>
		<circle fill="#FFFFFF" cx="192.577" cy="476.104" r="4.221"/>
		<circle fill="#FFFFFF" cx="239.577" cy="490.364" r="3.365"/>
		<circle fill="#FFFFFF" cx="250.009" cy="489.71" r="3.396"/>
		<circle fill="#FFFFFF" cx="117.997" cy="454.848" r="6.797"/>
		<circle fill="#FFFFFF" cx="86.211" cy="430.649" r="4.733"/>
		<circle fill="#FFFFFF" cx="137.451" cy="414.166" r="2.122"/>
		<circle fill="#FFFFFF" cx="112.771" cy="398.492" r="3.104"/>
		<circle fill="#FFFFFF" cx="84.91" cy="387.062" r="4.995"/>
		<circle fill="#FFFFFF" cx="64.724" cy="378.972" r="3.246"/>
		<circle fill="#FFFFFF" cx="34.212" cy="363.237" r="3.524"/>
		<circle fill="#FFFFFF" cx="63.012" cy="361.505" r="3.384"/>
		<circle fill="#FFFFFF" cx="95.359" cy="346.068" r="3.57"/>
		<circle fill="#FFFFFF" cx="120.645" cy="328.518" r="3.16"/>
		<circle fill="#FFFFFF" cx="136.375" cy="302.397" r="3.072"/>
		<circle fill="#FFFFFF" cx="70.09" cy="342.507" r="3.598"/>
		<circle fill="#FFFFFF" cx="65.012" cy="296.312" r="4.729"/>
		<circle fill="#FFFFFF" cx="35.55" cy="293.048" r="5.791"/>
		<circle fill="#FFFFFF" cx="33.645" cy="276.834" r="3.451"/>
		<circle fill="#FFFFFF" cx="5.52" cy="231.185" r="4.557"/>
		<circle fill="#FFFFFF" cx="39.08" cy="179.234" r="3.736"/>
		<circle fill="#FFFFFF" cx="27.009" cy="146.467" r="4.001"/>
		<circle fill="#FFFFFF" cx="66.016" cy="86.496" r="2.839"/>
		<circle fill="#FFFFFF" cx="123.207" cy="130.568" r="4.579"/>
		<circle fill="#FFFFFF" cx="171.297" cy="156.56" r="2.824"/>
		<circle fill="#FFFFFF" cx="191.392" cy="117.232" r="5.73"/>
		<circle fill="#FFFFFF" cx="150.802" cy="84.179" r="8.031"/>
		<circle fill="#FFFFFF" cx="159.417" cy="50.181" r="7.009"/>
		<circle fill="#FFFFFF" cx="218.268" cy="36.988" r="6.072"/>
		<circle fill="#FFFFFF" cx="235.862" cy="59.434" r="2.324"/>
		<circle fill="#FFFFFF" cx="234.268" cy="94.288" r="4.075"/>
		<circle fill="#FFFFFF" cx="230.324" cy="156.317" r="3.278"/>
		<circle fill="#FFFFFF" cx="287.122" cy="117.638" r="6.367"/>
		<circle fill="#FFFFFF" cx="316.483" cy="140.74" r="5.143"/>
		<circle fill="#FFFFFF" cx="254.28" cy="186.719" r="4.139"/>
		<circle fill="#FFFFFF" cx="306.025" cy="179.469" r="2.878"/>
		<circle fill="#FFFFFF" cx="304.235" cy="85.662" r="4.521"/>
		<circle fill="#FFFFFF" cx="266.658" cy="97.48" r="2.836"/>
		<circle fill="#FFFFFF" cx="250.911" cy="10.926" r="2.821"/>
		<circle fill="#FFFFFF" cx="215.315" cy="12.4" r="5.429"/>
		<circle fill="#FFFFFF" cx="188.496" cy="15.625" r="5.825"/>
		<circle fill="#FFFFFF" cx="120.861" cy="41.517" r="3.191"/>
		<circle fill="#FFFFFF" cx="97.092" cy="63.198" r="5.169"/>
		<circle fill="#FFFFFF" cx="110.368" cy="75.213" r="3.244"/>
		<circle fill="#FFFFFF" cx="77.744" cy="211.954" r="2.954"/>
		<circle fill="#FFFFFF" cx="87.69" cy="162.894" r="4.82"/>
		<circle fill="#FFFFFF" cx="110.991" cy="202.076" r="5.457"/>
		<circle fill="#FFFFFF" cx="147.143" cy="230.802" r="7.225"/>
		<circle fill="#FFFFFF" cx="199.091" cy="209.373" r="2.205"/>
		<circle fill="#FFFFFF" cx="155.96" cy="196.239" r="3.443"/>
		<circle fill="#FFFFFF" cx="57.884" cy="257.654" r="3.209"/>
		<circle fill="#FFFFFF" cx="112.322" cy="251.321" r="4.776"/>
		<circle fill="#FFFFFF" cx="5.52" cy="231.185" r="5.18"/>
		<circle fill="#FFFFFF" cx="151.845" cy="271.372" r="5.68"/>
		<circle fill="#FFFFFF" cx="15.198" cy="311.977" r="3.191"/>
		<circle fill="#FFF701" cx="336.582" cy="199.177" r="4.153"/>
		<circle fill="#FFF701" cx="293.46" cy="235.542" r="4.33"/>
		<circle fill="#FFF701" cx="354.296" cy="135.732" r="8.623"/>
		<circle fill="#FFF701" cx="345.272" cy="81.62" r="4.252"/>
		<circle fill="#FFF701" cx="290.679" cy="15.447" r="5.418"/>
		<circle fill="#FFF701" cx="208.489" cy="12.917" r="4.203"/>
		<circle fill="#FFF701" cx="239.436" cy="4.003" r="4.002"/>
		<circle fill="#FFF701" cx="298.971" cy="7.823" r="6.247"/>
		<circle fill="#FFF701" cx="343.374" cy="45.137" r="4.752"/>
		<circle fill="#FFF701" cx="323.358" cy="28.089" r="2.79"/>
		<circle fill="#FFF701" cx="261.28" cy="9.725" r="4.177"/>
		<circle fill="#FFF701" cx="250.848" cy="10.379" r="3.112"/>
		<circle fill="#FFF701" cx="382.86" cy="45.241" r="6.341"/>
		<circle fill="#FFF701" cx="414.646" cy="69.441" r="3.773"/>
		<circle fill="#FFF701" cx="363.406" cy="85.924" r="2.173"/>
		<circle fill="#FFF701" cx="388.086" cy="101.597" r="2.853"/>
		<circle fill="#FFF701" cx="415.947" cy="113.028" r="4.282"/>
		<circle fill="#FFF701" cx="436.133" cy="121.118" r="3.276"/>
		<circle fill="#FFF701" cx="466.645" cy="136.853" r="3.424"/>
		<circle fill="#FFF701" cx="437.845" cy="138.585" r="3.765"/>
		<circle fill="#FFF701" cx="308.357" cy="24.362" r="3.434"/>
		<circle fill="#FFF701" cx="405.498" cy="154.02" r="4.058"/>
		<circle fill="#FFF701" cx="380.212" cy="171.57" r="2.448"/>
		<circle fill="#FFF701" cx="364.481" cy="197.691" r="3.008"/>
		<circle fill="#FFF701" cx="430.766" cy="157.582" r="3.56"/>
		<circle fill="#FFF701" cx="435.845" cy="203.777" r="4.964"/>
		<circle fill="#FFF701" cx="465.307" cy="207.041" r="6.938"/>
		<circle fill="#FFF701" cx="467.212" cy="223.254" r="3.49"/>
		<circle fill="#FFF701" cx="495.337" cy="268.905" r="4.323"/>
		<circle fill="#FFF701" cx="461.776" cy="320.855" r="3.752"/>
		<circle fill="#FFF701" cx="473.849" cy="353.622" r="3.878"/>
		<circle fill="#FFF701" cx="434.841" cy="413.594" r="2.913"/>
		<circle fill="#FFF701" cx="377.649" cy="369.521" r="4.347"/>
		<circle fill="#FFF701" cx="329.56" cy="343.528" r="3.537"/>
		<circle fill="#FFF701" cx="309.465" cy="382.857" r="5.824"/>
		<path fill="#FFF701" d="M358.781,414.898c0.559,4.819-2.896,9.18-7.715,9.737c-4.82,0.56-9.178-2.895-9.737-7.715
			c-0.559-4.819,2.896-9.18,7.714-9.736C353.862,406.623,358.222,410.079,358.781,414.898z"/>
		<circle fill="#FFF701" cx="341.44" cy="449.909" r="6.517"/>
		<circle fill="#FFF701" cx="282.589" cy="463.101" r="5.67"/>
		<circle fill="#FFF701" cx="264.996" cy="440.655" r="2.574"/>
		<circle fill="#FFF701" cx="266.589" cy="405.8" r="4.418"/>
		<circle fill="#FFF701" cx="270.533" cy="343.772" r="3.355"/>
		<circle fill="#FFF701" cx="213.735" cy="382.451" r="6.224"/>
		<circle fill="#FFF701" cx="184.375" cy="359.349" r="5.154"/>
		<circle fill="#FFF701" cx="246.578" cy="313.371" r="4.077"/>
		<circle fill="#FFF701" cx="194.832" cy="320.621" r="2.553"/>
		<circle fill="#FFF701" cx="164.275" cy="300.912" r="4.225"/>
		<circle fill="#FFF701" cx="207.398" cy="264.548" r="4.182"/>
		<circle fill="#FFF701" cx="249.347" cy="250.916" r="5.199"/>
		<circle fill="#FFF701" cx="146.562" cy="364.357" r="7.913"/>
		<circle fill="#FFF701" cx="196.623" cy="414.427" r="5.074"/>
		<circle fill="#FFF701" cx="155.585" cy="418.469" r="5.187"/>
		<circle fill="#FFF701" cx="234.199" cy="402.609" r="2.979"/>
		<circle fill="#FFF701" cx="193.196" cy="460.615" r="5.714"/>
		<circle fill="#FFF701" cx="241.882" cy="480.747" r="2.626"/>
		<circle fill="#FFF701" cx="285.542" cy="487.689" r="4.47"/>
		<circle fill="#FFF701" cx="312.362" cy="484.465" r="6.731"/>
		<circle fill="#FFF701" cx="379.995" cy="458.572" r="2.825"/>
		<circle fill="#FFF701" cx="403.764" cy="436.891" r="4.454"/>
		<circle fill="#FFF701" cx="390.489" cy="424.875" r="3.485"/>
		<circle fill="#FFF701" cx="423.113" cy="288.136" r="2.925"/>
		<circle fill="#FFF701" cx="413.167" cy="337.196" r="4.745"/>
		<circle fill="#FFF701" cx="389.866" cy="298.014" r="5.846"/>
		<circle fill="#FFF701" cx="353.714" cy="269.287" r="6.275"/>
		<circle fill="#FFF701" cx="301.766" cy="290.717" r="2.373"/>
		<circle fill="#FFF701" cx="344.897" cy="303.851" r="3.687"/>
		<circle fill="#FFF701" cx="442.973" cy="242.435" r="3.292"/>
		<circle fill="#FFF701" cx="388.536" cy="248.768" r="4.956"/>
		<circle fill="#FFF701" cx="349.012" cy="228.718" r="6.463"/>
		<circle fill="#FFF701" cx="485.659" cy="188.113" r="3.231"/>
	</g>
	<polygon opacity="0.2" fill="#F3F3F3" points="229.875,484.578 183.279,464.86 146.995,432.641 129.837,366.998 150.54,298.021 
		196.623,257.654 273.492,234.97 330.142,196.847 341,148.027 341,84.918 308.437,38.893 258.254,17.312 212.904,19.642 
		176.579,26.538 123.216,48.652 100.971,67.449 70.092,94.15 33.614,154.051 14.466,230.802 24.184,310.691 41.407,359.777 
		92.166,423.968 122.736,447.001 	"/>
</g>
</svg>
