<?xml version="1.0" encoding="utf-8"?>
<!-- Generator: Adobe Illustrator 16.0.4, SVG Export Plug-In . SVG Version: 6.00 Build 0)  -->
<!DOCTYPE svg PUBLIC "-//W3C//DTD SVG 1.1//EN" "http://www.w3.org/Graphics/SVG/1.1/DTD/svg11.dtd">
<svg version="1.1" id="Artboard" xmlns="http://www.w3.org/2000/svg" xmlns:xlink="http://www.w3.org/1999/xlink" x="0px" y="0px"
	 width="640px" height="640px" viewBox="0 0 640 640" enable-background="new 0 0 640 640" xml:space="preserve">
<g id="amimoto">
	<path d="M175.514,319.916c0.647,30.467-25.156,55.617-55.119,55.905c-30.46,0.294-56.709-24.906-56.392-56.443
		c0.304-30.106,25.334-55.333,56.091-55.202C150.958,264.309,176.107,290.088,175.514,319.916 M119.944,273.253
		c-25.67-0.547-46.864,21.142-46.97,46.52c-0.106,25.73,21.212,46.984,46.662,47.077c25.698,0.093,46.902-21.209,47.042-46.559
		C166.82,294.458,145.401,272.812,119.944,273.253"/>
	<path d="M97.074,332.038c-0.991-1.581-2.626-2.039-4.304-2.259c-3.58-0.471-7.285-1.04-11.01-1.696
		c-3.693-0.649-6.423-4.172-6.353-8.194c0.071-4.08,2.716-7.366,6.433-7.994c3.577-0.606,7.111-1.13,11.029-1.706
		c2.36-0.346,3.281-0.722,4.175-2.207c1.078,1.546,2.826,2.019,4.484,2.253c3.43,0.484,6.934,1.119,10.024,1.679
		c4.182,0.758,6.886,3.916,6.887,8.046c0,4.109-2.747,7.368-6.836,8.109c-4.124,0.748-7.303,1.277-10.306,1.717
		C99.776,330.008,98.161,330.476,97.074,332.038"/>
	<path d="M119.831,351.949c-1.249-1.806-3.278-2.096-4.977-2.337c-0.388-0.057-0.753-0.107-1.111-0.174
		c-1.533-0.286-3.094-0.54-4.603-0.789c-1.204-0.195-2.45-0.399-3.67-0.616c-4.349-0.775-7.143-3.966-7.117-8.13
		c0.024-4.047,3-7.387,7.237-8.122c0.704-0.122,1.407-0.247,2.111-0.37c2.548-0.448,5.183-0.913,7.78-1.275
		c1.438-0.2,3.122-0.632,4.301-2.09c0.967,1.451,2.532,1.863,3.894,2.043c3.886,0.515,7.681,1.13,10.883,1.667
		c3.979,0.666,6.784,4.003,6.818,8.117c0.035,4.257-2.564,7.473-6.625,8.191c-2.275,0.402-4.602,0.756-6.852,1.099
		c-1.503,0.229-3.061,0.466-4.59,0.715C121.474,350.177,120.583,350.627,119.831,351.949"/>
	<path d="M119.818,312.121c-1.241-1.734-3.211-2.011-4.865-2.244c-0.382-0.055-0.741-0.104-1.094-0.17
		c-1.515-0.281-3.055-0.531-4.545-0.773c-1.357-0.22-2.759-0.447-4.13-0.698c-3.861-0.701-6.801-4.153-6.837-8.027
		c-0.037-4,2.607-7.225,6.583-8.024c2.03-0.408,4.117-0.748,6.135-1.076c1.275-0.208,2.595-0.422,3.892-0.653
		c2.9-0.515,3.536-0.694,4.812-2.334c0.971,1.619,2.707,2.056,4.049,2.237c3.745,0.5,7.511,1.101,11.022,1.676
		c3.713,0.607,6.463,3.856,6.537,7.728c0.082,4.266-2.528,7.751-6.347,8.47c-2.554,0.483-5.178,0.879-7.714,1.265
		c-1.351,0.205-2.748,0.416-4.122,0.639C121.419,310.423,120.526,310.874,119.818,312.121"/>
	<path d="M142.732,331.877c-1.188-1.455-2.922-1.907-4.67-2.145c-3.312-0.453-6.564-1.042-9.88-1.656
		c-3.953-0.731-6.917-4.221-6.896-8.121c0.022-4.105,2.857-7.349,7.056-8.069c1.653-0.286,3.308-0.564,4.962-0.844
		c1.559-0.263,3.119-0.526,4.677-0.794c2.847-0.489,3.515-0.667,4.714-2.257c0.902,1.532,2.554,1.985,4.139,2.202
		c3.84,0.522,7.728,1.146,11.024,1.686c3.769,0.617,6.427,3.875,6.464,7.924c0.038,4.23-2.583,7.64-6.374,8.292
		c-3.327,0.573-6.976,1.132-11.156,1.711C145.274,330.017,143.684,330.45,142.732,331.877"/>
	<path d="M221.294,336.295l-2.445-6.74h-17.058l-2.506,6.74h-9.663l15.388-39.784h10.618l15.328,39.784H221.294z M210.319,304.981
		l-6.203,17.119h12.406L210.319,304.981z"/>
	<polygon points="267.983,336.295 267.983,308.44 256.77,336.295 253.072,336.295 241.858,308.44 241.858,336.295 233.389,336.295 
		233.389,296.512 245.258,296.512 254.921,320.548 264.583,296.512 276.512,296.512 276.512,336.295 	"/>
	<rect x="283.417" y="296.511" width="8.47" height="39.784"/>
	<polygon points="333.261,336.295 333.261,308.44 322.048,336.295 318.35,336.295 307.136,308.44 307.136,336.295 298.667,336.295 
		298.667,296.512 310.537,296.512 320.199,320.548 329.862,296.512 341.79,296.512 341.79,336.295 	"/>
	<path d="M346.661,316.433c0-11.989,8.769-20.576,20.758-20.576c12.049,0,20.817,8.587,20.817,20.576
		c0,11.988-8.769,20.578-20.817,20.578C355.43,337.011,346.661,328.421,346.661,316.433 M379.527,316.433
		c0-7.455-4.773-13.061-12.108-13.061c-7.337,0-12.049,5.605-12.049,13.061c0,7.396,4.712,13.064,12.049,13.064
		C374.754,329.497,379.527,323.829,379.527,316.433"/>
	<polygon points="400.466,336.295 400.466,303.966 388.835,303.966 388.835,296.512 420.565,296.512 420.565,303.966 
		408.995,303.966 408.995,336.295 	"/>
	<path d="M421.131,316.433c0-11.989,8.768-20.576,20.758-20.576c12.049,0,20.816,8.587,20.816,20.576
		c0,11.988-8.768,20.578-20.816,20.578C429.898,337.011,421.131,328.421,421.131,316.433 M453.995,316.433
		c0-7.455-4.771-13.061-12.106-13.061c-7.338,0-12.049,5.605-12.049,13.061c0,7.396,4.711,13.064,12.049,13.064
		C449.225,329.497,453.995,323.829,453.995,316.433"/>
	<path d="M505.408,336.295l-2.446-6.74h-17.058l-2.505,6.74h-9.662l15.387-39.784h10.618l15.328,39.784H505.408z M494.433,304.981
		l-6.203,17.119h12.407L494.433,304.981z"/>
	<polygon points="552.096,336.295 552.096,308.44 540.882,336.295 537.184,336.295 525.971,308.44 525.971,336.295 517.502,336.295 
		517.502,296.512 529.372,296.512 539.034,320.548 548.697,296.512 560.625,296.512 560.625,336.295 	"/>
	<rect x="567.53" y="296.511" width="8.47" height="39.784"/>
</g>
</svg>
