<?xml version="1.0" encoding="utf-8"?>
<!-- Generator: Adobe Illustrator 16.0.4, SVG Export Plug-In . SVG Version: 6.00 Build 0)  -->
<!DOCTYPE svg PUBLIC "-//W3C//DTD SVG 1.1//EN" "http://www.w3.org/Graphics/SVG/1.1/DTD/svg11.dtd">
<svg version="1.1" id="Artboard" xmlns="http://www.w3.org/2000/svg" xmlns:xlink="http://www.w3.org/1999/xlink" x="0px" y="0px"
	 width="640px" height="640px" viewBox="0 0 640 640" enable-background="new 0 0 640 640" xml:space="preserve">
<g id="asial">
	<g id="logo">
		<path d="M316.542,255c-12.592,0-25.185,2.099-35.679,12.593c-14.691,14.691-25.185,41.976-25.185,67.161h10.494
			c0-11.854,1.729-23.333,4.814-33.581h41.235c0,17.16,0,33.581,0,33.581h10.495V255C322.839,255,320.74,255,316.542,255
			 M274.073,292.778c3.333-7.902,7.531-14.691,12.593-19.753c4.568-4.568,10.987-9.506,25.679-9.506v29.26H274.073z"/>
		<path d="M349.877,292.778c0-6.296,4.196-8.396,12.592-8.396c8.395,0,18.891,0,18.891,0v-8.395c0,0-10.742,0-18.891,0
			c-12.592,0-23.087,4.198-23.087,16.791c0,20.987,33.581,12.594,33.581,25.184c0,4.197-2.1,8.396-8.396,8.396
			c-4.197,0-25.186,0-25.186,0v8.396c0,0,18.89,0,25.186,0c12.593,0,18.89-4.196,18.89-16.792
			C383.457,296.976,349.877,305.372,349.877,292.778z"/>
		<rect x="397.654" y="275.988" width="10.495" height="58.766"/>
		<path d="M408.149,262.284c0,2.839-2.346,5.185-5.309,5.185c-2.841,0-5.187-2.346-5.187-5.185s2.346-5.185,5.187-5.185
			C405.804,257.099,408.149,259.445,408.149,262.284z"/>
		<path d="M465.557,334.754c0,0-12.592,0-20.987,0c-14.693,0-23.086-5.311-23.086-17.902c0-12.593,8.393-17.777,23.086-17.777
			c6.419,0,10.493,0,10.493,0s0-2.099,0-4.198c0-8.395-6.297-10.495-10.493-10.495c-6.298,0-18.89,0-18.89,0s0-7.036,0-8.395
			c0,0,8.396,0,18.89,0c12.594,0,20.987,6.296,20.987,18.889 M455.062,307.47c-8.889,0-6.05,0-10.493,0
			c-8.396,0-12.593,3.086-12.593,9.382c0,6.296,4.196,9.505,12.593,9.505c6.297,0,10.493,0,10.493,0V307.47z"/>
		<polyline points="477.286,255 477.286,263.395 479.384,263.395 479.384,334.754 489.879,334.754 489.879,255 		"/>
	</g>
	<g id="icon">
		<g>
			<defs>
				<circle id="SVGID_1_" cx="185.06" cy="274.877" r="16.543"/>
			</defs>
			<clipPath id="SVGID_2_">
				<use xlink:href="#SVGID_1_"  overflow="visible"/>
			</clipPath>
			<g clip-path="url(#SVGID_2_)">
				<g>
					<defs>
						<polygon id="SVGID_3_" points="192.22,242.161 217.653,280.309 180.245,306.358 154.937,268.21 						"/>
					</defs>
					<clipPath id="SVGID_4_">
						<use xlink:href="#SVGID_3_"  overflow="visible"/>
					</clipPath>
					
						<linearGradient id="SVGID_5_" gradientUnits="userSpaceOnUse" x1="-853.002" y1="108.7637" x2="-852.6084" y2="108.7637" gradientTransform="matrix(49.4906 74.3727 -72.5858 50.7087 50285.8008 58182.9023)">
						<stop  offset="0" style="stop-color:#DCDDDD"/>
						<stop  offset="1" style="stop-color:#595757"/>
					</linearGradient>
					<polygon clip-path="url(#SVGID_4_)" fill="url(#SVGID_5_)" points="192.22,242.161 217.653,280.309 180.245,306.358 
						154.937,268.21 					"/>
				</g>
			</g>
			
				<linearGradient id="SVGID_6_" gradientUnits="userSpaceOnUse" x1="-85.2363" y1="557.582" x2="-79.8458" y2="549.6714" gradientTransform="matrix(3.3862 0 0 -3.3862 464.6058 2149.6538)">
				<stop  offset="0" style="stop-color:#D2D2D3"/>
				<stop  offset="0.5515" style="stop-color:#959696"/>
				<stop  offset="1" style="stop-color:#585757"/>
			</linearGradient>
			<circle clip-path="url(#SVGID_2_)" fill="url(#SVGID_6_)" cx="185.06" cy="274.877" r="16.543"/>
			
				<radialGradient id="SVGID_7_" cx="-81.5088" cy="556.0449" r="7.6353" fx="-81.4686" fy="556.0011" gradientTransform="matrix(3.3862 0 0 -3.3859 464.6058 2149.3765)" gradientUnits="userSpaceOnUse">
				<stop  offset="0" style="stop-color:#F3DE29"/>
				<stop  offset="1" style="stop-color:#E27C16"/>
			</radialGradient>
			<path clip-path="url(#SVGID_2_)" fill="url(#SVGID_7_)" d="M199.011,274.877c0,7.778-6.296,13.951-13.951,13.951
				c-7.777,0-13.95-6.296-13.95-13.951c0-7.778,6.296-13.951,13.95-13.951C192.715,260.926,199.011,267.222,199.011,274.877z"/>
		</g>
		<g>
			<defs>
				<circle id="SVGID_8_" cx="161.479" cy="318.21" r="16.543"/>
			</defs>
			<clipPath id="SVGID_9_">
				<use xlink:href="#SVGID_8_"  overflow="visible"/>
			</clipPath>
			<g clip-path="url(#SVGID_9_)">
				<g>
					<defs>
						<polygon id="SVGID_10_" points="168.64,285.371 194.072,323.642 156.665,349.69 131.232,311.544 						"/>
					</defs>
					<clipPath id="SVGID_11_">
						<use xlink:href="#SVGID_10_"  overflow="visible"/>
					</clipPath>
					
						<linearGradient id="SVGID_12_" gradientUnits="userSpaceOnUse" x1="-853.3813" y1="108.0039" x2="-852.9877" y2="108.0039" gradientTransform="matrix(49.4906 74.3727 -72.5858 50.7087 50225.8008 58292.9023)">
						<stop  offset="0" style="stop-color:#DCDDDD"/>
						<stop  offset="1" style="stop-color:#595757"/>
					</linearGradient>
					<polygon clip-path="url(#SVGID_11_)" fill="url(#SVGID_12_)" points="168.64,285.371 194.072,323.521 156.665,349.69 
						131.232,311.544 					"/>
				</g>
			</g>
			
				<linearGradient id="SVGID_13_" gradientUnits="userSpaceOnUse" x1="-92.2075" y1="544.7949" x2="-86.8172" y2="536.8846" gradientTransform="matrix(3.3862 0 0 -3.3862 464.6058 2149.6538)">
				<stop  offset="0" style="stop-color:#D2D2D3"/>
				<stop  offset="0.5515" style="stop-color:#959696"/>
				<stop  offset="1" style="stop-color:#585757"/>
			</linearGradient>
			<circle clip-path="url(#SVGID_9_)" fill="url(#SVGID_13_)" cx="161.479" cy="318.21" r="16.543"/>
			
				<radialGradient id="SVGID_14_" cx="-88.4785" cy="543.2588" r="7.6339" fx="-88.4383" fy="543.215" gradientTransform="matrix(3.3862 0 0 -3.3859 464.6058 2149.3765)" gradientUnits="userSpaceOnUse">
				<stop  offset="0" style="stop-color:#F3DE29"/>
				<stop  offset="1" style="stop-color:#E27C16"/>
			</radialGradient>
			<circle clip-path="url(#SVGID_9_)" fill="url(#SVGID_14_)" cx="161.479" cy="318.21" r="13.95"/>
		</g>
		<g>
			<g>
				<defs>
					<circle id="SVGID_15_" cx="208.64" cy="318.21" r="16.543"/>
				</defs>
				<clipPath id="SVGID_16_">
					<use xlink:href="#SVGID_15_"  overflow="visible"/>
				</clipPath>
				<g clip-path="url(#SVGID_16_)">
					<g>
						<defs>
							<polygon id="SVGID_17_" points="215.924,285.371 241.234,323.642 203.95,349.69 178.517,311.544 							"/>
						</defs>
						<clipPath id="SVGID_18_">
							<use xlink:href="#SVGID_17_"  overflow="visible"/>
						</clipPath>
						
							<linearGradient id="SVGID_19_" gradientUnits="userSpaceOnUse" x1="-853.8481" y1="108.688" x2="-853.4545" y2="108.688" gradientTransform="matrix(49.4906 74.3727 -72.5858 50.7087 50345.832 58292.9023)">
							<stop  offset="0" style="stop-color:#DCDDDD"/>
							<stop  offset="1" style="stop-color:#595757"/>
						</linearGradient>
						<polygon clip-path="url(#SVGID_18_)" fill="url(#SVGID_19_)" points="215.924,285.371 241.234,323.521 203.95,349.69 
							178.517,311.544 						"/>
					</g>
				</g>
				
					<linearGradient id="SVGID_20_" gradientUnits="userSpaceOnUse" x1="-78.2754" y1="544.7871" x2="-72.8851" y2="536.8769" gradientTransform="matrix(3.3862 0 0 -3.3862 464.6058 2149.6538)">
					<stop  offset="0" style="stop-color:#D2D2D3"/>
					<stop  offset="0.5515" style="stop-color:#959696"/>
					<stop  offset="1" style="stop-color:#585757"/>
				</linearGradient>
				<circle clip-path="url(#SVGID_16_)" fill="url(#SVGID_20_)" cx="208.64" cy="318.21" r="16.543"/>
				
					<radialGradient id="SVGID_21_" cx="-74.5352" cy="543.2588" r="7.6342" fx="-74.4949" fy="543.215" gradientTransform="matrix(3.3862 0 0 -3.3859 464.6058 2149.3765)" gradientUnits="userSpaceOnUse">
					<stop  offset="0" style="stop-color:#F3DE29"/>
					<stop  offset="1" style="stop-color:#E27C16"/>
				</radialGradient>
				<circle clip-path="url(#SVGID_16_)" fill="url(#SVGID_21_)" cx="208.64" cy="318.21" r="13.95"/>
			</g>
		</g>
	</g>
	<g id="copy">
		<path fill="#727171" d="M148.639,361.543c0-2.345,0-2.717-1.974-2.839c-0.372,0-0.988,0-0.988-0.493
			c0-0.494,0.37-0.618,0.617-0.618c0.864,0,1.852,0,2.84,0.124c0.988,0,1.975,0.122,2.84,0.122c1.481,0,3.086,0,4.567-0.122
			c1.481,0,3.087,0,4.568,0c0.617,0,0.617,0.122,0.617,1.109c0,0.989,0,1.977,0,2.966c0,0.368,0,0.864-0.494,0.864
			c-0.247,0-0.494-0.249-0.617-0.496c-0.247-0.368-0.37-0.74-0.495-1.11c-0.74-1.604-1.481-2.224-5.061-2.224
			c-1.481,0-2.099,0-2.469,0.249c-0.37,0.247-0.37,0.615-0.37,1.234v4.566c0,1.359,0.124,1.359,2.223,1.359
			c2.715,0,3.086,0,3.333-1.48c0.123-0.496,0.247-1.36,0.741-1.36c0.37,0,0.494,0.249,0.494,0.617c0,0.864-0.124,1.852-0.124,2.717
			c0,0.988,0.124,1.976,0.124,2.838c0,0.496-0.124,0.742-0.494,0.742c-0.495,0-0.618-0.742-0.741-1.481
			c-0.371-1.234-0.988-1.358-4.074-1.358c-1.233,0-1.481,0-1.481,1.111v5.187c0,2.594,1.111,2.716,3.581,2.716
			c2.716,0,4.198-0.371,5.185-2.841c0.247-0.616,0.493-1.234,0.987-1.234c0.248,0,0.371,0.123,0.371,0.372
			c0.123,0.246,0,0.615,0,0.987c-0.123,1.11-0.371,2.222-0.371,3.331c-0.122,0.495-0.122,0.62-0.494,0.62h-10.617
			c-0.988,0-1.728,0-2.469,0.122c-0.74,0-1.357,0.123-1.975,0.123c-0.37,0-0.617-0.123-0.617-0.616c0-0.494,0.617-0.494,0.987-0.494
			c1.852-0.124,1.852-0.492,1.852-2.963V361.543z"/>
		<path fill="#727171" d="M167.899,368.457c0-1.729-0.124-2.098-1.234-2.098c-0.617,0-0.864-0.124-0.864-0.371
			c0-0.493,0.494-0.493,0.864-0.618c0.864-0.247,2.469-0.986,3.209-1.727c0.247-0.249,0.37-0.494,0.617-0.494
			c0.372,0,0.372,0.245,0.372,0.616v1.357c0,0.372,0,0.619,0.123,0.619c0.124,0,0.741-0.619,1.605-1.236
			c0.864-0.615,2.098-1.234,3.458-1.234c1.357,0,2.715,0.494,3.703,1.604c0.987,1.112,1.111,2.348,1.111,4.2v5.43
			c0,1.482,0,2.347,1.358,2.47c0.37,0,0.864,0.122,0.864,0.493s-0.247,0.371-0.494,0.371c-0.988,0-2.469-0.122-3.581-0.122
			c-1.11,0-2.099,0.122-2.962,0.122c-0.248,0-0.495-0.122-0.495-0.371c0-0.371,0.495-0.493,0.741-0.493
			c1.235-0.123,1.235-0.864,1.235-2.47v-5.183c0-0.866,0-2.1-0.495-2.841c-0.493-0.863-1.481-1.359-2.716-1.359
			c-1.111,0-2.098,0.496-2.839,1.236c-0.74,0.864-0.864,1.48-0.864,2.592v5.555c0,1.605,0,2.347,1.235,2.47
			c0.247,0,0.74,0.122,0.74,0.493c0,0.249-0.247,0.494-0.494,0.494c-0.864,0-2.1-0.123-3.21-0.123c-1.234,0-2.222,0.123-3.21,0.123
			c-0.247,0-0.494-0.123-0.494-0.37c0-0.495,0.494-0.495,0.865-0.495c1.357-0.122,1.357-0.862,1.357-2.839v-5.802H167.899z"/>
		<path fill="#727171" d="M186.912,368.457c0-3.209,3.21-5.186,6.543-5.186c1.234,0,2.346,0.247,3.581,0.74
			c0.741,0.372,0.987,0.372,1.852,0.372h1.975c0.865,0,1.111,0,1.235,0.864c0,0.494,0,0.615-0.617,0.615c-0.495,0-0.988,0-1.358,0
			s-0.74,0.125-0.74,0.249c0,0.123,0.123,0.37,0.247,0.616c0.247,0.618,0.371,1.111,0.371,1.852c0,1.358-1.605,4.939-6.667,4.939
			c-1.481,0-2.963,0.615-2.963,1.357c0,0.74,1.234,0.987,1.975,0.987c1.234,0,2.84,0,4.074,0c2.839,0,5.186,1.111,5.309,3.458
			c0,4.073-5.186,5.678-9.259,5.678c-3.333,0-6.667-1.234-6.667-3.457c0-1.479,1.481-2.221,2.716-2.84
			c0.247-0.123,0.987-0.491,0.987-0.74c0-0.245-0.74-0.865-1.233-1.356c-0.618-0.495-1.235-1.111-1.235-1.482
			c0-0.37,0.247-0.493,1.235-0.74c1.111-0.371,2.468-0.864,2.468-1.111c0-0.125-0.494-0.372-1.11-0.742
			C188.271,371.792,186.912,370.556,186.912,368.457L186.912,368.457z M193.085,384.013c1.111,0,2.593-0.247,3.703-0.74
			c1.112-0.493,1.853-1.358,1.853-2.469c0-1.977-2.1-2.346-3.581-2.346c-1.975,0-3.21-0.125-4.197-0.125
			c-0.988,0.494-2.223,1.358-2.223,2.595C188.641,382.53,190.245,384.013,193.085,384.013L193.085,384.013z M193.332,372.654
			c2.346,0,3.209-2.223,3.209-4.197s-0.986-4.445-3.086-4.445c-2.222,0-3.21,2.348-3.21,4.199
			C190.245,370.186,191.11,372.654,193.332,372.654L193.332,372.654z"/>
		<path fill="#727171" d="M206.912,368.457c0-1.851-0.124-2.222-1.234-2.222c-0.618,0-0.864,0-0.864-0.372
			c0-0.493,0.494-0.493,0.988-0.615c1.11-0.249,2.592-1.111,3.457-1.729c0.247-0.247,0.37-0.369,0.617-0.369
			c0.247,0,0.371,0.245,0.371,0.494c0,0.493,0,0.986,0,1.479v9.261c0,1.604,0,2.345,1.358,2.469c0.37,0,0.864,0,0.864,0.494
			c0,0.371-0.247,0.371-0.494,0.371c-0.988,0-2.222-0.125-3.334-0.125c-1.604,0-2.592,0.125-3.58,0.125
			c-0.247,0-0.494-0.125-0.494-0.371c0-0.494,0.494-0.494,0.987-0.494c1.482,0,1.482-0.617,1.482-2.594v-5.802H206.912z
			 M208.393,360.68c-0.987,0-1.852-0.742-1.852-1.854c0-0.987,0.617-1.852,1.976-1.852c0.987,0,1.852,0.742,1.852,1.852
			C210.369,359.938,209.504,360.68,208.393,360.68L208.393,360.68z"/>
		<path fill="#727171" d="M216.912,368.457c0-1.729-0.124-2.098-1.235-2.098c-0.617,0-0.863-0.124-0.863-0.371
			c0-0.493,0.493-0.493,0.863-0.618c0.865-0.247,2.469-0.986,3.21-1.727c0.247-0.249,0.371-0.494,0.617-0.494
			c0.37,0,0.37,0.245,0.37,0.616v1.357c0,0.372,0,0.619,0.125,0.619c0.122,0,0.74-0.619,1.604-1.236
			c0.864-0.615,2.1-1.234,3.458-1.234c1.358,0,2.716,0.494,3.703,1.604c0.988,1.112,1.111,2.348,1.111,4.2v5.43
			c0,1.482,0,2.347,1.358,2.47c0.37,0,0.864,0.122,0.864,0.493s-0.246,0.371-0.494,0.371c-0.987,0-2.468-0.122-3.58-0.122
			c-1.111,0-2.099,0.122-2.963,0.122c-0.247,0-0.493-0.122-0.493-0.371c0-0.371,0.493-0.493,0.74-0.493
			c1.235-0.123,1.235-0.864,1.235-2.47v-5.183c0-0.866,0-2.1-0.493-2.841c-0.495-0.863-1.481-1.359-2.716-1.359
			c-1.111,0-2.1,0.496-2.84,1.236c-0.741,0.864-0.864,1.48-0.864,2.592v5.555c0,1.605,0,2.347,1.234,2.47
			c0.247,0,0.74,0.122,0.74,0.493c0,0.249-0.247,0.494-0.494,0.494c-0.865,0-2.099-0.123-3.209-0.123
			c-1.235,0-2.223,0.123-3.209,0.123c-0.248,0-0.494-0.123-0.494-0.37c0-0.495,0.494-0.495,0.864-0.495
			c1.358-0.122,1.358-0.862,1.358-2.839v-5.802H216.912z"/>
		<path fill="#727171" d="M239.628,369.198c-1.111,0-1.234,0-1.234,0.864c0,3.332,2.223,6.173,5.802,6.173
			c1.605,0,2.716-0.618,3.457-1.236c0.495-0.493,0.865-0.74,0.988-0.74c0.247,0,0.37,0.125,0.37,0.372
			c0,0.368-0.863,1.233-1.234,1.48c-1.357,1.235-3.086,1.852-5.185,1.852c-4.569,0-7.531-3.457-7.531-7.407
			c0-5.061,4.568-7.53,8.272-7.53c3.95,0,6.049,2.594,6.049,5.186c0,0.616-0.248,0.865-0.617,0.865h-9.136V369.198z
			 M238.641,367.717c0,0.37,0.247,0.494,0.988,0.494s1.482,0,2.345,0c0.865,0,2.469-0.124,3.211-0.371
			c0.617-0.123,0.987-0.493,0.987-1.233c0-0.618-0.494-2.595-3.21-2.595C240.122,364.012,238.641,366.482,238.641,367.717
			L238.641,367.717z"/>
		<path fill="#727171" d="M257.283,369.198c-1.111,0-1.234,0-1.234,0.864c0,3.332,2.222,6.173,5.802,6.173
			c1.605,0,2.716-0.618,3.581-1.236c0.493-0.493,0.863-0.74,0.986-0.74c0.248,0,0.371,0.125,0.371,0.372
			c0,0.368-0.864,1.233-1.235,1.48c-1.357,1.235-3.085,1.852-5.185,1.852c-4.568,0-7.531-3.457-7.531-7.407
			c0-5.061,4.568-7.53,8.271-7.53c3.951,0,6.051,2.594,6.051,5.186c0,0.616-0.247,0.865-0.618,0.865h-9.259V369.198z
			 M256.295,367.717c0,0.37,0.247,0.494,0.988,0.494c0.74,0,1.481,0,2.345,0c0.865,0,2.469-0.124,3.209-0.371
			c0.618-0.123,0.988-0.493,0.988-1.233c0-0.618-0.494-2.595-3.209-2.595C257.777,364.012,256.295,366.482,256.295,367.717
			L256.295,367.717z"/>
		<path fill="#727171" d="M272.222,368.58c0-1.852-0.124-2.221-1.235-2.345c-0.616-0.123-0.864-0.123-0.864-0.372
			c0-0.493,0.371-0.493,0.988-0.615c0.865-0.249,2.346-0.989,3.086-1.604c0.371-0.372,0.494-0.494,0.741-0.494
			c0.371,0,0.371,0.245,0.371,0.616v1.482c0,0.494,0,0.615,0.123,0.615s0.493-0.615,1.111-1.108c0.617-0.618,1.481-1.36,2.84-1.36
			c1.111,0,2.099,0.742,2.099,1.854c0,0.987-0.741,1.604-1.606,1.604c-0.617,0-0.988-0.37-1.235-0.617
			c-0.37-0.372-0.617-0.616-1.11-0.616c-0.618,0-1.112,0.616-1.482,1.109c-0.618,0.988-0.618,1.729-0.618,2.963v4.939
			c0,1.604,0,2.467,1.605,2.467c0.495,0,1.111,0,1.111,0.495c0,0.37-0.247,0.37-0.741,0.37c-0.864,0-2.222-0.123-3.58-0.123
			c-1.481,0-2.592,0.123-3.456,0.123c-0.248,0-0.495-0.123-0.495-0.37c0-0.495,0.495-0.495,0.988-0.495
			c1.481,0,1.481-0.862,1.481-2.839v-5.679H272.222z"/>
		<path fill="#727171" d="M285.802,368.457c0-1.851-0.125-2.222-1.234-2.222c-0.618,0-0.865,0-0.865-0.372
			c0-0.493,0.494-0.493,0.987-0.615c1.112-0.249,2.594-1.111,3.457-1.729c0.247-0.247,0.37-0.369,0.618-0.369
			c0.247,0,0.37,0.245,0.37,0.494c0,0.493,0,0.986,0,1.479v9.261c0,1.604,0,2.345,1.358,2.469c0.37,0,0.864,0,0.864,0.494
			c0,0.371-0.247,0.371-0.494,0.371c-0.988,0-2.223-0.125-3.333-0.125c-1.605,0-2.592,0.125-3.581,0.125
			c-0.247,0-0.495-0.125-0.495-0.371c0-0.494,0.495-0.494,0.988-0.494c1.481,0,1.481-0.617,1.481-2.594v-5.802H285.802z
			 M287.284,360.68c-0.988,0-1.853-0.742-1.853-1.854c0-0.987,0.618-1.852,1.976-1.852c0.987,0,1.853,0.742,1.853,1.852
			C289.259,359.938,288.394,360.68,287.284,360.68L287.284,360.68z"/>
		<path fill="#727171" d="M295.802,368.457c0-1.729-0.124-2.098-1.233-2.098c-0.618,0-0.865-0.124-0.865-0.371
			c0-0.493,0.494-0.493,0.865-0.618c0.863-0.247,2.468-0.986,3.208-1.727c0.248-0.249,0.372-0.494,0.617-0.494
			c0.371,0,0.371,0.245,0.371,0.616v1.357c0,0.372,0,0.619,0.124,0.619c0.125,0,0.741-0.619,1.606-1.236
			c0.864-0.615,2.098-1.234,3.58-1.234c1.357,0,2.714,0.494,3.703,1.604c0.988,1.112,1.112,2.348,1.112,4.2v5.43
			c0,1.482,0,2.347,1.358,2.47c0.371,0,0.865,0.122,0.865,0.493s-0.248,0.371-0.494,0.371c-0.988,0-2.47-0.122-3.458-0.122
			c-1.11,0-2.099,0.122-2.963,0.122c-0.247,0-0.494-0.122-0.494-0.371c0-0.371,0.494-0.493,0.741-0.493
			c1.234-0.123,1.234-0.864,1.234-2.47v-5.183c0-0.866,0-2.1-0.494-2.841c-0.495-0.863-1.481-1.359-2.716-1.359
			c-1.111,0-2.099,0.496-2.84,1.236c-0.741,0.864-0.864,1.48-0.864,2.592v5.555c0,1.605,0,2.347,1.235,2.47
			c0.247,0,0.74,0.122,0.74,0.493c0,0.249-0.246,0.494-0.494,0.494c-0.864,0-2.098-0.123-3.209-0.123
			c-1.235,0-2.222,0.123-3.21,0.123c-0.247,0-0.494-0.123-0.494-0.37c0-0.495,0.494-0.495,0.864-0.495
			c1.357-0.122,1.357-0.862,1.357-2.839v-5.802H295.802z"/>
		<path fill="#727171" d="M314.814,368.457c0-3.209,3.209-5.186,6.542-5.186c1.236,0,2.347,0.247,3.581,0.74
			c0.742,0.372,0.987,0.372,1.852,0.372h1.977c0.864,0,1.11,0,1.233,0.864c0,0.494,0,0.615-0.616,0.615c-0.494,0-0.988,0-1.358,0
			c-0.371,0-0.74,0.125-0.74,0.249c0,0.123,0.122,0.37,0.246,0.616c0.247,0.618,0.37,1.111,0.37,1.852
			c0,1.358-1.604,4.939-6.665,4.939c-1.482,0-2.964,0.615-2.964,1.357c0,0.74,1.234,0.987,1.976,0.987c1.234,0,2.84,0,4.075,0
			c2.839,0,5.185,1.111,5.309,3.458c0,4.073-5.187,5.678-9.26,5.678c-3.334,0-6.667-1.234-6.667-3.457
			c0-1.479,1.482-2.221,2.716-2.84c0.248-0.123,0.988-0.491,0.988-0.74c0-0.245-0.741-0.865-1.234-1.356
			c-0.617-0.495-1.235-1.111-1.235-1.482c0-0.37,0.248-0.493,1.235-0.74c1.111-0.371,2.469-0.864,2.469-1.111
			c0-0.125-0.494-0.372-1.113-0.742C316.173,371.792,314.814,370.556,314.814,368.457L314.814,368.457z M320.987,384.013
			c1.112,0,2.594-0.247,3.704-0.74c1.111-0.493,1.852-1.358,1.852-2.469c0-1.977-2.1-2.346-3.581-2.346
			c-1.975,0-3.208-0.125-4.197-0.125c-0.988,0.494-2.223,1.358-2.223,2.595C316.542,382.53,318.148,384.013,320.987,384.013
			L320.987,384.013z M321.235,372.654c2.346,0,3.208-2.223,3.208-4.197s-0.987-4.445-3.087-4.445c-2.221,0-3.208,2.348-3.208,4.199
			C318.148,370.186,319.011,372.654,321.235,372.654L321.235,372.654z"/>
		<path fill="#727171" d="M348.519,373.025c0,1.605,0.246,3.335,1.728,3.335c0.619,0,1.111-0.249,1.483-0.496
			c0.492-0.247,0.739-0.493,0.862-0.493c0.247,0,0.371,0.246,0.371,0.37c0,0.619-1.852,2.346-4.198,2.346
			c-1.11,0-1.975-0.369-2.591-0.989c-0.741-0.862-0.865-1.727-0.865-3.825v-7.902c0-0.615-0.123-0.615-0.494-0.615h-0.864
			c-0.37,0-0.74-0.125-0.74-0.371c0-0.372,0.246-0.493,0.617-0.618c1.481-0.74,2.715-1.481,3.579-3.456
			c0.124-0.372,0.248-0.619,0.618-0.619s0.37,0.247,0.37,0.496v2.715c0,0.37,0,0.617,0.494,0.742c0.864,0,2.346-0.125,3.209-0.125
			c0.371,0,0.371,0.247,0.371,0.618c0,0.739-0.123,0.739-0.494,0.739c-0.74,0-1.604-0.121-2.47-0.121c-0.986,0-1.11,0-1.11,0.864
			v7.406H348.519z"/>
		<path fill="#727171" d="M357.283,360.31c0-2.222,0-2.471-1.605-2.593c-0.368-0.124-0.616-0.124-0.616-0.493
			c0-0.371,0.248-0.371,0.864-0.495c0.988-0.122,2.099-0.369,3.21-0.987c0.246-0.122,0.741-0.371,0.986-0.371
			c0.372,0,0.372,0.249,0.372,0.617v8.889c0,0.247,0,0.372,0.247,0.372c0.245,0,0.369-0.125,0.493-0.249
			c1.357-1.233,2.716-1.85,4.568-1.85c4.197,0,4.691,3.086,4.691,5.678v5.557c0,1.728,0,2.345,1.357,2.469
			c0.37,0,0.864,0.123,0.864,0.494s-0.247,0.371-0.494,0.371c-0.987,0-2.345-0.125-3.21-0.125c-0.987,0-2.469,0.125-3.333,0.125
			c-0.246,0-0.493-0.125-0.493-0.371c0-0.371,0.493-0.494,0.864-0.494c1.109,0,1.234-0.617,1.234-2.347v-5.183
			c0-0.989,0-2.224-0.493-3.088c-0.495-0.987-1.482-1.48-2.841-1.48c-1.11,0-2.099,0.493-2.84,1.233
			c-0.74,0.864-0.74,1.604-0.74,2.716v5.927c0,1.604,0,2.222,1.234,2.345c0.37,0,0.742,0.124,0.742,0.493
			c0,0.371-0.248,0.494-0.495,0.494c-0.865,0-2.222-0.123-3.086-0.123c-0.987,0-2.592,0.123-3.58,0.123
			c-0.248,0-0.494-0.123-0.494-0.37c0-0.493,0.494-0.493,0.987-0.493c1.482,0,1.482-0.617,1.482-2.841V360.31H357.283z"/>
		<path fill="#727171" d="M380.123,369.198c-1.11,0-1.234,0-1.234,0.864c0,3.332,2.223,6.173,5.803,6.173
			c1.605,0,2.717-0.618,3.457-1.236c0.493-0.493,0.864-0.74,0.987-0.74c0.248,0,0.37,0.125,0.37,0.372
			c0,0.368-0.864,1.233-1.234,1.48c-1.358,1.235-3.087,1.852-5.186,1.852c-4.567,0-7.531-3.457-7.531-7.407
			c0-5.061,4.568-7.53,8.273-7.53c3.949,0,6.049,2.594,6.049,5.186c0,0.616-0.247,0.865-0.618,0.865h-9.136V369.198z
			 M379.136,367.717c0,0.37,0.247,0.494,0.987,0.494c0.741,0,1.481,0,2.346,0s2.471-0.124,3.21-0.371
			c0.618-0.123,0.988-0.493,0.988-1.233c0-0.618-0.495-2.595-3.21-2.595C380.617,364.012,379.136,366.482,379.136,367.717
			L379.136,367.717z"/>
		<path fill="#727171" d="M409.631,374.384c0,1.604,0,2.469,1.48,2.469c0.372,0,0.987,0.123,0.987,0.494s-0.246,0.371-0.493,0.371
			c-0.987,0-2.346-0.125-3.703-0.125s-2.345,0.125-3.21,0.125c-0.247,0-0.493-0.125-0.493-0.371c0-0.494,0.493-0.494,0.986-0.494
			c1.482,0,1.482-0.617,1.482-2.84v-7.9c0-1.113,0-1.113-0.864-1.113c-0.618,0-1.235,0-1.235-0.369c0-0.493,0.495-0.618,0.989-0.739
			c0.987-0.247,0.987-0.989,1.11-1.977c0.245-1.604,0.862-3.332,2.099-4.445c1.234-1.109,3.209-1.975,4.692-1.975
			c0.985,0,2.96,0.369,2.96,1.358c0,0.247-0.245,0.986-0.492,1.48c-0.247,0.371-0.493,0.618-0.74,0.618
			c-0.494,0-0.987-0.618-1.234-0.863c-0.617-0.864-1.113-1.481-1.977-1.481c-1.851,0-2.222,2.592-2.222,4.073v1.977
			c0,0.987,0.122,0.987,1.236,0.987h2.469c0.493,0,0.493,0.247,0.493,0.615c0,0.617-0.125,0.74-0.989,0.74h-2.098
			c-1.111,0-1.111,0-1.111,0.989v8.396H409.631z"/>
		<path fill="#727171" d="M421.111,371.792c0,1.975,0,4.443,3.332,4.443c1.236,0,2.224-0.371,2.964-1.358
			c0.496-0.493,0.496-0.864,0.496-2.098v-5.927c0-1.604,0-2.347-1.236-2.469c-0.37,0-0.987,0-0.987-0.493
			c0-0.247,0.122-0.372,0.617-0.372c0.741,0,1.606,0.125,2.224,0.125c0.615,0,1.48-0.125,2.099-0.125c0.37,0,0.37,0.125,0.37,0.74
			v1.236v8.889c0,0.987,0.123,1.48,1.234,1.48c0.493,0,0.987-0.123,0.987,0.371c0,0.493-0.494,0.493-1.358,0.617
			c-0.987,0.245-2.345,0.616-3.332,1.234c-0.125,0-0.371,0.246-0.493,0.246c-0.249,0-0.249-0.121-0.249-0.37v-1.234
			c0-0.368,0-0.617-0.247-0.617c-0.124,0-0.368,0.124-0.617,0.371c-0.74,0.615-2.222,1.851-4.443,1.851
			c-1.604,0-2.839-0.615-3.704-1.729c-0.988-1.232-0.988-2.962-0.988-4.318V367.1c0-1.729,0-2.345-1.359-2.47
			c-0.368,0-0.862,0-0.862-0.493c0-0.246,0.123-0.371,0.494-0.371c0.615,0,1.728,0.125,2.345,0.125c0.618,0,1.358-0.125,1.977-0.125
			c0.494,0,0.494,0.371,0.494,1.11v6.916H421.111z"/>
		<path fill="#727171" d="M440.619,373.025c0,1.605,0.246,3.335,1.728,3.335c0.617,0,1.11-0.249,1.482-0.496
			c0.493-0.247,0.74-0.493,0.864-0.493c0.245,0,0.369,0.246,0.369,0.37c0,0.619-1.852,2.346-4.197,2.346
			c-1.111,0-1.976-0.369-2.594-0.989c-0.739-0.862-0.864-1.727-0.864-3.825v-7.902c0-0.615-0.122-0.615-0.493-0.615h-0.862
			c-0.372,0-0.743-0.125-0.743-0.371c0-0.372,0.249-0.493,0.618-0.618c1.48-0.74,2.717-1.481,3.581-3.456
			c0.123-0.372,0.246-0.619,0.618-0.619c0.369,0,0.369,0.247,0.369,0.496v2.715c0,0.37,0,0.617,0.493,0.742
			c0.864,0,2.348-0.125,3.209-0.125c0.372,0,0.372,0.247,0.372,0.618c0,0.739-0.125,0.739-0.495,0.739
			c-0.738,0-1.604-0.121-2.469-0.121c-0.986,0-1.11,0-1.11,0.864v7.406H440.619z"/>
		<path fill="#727171" d="M452.101,371.792c0,1.975,0,4.443,3.333,4.443c1.234,0,2.224-0.371,2.964-1.358
			c0.493-0.493,0.493-0.864,0.493-2.098v-5.927c0-1.604,0-2.347-1.233-2.469c-0.372,0-0.989,0-0.989-0.493
			c0-0.247,0.125-0.372,0.617-0.372c0.74,0,1.605,0.125,2.221,0.125c0.743,0,1.483-0.125,2.101-0.125c0.37,0,0.37,0.125,0.37,0.74
			v1.236v8.889c0,0.987,0.124,1.48,1.234,1.48c0.494,0,0.987-0.123,0.987,0.371c0,0.493-0.493,0.493-1.357,0.617
			c-0.987,0.245-2.346,0.616-3.335,1.234c-0.121,0-0.368,0.246-0.493,0.246c-0.247,0-0.247-0.121-0.247-0.37v-1.234
			c0-0.368,0-0.617-0.246-0.617c-0.122,0-0.369,0.124-0.618,0.371c-0.738,0.615-2.221,1.851-4.443,1.851
			c-1.604,0-2.839-0.615-3.703-1.729c-0.989-1.232-0.989-2.962-0.989-4.318V367.1c0-1.729,0-2.345-1.357-2.47
			c-0.37,0-0.865,0-0.865-0.493c0-0.246,0.125-0.371,0.495-0.371c0.618,0,1.728,0.125,2.346,0.125s1.357-0.125,1.977-0.125
			c0.493,0,0.493,0.371,0.493,1.11v6.916H452.101z"/>
		<path fill="#727171" d="M469.263,368.58c0-1.852-0.125-2.221-1.236-2.345c-0.618-0.123-0.863-0.123-0.863-0.372
			c0-0.493,0.37-0.493,0.985-0.615c0.865-0.249,2.347-0.989,3.087-1.604c0.369-0.372,0.494-0.494,0.741-0.494
			c0.37,0,0.37,0.245,0.37,0.616v1.482c0,0.494,0,0.615,0.123,0.615c0.124,0,0.495-0.615,1.111-1.108
			c0.617-0.618,1.482-1.36,2.841-1.36c1.11,0,2.098,0.742,2.098,1.854c0,0.987-0.74,1.604-1.604,1.604
			c-0.617,0-0.987-0.37-1.234-0.617c-0.37-0.372-0.617-0.616-1.11-0.616c-0.618,0-1.111,0.616-1.483,1.109
			c-0.617,0.988-0.617,1.729-0.617,2.963v4.939c0,1.604,0,2.467,1.604,2.467c0.496,0,1.113,0,1.113,0.495
			c0,0.37-0.249,0.37-0.742,0.37c-0.864,0-2.221-0.123-3.578-0.123c-1.483,0-2.594,0.123-3.459,0.123
			c-0.245,0-0.494-0.123-0.494-0.37c0-0.495,0.494-0.495,0.987-0.495c1.482,0,1.482-0.862,1.482-2.839v-5.679H469.263z"/>
		<path fill="#727171" d="M485.311,369.198c-1.111,0-1.236,0-1.236,0.864c0,3.332,2.224,6.173,5.805,6.173
			c1.604,0,2.716-0.618,3.456-1.236c0.495-0.493,0.864-0.74,0.989-0.74c0.244,0,0.368,0.125,0.368,0.372
			c0,0.368-0.862,1.233-1.233,1.48c-1.358,1.235-3.087,1.852-5.186,1.852c-4.568,0-7.53-3.457-7.53-7.407
			c0-5.061,4.567-7.53,8.271-7.53c3.952,0,6.051,2.594,6.051,5.186c0,0.616-0.247,0.865-0.619,0.865h-9.135V369.198z
			 M484.199,367.717c0,0.37,0.247,0.494,0.989,0.494c0.74,0,1.479,0,2.345,0c0.864,0,2.467-0.124,3.208-0.371
			c0.619-0.123,0.989-0.493,0.989-1.233c0-0.618-0.494-2.595-3.21-2.595C485.804,364.012,484.199,366.482,484.199,367.717
			L484.199,367.717z"/>
	</g>
</g>
</svg>
