<?xml version="1.0" encoding="utf-8"?>
<!-- Generator: Adobe Illustrator 16.0.4, SVG Export Plug-In . SVG Version: 6.00 Build 0)  -->
<!DOCTYPE svg PUBLIC "-//W3C//DTD SVG 1.1//EN" "http://www.w3.org/Graphics/SVG/1.1/DTD/svg11.dtd">
<svg version="1.1" id="Artboard" xmlns="http://www.w3.org/2000/svg" xmlns:xlink="http://www.w3.org/1999/xlink" x="0px" y="0px"
	 width="640px" height="640px" viewBox="0 0 640 640" enable-background="new 0 0 640 640" xml:space="preserve">
<g id="shoeisha">
	<path d="M317.879,270.47h-37.836c0,0,2.267-13.278-16.376-13.278c-18.634,0-18.063,12.395-9.598,14.966
		c9.32,2.831,34.085,7.452,53.082,17.219c9.89,5.084,13.562,14.974,13.562,14.974v-70.873h105.596v32.473h-68.326v14.11h58.723
		v29.933h-58.723v15.817h68.885v33.596H320.418v-22.869c0,0-7.908,28.251-56.185,27.38c-62.673-1.129-57.595-48.276-57.595-48.276
		h38.959c0,0-2.819,16.089,21.18,16.089c26.258,0,16.376-15.238,10.447-17.511c-22.736-8.65-66.632-6.486-66.911-46.302
		c-0.26-36.16,37.257-39.808,54.206-39.808C324.094,228.109,317.879,270.47,317.879,270.47z"/>
	<g>
		<path d="M228.206,386.832c-0.532-4.901-3.8-7.008-8.504-7.008c-3.833,0-7.687,1.391-7.687,5.854c0,4.227,5.483,4.848,11.006,6.1
			c5.465,1.242,10.942,3.168,10.942,9.887c0,7.293-7.153,10.227-13.391,10.227c-7.681,0-14.167-3.746-14.167-12.099h4.314
			c0,5.759,4.8,8.257,9.992,8.257c4.126,0,8.689-1.301,8.689-6.244c0-4.703-5.477-5.516-10.941-6.716
			c-5.479-1.198-10.994-2.786-10.994-9.069c0-6.964,6.193-10.042,12.433-10.042c7.006,0,12.326,3.313,12.624,10.854H228.206z"/>
	</g>
	<g>
		<polygon points="237.066,376.798 241.637,376.798 241.637,391.534 259.684,391.534 259.684,376.798 264.252,376.798 
			264.252,411.079 259.684,411.079 259.684,395.375 241.637,395.375 241.637,411.079 237.066,411.079 		"/>
	</g>
	<path d="M296.16,393.934c0-6.909-3.503-14.109-11.858-14.109c-8.352,0-11.855,7.2-11.855,14.109
		c0,6.914,3.503,14.115,11.855,14.115C292.656,408.049,296.16,400.848,296.16,393.934h4.565c0,9.318-5.523,17.957-16.423,17.957
		c-10.897,0-16.413-8.639-16.413-17.957c0-9.311,5.515-17.956,16.413-17.956c10.899,0,16.423,8.646,16.423,17.956H296.16z"/>
	<g>
		<polygon points="304.36,376.798 328.023,376.798 328.023,380.636 308.917,380.636 308.917,391.534 326.727,391.534 
			326.727,395.377 308.917,395.375 308.917,407.232 328.164,407.232 328.164,411.079 304.36,411.079 		"/>
	</g>
	<g>
		<rect x="333.15" y="376.798" width="4.559" height="34.281"/>
	</g>
	<g>
		<path d="M363.287,386.832c-0.533-4.901-3.795-7.008-8.498-7.008c-3.842,0-7.689,1.391-7.689,5.854c0,4.227,5.48,4.848,10.996,6.1
			c5.471,1.242,10.955,3.168,10.955,9.887c0,7.293-7.16,10.227-13.404,10.227c-7.668,0-14.16-3.746-14.16-12.099h4.322
			c0,5.759,4.811,8.257,9.99,8.257c4.125,0,8.68-1.301,8.68-6.244c0-4.703-5.471-5.516-10.941-6.716
			c-5.477-1.198-10.986-2.786-10.986-9.069c0-6.964,6.188-10.042,12.436-10.042c7.006,0,12.338,3.313,12.619,10.854H363.287z"/>
	</g>
	<g>
		<polygon points="372.637,376.798 377.203,376.798 377.201,391.534 395.244,391.534 395.244,376.798 399.812,376.798 
			399.807,411.079 395.244,411.079 395.244,395.375 377.201,395.375 377.201,411.079 372.637,411.079 		"/>
	</g>
	<polygon points="411.76,396.91 423.363,396.91 417.664,380.928 417.562,380.928 411.76,396.91 410.32,400.752 406.475,411.079 
		401.77,411.079 415.164,376.798 420.203,376.798 433.596,411.079 428.557,411.079 424.811,400.752 410.32,400.752 	"/>
</g>
</svg>
