<?xml version="1.0" encoding="utf-8"?>
<!-- Generator: Adobe Illustrator 16.0.4, SVG Export Plug-In . SVG Version: 6.00 Build 0)  -->
<!DOCTYPE svg PUBLIC "-//W3C//DTD SVG 1.1//EN" "http://www.w3.org/Graphics/SVG/1.1/DTD/svg11.dtd">
<svg version="1.1" id="Artboard" xmlns="http://www.w3.org/2000/svg" xmlns:xlink="http://www.w3.org/1999/xlink" x="0px" y="0px"
	 width="640px" height="640px" viewBox="0 0 640 640" enable-background="new 0 0 640 640" xml:space="preserve">
<g id="dotinstall">
	<path id="icon" fill="#E89213" d="M147.777,280.157c-4.203-4.213-25.246-5.408-25.246-5.408l-27.047,0.599l-22.244,3.607
		l-1.204,4.21l1.204,25.845l-1.797,11.43l2.4,27.643c0,0,3.603,6.607,8.412,8.417c4.816,1.801,31.866,3.606,31.866,3.606
		s25.84,0.6,27.648,0c1.805-0.603,7.809-6.613,7.809-6.613l-2.403-18.628l2.403-43.888
		C149.578,290.976,151.989,284.367,147.777,280.157z M97.284,313.817l-0.601-26.448l16.834-2.395l-1.81,13.222l0.603,13.823
		l18.639,0.601l-23.442,19.832l-21.04-18.028L97.284,313.817z M90.075,346.277l-1.206-6.004l43.274-4.21l2.411,9.012L90.075,346.277
		z"/>
	<g id="logo">
		<polygon fill="#E89213" points="322.827,280.319 298.715,321.68 300.777,329.26 318.7,323.061 313.871,347.872 332.486,351.312 
			328.355,310.646 340.752,287.907 		"/>
		<polygon fill="#E89213" points="349.028,294.108 343.508,305.838 355.927,312.721 362.127,304.447 		"/>
		<polygon fill="#E89213" points="375.217,306.513 375.217,310.646 352.474,334.774 361.437,348.554 389.004,307.907 		"/>
		<polygon fill="#E89213" points="396.588,294.783 396.588,308.589 415.195,307.208 391.763,336.165 392.448,343.729 
			402.788,347.872 413.816,325.136 421.395,343.729 435.876,344.427 442.767,344.427 425.526,311.347 432.424,294.108 		"/>
		<polygon fill="#E89213" points="453.104,280.319 451.031,325.814 451.031,343.729 466.199,346.488 465.513,315.479 
			476.529,320.301 486.186,320.301 488.259,305.143 467.566,304.447 469.64,284.467 472.402,281.707 		"/>
		<polygon fill="#E89213" points="496.528,310.237 494.455,324.021 517.888,319.891 517.888,306.111 		"/>
		<polygon fill="#E89213" points="531.75,302.276 544.154,302.962 533.827,338.804 519.354,338.804 		"/>
		<polygon fill="#E89213" points="553.811,296.08 548.979,308.471 548.3,349.843 567.594,340.189 574.484,331.913 583.442,303.661 
			567.594,316.06 561.395,322.959 563.459,297.454 555.884,292.633 		"/>
		<polygon fill="#E89213" points="191.705,283.732 189.802,307.451 214.518,317.071 203.267,323.575 188.672,316.191 
			189.802,349.055 174.29,346.797 175.416,320.165 171.491,287.745 		"/>
		<polygon fill="#E89213" points="198.715,291.536 207.095,286.438 208.886,288.99 211.881,304.281 206.497,305.122 		"/>
		<polygon fill="#E89213" points="213.204,283.208 222.176,284.045 221.596,300.188 215.601,301.892 		"/>
		<polygon fill="#E89213" points="218.861,335.604 214.245,326.927 210.162,328.216 213.084,340.092 		"/>
		<polygon fill="#E89213" points="228.435,332.61 220.862,324.115 217.372,326.245 221.501,338.23 		"/>
		<polygon fill="#E89213" points="236.898,326.817 249.384,328.932 225.786,355.274 218.152,351.444 		"/>
		<polygon fill="#E89213" points="249.02,287.15 256.038,320.916 254.843,345.972 270.315,351.961 268.713,321.142 287.151,322.156 
			296.367,312.957 269.825,311.806 272.474,280.849 		"/>
	</g>
</g>
</svg>
