<?xml version="1.0" encoding="utf-8"?>
<!-- Generator: Adobe Illustrator 16.0.4, SVG Export Plug-In . SVG Version: 6.00 Build 0)  -->
<!DOCTYPE svg PUBLIC "-//W3C//DTD SVG 1.1//EN" "http://www.w3.org/Graphics/SVG/1.1/DTD/svg11.dtd">
<svg version="1.1" id="Artboard" xmlns="http://www.w3.org/2000/svg" xmlns:xlink="http://www.w3.org/1999/xlink" x="0px" y="0px"
	 width="640px" height="640px" viewBox="0 0 640 640" enable-background="new 0 0 640 640" xml:space="preserve">
<g>
	<polygon fill="#040000" points="148.362,364.815 122.044,310.311 114.091,364.815 92.354,364.815 106.049,275.315 126.629,275.315 
		151.712,327.793 160.007,275.315 181.595,275.315 167.784,364.815 	"/>
	<polygon fill="#040000" points="293.545,364.815 273.791,275.315 294.201,275.315 306.595,331.675 335.55,275.315 357.783,275.315 
		311.911,364.815 	"/>
	<path fill="#040000" d="M392.69,364.815l-4.313-17.182h-28.864l-9.228,17.182h-22.771l48.072-89.5h15.035l22.796,89.5H392.69z
		 M383.601,328.616l-4.421-17.598l-9.45,17.598H383.601z"/>
	<path fill="#040000" d="M457.442,364.815l-15.608-30.426l-4.492,30.426H415.55l13.288-89.5h17.952
		c11.215,0,19.94,2.369,25.938,7.033c6.155,4.789,9.278,11.752,9.278,20.695c0,6.896-1.656,13.088-4.911,18.4
		c-2.983,4.855-7.771,8.299-14.243,10.244l16.991,33.127H457.442z M446.069,314.69c3.923,0,7.309-1.105,10.029-3.278
		c2.619-2.094,3.894-4.541,3.894-7.485c0-3.367-0.991-5.679-3.03-7.074c-1.982-1.354-5.089-2.143-9.244-2.341l-2.97,20.13
		L446.069,314.69z"/>
	<path fill="#040000" d="M511.85,365.855c-10.135,0-19.676-4.07-30.026-12.808l-1.517-1.284l12.499-15.421l1.561,1.172
		c3.889,2.92,6.546,4.674,9.148,6.361c2.559,1.666,5.098,2.506,7.552,2.506c2.617,0,4.785-0.834,6.624-2.551
		c1.798-1.671,2.672-3.624,2.672-5.968c0-2.069-0.857-3.854-2.622-5.466c-2.007-1.824-5.126-3.629-9.272-5.355
		c-4.578-1.9-7.775-3.557-9.778-5.064c-2.042-1.535-4.077-3.948-6.044-7.172c-2.033-3.32-3.064-7.454-3.064-12.279
		c0-8.15,3.019-15.005,8.969-20.373c5.891-5.312,13.409-8.009,22.343-8.009c8.981,0,17.519,3.617,25.376,10.743l1.377,1.252
		L535.83,301.6l-1.594-1.126c-3.162-2.236-5.82-3.949-7.903-5.084c-1.836-1-3.668-1.51-5.44-1.51c-2.753,0-4.916,0.754-6.604,2.299
		c-1.657,1.518-2.433,3.327-2.433,5.693c0,1.98,0.841,3.621,2.643,5.163c2.079,1.771,5.772,3.808,10.977,6.062
		c4.696,2.933,7.748,5.078,9.469,6.638c1.788,1.621,3.465,4.018,4.981,7.119c1.542,3.158,2.323,6.641,2.323,10.359
		c0,7.922-3.01,14.759-8.939,20.319C527.416,363.055,520.196,365.855,511.85,365.855"/>
	<path fill="#040000" d="M228.61,365.678c-25.194,0-45.69-20.497-45.69-45.688s20.496-45.691,45.69-45.691
		c25.192,0,45.689,20.5,45.689,45.691S253.802,365.678,228.61,365.678 M253.138,319.989c0-13.523-11.004-24.527-24.528-24.527
		c-13.526,0-24.53,11.004-24.53,24.527s11.003,24.523,24.53,24.523C242.134,344.513,253.138,333.513,253.138,319.989"/>
</g>
</svg>
