<?xml version="1.0" encoding="utf-8"?>
<!-- Generator: Adobe Illustrator 16.0.4, SVG Export Plug-In . SVG Version: 6.00 Build 0)  -->
<!DOCTYPE svg PUBLIC "-//W3C//DTD SVG 1.1//EN" "http://www.w3.org/Graphics/SVG/1.1/DTD/svg11.dtd">
<svg version="1.1" id="Artboard" xmlns="http://www.w3.org/2000/svg" xmlns:xlink="http://www.w3.org/1999/xlink" x="0px" y="0px"
	 width="640px" height="640px" viewBox="0 0 640 640" enable-background="new 0 0 640 640" xml:space="preserve">
<g id="pcn">
	<path fill="#444444" d="M313.504,288.908c-6.662-5.293-16.873-7.939-30.635-7.939c-4.941,0-9.749,0.132-14.424,0.396
		c-1.383,0.079-2.749,0.183-4.108,0.299c0.211,21.99-3.814,43.951,2.652,65.297c0.641,1.919,2.493,3.079,4.765,3.988v-4.741
		c1.764,0.178,3.705,0.31,5.822,0.396c2.117,0.089,4.454,0.133,7.014,0.133c25.937,0,38.905-11.424,38.905-34.274
		C323.495,302.056,320.165,294.202,313.504,288.908 M299.609,327.55c-3.838,3.175-9.418,4.764-16.74,4.764
		c-4.059,0-7.764-0.265-11.115-0.795v-34.936c3.352-0.529,7.057-0.793,11.115-0.793c14.997,0,22.497,6,22.497,17.997
		C305.366,319.787,303.447,324.373,299.609,327.55"/>
	<path fill="#18B2A8" d="M351.113,330.429c0,11.205,2.69,19.982,8.072,26.334c5.204,6.265,12.218,9.396,21.04,9.396
		c3.176,0,6.396-0.286,9.66-0.86c3.264-0.573,6.704-1.346,10.322-2.316c0.794-0.265,1.476-0.176,2.052,0.265
		c0.572,0.441,0.859,1.059,0.859,1.853v11.646c0,1.059-0.485,1.72-1.455,1.985c-7.235,1.674-15.042,2.513-23.423,2.513
		c-14.292,0-25.586-4.41-33.877-13.231c-8.382-8.734-12.571-21.261-12.571-37.583c0-16.056,4.057-28.538,12.175-37.45
		c8.026-8.909,19.32-13.364,33.877-13.364c3.97,0,7.85,0.197,11.645,0.595c3.792,0.396,7.543,1.081,11.248,2.051
		c0.97,0.265,1.456,0.884,1.456,1.854v11.645c0,0.795-0.288,1.412-0.861,1.853c-0.575,0.442-1.257,0.529-2.05,0.265
		c-6.796-1.939-13.279-2.911-19.453-2.911c-8.913,0-15.88,3.089-20.908,9.264C353.714,310.314,351.113,319.049,351.113,330.429"/>
	<path fill="#444444" d="M472.654,343.046v5.248h-0.265l-36.655-66.298c-0.442-0.706-0.972-1.06-1.589-1.06h-5.903
		c-0.023,13.565-0.389,28.148,6.962,40.226v-8.599h0.265l36.656,66.432c0.44,0.617,0.969,0.926,1.588,0.926h4.715
		C480.912,367.291,483.211,351.872,472.654,343.046"/>
	<path fill="#E8C03B" d="M270.07,280.937h-14.292c-1.322,0-1.984,0.662-1.984,1.985v95.015c0,1.322,0.662,1.984,1.984,1.984h14.292
		c1.323,0,1.985-0.662,1.985-1.984v-95.015C272.056,281.599,271.394,280.937,270.07,280.937"/>
	<path fill="#3D95B7" d="M433.244,280.937h-14.292c-1.323,0-1.984,0.662-1.984,1.985v95.015c0,1.322,0.661,1.984,1.984,1.984h14.292
		c1.322,0,1.985-0.662,1.985-1.984v-95.015C435.229,281.599,434.566,280.937,433.244,280.937"/>
	<path fill="#3D95B7" d="M488.463,280.937h-14.292c-1.323,0-1.983,0.662-1.983,1.985v95.015c0,1.322,0.66,1.984,1.983,1.984h14.292
		c1.323,0,1.985-0.662,1.985-1.984v-95.015C490.448,281.599,489.786,280.937,488.463,280.937"/>
	<polygon fill-rule="evenodd" clip-rule="evenodd" fill="#444444" points="200.434,352.642 196.694,355.351 178.456,327.65 
		179.802,326.678 	"/>
	<polygon fill-rule="evenodd" clip-rule="evenodd" fill="#444444" points="201.639,379.776 191.374,379.776 194.66,284.433 
		198.354,284.433 	"/>
	<polygon fill-rule="evenodd" clip-rule="evenodd" fill="#444444" points="192.023,344.957 195.764,347.665 214.001,319.965 
		212.655,318.99 	"/>
	<path fill-rule="evenodd" clip-rule="evenodd" fill="#18B2A8" d="M170.78,291.708c11.721,0,21.226,9.502,21.226,21.226
		c0,11.723-9.505,21.224-21.226,21.224c-11.726,0-21.229-9.501-21.229-21.224C149.552,301.21,159.055,291.708,170.78,291.708"/>
	<path fill-rule="evenodd" clip-rule="evenodd" fill="#3D95B7" d="M222.235,291.744c11.722,0,21.227,9.502,21.227,21.226
		c0,11.723-9.505,21.224-21.227,21.224c-11.726,0-21.227-9.501-21.227-21.224C201.009,301.246,210.51,291.744,222.235,291.744"/>
	<path fill-rule="evenodd" clip-rule="evenodd" fill="#E8C03B" d="M196.508,258.757c11.722,0,21.226,9.503,21.226,21.227
		c0,11.722-9.504,21.225-21.226,21.225c-11.726,0-21.228-9.503-21.228-21.225C175.28,268.26,184.782,258.757,196.508,258.757"/>
</g>
</svg>
