<?xml version="1.0" encoding="utf-8"?>
<!-- Generator: Adobe Illustrator 16.0.4, SVG Export Plug-In . SVG Version: 6.00 Build 0)  -->
<!DOCTYPE svg PUBLIC "-//W3C//DTD SVG 1.1//EN" "http://www.w3.org/Graphics/SVG/1.1/DTD/svg11.dtd">
<svg version="1.1" id="Artboard" xmlns="http://www.w3.org/2000/svg" xmlns:xlink="http://www.w3.org/1999/xlink" x="0px" y="0px"
	 width="640px" height="640px" viewBox="0 0 640 640" enable-background="new 0 0 640 640" xml:space="preserve">
<g id="artec">
	<g id="logo">
		<path fill="#0068B6" d="M301.688,322.992c-3.71,4.103-12.975-9.82-24.522-10.375c-11.55-0.593-19.587,12.669-6.356,16.715
			c13.275,4.047,16.446,0.876,20.194,5.746c3.737,4.923,2.592,16.742,0.272,20.211c-1.134,1.725-3.982,4.668-4.884,5.49
			c-7.3,6.558,4.318,17.588,14.111,7.203c9.821-10.389,2.253-34.659,8.687-36.347c9.795-2.613,2.294,15.572,14.436,15.884
			c6.555,0.133,4.113-12.764,3.736-21.357C326.781,313.172,309.461,314.316,301.688,322.992z"/>
		<path fill="#0068B6" d="M321.277,297.023c29.365,1.958,51.061-0.297,70.392-0.607c19.346-0.269,18.672-24.97,0.58-27.103
			c-27.102-3.156-56.237-3.438-71.538-0.269C300.922,273.146,295.62,295.284,321.277,297.023z"/>
		<path fill="#0068B6" d="M346.693,309.703c-6.666,15.584-13.585,36.006-10.415,52.803c3.467,18.172,12.706,18.172,23.081,3.764
			c7.161-9.983,11.535-42.143,10.131-56.566C368.062,295.582,350.51,300.707,346.693,309.703z"/>
		<path fill="#0068B6" d="M400.817,317.716c-12.979,0.878-21.25,13.627-22.423,21.126c-1.74,11.417-1.376,25.338,4.046,30.922
			c10.065,10.44,27.035,13.49,38.758-5.409c4.086-6.582-5.057-10.227-7.971-5.772c-4.682,7.08-8.538,3.924-12.561,3.897
			c-7.81,0-10.091-6.88-8.836-12.665c0,0,28.654,0.899,30.463-3.697C424.924,339.383,420.672,316.475,400.817,317.716z
			 M406.912,340.729l-14.663,1.258C392.938,323.181,408.275,332.447,406.912,340.729z"/>
		<path fill="#0068B6" d="M469.209,353.995c-0.351,10.588-12.344,5.624-13.179-4.331c-0.474-5.193-1.688-33.66,2.78-39.38
			c5.408-6.92,9.522-0.42,9.768,0c3.02,5.422,18.385,6.287,14.043-7.582c-11.901-37.92-35.035-25.51-41.092-6.069
			c-3.048,9.767-11.697,36.381-7.367,60.829c4.319,24.43,32.875,20.317,36.572,16.66c3.669-3.698,13.15-12.547,12.101-24.89
			C481.984,339.76,469.855,334.958,469.209,353.995z"/>
		<path fill="#0068B6" d="M233.146,257.188c-6.581-4.83-14.933-5.909-17.671,0.621c-2.198-5.87-9.833-7.004-13.017-5.79
			c-24.756,9.242-62.895,100.099-64.606,112.228c-1.741,12.101,10.615,20.586,21.34,16.134c8.353-3.451,28.544-43.548,30.287-48.744
			c0.524-1.198,1.147-2.655,1.815-4.207c5.023,6.045,32.691,10.579,38.317,5.585c0.115-0.052,0.229-0.173,0.344-0.257
			c2.752,5.615,5.316,23.394,7.697,30.316c3.266,9.562,22.029,23.051,26.817,1.173C268.963,343.797,246.124,266.683,233.146,257.188
			z M199.562,307.841c6.056-14.663,12.62-31.27,15.378-40.563c0.013,0.109,0,0.175,0.02,0.281
			c2.051,11.953,5.263,27.252,8.794,41.97C216.338,309.638,206.747,308.641,199.562,307.841z"/>
	</g>
	<g id="_xAE_">
		<g>
			<path fill="#231815" d="M493.339,267.3c5.401,0,9.531,4.344,9.531,9.74c0,5.462-4.13,9.833-9.531,9.833
				c-5.395,0-9.632-4.371-9.632-9.821C483.707,270.765,488.85,267.3,493.339,267.3z M493.326,285.646
				c4.763,0.04,8.08-3.954,8.08-8.594c0-4.503-3.237-8.553-8.067-8.553c-4.531,0-8.12,3.686-8.12,8.662
				C485.219,282.123,488.954,285.646,493.326,285.646z"/>
		</g>
		<g>
			<path fill="#231815" d="M489.488,283.191v-12.208h4.432c0.93,0,1.619,0.121,2.057,0.351c0.44,0.214,0.803,0.607,1.086,1.131
				c0.284,0.528,0.419,1.147,0.419,1.834c0,0.934-0.236,1.675-0.715,2.241c-0.48,0.565-1.175,0.932-2.091,1.093
				c0.37,0.217,0.653,0.444,0.849,0.674c0.393,0.472,0.74,0.985,1.041,1.566l1.745,3.317h-1.667l-1.333-2.535
				c-0.515-1-0.909-1.674-1.168-2.013c-0.265-0.349-0.519-0.577-0.761-0.701c-0.253-0.108-0.596-0.174-1.04-0.174h-1.525v5.422
				H489.488z M490.816,276.366h2.84c0.63,0,1.092-0.069,1.415-0.216c0.32-0.149,0.575-0.394,0.765-0.715
				c0.189-0.31,0.284-0.687,0.284-1.12c0-0.619-0.177-1.093-0.541-1.456c-0.364-0.352-0.89-0.528-1.604-0.528h-3.159V276.366z"/>
		</g>
	</g>
</g>
</svg>
