<?xml version="1.0" encoding="utf-8"?>
<!-- Generator: Adobe Illustrator 16.0.4, SVG Export Plug-In . SVG Version: 6.00 Build 0)  -->
<!DOCTYPE svg PUBLIC "-//W3C//DTD SVG 1.1//EN" "http://www.w3.org/Graphics/SVG/1.1/DTD/svg11.dtd">
<svg version="1.1" id="Artboard" xmlns="http://www.w3.org/2000/svg" xmlns:xlink="http://www.w3.org/1999/xlink" x="0px" y="0px"
	 width="640px" height="640px" viewBox="0 0 640 640" enable-background="new 0 0 640 640" xml:space="preserve">
<g id="dotinstall">
	<path id="icon" fill="#E89213" d="M140.334,282.596c-4.202-4.213-25.246-5.408-25.246-5.408l-27.047,0.599l-22.243,3.607
		l-1.204,4.21l1.204,25.845L64,322.88l2.4,27.643c0,0,3.603,6.607,8.412,8.417c4.815,1.801,31.866,3.606,31.866,3.606
		s25.84,0.6,27.647,0c1.806-0.604,7.81-6.613,7.81-6.613l-2.403-18.628l2.403-43.889
		C142.136,293.415,144.546,286.806,140.334,282.596z M89.842,316.256l-0.602-26.448l16.834-2.395l-1.81,13.222l0.603,13.823
		l18.64,0.602l-23.442,19.833l-21.04-18.029L89.842,316.256z M82.633,348.717l-1.206-6.004l43.273-4.21l2.411,9.012L82.633,348.717z
		"/>
	<g id="logo">
		<polygon fill="#E89213" points="315.385,282.758 291.272,324.119 293.334,331.699 311.258,325.5 306.429,350.312 325.044,353.752 
			320.913,313.085 333.31,290.346 		"/>
		<polygon fill="#E89213" points="341.585,296.547 336.065,308.277 348.484,315.16 354.685,306.886 		"/>
		<polygon fill="#E89213" points="367.774,308.952 367.774,313.085 345.032,337.214 353.995,350.993 381.562,310.346 		"/>
		<polygon fill="#E89213" points="389.146,297.222 389.146,311.028 407.753,309.647 384.321,338.604 385.006,346.168 
			395.346,350.312 406.374,327.575 413.952,346.168 428.434,346.866 435.324,346.866 418.084,313.786 424.981,296.547 		"/>
		<polygon fill="#E89213" points="445.661,282.758 443.589,328.254 443.589,346.168 458.757,348.928 458.07,317.917 469.087,322.74 
			478.743,322.74 480.816,307.582 460.124,306.886 462.197,286.906 464.96,284.146 		"/>
		<polygon fill="#E89213" points="489.086,312.676 487.013,326.461 510.445,322.33 510.445,308.55 		"/>
		<polygon fill="#E89213" points="524.308,304.715 536.712,305.401 526.385,341.243 511.911,341.243 		"/>
		<polygon fill="#E89213" points="546.368,298.519 541.536,310.91 540.857,352.282 560.151,342.629 567.042,334.353 576,306.1 
			560.151,318.499 553.952,325.398 556.017,299.893 548.441,295.072 		"/>
		<polygon fill="#E89213" points="184.263,286.171 182.359,309.89 207.075,319.51 195.824,326.015 181.229,318.63 182.359,351.494 
			166.848,349.236 167.974,322.604 164.049,290.184 		"/>
		<polygon fill="#E89213" points="191.272,293.975 199.652,288.877 201.443,291.429 204.438,306.72 199.055,307.561 		"/>
		<polygon fill="#E89213" points="205.762,285.647 214.733,286.484 214.153,302.627 208.158,304.331 		"/>
		<polygon fill="#E89213" points="211.418,338.043 206.803,329.366 202.72,330.655 205.642,342.531 		"/>
		<polygon fill="#E89213" points="220.992,335.05 213.419,326.555 209.93,328.685 214.059,340.67 		"/>
		<polygon fill="#E89213" points="229.455,329.257 241.941,331.371 218.344,357.714 210.709,353.884 		"/>
		<polygon fill="#E89213" points="241.577,289.589 248.596,323.355 247.4,348.411 262.872,354.4 261.271,323.581 279.708,324.596 
			288.925,315.396 262.383,314.245 265.031,283.288 		"/>
	</g>
</g>
</svg>
