<?xml version="1.0" encoding="utf-8"?>
<!-- Generator: Adobe Illustrator 16.0.4, SVG Export Plug-In . SVG Version: 6.00 Build 0)  -->
<!DOCTYPE svg PUBLIC "-//W3C//DTD SVG 1.1//EN" "http://www.w3.org/Graphics/SVG/1.1/DTD/svg11.dtd">
<svg version="1.1" id="Artboard" xmlns="http://www.w3.org/2000/svg" xmlns:xlink="http://www.w3.org/1999/xlink" x="0px" y="0px"
	 width="640px" height="640px" viewBox="22.5 740.5 640 640" enable-background="new 22.5 740.5 640 640" xml:space="preserve">
<g id="amimoto">
	<path d="M198.014,1060.416c0.647,30.467-25.156,55.617-55.119,55.904c-30.46,0.295-56.709-24.905-56.392-56.442
		c0.304-30.106,25.334-55.333,56.091-55.202C173.458,1004.809,198.607,1030.588,198.014,1060.416 M142.444,1013.753
		c-25.67-0.547-46.863,21.142-46.97,46.521c-0.105,25.729,21.212,46.983,46.662,47.076c25.698,0.094,46.902-21.209,47.042-46.559
		C189.32,1034.958,167.901,1013.312,142.444,1013.753"/>
	<path d="M119.574,1072.538c-0.991-1.581-2.627-2.039-4.305-2.259c-3.58-0.471-7.285-1.04-11.01-1.696
		c-3.693-0.649-6.423-4.172-6.353-8.194c0.07-4.08,2.716-7.365,6.433-7.994c3.577-0.605,7.111-1.129,11.029-1.705
		c2.359-0.347,3.28-0.723,4.175-2.207c1.078,1.545,2.826,2.019,4.483,2.252c3.431,0.484,6.935,1.119,10.024,1.68
		c4.182,0.758,6.886,3.916,6.887,8.046c0,4.108-2.747,7.368-6.836,8.108c-4.124,0.748-7.303,1.277-10.306,1.718
		C122.276,1070.508,120.661,1070.977,119.574,1072.538"/>
	<path d="M142.331,1092.449c-1.249-1.807-3.278-2.096-4.978-2.338c-0.388-0.057-0.753-0.106-1.11-0.174
		c-1.533-0.285-3.095-0.539-4.604-0.789c-1.204-0.194-2.45-0.398-3.67-0.615c-4.349-0.775-7.143-3.967-7.117-8.131
		c0.024-4.047,3-7.387,7.237-8.121c0.704-0.122,1.407-0.247,2.111-0.37c2.548-0.448,5.183-0.913,7.779-1.275
		c1.438-0.2,3.122-0.632,4.302-2.09c0.967,1.451,2.531,1.863,3.894,2.043c3.886,0.515,7.681,1.13,10.883,1.667
		c3.979,0.666,6.784,4.003,6.818,8.117c0.035,4.257-2.564,7.473-6.625,8.191c-2.275,0.401-4.603,0.756-6.853,1.099
		c-1.503,0.229-3.061,0.466-4.59,0.715C143.974,1090.677,143.083,1091.127,142.331,1092.449"/>
	<path d="M142.318,1052.621c-1.24-1.734-3.211-2.012-4.864-2.244c-0.383-0.055-0.741-0.104-1.095-0.17
		c-1.515-0.281-3.055-0.531-4.545-0.773c-1.356-0.22-2.759-0.447-4.13-0.697c-3.86-0.701-6.801-4.153-6.837-8.027
		c-0.037-4,2.607-7.225,6.583-8.023c2.03-0.408,4.117-0.748,6.135-1.076c1.275-0.209,2.596-0.422,3.893-0.653
		c2.899-0.515,3.536-0.694,4.812-2.334c0.972,1.619,2.707,2.056,4.049,2.237c3.745,0.5,7.512,1.101,11.022,1.676
		c3.713,0.607,6.463,3.855,6.537,7.728c0.082,4.267-2.528,7.751-6.348,8.47c-2.554,0.483-5.178,0.879-7.714,1.266
		c-1.351,0.205-2.748,0.416-4.122,0.639C143.919,1050.923,143.026,1051.374,142.318,1052.621"/>
	<path d="M165.232,1072.377c-1.188-1.455-2.922-1.906-4.67-2.145c-3.312-0.453-6.563-1.043-9.88-1.656
		c-3.953-0.73-6.917-4.221-6.896-8.121c0.021-4.105,2.856-7.35,7.056-8.069c1.653-0.286,3.308-0.563,4.962-0.844
		c1.559-0.263,3.119-0.526,4.677-0.794c2.848-0.489,3.516-0.667,4.714-2.257c0.902,1.532,2.555,1.985,4.14,2.202
		c3.84,0.521,7.728,1.146,11.023,1.686c3.77,0.617,6.428,3.875,6.464,7.924c0.038,4.23-2.582,7.641-6.373,8.293
		c-3.327,0.572-6.977,1.131-11.156,1.711C167.774,1070.518,166.184,1070.95,165.232,1072.377"/>
	<path d="M243.794,1076.795l-2.445-6.74h-17.058l-2.506,6.74h-9.663l15.388-39.784h10.618l15.328,39.784H243.794z M232.819,1045.48
		l-6.202,17.119h12.405L232.819,1045.48z"/>
	<polygon points="290.483,1076.795 290.483,1048.939 279.27,1076.795 275.572,1076.795 264.358,1048.939 264.358,1076.795 
		255.889,1076.795 255.889,1037.012 267.758,1037.012 277.421,1061.048 287.083,1037.012 299.012,1037.012 299.012,1076.795 	"/>
	<rect x="305.917" y="1037.011" width="8.47" height="39.784"/>
	<polygon points="355.761,1076.795 355.761,1048.939 344.548,1076.795 340.85,1076.795 329.636,1048.939 329.636,1076.795 
		321.166,1076.795 321.166,1037.012 333.036,1037.012 342.698,1061.048 352.362,1037.012 364.289,1037.012 364.289,1076.795 	"/>
	<path d="M369.16,1056.934c0-11.99,8.77-20.576,20.759-20.576c12.049,0,20.816,8.586,20.816,20.576
		c0,11.987-8.769,20.578-20.816,20.578C377.93,1077.511,369.16,1068.921,369.16,1056.934 M402.027,1056.934
		c0-7.455-4.772-13.062-12.107-13.062c-7.338,0-12.05,5.604-12.05,13.062c0,7.396,4.712,13.063,12.05,13.063
		C397.254,1069.997,402.027,1064.329,402.027,1056.934"/>
	<polygon points="422.966,1076.795 422.966,1044.466 411.335,1044.466 411.335,1037.012 443.065,1037.012 443.065,1044.466 
		431.494,1044.466 431.494,1076.795 	"/>
	<path d="M443.631,1056.934c0-11.99,8.768-20.576,20.758-20.576c12.049,0,20.815,8.586,20.815,20.576
		c0,11.987-8.768,20.578-20.815,20.578C452.398,1077.511,443.631,1068.921,443.631,1056.934 M476.494,1056.934
		c0-7.455-4.771-13.062-12.105-13.062c-7.338,0-12.049,5.604-12.049,13.062c0,7.396,4.711,13.063,12.049,13.063
		C471.725,1069.997,476.494,1064.329,476.494,1056.934"/>
	<path d="M527.907,1076.795l-2.445-6.74h-17.059l-2.505,6.74h-9.662l15.387-39.784h10.618l15.328,39.784H527.907z M516.933,1045.48
		l-6.203,17.119h12.407L516.933,1045.48z"/>
	<polygon points="574.596,1076.795 574.596,1048.939 563.382,1076.795 559.684,1076.795 548.471,1048.939 548.471,1076.795 
		540.002,1076.795 540.002,1037.012 551.871,1037.012 561.533,1061.048 571.197,1037.012 583.125,1037.012 583.125,1076.795 	"/>
	<rect x="590.03" y="1037.011" width="8.471" height="39.784"/>
</g>
</svg>
