<?xml version="1.0" encoding="utf-8"?>
<!-- Generator: Adobe Illustrator 16.0.4, SVG Export Plug-In . SVG Version: 6.00 Build 0)  -->
<!DOCTYPE svg PUBLIC "-//W3C//DTD SVG 1.1//EN" "http://www.w3.org/Graphics/SVG/1.1/DTD/svg11.dtd">
<svg version="1.1" id="Artboard" xmlns="http://www.w3.org/2000/svg" xmlns:xlink="http://www.w3.org/1999/xlink" x="0px" y="0px"
	 width="640px" height="640px" viewBox="0 0 640 640" enable-background="new 0 0 640 640" xml:space="preserve">
<g id="r3">
	<rect x="170" y="297.595" fill="#F5F6FB" width="300" height="44.805"/>
	<path fill="none" d="M325.521,371.54c-0.541-4.372-0.938-8.198-1.457-11.58c-1.272,0.628-2.645,1.155-4.148,1.557
		C322.125,364.869,323.961,368.2,325.521,371.54z"/>
	<path fill="none" d="M317.466,296.086c0.413,0.502,0.813,1.004,1.211,1.51h1.405L317.466,296.086z"/>
	<path fill="none" d="M350.163,346.896c-0.198-1.566-0.372-3.062-0.538-4.496h-1.746C348.7,343.899,349.461,345.397,350.163,346.896
		z"/>
	<g>
		<path fill="#1D4B9F" stroke="#1D4B9F" stroke-width="0.517" d="M382.997,297.595c0.489-2.27,0.75-4.782,0.75-7.569
			c0-24.253-16.394-49.943-44.161-65.973l-41.817-24.145v30.946l35.626,20.571c10.038,5.794,15.058,13.04,15.058,21.404
			c0,2.335-0.487,4.06-1.425,5.186c4.229,6.288,7.398,12.89,9.426,19.583h26.543V297.595L382.997,297.595z"/>
		<path fill="#1D4B9F" stroke="#1D4B9F" stroke-width="0.517" d="M317.466,296.086l2.616,1.51h3.724
			c0-0.044,0.006-0.083,0.006-0.126c0-8.364-5.018-15.61-15.054-21.404l-10.987-6.345v8.389
			C305.445,283.43,312.057,289.516,317.466,296.086z"/>
		<path fill="#1D4B9F" stroke="#1D4B9F" stroke-width="0.517" d="M350.163,346.896c3.712,7.943,5.836,15.936,7.523,24.384
			l33.823,19.529c-5.501-18.681-6.873-34.119-10.082-48.409h-31.806C349.792,343.835,349.967,345.33,350.163,346.896z"/>
	</g>
	<g>
		<polygon fill="#ADB0D8" stroke="#ADB0D8" stroke-width="0.517" points="273.129,294.361 273.129,297.595 278.732,297.595 		"/>
		<path fill="#ADB0D8" stroke="#ADB0D8" stroke-width="0.517" d="M356.456,297.595c-2.026-6.692-5.198-13.294-9.426-19.582
			c-7.558-11.226-18.436-21.442-32.081-29.321l-41.818-24.144v30.947l24.641,14.226l10.987,6.345
			c10.037,5.793,15.054,13.04,15.054,21.404c0,0.044-0.006,0.083-0.006,0.126L356.456,297.595L356.456,297.595z"/>
		<path fill="#ADB0D8" stroke="#ADB0D8" stroke-width="0.517" d="M357.688,371.28c-1.689-8.449-3.813-16.44-7.523-24.384
			c-0.703-1.499-1.462-2.997-2.286-4.496h-13.536c-0.639,8.712-4.066,14.492-10.28,17.56c0.521,3.382,0.913,7.208,1.457,11.581
			c3.716,7.94,5.836,15.933,7.526,24.383l33.821,19.525C361.906,398.601,360.309,384.392,357.688,371.28z"/>
	</g>
	<g>
		<path fill="#D6D7EC" stroke="#D6D7EC" stroke-width="0.517" d="M333.047,395.924c-1.69-8.45-3.811-16.443-7.526-24.384
			c-1.558-3.34-3.396-6.671-5.606-10.023c1.505-0.401,2.877-0.929,4.148-1.557c6.214-3.067,9.642-8.848,10.28-17.56h-15.965h-55.329
			l13.207,7.626c12.378,7.148,19.402,16.554,22.413,30.503c1.955,8.62,1.861,20.658,6.328,38.064l37.232,21.498
			C337.267,423.242,335.667,409.032,333.047,395.924z"/>
		<path fill="#D6D7EC" stroke="#D6D7EC" stroke-width="0.517" d="M317.466,296.086c-5.409-6.57-12.021-12.657-19.697-17.978
			c-2.398-1.663-4.863-3.273-7.463-4.775l-41.819-24.144v30.947l24.642,14.226l5.603,3.235h24.73h15.214
			C318.279,297.091,317.877,296.588,317.466,296.086z"/>
	</g>
	<path fill="none" d="M347.878,342.4h1.745c-0.303-2.563-0.586-4.912-0.921-7.081c-1.271,0.627-2.645,1.155-4.148,1.558
		C345.773,338.724,346.869,340.563,347.878,342.4z"/>
	<path fill="none" d="M323.629,299.646l-3.546-2.05h-1.405c1.309,1.663,2.556,3.346,3.709,5.061
		C323.005,301.917,323.414,300.907,323.629,299.646z"/>
	<g>
		<path fill="#C6C8E4" stroke="#C6C8E4" stroke-width="0.517" d="M382.997,297.595h-26.542c1.723,5.677,2.653,11.413,2.653,17.073
			c0,10.458-3.479,17.232-10.405,20.651c0.336,2.168,0.619,4.518,0.922,7.081h31.805c-2.337-10.393-5.643-20.184-12.234-30.165
			C376.712,310.227,381.306,305.414,382.997,297.595z"/>
		<path fill="#C6C8E4" stroke="#C6C8E4" stroke-width="0.517" d="M323.806,297.595h-3.724l3.545,2.05
			C323.734,299.022,323.8,298.347,323.806,297.595z"/>
	</g>
	<g>
		<path fill="#DADBEE" stroke="#D6D7EC" stroke-width="0.517" d="M298.989,324.286c0.115-0.663,0.182-1.374,0.182-2.177
			c0-8.363-5.019-15.609-15.055-21.406l-5.384-3.109h-5.603v11.76L298.989,324.286z"/>
		<path fill="#DADBEE" stroke="#D6D7EC" stroke-width="0.517" d="M356.456,297.595h-32.65c-0.006,0.751-0.068,1.427-0.177,2.05
			c-0.213,1.261-0.624,2.271-1.24,3.01c7.816,11.617,12.076,24.319,12.076,36.652c0,1.076-0.05,2.097-0.121,3.092h13.536
			c-1.008-1.837-2.104-3.678-3.323-5.524c1.505-0.401,2.878-0.931,4.147-1.557c6.927-3.42,10.405-10.194,10.405-20.651
			C359.107,309.008,358.177,303.273,356.456,297.595z"/>
	</g>
	<path fill="#ECECF6" stroke="#ECECF6" stroke-width="0.517" d="M322.386,302.657c-1.153-1.714-2.401-3.399-3.709-5.06h-15.214
		h-24.73l5.384,3.108c10.036,5.796,15.055,13.042,15.055,21.404c0,0.805-0.068,1.517-0.182,2.177
		c-0.963,5.674-6.031,6.113-14.873,1.007l-35.629-20.569v29.271l14.561,8.405h55.329h15.965c0.071-0.996,0.121-2.017,0.121-3.092
		C334.465,326.975,330.205,314.273,322.386,302.657z"/>
	<g>
		<path fill="#1D4B9F" d="M203.062,334.533h-4.141l-8.36-12.944h-3.676v12.944h-3.311V306.04h8.057c2.708,0,4.844,0.655,6.412,1.967
			c1.569,1.313,2.354,3.141,2.354,5.484c0,1.735-0.572,3.282-1.715,4.633c-1.144,1.354-2.72,2.273-4.727,2.756L203.062,334.533z
			 M186.885,318.701h4.181c1.75,0,3.17-0.475,4.26-1.424c1.091-0.949,1.637-2.144,1.637-3.585c0-3.178-1.94-4.767-5.815-4.767
			h-4.262L186.885,318.701L186.885,318.701z"/>
		<path fill="#1D4B9F" d="M218.349,319.227c1.738,0.484,3.129,1.37,4.181,2.657c1.049,1.282,1.575,2.728,1.575,4.329
			c0,2.507-0.977,4.607-2.927,6.313c-1.953,1.701-4.255,2.554-6.908,2.554c-2.261,0-4.289-0.498-6.078-1.495l0.646-2.726
			c1.872,0.875,3.724,1.312,5.555,1.312c1.722,0,3.192-0.533,4.412-1.605c1.218-1.07,1.828-2.445,1.828-4.129
			c0-1.654-0.653-3.002-1.958-4.039c-1.307-1.038-3.035-1.556-5.191-1.556h-0.868v-2.727h0.242c2.074,0,3.784-0.488,5.129-1.464
			c1.346-0.977,2.02-2.291,2.02-3.947c0-1.347-0.485-2.4-1.455-3.162s-2.302-1.141-3.999-1.141c-1.468,0-3.109,0.396-4.927,1.192
			l-0.445-2.846c1.831-0.833,3.676-1.251,5.533-1.251c2.546,0,4.642,0.669,6.291,2.009s2.474,3.059,2.474,5.161
			c0,1.452-0.501,2.811-1.504,4.068c-1.003,1.261-2.21,2.051-3.625,2.375V319.227L218.349,319.227z"/>
		<path fill="#1D4B9F" d="M252.577,334.533h-3.151v-18.317h-6.199v-2.725h9.351L252.577,334.533L252.577,334.533z M251.041,305.533
			c0.591,0,1.098,0.212,1.514,0.635c0.417,0.425,0.627,0.934,0.627,1.526c0,0.62-0.207,1.137-0.617,1.555
			c-0.411,0.417-0.919,0.626-1.525,0.626c-0.553,0-1.04-0.219-1.464-0.657c-0.424-0.438-0.635-0.947-0.635-1.524
			c0-0.58,0.211-1.084,0.635-1.514C250.001,305.75,250.488,305.533,251.041,305.533z"/>
		<path fill="#1D4B9F" d="M282.647,334.533h-3.152v-13.489c0-1.874-0.299-3.227-0.898-4.072c-0.6-0.841-1.541-1.26-2.817-1.26
			c-1.927,0-3.994,1.197-6.2,3.592v15.227h-3.15v-21.042h3.15v3.089c2.262-2.396,4.645-3.593,7.149-3.593
			c3.944,0,5.917,2.382,5.917,7.15L282.647,334.533L282.647,334.533z"/>
		<path fill="#1D4B9F" d="M305.266,316.5c-1.764-0.579-3.428-0.868-4.989-0.868c-1.711,0-3.063,0.287-4.061,0.858
			c-0.995,0.572-1.493,1.337-1.493,2.292c0,0.606,0.228,1.134,0.687,1.585c0.457,0.452,1.373,0.873,2.745,1.263l3.01,0.869
			c1.385,0.39,2.52,0.856,3.394,1.403c0.872,0.544,1.53,1.204,1.967,1.977c0.435,0.774,0.656,1.674,0.656,2.696
			c0,2.009-0.842,3.594-2.524,4.758c-1.685,1.163-3.824,1.745-6.421,1.745c-2.584,0-4.72-0.389-6.402-1.172l0.606-2.724
			c1.762,0.833,3.656,1.25,5.673,1.25c1.749,0,3.174-0.325,4.273-0.979c1.095-0.653,1.645-1.517,1.645-2.596
			c0-0.727-0.273-1.376-0.816-1.95c-0.547-0.572-1.83-1.168-3.849-1.787c-1.629-0.496-2.828-0.87-3.594-1.119
			c-0.767-0.251-1.481-0.617-2.14-1.101c-0.661-0.486-1.161-1.063-1.504-1.736s-0.516-1.426-0.516-2.26
			c0-1.82,0.793-3.259,2.385-4.324c1.589-1.064,3.696-1.596,6.321-1.596c1.695,0,3.579,0.29,5.653,0.868L305.266,316.5z"/>
		<path fill="#1D4B9F" d="M332.488,333.585c-2.116,0.97-4.194,1.456-6.239,1.456c-3.757,0-5.636-1.985-5.636-5.958v-12.864h-4.039
			v-2.726h4.039v-5.757h3.071v5.757h7.149v2.726h-7.149v12.036c0,1.279,0.282,2.274,0.848,2.979c0.565,0.708,1.333,1.06,2.304,1.06
			c1.721,0,3.425-0.382,5.107-1.15L332.488,333.585z"/>
		<path fill="#1D4B9F" d="M351.855,334.533h-3.151v-18.317h-6.2v-2.725h9.352V334.533L351.855,334.533z M350.32,305.533
			c0.594,0,1.097,0.212,1.515,0.635c0.417,0.425,0.624,0.934,0.624,1.526c0,0.62-0.207,1.137-0.617,1.555
			c-0.41,0.417-0.917,0.626-1.523,0.626c-0.553,0-1.041-0.219-1.467-0.657c-0.424-0.438-0.631-0.947-0.631-1.524
			c0-0.58,0.208-1.084,0.631-1.514C349.281,305.75,349.768,305.533,350.32,305.533z"/>
		<path fill="#1D4B9F" d="M382.128,333.585c-2.114,0.97-4.195,1.456-6.24,1.456c-3.755,0-5.634-1.985-5.634-5.958v-12.864h-4.039
			v-2.726h4.039v-5.757h3.07v5.757h7.148v2.726h-7.148v12.036c0,1.279,0.282,2.274,0.85,2.979c0.565,0.708,1.331,1.06,2.303,1.06
			c1.72,0,3.425-0.382,5.106-1.15L382.128,333.585z"/>
		<path fill="#1D4B9F" d="M406.705,334.533h-3.152v-3.109c-2.261,2.411-4.646,3.615-7.15,3.615c-3.944,0-5.917-2.39-5.917-7.17
			v-14.377h3.151v13.47c0,1.788,0.282,3.126,0.852,4.007c0.564,0.884,1.521,1.323,2.865,1.323c1.924,0,3.992-1.198,6.199-3.594
			v-15.207h3.152V334.533z"/>
		<path fill="#1D4B9F" d="M431.765,333.585c-2.109,0.97-4.189,1.456-6.239,1.456c-3.757,0-5.632-1.985-5.632-5.958v-12.864h-4.04
			v-2.726h4.04v-5.757h3.069v5.757h7.148v2.726h-7.148v12.036c0,1.279,0.285,2.274,0.849,2.979c0.567,0.708,1.333,1.06,2.302,1.06
			c1.722,0,3.427-0.382,5.108-1.15L431.765,333.585z"/>
		<path fill="#1D4B9F" d="M457.01,324.113h-14.438c0,2.384,0.688,4.35,2.066,5.898c1.384,1.549,3.078,2.321,5.079,2.321
			c1.915,0,3.885-0.343,5.919-1.03l0.544,2.523c-1.86,0.835-4.028,1.252-6.503,1.252c-3.123,0-5.642-1-7.555-3.008
			c-1.912-2.005-2.868-4.71-2.868-8.118c0-3.339,0.855-6.001,2.572-7.986c1.72-1.986,3.938-2.978,6.657-2.978
			c2.423,0,4.448,0.922,6.082,2.767c1.628,1.844,2.438,4.302,2.438,7.371v0.99h0.005V324.113z M453.577,321.55
			c0-1.643-0.512-3.027-1.538-4.15c-1.02-1.125-2.167-1.685-3.43-1.685c-1.629,0-2.98,0.537-4.052,1.614
			c-1.067,1.079-1.665,2.485-1.784,4.221H453.577L453.577,321.55z"/>
	</g>
	<rect x="170" y="297.595" fill="none" stroke="#979CCD" stroke-width="0.8617" width="300" height="44.805"/>
</g>
</svg>
