<?xml version="1.0" encoding="utf-8"?>
<!-- Generator: Adobe Illustrator 16.0.4, SVG Export Plug-In . SVG Version: 6.00 Build 0)  -->
<!DOCTYPE svg PUBLIC "-//W3C//DTD SVG 1.1//EN" "http://www.w3.org/Graphics/SVG/1.1/DTD/svg11.dtd">
<svg version="1.1" id="Artboard" xmlns="http://www.w3.org/2000/svg" xmlns:xlink="http://www.w3.org/1999/xlink" x="0px" y="0px"
	 width="640px" height="640px" viewBox="0 0 640 640" enable-background="new 0 0 640 640" xml:space="preserve">
<g id="cafigla">
	<path d="M159.191,310.5c-21.562,0-39.633,15.578-44.108,36.334h-9.698v0.008c-0.133-0.006-0.267-0.008-0.4-0.008
		c-5.515,0-9.984,4.604-9.984,10.281c0,5.679,4.47,10.281,9.984,10.281c0.133,0,0.267-0.004,0.4-0.008v0.008h9.822
		c4.67,20.484,22.612,35.793,43.985,35.793c24.912,0,45.18-20.79,45.18-46.346C204.371,331.291,184.103,310.5,159.191,310.5z
		 M159.191,391.106c-18.251,0-33.1-15.371-33.1-34.263c0-18.894,14.849-34.263,33.1-34.263s33.099,15.369,33.099,34.263
		C192.29,375.735,177.442,391.106,159.191,391.106z"/>
	<path d="M317.461,346.532c-0.133,0-0.268,0.002-0.4,0.008v-0.008h-9.821c-4.67-20.485-22.612-35.792-43.985-35.792
		c-24.913,0-45.18,20.791-45.18,46.343c0,25.557,20.268,46.345,45.18,46.345c21.561,0,39.633-15.577,44.108-36.333h9.699v-0.009
		c0.132,0.005,0.267,0.009,0.4,0.009c5.513,0,9.984-4.603,9.984-10.283C327.445,351.134,322.975,346.532,317.461,346.532z
		 M263.255,391.349c-18.251,0-33.1-15.371-33.1-34.266c0-18.891,14.849-34.262,33.1-34.262c18.253,0,33.101,15.371,33.101,34.262
		C296.356,375.978,281.507,391.349,263.255,391.349z"/>
	<path d="M157.919,302.591c0.667-0.015,16.388-0.511,23.067-12.13c0.855-1.487,1.439-2.878,1.836-4.197l1.825-1.752
		c10.483-10.069,9.783-16.408,7.778-23.649c-0.783-2.824-1.458-5.263-0.7-8.185c2.169-8.346,7.153-9.796,7.512-9.89l2.778-0.586
		l-1.188-5.628l-2.815,0.594c-0.302,0.063-6.374,1.444-10.124,9.269l-1.08,0.582c-0.33,0.178-8.09,4.478-11.101,16.069
		c-1.425,5.48-0.2,9.501,0.882,13.048c1.207,3.957,2.078,6.816-0.593,11.462c-5.051,8.789-18.086,9.244-18.212,9.247l-2.875,0.067
		l0.132,5.75L157.919,302.591z M181.276,264.531c1.05-4.045,2.769-6.935,4.371-8.908c0.055,2.507,0.667,4.729,1.233,6.774
		c1.317,4.757,2.381,8.617-3.836,15.517c-0.266-1.205-0.613-2.351-0.95-3.458C181.11,271.227,180.259,268.44,181.276,264.531z"/>
	<path d="M381.376,374.715c-2.325,1.059-4.78,1.585-7.357,1.585c-2.874,0-5.466-0.525-7.769-1.58
		c-2.306-1.054-4.26-2.475-5.867-4.267c-1.606-1.79-2.844-3.864-3.711-6.227c-0.866-2.36-1.299-4.849-1.299-7.46
		s0.42-5.098,1.269-7.457c0.845-2.361,2.069-4.437,3.679-6.228c1.605-1.792,3.561-3.212,5.865-4.267
		c2.305-1.053,4.915-1.58,7.833-1.58c1.438,0,2.78,0.168,4.027,0.507c1.246,0.339,2.399,0.783,3.456,1.331
		c1.057,0.552,1.977,1.185,2.761,1.904c0.78,0.72,1.403,1.437,1.872,2.156l3.803-2.792c-0.76-1.099-1.711-2.084-2.854-2.957
		c-1.141-0.872-2.41-1.62-3.804-2.244c-1.396-0.621-2.886-1.106-4.472-1.448c-1.586-0.344-3.205-0.517-4.853-0.517
		c-3.341,0-6.437,0.594-9.291,1.776c-2.854,1.184-5.327,2.821-7.42,4.914c-2.092,2.092-3.732,4.579-4.916,7.453
		c-1.185,2.875-1.776,6.024-1.776,9.449c0,3.426,0.581,6.574,1.745,9.451c1.161,2.874,2.779,5.358,4.852,7.452
		c2.07,2.094,4.545,3.731,7.42,4.915c2.875,1.185,6.003,1.776,9.387,1.776c2.029,0,3.9-0.228,5.613-0.677
		c1.711-0.453,3.275-1.063,4.693-1.837c1.415-0.774,2.663-1.669,3.74-2.687c1.08-1.016,1.997-2.096,2.76-3.237l-3.552-2.283
		C385.646,371.967,383.701,373.658,381.376,374.715z"/>
	<path d="M419.999,372.559v-13.001c0-1.817-0.296-3.404-0.888-4.756c-0.594-1.353-1.418-2.474-2.474-3.361
		c-1.058-0.889-2.285-1.556-3.681-1.998c-1.394-0.444-2.896-0.666-4.502-0.666c-2.537,0-4.811,0.402-6.816,1.204
		c-2.01,0.803-3.627,1.818-4.854,3.044l2.411,2.855c1.055-1.057,2.346-1.902,3.867-2.539c1.522-0.633,3.172-0.95,4.948-0.95
		c2.579,0,4.544,0.63,5.896,1.889c1.354,1.261,2.031,3.169,2.031,5.729v0.943c-2.707,0-5.317,0.097-7.834,0.287
		c-2.515,0.191-4.746,0.615-6.69,1.273c-1.944,0.657-3.498,1.654-4.661,2.99c-1.164,1.336-1.744,3.15-1.744,5.44
		c0,1.656,0.327,3.055,0.983,4.198c0.655,1.145,1.479,2.078,2.474,2.802c0.993,0.722,2.093,1.24,3.297,1.558
		c1.205,0.316,2.38,0.477,3.521,0.477c2.409,0,4.47-0.434,6.183-1.3c1.711-0.866,3.243-2.293,4.597-4.281h0.129
		c0,0.803,0.04,1.629,0.126,2.473c0.085,0.847,0.19,1.629,0.317,2.347h3.867c-0.168-0.846-0.297-1.882-0.38-3.107
		C420.04,374.883,419.999,373.701,419.999,372.559z M415.94,366.598c0,1.311-0.212,2.558-0.636,3.74
		c-0.422,1.186-1.036,2.231-1.84,3.141c-0.803,0.909-1.797,1.629-2.979,2.156c-1.185,0.529-2.538,0.792-4.061,0.792
		c-0.846,0-1.68-0.094-2.505-0.284c-0.825-0.191-1.575-0.508-2.251-0.952c-0.678-0.444-1.216-1.023-1.618-1.743
		c-0.402-0.719-0.604-1.607-0.604-2.665c0-1.396,0.465-2.514,1.396-3.359c0.93-0.846,2.124-1.491,3.583-1.936
		c1.458-0.443,3.086-0.738,4.884-0.888c1.797-0.146,3.583-0.222,5.359-0.222h1.269v2.22H415.94z"/>
	<path d="M442.45,330.511c-3.426,0-5.963,0.972-7.61,2.917c-1.648,1.945-2.474,4.608-2.474,7.991v8.118h-6.215v3.613h6.215v26.067
		h4.312V353.15h6.978v-3.613h-6.978v-7.61c0-1.058,0.075-2.053,0.221-2.982c0.15-0.93,0.424-1.743,0.826-2.44
		c0.401-0.697,0.972-1.236,1.712-1.617c0.739-0.383,1.681-0.571,2.822-0.571c0.593,0,1.12,0.043,1.587,0.127
		c0.464,0.085,0.93,0.19,1.396,0.316l0.76-3.805c-0.55-0.169-1.142-0.284-1.776-0.349
		C443.592,330.542,442.998,330.511,442.45,330.511z"/>
	<path d="M452.027,335.076c-0.763,0-1.46,0.285-2.094,0.857c-0.635,0.57-0.952,1.3-0.952,2.187c0,0.89,0.317,1.618,0.952,2.189
		c0.634,0.568,1.331,0.855,2.094,0.855c0.76,0,1.458-0.285,2.092-0.855c0.636-0.571,0.951-1.3,0.951-2.189
		c0-0.887-0.315-1.616-0.951-2.187C453.485,335.361,452.787,335.076,452.027,335.076z"/>
	<rect x="449.87" y="349.537" width="4.312" height="29.681"/>
	<path d="M490.206,354.674h-0.128c-1.185-1.902-2.812-3.36-4.885-4.376c-2.071-1.016-4.186-1.522-6.341-1.522
		c-2.327,0-4.43,0.402-6.312,1.205s-3.488,1.903-4.818,3.298c-1.333,1.396-2.369,3.021-3.107,4.884
		c-0.741,1.86-1.11,3.848-1.11,5.961c0,2.157,0.369,4.165,1.11,6.026c0.738,1.859,1.775,3.455,3.107,4.786
		c1.331,1.333,2.938,2.379,4.818,3.141c1.882,0.76,3.984,1.142,6.312,1.142c2.155,0,4.28-0.508,6.374-1.523
		c2.093-1.014,3.71-2.451,4.852-4.311h0.128v5.581c0,1.606-0.211,3.116-0.636,4.534c-0.422,1.416-1.088,2.651-1.997,3.71
		c-0.911,1.056-2.104,1.892-3.583,2.505c-1.48,0.613-3.276,0.921-5.391,0.921c-2.283,0-4.45-0.529-6.5-1.588
		c-2.053-1.057-3.669-2.346-4.852-3.866l-3.108,3.297c1.776,1.859,3.91,3.318,6.405,4.377c2.494,1.056,5.115,1.587,7.863,1.587
		c3.299,0,5.983-0.508,8.057-1.521c2.068-1.017,3.708-2.284,4.913-3.808c1.206-1.521,2.03-3.193,2.473-5.008
		c0.444-1.819,0.667-3.531,0.667-5.139V349.54h-4.312V354.674z M489.857,368.724c-0.571,1.416-1.365,2.631-2.38,3.645
		c-1.012,1.016-2.218,1.799-3.613,2.347c-1.396,0.55-2.917,0.824-4.567,0.824c-1.775,0-3.36-0.307-4.754-0.92
		c-1.398-0.612-2.57-1.446-3.522-2.505c-0.95-1.057-1.68-2.282-2.188-3.678c-0.507-1.396-0.761-2.876-0.761-4.439
		s0.254-3.046,0.761-4.44c0.508-1.396,1.237-2.619,2.188-3.679c0.952-1.056,2.124-1.902,3.522-2.538
		c1.394-0.633,2.979-0.95,4.754-0.95c1.65,0,3.172,0.317,4.567,0.95c1.396,0.636,2.602,1.482,3.613,2.538
		c1.015,1.057,1.809,2.283,2.38,3.679c0.569,1.396,0.855,2.875,0.855,4.44C490.712,365.73,490.427,367.306,489.857,368.724z"/>
	<rect x="505.87" y="331.271" width="4.312" height="47.946"/>
	<path d="M544.62,376.11c-0.086-1.228-0.128-2.409-0.128-3.552v-13.001c0-1.817-0.295-3.402-0.888-4.756
		c-0.592-1.353-1.417-2.474-2.474-3.361c-1.057-0.889-2.283-1.556-3.679-1.998c-1.396-0.444-2.896-0.666-4.502-0.666
		c-2.538,0-4.811,0.402-6.818,1.204c-2.008,0.803-3.626,1.818-4.854,3.044l2.411,2.855c1.058-1.057,2.347-1.902,3.87-2.539
		c1.521-0.633,3.169-0.95,4.944-0.95c2.579,0,4.547,0.631,5.898,1.889c1.353,1.261,2.03,3.169,2.03,5.729v0.943
		c-2.707,0-5.317,0.097-7.833,0.287c-2.515,0.191-4.745,0.615-6.689,1.273c-1.945,0.657-3.499,1.654-4.662,2.99
		s-1.744,3.15-1.744,5.44c0,1.656,0.327,3.055,0.984,4.198c0.652,1.146,1.479,2.078,2.471,2.802c0.993,0.723,2.094,1.24,3.3,1.558
		c1.205,0.316,2.377,0.477,3.519,0.477c2.41,0,4.472-0.434,6.184-1.3c1.713-0.866,3.245-2.293,4.599-4.281h0.127
		c0,0.803,0.042,1.629,0.128,2.473c0.083,0.847,0.189,1.629,0.316,2.347H545C544.831,378.372,544.703,377.338,544.62,376.11z
		 M540.436,366.598c0,1.311-0.213,2.558-0.636,3.74c-0.423,1.186-1.036,2.231-1.839,3.141c-0.804,0.909-1.799,1.629-2.981,2.156
		c-1.185,0.529-2.537,0.792-4.059,0.792c-0.847,0-1.68-0.094-2.506-0.284c-0.825-0.191-1.575-0.508-2.251-0.952
		c-0.679-0.444-1.218-1.023-1.618-1.743c-0.403-0.719-0.604-1.607-0.604-2.665c0-1.396,0.466-2.514,1.397-3.359
		c0.93-0.846,2.125-1.491,3.581-1.936c1.461-0.443,3.088-0.738,4.885-0.888c1.797-0.146,3.584-0.222,5.36-0.222h1.268v2.22H540.436z
		"/>
</g>
</svg>
