<?xml version="1.0" encoding="utf-8"?>
<!-- Generator: Adobe Illustrator 16.0.4, SVG Export Plug-In . SVG Version: 6.00 Build 0)  -->
<!DOCTYPE svg PUBLIC "-//W3C//DTD SVG 1.1//EN" "http://www.w3.org/Graphics/SVG/1.1/DTD/svg11.dtd">
<svg version="1.1" id="Artboard" xmlns="http://www.w3.org/2000/svg" xmlns:xlink="http://www.w3.org/1999/xlink" x="0px" y="0px"
	 width="640px" height="640px" viewBox="0 0 640 640" enable-background="new 0 0 640 640" xml:space="preserve">
<g id="cafigla">
	<path d="M159.191,273.702c-21.562,0-39.633,15.578-44.108,36.33h-9.698v0.008c-0.133-0.006-0.267-0.008-0.4-0.008
		c-5.515,0-9.984,4.603-9.984,10.279c0,5.679,4.47,10.281,9.984,10.281c0.133,0,0.267-0.004,0.4-0.008v0.008h9.822
		c4.67,20.483,22.612,35.793,43.985,35.793c24.912,0,45.18-20.791,45.18-46.347C204.371,294.492,184.103,273.702,159.191,273.702z
		 M159.191,354.302c-18.251,0-33.1-15.371-33.1-34.263c0-18.891,14.849-34.257,33.1-34.257s33.099,15.366,33.099,34.257
		C192.29,338.931,177.442,354.302,159.191,354.302z"/>
	<path d="M317.461,309.73c-0.133,0-0.268,0.002-0.4,0.008v-0.008h-9.82c-4.67-20.481-22.612-35.788-43.985-35.788
		c-24.913,0-45.18,20.79-45.18,46.337c0,25.558,20.268,46.345,45.18,46.345c21.561,0,39.633-15.576,44.108-36.332h9.699v-0.01
		c0.132,0.005,0.267,0.01,0.399,0.01c5.513,0,9.984-4.604,9.984-10.283C327.445,314.331,322.975,309.73,317.461,309.73z
		 M263.255,354.546c-18.251,0-33.1-15.371-33.1-34.267c0-18.889,14.849-34.257,33.1-34.257c18.253,0,33.101,15.368,33.101,34.257
		C296.356,339.175,281.507,354.546,263.255,354.546z"/>
	<path d="M157.919,265.793c0.667-0.015,16.388-0.511,23.067-12.13c0.855-1.486,1.439-2.878,1.836-4.196l1.825-1.752
		c10.483-10.069,9.783-16.408,7.778-23.649c-0.783-2.824-1.458-5.263-0.7-8.185c2.169-8.347,7.153-9.797,7.512-9.891l2.778-0.586
		l-1.188-5.628l-2.815,0.594c-0.302,0.063-6.374,1.444-10.124,9.27l-1.08,0.582c-0.33,0.178-8.09,4.478-11.101,16.068
		c-1.425,5.48-0.2,9.501,0.882,13.049c1.207,3.956,2.078,6.815-0.593,11.462c-5.051,8.789-18.086,9.243-18.212,9.247l-2.875,0.066
		l0.132,5.75L157.919,265.793z M181.276,227.733c1.05-4.045,2.769-6.935,4.371-8.908c0.055,2.507,0.667,4.729,1.233,6.774
		c1.317,4.757,2.381,8.617-3.836,15.517c-0.266-1.205-0.613-2.351-0.95-3.458C181.11,234.43,180.259,231.643,181.276,227.733z"/>
	<path d="M381.376,337.911c-2.325,1.059-4.78,1.585-7.357,1.585c-2.874,0-5.466-0.524-7.769-1.579
		c-2.306-1.055-4.26-2.476-5.867-4.268c-1.605-1.79-2.844-3.864-3.711-6.227c-0.866-2.36-1.299-4.85-1.299-7.461
		c0-2.609,0.42-5.097,1.269-7.456c0.846-2.359,2.069-4.436,3.68-6.226c1.604-1.792,3.561-3.212,5.864-4.267
		c2.306-1.053,4.915-1.579,7.833-1.579c1.438,0,2.78,0.168,4.027,0.506c1.246,0.339,2.399,0.782,3.456,1.331
		c1.057,0.552,1.977,1.185,2.761,1.904c0.78,0.719,1.403,1.437,1.872,2.155l3.803-2.792c-0.76-1.099-1.711-2.084-2.854-2.956
		c-1.141-0.871-2.41-1.619-3.804-2.244c-1.396-0.621-2.887-1.105-4.473-1.447c-1.586-0.344-3.205-0.518-4.853-0.518
		c-3.341,0-6.438,0.594-9.291,1.776c-2.854,1.184-5.327,2.82-7.42,4.913c-2.092,2.092-3.732,4.578-4.916,7.451
		c-1.186,2.874-1.776,6.023-1.776,9.447c0,3.426,0.581,6.574,1.745,9.451c1.161,2.874,2.779,5.358,4.853,7.452
		c2.069,2.095,4.545,3.731,7.42,4.915c2.875,1.186,6.003,1.775,9.387,1.775c2.029,0,3.9-0.228,5.613-0.676
		c1.711-0.453,3.274-1.063,4.692-1.838c1.415-0.773,2.663-1.668,3.74-2.687c1.08-1.017,1.997-2.097,2.76-3.237l-3.552-2.283
		C385.646,335.163,383.701,336.854,381.376,337.911z"/>
	<path d="M419.999,335.755v-13c0-1.817-0.296-3.404-0.888-4.757c-0.595-1.352-1.418-2.473-2.475-3.359
		c-1.058-0.89-2.285-1.557-3.681-1.998c-1.395-0.444-2.896-0.665-4.502-0.665c-2.537,0-4.812,0.401-6.816,1.202
		c-2.01,0.804-3.627,1.818-4.854,3.045l2.411,2.854c1.055-1.057,2.346-1.9,3.866-2.538c1.522-0.633,3.173-0.95,4.948-0.95
		c2.579,0,4.544,0.631,5.896,1.89c1.354,1.26,2.03,3.168,2.03,5.728v0.943c-2.706,0-5.316,0.097-7.834,0.287
		c-2.515,0.19-4.745,0.614-6.689,1.272c-1.944,0.657-3.498,1.654-4.661,2.99c-1.164,1.336-1.744,3.15-1.744,5.439
		c0,1.656,0.327,3.056,0.983,4.199c0.654,1.145,1.479,2.077,2.474,2.801c0.993,0.723,2.093,1.24,3.297,1.559
		c1.205,0.316,2.38,0.477,3.521,0.477c2.409,0,4.47-0.434,6.183-1.299c1.711-0.867,3.243-2.294,4.597-4.281h0.13
		c0,0.803,0.04,1.629,0.126,2.473c0.085,0.847,0.189,1.629,0.316,2.347h3.867c-0.168-0.846-0.297-1.882-0.38-3.106
		C420.04,338.079,419.999,336.897,419.999,335.755z M415.94,329.794c0,1.312-0.213,2.559-0.637,3.74
		c-0.422,1.186-1.036,2.23-1.84,3.141c-0.803,0.91-1.797,1.629-2.979,2.156c-1.186,0.529-2.538,0.792-4.062,0.792
		c-0.846,0-1.68-0.094-2.505-0.284s-1.575-0.508-2.251-0.951c-0.678-0.444-1.216-1.023-1.618-1.744
		c-0.401-0.719-0.604-1.606-0.604-2.664c0-1.396,0.465-2.514,1.396-3.359c0.93-0.846,2.124-1.49,3.583-1.936
		c1.458-0.443,3.086-0.738,4.884-0.889c1.798-0.146,3.583-0.222,5.359-0.222h1.27v2.22H415.94L415.94,329.794z"/>
	<path d="M442.45,293.712c-3.426,0-5.963,0.972-7.61,2.916c-1.647,1.945-2.474,4.607-2.474,7.99v8.116h-6.215v3.613h6.215v26.065
		h4.312v-26.065h6.979v-3.613h-6.979v-7.608c0-1.058,0.075-2.053,0.222-2.981c0.149-0.93,0.424-1.742,0.825-2.439
		c0.401-0.696,0.973-1.235,1.713-1.616c0.738-0.384,1.681-0.572,2.821-0.572c0.593,0,1.12,0.043,1.587,0.127
		c0.464,0.086,0.931,0.19,1.396,0.316l0.76-3.804c-0.55-0.169-1.142-0.284-1.776-0.35
		C443.592,293.743,442.998,293.712,442.45,293.712z"/>
	<path d="M452.027,298.276c-0.764,0-1.46,0.285-2.095,0.857c-0.635,0.569-0.951,1.299-0.951,2.186c0,0.89,0.316,1.618,0.951,2.188
		c0.635,0.568,1.331,0.855,2.095,0.855c0.76,0,1.458-0.285,2.092-0.855c0.636-0.57,0.951-1.3,0.951-2.188
		c0-0.887-0.315-1.615-0.951-2.186C453.485,298.562,452.787,298.276,452.027,298.276z"/>
	<rect x="449.87" y="312.734" width="4.312" height="29.68"/>
	<path d="M490.206,317.87h-0.128c-1.186-1.901-2.812-3.358-4.885-4.375c-2.071-1.016-4.187-1.521-6.342-1.521
		c-2.326,0-4.43,0.401-6.312,1.204c-1.882,0.804-3.488,1.903-4.818,3.299c-1.333,1.395-2.369,3.02-3.106,4.883
		c-0.741,1.86-1.11,3.848-1.11,5.961c0,2.157,0.369,4.165,1.11,6.026c0.737,1.858,1.774,3.455,3.106,4.785
		c1.331,1.334,2.938,2.379,4.818,3.142c1.882,0.76,3.984,1.142,6.312,1.142c2.155,0,4.28-0.508,6.374-1.523
		c2.094-1.014,3.71-2.45,4.853-4.311h0.128v5.581c0,1.606-0.211,3.116-0.636,4.534c-0.422,1.416-1.088,2.65-1.997,3.71
		c-0.911,1.056-2.104,1.892-3.583,2.505c-1.48,0.613-3.276,0.921-5.392,0.921c-2.282,0-4.449-0.528-6.5-1.588
		c-2.053-1.058-3.669-2.346-4.852-3.866l-3.108,3.297c1.776,1.859,3.91,3.318,6.405,4.377c2.494,1.057,5.115,1.588,7.863,1.588
		c3.299,0,5.982-0.508,8.057-1.521c2.068-1.018,3.708-2.283,4.913-3.809c1.206-1.521,2.03-3.192,2.473-5.008
		c0.444-1.818,0.667-3.53,0.667-5.139v-29.426h-4.312L490.206,317.87L490.206,317.87z M489.857,331.921
		c-0.571,1.416-1.365,2.631-2.381,3.645c-1.012,1.016-2.218,1.799-3.612,2.347c-1.396,0.55-2.917,0.824-4.567,0.824
		c-1.774,0-3.359-0.308-4.754-0.92c-1.398-0.612-2.57-1.446-3.521-2.505c-0.95-1.057-1.681-2.282-2.188-3.678
		c-0.507-1.396-0.761-2.877-0.761-4.439s0.254-3.046,0.761-4.439c0.508-1.396,1.237-2.619,2.188-3.68
		c0.951-1.057,2.123-1.901,3.521-2.537c1.395-0.633,2.979-0.95,4.754-0.95c1.65,0,3.172,0.317,4.567,0.95
		c1.396,0.636,2.602,1.48,3.612,2.537c1.016,1.057,1.81,2.283,2.381,3.68c0.568,1.396,0.854,2.875,0.854,4.439
		C490.712,328.927,490.427,330.503,489.857,331.921z"/>
	<rect x="505.87" y="294.473" width="4.312" height="47.94"/>
	<path d="M544.62,339.306c-0.086-1.228-0.128-2.408-0.128-3.551v-13.002c0-1.816-0.295-3.402-0.889-4.756
		c-0.592-1.353-1.416-2.473-2.474-3.36c-1.057-0.889-2.283-1.556-3.679-1.998c-1.396-0.443-2.896-0.665-4.502-0.665
		c-2.538,0-4.812,0.401-6.818,1.204c-2.008,0.803-3.626,1.817-4.854,3.043l2.41,2.854c1.059-1.057,2.348-1.901,3.87-2.538
		c1.521-0.633,3.169-0.949,4.944-0.949c2.579,0,4.547,0.631,5.898,1.889c1.353,1.26,2.029,3.168,2.029,5.728v0.943
		c-2.707,0-5.316,0.097-7.833,0.287c-2.515,0.191-4.745,0.615-6.688,1.273c-1.945,0.656-3.499,1.653-4.662,2.989
		s-1.744,3.149-1.744,5.44c0,1.656,0.327,3.055,0.984,4.197c0.651,1.146,1.479,2.078,2.471,2.803c0.993,0.723,2.094,1.24,3.3,1.558
		c1.205,0.315,2.377,0.478,3.52,0.478c2.409,0,4.472-0.435,6.184-1.301c1.713-0.865,3.245-2.293,4.599-4.281h0.127
		c0,0.804,0.042,1.629,0.129,2.474c0.082,0.847,0.188,1.629,0.315,2.347H545C544.831,341.568,544.703,340.534,544.62,339.306z
		 M540.436,329.794c0,1.312-0.213,2.559-0.636,3.74c-0.423,1.186-1.036,2.23-1.839,3.141c-0.804,0.91-1.799,1.629-2.98,2.156
		c-1.186,0.529-2.537,0.792-4.06,0.792c-0.847,0-1.68-0.094-2.506-0.284c-0.825-0.19-1.575-0.508-2.251-0.951
		c-0.679-0.444-1.218-1.023-1.618-1.744c-0.403-0.719-0.604-1.606-0.604-2.664c0-1.396,0.466-2.514,1.396-3.359
		c0.93-0.846,2.125-1.49,3.581-1.936c1.461-0.443,3.088-0.738,4.885-0.889c1.797-0.146,3.584-0.222,5.36-0.222h1.268v2.22H540.436
		L540.436,329.794z"/>
</g>
</svg>
