<?xml version="1.0" encoding="utf-8"?>
<!-- Generator: Adobe Illustrator 16.0.4, SVG Export Plug-In . SVG Version: 6.00 Build 0)  -->
<!DOCTYPE svg PUBLIC "-//W3C//DTD SVG 1.1//EN" "http://www.w3.org/Graphics/SVG/1.1/DTD/svg11.dtd">
<svg version="1.1" id="Artboard" xmlns="http://www.w3.org/2000/svg" xmlns:xlink="http://www.w3.org/1999/xlink" x="0px" y="0px"
	 width="640px" height="640px" viewBox="0 0 640 640" enable-background="new 0 0 640 640" xml:space="preserve">
<g id="xooms">
	<g id="copy">
		<g>
			<path d="M163.663,358.154h3.464l5.637,20.964h-2.7l-1.497-5.755h-6.694l-1.557,5.755h-2.701L163.663,358.154z M162.4,371.249
				h5.637l-2.672-10.128h-0.059L162.4,371.249z"/>
			<path d="M174.941,358.154h2.465v20.964h-2.465V358.154z"/>
			<path d="M180.691,358.154h2.466v20.964h-2.466V358.154z"/>
			<path d="M194.262,358.154h2.584v18.672h8.515v2.292h-11.099V358.154z"/>
			<path d="M207.771,358.154h2.465v2.819h-2.465V358.154z M207.771,363.38h2.465v15.738h-2.465V363.38z"/>
			<path d="M214.542,365.318h-2.288v-1.938h2.288v-1.85c0-2.378,1.028-3.61,3.408-3.61h1.79v2.113h-1.146
				c-1.057,0-1.584,0.412-1.584,1.497v1.85h2.7v1.938h-2.7v13.8h-2.469V365.318z"/>
			<path d="M223.489,371.543c0,2.406,0,6.047,3.023,6.047c2.348,0,2.672-2.465,2.672-3.641h2.465c0,1.674-0.998,5.579-5.283,5.579
				c-3.847,0-5.461-2.673-5.461-8.075c0-3.934,0.764-8.484,5.607-8.484c4.815,0,5.255,4.199,5.255,7.574v1H223.489z
				 M229.185,369.605v-0.852c0-1.762-0.558-3.848-2.73-3.848c-2.583,0-2.877,3.17-2.877,4.111v0.588H229.185z"/>
			<path d="M242.257,358.154h2.467v2.819h-2.467V358.154z M242.257,363.38h2.467v15.738h-2.467V363.38z"/>
			<path d="M254.836,367.988c0-1.996-0.528-3.082-2.319-3.082c-0.794,0-2.555,0.208-2.555,2.408c0,1.85,1.937,2.201,3.875,2.848
				c1.908,0.648,3.846,1.322,3.846,4.432c0,3.32-2.144,4.935-5.079,4.935c-5.344,0-5.401-3.964-5.401-5.579h2.467
				c0,1.909,0.527,3.641,2.935,3.641c0.794,0,2.614-0.382,2.614-2.611c0-2.115-1.938-2.557-3.847-3.2
				c-1.908-0.647-3.875-1.204-3.875-4.464c0-2.936,2.288-4.346,5.021-4.346c4.58,0,4.757,3.173,4.784,5.02H254.836z"/>
			<path d="M267.292,368.136c0-3.581,1.525-5.167,5.284-5.167c4.785,0,4.785,2.879,4.785,4.521v8.779c0,0.645,0,1.262,0.763,1.262
				c0.324,0,0.471-0.059,0.589-0.146v1.76c-0.177,0.032-0.823,0.15-1.44,0.15c-0.938,0-2.113,0-2.231-2.027h-0.057
				c-0.795,1.408-2.32,2.261-3.787,2.261c-2.937,0-4.288-1.763-4.288-4.579c0-2.201,0.94-3.729,2.966-4.348l3.316-0.996
				c1.793-0.559,1.793-1.057,1.793-2.379c0-1.469-0.883-2.32-2.526-2.32c-2.701,0-2.701,2.526-2.701,3.082v0.147H267.292z
				 M274.896,370.543c-0.911,0.969-3.083,1.177-4.199,1.852c-0.793,0.498-1.204,1.115-1.204,2.494c0,1.586,0.559,2.701,2.231,2.701
				c1.614,0,3.172-1.379,3.172-2.996V370.543z"/>
			<path d="M280.849,363.38h2.35v1.853h0.06c0.645-1.439,2.288-2.264,3.816-2.264c4.139,0,4.139,3.143,4.139,4.993v11.156h-2.466
				v-10.864c0-1.201-0.088-3.172-2.32-3.172c-1.32,0-3.111,0.883-3.111,3.172v10.864h-2.467V363.38z"/>
			<path d="M302.175,358.154h10.835v2.291h-8.252v6.575h7.781v2.29h-7.781v7.516h8.603v2.292h-11.186V358.154z"/>
			<path d="M315.51,363.38h2.703l2.848,5.61l2.878-5.61h2.7l-4.11,7.546l4.256,8.192h-2.701l-3.141-6.226l-3.023,6.226h-2.701
				l4.315-8.192L315.51,363.38z"/>
			<path d="M328.805,363.38h2.35v1.938h0.059c0.322-1.174,1.703-2.35,3.404-2.35c3.729,0,5.141,3.316,5.141,7.986
				c0,3.581-1.059,8.573-5.141,8.573c-1.407,0-2.729-0.853-3.287-2.203h-0.059v6.959h-2.467V363.38z M334.295,377.416
				c2.291,0,2.876-2.409,2.876-6.461c0-3.465-0.585-5.873-2.876-5.873c-2.731,0-3.17,2.586-3.17,6.167
				C331.125,374.301,331.652,377.416,334.295,377.416z"/>
			<path d="M344.535,371.543c0,2.406,0,6.047,3.024,6.047c2.347,0,2.67-2.465,2.67-3.641h2.466c0,1.674-0.998,5.579-5.283,5.579
				c-3.847,0-5.46-2.673-5.46-8.075c0-3.934,0.762-8.484,5.607-8.484c4.814,0,5.254,4.199,5.254,7.574v1H344.535z M350.229,369.605
				v-0.852c0-1.762-0.557-3.848-2.729-3.848c-2.582,0-2.877,3.17-2.877,4.111v0.588H350.229z"/>
			<path d="M355.503,363.38h2.468v2.351h0.058c0.704-1.5,1.645-2.762,3.405-2.762c0.498,0,0.853,0.058,1.087,0.176v2.408
				c-0.234-0.028-0.53-0.117-1.322-0.117c-1.231,0-3.228,1.115-3.228,3.729v9.954h-2.468V363.38z"/>
			<path d="M364.555,358.154h2.465v2.819h-2.465V358.154z M364.555,363.38h2.465v15.738h-2.465V363.38z"/>
			<path d="M370.355,363.38h2.35v1.853h0.059c0.646-1.439,2.29-2.264,3.816-2.264c1.819,0,2.905,0.705,3.406,2.496
				c0.704-1.379,2.114-2.496,3.729-2.496c4.138,0,4.138,3.143,4.138,4.993v11.156h-2.466v-10.864c0-1.201-0.088-3.172-2.114-3.172
				c-1.144,0-2.937,0.707-2.937,3.172v10.864h-2.465v-10.864c0-1.201-0.089-3.172-2.114-3.172c-1.144,0-2.936,0.707-2.936,3.172
				v10.864h-2.467V363.38z"/>
			<path d="M393.272,371.543c0,2.406,0,6.047,3.024,6.047c2.349,0,2.672-2.465,2.672-3.641h2.465c0,1.674-0.998,5.579-5.284,5.579
				c-3.846,0-5.461-2.673-5.461-8.075c0-3.934,0.764-8.484,5.608-8.484c4.814,0,5.255,4.199,5.255,7.574v1H393.272z
				 M398.969,369.605v-0.852c0-1.762-0.557-3.848-2.73-3.848c-2.584,0-2.878,3.17-2.878,4.111v0.588H398.969z"/>
			<path d="M404.241,363.38h2.349v1.853h0.06c0.644-1.439,2.289-2.264,3.816-2.264c4.139,0,4.139,3.143,4.139,4.993v11.156h-2.466
				v-10.864c0-1.201-0.088-3.172-2.32-3.172c-1.319,0-3.11,0.883-3.11,3.172v10.864h-2.467V363.38z"/>
			<path d="M418.77,358.8h2.467v4.58h2.729v1.938h-2.729v10.101c0,1.261,0.322,1.761,1.614,1.761c0.529,0,0.821-0.059,1.085-0.09
				v2.028c-0.322,0.059-0.968,0.177-1.995,0.177c-2.554,0-3.171-1.061-3.171-3.115v-10.861h-2.291v-1.938h2.291V358.8z"/>
			<path d="M426.494,376.006h2.701v3.112h-2.701V376.006z"/>
		</g>
	</g>
	<g id="icon_1_">
		<polygon points="460.258,355.125 446.252,359.024 482.386,379.797 467.979,383.297 		"/>
		<polygon points="468.377,355.125 482.386,359.024 446.252,379.797 460.653,383.297 		"/>
	</g>
	<g id="logo_1_">
		<g>
			<path d="M159.649,257.341h18.456l10.678,26.811l10.559-26.811h18.224l-19.267,40.971l20.66,41.899h-18.802l-11.956-28.087
				l-11.839,28.087h-18.337l20.658-41.899L159.649,257.341z"/>
			<path d="M219.24,298.775c0-6.267,0.29-12.051,0.868-17.352c0.582-5.298,1.855-9.844,3.832-13.636
				c1.97-3.792,4.816-6.75,8.53-8.879c3.715-2.127,8.702-3.193,14.97-3.193c6.267,0,11.261,1.065,14.975,3.193
				c3.714,2.129,6.556,5.087,8.53,8.879c1.972,3.792,3.25,8.337,3.829,13.636c0.582,5.3,0.871,11.084,0.871,17.352
				c0,6.268-0.289,12.053-0.871,17.353c-0.579,5.301-1.857,9.847-3.829,13.637c-1.975,3.793-4.816,6.75-8.53,8.877
				c-3.714,2.131-8.708,3.193-14.975,3.193c-6.268,0-11.255-1.062-14.97-3.193c-3.714-2.127-6.561-5.084-8.53-8.877
				c-1.977-3.79-3.25-8.336-3.832-13.637C219.53,310.829,219.24,305.043,219.24,298.775z M235.953,298.775
				c0,5.572,0.133,10.314,0.403,14.218c0.27,3.909,0.814,7.082,1.625,9.519c0.813,2.438,1.975,4.219,3.485,5.338
				c1.508,1.123,3.497,1.685,5.974,1.685c2.478,0,4.471-0.562,5.979-1.685c1.511-1.119,2.672-2.9,3.481-5.338
				c0.814-2.437,1.355-5.609,1.626-9.519c0.27-3.904,0.406-8.646,0.406-14.218c0-5.571-0.137-10.289-0.406-14.159
				c-0.271-3.868-0.812-7.04-1.626-9.517c-0.81-2.475-1.971-4.274-3.481-5.398c-1.508-1.12-3.501-1.681-5.979-1.681
				c-2.477,0-4.466,0.561-5.974,1.681c-1.511,1.124-2.672,2.923-3.485,5.398c-0.811,2.478-1.355,5.649-1.625,9.517
				C236.086,288.486,235.953,293.205,235.953,298.775z"/>
			<path d="M281.975,298.775c0-6.267,0.288-12.051,0.867-17.352c0.582-5.298,1.856-9.844,3.832-13.636
				c1.97-3.792,4.816-6.75,8.53-8.879c3.715-2.127,8.703-3.193,14.971-3.193s11.26,1.065,14.974,3.193
				c3.714,2.129,6.556,5.087,8.532,8.879c1.971,3.792,3.249,8.337,3.827,13.636c0.583,5.3,0.872,11.084,0.872,17.352
				c0,6.268-0.289,12.053-0.872,17.353c-0.578,5.301-1.856,9.847-3.827,13.637c-1.977,3.793-4.818,6.75-8.532,8.877
				c-3.714,2.131-8.706,3.193-14.974,3.193s-11.256-1.062-14.971-3.193c-3.714-2.127-6.561-5.084-8.53-8.877
				c-1.976-3.79-3.25-8.336-3.832-13.637C282.263,310.829,281.975,305.043,281.975,298.775z M298.687,298.775
				c0,5.572,0.134,10.314,0.403,14.218c0.27,3.909,0.814,7.082,1.625,9.519c0.814,2.438,1.975,4.219,3.485,5.338
				c1.507,1.123,3.497,1.685,5.975,1.685c2.477,0,4.472-0.562,5.978-1.685c1.511-1.119,2.672-2.9,3.482-5.338
				c0.813-2.437,1.355-5.609,1.624-9.519c0.271-3.904,0.408-8.646,0.408-14.218c0-5.571-0.138-10.289-0.408-14.159
				c-0.269-3.868-0.811-7.04-1.624-9.517c-0.811-2.475-1.972-4.274-3.482-5.398c-1.506-1.12-3.501-1.681-5.978-1.681
				c-2.478,0-4.468,0.561-5.975,1.681c-1.511,1.124-2.671,2.923-3.485,5.398c-0.811,2.478-1.355,5.649-1.625,9.517
				C298.82,288.486,298.687,293.205,298.687,298.775z"/>
			<path d="M346.599,257.341h24.838l11.837,58.497h0.232l11.956-58.497h24.72v82.87h-15.32v-66.156h-0.232l-14.741,66.156h-12.999
				l-14.737-66.156h-0.232v66.156h-15.32V257.341z"/>
			<path d="M443.954,314.331v2.437c0,1.935,0.154,3.694,0.464,5.279c0.307,1.586,0.89,2.924,1.741,4.006
				c0.849,1.084,1.973,1.935,3.363,2.553c1.394,0.619,3.213,0.929,5.459,0.929c2.553,0,4.854-0.832,6.905-2.497
				c2.048-1.662,3.075-4.234,3.075-7.716c0-1.857-0.251-3.463-0.753-4.817c-0.508-1.353-1.336-2.573-2.496-3.657
				c-1.161-1.083-2.69-2.068-4.586-2.958c-1.896-0.888-4.234-1.8-7.021-2.729c-3.714-1.236-6.927-2.61-9.635-4.119
				c-2.71-1.51-4.975-3.231-6.789-5.166c-1.819-1.934-3.154-4.178-4.003-6.732c-0.853-2.553-1.279-5.57-1.279-9.053
				c0-8.124,2.282-14.218,6.851-18.28c4.562-4.062,10.829-6.094,18.801-6.094c3.714,0,7.139,0.407,10.27,1.219
				c3.138,0.813,5.843,2.129,8.125,3.945c2.284,1.82,4.064,4.14,5.34,6.965c1.277,2.825,1.917,6.209,1.917,10.156v2.321h-16.021
				c0-3.946-0.695-6.982-2.089-9.112c-1.393-2.127-3.714-3.19-6.962-3.19c-1.858,0-3.407,0.272-4.644,0.812
				c-1.236,0.541-2.228,1.258-2.961,2.146c-0.734,0.89-1.237,1.916-1.506,3.077c-0.275,1.161-0.408,2.361-0.408,3.598
				c0,2.553,0.541,4.7,1.626,6.441c1.083,1.74,3.405,3.348,6.963,4.816l12.885,5.571c3.092,1.393,5.666,2.845,7.717,4.353
				c2.051,1.51,3.676,3.135,4.875,4.875c1.199,1.741,2.031,3.655,2.496,5.743c0.465,2.09,0.695,4.412,0.695,6.966
				c0,8.746-2.535,15.166-7.603,19.267s-12.127,6.15-21.18,6.15c-9.441,0-16.191-2.107-20.256-6.326
				c-4.061-4.217-6.092-10.154-6.092-17.813v-3.366H443.954z"/>
		</g>
	</g>
</g>
</svg>
