<?xml version="1.0" encoding="utf-8"?>
<!-- Generator: Adobe Illustrator 16.0.4, SVG Export Plug-In . SVG Version: 6.00 Build 0)  -->
<!DOCTYPE svg PUBLIC "-//W3C//DTD SVG 1.1//EN" "http://www.w3.org/Graphics/SVG/1.1/DTD/svg11.dtd">
<svg version="1.1" id="Artboard" xmlns="http://www.w3.org/2000/svg" xmlns:xlink="http://www.w3.org/1999/xlink" x="0px" y="0px"
	 width="640px" height="640px" viewBox="0 0 640 640" enable-background="new 0 0 640 640" xml:space="preserve">
<g>
	<path fill="#231815" d="M269.695,273.206c0.007-1.98-1.166-3.778-2.983-4.568l-76.522-33.227c-1.531-0.667-3.294-0.516-4.694,0.401
		c-1.396,0.916-2.236,2.474-2.236,4.146v99.457c0,2.739,2.218,4.958,4.956,4.958c2.739,0,4.958-2.219,4.958-4.958v-30.432
		l73.503-31.234C268.498,276.975,269.687,275.188,269.695,273.206"/>
	<path fill="#231815" d="M365.384,363.879h-17.732v-47.718c0-2.738-2.22-4.958-4.955-4.958c-2.739,0-4.957,2.219-4.957,4.958v52.677
		c0,2.738,2.218,4.957,4.957,4.957h22.688c2.738,0,4.96-2.219,4.96-4.957S368.122,363.879,365.384,363.879"/>
	<path fill="#231815" d="M410.311,363.879h-17.732v-47.718c0-2.738-2.222-4.958-4.96-4.958c-2.737,0-4.955,2.219-4.955,4.958v52.677
		c0,2.738,2.218,4.957,4.955,4.957h22.692c2.735,0,4.956-2.219,4.956-4.957S413.046,363.879,410.311,363.879"/>
	<path fill="#231815" d="M305.868,314.545c-0.688-1.999-2.57-3.341-4.686-3.341s-3.998,1.343-4.687,3.341l-18.168,52.675
		c-0.894,2.59,0.481,5.412,3.069,6.305c2.589,0.896,5.412-0.482,6.302-3.069l13.484-39.091l13.481,39.091
		c0.708,2.052,2.63,3.342,4.687,3.342c0.536,0,1.081-0.088,1.615-0.272c2.59-0.893,3.965-3.715,3.071-6.305L305.868,314.545z"/>
	<path fill="#231815" d="M454.296,311.888c-2.359-1.389-5.397-0.599-6.787,1.759l-13.185,22.417l-13.187-22.417
		c-1.389-2.358-4.429-3.147-6.787-1.759c-2.358,1.39-3.148,4.427-1.76,6.787l16.775,28.516v21.646c0,2.738,2.22,4.959,4.958,4.959
		c2.736,0,4.959-2.221,4.959-4.959v-21.646l16.773-28.516C457.443,316.315,456.656,313.278,454.296,311.888"/>
	<path fill="#231815" d="M269.234,381.314c-0.023-1.238-0.498-2.471-1.443-3.417c-0.001-0.001-0.003-0.001-0.003-0.002
		l-16.079-16.077c9.083-4.223,15.409-13.407,15.409-24.065c0-14.638-11.912-26.549-26.551-26.549h-20.835
		c-2.737,0-4.956,2.219-4.956,4.958v78.925h-4.418c-2.738,0-4.958,2.219-4.958,4.956c0,2.739,2.22,4.958,4.958,4.958h9.374
		c2.738,0,4.958-2.219,4.958-4.958v-78.923h15.877c9.171,0,16.634,7.462,16.634,16.634c0,9.173-7.463,16.636-16.634,16.636h-4.06
		c-2.739,0-4.958,2.219-4.958,4.956s2.219,4.958,4.958,4.958h3.666l17.102,17.102l-3.066,3.064
		c-1.937,1.937-1.937,5.076-0.002,7.011c0.969,0.969,2.238,1.453,3.508,1.453c1.268,0,2.538-0.484,3.504-1.453l6.568-6.566
		c0-0.001,0.002-0.001,0.003-0.003c0.942-0.941,1.418-2.17,1.442-3.403c0.001-0.036,0.011-0.068,0.011-0.103
		C269.243,381.375,269.234,381.344,269.234,381.314"/>
	<path fill="#87CEFA" d="M197.469,249.38c-2.363-1.026-4.296,0.241-4.296,2.818v41.327c0,2.576,1.939,3.86,4.312,2.852
		l50.381-21.408c2.373-1.007,2.378-2.673,0.016-3.697L197.469,249.38z"/>
</g>
</svg>
