<?xml version="1.0" encoding="utf-8"?>
<!-- Generator: Adobe Illustrator 16.0.4, SVG Export Plug-In . SVG Version: 6.00 Build 0)  -->
<!DOCTYPE svg PUBLIC "-//W3C//DTD SVG 1.1//EN" "http://www.w3.org/Graphics/SVG/1.1/DTD/svg11.dtd">
<svg version="1.1" id="Artboard" xmlns="http://www.w3.org/2000/svg" xmlns:xlink="http://www.w3.org/1999/xlink" x="0px" y="0px"
	 width="640px" height="640px" viewBox="0 0 640 640" enable-background="new 0 0 640 640" xml:space="preserve">
<g>
	<polygon fill="#040000" points="151.564,363.979 125.737,310.491 117.933,363.979 96.602,363.979 110.04,276.149 130.237,276.149 
		154.852,327.647 162.992,276.149 184.177,276.149 170.624,363.979 	"/>
	<polygon fill="#040000" points="294.039,363.979 274.652,276.149 294.683,276.149 306.845,331.457 335.26,276.149 357.078,276.149 
		312.062,363.979 	"/>
	<path fill="#040000" d="M391.334,363.979l-4.232-16.861h-28.326l-9.056,16.861h-22.347l47.176-87.831h14.755l22.37,87.831H391.334z
		 M382.414,328.455l-4.339-17.269l-9.273,17.269H382.414z"/>
	<path fill="#040000" d="M454.878,363.979l-15.316-29.858l-4.409,29.858h-21.385l13.04-87.831h17.617
		c11.006,0,19.568,2.325,25.454,6.902c6.041,4.7,9.105,11.533,9.105,20.309c0,6.768-1.625,12.844-4.819,18.057
		c-2.928,4.766-7.627,8.145-13.978,10.054l16.674,32.509H454.878z M443.718,314.79c3.85,0,7.172-1.085,9.842-3.217
		c2.57-2.055,3.821-4.456,3.821-7.346c0-3.304-0.973-5.573-2.974-6.942c-1.946-1.328-4.994-2.103-9.072-2.297l-2.914,19.754
		L443.718,314.79z"/>
	<path fill="#040000" d="M508.271,365c-9.945,0-19.309-3.994-29.466-12.568l-1.488-1.261l12.266-15.133l1.531,1.149
		c3.816,2.866,6.424,4.587,8.978,6.243c2.511,1.635,5.003,2.459,7.411,2.459c2.568,0,4.695-0.818,6.5-2.503
		c1.765-1.64,2.622-3.557,2.622-5.856c0-2.031-0.841-3.783-2.573-5.364c-1.969-1.79-5.03-3.561-9.099-5.256
		c-4.493-1.864-7.631-3.49-9.597-4.97c-2.004-1.506-4.001-3.875-5.931-7.038c-1.995-3.258-3.008-7.315-3.008-12.05
		c0-7.999,2.963-14.725,8.802-19.993C501,277.646,508.378,275,517.145,275c8.814,0,17.192,3.55,24.902,10.543l1.352,1.229
		l-11.595,15.171l-1.564-1.105c-3.103-2.194-5.712-3.875-7.756-4.989c-1.802-0.981-3.6-1.481-5.339-1.481
		c-2.701,0-4.824,0.74-6.481,2.256c-1.626,1.489-2.387,3.265-2.387,5.587c0,1.943,0.825,3.553,2.593,5.066
		c2.041,1.738,5.665,3.737,10.772,5.95c4.608,2.878,7.604,4.983,9.292,6.514c1.755,1.591,3.4,3.942,4.889,6.986
		c1.513,3.1,2.279,6.517,2.279,10.166c0,7.774-2.953,14.483-8.772,19.94C523.547,362.252,516.462,365,508.271,365"/>
	<path fill="#040000" d="M230.315,364.825c-24.725,0-44.838-20.114-44.838-44.836c0-24.721,20.113-44.839,44.838-44.839
		c24.722,0,44.836,20.118,44.836,44.839C275.152,344.711,255.037,364.825,230.315,364.825 M254.386,319.989
		c0-13.271-10.799-24.069-24.07-24.069c-13.274,0-24.072,10.798-24.072,24.069c0,13.271,10.798,24.066,24.072,24.066
		C243.587,344.056,254.386,333.261,254.386,319.989"/>
</g>
</svg>
