<?xml version="1.0" encoding="utf-8"?>
<!-- Generator: Adobe Illustrator 16.0.4, SVG Export Plug-In . SVG Version: 6.00 Build 0)  -->
<!DOCTYPE svg PUBLIC "-//W3C//DTD SVG 1.1//EN" "http://www.w3.org/Graphics/SVG/1.1/DTD/svg11.dtd">
<svg version="1.1" id="Artboard" xmlns="http://www.w3.org/2000/svg" xmlns:xlink="http://www.w3.org/1999/xlink" x="0px" y="0px"
	 width="640px" height="640px" viewBox="0 0 640 640" enable-background="new 0 0 640 640" xml:space="preserve">
<g id="monaca">
	<g id="logo">
		<path fill="#424242" d="M279.745,347.796c-1.438,0-5.112,0-5.112,0s0-3.994,0-5.592V307.7l-15.176,26.197
			c-1.277,1.917-1.757,2.876-2.556,3.354c-1.118,0.959-2.556,1.278-4.153,1.278c-1.597,0-3.035-0.319-4.153-1.278
			c-0.639-0.479-1.118-1.117-2.556-3.354l-15.975-26.357v34.664c0,1.598,0,5.592,0,5.592s-3.674,0-5.112,0
			c-1.438,0-2.716-0.64-3.674-1.598c-0.958-1.118-1.438-2.396-1.438-3.833v-43.131c0-2.078,0.639-3.835,1.917-5.272
			c1.277-1.437,3.035-2.236,4.952-2.236h2.875c1.438,0,2.716,0.479,3.994,1.438c1.118,0.959,1.438,1.757,2.396,3.354l16.773,28.435
			l16.134-28.435c1.278-1.757,1.438-2.396,2.396-3.354c1.118-0.959,2.556-1.438,3.994-1.438h2.875c1.917,0,3.514,0.799,4.952,2.236
			c1.278,1.438,1.917,3.195,1.917,5.272v43.131c0,1.597-0.479,2.875-1.438,3.833C282.459,347.317,281.182,347.796,279.745,347.796z"
			/>
		<path fill="#424242" d="M320,348.274c-7.029,0-12.78-2.556-16.934-7.348s-6.229-11.342-6.229-19.17
			c0-7.827,2.076-14.216,6.229-19.168s9.905-7.349,16.934-7.349c7.028,0,12.619,2.557,16.932,7.349
			c4.153,4.952,6.231,11.342,6.231,19.168c0,7.828-2.078,14.218-6.231,19.17C332.619,345.879,327.028,348.274,320,348.274z
			 M320,305.783c-5.592,0-9.425,2.715-11.662,8.466c-0.799,2.077-1.278,4.633-1.278,7.667c0,3.035,0.479,5.592,1.278,7.668
			c0.798,2.076,1.757,3.674,3.035,4.951c1.278,1.278,2.556,2.077,4.153,2.716c1.597,0.64,3.035,0.8,4.473,0.8
			c1.437,0,3.036-0.319,4.474-0.8c1.436-0.639,2.873-1.438,4.152-2.716c2.874-2.875,4.313-7.027,4.313-12.619
			c0-5.271-1.439-9.585-4.313-12.46C326.229,306.901,323.355,305.783,320,305.783z"/>
		<path fill="#424242" d="M390.768,347.796c-1.438,0-5.113,0-5.113,0s0-3.994,0-5.592v-26.038c0-3.354-0.639-5.911-1.915-7.828
			c-1.277-1.757-3.195-2.556-6.229-2.556c-4.475,0-8.788,2.715-12.78,8.307v28.114c0,1.598,0,5.592,0,5.592s-3.833,0-5.112,0
			c-1.438,0-2.715-0.64-3.673-1.598c-0.96-1.118-1.438-2.396-1.438-3.833V301.47c0-1.598,0.479-2.875,1.438-3.993
			c0.958-1.119,2.234-1.599,3.673-1.599c1.438,0,2.715,0.48,3.675,1.599c0.958,1.118,1.438,2.396,1.438,3.993v0.64
			c1.438-1.439,2.715-2.716,3.992-3.355c3.517-2.236,6.87-3.355,10.065-3.355c3.194,0,5.751,0.479,7.827,1.599
			c2.077,1.118,3.834,2.556,5.271,4.472c2.876,3.674,4.313,8.307,4.313,13.897v26.998c0,1.597-0.479,2.875-1.438,3.833
			C393.484,347.317,392.205,347.796,390.768,347.796z"/>
		<path fill="#424242" d="M421.118,348.274c-4.313,0-7.827-1.438-10.701-4.153c-3.036-2.875-4.474-6.708-4.474-11.341
			c0-5.112,1.757-9.105,5.271-11.981c3.675-3.035,8.946-4.632,15.655-4.632h9.106c0-3.675-0.96-6.23-2.397-7.668
			c-1.597-1.598-4.313-2.396-7.828-2.396c-3.194,0-6.867,0.798-11.021,2.236c0,0,0,0-0.16,0c-0.639,0.16-1.119,0.16-1.918,0.16
			c-0.958,0-1.916-0.479-2.715-1.438c-0.8-0.958-1.277-2.236-1.277-3.993c0-1.278,0.478-3.195,2.873-4.313
			c4.952-2.396,10.065-3.515,15.497-3.515c6.229,0,11.021,2.078,14.537,6.39c3.034,3.674,4.633,8.307,4.633,13.578v26.997
			c0,1.598-0.479,2.876-1.439,3.835c-0.958,1.117-2.235,1.598-3.673,1.598c-1.438,0-5.111,0-5.111,0v-5.112
			c-1.279,1.118-2.717,2.076-4.313,3.034C428.786,347.476,425.273,348.274,421.118,348.274z M427.828,325.591
			c-3.834,0-6.868,0.479-8.944,1.599c-1.918,0.958-2.718,2.396-2.718,4.633c0,2.714,0.8,6.389,7.828,6.389
			c2.396,0,4.792-0.639,6.87-2.076c2.076-1.278,3.833-2.715,5.112-4.312v-6.231H427.828z"/>
		<path fill="#424242" d="M479.747,348.274c-6.71,0-12.301-2.396-16.934-7.028c-4.793-4.952-7.19-11.502-7.19-19.489
			s2.397-14.536,7.19-19.488c4.633-4.633,10.224-7.03,16.934-7.03c3.514,0,6.548,0.479,8.944,1.598
			c2.236,0.959,4.154,2.077,5.432,3.035c1.597,1.119,2.557,2.557,2.557,4.153c0,1.438-0.48,2.716-1.279,3.675
			c-0.798,1.117-1.916,1.757-2.876,1.757c-1.277,0-2.396-0.32-3.673-1.118c-2.717-1.598-5.591-2.556-8.467-2.556
			c-4.633,0-8.146,1.438-10.703,4.312c-2.555,2.876-3.833,6.869-3.833,11.661c0,4.793,1.278,8.787,3.833,11.663
			c2.557,2.874,6.07,4.312,10.703,4.312c2.876,0,5.75-0.799,8.467-2.557c1.277-0.799,2.396-1.117,3.354-1.117
			c0.8,0,2.078,0.318,3.195,1.756c0.799,1.119,1.279,2.237,1.279,3.675c0,1.597-0.8,3.035-2.557,4.153
			C489.97,346.837,485.177,348.274,479.747,348.274z"/>
		<path fill="#424242" d="M521.279,348.274c-4.313,0-7.828-1.438-10.701-4.153c-3.037-2.875-4.475-6.708-4.475-11.341
			c0-5.112,1.757-9.105,5.271-11.981c3.675-3.035,8.946-4.632,15.655-4.632h9.105c0-3.675-0.958-6.23-2.396-7.668
			c-1.597-1.598-4.314-2.396-7.828-2.396c-3.195,0-6.868,0.798-11.022,2.236c0,0,0,0-0.161,0c-0.637,0.16-1.277,0.16-1.916,0.16
			c-0.957,0-1.915-0.479-2.715-1.438c-0.799-0.958-1.277-2.236-1.277-3.993c0-1.278,0.479-3.195,2.874-4.313
			c4.952-2.396,10.064-3.515,15.497-3.515c6.229,0,11.021,2.078,14.537,6.39c3.034,3.674,4.631,8.307,4.631,13.578v26.997
			c0,1.598-0.479,2.876-1.438,3.835c-0.958,1.117-2.234,1.598-3.673,1.598c-1.438,0-5.112,0-5.112,0v-5.112
			c-1.277,1.118-2.715,2.076-4.312,3.034C529.107,347.476,525.434,348.274,521.279,348.274z M528.149,325.591
			c-3.834,0-6.87,0.479-8.946,1.599c-1.916,0.958-2.715,2.396-2.715,4.633c0,2.714,0.799,6.389,7.827,6.389
			c2.396,0,4.792-0.639,6.868-2.076c2.076-1.278,3.833-2.715,5.112-4.312v-6.231H528.149z"/>
	</g>
	<path id="icon" fill="#00629D" d="M174.472,270H112.81c-10.543,0-19.169,8.626-19.169,19.17v61.661
		c0,10.543,8.626,19.169,19.169,19.169h61.662c10.544,0,19.17-8.626,19.17-19.169V289.17C193.642,278.626,185.016,270,174.472,270z
		 M163.129,339.489h-38.978v-38.979h38.818v38.979H163.129z"/>
</g>
</svg>
