<?xml version="1.0" encoding="utf-8"?>
<!-- Generator: Adobe Illustrator 16.0.4, SVG Export Plug-In . SVG Version: 6.00 Build 0)  -->
<!DOCTYPE svg PUBLIC "-//W3C//DTD SVG 1.1//EN" "http://www.w3.org/Graphics/SVG/1.1/DTD/svg11.dtd">
<svg version="1.1" id="Artboard" xmlns="http://www.w3.org/2000/svg" xmlns:xlink="http://www.w3.org/1999/xlink" x="0px" y="0px"
	 width="640px" height="640px" viewBox="0 0 640 640" enable-background="new 0 0 640 640" xml:space="preserve">
<g>
	<g>
		<path fill="#24318F" d="M231.852,293.903c10.86,0,13.273,1.677,17.425,6.504l26.635,31.218c0.375,0.445,0.591,0.568,1.024,0.568
			l-0.002-38.293l10.286,0.003l-0.007,51.185h-11.021c-7.277-0.004-10.302-0.574-14.727-5.785l-27.472-32.233
			c-0.372-0.453-0.604-0.58-1.035-0.58l0.003,38.602l-10.288,0.003v-51.182L231.852,293.903z"/>
		<g>
			<path fill="#24318F" d="M180.898,301.202l26.038,0.003c1.249,0,2.167-0.375,2.787-1.531l3.042-5.772l-37.194,0.002
				c-16.553,0-24.6,6.007-24.6,18.339v14.135c0,13.137,8.283,18.712,24.607,18.712l32.277,0.004c1.252,0,2.165-0.373,2.79-1.528
				l3.041-5.772l-32.8,0.002c-8.585,0-11.657-2.928-11.657-8.704v-6.964l33.992,0.002c1.251,0,2.167-0.37,2.789-1.526l3.04-5.772
				l-39.821,0.001v-4.242C169.23,305.704,170.336,301.202,180.898,301.202z"/>
		</g>
		<g>
			<path fill="#24318F" d="M328.745,301.202l26.043,0.003c1.25,0,2.168-0.375,2.787-1.531l3.041-5.772l-37.194,0.002
				c-16.552,0-24.599,6.007-24.599,18.339v14.135c0,13.137,8.282,18.712,24.607,18.712l32.281,0.004
				c1.246,0,2.162-0.373,2.785-1.528l3.041-5.772l-32.799,0.002c-8.586,0-11.658-2.928-11.658-8.704v-6.964l33.994,0.002
				c1.251,0,2.165-0.37,2.787-1.526l3.041-5.772l-39.822,0.001v-4.242C317.081,305.704,318.187,301.202,328.745,301.202z"/>
		</g>
		<path fill="#24318F" d="M403.439,327.769c7.001,2.31,9.145,3.29,9.145,5.952c0,2.312-1.381,4.07-10.159,4.07l-30.113-0.002
			c-1.252,0-2.166,0.373-2.787,1.528l-3.041,5.771l42.645,0.006c17.237,0,23.682-5.394,23.682-12.875
			c0-4.333-2.458-10.071-18.617-15.372l-17.034-5.588c-7.004-2.308-9.142-3.325-9.142-5.99c0-2.119,1.205-4.067,10.154-4.067
			l25.479,0.004c1.252,0,2.165-0.376,2.784-1.531l3.046-5.772l-38.01,0.005c-17.236,0-23.683,5.387-23.683,12.869
			c0,4.334,2.458,10.104,18.619,15.403L403.439,327.769z"/>
		<path fill="#24318F" d="M552.32,345.094c17.236,0,23.68-5.394,23.68-12.875c0-4.333-2.456-10.071-18.618-15.372l-17.031-5.588
			c-7.004-2.308-9.146-3.325-9.146-5.99c0-2.119,1.38-4.067,10.154-4.067l25.48,0.004c1.251,0,2.167-0.376,2.785-1.531l3.046-5.772
			l-38.011,0.005c-17.235,0-23.682,5.387-23.682,12.869c0,4.334,2.457,10.104,18.619,15.403l17.032,5.59
			c7.004,2.31,9.144,3.29,9.144,5.952c0,2.122-1.379,4.07-10.155,4.07l-34.679-0.001l-26.821-43.889h-10.18
			c-7.932,0-11.982,2.193-15.688,8.238l-26.241,42.954h17.824l21.664-38.306c0.524-0.929,0.954-0.914,1.399-0.914l18.063,31.916
			l-19.634-0.001c-1.249,0-2.166,0.373-2.784,1.528l-3.044,5.771L552.32,345.094z"/>
		<rect x="67.615" y="318.725" fill="#24318F" width="23.932" height="23.929"/>
		<path fill="#24318F" d="M143.622,292.414c2.821,10.887-6.739,17.411-15.982,21.738c-2.449,1.148-3.653,2.238-3.792,3.55
			c-0.15,1.441,0.439,3.249,2.305,5.944c8.218,11.875,24.855,27.238,42.312,36.324c0.446,0.234,0.167,0.428-0.07,0.553
			c-0.443,0.238-1.011,0.375-2.05,0.104c-26.177-6.759-52.828-26.091-61.898-39.493c-1.424-2.101-1.783-3.654-1.653-4.707
			c0.147-1.196,0.999-2.275,3.453-3.453c6.369-3.046,17.789-9.738,15.016-17.883c-3.984-11.692-26.649-11.507-44.539-6.116
			c-3.772,1.141-7.897,3.157-11.604,5.394c-0.354,0.216-1.237,0.394-1.104-0.472c0.018-0.114,0.4-2.53,0.4-2.53
			c0.232-1.205,1.568-2.173,2.492-2.642C95.131,274.443,139.56,276.736,143.622,292.414z"/>
	</g>
</g>
</svg>
