<?xml version="1.0" encoding="utf-8"?>
<!-- Generator: Adobe Illustrator 16.0.4, SVG Export Plug-In . SVG Version: 6.00 Build 0)  -->
<!DOCTYPE svg PUBLIC "-//W3C//DTD SVG 1.1//EN" "http://www.w3.org/Graphics/SVG/1.1/DTD/svg11.dtd">
<svg version="1.1" id="Artboard" xmlns="http://www.w3.org/2000/svg" xmlns:xlink="http://www.w3.org/1999/xlink" x="0px" y="0px"
	 width="640px" height="640px" viewBox="0 0 640 640" enable-background="new 0 0 640 640" xml:space="preserve">
<g id="nextge">
	<g id="logo">
		<path fill="#231815" d="M203.734,283.788h4.777l11.628,25.271l0.116-0.118l-0.345-7.77v-17.383h3.856v29.991h-4.777
			l-11.628-25.271l-0.115,0.115l0.344,7.829v17.327h-3.856V283.788z"/>
		<path fill="#231815" d="M240.053,283.788h18.708v3.455h-14.853v8.977h12.262v3.454h-12.262v10.649h14.853v3.456h-18.708V283.788z"
			/>
		<path fill="#231815" d="M274.82,314.529l-3.456-1.957l9.268-14.681l-8.461-12.837l3.511-2.017l7.137,11.398l7.139-11.398
			l3.509,2.017l-8.46,12.837l9.27,14.681l-3.457,1.957l-8.001-13.242L274.82,314.529z"/>
		<path fill="#231815" d="M315.515,287.242h-8.29v-3.455h20.265v3.455h-8.12v26.536h-3.856V287.242z"/>
		<g>
			<path fill="#231815" d="M224.283,358.596c-2.476,1.963-6.159,3.286-9.21,3.286c-8.805,0-11.339-8.177-11.339-15.545
				c0-7.255,2.649-15.487,11.225-15.487c4.03,0,7.54,2.358,9.613,5.754l-3.279,2.136c-1.441-2.418-3.628-4.266-6.567-4.266
				c-5.927,0-6.964,7.432-6.964,11.979c0,4.663,1.037,11.794,7.08,11.794c1.959,0,3.916-0.516,5.586-1.547v-7.888h-7.198v-3.456
				h11.052V358.596z"/>
			<path fill="#231815" d="M240.458,331.369h18.709v3.46h-14.857v8.971h12.265v3.455h-12.265v10.652h14.857v3.455h-18.709V331.369z"
				/>
			<path fill="#231815" d="M273.205,331.369h4.778l11.626,25.271l0.118-0.117l-0.345-7.772v-17.381h3.857v29.993h-4.777
				l-11.627-25.271l-0.116,0.11l0.345,7.834v17.327h-3.859V331.369z"/>
			<path fill="#231815" d="M309.524,331.369h18.716v3.46h-14.858v8.971h12.266v3.455h-12.266v10.652h14.858v3.455h-18.716V331.369z"
				/>
			<path fill="#231815" d="M343.614,331.369h10.199c5.007,0,8.977,2.357,8.977,8.174c0,3.685-2.477,7.305-6.099,8.403l7.361,12.15
				l-3.338,2.011l-7.659-13.585h-5.583v12.84h-3.858V331.369z M352.542,345.07c3.741,0,6.212-2.13,6.212-5.527
				c0-2.706-1.608-4.714-5.066-4.714h-6.215v10.241H352.542z"/>
			<path fill="#231815" d="M381.545,353.187l-2.815,8.921l-3.804-1.383l9.447-29.355h4.941l9.447,29.355l-3.796,1.383l-2.76-8.921
				H381.545z M386.846,335.858l-4.259,13.87h8.514L386.846,335.858z"/>
			<path fill="#231815" d="M419.54,334.829h-8.286v-3.46h20.259v3.46h-8.118v26.533h-3.854V334.829z"/>
			<path fill="#231815" d="M449.757,357.907h4.201v-23.078h-4.201v-3.46h12.317v3.46h-4.258v23.078h4.258v3.455h-12.317V357.907z"/>
			<path fill="#231815" d="M501.099,346.389c0,2.424-0.171,15.493-10.651,15.493c-4.838,0-10.646-3.458-10.646-15.493
				c0-11.969,5.7-15.539,10.646-15.539C495.227,330.85,501.099,334.303,501.099,346.389z M483.83,346.389
				c0,4.375,0.81,11.858,6.617,11.858c5.818,0,6.623-7.483,6.623-11.858c0-4.427-0.805-11.915-6.623-11.915
				C484.64,334.474,483.83,341.962,483.83,346.389z"/>
			<path fill="#231815" d="M514.972,331.369h4.777l11.627,25.271l0.112-0.117l-0.346-7.772v-17.381H535v29.993h-4.777
				l-11.624-25.271l-0.118,0.11l0.345,7.834v17.327h-3.854V331.369z"/>
		</g>
		<g>
			<path fill="#231815" d="M340.539,313.226c-0.504-0.514-0.499-1.343,0.01-1.854l0,0l5.187-5.187l-5.187-5.182
				c-0.509-0.514-0.509-1.343-0.01-1.853l0,0c0.515-0.515,1.347-0.515,1.853,0l0,0l6.12,6.114c0.243,0.243,0.376,0.574,0.376,0.92
				l0,0c0,0.351-0.133,0.684-0.376,0.935l0,0l-6.12,6.115c-0.254,0.246-0.588,0.376-0.919,0.376l0,0
				C341.14,313.612,340.797,313.481,340.539,313.226L340.539,313.226z"/>
			<path fill="#231815" d="M337.78,307.492c-0.722,0-1.31-0.589-1.31-1.307l0,0c0-0.727,0.588-1.31,1.31-1.31l0,0h8.641
				c0.729,0,1.312,0.583,1.312,1.31l0,0c0,0.718-0.584,1.307-1.312,1.307l0,0H337.78L337.78,307.492z"/>
		</g>
		<g>
			<path fill="#231815" d="M359.061,301.716c-0.513-0.508-0.513-1.342,0-1.854l0,0l5.193-5.181l-5.193-5.188v0.008
				c-0.513-0.516-0.513-1.341,0-1.856l0,0c0.514-0.511,1.345-0.511,1.855-0.007l0,0l6.112,6.122
				c0.242,0.242,0.379,0.574,0.379,0.921l0,0c0,0.35-0.137,0.677-0.379,0.921l0,0l-6.112,6.123
				c-0.259,0.251-0.595,0.376-0.924,0.376l0,0C359.655,302.101,359.314,301.974,359.061,301.716L359.061,301.716z"/>
			<path fill="#231815" d="M356.298,295.981c-0.731,0-1.309-0.585-1.309-1.302l0,0c0-0.728,0.577-1.313,1.309-1.313l0,0h8.644
				c0.729,0,1.307,0.585,1.307,1.313l0,0c0,0.717-0.577,1.302-1.307,1.302l0,0H356.298L356.298,295.981z"/>
		</g>
	</g>
	<g id="icon">
		<path fill="#C8C9CA" d="M181.057,358.056c0-5.257-11.8-8.624-28.605-8.624c-16.805,0-28.609,3.367-28.609,8.624
			s11.804,14.144,28.609,14.144C169.257,372.199,181.057,363.312,181.057,358.056z"/>
		<g>
			<path fill="#FFFFFF" d="M183.919,330.891c0,18.486-12.981,30.342-31.467,30.342c-18.486,0-31.468-11.855-31.468-30.342
				c0-18.481,12.981-49.741,31.468-49.741C170.938,281.15,183.919,312.41,183.919,330.891z"/>
			<path fill="#231815" d="M152.455,363.35c-9.692,0.009-18.128-3.118-24.13-8.814l0,0c-6.004-5.696-9.473-13.912-9.463-23.645l0,0
				c0.021-9.723,3.341-22.35,9.067-32.823l0,0c5.719-10.38,13.968-18.948,24.525-19.032l0,0c10.55,0.084,18.797,8.652,24.518,19.032
				l0,0c5.728,10.474,9.048,23.101,9.062,32.823l0,0c0.014,9.732-3.451,17.948-9.463,23.645l0,0
				c-5.99,5.689-14.407,8.814-24.078,8.814l0,0C152.483,363.35,152.468,363.35,152.455,363.35L152.455,363.35z M131.645,300.108
				c-5.388,9.776-8.562,22.022-8.542,30.783l0,0c0.121,17.401,11.785,28.089,29.353,28.221l0,0
				c17.56-0.132,29.223-10.819,29.341-28.221l0,0c0.017-8.761-3.154-21.007-8.537-30.783l0,0
				c-5.394-9.869-12.877-16.925-20.805-16.84l0,0c-0.049,0-0.098,0-0.145,0l0,0C144.432,283.268,137.005,290.299,131.645,300.108
				L131.645,300.108z"/>
		</g>
		<g>
			<path fill="#DBDCDC" d="M144.809,352.797c-16.277-7.214-13.685-23.058-12.157-35.03c1.235-9.681,2.679-18.128,9.755-32.301
				c-12.069,9.208-19.837,31.131-19.837,45.425c0,18.486,12.982,30.342,31.463,30.342c6.131,0,11.63-1.326,16.278-3.743
				C162.872,356.032,154.638,357.154,144.809,352.797z"/>
		</g>
		<path fill="#231815" d="M152.455,363.35c-9.692,0.009-18.128-3.118-24.13-8.814l0,0c-6.004-5.696-9.473-13.912-9.463-23.645l0,0
			c0.021-9.723,3.341-22.35,9.067-32.823l0,0c5.719-10.38,13.968-18.948,24.525-19.032l0,0c10.55,0.084,18.797,8.652,24.518,19.032
			l0,0c5.728,10.474,9.048,23.101,9.062,32.823l0,0c0.014,9.732-3.451,17.948-9.463,23.645l0,0
			c-5.99,5.689-14.407,8.814-24.078,8.814l0,0C152.483,363.35,152.468,363.35,152.455,363.35L152.455,363.35z M131.645,300.108
			c-5.388,9.776-8.562,22.022-8.542,30.783l0,0c0.121,17.401,11.785,28.089,29.353,28.221l0,0
			c17.56-0.132,29.223-10.819,29.341-28.221l0,0c0.017-8.761-3.154-21.007-8.537-30.783l0,0
			c-5.394-9.869-12.877-16.925-20.805-16.84l0,0c-0.049,0-0.098,0-0.145,0l0,0C144.432,283.268,137.005,290.299,131.645,300.108
			L131.645,300.108z"/>
		<polygon fill="#231815" points="120.023,331.658 152.545,311.973 152.997,328.244 180.562,311.649 182.193,314.36 
			149.976,333.764 149.533,317.501 121.658,334.367 120.023,331.658 		"/>
	</g>
	<rect x="105" y="254.814" fill="#FF0000" width="33.896" height="130.371"/>
</g>
</svg>
