<?xml version="1.0" encoding="utf-8"?>
<!-- Generator: Adobe Illustrator 16.0.4, SVG Export Plug-In . SVG Version: 6.00 Build 0)  -->
<!DOCTYPE svg PUBLIC "-//W3C//DTD SVG 1.1//EN" "http://www.w3.org/Graphics/SVG/1.1/DTD/svg11.dtd">
<svg version="1.1" id="Artboard" xmlns="http://www.w3.org/2000/svg" xmlns:xlink="http://www.w3.org/1999/xlink" x="0px" y="0px"
	 width="640px" height="640px" viewBox="0 0 640 640" enable-background="new 0 0 640 640" xml:space="preserve">
<g>
	<path fill="#004380" d="M122.19,267.913c-14.031,0-27.198,5.422-37.006,15.258C75.379,292.99,70,306.165,70,320.26
		c0,29.053,22.912,51.827,52.19,51.827c14.618,0,27.364-4.878,36.864-14.188l-10.798-10.762c-4.872,4.73-10.934,8.074-17.606,9.675
		l-0.396,0.078v-17.161h0.333c3.25-0.084,6.528-0.438,9.745-1.126c10.249-2.217,17.577-5.512,22.431-10.161
		c5.051-4.888,7.839-11.711,7.839-19.271C170.602,287.204,147.997,267.913,122.19,267.913z M137.146,324.23
		c-2.119,0.44-4.333,0.708-6.543,0.789l-0.349,0.064v-16.011c0-4.574,1.771-6.902,5.312-6.902c0.159,0,3.505,0.101,5.889,0.69
		v-10.577c-3.273-0.516-7.578-0.761-7.629-0.762c-9.214,0-20.188,2.583-20.188,14.891v14.794l-0.512-0.325
		c-4.714-2.832-8.35-6.964-10.816-12.307l-13.707,6.205c5.788,10.666,14.361,18.319,24.81,22.126l0.226,0.079v19.795l-0.423-0.135
		c-16.428-4.251-28.369-19.574-28.369-36.385c0-20.301,16.767-36.772,37.345-36.772c18.316,0,33.764,11.735,33.764,25.683
		C155.954,316.582,149.812,321.551,137.146,324.23z"/>
	<g>
		<path fill="#888888" d="M303.178,348.075c-4.954,0-5.324-3.236-5.324-8.008c0-0.851,0-5.496,0-15.305h10.635v-10.187h-10.635
			c0-7.12,0-12.64,0-12.64h-13.157v12.64h-10.774v10.187h10.774v18.067c0,11.728,6.775,15.475,15.256,15.475h8.713v-10.229
			c0,0-3.601,0-5.896,0"/>
		<rect x="180.594" y="313.2" fill="#888888" width="12.967" height="44.035"/>
		<path fill="#888888" d="M195.157,300.218c0,4.552-3.716,8.255-8.231,8.255c-4.565,0-8.264-3.703-8.264-8.255
			c0-4.567,3.699-8.265,8.264-8.265C191.441,291.954,195.157,295.651,195.157,300.218"/>
		<path fill="#888888" d="M236.377,325.62c0,7.824,5.579,11.447,12.223,13.261c6.386,1.73,10.346,2.337,10.346,5.166
			c0,3.888-3.628,4.819-8.635,4.819c-6.713,0-11.956-2.324-12.13-2.488l-1.469,9.63c0.764,0.75,8.192,2.259,16.537,2.259
			c16.365,0,18.606-9.668,18.606-13.953c0-5.776-2.228-9.738-10.089-12.761c-3.171-1.207-7.305-2.139-8.873-2.58
			c-1.622-0.44-3.349-1.216-3.349-3.176c0-2.165,1.811-3.379,4.925-3.625c4.704-0.338,9.464-0.098,14.634,2.824l0.248-9.365
			c-4.896-2.768-8.099-3.53-14.04-3.53C246.445,312.101,236.377,315.811,236.377,325.62"/>
		<path fill="#888888" d="M333.117,302.551c-4.499,3.013-7.409,6.686-7.409,13.151c0,11.547,9.803,14.223,16.142,16.543
			c10.397,3.81,13.792,5.929,13.792,8.878c0,2.222-1.184,5.953-7.873,5.953c-5.724,0-12.056-1.467-20.39-4.937l-1.361,12.586
			c7.751,2.258,14.684,3.991,24.135,3.375c11.565-0.72,19.773-7.951,19.773-17.164c0-5.952-2.706-11.263-7.762-14.043
			c-6.201-3.438-11.543-4.304-17.495-7.224c-1.586-0.786-5.221-2.33-5.221-4.993c0-2.253,1.085-3.449,4.175-4.384
			c3.578-1.054,15.946-1.042,22.223,2.159l0.484-11.977C354.105,297.467,340.687,297.202,333.117,302.551"/>
		<path fill="#888888" d="M393.558,322.257c5.226-0.873,7.94,1.622,8.619,2.664c-3.626,4.985-11.921,7.309-16.861,7.309
			C385.275,326.028,389.553,323.017,393.558,322.257 M373.863,336.278c0,8.885,4.84,17.169,12.794,20.377
			c8.238,3.317,19.109,1.709,26.533-6.854l-7.305-6.268c-4.429,4.025-8.389,4.401-11.16,4.401c-5.317,0-8.091-2.431-8.751-6.305
			c4.44-0.189,11.312-1.561,15.707-3.626c5.134-2.395,9.984-6.543,12.165-11.715c-1.388-6.37-8.638-14.094-18.885-14.094
			C385.33,312.195,373.863,318.563,373.863,336.278z"/>
		<path fill="#888888" d="M515.317,322.257c5.2-0.873,7.937,1.622,8.624,2.664c-3.634,4.985-11.939,7.309-16.874,7.309
			C507.038,326.028,511.3,323.017,515.317,322.257 M495.55,336.278c0,8.885,4.902,17.169,12.871,20.377
			c8.212,3.317,19.086,1.709,26.534-6.854l-7.379-6.268c-4.387,4.025-8.336,4.401-11.107,4.401c-5.304,0-8.094-2.431-8.724-6.305
			c4.378-0.189,11.224-1.561,15.695-3.626c5.142-2.395,9.989-6.543,12.141-11.715c-1.377-6.37-8.688-14.094-18.856-14.094
			C507.091,312.195,495.55,318.563,495.55,336.278z"/>
		<path fill="#888888" d="M216.638,319.591V313.2H203.67v44.035h12.968v-21.47c0.002-8.348,6.3-12.388,16.642-10.592v-12.062
			C223.991,313.112,219.56,314.844,216.638,319.591"/>
		<path fill="#888888" d="M431.08,319.591V313.2h-12.934v44.035h12.934v-21.47c0.009-8.348,6.327-12.388,16.688-10.592v-12.062
			C438.475,313.112,433.998,314.844,431.08,319.591"/>
		<path fill="#888888" d="M553.33,319.591V313.2h-12.982v44.035h12.982v-21.47c0.004-8.348,6.29-12.388,16.67-10.592v-12.062
			C560.716,313.112,556.253,314.844,553.33,319.591"/>
		<polyline fill="#888888" points="482.432,313.036 473.824,345.349 465.214,313.036 451.236,313.036 465.713,357.393 
			481.666,357.393 496.145,313.036 482.03,313.036 		"/>
	</g>
</g>
</svg>
