<?xml version="1.0" encoding="utf-8"?>
<!-- Generator: Adobe Illustrator 16.0.4, SVG Export Plug-In . SVG Version: 6.00 Build 0)  -->
<!DOCTYPE svg PUBLIC "-//W3C//DTD SVG 1.1//EN" "http://www.w3.org/Graphics/SVG/1.1/DTD/svg11.dtd">
<svg version="1.1" id="Artboard" xmlns="http://www.w3.org/2000/svg" xmlns:xlink="http://www.w3.org/1999/xlink" x="0px" y="0px"
	 width="640px" height="640px" viewBox="0 0 640 640" enable-background="new 0 0 640 640" xml:space="preserve">
<g id="cpi">
	<g id="r">
		<path fill="#231815" d="M511.455,370.824h0.392c1.989,0,3.607-1.612,3.607-3.604c0-1.99-1.618-3.603-3.607-3.603h-5.33
			c-1.988,0-3.604,1.612-3.604,3.603v8.002c0,0.518,0.42,0.935,0.937,0.935c0.521,0,0.943-0.419,0.943-0.935v-4.397h4.001
			l5.056,5.061c0.367,0.367,0.963,0.367,1.331,0c0.367-0.371,0.367-0.964,0-1.331L511.455,370.824z M504.793,368.947v-1.726
			c0-0.947,0.775-1.724,1.724-1.724h5.33c0.955,0,1.726,0.776,1.726,1.724c0,0.949-0.771,1.726-1.726,1.726H504.793z"/>
		<path fill="#231815" d="M498.367,370.106c0,5.958,4.854,10.812,10.816,10.812c5.965,0,10.816-4.854,10.816-10.812
			c0-5.97-4.851-10.82-10.816-10.82C503.221,359.286,498.367,364.137,498.367,370.106 M499.82,370.106
			c0-5.167,4.2-9.368,9.364-9.368c5.162,0,9.366,4.201,9.366,9.368c0,5.161-4.203,9.36-9.366,9.36
			C504.02,379.467,499.82,375.268,499.82,370.106"/>
	</g>
	<g id="logo">
		<path fill="#231815" d="M366.418,302.364l-50.09,0.002c-12.453,0-22.583,10.132-22.583,22.585v33.388
			c0,12.453,10.129,22.586,22.583,22.586l50.092-0.002c3.255,0,5.893-2.64,5.893-5.889c0-3.254-2.64-5.894-5.895-5.892l-50.09,0.004
			c-5.957,0-10.804-4.846-10.804-10.808v-33.388c0-5.957,4.847-10.805,10.804-10.805l50.092-0.003
			c3.255-0.002,5.893-2.64,5.893-5.889C372.313,305,369.673,302.364,366.418,302.364"/>
		<path fill="#231815" d="M474.07,308.257v66.779c0,3.25,2.641,5.889,5.893,5.889c3.251,0,5.891-2.639,5.891-5.889v-66.779
			c0-3.253-2.64-5.891-5.891-5.891C476.71,302.366,474.07,305.003,474.07,308.257"/>
		<path fill="#231815" d="M406.943,302.368c-12.455,0-22.59,10.133-22.59,22.585l0.005,50.083c0,3.254,2.635,5.889,5.891,5.889
			c3.251,0,5.888-2.637,5.888-5.889v-27.501h44.201c12.452,0,22.587-10.129,22.587-22.582c0-12.452-10.135-22.585-22.587-22.585
			H406.943z M396.134,324.953c0-5.959,4.849-10.806,10.809-10.806h33.396c5.958,0,10.805,4.847,10.805,10.806
			c0,5.958-4.847,10.803-10.805,10.803h-44.203L396.134,324.953L396.134,324.953z"/>
	</g>
	<g id="icon">
		<path fill="#C2DA70" d="M127.795,313.867c-1.476,0.8-2.57,0.094-2.439-1.583l1.828-23.18c0.132-1.682,1.259-3.943,2.524-5.055
			l57.076-49.816v47.541L127.795,313.867z"/>
		<path fill="#C2DA70" d="M186.784,296.96v45.031l-61.611,10.94c-1.658,0.293-2.902-0.843-2.772-2.502l1.749-22.164
			c0.134-1.677,1.495-3.616,3.027-4.302L186.784,296.96z"/>
		<path fill="#C2DA70" d="M122.664,384.953c-1.6-0.526-2.787-2.311-2.654-3.984l1.224-15.739c0.13-1.669,1.609-3.157,3.283-3.314
			l62.267-5.781v49.635L122.664,384.953z"/>
		<path fill="#0098D8" d="M245.768,313.867c1.477,0.8,2.574,0.094,2.441-1.583l-1.831-23.18c-0.13-1.682-1.276-3.943-2.533-5.055
			l-57.062-49.816v47.541L245.768,313.867z"/>
		<path fill="#0098D8" d="M186.783,296.96v45.031l61.612,10.94c1.654,0.293,2.891-0.843,2.763-2.502l-1.749-22.164
			c-0.133-1.677-1.495-3.616-3.027-4.302L186.783,296.96z"/>
		<path fill="#0098D8" d="M250.896,384.953c1.583-0.526,2.787-2.311,2.655-3.984l-1.243-15.739
			c-0.129-1.669-1.591-3.157-3.265-3.314l-62.261-5.781v49.635L250.896,384.953z"/>
	</g>
</g>
</svg>
