<?xml version="1.0" encoding="utf-8"?>
<!-- Generator: Adobe Illustrator 16.0.4, SVG Export Plug-In . SVG Version: 6.00 Build 0)  -->
<!DOCTYPE svg PUBLIC "-//W3C//DTD SVG 1.1//EN" "http://www.w3.org/Graphics/SVG/1.1/DTD/svg11.dtd">
<svg version="1.1" id="Artboard" xmlns="http://www.w3.org/2000/svg" xmlns:xlink="http://www.w3.org/1999/xlink" x="0px" y="0px"
	 width="640px" height="640px" viewBox="0 0 640 640" enable-background="new 0 0 640 640" xml:space="preserve">
<g id="sharewis">
	<path fill="#82BC00" d="M241.875,210.13c4.441-3.439,10.827-2.631,14.268,1.808c3.446,4.438,2.637,10.829-1.802,14.271
		c-4.443,3.441-10.832,2.634-14.274-1.806C236.629,219.964,237.437,213.576,241.875,210.13"/>
	<path fill="#00ACC8" d="M95.66,280.632c-6.162,22.084,6.748,44.975,28.831,51.129c22.085,6.161,44.979-6.749,51.14-28.826
		c0.78-2.786,1.251-5.589,1.439-8.365c2.69-16.858,9.37-28.334,24.834-28.075c0.136,0.002,1.011,0.03,1.33,0.034
		c5.177,0.137,10.187-1.263,14.467-3.865c9.583-4.079,17.71-4.27,22.792,3.844c0.042,0.079,0.336,0.549,0.437,0.727
		c3.966,6.439,11.915,9.629,19.447,7.261c8.894-2.792,13.845-12.274,11.049-21.171c-2.792-8.897-12.269-13.849-21.174-11.051
		c-0.557,0.178-1.104,0.38-1.629,0.605c-8.889,2.521-15.062-2.436-19.646-11.59c-0.28-0.814-0.604-1.61-0.965-2.39
		c-0.051-0.117-0.113-0.229-0.172-0.345c-0.311-0.661-0.635-1.302-1.011-1.931c-0.078-0.136-0.164-0.259-0.246-0.393
		c-0.378-0.609-0.753-1.211-1.167-1.786c-0.047-0.061-0.095-0.12-0.147-0.181c-3.392-4.623-8.288-8.197-14.24-9.858
		c-14.125-3.939-28.772,4.315-32.71,18.446c-0.25,0.893-0.447,1.786-0.6,2.677c-4.302,13.879-16.125,17.765-32.131,15.964
		C123.88,246.124,101.707,258.953,95.66,280.632"/>
	<path fill="#555759" d="M241.829,331.1c0,10.197-9.737,16.901-21.128,16.901c-8.729,0-15.25-2.203-20.209-5.236v-11.207
		c4.315,3.218,10.102,5.879,17.638,5.879c6.337,0,12.674-1.376,12.674-7.072c0-13.596-31.14-5.879-31.14-27.283
		c0-12.494,10.382-17.823,21.865-17.823c6.154,0,11.667,1.745,16.443,4.225v10.749c-3.769-2.479-8.82-4.684-15.157-4.684
		c-5.788,0-12.128,1.744-12.128,7.256C210.687,314.012,241.829,306.111,241.829,331.1"/>
	<path fill="#555759" d="M288.034,319.708v27.558H277.1V318.79c0-4.042-0.919-8.36-11.205-8.36c-3.033,0-5.513,0.551-7.352,1.377
		v35.46h-11.022v-63.294h11.022v18.281c2.575-1.011,5.604-1.561,9.187-1.561C280.499,300.693,288.034,307.766,288.034,319.708"/>
	<path fill="#555759" d="M331.202,320.168v12.4c0,7.442-5.052,15.433-19.29,15.433c-14.516,0-19.659-8.082-19.659-15.707
		c0-3.397,1.377-14.425,19.75-14.425c2.847,0,5.606,0.275,8.085,0.644c0-4.96-2.572-8.634-9.736-8.634
		c-5.512,0-10.014,0.918-13.414,2.296v-8.912c3.857-1.562,8.542-2.57,14.055-2.57C324.037,300.693,331.202,307.581,331.202,320.168
		 M320.179,325.495c-1.931-0.275-4.135-0.55-6.614-0.55c-7.44,0-10.381,2.204-10.381,5.97c0,4.776,2.851,7.351,8.637,7.351
		c6.154,0,8.359-2.757,8.359-6.982V325.495z"/>
	<path fill="#555759" d="M360.14,300.693v9.553c-6.157,0.091-10.29,1.103-11.853,1.561v35.46h-11.023V305.56
		C337.264,305.56,347.001,300.966,360.14,300.693"/>
	<path fill="#555759" d="M400.37,334.957v8.91c-4.223,2.297-9.919,4.134-17.267,4.134c-9.096,0-21.312-3.675-21.312-23.148
		c0-13.688,5.509-24.253,20.483-24.253c14.329,0,20.487,10.749,20.487,22.232c0,2.021,0,3.858-0.187,5.696h-29.488
		c0.645,8.818,6.341,10.012,11.668,10.012C391.279,338.539,396.514,336.794,400.37,334.957 M373.088,320.902h18.466
		c-0.549-5.788-3.398-11.299-9.278-11.299C376.854,309.604,373.732,312.726,373.088,320.902"/>
	<polygon fill="#82BC00" points="492.044,285.995 472.389,347.267 460.996,347.267 447.308,304.55 433.531,347.267 422.14,347.267 
		402.48,285.995 414.056,285.995 427.836,331.283 442.44,285.995 452.084,285.995 466.693,331.283 480.564,285.995 	"/>
	<path fill="#82BC00" d="M495.805,285.075h11.303v10.105h-11.303V285.075z M495.989,301.427h11.025v45.839h-11.025V301.427z"/>
	<path fill="#82BC00" d="M545.878,334.59c0,7.624-6.618,13.411-17.094,13.411c-5.788,0-10.656-1.561-14.514-3.766v-9.829
		c3.304,2.205,7.715,4.041,12.953,4.041c7.074,0,7.623-1.929,7.623-4.407c0-7.532-21.861-3.126-21.861-19.019
		c0-9.645,7.897-14.329,16.993-14.329c4.776,0,9.006,1.285,12.499,3.306v8.36c-2.761-1.286-6.253-2.204-10.569-2.204
		c-4.592,0-7.9,0.918-7.9,3.857C524.008,321.085,545.878,315.85,545.878,334.59"/>
</g>
</svg>
