<?xml version="1.0" encoding="utf-8"?>
<!-- Generator: Adobe Illustrator 16.0.4, SVG Export Plug-In . SVG Version: 6.00 Build 0)  -->
<!DOCTYPE svg PUBLIC "-//W3C//DTD SVG 1.1//EN" "http://www.w3.org/Graphics/SVG/1.1/DTD/svg11.dtd">
<svg version="1.1" id="Artboard" xmlns="http://www.w3.org/2000/svg" xmlns:xlink="http://www.w3.org/1999/xlink" x="0px" y="0px"
	 width="640px" height="640px" viewBox="0 0 640 640" enable-background="new 0 0 640 640" xml:space="preserve">
<g id="kdl">
	<g id="labo">
		<path d="M233.691,390.573h-42.706v-81.269h18.822v61.365h23.884V390.573z"/>
		<path d="M263.884,413.536c-0.444-2.042-0.622-4.174-0.622-6.304c-3.552,5.238-8.612,7.191-14.827,7.191
			c-8.436,0-15.805-4.617-15.805-13.673c0-7.191,5.594-11.985,11.897-13.939c5.771-1.775,11.898-2.486,17.847-2.842v-0.354
			c0-4.084-1.066-5.685-5.328-5.685c-3.462,0-6.392,1.244-6.925,5.062l-16.159-1.509c2.665-11.276,13.407-14.207,23.617-14.207
			c5.327,0,12.163,0.71,16.604,3.908c5.949,4.172,5.238,10.031,5.238,16.513v15.893c0,3.374,0.088,6.748,1.42,9.944H263.884z
			 M262.375,392.315c-4.263,0.445-11.365,1.776-11.365,7.28c0,2.932,1.865,4.175,4.616,4.175c6.659,0,6.749-5.595,6.749-10.566
			V392.315z"/>
		<path d="M281.995,352.628h17.58v20.955h0.267c2.485-4.617,6.304-6.305,11.63-6.305c12.697,0,17.048,12.164,17.048,22.995
			c0,12.608-5.328,24.15-19.534,24.15c-6.037,0-11.098-2.13-14.561-7.103c-1.065,1.953-1.775,4.084-2.397,6.215h-10.033V352.628z
			 M299.664,395.514c0,3.551,0.445,7.901,5.061,7.901c6.038,0,5.861-8.079,5.861-12.431c0-4.351,0.266-12.431-6.04-12.431
			c-1.597,0-2.84,0.8-3.816,2.042c-1.242,1.51-1.066,2.932-1.066,4.795V395.514z"/>
		<path d="M379.051,391.251c0,13.761-11.1,23.173-24.949,23.173c-13.852,0-24.949-9.412-24.949-23.173
			c0-14.561,10.744-23.973,24.949-23.973S379.051,376.69,379.051,391.251z M347.975,390.629c0,12.165,2.932,13.052,6.127,13.052
			c3.196,0,6.127-0.887,6.127-13.052c0-4.35-0.088-12.252-6.127-12.252C348.064,378.377,347.975,386.279,347.975,390.629z"/>
	</g>
	<g id="digital">
		<path fill="#E50012" d="M229.541,289.009h22.462c8.79,0,15.804,1.387,22.375,8.96c6.393,7.253,9.323,17.281,9.323,27.734
			c0,9.601-2.841,19.627-8.435,26.561c-6.037,7.574-13.583,9.921-22.018,9.921h-23.707V289.009z M250.938,345.33
			c2.486,0,4.083,0.212,6.393-1.279c1.687-1.175,3.019-2.773,3.995-4.8c2.131-4.268,2.842-9.175,2.842-14.081
			c0-4.907-1.154-11.307-3.729-15.361c-2.93-4.373-5.771-4.16-10.033-4.16h-2.13v39.681H250.938z"/>
		<path fill="#E50012" d="M301.625,349.94h-17.58v-45.369h17.58V349.94z M301.625,300.221h-17.58v-12.075h17.58V300.221z"/>
		<path fill="#E50012" d="M335.493,336.712c3.907,0.178,8.082,0.711,11.276,3.108c3.463,2.573,5.239,7.014,5.239,11.275
			c0,6.481-4.351,10.566-10.122,12.519c-4.883,1.776-11.897,1.954-17.224,1.954c-7.548,0-24.594-0.534-24.594-11.188
			c0-4.35,2.574-7.37,6.569-8.789c-2.485-1.865-4.172-3.997-4.172-7.192c0-5.239,4.262-8.347,8.701-10.033
			c-4.706-1.952-7.371-5.238-7.371-10.477c0-11.72,12.963-14.206,22.198-14.206c2.841,0,5.682,0.177,8.434,0.888
			c0.978-6.57,4.263-10.655,11.276-10.655l5.15,0.266l1.154,0.09l-0.444,12.163l-4.349-0.177c-1.601,0-4.085,0.088-4.974,1.686
			c3.106,2.486,5.061,6.216,5.061,10.211c0,11.365-11.631,13.852-20.777,13.852l-2.041-0.091l-1.864-0.087
			c-1.51,0-4.438,0-4.438,2.218c0,2.31,3.284,2.131,4.883,2.131L335.493,336.712z M319.247,349.32c-2.042,0-4.439,0.176-4.439,2.841
			c0,2.13,1.687,3.019,3.55,3.373c2.842,0.711,5.86,0.8,8.79,0.8c2.664,0,9.234,0.443,9.234-3.552c0-3.019-3.02-2.842-5.238-2.93
			l-8.701-0.443L319.247,349.32z M331.144,318.156c0-3.463-1.776-5.683-5.416-5.683c-3.374,0-5.239,2.309-5.239,5.593
			c0,3.64,1.954,5.506,5.593,5.506C329.367,323.572,331.144,321.264,331.144,318.156z"/>
		<path fill="#E50012" d="M370.251,349.94h-17.58v-45.369h17.58V349.94z M370.251,300.221h-17.58v-12.075h17.58V300.221z"/>
		<path fill="#E50012" d="M370.469,316.113v-11.542h7.37l1.332-14.473l15.271-0.533v15.005h9.057v11.542h-8.879v15.627
			c0,3.285-0.355,5.859,3.817,5.859c1.687,0,3.374-0.355,5.062-0.798v12.694l-10.389,1.332c-4.704,0.622-9.234-0.888-12.696-4.614
			c-3.463-3.73-3.374-8.081-3.374-12.964v-17.137H370.469z"/>
		<path fill="#E50012" d="M434.473,349.94c-0.444-2.041-0.621-4.172-0.621-6.303c-3.551,5.237-8.612,7.19-14.827,7.19
			c-8.435,0-15.805-4.614-15.805-13.672c0-7.192,5.595-11.986,11.897-13.94c5.771-1.775,11.898-2.486,17.846-2.84v-0.355
			c0-4.084-1.064-5.682-5.326-5.682c-3.463,0-6.393,1.242-6.926,5.061l-16.159-1.509c2.663-11.275,13.406-14.206,23.617-14.206
			c5.328,0,12.164,0.71,16.604,3.907c5.949,4.173,5.237,10.033,5.237,16.514v15.893c0,3.373,0.09,6.748,1.421,9.943H434.473z
			 M432.963,328.722c-4.261,0.443-11.364,1.776-11.364,7.28c0,2.93,1.864,4.173,4.618,4.173c6.659,0,6.746-5.595,6.746-10.565
			V328.722z"/>
		<path fill="#E50012" d="M470,349.94h-17.579v-60.907H470V349.94z"/>
	</g>
	<g id="kobe">
		<path d="M204.448,300.9l-10.476-28.438l-6.393,10.98V300.9H170v-75.324h17.579v31.074l16.869-31.074h16.781l-15.359,27.561
			l19.089,47.764H204.448z"/>
		<path d="M262.536,264.42c0,13.762-11.099,23.174-24.949,23.174c-13.851,0-24.95-9.412-24.95-23.174
			c0-14.561,10.743-23.973,24.95-23.973C251.792,240.448,262.536,249.859,262.536,264.42z M231.46,263.799
			c0,12.164,2.93,13.052,6.127,13.052c3.196,0,6.126-0.888,6.126-13.052c0-4.351-0.09-12.253-6.126-12.253
			C231.548,251.546,231.46,259.448,231.46,263.799z"/>
		<path d="M263.036,225.799h17.579v20.953h0.267c2.485-4.617,6.303-6.304,11.631-6.304c12.696,0,17.045,12.164,17.045,22.996
			c0,12.608-5.326,24.151-19.531,24.151c-6.039,0-11.1-2.132-14.562-7.104c-1.065,1.955-1.775,4.086-2.397,6.215h-10.032V225.799z
			 M280.705,268.682c0,3.551,0.443,7.903,5.06,7.903c6.039,0,5.861-8.08,5.861-12.431c0-4.35,0.266-12.43-6.039-12.43
			c-1.598,0-2.841,0.799-3.817,2.042c-1.243,1.508-1.065,2.93-1.065,4.794V268.682z"/>
		<path d="M359.263,271.524c-2.753,11.009-12.52,16.07-23.262,16.07c-6.659,0-13.142-1.42-18.291-5.95
			c-4.882-4.35-7.458-10.565-7.458-17.047c0-6.125,2.398-12.785,6.66-17.135c4.615-4.795,11.541-7.015,18.021-7.015
			c15.096,0,24.329,9.767,24.329,24.683v2.396h-30.365c-0.268,4.884,1.509,8.436,6.836,8.436c3.995,0,6.216-1.599,6.926-5.505
			L359.263,271.524z M341.505,258.649c0-4.439-1.421-7.813-6.393-7.813c-4.618,0-6.482,3.64-6.304,7.813H341.505z"/>
	</g>
</g>
</svg>
