<?xml version="1.0" encoding="utf-8"?>
<!-- Generator: Adobe Illustrator 16.0.4, SVG Export Plug-In . SVG Version: 6.00 Build 0)  -->
<!DOCTYPE svg PUBLIC "-//W3C//DTD SVG 1.1//EN" "http://www.w3.org/Graphics/SVG/1.1/DTD/svg11.dtd">
<svg version="1.1" id="レイヤー_1" xmlns="http://www.w3.org/2000/svg" xmlns:xlink="http://www.w3.org/1999/xlink" x="0px"
	 y="0px" width="100px" height="100px" viewBox="0 0 100 100" enable-background="new 0 0 100 100" xml:space="preserve">
<g>
	<path fill="#FFFFFF" d="M49.877,22.833c-7.079,0-14.826-0.828-14.902-0.835c-0.231-0.017-0.461-0.219-0.461-0.49v-3.423
		c0-0.269,0.22-0.489,0.49-0.489c0.1,0.01,6.508,0.835,14.874,0.835c8.364,0,14.773-0.825,14.837-0.833c0.001,0,0.003,0,0.005,0
		c0.302,0,0.52,0.219,0.52,0.487v3.423c0,0.266-0.211,0.482-0.473,0.49C64.417,22.034,56.826,22.833,49.877,22.833z M35.056,21.46
		c0.696,0.073,8.066,0.831,14.821,0.831c6.858,0,14.35-0.781,14.821-0.831v-3.317c-0.626,0.079-6.839,0.828-14.821,0.828
		c-7.872,0-14.021-0.728-14.821-0.827V21.46z M35.004,21.456c0.001,0,0.006,0.001,0.012,0.001
		C35.012,21.457,35.008,21.456,35.004,21.456z"/>
	<g>
		<g>
			<path fill="#FFFFFF" d="M61.254,61.277c0,1.495-0.395,2.905-1.945,2.905c-1.528,0-1.952-1.376-1.952-2.905
				c0-1.415,0.36-2.902,1.952-2.902C60.874,58.375,61.254,59.818,61.254,61.277z M58.351,61.277c0,1.156,0.226,1.951,0.958,1.951
				c0.712,0,0.958-0.754,0.958-1.951c0-1.164-0.232-1.951-0.958-1.951C58.583,59.326,58.351,60.113,58.351,61.277z"/>
			<path fill="#FFFFFF" d="M62.854,60.305c-0.072,0.057-0.162,0.091-0.289,0.091c-0.282,0-0.458-0.189-0.458-0.457
				c0-0.184,0.056-0.29,0.162-0.388l1.177-1.037c0.133-0.119,0.31-0.14,0.422-0.14c0.409,0,0.542,0.267,0.542,0.487v4.825
				c0,0.43-0.344,0.495-0.471,0.495c-0.282,0-0.486-0.192-0.486-0.508V59.79L62.854,60.305z"/>
		</g>
	</g>
	<path fill="#FFFFFF" d="M41.422,36.873c-0.378-4.247-3.165-7.47-6.223-7.198c-3.058,0.273-5.23,3.937-4.852,8.185
		c0.378,4.247,3.164,7.468,6.222,7.196S41.8,41.121,41.422,36.873z M38.071,42.337c-1.87,0.166-3.585-1.949-3.832-4.724
		c-0.248-2.775,1.067-5.159,2.936-5.326c0.681-0.061,1.34,0.184,1.917,0.652c-0.552,0.178-0.92,0.934-0.842,1.807
		c0.086,0.964,0.682,1.699,1.332,1.64c0.512-0.045,0.899-0.573,1-1.264c0.217,0.575,0.365,1.211,0.426,1.889
		C41.254,39.787,39.939,42.171,38.071,42.337z"/>
	<path fill="#FFFFFF" d="M34.971,21.398v-3.147c0-0.154,0.057-0.289,0.212-0.25c0.155,0.038,0.927,0.155,1.332,0.174
		c0.405,0.02,2.22,0.212,2.22,0.212v3.532c0,0-3.263-0.328-3.475-0.347S34.971,21.398,34.971,21.398"/>
	<polygon fill="#FFFFFF" points="39.063,18.425 39.063,21.919 40.415,22.036 40.415,18.522 	"/>
	<path fill="#FFFFFF" d="M64.625,29.675c-3.059-0.272-5.845,2.951-6.223,7.198c-0.378,4.248,1.794,7.912,4.853,8.184
		c3.059,0.272,5.845-2.949,6.224-7.196C69.854,33.611,67.682,29.948,64.625,29.675z M65.585,37.614
		c-0.249,2.775-1.964,4.889-3.833,4.724c-1.868-0.166-3.183-2.551-2.937-5.326c0.248-2.775,1.963-4.89,3.832-4.724
		c0.494,0.044,0.945,0.245,1.342,0.563c-0.606,0.115-1.024,0.908-0.943,1.832c0.086,0.964,0.683,1.699,1.332,1.642
		c0.497-0.044,0.878-0.541,0.993-1.202C65.581,35.874,65.663,36.722,65.585,37.614z"/>
	<path fill="#FFFFFF" d="M57.2,92.56h-5.051l-0.02-0.249c-0.492-5.866-1.471-10.823-2.14-10.823s-1.648,4.957-2.14,10.823
		l-0.02,0.249h-5.071l-0.075-0.153c-0.379-0.783-9.315-19.231-10.42-26.235c-0.165-1.042-0.258-2.143-0.278-3.27l-0.005-0.254
		l0.557-0.049v-0.705l-6.418,0.417l-0.056-0.218c-0.138-0.536-0.256-1.57-0.039-3.448c0.442-3.804,2.638-5.538,3.659-6.147
		c-9.347-3.236-13.527-10.422-13.527-23.178c0-16.439,11.382-24.774,33.833-24.774c1.614,0,3.188,0.042,4.68,0.123l0.04-0.113
		l0.484,0.141c0.612,0.025,9.458,0.393,11.678,0.467c2.915,0.097,7.119,0.365,10.584,1.087c3.855,0.803,6.151,1.45,6.476,2.379
		c0.062,0.18,0.083,0.457-0.171,0.762l0,0c-0.469,0.563-1.395,0.668-2.374,0.78c-1.091,0.123-2.218,0.25-2.583,1.017
		c-0.679,1.425,0.793,3.753,1.259,4.432l0.047,0.072c0.103,0.144,0.158,0.213,0.159,0.217l0.636,0.824l-0.178-0.076
		c2.055,3.485,3.095,7.738,3.095,12.663c0,12.756-4.179,19.942-13.526,23.176c1.02,0.611,3.217,2.345,3.658,6.149
		c0.219,1.878,0.1,2.912-0.038,3.448l-0.057,0.218l-6.418-0.417v0.705l0.557,0.049l-0.005,0.254
		c-0.021,1.125-0.114,2.223-0.277,3.27c-1.106,7.004-10.06,25.453-10.442,26.235L57.2,92.56z M52.646,92.019h4.215
		c0.88-1.825,9.277-19.338,10.318-25.93c0.147-0.943,0.238-1.933,0.267-2.946l-0.546-0.046v-1.78l6.54,0.425
		c0.1-0.542,0.158-1.475-0.024-3.032c-0.497-4.278-3.4-5.773-3.799-5.959h-1.885l1.676-0.529
		c9.595-3.032,13.873-10.094,13.873-22.901c0-5.169-1.166-9.578-3.464-13.102l-0.049-0.077c-0.039-0.052-0.089-0.123-0.15-0.211
		l-0.048-0.07c-0.669-0.991-2.018-3.303-1.255-4.905c0.495-1.038,1.832-1.189,3.011-1.323c0.868-0.098,1.689-0.191,2.019-0.588l0,0
		c0.112-0.134,0.087-0.205,0.075-0.236c-0.285-0.821-4.49-1.697-6.072-2.027c-3.428-0.713-7.599-0.979-10.493-1.075
		c-1.788-0.06-7.858-0.31-10.487-0.417l0.061,0.026l-1.495-0.088c-1.569-0.092-3.232-0.139-4.943-0.139
		c-9.174,0-16.239,1.31-21.602,4c-7.756,3.894-11.69,10.7-11.69,20.233c0,12.807,4.279,19.87,13.873,22.901l1.677,0.529h-1.886
		c-0.42,0.189-3.297,1.645-3.798,5.959c-0.181,1.557-0.124,2.49-0.023,3.032l6.539-0.425v1.78l-0.546,0.046
		c0.029,1.026,0.116,1.993,0.266,2.946c1.04,6.592,9.42,24.105,10.299,25.93h4.233c0.304-3.527,1.133-11.072,2.658-11.072
		C51.515,80.946,52.343,88.492,52.646,92.019z M57.971,49.093c-0.02,0-0.037,0-0.055,0l0,0c-2.434-0.003-3.651-0.078-4.725-0.146
		c-0.904-0.054-1.759-0.108-3.202-0.108c-1.429,0-2.252,0.052-3.123,0.108c-1.062,0.068-2.267,0.143-4.805,0.146
		c-0.018,0-0.037,0-0.055,0c-6.221,0-10.4-0.811-13.151-2.544c-3.003-1.894-4.463-5.039-4.463-9.611
		c0-9.461,8.298-12.521,12.316-12.521c1.814,0,3.264,0.116,4.942,0.252c2.123,0.171,4.529,0.365,8.339,0.365
		s6.216-0.194,8.339-0.365c1.679-0.136,3.128-0.252,4.941-0.252c4.019,0,12.318,3.06,12.318,12.521c0,4.549-1.499,7.694-4.581,9.611
		C68.22,48.282,64.076,49.093,57.971,49.093z M57.916,48.549c0.019,0,0.037,0,0.055,0c6,0,10.051-0.783,12.748-2.458
		c2.911-1.813,4.326-4.806,4.326-9.153c0-9.052-7.933-11.98-11.775-11.98c-1.791,0-3.23,0.116-4.897,0.25
		c-2.134,0.172-4.551,0.368-8.383,0.368c-3.832,0-6.249-0.196-8.383-0.368c-1.667-0.134-3.106-0.25-4.898-0.25
		c-3.841,0-11.774,2.928-11.774,11.98c0,4.432,1.338,7.341,4.21,9.153c2.661,1.676,6.749,2.458,12.862,2.458
		c0.018,0,0.037,0,0.055,0c2.521,0,3.716-0.075,4.771-0.143c0.88-0.057,1.711-0.108,3.157-0.108c1.459,0,2.322,0.054,3.236,0.108
		C54.291,48.474,55.5,48.549,57.916,48.549L57.916,48.549z"/>
	<path fill="#FFFFFF" d="M88.657,42.056c5.379-2.632,11.2-1.37,11.2-1.37s-1.201-1.588-1.561-2.422
		c-0.358-0.835,0.368-2.274,0.368-2.274s-7.891,0.771-12.041,3.018c-2.369,1.281-4.159,2.718-5.703,4.222
		c-1.909,3.868-4.823,6.464-8.634,8.185l-0.171,1.063c0,0,0.619-0.363,1.538-0.92c1.298-0.064,4.289-0.518,5.813-1.389
		c2.034-1.163,4.726-2.803,7.587-3.068c2.861-0.267,8.307,2.109,8.307,2.109s-1.009-1.571-0.915-2.76
		c0.093-1.187,0.977-1.65,0.977-1.65s-4.705-1.146-8.941-0.176c-4.199,0.961-6.595,3.167-9.239,4.68
		c1.508-0.993,2.952-2.011,3.693-2.726C82.889,44.691,83.279,44.688,88.657,42.056z"/>
	<path fill="#FFFFFF" d="M52.845,92.288c0.211,0.943,0.784,3.148,1.51,3.167c0.924,0.023,1.291-0.886,1.658-1.793
		c0.197-0.487,0.434-0.998,0.614-1.374H52.845z"/>
	<path fill="#FFFFFF" d="M43.352,92.288c0.18,0.376,0.417,0.886,0.613,1.374c0.368,0.907,0.735,1.816,1.658,1.793
		c0.727-0.018,1.298-2.223,1.51-3.167H43.352z"/>
	<g>
		<path fill="#FFFFFF" d="M49.989,54.584c-5.812,0-10.973-0.256-15.404-1.094c3.494,1.568,9.209,2.589,15.672,2.589
			c6.729,0,12.648-1.106,16.093-2.783C61.71,54.283,56.225,54.584,49.989,54.584z"/>
	</g>
	<path fill="#FFFFFF" d="M34.448,72.709c0,0,5.785,1.438,15.205,1.438c9.42,0,15.873-1.438,15.873-1.438l-0.671,1.795
		c0,0-6.811,1.796-15.253,1.796c-8.442,0-14.521-1.796-14.521-1.796L34.448,72.709z"/>
	<path fill="#FFFFFF" d="M30.753,72.618c0.188,0.358,0.631,1.177,1.021,1.708c0.509,0.697,0.768,0.804,1.263,0.674
		c0.547-0.143,0.692-0.182,0.751-1.368c0.035-0.692,0.045-1.265,0.047-1.637L30.753,72.618z"/>
	<path fill="#FFFFFF" d="M66.143,71.994c0.002,0.373,0.012,0.945,0.046,1.637c0.06,1.187,0.205,1.226,0.752,1.368
		c0.495,0.13,0.754,0.023,1.265-0.674c0.388-0.531,0.832-1.35,1.021-1.708L66.143,71.994z"/>
	<polygon fill="#FFFFFF" points="25.974,62.049 26.174,63.438 32.808,62.847 32.808,61.606 	"/>
	<polygon fill="#FFFFFF" points="74.004,62.049 73.805,63.438 67.171,62.847 67.171,61.606 	"/>
	<path fill="#FFFFFF" d="M68.286,71.784l-0.535,0.535l0.53,0.108l0.324-0.324l0.488,0.488l0.582,0.118c0,0,0.023-0.039,0.063-0.107
		l-0.818-0.817l1.309-1.306l0.439,0.438c0.073-0.137,0.143-0.269,0.218-0.416l-0.341-0.341l0.985-0.984
		c0.163-0.356,0.323-0.713,0.461-1.062c0.007-0.016,0.012-0.034,0.019-0.049l-0.156,0.156l-1.309-1.309l1.309-1.309l0.74,0.739
		c0.049-0.167,0.096-0.33,0.141-0.491l-0.564-0.564l0.944-0.945c0.127-0.561,0.193-0.921,0.193-0.921l-0.441-0.055l0.295,0.295
		l-1.309,1.306l-1.309-1.306l0.517-0.517l-0.566-0.069l-0.267,0.268L69.887,63l-0.724-0.088l0.749,0.749l-1.307,1.306l-0.987-0.985
		c-0.02,0.177-0.044,0.367-0.071,0.563l0.74,0.74l-1.094,1.094c-0.007,0.027-0.013,0.057-0.021,0.084
		c-0.061,0.218-0.132,0.484-0.208,0.777l0.016-0.016l1.307,1.309l-1.307,1.309l-0.536-0.537c-0.042,0.173-0.083,0.342-0.125,0.509
		l0.344,0.343l-0.564,0.563c-0.082,0.335-0.151,0.627-0.201,0.836l1.082-1.081L68.286,71.784z M71.536,68.535l-1.307,1.309
		l-1.309-1.309l1.309-1.309L71.536,68.535z M70.229,63.977l1.307,1.309l-1.307,1.309l-1.309-1.309L70.229,63.977z M67.296,66.91
		l1.309-1.309l1.307,1.309l-1.307,1.309L67.296,66.91z M68.604,68.851l1.307,1.309l-1.307,1.309l-1.309-1.309L68.604,68.851z"/>
	<path fill="#FFFFFF" d="M33.66,69.816c-0.04-0.167-0.082-0.336-0.124-0.509L33,69.843l-1.308-1.309L33,67.226l0.016,0.017
		c-0.076-0.293-0.146-0.561-0.208-0.779c-0.008-0.027-0.013-0.056-0.021-0.083l-1.095-1.096l0.74-0.742
		c-0.027-0.195-0.051-0.385-0.071-0.562l-0.986,0.985l-1.308-1.306l0.749-0.749L30.09,63l-0.341,0.342l-0.267-0.268l-0.566,0.069
		l0.517,0.517l-1.308,1.306l-1.309-1.306l0.295-0.295l-0.44,0.055c0,0,0.066,0.36,0.193,0.922l0.943,0.943l-0.563,0.563
		c0.044,0.162,0.091,0.326,0.141,0.492l0.74-0.739l1.308,1.309l-1.308,1.309l-0.157-0.157c0.007,0.017,0.013,0.034,0.019,0.051
		c0.139,0.348,0.297,0.706,0.461,1.061l0.985,0.986L29.091,70.5c0.075,0.146,0.146,0.279,0.218,0.417l0.44-0.439l1.309,1.306
		l-0.817,0.817c0.041,0.068,0.063,0.107,0.063,0.107l0.583-0.118l0.488-0.488l0.324,0.324l0.529-0.106l-0.536-0.536L33,70.478
		l1.082,1.081c-0.05-0.208-0.12-0.5-0.201-0.834l-0.564-0.565L33.66,69.816z M32.683,66.91l-1.308,1.309l-1.308-1.309l1.308-1.309
		L32.683,66.91z M28.441,65.286l1.308-1.309l1.308,1.309l-1.308,1.309L28.441,65.286z M28.441,68.535l1.308-1.309l1.309,1.309
		l-1.309,1.309L28.441,68.535z M31.375,71.468l-1.308-1.309l1.308-1.309l1.308,1.309L31.375,71.468z"/>
</g>
</svg>
