<?xml version="1.0" encoding="utf-8"?>
<!-- Generator: Adobe Illustrator 16.0.4, SVG Export Plug-In . SVG Version: 6.00 Build 0)  -->
<!DOCTYPE svg PUBLIC "-//W3C//DTD SVG 1.1//EN" "http://www.w3.org/Graphics/SVG/1.1/DTD/svg11.dtd">
<svg version="1.1" id="レイヤー_1" xmlns="http://www.w3.org/2000/svg" xmlns:xlink="http://www.w3.org/1999/xlink" x="0px"
	 y="0px" width="80px" height="75px" viewBox="0 0 80 75" enable-background="new 0 0 80 75" xml:space="preserve">
<g>
	<path opacity="0.9" fill="#FFFFFF" stroke="#0A94B8" stroke-miterlimit="10" d="M34.311,2.375
		C12.865,6.426-1.972,23.193,1.17,39.826c2.293,12.135,13.534,20.839,27.774,23.084l4.469,10.602l7.782-10.272
		c1.487-0.147,2.985-0.354,4.493-0.638C67.135,58.55,81.972,41.783,78.83,25.151C75.687,8.521,55.755-1.677,34.311,2.375z"/>
	<g>
		<g>
			<path fill="#0A94B8" d="M14.532,28.763l2.411-0.292l0.417,1.514l0.077-0.009c1.106-1.177,2.539-2.237,4.104-2.426
				c3.59-0.435,5.934,2.175,6.46,6.516c0.588,4.854-1.972,7.979-5.153,8.367c-1.256,0.151-2.582-0.262-3.91-1.143l0.369,2.405
				l0.555,4.573l-2.923,0.354L14.532,28.763z M24.958,34.485c-0.358-2.954-1.528-4.662-3.888-4.376
				c-1.103,0.134-2.084,0.826-3.15,2.128l0.837,6.912c1.219,0.815,2.361,1.017,3.234,0.911C24.041,39.81,25.359,37.8,24.958,34.485z
				"/>
			<path fill="#0A94B8" d="M29.74,22.463c-0.127-1.053,0.584-1.843,1.661-1.974c1.077-0.129,1.981,0.464,2.11,1.518
				c0.124,1.027-0.61,1.846-1.686,1.977C30.748,24.114,29.865,23.491,29.74,22.463z M30.683,26.806l2.922-0.354l1.713,14.128
				l-2.923,0.355L30.683,26.806z"/>
			<path fill="#0A94B8" d="M38.042,25.915l2.41-0.292l0.419,1.513l0.077-0.009c1.105-1.176,2.538-2.236,4.103-2.425
				c3.589-0.436,5.935,2.174,6.461,6.515c0.588,4.855-1.972,7.98-5.153,8.366c-1.256,0.153-2.581-0.261-3.91-1.142l0.368,2.404
				l0.555,4.573l-2.923,0.354L38.042,25.915z M48.467,31.637c-0.359-2.955-1.529-4.663-3.889-4.376
				c-1.101,0.133-2.085,0.826-3.149,2.127l0.837,6.911c1.218,0.817,2.362,1.017,3.232,0.912
				C47.55,36.961,48.867,34.951,48.467,31.637z"/>
			<path fill="#0A94B8" d="M53.25,19.613c-0.129-1.052,0.583-1.843,1.661-1.973c1.077-0.13,1.982,0.464,2.11,1.517
				c0.124,1.028-0.609,1.846-1.687,1.977C54.256,21.265,53.374,20.642,53.25,19.613z M54.192,23.958l2.924-0.355l1.711,14.129
				l-2.922,0.353L54.192,23.958z"/>
			<path fill="#0A94B8" d="M62.055,20.789l-0.445-3.022l2.974-0.36l0.267,3.043l0.833,10.327l-1.974,0.239L62.055,20.789z
				 M63.259,35.45c-0.147-1.208,0.591-2.209,1.693-2.344c1.129-0.136,2.11,0.658,2.256,1.865c0.146,1.207-0.624,2.16-1.752,2.297
				C64.354,37.401,63.406,36.656,63.259,35.45z"/>
		</g>
	</g>
</g>
</svg>
